G04 #@! TF.FileFunction,Legend,Bot*
%FSLAX46Y46*%
G04 Gerber Fmt 4.6, Leading zero omitted, Abs format (unit mm)*
G04 Created by KiCad (PCBNEW 4.0.6) date Saturday, January 06, 2018 'AMt' 08:46:40 AM*
%MOMM*%
%LPD*%
G01*
G04 APERTURE LIST*
%ADD10C,0.150000*%
%ADD11C,0.381000*%
%ADD12C,0.375000*%
%ADD13C,0.010000*%
%ADD14C,0.254000*%
%ADD15C,0.120000*%
%ADD16C,0.127000*%
%ADD17C,0.200000*%
%ADD18C,2.600000*%
%ADD19R,0.680000X1.080000*%
%ADD20R,0.830000X0.880000*%
%ADD21R,0.880000X0.830000*%
%ADD22R,1.080000X1.680000*%
%ADD23R,1.680000X1.080000*%
%ADD24C,0.880000*%
%ADD25R,0.830000X1.230000*%
%ADD26R,1.480000X1.030000*%
%ADD27O,0.380000X0.880000*%
%ADD28O,0.880000X0.380000*%
%ADD29R,7.580000X7.580000*%
%ADD30R,0.580380X2.381240*%
%ADD31R,2.078980X2.579360*%
%ADD32C,0.979160*%
%ADD33O,0.880000X0.280000*%
%ADD34O,0.280000X0.880000*%
%ADD35R,2.480000X0.880000*%
%ADD36R,0.880000X2.480000*%
%ADD37R,2.380000X2.380000*%
%ADD38R,1.480000X1.280000*%
%ADD39R,2.630000X2.580000*%
%ADD40R,1.280000X0.830000*%
%ADD41R,2.580000X2.630000*%
%ADD42R,0.830000X1.280000*%
%ADD43R,0.980000X0.680000*%
%ADD44R,0.680000X0.980000*%
%ADD45R,1.380000X3.480000*%
%ADD46O,3.080000X1.080000*%
G04 APERTURE END LIST*
D10*
D11*
X42180571Y-43608857D02*
X41019428Y-43608857D01*
X41599999Y-44189429D02*
X41599999Y-43028286D01*
X53912132Y-77300000D02*
G75*
G03X53912132Y-77300000I-212132J0D01*
G01*
D12*
X108178571Y-97428571D02*
X108892857Y-97428571D01*
X108892857Y-95928571D01*
X107178571Y-96642857D02*
X107678571Y-96642857D01*
X107678571Y-97428571D02*
X107678571Y-95928571D01*
X106964285Y-95928571D01*
X106392857Y-97428571D02*
X106392857Y-95928571D01*
X105535714Y-97428571D02*
X106178571Y-96571429D01*
X105535714Y-95928571D02*
X106392857Y-96785714D01*
X104107143Y-97428571D02*
X104964286Y-97428571D01*
X104535714Y-97428571D02*
X104535714Y-95928571D01*
X104678571Y-96142857D01*
X104821429Y-96285714D01*
X104964286Y-96357143D01*
X103607143Y-95928571D02*
X102607143Y-95928571D01*
X103250000Y-97428571D01*
X100035715Y-97428571D02*
X100535715Y-96714286D01*
X100892858Y-97428571D02*
X100892858Y-95928571D01*
X100321430Y-95928571D01*
X100178572Y-96000000D01*
X100107144Y-96071429D01*
X100035715Y-96214286D01*
X100035715Y-96428571D01*
X100107144Y-96571429D01*
X100178572Y-96642857D01*
X100321430Y-96714286D01*
X100892858Y-96714286D01*
X98821430Y-97357143D02*
X98964287Y-97428571D01*
X99250001Y-97428571D01*
X99392858Y-97357143D01*
X99464287Y-97214286D01*
X99464287Y-96642857D01*
X99392858Y-96500000D01*
X99250001Y-96428571D01*
X98964287Y-96428571D01*
X98821430Y-96500000D01*
X98750001Y-96642857D01*
X98750001Y-96785714D01*
X99464287Y-96928571D01*
X98250001Y-96428571D02*
X97892858Y-97428571D01*
X97535716Y-96428571D01*
X96464287Y-96642857D02*
X96250001Y-96714286D01*
X96178573Y-96785714D01*
X96107144Y-96928571D01*
X96107144Y-97142857D01*
X96178573Y-97285714D01*
X96250001Y-97357143D01*
X96392859Y-97428571D01*
X96964287Y-97428571D01*
X96964287Y-95928571D01*
X96464287Y-95928571D01*
X96321430Y-96000000D01*
X96250001Y-96071429D01*
X96178573Y-96214286D01*
X96178573Y-96357143D01*
X96250001Y-96500000D01*
X96321430Y-96571429D01*
X96464287Y-96642857D01*
X96964287Y-96642857D01*
D11*
X48162132Y-51950000D02*
G75*
G03X48162132Y-51950000I-212132J0D01*
G01*
D13*
G36*
X89169504Y-90863048D02*
X88680489Y-90865233D01*
X88445131Y-91805034D01*
X88408356Y-91951970D01*
X88375462Y-92083645D01*
X88346180Y-92201216D01*
X88320242Y-92305840D01*
X88297376Y-92398671D01*
X88277316Y-92480868D01*
X88259791Y-92553585D01*
X88244533Y-92617979D01*
X88231272Y-92675207D01*
X88219739Y-92726425D01*
X88209665Y-92772788D01*
X88200781Y-92815455D01*
X88192818Y-92855579D01*
X88185507Y-92894319D01*
X88178579Y-92932830D01*
X88171764Y-92972269D01*
X88167287Y-92998834D01*
X88154323Y-93076332D01*
X88143831Y-93138759D01*
X88135465Y-93187745D01*
X88128884Y-93224915D01*
X88123742Y-93251898D01*
X88119696Y-93270321D01*
X88116402Y-93281812D01*
X88113516Y-93287997D01*
X88110694Y-93290506D01*
X88107592Y-93290965D01*
X88105571Y-93290934D01*
X88101735Y-93285145D01*
X88097120Y-93267201D01*
X88091594Y-93236238D01*
X88085025Y-93191389D01*
X88077279Y-93131790D01*
X88068224Y-93056573D01*
X88063743Y-93017884D01*
X88058701Y-92974153D01*
X88053977Y-92934131D01*
X88049344Y-92896592D01*
X88044574Y-92860311D01*
X88039440Y-92824065D01*
X88033716Y-92786630D01*
X88027175Y-92746779D01*
X88019589Y-92703291D01*
X88010733Y-92654939D01*
X88000378Y-92600501D01*
X87988298Y-92538750D01*
X87974266Y-92468464D01*
X87958055Y-92388417D01*
X87939438Y-92297385D01*
X87918189Y-92194145D01*
X87894079Y-92077471D01*
X87866883Y-91946139D01*
X87849923Y-91864300D01*
X87824879Y-91743495D01*
X87800599Y-91626437D01*
X87777328Y-91514308D01*
X87755312Y-91408285D01*
X87734796Y-91309549D01*
X87716026Y-91219278D01*
X87699246Y-91138653D01*
X87684703Y-91068852D01*
X87672641Y-91011056D01*
X87663306Y-90966443D01*
X87656944Y-90936194D01*
X87653996Y-90922383D01*
X87640567Y-90861000D01*
X87227050Y-90861000D01*
X87141561Y-90861151D01*
X87062558Y-90861586D01*
X86991544Y-90862279D01*
X86930019Y-90863200D01*
X86879483Y-90864325D01*
X86841438Y-90865624D01*
X86817385Y-90867072D01*
X86808851Y-90868575D01*
X86810567Y-90877418D01*
X86816586Y-90901643D01*
X86826652Y-90940324D01*
X86840508Y-90992535D01*
X86857899Y-91057352D01*
X86878567Y-91133848D01*
X86902258Y-91221097D01*
X86928714Y-91318173D01*
X86957679Y-91424151D01*
X86988898Y-91538105D01*
X87022113Y-91659108D01*
X87057069Y-91786237D01*
X87093509Y-91918563D01*
X87131178Y-92055162D01*
X87169819Y-92195108D01*
X87209175Y-92337476D01*
X87248990Y-92481338D01*
X87289009Y-92625770D01*
X87328975Y-92769846D01*
X87368632Y-92912639D01*
X87407723Y-93053225D01*
X87445993Y-93190677D01*
X87483184Y-93324069D01*
X87519042Y-93452476D01*
X87553309Y-93574972D01*
X87585729Y-93690631D01*
X87616046Y-93798528D01*
X87644005Y-93897735D01*
X87669348Y-93987329D01*
X87691819Y-94066383D01*
X87711162Y-94133970D01*
X87727122Y-94189166D01*
X87739441Y-94231045D01*
X87740109Y-94233280D01*
X87790465Y-94399282D01*
X87837741Y-94549751D01*
X87882399Y-94685714D01*
X87924906Y-94808196D01*
X87965726Y-94918223D01*
X88005324Y-95016820D01*
X88044165Y-95105015D01*
X88082714Y-95183831D01*
X88121435Y-95254295D01*
X88160794Y-95317432D01*
X88201255Y-95374269D01*
X88243283Y-95425831D01*
X88287343Y-95473143D01*
X88313559Y-95498617D01*
X88360920Y-95543067D01*
X88780027Y-95543067D01*
X88862610Y-95542942D01*
X88939932Y-95542585D01*
X89010366Y-95542020D01*
X89072282Y-95541272D01*
X89124052Y-95540364D01*
X89164048Y-95539322D01*
X89190640Y-95538169D01*
X89202200Y-95536931D01*
X89202551Y-95536717D01*
X89201527Y-95527751D01*
X89197634Y-95504295D01*
X89191279Y-95468471D01*
X89182869Y-95422404D01*
X89172810Y-95368216D01*
X89161509Y-95308030D01*
X89149371Y-95243971D01*
X89136804Y-95178161D01*
X89124214Y-95112723D01*
X89112007Y-95049781D01*
X89100590Y-94991457D01*
X89090369Y-94939876D01*
X89081750Y-94897161D01*
X89075141Y-94865434D01*
X89070947Y-94846819D01*
X89069712Y-94842761D01*
X89061493Y-94844052D01*
X89042143Y-94849316D01*
X89026172Y-94854180D01*
X88997197Y-94860629D01*
X88958783Y-94865631D01*
X88918418Y-94868258D01*
X88911520Y-94868407D01*
X88873706Y-94868277D01*
X88846164Y-94865734D01*
X88822265Y-94859408D01*
X88795378Y-94847930D01*
X88782768Y-94841819D01*
X88724121Y-94803638D01*
X88670566Y-94749396D01*
X88622164Y-94679201D01*
X88578976Y-94593163D01*
X88541064Y-94491388D01*
X88508490Y-94373985D01*
X88502514Y-94348161D01*
X88480727Y-94251020D01*
X89063631Y-92575060D01*
X89120248Y-92412267D01*
X89175423Y-92253605D01*
X89228893Y-92099824D01*
X89280399Y-91951676D01*
X89329680Y-91809911D01*
X89376475Y-91675281D01*
X89420523Y-91548535D01*
X89461563Y-91430426D01*
X89499334Y-91321702D01*
X89533576Y-91223116D01*
X89564027Y-91135418D01*
X89590428Y-91059360D01*
X89612516Y-90995690D01*
X89630032Y-90945162D01*
X89642714Y-90908525D01*
X89650301Y-90886529D01*
X89652527Y-90879981D01*
X89658518Y-90860862D01*
X89169504Y-90863048D01*
X89169504Y-90863048D01*
G37*
X89169504Y-90863048D02*
X88680489Y-90865233D01*
X88445131Y-91805034D01*
X88408356Y-91951970D01*
X88375462Y-92083645D01*
X88346180Y-92201216D01*
X88320242Y-92305840D01*
X88297376Y-92398671D01*
X88277316Y-92480868D01*
X88259791Y-92553585D01*
X88244533Y-92617979D01*
X88231272Y-92675207D01*
X88219739Y-92726425D01*
X88209665Y-92772788D01*
X88200781Y-92815455D01*
X88192818Y-92855579D01*
X88185507Y-92894319D01*
X88178579Y-92932830D01*
X88171764Y-92972269D01*
X88167287Y-92998834D01*
X88154323Y-93076332D01*
X88143831Y-93138759D01*
X88135465Y-93187745D01*
X88128884Y-93224915D01*
X88123742Y-93251898D01*
X88119696Y-93270321D01*
X88116402Y-93281812D01*
X88113516Y-93287997D01*
X88110694Y-93290506D01*
X88107592Y-93290965D01*
X88105571Y-93290934D01*
X88101735Y-93285145D01*
X88097120Y-93267201D01*
X88091594Y-93236238D01*
X88085025Y-93191389D01*
X88077279Y-93131790D01*
X88068224Y-93056573D01*
X88063743Y-93017884D01*
X88058701Y-92974153D01*
X88053977Y-92934131D01*
X88049344Y-92896592D01*
X88044574Y-92860311D01*
X88039440Y-92824065D01*
X88033716Y-92786630D01*
X88027175Y-92746779D01*
X88019589Y-92703291D01*
X88010733Y-92654939D01*
X88000378Y-92600501D01*
X87988298Y-92538750D01*
X87974266Y-92468464D01*
X87958055Y-92388417D01*
X87939438Y-92297385D01*
X87918189Y-92194145D01*
X87894079Y-92077471D01*
X87866883Y-91946139D01*
X87849923Y-91864300D01*
X87824879Y-91743495D01*
X87800599Y-91626437D01*
X87777328Y-91514308D01*
X87755312Y-91408285D01*
X87734796Y-91309549D01*
X87716026Y-91219278D01*
X87699246Y-91138653D01*
X87684703Y-91068852D01*
X87672641Y-91011056D01*
X87663306Y-90966443D01*
X87656944Y-90936194D01*
X87653996Y-90922383D01*
X87640567Y-90861000D01*
X87227050Y-90861000D01*
X87141561Y-90861151D01*
X87062558Y-90861586D01*
X86991544Y-90862279D01*
X86930019Y-90863200D01*
X86879483Y-90864325D01*
X86841438Y-90865624D01*
X86817385Y-90867072D01*
X86808851Y-90868575D01*
X86810567Y-90877418D01*
X86816586Y-90901643D01*
X86826652Y-90940324D01*
X86840508Y-90992535D01*
X86857899Y-91057352D01*
X86878567Y-91133848D01*
X86902258Y-91221097D01*
X86928714Y-91318173D01*
X86957679Y-91424151D01*
X86988898Y-91538105D01*
X87022113Y-91659108D01*
X87057069Y-91786237D01*
X87093509Y-91918563D01*
X87131178Y-92055162D01*
X87169819Y-92195108D01*
X87209175Y-92337476D01*
X87248990Y-92481338D01*
X87289009Y-92625770D01*
X87328975Y-92769846D01*
X87368632Y-92912639D01*
X87407723Y-93053225D01*
X87445993Y-93190677D01*
X87483184Y-93324069D01*
X87519042Y-93452476D01*
X87553309Y-93574972D01*
X87585729Y-93690631D01*
X87616046Y-93798528D01*
X87644005Y-93897735D01*
X87669348Y-93987329D01*
X87691819Y-94066383D01*
X87711162Y-94133970D01*
X87727122Y-94189166D01*
X87739441Y-94231045D01*
X87740109Y-94233280D01*
X87790465Y-94399282D01*
X87837741Y-94549751D01*
X87882399Y-94685714D01*
X87924906Y-94808196D01*
X87965726Y-94918223D01*
X88005324Y-95016820D01*
X88044165Y-95105015D01*
X88082714Y-95183831D01*
X88121435Y-95254295D01*
X88160794Y-95317432D01*
X88201255Y-95374269D01*
X88243283Y-95425831D01*
X88287343Y-95473143D01*
X88313559Y-95498617D01*
X88360920Y-95543067D01*
X88780027Y-95543067D01*
X88862610Y-95542942D01*
X88939932Y-95542585D01*
X89010366Y-95542020D01*
X89072282Y-95541272D01*
X89124052Y-95540364D01*
X89164048Y-95539322D01*
X89190640Y-95538169D01*
X89202200Y-95536931D01*
X89202551Y-95536717D01*
X89201527Y-95527751D01*
X89197634Y-95504295D01*
X89191279Y-95468471D01*
X89182869Y-95422404D01*
X89172810Y-95368216D01*
X89161509Y-95308030D01*
X89149371Y-95243971D01*
X89136804Y-95178161D01*
X89124214Y-95112723D01*
X89112007Y-95049781D01*
X89100590Y-94991457D01*
X89090369Y-94939876D01*
X89081750Y-94897161D01*
X89075141Y-94865434D01*
X89070947Y-94846819D01*
X89069712Y-94842761D01*
X89061493Y-94844052D01*
X89042143Y-94849316D01*
X89026172Y-94854180D01*
X88997197Y-94860629D01*
X88958783Y-94865631D01*
X88918418Y-94868258D01*
X88911520Y-94868407D01*
X88873706Y-94868277D01*
X88846164Y-94865734D01*
X88822265Y-94859408D01*
X88795378Y-94847930D01*
X88782768Y-94841819D01*
X88724121Y-94803638D01*
X88670566Y-94749396D01*
X88622164Y-94679201D01*
X88578976Y-94593163D01*
X88541064Y-94491388D01*
X88508490Y-94373985D01*
X88502514Y-94348161D01*
X88480727Y-94251020D01*
X89063631Y-92575060D01*
X89120248Y-92412267D01*
X89175423Y-92253605D01*
X89228893Y-92099824D01*
X89280399Y-91951676D01*
X89329680Y-91809911D01*
X89376475Y-91675281D01*
X89420523Y-91548535D01*
X89461563Y-91430426D01*
X89499334Y-91321702D01*
X89533576Y-91223116D01*
X89564027Y-91135418D01*
X89590428Y-91059360D01*
X89612516Y-90995690D01*
X89630032Y-90945162D01*
X89642714Y-90908525D01*
X89650301Y-90886529D01*
X89652527Y-90879981D01*
X89658518Y-90860862D01*
X89169504Y-90863048D01*
G36*
X102789134Y-88335616D02*
X102700245Y-88371136D01*
X102622237Y-88414598D01*
X102550060Y-88469172D01*
X102496713Y-88519308D01*
X102460901Y-88556756D01*
X102434001Y-88588352D01*
X102412173Y-88619380D01*
X102391577Y-88655127D01*
X102376008Y-88685440D01*
X102356397Y-88726646D01*
X102338207Y-88768259D01*
X102323819Y-88804655D01*
X102317062Y-88824767D01*
X102315722Y-88830033D01*
X102314464Y-88836675D01*
X102313284Y-88845225D01*
X102312180Y-88856220D01*
X102311148Y-88870191D01*
X102310186Y-88887672D01*
X102309290Y-88909198D01*
X102308457Y-88935303D01*
X102307684Y-88966519D01*
X102306968Y-89003381D01*
X102306305Y-89046422D01*
X102305693Y-89096177D01*
X102305129Y-89153179D01*
X102304609Y-89217962D01*
X102304130Y-89291059D01*
X102303689Y-89373004D01*
X102303284Y-89464332D01*
X102302910Y-89565576D01*
X102302565Y-89677269D01*
X102302246Y-89799946D01*
X102301949Y-89934140D01*
X102301672Y-90080385D01*
X102301411Y-90239215D01*
X102301163Y-90411164D01*
X102300925Y-90596764D01*
X102300694Y-90796551D01*
X102300467Y-91011058D01*
X102300240Y-91240818D01*
X102300012Y-91486365D01*
X102299777Y-91748234D01*
X102299742Y-91788100D01*
X102299509Y-92071640D01*
X102299322Y-92338612D01*
X102299182Y-92589383D01*
X102299091Y-92824320D01*
X102299049Y-93043788D01*
X102299057Y-93248153D01*
X102299116Y-93437781D01*
X102299227Y-93613039D01*
X102299391Y-93774293D01*
X102299608Y-93921909D01*
X102299879Y-94056253D01*
X102300206Y-94177690D01*
X102300589Y-94286588D01*
X102301030Y-94383313D01*
X102301528Y-94468230D01*
X102302085Y-94541705D01*
X102302702Y-94604105D01*
X102303379Y-94655797D01*
X102304118Y-94697145D01*
X102304920Y-94728516D01*
X102305784Y-94750276D01*
X102306713Y-94762792D01*
X102306894Y-94764133D01*
X102330503Y-94863711D01*
X102369453Y-94958697D01*
X102422370Y-95047230D01*
X102487883Y-95127447D01*
X102564619Y-95197486D01*
X102651206Y-95255484D01*
X102680317Y-95270970D01*
X102723938Y-95291375D01*
X102770626Y-95310896D01*
X102813569Y-95326783D01*
X102835700Y-95333705D01*
X102903434Y-95352567D01*
X105718600Y-95353632D01*
X105936522Y-95353695D01*
X106150375Y-95353716D01*
X106359518Y-95353697D01*
X106563314Y-95353640D01*
X106761124Y-95353545D01*
X106952309Y-95353415D01*
X107136230Y-95353249D01*
X107312249Y-95353050D01*
X107479726Y-95352819D01*
X107638024Y-95352557D01*
X107786502Y-95352266D01*
X107924524Y-95351946D01*
X108051449Y-95351599D01*
X108166639Y-95351226D01*
X108269455Y-95350828D01*
X108359259Y-95350407D01*
X108435412Y-95349964D01*
X108497275Y-95349500D01*
X108544209Y-95349017D01*
X108575575Y-95348515D01*
X108590736Y-95347997D01*
X108591521Y-95347924D01*
X108695870Y-95327273D01*
X108796004Y-95290728D01*
X108890264Y-95239136D01*
X108976989Y-95173342D01*
X109025293Y-95126797D01*
X109094506Y-95042575D01*
X109147981Y-94952170D01*
X109185835Y-94855351D01*
X109206397Y-94764133D01*
X109207344Y-94753569D01*
X109208226Y-94734287D01*
X109209045Y-94705906D01*
X109209802Y-94668043D01*
X109210496Y-94620317D01*
X109211130Y-94562345D01*
X109211705Y-94493744D01*
X109212220Y-94414133D01*
X109212678Y-94323130D01*
X109213078Y-94220351D01*
X109213422Y-94105414D01*
X109213712Y-93977939D01*
X109213947Y-93837541D01*
X109214129Y-93683839D01*
X109214258Y-93516450D01*
X109214337Y-93334993D01*
X109214353Y-93216011D01*
X108782551Y-93216011D01*
X108782512Y-93363187D01*
X108782400Y-93498033D01*
X108782207Y-93621123D01*
X108781923Y-93733034D01*
X108781541Y-93834340D01*
X108781050Y-93925616D01*
X108780442Y-94007439D01*
X108779708Y-94080383D01*
X108778840Y-94145024D01*
X108777829Y-94201937D01*
X108776666Y-94251698D01*
X108775342Y-94294881D01*
X108773848Y-94332063D01*
X108772175Y-94363818D01*
X108770315Y-94390721D01*
X108768260Y-94413349D01*
X108765999Y-94432276D01*
X108763524Y-94448079D01*
X108760827Y-94461331D01*
X108757898Y-94472609D01*
X108754730Y-94482488D01*
X108751312Y-94491543D01*
X108747637Y-94500349D01*
X108743695Y-94509482D01*
X108739778Y-94518783D01*
X108693488Y-94611452D01*
X108635338Y-94692181D01*
X108564806Y-94761533D01*
X108481369Y-94820070D01*
X108437411Y-94844075D01*
X108422063Y-94852026D01*
X108408509Y-94859283D01*
X108395954Y-94865877D01*
X108383601Y-94871839D01*
X108370658Y-94877203D01*
X108356327Y-94881998D01*
X108339814Y-94886258D01*
X108320325Y-94890014D01*
X108297063Y-94893299D01*
X108269234Y-94896143D01*
X108236042Y-94898578D01*
X108196693Y-94900638D01*
X108150391Y-94902352D01*
X108096342Y-94903754D01*
X108033749Y-94904875D01*
X107961818Y-94905746D01*
X107879754Y-94906401D01*
X107786762Y-94906870D01*
X107682046Y-94907185D01*
X107564812Y-94907379D01*
X107434263Y-94907483D01*
X107289606Y-94907528D01*
X107130045Y-94907548D01*
X106954784Y-94907573D01*
X106851017Y-94907601D01*
X105447667Y-94908067D01*
X105447667Y-93045400D01*
X106717891Y-93045400D01*
X106715662Y-92132067D01*
X106713434Y-91218734D01*
X106760000Y-91194738D01*
X106787049Y-91177768D01*
X106820089Y-91152631D01*
X106853645Y-91123624D01*
X106867645Y-91110265D01*
X106925827Y-91041528D01*
X106969198Y-90966426D01*
X106997761Y-90886796D01*
X107011518Y-90804476D01*
X107011076Y-90769267D01*
X106746720Y-90769267D01*
X106746704Y-90771695D01*
X106740290Y-90826739D01*
X106727492Y-90862427D01*
X106714319Y-90884288D01*
X106695820Y-90908521D01*
X106675055Y-90931917D01*
X106655083Y-90951267D01*
X106638961Y-90963362D01*
X106629749Y-90964994D01*
X106629736Y-90964980D01*
X106624991Y-90966370D01*
X106624534Y-90970155D01*
X106620689Y-90977462D01*
X106618184Y-90976859D01*
X106606145Y-90976863D01*
X106594900Y-90980430D01*
X106579693Y-90982969D01*
X106552708Y-90984113D01*
X106519039Y-90983931D01*
X106483777Y-90982492D01*
X106452015Y-90979864D01*
X106440384Y-90978337D01*
X106430512Y-90971983D01*
X106429800Y-90969156D01*
X106424529Y-90965420D01*
X106421334Y-90966833D01*
X106413532Y-90966162D01*
X106412867Y-90963100D01*
X106406637Y-90954479D01*
X106404281Y-90954133D01*
X106391557Y-90947415D01*
X106373720Y-90929848D01*
X106354009Y-90905312D01*
X106335666Y-90877687D01*
X106326580Y-90861076D01*
X106310621Y-90811211D01*
X106307576Y-90756280D01*
X106317337Y-90702039D01*
X106330173Y-90670500D01*
X106352270Y-90632462D01*
X106374915Y-90605672D01*
X106403120Y-90585045D01*
X106426543Y-90572661D01*
X106483854Y-90553224D01*
X106540588Y-90549075D01*
X106594562Y-90558856D01*
X106643597Y-90581212D01*
X106685512Y-90614786D01*
X106718124Y-90658225D01*
X106739254Y-90710170D01*
X106746720Y-90769267D01*
X107011076Y-90769267D01*
X107010472Y-90721300D01*
X106994628Y-90639107D01*
X106963987Y-90559732D01*
X106918554Y-90485013D01*
X106866459Y-90424689D01*
X106797385Y-90367720D01*
X106719990Y-90325077D01*
X106636043Y-90297486D01*
X106547315Y-90285675D01*
X106527167Y-90285267D01*
X106439584Y-90293194D01*
X106357545Y-90315962D01*
X106282284Y-90352053D01*
X106215030Y-90399949D01*
X106157017Y-90458132D01*
X106109474Y-90525082D01*
X106073635Y-90599283D01*
X106050730Y-90679215D01*
X106041992Y-90763361D01*
X106048651Y-90850201D01*
X106052500Y-90870443D01*
X106076368Y-90945723D01*
X106114339Y-91018768D01*
X106163823Y-91086176D01*
X106222227Y-91144547D01*
X106286961Y-91190476D01*
X106302800Y-91199091D01*
X106357834Y-91227289D01*
X106355624Y-91954311D01*
X106353414Y-92681334D01*
X105092067Y-92681334D01*
X105092067Y-94908067D01*
X104533267Y-94908067D01*
X104533267Y-92136846D01*
X105815967Y-92143700D01*
X105815967Y-88765500D01*
X105460367Y-88765500D01*
X105458227Y-90274684D01*
X105456087Y-91783867D01*
X104919806Y-91783867D01*
X104822577Y-91783955D01*
X104727696Y-91784211D01*
X104636976Y-91784618D01*
X104552228Y-91785160D01*
X104475266Y-91785822D01*
X104407901Y-91786588D01*
X104351945Y-91787442D01*
X104309212Y-91788369D01*
X104281512Y-91789353D01*
X104280596Y-91789401D01*
X104177667Y-91794936D01*
X104177667Y-94908067D01*
X103707767Y-94908067D01*
X103712089Y-91758467D01*
X102755267Y-91758467D01*
X102755267Y-92114067D01*
X103347834Y-92114067D01*
X103350000Y-93511067D01*
X103352167Y-94908067D01*
X103309071Y-94908067D01*
X103248949Y-94902122D01*
X103181775Y-94885445D01*
X103111954Y-94859775D01*
X103043890Y-94826851D01*
X102981989Y-94788411D01*
X102955982Y-94768693D01*
X102886938Y-94701983D01*
X102827843Y-94623418D01*
X102780713Y-94536102D01*
X102749696Y-94450867D01*
X102748193Y-94445116D01*
X102746790Y-94438448D01*
X102745483Y-94430290D01*
X102744269Y-94420068D01*
X102743144Y-94407209D01*
X102742105Y-94391141D01*
X102741149Y-94371291D01*
X102740272Y-94347085D01*
X102739470Y-94317951D01*
X102738741Y-94283315D01*
X102738081Y-94242605D01*
X102737487Y-94195247D01*
X102736954Y-94140669D01*
X102736481Y-94078298D01*
X102736062Y-94007560D01*
X102735696Y-93927882D01*
X102735378Y-93838692D01*
X102735105Y-93739417D01*
X102734873Y-93629483D01*
X102734680Y-93508318D01*
X102734522Y-93375348D01*
X102734395Y-93230001D01*
X102734296Y-93071703D01*
X102734222Y-92899882D01*
X102734169Y-92713965D01*
X102734134Y-92513378D01*
X102734113Y-92297548D01*
X102734103Y-92065904D01*
X102734100Y-91830434D01*
X102734084Y-91580459D01*
X102734046Y-91346844D01*
X102733999Y-91129015D01*
X102733957Y-90926398D01*
X102733934Y-90738420D01*
X102733943Y-90564507D01*
X102733997Y-90404086D01*
X102734111Y-90256582D01*
X102734298Y-90121423D01*
X102734572Y-89998034D01*
X102734946Y-89885841D01*
X102735434Y-89784272D01*
X102736050Y-89692753D01*
X102736807Y-89610710D01*
X102737719Y-89537568D01*
X102738799Y-89472756D01*
X102740062Y-89415698D01*
X102741521Y-89365822D01*
X102743188Y-89322554D01*
X102745079Y-89285319D01*
X102747207Y-89253545D01*
X102749585Y-89226658D01*
X102752227Y-89204084D01*
X102755147Y-89185249D01*
X102758358Y-89169580D01*
X102761874Y-89156504D01*
X102765708Y-89145446D01*
X102769875Y-89135833D01*
X102774387Y-89127091D01*
X102779259Y-89118646D01*
X102784504Y-89109926D01*
X102790136Y-89100356D01*
X102796168Y-89089363D01*
X102799414Y-89083000D01*
X102819407Y-89045791D01*
X102840986Y-89013161D01*
X102867760Y-88980325D01*
X102903334Y-88942496D01*
X102911621Y-88934112D01*
X102948225Y-88898373D01*
X102978673Y-88871841D01*
X103007857Y-88850888D01*
X103040667Y-88831887D01*
X103068534Y-88817745D01*
X103110064Y-88797892D01*
X103146194Y-88782327D01*
X103179959Y-88770480D01*
X103214394Y-88761778D01*
X103252533Y-88755651D01*
X103297411Y-88751528D01*
X103352065Y-88748838D01*
X103419529Y-88747010D01*
X103447417Y-88746455D01*
X103644267Y-88742749D01*
X103644267Y-89972000D01*
X102755267Y-89972000D01*
X102755267Y-90327600D01*
X104000470Y-90327600D01*
X103999855Y-90151917D01*
X103999756Y-90113543D01*
X103999671Y-90060120D01*
X103999601Y-89993532D01*
X103999546Y-89915663D01*
X103999507Y-89828396D01*
X103999485Y-89733616D01*
X103999480Y-89633207D01*
X103999493Y-89529052D01*
X103999526Y-89423037D01*
X103999554Y-89360170D01*
X103999867Y-88744106D01*
X106131350Y-88746343D01*
X106358331Y-88746561D01*
X106569015Y-88746734D01*
X106764039Y-88746881D01*
X106944039Y-88747022D01*
X107109651Y-88747177D01*
X107261511Y-88747365D01*
X107400257Y-88747607D01*
X107526524Y-88747921D01*
X107640950Y-88748327D01*
X107744169Y-88748845D01*
X107836820Y-88749495D01*
X107919537Y-88750296D01*
X107992958Y-88751268D01*
X108057719Y-88752430D01*
X108114456Y-88753803D01*
X108163805Y-88755405D01*
X108206404Y-88757257D01*
X108242888Y-88759378D01*
X108273894Y-88761787D01*
X108300058Y-88764505D01*
X108322017Y-88767551D01*
X108340406Y-88770945D01*
X108355863Y-88774705D01*
X108369024Y-88778853D01*
X108380525Y-88783407D01*
X108391002Y-88788388D01*
X108401093Y-88793814D01*
X108411433Y-88799706D01*
X108422658Y-88806082D01*
X108435406Y-88812964D01*
X108444867Y-88817745D01*
X108483153Y-88837545D01*
X108514374Y-88856747D01*
X108543423Y-88878980D01*
X108575190Y-88907869D01*
X108601779Y-88934112D01*
X108639445Y-88973418D01*
X108667606Y-89006782D01*
X108689867Y-89038985D01*
X108709828Y-89074810D01*
X108713945Y-89083000D01*
X108720232Y-89095034D01*
X108726106Y-89105307D01*
X108731579Y-89114399D01*
X108736668Y-89122885D01*
X108741386Y-89131345D01*
X108745747Y-89140356D01*
X108749766Y-89150496D01*
X108753458Y-89162342D01*
X108756836Y-89176474D01*
X108759916Y-89193468D01*
X108762711Y-89213902D01*
X108765237Y-89238355D01*
X108767507Y-89267404D01*
X108769536Y-89301626D01*
X108771338Y-89341601D01*
X108772928Y-89387905D01*
X108774320Y-89441116D01*
X108775529Y-89501813D01*
X108776568Y-89570574D01*
X108777453Y-89647975D01*
X108778198Y-89734595D01*
X108778817Y-89831012D01*
X108779325Y-89937803D01*
X108779736Y-90055547D01*
X108780064Y-90184822D01*
X108780324Y-90326204D01*
X108780531Y-90480273D01*
X108780698Y-90647605D01*
X108780840Y-90828779D01*
X108780972Y-91024373D01*
X108781108Y-91234964D01*
X108781262Y-91461131D01*
X108781449Y-91703450D01*
X108781524Y-91792191D01*
X108781748Y-92041791D01*
X108781961Y-92275033D01*
X108782155Y-92492493D01*
X108782319Y-92694745D01*
X108782446Y-92882365D01*
X108782526Y-93055929D01*
X108782551Y-93216011D01*
X109214353Y-93216011D01*
X109214364Y-93139085D01*
X109214343Y-92928343D01*
X109214272Y-92702386D01*
X109214154Y-92460832D01*
X109213989Y-92203297D01*
X109213779Y-91929399D01*
X109213658Y-91788100D01*
X109211100Y-88875567D01*
X109191836Y-88813518D01*
X109150851Y-88708809D01*
X109096296Y-88613908D01*
X109028920Y-88529578D01*
X108949467Y-88456582D01*
X108858684Y-88395682D01*
X108757317Y-88347641D01*
X108724267Y-88335616D01*
X108643833Y-88308300D01*
X102869567Y-88308300D01*
X102789134Y-88335616D01*
X102789134Y-88335616D01*
G37*
X102789134Y-88335616D02*
X102700245Y-88371136D01*
X102622237Y-88414598D01*
X102550060Y-88469172D01*
X102496713Y-88519308D01*
X102460901Y-88556756D01*
X102434001Y-88588352D01*
X102412173Y-88619380D01*
X102391577Y-88655127D01*
X102376008Y-88685440D01*
X102356397Y-88726646D01*
X102338207Y-88768259D01*
X102323819Y-88804655D01*
X102317062Y-88824767D01*
X102315722Y-88830033D01*
X102314464Y-88836675D01*
X102313284Y-88845225D01*
X102312180Y-88856220D01*
X102311148Y-88870191D01*
X102310186Y-88887672D01*
X102309290Y-88909198D01*
X102308457Y-88935303D01*
X102307684Y-88966519D01*
X102306968Y-89003381D01*
X102306305Y-89046422D01*
X102305693Y-89096177D01*
X102305129Y-89153179D01*
X102304609Y-89217962D01*
X102304130Y-89291059D01*
X102303689Y-89373004D01*
X102303284Y-89464332D01*
X102302910Y-89565576D01*
X102302565Y-89677269D01*
X102302246Y-89799946D01*
X102301949Y-89934140D01*
X102301672Y-90080385D01*
X102301411Y-90239215D01*
X102301163Y-90411164D01*
X102300925Y-90596764D01*
X102300694Y-90796551D01*
X102300467Y-91011058D01*
X102300240Y-91240818D01*
X102300012Y-91486365D01*
X102299777Y-91748234D01*
X102299742Y-91788100D01*
X102299509Y-92071640D01*
X102299322Y-92338612D01*
X102299182Y-92589383D01*
X102299091Y-92824320D01*
X102299049Y-93043788D01*
X102299057Y-93248153D01*
X102299116Y-93437781D01*
X102299227Y-93613039D01*
X102299391Y-93774293D01*
X102299608Y-93921909D01*
X102299879Y-94056253D01*
X102300206Y-94177690D01*
X102300589Y-94286588D01*
X102301030Y-94383313D01*
X102301528Y-94468230D01*
X102302085Y-94541705D01*
X102302702Y-94604105D01*
X102303379Y-94655797D01*
X102304118Y-94697145D01*
X102304920Y-94728516D01*
X102305784Y-94750276D01*
X102306713Y-94762792D01*
X102306894Y-94764133D01*
X102330503Y-94863711D01*
X102369453Y-94958697D01*
X102422370Y-95047230D01*
X102487883Y-95127447D01*
X102564619Y-95197486D01*
X102651206Y-95255484D01*
X102680317Y-95270970D01*
X102723938Y-95291375D01*
X102770626Y-95310896D01*
X102813569Y-95326783D01*
X102835700Y-95333705D01*
X102903434Y-95352567D01*
X105718600Y-95353632D01*
X105936522Y-95353695D01*
X106150375Y-95353716D01*
X106359518Y-95353697D01*
X106563314Y-95353640D01*
X106761124Y-95353545D01*
X106952309Y-95353415D01*
X107136230Y-95353249D01*
X107312249Y-95353050D01*
X107479726Y-95352819D01*
X107638024Y-95352557D01*
X107786502Y-95352266D01*
X107924524Y-95351946D01*
X108051449Y-95351599D01*
X108166639Y-95351226D01*
X108269455Y-95350828D01*
X108359259Y-95350407D01*
X108435412Y-95349964D01*
X108497275Y-95349500D01*
X108544209Y-95349017D01*
X108575575Y-95348515D01*
X108590736Y-95347997D01*
X108591521Y-95347924D01*
X108695870Y-95327273D01*
X108796004Y-95290728D01*
X108890264Y-95239136D01*
X108976989Y-95173342D01*
X109025293Y-95126797D01*
X109094506Y-95042575D01*
X109147981Y-94952170D01*
X109185835Y-94855351D01*
X109206397Y-94764133D01*
X109207344Y-94753569D01*
X109208226Y-94734287D01*
X109209045Y-94705906D01*
X109209802Y-94668043D01*
X109210496Y-94620317D01*
X109211130Y-94562345D01*
X109211705Y-94493744D01*
X109212220Y-94414133D01*
X109212678Y-94323130D01*
X109213078Y-94220351D01*
X109213422Y-94105414D01*
X109213712Y-93977939D01*
X109213947Y-93837541D01*
X109214129Y-93683839D01*
X109214258Y-93516450D01*
X109214337Y-93334993D01*
X109214353Y-93216011D01*
X108782551Y-93216011D01*
X108782512Y-93363187D01*
X108782400Y-93498033D01*
X108782207Y-93621123D01*
X108781923Y-93733034D01*
X108781541Y-93834340D01*
X108781050Y-93925616D01*
X108780442Y-94007439D01*
X108779708Y-94080383D01*
X108778840Y-94145024D01*
X108777829Y-94201937D01*
X108776666Y-94251698D01*
X108775342Y-94294881D01*
X108773848Y-94332063D01*
X108772175Y-94363818D01*
X108770315Y-94390721D01*
X108768260Y-94413349D01*
X108765999Y-94432276D01*
X108763524Y-94448079D01*
X108760827Y-94461331D01*
X108757898Y-94472609D01*
X108754730Y-94482488D01*
X108751312Y-94491543D01*
X108747637Y-94500349D01*
X108743695Y-94509482D01*
X108739778Y-94518783D01*
X108693488Y-94611452D01*
X108635338Y-94692181D01*
X108564806Y-94761533D01*
X108481369Y-94820070D01*
X108437411Y-94844075D01*
X108422063Y-94852026D01*
X108408509Y-94859283D01*
X108395954Y-94865877D01*
X108383601Y-94871839D01*
X108370658Y-94877203D01*
X108356327Y-94881998D01*
X108339814Y-94886258D01*
X108320325Y-94890014D01*
X108297063Y-94893299D01*
X108269234Y-94896143D01*
X108236042Y-94898578D01*
X108196693Y-94900638D01*
X108150391Y-94902352D01*
X108096342Y-94903754D01*
X108033749Y-94904875D01*
X107961818Y-94905746D01*
X107879754Y-94906401D01*
X107786762Y-94906870D01*
X107682046Y-94907185D01*
X107564812Y-94907379D01*
X107434263Y-94907483D01*
X107289606Y-94907528D01*
X107130045Y-94907548D01*
X106954784Y-94907573D01*
X106851017Y-94907601D01*
X105447667Y-94908067D01*
X105447667Y-93045400D01*
X106717891Y-93045400D01*
X106715662Y-92132067D01*
X106713434Y-91218734D01*
X106760000Y-91194738D01*
X106787049Y-91177768D01*
X106820089Y-91152631D01*
X106853645Y-91123624D01*
X106867645Y-91110265D01*
X106925827Y-91041528D01*
X106969198Y-90966426D01*
X106997761Y-90886796D01*
X107011518Y-90804476D01*
X107011076Y-90769267D01*
X106746720Y-90769267D01*
X106746704Y-90771695D01*
X106740290Y-90826739D01*
X106727492Y-90862427D01*
X106714319Y-90884288D01*
X106695820Y-90908521D01*
X106675055Y-90931917D01*
X106655083Y-90951267D01*
X106638961Y-90963362D01*
X106629749Y-90964994D01*
X106629736Y-90964980D01*
X106624991Y-90966370D01*
X106624534Y-90970155D01*
X106620689Y-90977462D01*
X106618184Y-90976859D01*
X106606145Y-90976863D01*
X106594900Y-90980430D01*
X106579693Y-90982969D01*
X106552708Y-90984113D01*
X106519039Y-90983931D01*
X106483777Y-90982492D01*
X106452015Y-90979864D01*
X106440384Y-90978337D01*
X106430512Y-90971983D01*
X106429800Y-90969156D01*
X106424529Y-90965420D01*
X106421334Y-90966833D01*
X106413532Y-90966162D01*
X106412867Y-90963100D01*
X106406637Y-90954479D01*
X106404281Y-90954133D01*
X106391557Y-90947415D01*
X106373720Y-90929848D01*
X106354009Y-90905312D01*
X106335666Y-90877687D01*
X106326580Y-90861076D01*
X106310621Y-90811211D01*
X106307576Y-90756280D01*
X106317337Y-90702039D01*
X106330173Y-90670500D01*
X106352270Y-90632462D01*
X106374915Y-90605672D01*
X106403120Y-90585045D01*
X106426543Y-90572661D01*
X106483854Y-90553224D01*
X106540588Y-90549075D01*
X106594562Y-90558856D01*
X106643597Y-90581212D01*
X106685512Y-90614786D01*
X106718124Y-90658225D01*
X106739254Y-90710170D01*
X106746720Y-90769267D01*
X107011076Y-90769267D01*
X107010472Y-90721300D01*
X106994628Y-90639107D01*
X106963987Y-90559732D01*
X106918554Y-90485013D01*
X106866459Y-90424689D01*
X106797385Y-90367720D01*
X106719990Y-90325077D01*
X106636043Y-90297486D01*
X106547315Y-90285675D01*
X106527167Y-90285267D01*
X106439584Y-90293194D01*
X106357545Y-90315962D01*
X106282284Y-90352053D01*
X106215030Y-90399949D01*
X106157017Y-90458132D01*
X106109474Y-90525082D01*
X106073635Y-90599283D01*
X106050730Y-90679215D01*
X106041992Y-90763361D01*
X106048651Y-90850201D01*
X106052500Y-90870443D01*
X106076368Y-90945723D01*
X106114339Y-91018768D01*
X106163823Y-91086176D01*
X106222227Y-91144547D01*
X106286961Y-91190476D01*
X106302800Y-91199091D01*
X106357834Y-91227289D01*
X106355624Y-91954311D01*
X106353414Y-92681334D01*
X105092067Y-92681334D01*
X105092067Y-94908067D01*
X104533267Y-94908067D01*
X104533267Y-92136846D01*
X105815967Y-92143700D01*
X105815967Y-88765500D01*
X105460367Y-88765500D01*
X105458227Y-90274684D01*
X105456087Y-91783867D01*
X104919806Y-91783867D01*
X104822577Y-91783955D01*
X104727696Y-91784211D01*
X104636976Y-91784618D01*
X104552228Y-91785160D01*
X104475266Y-91785822D01*
X104407901Y-91786588D01*
X104351945Y-91787442D01*
X104309212Y-91788369D01*
X104281512Y-91789353D01*
X104280596Y-91789401D01*
X104177667Y-91794936D01*
X104177667Y-94908067D01*
X103707767Y-94908067D01*
X103712089Y-91758467D01*
X102755267Y-91758467D01*
X102755267Y-92114067D01*
X103347834Y-92114067D01*
X103350000Y-93511067D01*
X103352167Y-94908067D01*
X103309071Y-94908067D01*
X103248949Y-94902122D01*
X103181775Y-94885445D01*
X103111954Y-94859775D01*
X103043890Y-94826851D01*
X102981989Y-94788411D01*
X102955982Y-94768693D01*
X102886938Y-94701983D01*
X102827843Y-94623418D01*
X102780713Y-94536102D01*
X102749696Y-94450867D01*
X102748193Y-94445116D01*
X102746790Y-94438448D01*
X102745483Y-94430290D01*
X102744269Y-94420068D01*
X102743144Y-94407209D01*
X102742105Y-94391141D01*
X102741149Y-94371291D01*
X102740272Y-94347085D01*
X102739470Y-94317951D01*
X102738741Y-94283315D01*
X102738081Y-94242605D01*
X102737487Y-94195247D01*
X102736954Y-94140669D01*
X102736481Y-94078298D01*
X102736062Y-94007560D01*
X102735696Y-93927882D01*
X102735378Y-93838692D01*
X102735105Y-93739417D01*
X102734873Y-93629483D01*
X102734680Y-93508318D01*
X102734522Y-93375348D01*
X102734395Y-93230001D01*
X102734296Y-93071703D01*
X102734222Y-92899882D01*
X102734169Y-92713965D01*
X102734134Y-92513378D01*
X102734113Y-92297548D01*
X102734103Y-92065904D01*
X102734100Y-91830434D01*
X102734084Y-91580459D01*
X102734046Y-91346844D01*
X102733999Y-91129015D01*
X102733957Y-90926398D01*
X102733934Y-90738420D01*
X102733943Y-90564507D01*
X102733997Y-90404086D01*
X102734111Y-90256582D01*
X102734298Y-90121423D01*
X102734572Y-89998034D01*
X102734946Y-89885841D01*
X102735434Y-89784272D01*
X102736050Y-89692753D01*
X102736807Y-89610710D01*
X102737719Y-89537568D01*
X102738799Y-89472756D01*
X102740062Y-89415698D01*
X102741521Y-89365822D01*
X102743188Y-89322554D01*
X102745079Y-89285319D01*
X102747207Y-89253545D01*
X102749585Y-89226658D01*
X102752227Y-89204084D01*
X102755147Y-89185249D01*
X102758358Y-89169580D01*
X102761874Y-89156504D01*
X102765708Y-89145446D01*
X102769875Y-89135833D01*
X102774387Y-89127091D01*
X102779259Y-89118646D01*
X102784504Y-89109926D01*
X102790136Y-89100356D01*
X102796168Y-89089363D01*
X102799414Y-89083000D01*
X102819407Y-89045791D01*
X102840986Y-89013161D01*
X102867760Y-88980325D01*
X102903334Y-88942496D01*
X102911621Y-88934112D01*
X102948225Y-88898373D01*
X102978673Y-88871841D01*
X103007857Y-88850888D01*
X103040667Y-88831887D01*
X103068534Y-88817745D01*
X103110064Y-88797892D01*
X103146194Y-88782327D01*
X103179959Y-88770480D01*
X103214394Y-88761778D01*
X103252533Y-88755651D01*
X103297411Y-88751528D01*
X103352065Y-88748838D01*
X103419529Y-88747010D01*
X103447417Y-88746455D01*
X103644267Y-88742749D01*
X103644267Y-89972000D01*
X102755267Y-89972000D01*
X102755267Y-90327600D01*
X104000470Y-90327600D01*
X103999855Y-90151917D01*
X103999756Y-90113543D01*
X103999671Y-90060120D01*
X103999601Y-89993532D01*
X103999546Y-89915663D01*
X103999507Y-89828396D01*
X103999485Y-89733616D01*
X103999480Y-89633207D01*
X103999493Y-89529052D01*
X103999526Y-89423037D01*
X103999554Y-89360170D01*
X103999867Y-88744106D01*
X106131350Y-88746343D01*
X106358331Y-88746561D01*
X106569015Y-88746734D01*
X106764039Y-88746881D01*
X106944039Y-88747022D01*
X107109651Y-88747177D01*
X107261511Y-88747365D01*
X107400257Y-88747607D01*
X107526524Y-88747921D01*
X107640950Y-88748327D01*
X107744169Y-88748845D01*
X107836820Y-88749495D01*
X107919537Y-88750296D01*
X107992958Y-88751268D01*
X108057719Y-88752430D01*
X108114456Y-88753803D01*
X108163805Y-88755405D01*
X108206404Y-88757257D01*
X108242888Y-88759378D01*
X108273894Y-88761787D01*
X108300058Y-88764505D01*
X108322017Y-88767551D01*
X108340406Y-88770945D01*
X108355863Y-88774705D01*
X108369024Y-88778853D01*
X108380525Y-88783407D01*
X108391002Y-88788388D01*
X108401093Y-88793814D01*
X108411433Y-88799706D01*
X108422658Y-88806082D01*
X108435406Y-88812964D01*
X108444867Y-88817745D01*
X108483153Y-88837545D01*
X108514374Y-88856747D01*
X108543423Y-88878980D01*
X108575190Y-88907869D01*
X108601779Y-88934112D01*
X108639445Y-88973418D01*
X108667606Y-89006782D01*
X108689867Y-89038985D01*
X108709828Y-89074810D01*
X108713945Y-89083000D01*
X108720232Y-89095034D01*
X108726106Y-89105307D01*
X108731579Y-89114399D01*
X108736668Y-89122885D01*
X108741386Y-89131345D01*
X108745747Y-89140356D01*
X108749766Y-89150496D01*
X108753458Y-89162342D01*
X108756836Y-89176474D01*
X108759916Y-89193468D01*
X108762711Y-89213902D01*
X108765237Y-89238355D01*
X108767507Y-89267404D01*
X108769536Y-89301626D01*
X108771338Y-89341601D01*
X108772928Y-89387905D01*
X108774320Y-89441116D01*
X108775529Y-89501813D01*
X108776568Y-89570574D01*
X108777453Y-89647975D01*
X108778198Y-89734595D01*
X108778817Y-89831012D01*
X108779325Y-89937803D01*
X108779736Y-90055547D01*
X108780064Y-90184822D01*
X108780324Y-90326204D01*
X108780531Y-90480273D01*
X108780698Y-90647605D01*
X108780840Y-90828779D01*
X108780972Y-91024373D01*
X108781108Y-91234964D01*
X108781262Y-91461131D01*
X108781449Y-91703450D01*
X108781524Y-91792191D01*
X108781748Y-92041791D01*
X108781961Y-92275033D01*
X108782155Y-92492493D01*
X108782319Y-92694745D01*
X108782446Y-92882365D01*
X108782526Y-93055929D01*
X108782551Y-93216011D01*
X109214353Y-93216011D01*
X109214364Y-93139085D01*
X109214343Y-92928343D01*
X109214272Y-92702386D01*
X109214154Y-92460832D01*
X109213989Y-92203297D01*
X109213779Y-91929399D01*
X109213658Y-91788100D01*
X109211100Y-88875567D01*
X109191836Y-88813518D01*
X109150851Y-88708809D01*
X109096296Y-88613908D01*
X109028920Y-88529578D01*
X108949467Y-88456582D01*
X108858684Y-88395682D01*
X108757317Y-88347641D01*
X108724267Y-88335616D01*
X108643833Y-88308300D01*
X102869567Y-88308300D01*
X102789134Y-88335616D01*
G36*
X90821450Y-90773392D02*
X90683576Y-90791827D01*
X90556406Y-90822866D01*
X90439445Y-90866687D01*
X90332198Y-90923468D01*
X90234172Y-90993386D01*
X90163415Y-91057536D01*
X90105916Y-91118918D01*
X90057347Y-91179932D01*
X90014001Y-91245818D01*
X89972169Y-91321817D01*
X89961661Y-91342712D01*
X89917155Y-91441127D01*
X89881031Y-91540724D01*
X89852868Y-91643861D01*
X89832243Y-91752897D01*
X89818734Y-91870188D01*
X89811918Y-91998094D01*
X89811374Y-92138971D01*
X89812186Y-92177198D01*
X89815746Y-92264352D01*
X89821891Y-92358210D01*
X89830196Y-92454688D01*
X89840239Y-92549700D01*
X89851597Y-92639163D01*
X89863847Y-92718990D01*
X89873833Y-92772350D01*
X89877789Y-92791400D01*
X91522320Y-92791400D01*
X91516270Y-92873950D01*
X91501626Y-93004154D01*
X91477758Y-93123648D01*
X91445007Y-93231721D01*
X91403713Y-93327664D01*
X91354217Y-93410766D01*
X91296859Y-93480319D01*
X91231981Y-93535611D01*
X91185185Y-93563958D01*
X91137181Y-93587271D01*
X91092642Y-93604944D01*
X91047936Y-93617690D01*
X90999430Y-93626225D01*
X90943493Y-93631263D01*
X90876492Y-93633519D01*
X90829967Y-93633834D01*
X90754433Y-93632986D01*
X90690515Y-93630508D01*
X90640075Y-93626500D01*
X90609833Y-93622094D01*
X90522429Y-93600467D01*
X90430946Y-93570161D01*
X90341153Y-93533454D01*
X90258815Y-93492620D01*
X90212493Y-93465245D01*
X90187138Y-93450488D01*
X90167259Y-93441614D01*
X90156985Y-93440451D01*
X90156804Y-93440620D01*
X90152496Y-93449130D01*
X90142262Y-93470993D01*
X90127054Y-93504091D01*
X90107825Y-93546304D01*
X90085528Y-93595513D01*
X90061115Y-93649598D01*
X90035540Y-93706441D01*
X90009753Y-93763922D01*
X89984709Y-93819921D01*
X89961360Y-93872320D01*
X89940659Y-93918998D01*
X89923558Y-93957838D01*
X89911009Y-93986718D01*
X89905787Y-93999046D01*
X89910290Y-94008879D01*
X89927158Y-94025203D01*
X89953945Y-94046298D01*
X89988206Y-94070447D01*
X90027496Y-94095930D01*
X90069369Y-94121029D01*
X90111378Y-94144027D01*
X90114143Y-94145453D01*
X90258307Y-94210631D01*
X90412083Y-94263544D01*
X90572901Y-94303687D01*
X90738192Y-94330558D01*
X90905387Y-94343654D01*
X91071916Y-94342471D01*
X91108589Y-94340217D01*
X91259086Y-94322084D01*
X91400131Y-94289971D01*
X91531604Y-94243955D01*
X91653385Y-94184116D01*
X91765354Y-94110530D01*
X91867393Y-94023276D01*
X91959380Y-93922432D01*
X92041197Y-93808075D01*
X92108192Y-93689390D01*
X92165113Y-93563264D01*
X92212976Y-93429244D01*
X92252002Y-93286178D01*
X92282408Y-93132917D01*
X92304412Y-92968312D01*
X92318233Y-92791211D01*
X92324089Y-92600464D01*
X92324333Y-92550100D01*
X92319580Y-92344105D01*
X92311914Y-92241067D01*
X91495819Y-92241067D01*
X90571733Y-92241067D01*
X90571757Y-92120417D01*
X90574131Y-92016768D01*
X90581450Y-91926235D01*
X90594076Y-91845636D01*
X90610806Y-91777122D01*
X90639632Y-91693991D01*
X90674036Y-91625750D01*
X90715030Y-91570982D01*
X90763625Y-91528270D01*
X90806901Y-91502686D01*
X90837397Y-91488848D01*
X90864503Y-91480170D01*
X90894711Y-91475166D01*
X90934514Y-91472351D01*
X90940688Y-91472070D01*
X91032593Y-91474707D01*
X91115004Y-91491253D01*
X91188436Y-91521960D01*
X91253402Y-91567076D01*
X91310416Y-91626851D01*
X91338091Y-91665334D01*
X91376902Y-91732710D01*
X91409869Y-91807975D01*
X91437519Y-91892961D01*
X91460384Y-91989502D01*
X91478994Y-92099430D01*
X91490546Y-92192384D01*
X91495819Y-92241067D01*
X92311914Y-92241067D01*
X92305276Y-92151862D01*
X92281361Y-91973099D01*
X92247770Y-91807541D01*
X92204441Y-91654914D01*
X92151311Y-91514945D01*
X92088317Y-91387361D01*
X92038469Y-91305500D01*
X91952502Y-91190034D01*
X91856694Y-91088313D01*
X91751206Y-91000417D01*
X91636198Y-90926428D01*
X91511832Y-90866427D01*
X91378268Y-90820495D01*
X91235667Y-90788714D01*
X91084191Y-90771163D01*
X90970521Y-90767385D01*
X90821450Y-90773392D01*
X90821450Y-90773392D01*
G37*
X90821450Y-90773392D02*
X90683576Y-90791827D01*
X90556406Y-90822866D01*
X90439445Y-90866687D01*
X90332198Y-90923468D01*
X90234172Y-90993386D01*
X90163415Y-91057536D01*
X90105916Y-91118918D01*
X90057347Y-91179932D01*
X90014001Y-91245818D01*
X89972169Y-91321817D01*
X89961661Y-91342712D01*
X89917155Y-91441127D01*
X89881031Y-91540724D01*
X89852868Y-91643861D01*
X89832243Y-91752897D01*
X89818734Y-91870188D01*
X89811918Y-91998094D01*
X89811374Y-92138971D01*
X89812186Y-92177198D01*
X89815746Y-92264352D01*
X89821891Y-92358210D01*
X89830196Y-92454688D01*
X89840239Y-92549700D01*
X89851597Y-92639163D01*
X89863847Y-92718990D01*
X89873833Y-92772350D01*
X89877789Y-92791400D01*
X91522320Y-92791400D01*
X91516270Y-92873950D01*
X91501626Y-93004154D01*
X91477758Y-93123648D01*
X91445007Y-93231721D01*
X91403713Y-93327664D01*
X91354217Y-93410766D01*
X91296859Y-93480319D01*
X91231981Y-93535611D01*
X91185185Y-93563958D01*
X91137181Y-93587271D01*
X91092642Y-93604944D01*
X91047936Y-93617690D01*
X90999430Y-93626225D01*
X90943493Y-93631263D01*
X90876492Y-93633519D01*
X90829967Y-93633834D01*
X90754433Y-93632986D01*
X90690515Y-93630508D01*
X90640075Y-93626500D01*
X90609833Y-93622094D01*
X90522429Y-93600467D01*
X90430946Y-93570161D01*
X90341153Y-93533454D01*
X90258815Y-93492620D01*
X90212493Y-93465245D01*
X90187138Y-93450488D01*
X90167259Y-93441614D01*
X90156985Y-93440451D01*
X90156804Y-93440620D01*
X90152496Y-93449130D01*
X90142262Y-93470993D01*
X90127054Y-93504091D01*
X90107825Y-93546304D01*
X90085528Y-93595513D01*
X90061115Y-93649598D01*
X90035540Y-93706441D01*
X90009753Y-93763922D01*
X89984709Y-93819921D01*
X89961360Y-93872320D01*
X89940659Y-93918998D01*
X89923558Y-93957838D01*
X89911009Y-93986718D01*
X89905787Y-93999046D01*
X89910290Y-94008879D01*
X89927158Y-94025203D01*
X89953945Y-94046298D01*
X89988206Y-94070447D01*
X90027496Y-94095930D01*
X90069369Y-94121029D01*
X90111378Y-94144027D01*
X90114143Y-94145453D01*
X90258307Y-94210631D01*
X90412083Y-94263544D01*
X90572901Y-94303687D01*
X90738192Y-94330558D01*
X90905387Y-94343654D01*
X91071916Y-94342471D01*
X91108589Y-94340217D01*
X91259086Y-94322084D01*
X91400131Y-94289971D01*
X91531604Y-94243955D01*
X91653385Y-94184116D01*
X91765354Y-94110530D01*
X91867393Y-94023276D01*
X91959380Y-93922432D01*
X92041197Y-93808075D01*
X92108192Y-93689390D01*
X92165113Y-93563264D01*
X92212976Y-93429244D01*
X92252002Y-93286178D01*
X92282408Y-93132917D01*
X92304412Y-92968312D01*
X92318233Y-92791211D01*
X92324089Y-92600464D01*
X92324333Y-92550100D01*
X92319580Y-92344105D01*
X92311914Y-92241067D01*
X91495819Y-92241067D01*
X90571733Y-92241067D01*
X90571757Y-92120417D01*
X90574131Y-92016768D01*
X90581450Y-91926235D01*
X90594076Y-91845636D01*
X90610806Y-91777122D01*
X90639632Y-91693991D01*
X90674036Y-91625750D01*
X90715030Y-91570982D01*
X90763625Y-91528270D01*
X90806901Y-91502686D01*
X90837397Y-91488848D01*
X90864503Y-91480170D01*
X90894711Y-91475166D01*
X90934514Y-91472351D01*
X90940688Y-91472070D01*
X91032593Y-91474707D01*
X91115004Y-91491253D01*
X91188436Y-91521960D01*
X91253402Y-91567076D01*
X91310416Y-91626851D01*
X91338091Y-91665334D01*
X91376902Y-91732710D01*
X91409869Y-91807975D01*
X91437519Y-91892961D01*
X91460384Y-91989502D01*
X91478994Y-92099430D01*
X91490546Y-92192384D01*
X91495819Y-92241067D01*
X92311914Y-92241067D01*
X92305276Y-92151862D01*
X92281361Y-91973099D01*
X92247770Y-91807541D01*
X92204441Y-91654914D01*
X92151311Y-91514945D01*
X92088317Y-91387361D01*
X92038469Y-91305500D01*
X91952502Y-91190034D01*
X91856694Y-91088313D01*
X91751206Y-91000417D01*
X91636198Y-90926428D01*
X91511832Y-90866427D01*
X91378268Y-90820495D01*
X91235667Y-90788714D01*
X91084191Y-90771163D01*
X90970521Y-90767385D01*
X90821450Y-90773392D01*
G36*
X86183883Y-89508369D02*
X85775367Y-89510567D01*
X85773206Y-90291617D01*
X85772860Y-90405020D01*
X85772466Y-90513480D01*
X85772031Y-90615817D01*
X85771564Y-90710851D01*
X85771072Y-90797400D01*
X85770564Y-90874286D01*
X85770048Y-90940328D01*
X85769530Y-90994346D01*
X85769020Y-91035159D01*
X85768524Y-91061588D01*
X85768052Y-91072452D01*
X85767979Y-91072667D01*
X85761037Y-91067125D01*
X85744817Y-91052200D01*
X85722054Y-91030448D01*
X85705441Y-91014248D01*
X85623881Y-90943943D01*
X85535135Y-90886740D01*
X85437716Y-90841976D01*
X85330135Y-90808992D01*
X85210906Y-90787127D01*
X85187339Y-90784236D01*
X85063381Y-90777640D01*
X84941372Y-90785883D01*
X84823385Y-90808518D01*
X84711495Y-90845102D01*
X84607774Y-90895191D01*
X84574112Y-90915621D01*
X84536377Y-90943034D01*
X84492459Y-90979938D01*
X84446513Y-91022417D01*
X84402698Y-91066555D01*
X84365171Y-91108434D01*
X84351729Y-91125128D01*
X84288340Y-91217510D01*
X84232565Y-91320494D01*
X84184218Y-91434779D01*
X84143110Y-91561063D01*
X84109055Y-91700044D01*
X84081863Y-91852420D01*
X84061348Y-92018889D01*
X84047322Y-92200149D01*
X84043775Y-92270288D01*
X84039166Y-92479653D01*
X84044020Y-92680163D01*
X84058207Y-92870977D01*
X84081596Y-93051259D01*
X84114056Y-93220168D01*
X84155458Y-93376867D01*
X84205670Y-93520516D01*
X84255507Y-93632389D01*
X84313718Y-93738248D01*
X84378601Y-93833364D01*
X84453891Y-93922823D01*
X84512946Y-93983029D01*
X84609324Y-94068235D01*
X84709830Y-94141036D01*
X84815675Y-94201796D01*
X84928068Y-94250881D01*
X85048219Y-94288655D01*
X85177338Y-94315482D01*
X85316635Y-94331728D01*
X85467319Y-94337758D01*
X85630600Y-94333936D01*
X85669533Y-94331734D01*
X85891837Y-94309602D01*
X86111396Y-94271173D01*
X86294996Y-94225773D01*
X86350441Y-94209309D01*
X86406442Y-94191186D01*
X86459728Y-94172597D01*
X86507031Y-94154735D01*
X86545080Y-94138792D01*
X86570605Y-94125961D01*
X86573350Y-94124250D01*
X86592400Y-94111810D01*
X86592400Y-91865254D01*
X85771217Y-91865254D01*
X85769059Y-92694158D01*
X85766900Y-93523062D01*
X85710483Y-93542416D01*
X85642561Y-93561666D01*
X85568384Y-93575741D01*
X85492389Y-93584290D01*
X85419012Y-93586962D01*
X85352689Y-93583406D01*
X85302870Y-93574637D01*
X85225818Y-93545986D01*
X85156035Y-93502270D01*
X85093927Y-93443906D01*
X85039902Y-93371311D01*
X84994365Y-93284901D01*
X84976196Y-93240134D01*
X84952059Y-93162615D01*
X84931531Y-93071020D01*
X84914678Y-92967831D01*
X84901567Y-92855532D01*
X84892261Y-92736604D01*
X84886828Y-92613530D01*
X84885333Y-92488792D01*
X84887840Y-92364873D01*
X84894417Y-92244255D01*
X84905128Y-92129420D01*
X84920040Y-92022851D01*
X84939217Y-91927031D01*
X84941266Y-91918563D01*
X84971197Y-91818085D01*
X85007854Y-91733013D01*
X85051464Y-91663118D01*
X85102256Y-91608169D01*
X85160457Y-91567935D01*
X85226296Y-91542188D01*
X85300001Y-91530695D01*
X85326054Y-91529992D01*
X85416143Y-91537632D01*
X85497964Y-91560022D01*
X85571186Y-91596954D01*
X85635482Y-91648222D01*
X85690523Y-91713619D01*
X85732559Y-91785787D01*
X85771217Y-91865254D01*
X86592400Y-91865254D01*
X86592400Y-89506171D01*
X86183883Y-89508369D01*
X86183883Y-89508369D01*
G37*
X86183883Y-89508369D02*
X85775367Y-89510567D01*
X85773206Y-90291617D01*
X85772860Y-90405020D01*
X85772466Y-90513480D01*
X85772031Y-90615817D01*
X85771564Y-90710851D01*
X85771072Y-90797400D01*
X85770564Y-90874286D01*
X85770048Y-90940328D01*
X85769530Y-90994346D01*
X85769020Y-91035159D01*
X85768524Y-91061588D01*
X85768052Y-91072452D01*
X85767979Y-91072667D01*
X85761037Y-91067125D01*
X85744817Y-91052200D01*
X85722054Y-91030448D01*
X85705441Y-91014248D01*
X85623881Y-90943943D01*
X85535135Y-90886740D01*
X85437716Y-90841976D01*
X85330135Y-90808992D01*
X85210906Y-90787127D01*
X85187339Y-90784236D01*
X85063381Y-90777640D01*
X84941372Y-90785883D01*
X84823385Y-90808518D01*
X84711495Y-90845102D01*
X84607774Y-90895191D01*
X84574112Y-90915621D01*
X84536377Y-90943034D01*
X84492459Y-90979938D01*
X84446513Y-91022417D01*
X84402698Y-91066555D01*
X84365171Y-91108434D01*
X84351729Y-91125128D01*
X84288340Y-91217510D01*
X84232565Y-91320494D01*
X84184218Y-91434779D01*
X84143110Y-91561063D01*
X84109055Y-91700044D01*
X84081863Y-91852420D01*
X84061348Y-92018889D01*
X84047322Y-92200149D01*
X84043775Y-92270288D01*
X84039166Y-92479653D01*
X84044020Y-92680163D01*
X84058207Y-92870977D01*
X84081596Y-93051259D01*
X84114056Y-93220168D01*
X84155458Y-93376867D01*
X84205670Y-93520516D01*
X84255507Y-93632389D01*
X84313718Y-93738248D01*
X84378601Y-93833364D01*
X84453891Y-93922823D01*
X84512946Y-93983029D01*
X84609324Y-94068235D01*
X84709830Y-94141036D01*
X84815675Y-94201796D01*
X84928068Y-94250881D01*
X85048219Y-94288655D01*
X85177338Y-94315482D01*
X85316635Y-94331728D01*
X85467319Y-94337758D01*
X85630600Y-94333936D01*
X85669533Y-94331734D01*
X85891837Y-94309602D01*
X86111396Y-94271173D01*
X86294996Y-94225773D01*
X86350441Y-94209309D01*
X86406442Y-94191186D01*
X86459728Y-94172597D01*
X86507031Y-94154735D01*
X86545080Y-94138792D01*
X86570605Y-94125961D01*
X86573350Y-94124250D01*
X86592400Y-94111810D01*
X86592400Y-91865254D01*
X85771217Y-91865254D01*
X85769059Y-92694158D01*
X85766900Y-93523062D01*
X85710483Y-93542416D01*
X85642561Y-93561666D01*
X85568384Y-93575741D01*
X85492389Y-93584290D01*
X85419012Y-93586962D01*
X85352689Y-93583406D01*
X85302870Y-93574637D01*
X85225818Y-93545986D01*
X85156035Y-93502270D01*
X85093927Y-93443906D01*
X85039902Y-93371311D01*
X84994365Y-93284901D01*
X84976196Y-93240134D01*
X84952059Y-93162615D01*
X84931531Y-93071020D01*
X84914678Y-92967831D01*
X84901567Y-92855532D01*
X84892261Y-92736604D01*
X84886828Y-92613530D01*
X84885333Y-92488792D01*
X84887840Y-92364873D01*
X84894417Y-92244255D01*
X84905128Y-92129420D01*
X84920040Y-92022851D01*
X84939217Y-91927031D01*
X84941266Y-91918563D01*
X84971197Y-91818085D01*
X85007854Y-91733013D01*
X85051464Y-91663118D01*
X85102256Y-91608169D01*
X85160457Y-91567935D01*
X85226296Y-91542188D01*
X85300001Y-91530695D01*
X85326054Y-91529992D01*
X85416143Y-91537632D01*
X85497964Y-91560022D01*
X85571186Y-91596954D01*
X85635482Y-91648222D01*
X85690523Y-91713619D01*
X85732559Y-91785787D01*
X85771217Y-91865254D01*
X86592400Y-91865254D01*
X86592400Y-89506171D01*
X86183883Y-89508369D01*
G36*
X82295545Y-90781019D02*
X82228528Y-90782614D01*
X82171470Y-90785767D01*
X82120894Y-90790883D01*
X82073319Y-90798369D01*
X82025268Y-90808630D01*
X81973262Y-90822073D01*
X81939967Y-90831474D01*
X81811820Y-90876149D01*
X81693800Y-90933423D01*
X81585786Y-91003472D01*
X81487658Y-91086472D01*
X81399293Y-91182597D01*
X81320572Y-91292025D01*
X81251373Y-91414932D01*
X81191576Y-91551492D01*
X81141058Y-91701882D01*
X81099701Y-91866279D01*
X81067381Y-92044857D01*
X81057714Y-92114367D01*
X81053614Y-92149888D01*
X81050305Y-92187591D01*
X81047713Y-92229670D01*
X81045765Y-92278316D01*
X81044386Y-92335722D01*
X81043503Y-92404081D01*
X81043044Y-92485584D01*
X81042932Y-92554334D01*
X81042985Y-92640624D01*
X81043283Y-92712377D01*
X81043923Y-92771991D01*
X81045002Y-92821860D01*
X81046619Y-92864382D01*
X81048870Y-92901952D01*
X81051853Y-92936967D01*
X81055666Y-92971823D01*
X81060406Y-93008916D01*
X81061874Y-93019742D01*
X81089167Y-93186864D01*
X81123597Y-93339839D01*
X81165642Y-93480094D01*
X81215782Y-93609052D01*
X81274496Y-93728137D01*
X81332603Y-93824334D01*
X81363967Y-93866968D01*
X81405118Y-93915783D01*
X81452704Y-93967388D01*
X81503376Y-94018397D01*
X81553782Y-94065421D01*
X81600573Y-94105072D01*
X81636000Y-94131113D01*
X81755364Y-94199960D01*
X81884162Y-94255369D01*
X82021187Y-94297073D01*
X82165231Y-94324805D01*
X82315086Y-94338296D01*
X82469544Y-94337280D01*
X82542781Y-94331774D01*
X82691978Y-94310095D01*
X82830978Y-94274920D01*
X82959793Y-94226238D01*
X83078437Y-94164037D01*
X83186924Y-94088303D01*
X83285267Y-93999025D01*
X83373478Y-93896191D01*
X83451572Y-93779788D01*
X83519561Y-93649804D01*
X83577460Y-93506227D01*
X83625280Y-93349045D01*
X83629334Y-93333267D01*
X83653935Y-93225993D01*
X83673715Y-93116580D01*
X83689060Y-93001854D01*
X83700352Y-92878640D01*
X83707977Y-92743763D01*
X83710838Y-92660167D01*
X83711589Y-92461295D01*
X83710703Y-92441724D01*
X82873492Y-92441724D01*
X82873468Y-92613819D01*
X82872873Y-92643106D01*
X82869594Y-92748452D01*
X82864727Y-92840351D01*
X82857932Y-92922245D01*
X82848867Y-92997573D01*
X82837191Y-93069777D01*
X82824006Y-93135678D01*
X82794568Y-93248715D01*
X82758489Y-93346258D01*
X82715573Y-93428471D01*
X82665628Y-93495517D01*
X82608460Y-93547560D01*
X82543876Y-93584765D01*
X82471683Y-93607293D01*
X82391687Y-93615309D01*
X82303694Y-93608977D01*
X82271005Y-93603408D01*
X82201943Y-93581552D01*
X82138171Y-93544298D01*
X82080411Y-93492552D01*
X82029384Y-93427220D01*
X81985812Y-93349207D01*
X81950414Y-93259422D01*
X81926332Y-93170172D01*
X81906761Y-93063358D01*
X81891443Y-92943203D01*
X81880576Y-92812807D01*
X81874359Y-92675270D01*
X81872991Y-92533694D01*
X81876570Y-92393467D01*
X81886088Y-92241267D01*
X81900828Y-92104748D01*
X81921007Y-91983416D01*
X81946840Y-91876777D01*
X81978542Y-91784336D01*
X82016329Y-91705598D01*
X82060416Y-91640068D01*
X82111020Y-91587254D01*
X82168354Y-91546659D01*
X82232636Y-91517789D01*
X82261996Y-91508979D01*
X82336848Y-91496968D01*
X82414004Y-91498172D01*
X82488997Y-91512022D01*
X82557361Y-91537948D01*
X82578071Y-91549275D01*
X82638143Y-91593684D01*
X82691216Y-91651082D01*
X82737368Y-91721769D01*
X82776682Y-91806044D01*
X82809238Y-91904206D01*
X82835116Y-92016556D01*
X82854397Y-92143393D01*
X82867162Y-92285016D01*
X82873492Y-92441724D01*
X83710703Y-92441724D01*
X83702935Y-92270293D01*
X83685046Y-92088576D01*
X83658091Y-91917557D01*
X83622240Y-91758652D01*
X83589657Y-91648400D01*
X83567020Y-91586723D01*
X83538171Y-91518806D01*
X83505214Y-91448848D01*
X83470251Y-91381050D01*
X83435384Y-91319612D01*
X83402716Y-91268733D01*
X83392570Y-91254700D01*
X83301162Y-91145290D01*
X83202187Y-91050641D01*
X83094810Y-90970223D01*
X82978195Y-90903509D01*
X82851506Y-90849970D01*
X82713907Y-90809076D01*
X82673728Y-90799910D01*
X82642932Y-90793669D01*
X82614340Y-90788918D01*
X82584918Y-90785457D01*
X82551629Y-90783091D01*
X82511439Y-90781622D01*
X82461310Y-90780853D01*
X82398209Y-90780586D01*
X82376000Y-90780575D01*
X82295545Y-90781019D01*
X82295545Y-90781019D01*
G37*
X82295545Y-90781019D02*
X82228528Y-90782614D01*
X82171470Y-90785767D01*
X82120894Y-90790883D01*
X82073319Y-90798369D01*
X82025268Y-90808630D01*
X81973262Y-90822073D01*
X81939967Y-90831474D01*
X81811820Y-90876149D01*
X81693800Y-90933423D01*
X81585786Y-91003472D01*
X81487658Y-91086472D01*
X81399293Y-91182597D01*
X81320572Y-91292025D01*
X81251373Y-91414932D01*
X81191576Y-91551492D01*
X81141058Y-91701882D01*
X81099701Y-91866279D01*
X81067381Y-92044857D01*
X81057714Y-92114367D01*
X81053614Y-92149888D01*
X81050305Y-92187591D01*
X81047713Y-92229670D01*
X81045765Y-92278316D01*
X81044386Y-92335722D01*
X81043503Y-92404081D01*
X81043044Y-92485584D01*
X81042932Y-92554334D01*
X81042985Y-92640624D01*
X81043283Y-92712377D01*
X81043923Y-92771991D01*
X81045002Y-92821860D01*
X81046619Y-92864382D01*
X81048870Y-92901952D01*
X81051853Y-92936967D01*
X81055666Y-92971823D01*
X81060406Y-93008916D01*
X81061874Y-93019742D01*
X81089167Y-93186864D01*
X81123597Y-93339839D01*
X81165642Y-93480094D01*
X81215782Y-93609052D01*
X81274496Y-93728137D01*
X81332603Y-93824334D01*
X81363967Y-93866968D01*
X81405118Y-93915783D01*
X81452704Y-93967388D01*
X81503376Y-94018397D01*
X81553782Y-94065421D01*
X81600573Y-94105072D01*
X81636000Y-94131113D01*
X81755364Y-94199960D01*
X81884162Y-94255369D01*
X82021187Y-94297073D01*
X82165231Y-94324805D01*
X82315086Y-94338296D01*
X82469544Y-94337280D01*
X82542781Y-94331774D01*
X82691978Y-94310095D01*
X82830978Y-94274920D01*
X82959793Y-94226238D01*
X83078437Y-94164037D01*
X83186924Y-94088303D01*
X83285267Y-93999025D01*
X83373478Y-93896191D01*
X83451572Y-93779788D01*
X83519561Y-93649804D01*
X83577460Y-93506227D01*
X83625280Y-93349045D01*
X83629334Y-93333267D01*
X83653935Y-93225993D01*
X83673715Y-93116580D01*
X83689060Y-93001854D01*
X83700352Y-92878640D01*
X83707977Y-92743763D01*
X83710838Y-92660167D01*
X83711589Y-92461295D01*
X83710703Y-92441724D01*
X82873492Y-92441724D01*
X82873468Y-92613819D01*
X82872873Y-92643106D01*
X82869594Y-92748452D01*
X82864727Y-92840351D01*
X82857932Y-92922245D01*
X82848867Y-92997573D01*
X82837191Y-93069777D01*
X82824006Y-93135678D01*
X82794568Y-93248715D01*
X82758489Y-93346258D01*
X82715573Y-93428471D01*
X82665628Y-93495517D01*
X82608460Y-93547560D01*
X82543876Y-93584765D01*
X82471683Y-93607293D01*
X82391687Y-93615309D01*
X82303694Y-93608977D01*
X82271005Y-93603408D01*
X82201943Y-93581552D01*
X82138171Y-93544298D01*
X82080411Y-93492552D01*
X82029384Y-93427220D01*
X81985812Y-93349207D01*
X81950414Y-93259422D01*
X81926332Y-93170172D01*
X81906761Y-93063358D01*
X81891443Y-92943203D01*
X81880576Y-92812807D01*
X81874359Y-92675270D01*
X81872991Y-92533694D01*
X81876570Y-92393467D01*
X81886088Y-92241267D01*
X81900828Y-92104748D01*
X81921007Y-91983416D01*
X81946840Y-91876777D01*
X81978542Y-91784336D01*
X82016329Y-91705598D01*
X82060416Y-91640068D01*
X82111020Y-91587254D01*
X82168354Y-91546659D01*
X82232636Y-91517789D01*
X82261996Y-91508979D01*
X82336848Y-91496968D01*
X82414004Y-91498172D01*
X82488997Y-91512022D01*
X82557361Y-91537948D01*
X82578071Y-91549275D01*
X82638143Y-91593684D01*
X82691216Y-91651082D01*
X82737368Y-91721769D01*
X82776682Y-91806044D01*
X82809238Y-91904206D01*
X82835116Y-92016556D01*
X82854397Y-92143393D01*
X82867162Y-92285016D01*
X82873492Y-92441724D01*
X83710703Y-92441724D01*
X83702935Y-92270293D01*
X83685046Y-92088576D01*
X83658091Y-91917557D01*
X83622240Y-91758652D01*
X83589657Y-91648400D01*
X83567020Y-91586723D01*
X83538171Y-91518806D01*
X83505214Y-91448848D01*
X83470251Y-91381050D01*
X83435384Y-91319612D01*
X83402716Y-91268733D01*
X83392570Y-91254700D01*
X83301162Y-91145290D01*
X83202187Y-91050641D01*
X83094810Y-90970223D01*
X82978195Y-90903509D01*
X82851506Y-90849970D01*
X82713907Y-90809076D01*
X82673728Y-90799910D01*
X82642932Y-90793669D01*
X82614340Y-90788918D01*
X82584918Y-90785457D01*
X82551629Y-90783091D01*
X82511439Y-90781622D01*
X82461310Y-90780853D01*
X82398209Y-90780586D01*
X82376000Y-90780575D01*
X82295545Y-90781019D01*
G36*
X73763283Y-89508367D02*
X73363233Y-89510567D01*
X73358318Y-91639934D01*
X73357712Y-91890659D01*
X73357088Y-92124770D01*
X73356445Y-92342586D01*
X73355781Y-92544425D01*
X73355093Y-92730607D01*
X73354379Y-92901450D01*
X73353637Y-93057274D01*
X73352865Y-93198398D01*
X73352061Y-93325140D01*
X73351223Y-93437820D01*
X73350349Y-93536756D01*
X73349437Y-93622267D01*
X73348483Y-93694674D01*
X73347488Y-93754293D01*
X73346448Y-93801445D01*
X73345361Y-93836449D01*
X73344225Y-93859623D01*
X73343659Y-93866667D01*
X73337188Y-93930069D01*
X73330441Y-93993946D01*
X73323730Y-94055549D01*
X73317366Y-94112129D01*
X73311659Y-94160934D01*
X73306920Y-94199216D01*
X73303460Y-94224224D01*
X73302717Y-94228731D01*
X73297806Y-94256361D01*
X73583883Y-94254131D01*
X73869959Y-94251900D01*
X73922362Y-94061400D01*
X73939676Y-93999175D01*
X73953470Y-93951540D01*
X73964388Y-93916673D01*
X73973077Y-93892751D01*
X73980182Y-93877951D01*
X73986351Y-93870451D01*
X73990732Y-93868524D01*
X74003770Y-93872276D01*
X74017808Y-93888907D01*
X74027867Y-93906495D01*
X74042922Y-93932223D01*
X74064458Y-93965367D01*
X74088560Y-93999974D01*
X74096239Y-94010471D01*
X74171282Y-94098089D01*
X74256170Y-94171952D01*
X74350833Y-94232030D01*
X74455201Y-94278298D01*
X74569204Y-94310726D01*
X74692772Y-94329286D01*
X74825835Y-94333951D01*
X74895700Y-94331078D01*
X75024004Y-94315441D01*
X75143427Y-94285532D01*
X75254753Y-94240980D01*
X75358767Y-94181418D01*
X75456252Y-94106475D01*
X75534443Y-94030539D01*
X75605458Y-93945823D01*
X75668528Y-93851917D01*
X75723880Y-93748049D01*
X75771742Y-93633451D01*
X75812340Y-93507354D01*
X75845900Y-93368987D01*
X75872650Y-93217582D01*
X75892817Y-93052369D01*
X75906628Y-92872579D01*
X75912250Y-92749067D01*
X75914003Y-92613600D01*
X75073500Y-92613600D01*
X75073368Y-92699989D01*
X75072916Y-92771638D01*
X75072062Y-92830739D01*
X75070724Y-92879483D01*
X75068821Y-92920063D01*
X75066268Y-92954669D01*
X75062986Y-92985494D01*
X75058891Y-93014730D01*
X75058324Y-93018339D01*
X75035510Y-93139524D01*
X75007792Y-93245055D01*
X74974779Y-93335598D01*
X74936078Y-93411820D01*
X74891300Y-93474387D01*
X74840053Y-93523966D01*
X74781946Y-93561224D01*
X74726367Y-93583862D01*
X74694710Y-93590156D01*
X74651899Y-93593671D01*
X74603485Y-93594407D01*
X74555018Y-93592363D01*
X74512047Y-93587539D01*
X74493533Y-93583887D01*
X74431021Y-93564094D01*
X74376764Y-93535677D01*
X74325211Y-93495464D01*
X74304918Y-93476177D01*
X74273120Y-93442397D01*
X74248062Y-93409580D01*
X74225415Y-93371497D01*
X74207551Y-93336027D01*
X74167567Y-93252834D01*
X74163083Y-91640920D01*
X74201549Y-91614454D01*
X74256472Y-91581193D01*
X74312785Y-91557083D01*
X74374207Y-91541146D01*
X74444457Y-91532402D01*
X74522943Y-91529867D01*
X74610185Y-91534468D01*
X74685486Y-91548904D01*
X74751318Y-91574128D01*
X74810155Y-91611091D01*
X74864472Y-91660744D01*
X74865188Y-91661508D01*
X74913585Y-91720989D01*
X74954081Y-91788298D01*
X74987692Y-91865702D01*
X75015436Y-91955466D01*
X75034157Y-92038038D01*
X75044199Y-92091125D01*
X75052421Y-92140681D01*
X75058997Y-92189223D01*
X75064098Y-92239268D01*
X75067895Y-92293332D01*
X75070562Y-92353931D01*
X75072270Y-92423584D01*
X75073191Y-92504805D01*
X75073497Y-92600112D01*
X75073500Y-92613600D01*
X75914003Y-92613600D01*
X75914474Y-92577211D01*
X75909469Y-92406659D01*
X75897526Y-92239637D01*
X75878934Y-92078371D01*
X75853981Y-91925089D01*
X75822958Y-91782016D01*
X75786152Y-91651380D01*
X75759857Y-91575752D01*
X75699524Y-91434268D01*
X75630842Y-91307421D01*
X75553512Y-91194949D01*
X75467232Y-91096591D01*
X75371704Y-91012085D01*
X75266626Y-90941169D01*
X75151698Y-90883583D01*
X75026621Y-90839063D01*
X74891093Y-90807350D01*
X74874634Y-90804480D01*
X74813312Y-90797009D01*
X74735506Y-90792488D01*
X74641121Y-90790912D01*
X74637467Y-90790910D01*
X74546856Y-90792346D01*
X74469032Y-90797020D01*
X74400064Y-90805468D01*
X74336021Y-90818230D01*
X74272972Y-90835844D01*
X74246995Y-90844422D01*
X74214274Y-90855463D01*
X74187870Y-90864019D01*
X74171681Y-90868843D01*
X74168679Y-90869467D01*
X74167849Y-90861211D01*
X74167059Y-90837285D01*
X74166318Y-90798952D01*
X74165636Y-90747476D01*
X74165024Y-90684119D01*
X74164491Y-90610146D01*
X74164046Y-90526819D01*
X74163700Y-90435402D01*
X74163464Y-90337159D01*
X74163345Y-90233351D01*
X74163333Y-90187817D01*
X74163333Y-89506168D01*
X73763283Y-89508367D01*
X73763283Y-89508367D01*
G37*
X73763283Y-89508367D02*
X73363233Y-89510567D01*
X73358318Y-91639934D01*
X73357712Y-91890659D01*
X73357088Y-92124770D01*
X73356445Y-92342586D01*
X73355781Y-92544425D01*
X73355093Y-92730607D01*
X73354379Y-92901450D01*
X73353637Y-93057274D01*
X73352865Y-93198398D01*
X73352061Y-93325140D01*
X73351223Y-93437820D01*
X73350349Y-93536756D01*
X73349437Y-93622267D01*
X73348483Y-93694674D01*
X73347488Y-93754293D01*
X73346448Y-93801445D01*
X73345361Y-93836449D01*
X73344225Y-93859623D01*
X73343659Y-93866667D01*
X73337188Y-93930069D01*
X73330441Y-93993946D01*
X73323730Y-94055549D01*
X73317366Y-94112129D01*
X73311659Y-94160934D01*
X73306920Y-94199216D01*
X73303460Y-94224224D01*
X73302717Y-94228731D01*
X73297806Y-94256361D01*
X73583883Y-94254131D01*
X73869959Y-94251900D01*
X73922362Y-94061400D01*
X73939676Y-93999175D01*
X73953470Y-93951540D01*
X73964388Y-93916673D01*
X73973077Y-93892751D01*
X73980182Y-93877951D01*
X73986351Y-93870451D01*
X73990732Y-93868524D01*
X74003770Y-93872276D01*
X74017808Y-93888907D01*
X74027867Y-93906495D01*
X74042922Y-93932223D01*
X74064458Y-93965367D01*
X74088560Y-93999974D01*
X74096239Y-94010471D01*
X74171282Y-94098089D01*
X74256170Y-94171952D01*
X74350833Y-94232030D01*
X74455201Y-94278298D01*
X74569204Y-94310726D01*
X74692772Y-94329286D01*
X74825835Y-94333951D01*
X74895700Y-94331078D01*
X75024004Y-94315441D01*
X75143427Y-94285532D01*
X75254753Y-94240980D01*
X75358767Y-94181418D01*
X75456252Y-94106475D01*
X75534443Y-94030539D01*
X75605458Y-93945823D01*
X75668528Y-93851917D01*
X75723880Y-93748049D01*
X75771742Y-93633451D01*
X75812340Y-93507354D01*
X75845900Y-93368987D01*
X75872650Y-93217582D01*
X75892817Y-93052369D01*
X75906628Y-92872579D01*
X75912250Y-92749067D01*
X75914003Y-92613600D01*
X75073500Y-92613600D01*
X75073368Y-92699989D01*
X75072916Y-92771638D01*
X75072062Y-92830739D01*
X75070724Y-92879483D01*
X75068821Y-92920063D01*
X75066268Y-92954669D01*
X75062986Y-92985494D01*
X75058891Y-93014730D01*
X75058324Y-93018339D01*
X75035510Y-93139524D01*
X75007792Y-93245055D01*
X74974779Y-93335598D01*
X74936078Y-93411820D01*
X74891300Y-93474387D01*
X74840053Y-93523966D01*
X74781946Y-93561224D01*
X74726367Y-93583862D01*
X74694710Y-93590156D01*
X74651899Y-93593671D01*
X74603485Y-93594407D01*
X74555018Y-93592363D01*
X74512047Y-93587539D01*
X74493533Y-93583887D01*
X74431021Y-93564094D01*
X74376764Y-93535677D01*
X74325211Y-93495464D01*
X74304918Y-93476177D01*
X74273120Y-93442397D01*
X74248062Y-93409580D01*
X74225415Y-93371497D01*
X74207551Y-93336027D01*
X74167567Y-93252834D01*
X74163083Y-91640920D01*
X74201549Y-91614454D01*
X74256472Y-91581193D01*
X74312785Y-91557083D01*
X74374207Y-91541146D01*
X74444457Y-91532402D01*
X74522943Y-91529867D01*
X74610185Y-91534468D01*
X74685486Y-91548904D01*
X74751318Y-91574128D01*
X74810155Y-91611091D01*
X74864472Y-91660744D01*
X74865188Y-91661508D01*
X74913585Y-91720989D01*
X74954081Y-91788298D01*
X74987692Y-91865702D01*
X75015436Y-91955466D01*
X75034157Y-92038038D01*
X75044199Y-92091125D01*
X75052421Y-92140681D01*
X75058997Y-92189223D01*
X75064098Y-92239268D01*
X75067895Y-92293332D01*
X75070562Y-92353931D01*
X75072270Y-92423584D01*
X75073191Y-92504805D01*
X75073497Y-92600112D01*
X75073500Y-92613600D01*
X75914003Y-92613600D01*
X75914474Y-92577211D01*
X75909469Y-92406659D01*
X75897526Y-92239637D01*
X75878934Y-92078371D01*
X75853981Y-91925089D01*
X75822958Y-91782016D01*
X75786152Y-91651380D01*
X75759857Y-91575752D01*
X75699524Y-91434268D01*
X75630842Y-91307421D01*
X75553512Y-91194949D01*
X75467232Y-91096591D01*
X75371704Y-91012085D01*
X75266626Y-90941169D01*
X75151698Y-90883583D01*
X75026621Y-90839063D01*
X74891093Y-90807350D01*
X74874634Y-90804480D01*
X74813312Y-90797009D01*
X74735506Y-90792488D01*
X74641121Y-90790912D01*
X74637467Y-90790910D01*
X74546856Y-90792346D01*
X74469032Y-90797020D01*
X74400064Y-90805468D01*
X74336021Y-90818230D01*
X74272972Y-90835844D01*
X74246995Y-90844422D01*
X74214274Y-90855463D01*
X74187870Y-90864019D01*
X74171681Y-90868843D01*
X74168679Y-90869467D01*
X74167849Y-90861211D01*
X74167059Y-90837285D01*
X74166318Y-90798952D01*
X74165636Y-90747476D01*
X74165024Y-90684119D01*
X74164491Y-90610146D01*
X74164046Y-90526819D01*
X74163700Y-90435402D01*
X74163464Y-90337159D01*
X74163345Y-90233351D01*
X74163333Y-90187817D01*
X74163333Y-89506168D01*
X73763283Y-89508367D01*
G36*
X71751603Y-90782183D02*
X71651057Y-90786676D01*
X71558744Y-90794825D01*
X71470411Y-90807175D01*
X71381806Y-90824269D01*
X71288677Y-90846650D01*
X71233867Y-90861444D01*
X71177119Y-90878418D01*
X71120262Y-90897517D01*
X71065490Y-90917786D01*
X71014995Y-90938272D01*
X70970971Y-90958019D01*
X70935610Y-90976074D01*
X70911107Y-90991482D01*
X70899654Y-91003289D01*
X70899290Y-91007027D01*
X70903704Y-91020931D01*
X70912077Y-91048046D01*
X70923749Y-91086187D01*
X70938058Y-91133167D01*
X70954345Y-91186800D01*
X70971949Y-91244901D01*
X70990211Y-91305282D01*
X71008469Y-91365758D01*
X71026063Y-91424142D01*
X71042334Y-91478249D01*
X71056620Y-91525892D01*
X71068262Y-91564885D01*
X71076598Y-91593042D01*
X71080969Y-91608177D01*
X71081467Y-91610160D01*
X71086287Y-91614220D01*
X71101791Y-91612184D01*
X71129543Y-91603675D01*
X71169404Y-91588971D01*
X71284097Y-91548686D01*
X71397766Y-91516219D01*
X71508463Y-91491818D01*
X71614239Y-91475732D01*
X71713145Y-91468210D01*
X71803233Y-91469499D01*
X71882553Y-91479849D01*
X71929059Y-91492094D01*
X71970283Y-91511932D01*
X72009804Y-91541590D01*
X72041785Y-91576212D01*
X72054446Y-91596393D01*
X72072543Y-91644558D01*
X72083676Y-91700377D01*
X72086413Y-91755497D01*
X72084967Y-91774412D01*
X72078095Y-91813625D01*
X72066533Y-91850360D01*
X72049202Y-91885591D01*
X72025018Y-91920290D01*
X71992901Y-91955429D01*
X71951769Y-91991982D01*
X71900540Y-92030921D01*
X71838133Y-92073219D01*
X71763466Y-92119849D01*
X71675458Y-92171784D01*
X71587343Y-92221956D01*
X71501075Y-92271164D01*
X71427801Y-92314616D01*
X71365238Y-92353861D01*
X71311104Y-92390451D01*
X71263117Y-92425935D01*
X71218993Y-92461864D01*
X71176452Y-92499788D01*
X71171448Y-92504450D01*
X71078542Y-92600876D01*
X71001339Y-92702017D01*
X70939415Y-92808873D01*
X70892346Y-92922444D01*
X70859708Y-93043730D01*
X70841078Y-93173730D01*
X70835933Y-93295900D01*
X70843021Y-93436106D01*
X70864082Y-93568701D01*
X70898812Y-93693019D01*
X70946907Y-93808392D01*
X71008064Y-93914154D01*
X71081978Y-94009639D01*
X71168346Y-94094180D01*
X71217658Y-94133285D01*
X71309402Y-94191478D01*
X71413430Y-94240533D01*
X71527299Y-94279671D01*
X71648565Y-94308112D01*
X71774785Y-94325076D01*
X71829576Y-94328630D01*
X71871599Y-94330580D01*
X71909130Y-94332509D01*
X71937966Y-94334188D01*
X71953533Y-94335350D01*
X71969670Y-94335744D01*
X71998839Y-94335268D01*
X72037167Y-94334024D01*
X72080782Y-94332118D01*
X72089478Y-94331683D01*
X72234472Y-94319222D01*
X72378446Y-94297123D01*
X72518222Y-94266164D01*
X72650621Y-94227122D01*
X72772467Y-94180776D01*
X72845625Y-94146531D01*
X72878639Y-94128855D01*
X72906141Y-94112544D01*
X72924410Y-94099890D01*
X72929455Y-94094906D01*
X72929960Y-94086195D01*
X72926361Y-94067344D01*
X72918377Y-94037426D01*
X72905725Y-93995513D01*
X72888124Y-93940679D01*
X72865290Y-93871996D01*
X72836943Y-93788538D01*
X72830520Y-93769795D01*
X72806698Y-93700513D01*
X72784498Y-93636217D01*
X72764537Y-93578678D01*
X72747435Y-93529666D01*
X72733810Y-93490952D01*
X72724280Y-93464307D01*
X72719463Y-93451501D01*
X72719084Y-93450695D01*
X72710062Y-93450729D01*
X72691036Y-93457953D01*
X72670680Y-93468335D01*
X72633612Y-93487175D01*
X72584946Y-93509124D01*
X72529274Y-93532327D01*
X72471188Y-93554932D01*
X72415281Y-93575088D01*
X72368400Y-93590269D01*
X72279656Y-93613334D01*
X72189365Y-93630392D01*
X72101023Y-93641113D01*
X72018126Y-93645168D01*
X71944169Y-93642226D01*
X71895296Y-93634939D01*
X71820061Y-93613279D01*
X71759095Y-93583126D01*
X71711621Y-93543754D01*
X71676863Y-93494438D01*
X71654042Y-93434453D01*
X71647430Y-93403606D01*
X71642241Y-93328119D01*
X71653320Y-93256272D01*
X71680801Y-93187704D01*
X71724820Y-93122055D01*
X71771878Y-93071542D01*
X71800386Y-93045382D01*
X71829751Y-93020612D01*
X71861921Y-92995929D01*
X71898844Y-92970028D01*
X71942469Y-92941608D01*
X71994742Y-92909364D01*
X72057612Y-92871993D01*
X72133026Y-92828192D01*
X72151249Y-92817705D01*
X72222946Y-92776304D01*
X72282156Y-92741570D01*
X72331211Y-92711976D01*
X72372441Y-92685989D01*
X72408176Y-92662082D01*
X72440746Y-92638724D01*
X72472483Y-92614385D01*
X72505716Y-92587536D01*
X72520289Y-92575469D01*
X72618006Y-92484865D01*
X72700393Y-92388208D01*
X72767710Y-92284890D01*
X72820217Y-92174302D01*
X72858174Y-92055836D01*
X72881839Y-91928882D01*
X72891475Y-91792832D01*
X72890669Y-91707667D01*
X72879560Y-91568853D01*
X72856788Y-91441972D01*
X72822154Y-91326492D01*
X72775456Y-91221880D01*
X72716492Y-91127603D01*
X72645061Y-91043129D01*
X72636034Y-91034015D01*
X72565544Y-90971086D01*
X72490232Y-90918457D01*
X72407477Y-90874824D01*
X72314659Y-90838880D01*
X72209155Y-90809319D01*
X72165200Y-90799491D01*
X72134848Y-90793489D01*
X72106220Y-90788907D01*
X72076342Y-90785559D01*
X72042238Y-90783261D01*
X72000933Y-90781827D01*
X71949454Y-90781072D01*
X71884826Y-90780812D01*
X71864633Y-90780803D01*
X71751603Y-90782183D01*
X71751603Y-90782183D01*
G37*
X71751603Y-90782183D02*
X71651057Y-90786676D01*
X71558744Y-90794825D01*
X71470411Y-90807175D01*
X71381806Y-90824269D01*
X71288677Y-90846650D01*
X71233867Y-90861444D01*
X71177119Y-90878418D01*
X71120262Y-90897517D01*
X71065490Y-90917786D01*
X71014995Y-90938272D01*
X70970971Y-90958019D01*
X70935610Y-90976074D01*
X70911107Y-90991482D01*
X70899654Y-91003289D01*
X70899290Y-91007027D01*
X70903704Y-91020931D01*
X70912077Y-91048046D01*
X70923749Y-91086187D01*
X70938058Y-91133167D01*
X70954345Y-91186800D01*
X70971949Y-91244901D01*
X70990211Y-91305282D01*
X71008469Y-91365758D01*
X71026063Y-91424142D01*
X71042334Y-91478249D01*
X71056620Y-91525892D01*
X71068262Y-91564885D01*
X71076598Y-91593042D01*
X71080969Y-91608177D01*
X71081467Y-91610160D01*
X71086287Y-91614220D01*
X71101791Y-91612184D01*
X71129543Y-91603675D01*
X71169404Y-91588971D01*
X71284097Y-91548686D01*
X71397766Y-91516219D01*
X71508463Y-91491818D01*
X71614239Y-91475732D01*
X71713145Y-91468210D01*
X71803233Y-91469499D01*
X71882553Y-91479849D01*
X71929059Y-91492094D01*
X71970283Y-91511932D01*
X72009804Y-91541590D01*
X72041785Y-91576212D01*
X72054446Y-91596393D01*
X72072543Y-91644558D01*
X72083676Y-91700377D01*
X72086413Y-91755497D01*
X72084967Y-91774412D01*
X72078095Y-91813625D01*
X72066533Y-91850360D01*
X72049202Y-91885591D01*
X72025018Y-91920290D01*
X71992901Y-91955429D01*
X71951769Y-91991982D01*
X71900540Y-92030921D01*
X71838133Y-92073219D01*
X71763466Y-92119849D01*
X71675458Y-92171784D01*
X71587343Y-92221956D01*
X71501075Y-92271164D01*
X71427801Y-92314616D01*
X71365238Y-92353861D01*
X71311104Y-92390451D01*
X71263117Y-92425935D01*
X71218993Y-92461864D01*
X71176452Y-92499788D01*
X71171448Y-92504450D01*
X71078542Y-92600876D01*
X71001339Y-92702017D01*
X70939415Y-92808873D01*
X70892346Y-92922444D01*
X70859708Y-93043730D01*
X70841078Y-93173730D01*
X70835933Y-93295900D01*
X70843021Y-93436106D01*
X70864082Y-93568701D01*
X70898812Y-93693019D01*
X70946907Y-93808392D01*
X71008064Y-93914154D01*
X71081978Y-94009639D01*
X71168346Y-94094180D01*
X71217658Y-94133285D01*
X71309402Y-94191478D01*
X71413430Y-94240533D01*
X71527299Y-94279671D01*
X71648565Y-94308112D01*
X71774785Y-94325076D01*
X71829576Y-94328630D01*
X71871599Y-94330580D01*
X71909130Y-94332509D01*
X71937966Y-94334188D01*
X71953533Y-94335350D01*
X71969670Y-94335744D01*
X71998839Y-94335268D01*
X72037167Y-94334024D01*
X72080782Y-94332118D01*
X72089478Y-94331683D01*
X72234472Y-94319222D01*
X72378446Y-94297123D01*
X72518222Y-94266164D01*
X72650621Y-94227122D01*
X72772467Y-94180776D01*
X72845625Y-94146531D01*
X72878639Y-94128855D01*
X72906141Y-94112544D01*
X72924410Y-94099890D01*
X72929455Y-94094906D01*
X72929960Y-94086195D01*
X72926361Y-94067344D01*
X72918377Y-94037426D01*
X72905725Y-93995513D01*
X72888124Y-93940679D01*
X72865290Y-93871996D01*
X72836943Y-93788538D01*
X72830520Y-93769795D01*
X72806698Y-93700513D01*
X72784498Y-93636217D01*
X72764537Y-93578678D01*
X72747435Y-93529666D01*
X72733810Y-93490952D01*
X72724280Y-93464307D01*
X72719463Y-93451501D01*
X72719084Y-93450695D01*
X72710062Y-93450729D01*
X72691036Y-93457953D01*
X72670680Y-93468335D01*
X72633612Y-93487175D01*
X72584946Y-93509124D01*
X72529274Y-93532327D01*
X72471188Y-93554932D01*
X72415281Y-93575088D01*
X72368400Y-93590269D01*
X72279656Y-93613334D01*
X72189365Y-93630392D01*
X72101023Y-93641113D01*
X72018126Y-93645168D01*
X71944169Y-93642226D01*
X71895296Y-93634939D01*
X71820061Y-93613279D01*
X71759095Y-93583126D01*
X71711621Y-93543754D01*
X71676863Y-93494438D01*
X71654042Y-93434453D01*
X71647430Y-93403606D01*
X71642241Y-93328119D01*
X71653320Y-93256272D01*
X71680801Y-93187704D01*
X71724820Y-93122055D01*
X71771878Y-93071542D01*
X71800386Y-93045382D01*
X71829751Y-93020612D01*
X71861921Y-92995929D01*
X71898844Y-92970028D01*
X71942469Y-92941608D01*
X71994742Y-92909364D01*
X72057612Y-92871993D01*
X72133026Y-92828192D01*
X72151249Y-92817705D01*
X72222946Y-92776304D01*
X72282156Y-92741570D01*
X72331211Y-92711976D01*
X72372441Y-92685989D01*
X72408176Y-92662082D01*
X72440746Y-92638724D01*
X72472483Y-92614385D01*
X72505716Y-92587536D01*
X72520289Y-92575469D01*
X72618006Y-92484865D01*
X72700393Y-92388208D01*
X72767710Y-92284890D01*
X72820217Y-92174302D01*
X72858174Y-92055836D01*
X72881839Y-91928882D01*
X72891475Y-91792832D01*
X72890669Y-91707667D01*
X72879560Y-91568853D01*
X72856788Y-91441972D01*
X72822154Y-91326492D01*
X72775456Y-91221880D01*
X72716492Y-91127603D01*
X72645061Y-91043129D01*
X72636034Y-91034015D01*
X72565544Y-90971086D01*
X72490232Y-90918457D01*
X72407477Y-90874824D01*
X72314659Y-90838880D01*
X72209155Y-90809319D01*
X72165200Y-90799491D01*
X72134848Y-90793489D01*
X72106220Y-90788907D01*
X72076342Y-90785559D01*
X72042238Y-90783261D01*
X72000933Y-90781827D01*
X71949454Y-90781072D01*
X71884826Y-90780812D01*
X71864633Y-90780803D01*
X71751603Y-90782183D01*
G36*
X79330860Y-90794731D02*
X79198978Y-90802972D01*
X79076298Y-90819052D01*
X78965249Y-90843132D01*
X78933506Y-90852264D01*
X78830316Y-90891083D01*
X78737669Y-90941195D01*
X78655257Y-91003039D01*
X78582771Y-91077055D01*
X78519903Y-91163684D01*
X78466346Y-91263366D01*
X78421792Y-91376541D01*
X78385932Y-91503651D01*
X78358459Y-91645134D01*
X78352940Y-91682267D01*
X78348998Y-91722021D01*
X78346036Y-91776853D01*
X78344041Y-91844934D01*
X78343000Y-91924438D01*
X78342899Y-92013538D01*
X78343726Y-92110405D01*
X78345468Y-92213214D01*
X78348111Y-92320137D01*
X78351643Y-92429346D01*
X78356051Y-92539015D01*
X78359576Y-92613600D01*
X78363621Y-92704093D01*
X78367087Y-92802046D01*
X78369966Y-92905459D01*
X78372250Y-93012332D01*
X78373933Y-93120667D01*
X78375006Y-93228462D01*
X78375462Y-93333720D01*
X78375293Y-93434440D01*
X78374492Y-93528622D01*
X78373052Y-93614268D01*
X78370964Y-93689378D01*
X78368222Y-93751951D01*
X78364817Y-93799989D01*
X78364085Y-93807400D01*
X78356216Y-93873021D01*
X78346148Y-93942561D01*
X78334506Y-94012725D01*
X78321916Y-94080219D01*
X78309002Y-94141748D01*
X78296389Y-94194018D01*
X78284705Y-94233734D01*
X78281451Y-94242768D01*
X78281453Y-94246160D01*
X78285320Y-94248931D01*
X78294553Y-94251142D01*
X78310656Y-94252855D01*
X78335132Y-94254132D01*
X78369482Y-94255034D01*
X78415211Y-94255623D01*
X78473820Y-94255961D01*
X78546812Y-94256109D01*
X78606982Y-94256133D01*
X78937641Y-94256133D01*
X78975552Y-94135483D01*
X78991877Y-94083390D01*
X79009169Y-94027986D01*
X79025482Y-93975515D01*
X79038872Y-93932220D01*
X79040155Y-93928050D01*
X79054270Y-93885677D01*
X79066300Y-93856731D01*
X79075664Y-93842527D01*
X79078481Y-93841267D01*
X79088180Y-93847949D01*
X79103736Y-93865719D01*
X79122261Y-93891163D01*
X79128036Y-93899890D01*
X79184975Y-93976403D01*
X79253965Y-94050319D01*
X79330849Y-94117882D01*
X79411465Y-94175336D01*
X79469745Y-94208465D01*
X79555007Y-94243954D01*
X79651262Y-94271052D01*
X79754482Y-94289185D01*
X79860639Y-94297779D01*
X79965705Y-94296258D01*
X80034967Y-94289082D01*
X80150500Y-94264477D01*
X80257495Y-94225460D01*
X80355494Y-94172498D01*
X80444038Y-94106062D01*
X80522668Y-94026619D01*
X80590925Y-93934638D01*
X80648352Y-93830589D01*
X80694489Y-93714940D01*
X80728877Y-93588160D01*
X80731125Y-93577463D01*
X80737524Y-93534783D01*
X80742291Y-93479353D01*
X80745431Y-93414878D01*
X80746949Y-93345062D01*
X80746850Y-93273610D01*
X80745139Y-93204224D01*
X80743946Y-93181347D01*
X79913441Y-93181347D01*
X79913425Y-93192651D01*
X79907272Y-93287407D01*
X79890464Y-93370946D01*
X79863316Y-93442682D01*
X79826149Y-93502030D01*
X79779278Y-93548406D01*
X79723023Y-93581224D01*
X79697108Y-93590691D01*
X79656325Y-93598453D01*
X79604941Y-93601093D01*
X79548418Y-93598850D01*
X79492217Y-93591963D01*
X79441802Y-93580669D01*
X79437456Y-93579358D01*
X79371699Y-93551493D01*
X79306116Y-93509870D01*
X79244218Y-93457335D01*
X79189517Y-93396731D01*
X79159300Y-93354068D01*
X79133267Y-93313018D01*
X79133267Y-93035010D01*
X79133322Y-92958794D01*
X79133549Y-92897785D01*
X79134036Y-92850256D01*
X79134875Y-92814480D01*
X79136155Y-92788731D01*
X79137967Y-92771281D01*
X79140401Y-92760406D01*
X79143546Y-92754377D01*
X79147493Y-92751468D01*
X79148084Y-92751224D01*
X79164087Y-92748521D01*
X79193635Y-92746706D01*
X79233366Y-92745731D01*
X79279916Y-92745549D01*
X79329922Y-92746113D01*
X79380022Y-92747376D01*
X79426854Y-92749289D01*
X79467054Y-92751807D01*
X79497259Y-92754881D01*
X79505800Y-92756258D01*
X79601022Y-92779303D01*
X79681832Y-92809399D01*
X79749443Y-92847071D01*
X79791036Y-92879543D01*
X79837864Y-92928043D01*
X79872369Y-92979530D01*
X79895699Y-93036948D01*
X79909007Y-93103239D01*
X79913441Y-93181347D01*
X80743946Y-93181347D01*
X80741821Y-93140610D01*
X80736899Y-93086472D01*
X80730431Y-93045743D01*
X80703670Y-92942151D01*
X80670936Y-92850501D01*
X80630351Y-92766303D01*
X80580039Y-92685067D01*
X80578982Y-92683531D01*
X80511741Y-92600530D01*
X80429994Y-92524981D01*
X80334582Y-92457183D01*
X80226346Y-92397438D01*
X80106129Y-92346043D01*
X79974772Y-92303299D01*
X79833118Y-92269505D01*
X79682007Y-92244962D01*
X79522283Y-92229969D01*
X79354786Y-92224825D01*
X79292353Y-92225450D01*
X79150873Y-92228367D01*
X79145215Y-92183012D01*
X79142615Y-92148376D01*
X79141581Y-92102035D01*
X79141953Y-92047700D01*
X79143571Y-91989084D01*
X79146276Y-91929897D01*
X79149906Y-91873851D01*
X79154302Y-91824656D01*
X79159304Y-91786026D01*
X79163164Y-91766934D01*
X79188133Y-91691057D01*
X79219974Y-91629695D01*
X79260326Y-91581257D01*
X79310828Y-91544154D01*
X79373121Y-91516796D01*
X79438867Y-91499545D01*
X79506796Y-91490647D01*
X79587138Y-91488289D01*
X79676884Y-91492012D01*
X79773026Y-91501360D01*
X79872555Y-91515877D01*
X79972463Y-91535107D01*
X80069741Y-91558592D01*
X80161381Y-91585876D01*
X80244375Y-91616503D01*
X80263567Y-91624694D01*
X80297700Y-91639548D01*
X80326994Y-91651980D01*
X80347321Y-91660252D01*
X80353339Y-91662450D01*
X80357841Y-91661042D01*
X80363687Y-91653430D01*
X80371408Y-91638258D01*
X80381534Y-91614171D01*
X80394594Y-91579812D01*
X80411120Y-91533827D01*
X80431640Y-91474859D01*
X80456686Y-91401553D01*
X80465348Y-91376012D01*
X80488016Y-91308961D01*
X80508968Y-91246750D01*
X80527579Y-91191255D01*
X80543222Y-91144353D01*
X80555273Y-91107918D01*
X80563104Y-91083828D01*
X80566076Y-91074041D01*
X80559882Y-91064666D01*
X80540213Y-91050444D01*
X80509413Y-91032564D01*
X80469829Y-91012217D01*
X80423804Y-90990591D01*
X80373684Y-90968878D01*
X80321815Y-90948265D01*
X80307902Y-90943075D01*
X80179540Y-90900931D01*
X80043395Y-90865504D01*
X79901894Y-90836953D01*
X79757463Y-90815441D01*
X79612530Y-90801126D01*
X79469520Y-90794169D01*
X79330860Y-90794731D01*
X79330860Y-90794731D01*
G37*
X79330860Y-90794731D02*
X79198978Y-90802972D01*
X79076298Y-90819052D01*
X78965249Y-90843132D01*
X78933506Y-90852264D01*
X78830316Y-90891083D01*
X78737669Y-90941195D01*
X78655257Y-91003039D01*
X78582771Y-91077055D01*
X78519903Y-91163684D01*
X78466346Y-91263366D01*
X78421792Y-91376541D01*
X78385932Y-91503651D01*
X78358459Y-91645134D01*
X78352940Y-91682267D01*
X78348998Y-91722021D01*
X78346036Y-91776853D01*
X78344041Y-91844934D01*
X78343000Y-91924438D01*
X78342899Y-92013538D01*
X78343726Y-92110405D01*
X78345468Y-92213214D01*
X78348111Y-92320137D01*
X78351643Y-92429346D01*
X78356051Y-92539015D01*
X78359576Y-92613600D01*
X78363621Y-92704093D01*
X78367087Y-92802046D01*
X78369966Y-92905459D01*
X78372250Y-93012332D01*
X78373933Y-93120667D01*
X78375006Y-93228462D01*
X78375462Y-93333720D01*
X78375293Y-93434440D01*
X78374492Y-93528622D01*
X78373052Y-93614268D01*
X78370964Y-93689378D01*
X78368222Y-93751951D01*
X78364817Y-93799989D01*
X78364085Y-93807400D01*
X78356216Y-93873021D01*
X78346148Y-93942561D01*
X78334506Y-94012725D01*
X78321916Y-94080219D01*
X78309002Y-94141748D01*
X78296389Y-94194018D01*
X78284705Y-94233734D01*
X78281451Y-94242768D01*
X78281453Y-94246160D01*
X78285320Y-94248931D01*
X78294553Y-94251142D01*
X78310656Y-94252855D01*
X78335132Y-94254132D01*
X78369482Y-94255034D01*
X78415211Y-94255623D01*
X78473820Y-94255961D01*
X78546812Y-94256109D01*
X78606982Y-94256133D01*
X78937641Y-94256133D01*
X78975552Y-94135483D01*
X78991877Y-94083390D01*
X79009169Y-94027986D01*
X79025482Y-93975515D01*
X79038872Y-93932220D01*
X79040155Y-93928050D01*
X79054270Y-93885677D01*
X79066300Y-93856731D01*
X79075664Y-93842527D01*
X79078481Y-93841267D01*
X79088180Y-93847949D01*
X79103736Y-93865719D01*
X79122261Y-93891163D01*
X79128036Y-93899890D01*
X79184975Y-93976403D01*
X79253965Y-94050319D01*
X79330849Y-94117882D01*
X79411465Y-94175336D01*
X79469745Y-94208465D01*
X79555007Y-94243954D01*
X79651262Y-94271052D01*
X79754482Y-94289185D01*
X79860639Y-94297779D01*
X79965705Y-94296258D01*
X80034967Y-94289082D01*
X80150500Y-94264477D01*
X80257495Y-94225460D01*
X80355494Y-94172498D01*
X80444038Y-94106062D01*
X80522668Y-94026619D01*
X80590925Y-93934638D01*
X80648352Y-93830589D01*
X80694489Y-93714940D01*
X80728877Y-93588160D01*
X80731125Y-93577463D01*
X80737524Y-93534783D01*
X80742291Y-93479353D01*
X80745431Y-93414878D01*
X80746949Y-93345062D01*
X80746850Y-93273610D01*
X80745139Y-93204224D01*
X80743946Y-93181347D01*
X79913441Y-93181347D01*
X79913425Y-93192651D01*
X79907272Y-93287407D01*
X79890464Y-93370946D01*
X79863316Y-93442682D01*
X79826149Y-93502030D01*
X79779278Y-93548406D01*
X79723023Y-93581224D01*
X79697108Y-93590691D01*
X79656325Y-93598453D01*
X79604941Y-93601093D01*
X79548418Y-93598850D01*
X79492217Y-93591963D01*
X79441802Y-93580669D01*
X79437456Y-93579358D01*
X79371699Y-93551493D01*
X79306116Y-93509870D01*
X79244218Y-93457335D01*
X79189517Y-93396731D01*
X79159300Y-93354068D01*
X79133267Y-93313018D01*
X79133267Y-93035010D01*
X79133322Y-92958794D01*
X79133549Y-92897785D01*
X79134036Y-92850256D01*
X79134875Y-92814480D01*
X79136155Y-92788731D01*
X79137967Y-92771281D01*
X79140401Y-92760406D01*
X79143546Y-92754377D01*
X79147493Y-92751468D01*
X79148084Y-92751224D01*
X79164087Y-92748521D01*
X79193635Y-92746706D01*
X79233366Y-92745731D01*
X79279916Y-92745549D01*
X79329922Y-92746113D01*
X79380022Y-92747376D01*
X79426854Y-92749289D01*
X79467054Y-92751807D01*
X79497259Y-92754881D01*
X79505800Y-92756258D01*
X79601022Y-92779303D01*
X79681832Y-92809399D01*
X79749443Y-92847071D01*
X79791036Y-92879543D01*
X79837864Y-92928043D01*
X79872369Y-92979530D01*
X79895699Y-93036948D01*
X79909007Y-93103239D01*
X79913441Y-93181347D01*
X80743946Y-93181347D01*
X80741821Y-93140610D01*
X80736899Y-93086472D01*
X80730431Y-93045743D01*
X80703670Y-92942151D01*
X80670936Y-92850501D01*
X80630351Y-92766303D01*
X80580039Y-92685067D01*
X80578982Y-92683531D01*
X80511741Y-92600530D01*
X80429994Y-92524981D01*
X80334582Y-92457183D01*
X80226346Y-92397438D01*
X80106129Y-92346043D01*
X79974772Y-92303299D01*
X79833118Y-92269505D01*
X79682007Y-92244962D01*
X79522283Y-92229969D01*
X79354786Y-92224825D01*
X79292353Y-92225450D01*
X79150873Y-92228367D01*
X79145215Y-92183012D01*
X79142615Y-92148376D01*
X79141581Y-92102035D01*
X79141953Y-92047700D01*
X79143571Y-91989084D01*
X79146276Y-91929897D01*
X79149906Y-91873851D01*
X79154302Y-91824656D01*
X79159304Y-91786026D01*
X79163164Y-91766934D01*
X79188133Y-91691057D01*
X79219974Y-91629695D01*
X79260326Y-91581257D01*
X79310828Y-91544154D01*
X79373121Y-91516796D01*
X79438867Y-91499545D01*
X79506796Y-91490647D01*
X79587138Y-91488289D01*
X79676884Y-91492012D01*
X79773026Y-91501360D01*
X79872555Y-91515877D01*
X79972463Y-91535107D01*
X80069741Y-91558592D01*
X80161381Y-91585876D01*
X80244375Y-91616503D01*
X80263567Y-91624694D01*
X80297700Y-91639548D01*
X80326994Y-91651980D01*
X80347321Y-91660252D01*
X80353339Y-91662450D01*
X80357841Y-91661042D01*
X80363687Y-91653430D01*
X80371408Y-91638258D01*
X80381534Y-91614171D01*
X80394594Y-91579812D01*
X80411120Y-91533827D01*
X80431640Y-91474859D01*
X80456686Y-91401553D01*
X80465348Y-91376012D01*
X80488016Y-91308961D01*
X80508968Y-91246750D01*
X80527579Y-91191255D01*
X80543222Y-91144353D01*
X80555273Y-91107918D01*
X80563104Y-91083828D01*
X80566076Y-91074041D01*
X80559882Y-91064666D01*
X80540213Y-91050444D01*
X80509413Y-91032564D01*
X80469829Y-91012217D01*
X80423804Y-90990591D01*
X80373684Y-90968878D01*
X80321815Y-90948265D01*
X80307902Y-90943075D01*
X80179540Y-90900931D01*
X80043395Y-90865504D01*
X79901894Y-90836953D01*
X79757463Y-90815441D01*
X79612530Y-90801126D01*
X79469520Y-90794169D01*
X79330860Y-90794731D01*
G36*
X100979383Y-89508373D02*
X100549700Y-89510567D01*
X100547566Y-91485375D01*
X100545431Y-93460184D01*
X98881767Y-93464500D01*
X98879566Y-93860317D01*
X98877366Y-94256133D01*
X100137572Y-94256133D01*
X100282332Y-94256096D01*
X100422466Y-94255987D01*
X100557040Y-94255811D01*
X100685119Y-94255571D01*
X100805769Y-94255271D01*
X100918055Y-94254917D01*
X101021042Y-94254512D01*
X101113795Y-94254060D01*
X101195381Y-94253565D01*
X101264863Y-94253032D01*
X101321309Y-94252465D01*
X101363782Y-94251868D01*
X101391348Y-94251244D01*
X101403073Y-94250599D01*
X101403422Y-94250489D01*
X101403897Y-94241656D01*
X101404361Y-94216570D01*
X101404813Y-94175910D01*
X101405251Y-94120356D01*
X101405673Y-94050588D01*
X101406079Y-93967285D01*
X101406465Y-93871127D01*
X101406832Y-93762794D01*
X101407176Y-93642966D01*
X101407498Y-93512322D01*
X101407794Y-93371543D01*
X101408063Y-93221307D01*
X101408304Y-93062296D01*
X101408515Y-92895187D01*
X101408694Y-92720662D01*
X101408840Y-92539400D01*
X101408951Y-92352081D01*
X101409026Y-92159384D01*
X101409063Y-91961990D01*
X101409067Y-91875511D01*
X101409067Y-89506178D01*
X100979383Y-89508373D01*
X100979383Y-89508373D01*
G37*
X100979383Y-89508373D02*
X100549700Y-89510567D01*
X100547566Y-91485375D01*
X100545431Y-93460184D01*
X98881767Y-93464500D01*
X98879566Y-93860317D01*
X98877366Y-94256133D01*
X100137572Y-94256133D01*
X100282332Y-94256096D01*
X100422466Y-94255987D01*
X100557040Y-94255811D01*
X100685119Y-94255571D01*
X100805769Y-94255271D01*
X100918055Y-94254917D01*
X101021042Y-94254512D01*
X101113795Y-94254060D01*
X101195381Y-94253565D01*
X101264863Y-94253032D01*
X101321309Y-94252465D01*
X101363782Y-94251868D01*
X101391348Y-94251244D01*
X101403073Y-94250599D01*
X101403422Y-94250489D01*
X101403897Y-94241656D01*
X101404361Y-94216570D01*
X101404813Y-94175910D01*
X101405251Y-94120356D01*
X101405673Y-94050588D01*
X101406079Y-93967285D01*
X101406465Y-93871127D01*
X101406832Y-93762794D01*
X101407176Y-93642966D01*
X101407498Y-93512322D01*
X101407794Y-93371543D01*
X101408063Y-93221307D01*
X101408304Y-93062296D01*
X101408515Y-92895187D01*
X101408694Y-92720662D01*
X101408840Y-92539400D01*
X101408951Y-92352081D01*
X101409026Y-92159384D01*
X101409063Y-91961990D01*
X101409067Y-91875511D01*
X101409067Y-89506178D01*
X100979383Y-89508373D01*
G36*
X96163967Y-89510567D02*
X96161766Y-89906384D01*
X96159566Y-90302200D01*
X97675267Y-90302200D01*
X97675267Y-91521302D01*
X96978884Y-91523468D01*
X96282500Y-91525633D01*
X96280300Y-91921450D01*
X96278099Y-92317267D01*
X97675267Y-92317267D01*
X97675267Y-94256133D01*
X98101422Y-94256133D01*
X98184804Y-94256025D01*
X98263011Y-94255712D01*
X98334416Y-94255217D01*
X98397394Y-94254561D01*
X98450319Y-94253765D01*
X98491564Y-94252850D01*
X98519504Y-94251837D01*
X98532512Y-94250749D01*
X98533222Y-94250489D01*
X98533697Y-94241656D01*
X98534161Y-94216570D01*
X98534613Y-94175910D01*
X98535051Y-94120356D01*
X98535473Y-94050588D01*
X98535879Y-93967285D01*
X98536265Y-93871127D01*
X98536632Y-93762794D01*
X98536976Y-93642967D01*
X98537298Y-93512323D01*
X98537594Y-93371544D01*
X98537863Y-93221309D01*
X98538104Y-93062298D01*
X98538315Y-92895190D01*
X98538494Y-92720666D01*
X98538640Y-92539405D01*
X98538751Y-92352087D01*
X98538826Y-92159391D01*
X98538863Y-91961998D01*
X98538867Y-91875560D01*
X98538867Y-89506275D01*
X96163967Y-89510567D01*
X96163967Y-89510567D01*
G37*
X96163967Y-89510567D02*
X96161766Y-89906384D01*
X96159566Y-90302200D01*
X97675267Y-90302200D01*
X97675267Y-91521302D01*
X96978884Y-91523468D01*
X96282500Y-91525633D01*
X96280300Y-91921450D01*
X96278099Y-92317267D01*
X97675267Y-92317267D01*
X97675267Y-94256133D01*
X98101422Y-94256133D01*
X98184804Y-94256025D01*
X98263011Y-94255712D01*
X98334416Y-94255217D01*
X98397394Y-94254561D01*
X98450319Y-94253765D01*
X98491564Y-94252850D01*
X98519504Y-94251837D01*
X98532512Y-94250749D01*
X98533222Y-94250489D01*
X98533697Y-94241656D01*
X98534161Y-94216570D01*
X98534613Y-94175910D01*
X98535051Y-94120356D01*
X98535473Y-94050588D01*
X98535879Y-93967285D01*
X98536265Y-93871127D01*
X98536632Y-93762794D01*
X98536976Y-93642967D01*
X98537298Y-93512323D01*
X98537594Y-93371544D01*
X98537863Y-93221309D01*
X98538104Y-93062298D01*
X98538315Y-92895190D01*
X98538494Y-92720666D01*
X98538640Y-92539405D01*
X98538751Y-92352087D01*
X98538826Y-92159391D01*
X98538863Y-91961998D01*
X98538867Y-91875560D01*
X98538867Y-89506275D01*
X96163967Y-89510567D01*
G36*
X95272850Y-89508373D02*
X94843167Y-89510567D01*
X94838867Y-91605923D01*
X94759452Y-91566473D01*
X94680036Y-91527023D01*
X93689542Y-89510567D01*
X93208515Y-89508380D01*
X93119781Y-89508088D01*
X93036124Y-89508028D01*
X92959073Y-89508187D01*
X92890161Y-89508552D01*
X92830918Y-89509109D01*
X92782874Y-89509845D01*
X92747562Y-89510745D01*
X92726511Y-89511797D01*
X92721009Y-89512672D01*
X92724185Y-89520758D01*
X92734996Y-89542850D01*
X92752981Y-89578080D01*
X92777677Y-89625580D01*
X92808624Y-89684484D01*
X92845359Y-89753924D01*
X92887422Y-89833032D01*
X92934350Y-89920943D01*
X92985683Y-90016788D01*
X93040958Y-90119701D01*
X93099714Y-90228813D01*
X93161490Y-90343258D01*
X93225824Y-90462170D01*
X93255123Y-90516236D01*
X93795716Y-91513322D01*
X93951141Y-91635734D01*
X93994993Y-91670530D01*
X94033917Y-91701909D01*
X94066082Y-91728356D01*
X94089660Y-91748356D01*
X94102824Y-91760394D01*
X94104957Y-91763181D01*
X94098138Y-91769640D01*
X94079877Y-91785036D01*
X94052046Y-91807840D01*
X94016518Y-91836527D01*
X93975167Y-91869570D01*
X93948324Y-91890864D01*
X93793300Y-92013513D01*
X93165733Y-93132707D01*
X92538165Y-94251900D01*
X93055666Y-94254096D01*
X93147869Y-94254430D01*
X93235115Y-94254635D01*
X93315919Y-94254715D01*
X93388796Y-94254674D01*
X93452261Y-94254515D01*
X93504829Y-94254243D01*
X93545016Y-94253861D01*
X93571337Y-94253374D01*
X93582307Y-94252784D01*
X93582455Y-94252742D01*
X93587466Y-94244966D01*
X93599919Y-94223082D01*
X93619350Y-94187957D01*
X93645294Y-94140455D01*
X93677284Y-94081444D01*
X93714858Y-94011789D01*
X93757549Y-93932357D01*
X93804892Y-93844012D01*
X93856422Y-93747621D01*
X93911675Y-93644049D01*
X93970185Y-93534164D01*
X94031488Y-93418830D01*
X94095118Y-93298914D01*
X94128108Y-93236663D01*
X94664473Y-92224134D01*
X94838934Y-92224134D01*
X94838934Y-94256133D01*
X95265089Y-94256133D01*
X95348471Y-94256025D01*
X95426677Y-94255712D01*
X95498083Y-94255217D01*
X95561061Y-94254561D01*
X95613985Y-94253765D01*
X95655231Y-94252850D01*
X95683171Y-94251837D01*
X95696179Y-94250749D01*
X95696889Y-94250489D01*
X95697364Y-94241656D01*
X95697828Y-94216570D01*
X95698279Y-94175910D01*
X95698717Y-94120356D01*
X95699140Y-94050588D01*
X95699545Y-93967285D01*
X95699932Y-93871127D01*
X95700298Y-93762794D01*
X95700643Y-93642966D01*
X95700964Y-93512322D01*
X95701260Y-93371543D01*
X95701529Y-93221307D01*
X95701770Y-93062296D01*
X95701981Y-92895187D01*
X95702161Y-92720662D01*
X95702307Y-92539400D01*
X95702418Y-92352081D01*
X95702493Y-92159384D01*
X95702530Y-91961990D01*
X95702534Y-91875511D01*
X95702534Y-89506178D01*
X95272850Y-89508373D01*
X95272850Y-89508373D01*
G37*
X95272850Y-89508373D02*
X94843167Y-89510567D01*
X94838867Y-91605923D01*
X94759452Y-91566473D01*
X94680036Y-91527023D01*
X93689542Y-89510567D01*
X93208515Y-89508380D01*
X93119781Y-89508088D01*
X93036124Y-89508028D01*
X92959073Y-89508187D01*
X92890161Y-89508552D01*
X92830918Y-89509109D01*
X92782874Y-89509845D01*
X92747562Y-89510745D01*
X92726511Y-89511797D01*
X92721009Y-89512672D01*
X92724185Y-89520758D01*
X92734996Y-89542850D01*
X92752981Y-89578080D01*
X92777677Y-89625580D01*
X92808624Y-89684484D01*
X92845359Y-89753924D01*
X92887422Y-89833032D01*
X92934350Y-89920943D01*
X92985683Y-90016788D01*
X93040958Y-90119701D01*
X93099714Y-90228813D01*
X93161490Y-90343258D01*
X93225824Y-90462170D01*
X93255123Y-90516236D01*
X93795716Y-91513322D01*
X93951141Y-91635734D01*
X93994993Y-91670530D01*
X94033917Y-91701909D01*
X94066082Y-91728356D01*
X94089660Y-91748356D01*
X94102824Y-91760394D01*
X94104957Y-91763181D01*
X94098138Y-91769640D01*
X94079877Y-91785036D01*
X94052046Y-91807840D01*
X94016518Y-91836527D01*
X93975167Y-91869570D01*
X93948324Y-91890864D01*
X93793300Y-92013513D01*
X93165733Y-93132707D01*
X92538165Y-94251900D01*
X93055666Y-94254096D01*
X93147869Y-94254430D01*
X93235115Y-94254635D01*
X93315919Y-94254715D01*
X93388796Y-94254674D01*
X93452261Y-94254515D01*
X93504829Y-94254243D01*
X93545016Y-94253861D01*
X93571337Y-94253374D01*
X93582307Y-94252784D01*
X93582455Y-94252742D01*
X93587466Y-94244966D01*
X93599919Y-94223082D01*
X93619350Y-94187957D01*
X93645294Y-94140455D01*
X93677284Y-94081444D01*
X93714858Y-94011789D01*
X93757549Y-93932357D01*
X93804892Y-93844012D01*
X93856422Y-93747621D01*
X93911675Y-93644049D01*
X93970185Y-93534164D01*
X94031488Y-93418830D01*
X94095118Y-93298914D01*
X94128108Y-93236663D01*
X94664473Y-92224134D01*
X94838934Y-92224134D01*
X94838934Y-94256133D01*
X95265089Y-94256133D01*
X95348471Y-94256025D01*
X95426677Y-94255712D01*
X95498083Y-94255217D01*
X95561061Y-94254561D01*
X95613985Y-94253765D01*
X95655231Y-94252850D01*
X95683171Y-94251837D01*
X95696179Y-94250749D01*
X95696889Y-94250489D01*
X95697364Y-94241656D01*
X95697828Y-94216570D01*
X95698279Y-94175910D01*
X95698717Y-94120356D01*
X95699140Y-94050588D01*
X95699545Y-93967285D01*
X95699932Y-93871127D01*
X95700298Y-93762794D01*
X95700643Y-93642966D01*
X95700964Y-93512322D01*
X95701260Y-93371543D01*
X95701529Y-93221307D01*
X95701770Y-93062296D01*
X95701981Y-92895187D01*
X95702161Y-92720662D01*
X95702307Y-92539400D01*
X95702418Y-92352081D01*
X95702493Y-92159384D01*
X95702530Y-91961990D01*
X95702534Y-91875511D01*
X95702534Y-89506178D01*
X95272850Y-89508373D01*
G36*
X76329273Y-90800742D02*
X76233626Y-90815614D01*
X76142517Y-90842344D01*
X76139716Y-90843396D01*
X76114472Y-90854320D01*
X76101431Y-90864881D01*
X76096389Y-90878911D01*
X76095889Y-90883376D01*
X76096444Y-90896670D01*
X76098870Y-90924931D01*
X76102969Y-90966321D01*
X76108544Y-91019000D01*
X76115396Y-91081129D01*
X76123328Y-91150869D01*
X76132142Y-91226382D01*
X76138541Y-91280100D01*
X76149256Y-91369047D01*
X76158239Y-91442621D01*
X76165731Y-91502265D01*
X76171968Y-91549425D01*
X76177190Y-91585545D01*
X76181636Y-91612071D01*
X76185543Y-91630446D01*
X76189152Y-91642115D01*
X76192699Y-91648523D01*
X76196425Y-91651115D01*
X76199885Y-91651398D01*
X76214812Y-91648754D01*
X76241722Y-91642619D01*
X76276276Y-91634017D01*
X76301167Y-91627484D01*
X76370467Y-91613223D01*
X76444176Y-91605523D01*
X76516906Y-91604541D01*
X76583269Y-91610429D01*
X76621444Y-91618284D01*
X76707132Y-91649791D01*
X76783953Y-91695139D01*
X76850566Y-91753145D01*
X76905628Y-91822626D01*
X76947796Y-91902398D01*
X76950090Y-91907987D01*
X76970034Y-91957434D01*
X76972240Y-93102550D01*
X76974447Y-94247667D01*
X77778600Y-94247667D01*
X77778600Y-90860789D01*
X77164984Y-90865233D01*
X77118415Y-91066317D01*
X77102900Y-91132270D01*
X77090324Y-91183173D01*
X77080229Y-91220566D01*
X77072159Y-91245987D01*
X77065658Y-91260977D01*
X77060268Y-91267075D01*
X77058780Y-91267400D01*
X77048419Y-91259963D01*
X77033716Y-91239414D01*
X77016531Y-91208395D01*
X77014889Y-91205104D01*
X76957000Y-91103153D01*
X76891325Y-91015913D01*
X76817293Y-90942774D01*
X76734331Y-90883126D01*
X76689019Y-90858018D01*
X76609331Y-90826366D01*
X76520537Y-90806209D01*
X76426047Y-90797637D01*
X76329273Y-90800742D01*
X76329273Y-90800742D01*
G37*
X76329273Y-90800742D02*
X76233626Y-90815614D01*
X76142517Y-90842344D01*
X76139716Y-90843396D01*
X76114472Y-90854320D01*
X76101431Y-90864881D01*
X76096389Y-90878911D01*
X76095889Y-90883376D01*
X76096444Y-90896670D01*
X76098870Y-90924931D01*
X76102969Y-90966321D01*
X76108544Y-91019000D01*
X76115396Y-91081129D01*
X76123328Y-91150869D01*
X76132142Y-91226382D01*
X76138541Y-91280100D01*
X76149256Y-91369047D01*
X76158239Y-91442621D01*
X76165731Y-91502265D01*
X76171968Y-91549425D01*
X76177190Y-91585545D01*
X76181636Y-91612071D01*
X76185543Y-91630446D01*
X76189152Y-91642115D01*
X76192699Y-91648523D01*
X76196425Y-91651115D01*
X76199885Y-91651398D01*
X76214812Y-91648754D01*
X76241722Y-91642619D01*
X76276276Y-91634017D01*
X76301167Y-91627484D01*
X76370467Y-91613223D01*
X76444176Y-91605523D01*
X76516906Y-91604541D01*
X76583269Y-91610429D01*
X76621444Y-91618284D01*
X76707132Y-91649791D01*
X76783953Y-91695139D01*
X76850566Y-91753145D01*
X76905628Y-91822626D01*
X76947796Y-91902398D01*
X76950090Y-91907987D01*
X76970034Y-91957434D01*
X76972240Y-93102550D01*
X76974447Y-94247667D01*
X77778600Y-94247667D01*
X77778600Y-90860789D01*
X77164984Y-90865233D01*
X77118415Y-91066317D01*
X77102900Y-91132270D01*
X77090324Y-91183173D01*
X77080229Y-91220566D01*
X77072159Y-91245987D01*
X77065658Y-91260977D01*
X77060268Y-91267075D01*
X77058780Y-91267400D01*
X77048419Y-91259963D01*
X77033716Y-91239414D01*
X77016531Y-91208395D01*
X77014889Y-91205104D01*
X76957000Y-91103153D01*
X76891325Y-91015913D01*
X76817293Y-90942774D01*
X76734331Y-90883126D01*
X76689019Y-90858018D01*
X76609331Y-90826366D01*
X76520537Y-90806209D01*
X76426047Y-90797637D01*
X76329273Y-90800742D01*
G36*
X106810833Y-93656782D02*
X106682709Y-93656894D01*
X106562734Y-93657076D01*
X106451800Y-93657326D01*
X106350799Y-93657641D01*
X106260624Y-93658018D01*
X106182167Y-93658454D01*
X106116319Y-93658947D01*
X106063972Y-93659495D01*
X106026020Y-93660093D01*
X106003353Y-93660741D01*
X105996773Y-93661325D01*
X105995804Y-93670629D01*
X105995019Y-93695518D01*
X105994420Y-93734646D01*
X105994009Y-93786664D01*
X105993790Y-93850225D01*
X105993765Y-93923982D01*
X105993937Y-94006588D01*
X105994308Y-94096696D01*
X105994881Y-94192958D01*
X105995570Y-94283650D01*
X106000725Y-94899600D01*
X106345134Y-94899600D01*
X106345134Y-94019124D01*
X107557983Y-94016979D01*
X108770833Y-94014833D01*
X108770833Y-93659234D01*
X107386982Y-93657091D01*
X107235182Y-93656895D01*
X107087962Y-93656779D01*
X106946215Y-93656743D01*
X106810833Y-93656782D01*
X106810833Y-93656782D01*
G37*
X106810833Y-93656782D02*
X106682709Y-93656894D01*
X106562734Y-93657076D01*
X106451800Y-93657326D01*
X106350799Y-93657641D01*
X106260624Y-93658018D01*
X106182167Y-93658454D01*
X106116319Y-93658947D01*
X106063972Y-93659495D01*
X106026020Y-93660093D01*
X106003353Y-93660741D01*
X105996773Y-93661325D01*
X105995804Y-93670629D01*
X105995019Y-93695518D01*
X105994420Y-93734646D01*
X105994009Y-93786664D01*
X105993790Y-93850225D01*
X105993765Y-93923982D01*
X105993937Y-94006588D01*
X105994308Y-94096696D01*
X105994881Y-94192958D01*
X105995570Y-94283650D01*
X106000725Y-94899600D01*
X106345134Y-94899600D01*
X106345134Y-94019124D01*
X107557983Y-94016979D01*
X108770833Y-94014833D01*
X108770833Y-93659234D01*
X107386982Y-93657091D01*
X107235182Y-93656895D01*
X107087962Y-93656779D01*
X106946215Y-93656743D01*
X106810833Y-93656782D01*
G36*
X108167584Y-90615518D02*
X108066293Y-90615603D01*
X107968404Y-90615833D01*
X107875481Y-90616194D01*
X107789090Y-90616675D01*
X107710796Y-90617262D01*
X107642163Y-90617942D01*
X107584758Y-90618702D01*
X107540145Y-90619530D01*
X107509890Y-90620413D01*
X107498717Y-90621006D01*
X107428867Y-90626443D01*
X107428867Y-92509981D01*
X107380183Y-92534249D01*
X107338447Y-92560397D01*
X107293277Y-92597512D01*
X107248779Y-92641398D01*
X107209061Y-92687859D01*
X107178228Y-92732702D01*
X107168880Y-92750119D01*
X107155063Y-92780724D01*
X107144417Y-92807871D01*
X107139168Y-92825865D01*
X107139101Y-92826319D01*
X107134841Y-92845589D01*
X107131064Y-92854900D01*
X107125249Y-92873143D01*
X107121154Y-92903472D01*
X107118983Y-92941109D01*
X107118941Y-92981275D01*
X107121233Y-93019190D01*
X107123320Y-93035827D01*
X107132686Y-93080848D01*
X107146304Y-93126938D01*
X107162435Y-93169404D01*
X107179339Y-93203553D01*
X107192258Y-93221741D01*
X107204278Y-93236916D01*
X107208733Y-93246575D01*
X107214662Y-93257023D01*
X107230312Y-93275265D01*
X107252482Y-93298151D01*
X107277970Y-93322533D01*
X107303574Y-93345262D01*
X107326092Y-93363190D01*
X107330483Y-93366293D01*
X107370300Y-93391570D01*
X107405639Y-93410299D01*
X107432504Y-93420387D01*
X107434766Y-93420879D01*
X107455375Y-93426440D01*
X107462733Y-93429136D01*
X107502503Y-93440638D01*
X107552811Y-93447868D01*
X107607718Y-93450470D01*
X107661289Y-93448087D01*
X107695567Y-93443110D01*
X107724893Y-93435985D01*
X107752023Y-93427557D01*
X107754833Y-93426510D01*
X107772956Y-93420059D01*
X107782395Y-93417686D01*
X107782556Y-93417725D01*
X107790586Y-93414545D01*
X107809521Y-93405254D01*
X107835381Y-93391812D01*
X107837277Y-93390803D01*
X107884686Y-93359750D01*
X107933460Y-93317890D01*
X107978682Y-93270143D01*
X108015435Y-93221426D01*
X108028380Y-93199604D01*
X108041350Y-93173854D01*
X108049376Y-93155105D01*
X108050889Y-93147071D01*
X108050627Y-93147000D01*
X108050057Y-93141859D01*
X108054195Y-93135752D01*
X108063887Y-93117751D01*
X108066660Y-93108236D01*
X108072879Y-93086502D01*
X108077386Y-93075034D01*
X108080569Y-93059726D01*
X108083101Y-93031931D01*
X108084663Y-92996091D01*
X108085008Y-92969200D01*
X108084801Y-92966565D01*
X107824932Y-92966565D01*
X107819312Y-93016367D01*
X107796509Y-93070805D01*
X107760790Y-93118141D01*
X107715156Y-93155364D01*
X107662606Y-93179461D01*
X107654656Y-93181670D01*
X107616932Y-93185853D01*
X107572609Y-93182879D01*
X107529942Y-93173718D01*
X107505418Y-93164113D01*
X107455260Y-93129703D01*
X107417546Y-93085000D01*
X107393594Y-93032174D01*
X107384716Y-92973394D01*
X107384748Y-92964967D01*
X107385920Y-92930310D01*
X107388342Y-92906837D01*
X107393181Y-92888797D01*
X107401601Y-92870441D01*
X107405348Y-92863367D01*
X107422445Y-92839029D01*
X107447610Y-92811369D01*
X107475219Y-92785984D01*
X107499650Y-92768470D01*
X107501877Y-92767278D01*
X107554876Y-92749293D01*
X107612310Y-92745726D01*
X107670198Y-92756301D01*
X107724553Y-92780744D01*
X107727941Y-92782852D01*
X107766821Y-92816821D01*
X107797108Y-92861733D01*
X107817059Y-92913133D01*
X107824932Y-92966565D01*
X108084801Y-92966565D01*
X108077707Y-92876329D01*
X108055635Y-92791614D01*
X108018621Y-92714635D01*
X107966494Y-92644973D01*
X107943696Y-92621312D01*
X107914971Y-92595680D01*
X107882660Y-92570509D01*
X107850774Y-92548561D01*
X107823324Y-92532597D01*
X107804386Y-92525388D01*
X107801705Y-92524496D01*
X107799344Y-92521971D01*
X107797277Y-92516789D01*
X107795482Y-92507924D01*
X107793934Y-92494352D01*
X107792611Y-92475047D01*
X107791488Y-92448986D01*
X107790543Y-92415142D01*
X107789750Y-92372491D01*
X107789087Y-92320008D01*
X107788531Y-92256668D01*
X107788056Y-92181446D01*
X107787641Y-92093318D01*
X107787261Y-91991257D01*
X107786892Y-91874240D01*
X107786539Y-91751310D01*
X107784378Y-90979534D01*
X108275489Y-90979533D01*
X108766600Y-90979533D01*
X108766600Y-90615467D01*
X108167584Y-90615518D01*
X108167584Y-90615518D01*
G37*
X108167584Y-90615518D02*
X108066293Y-90615603D01*
X107968404Y-90615833D01*
X107875481Y-90616194D01*
X107789090Y-90616675D01*
X107710796Y-90617262D01*
X107642163Y-90617942D01*
X107584758Y-90618702D01*
X107540145Y-90619530D01*
X107509890Y-90620413D01*
X107498717Y-90621006D01*
X107428867Y-90626443D01*
X107428867Y-92509981D01*
X107380183Y-92534249D01*
X107338447Y-92560397D01*
X107293277Y-92597512D01*
X107248779Y-92641398D01*
X107209061Y-92687859D01*
X107178228Y-92732702D01*
X107168880Y-92750119D01*
X107155063Y-92780724D01*
X107144417Y-92807871D01*
X107139168Y-92825865D01*
X107139101Y-92826319D01*
X107134841Y-92845589D01*
X107131064Y-92854900D01*
X107125249Y-92873143D01*
X107121154Y-92903472D01*
X107118983Y-92941109D01*
X107118941Y-92981275D01*
X107121233Y-93019190D01*
X107123320Y-93035827D01*
X107132686Y-93080848D01*
X107146304Y-93126938D01*
X107162435Y-93169404D01*
X107179339Y-93203553D01*
X107192258Y-93221741D01*
X107204278Y-93236916D01*
X107208733Y-93246575D01*
X107214662Y-93257023D01*
X107230312Y-93275265D01*
X107252482Y-93298151D01*
X107277970Y-93322533D01*
X107303574Y-93345262D01*
X107326092Y-93363190D01*
X107330483Y-93366293D01*
X107370300Y-93391570D01*
X107405639Y-93410299D01*
X107432504Y-93420387D01*
X107434766Y-93420879D01*
X107455375Y-93426440D01*
X107462733Y-93429136D01*
X107502503Y-93440638D01*
X107552811Y-93447868D01*
X107607718Y-93450470D01*
X107661289Y-93448087D01*
X107695567Y-93443110D01*
X107724893Y-93435985D01*
X107752023Y-93427557D01*
X107754833Y-93426510D01*
X107772956Y-93420059D01*
X107782395Y-93417686D01*
X107782556Y-93417725D01*
X107790586Y-93414545D01*
X107809521Y-93405254D01*
X107835381Y-93391812D01*
X107837277Y-93390803D01*
X107884686Y-93359750D01*
X107933460Y-93317890D01*
X107978682Y-93270143D01*
X108015435Y-93221426D01*
X108028380Y-93199604D01*
X108041350Y-93173854D01*
X108049376Y-93155105D01*
X108050889Y-93147071D01*
X108050627Y-93147000D01*
X108050057Y-93141859D01*
X108054195Y-93135752D01*
X108063887Y-93117751D01*
X108066660Y-93108236D01*
X108072879Y-93086502D01*
X108077386Y-93075034D01*
X108080569Y-93059726D01*
X108083101Y-93031931D01*
X108084663Y-92996091D01*
X108085008Y-92969200D01*
X108084801Y-92966565D01*
X107824932Y-92966565D01*
X107819312Y-93016367D01*
X107796509Y-93070805D01*
X107760790Y-93118141D01*
X107715156Y-93155364D01*
X107662606Y-93179461D01*
X107654656Y-93181670D01*
X107616932Y-93185853D01*
X107572609Y-93182879D01*
X107529942Y-93173718D01*
X107505418Y-93164113D01*
X107455260Y-93129703D01*
X107417546Y-93085000D01*
X107393594Y-93032174D01*
X107384716Y-92973394D01*
X107384748Y-92964967D01*
X107385920Y-92930310D01*
X107388342Y-92906837D01*
X107393181Y-92888797D01*
X107401601Y-92870441D01*
X107405348Y-92863367D01*
X107422445Y-92839029D01*
X107447610Y-92811369D01*
X107475219Y-92785984D01*
X107499650Y-92768470D01*
X107501877Y-92767278D01*
X107554876Y-92749293D01*
X107612310Y-92745726D01*
X107670198Y-92756301D01*
X107724553Y-92780744D01*
X107727941Y-92782852D01*
X107766821Y-92816821D01*
X107797108Y-92861733D01*
X107817059Y-92913133D01*
X107824932Y-92966565D01*
X108084801Y-92966565D01*
X108077707Y-92876329D01*
X108055635Y-92791614D01*
X108018621Y-92714635D01*
X107966494Y-92644973D01*
X107943696Y-92621312D01*
X107914971Y-92595680D01*
X107882660Y-92570509D01*
X107850774Y-92548561D01*
X107823324Y-92532597D01*
X107804386Y-92525388D01*
X107801705Y-92524496D01*
X107799344Y-92521971D01*
X107797277Y-92516789D01*
X107795482Y-92507924D01*
X107793934Y-92494352D01*
X107792611Y-92475047D01*
X107791488Y-92448986D01*
X107790543Y-92415142D01*
X107789750Y-92372491D01*
X107789087Y-92320008D01*
X107788531Y-92256668D01*
X107788056Y-92181446D01*
X107787641Y-92093318D01*
X107787261Y-91991257D01*
X107786892Y-91874240D01*
X107786539Y-91751310D01*
X107784378Y-90979534D01*
X108275489Y-90979533D01*
X108766600Y-90979533D01*
X108766600Y-90615467D01*
X108167584Y-90615518D01*
G36*
X104694133Y-89260696D02*
X104663142Y-89266294D01*
X104635253Y-89271198D01*
X104623752Y-89273147D01*
X104581570Y-89285542D01*
X104533249Y-89308610D01*
X104483166Y-89339751D01*
X104435699Y-89376368D01*
X104410413Y-89399768D01*
X104375154Y-89439286D01*
X104342621Y-89483551D01*
X104315186Y-89528621D01*
X104295224Y-89570552D01*
X104285108Y-89605403D01*
X104284704Y-89608577D01*
X104280132Y-89629819D01*
X104275209Y-89641516D01*
X104272163Y-89654588D01*
X104269801Y-89680336D01*
X104268428Y-89714509D01*
X104268210Y-89738525D01*
X104276104Y-89830813D01*
X104299331Y-89915949D01*
X104337991Y-89994178D01*
X104392187Y-90065749D01*
X104410667Y-90085136D01*
X104437544Y-90110328D01*
X104465387Y-90133802D01*
X104484088Y-90147645D01*
X104516333Y-90168984D01*
X104516333Y-90844067D01*
X102746800Y-90844067D01*
X102746810Y-91019750D01*
X102746819Y-91195433D01*
X104871933Y-91196035D01*
X104871933Y-90212159D01*
X104916383Y-90198066D01*
X104960190Y-90179478D01*
X105007478Y-90151596D01*
X105054603Y-90117383D01*
X105097918Y-90079801D01*
X105133780Y-90041813D01*
X105158543Y-90006383D01*
X105162800Y-89997760D01*
X105173901Y-89977289D01*
X105183063Y-89964968D01*
X105190109Y-89952196D01*
X105189459Y-89946641D01*
X105191189Y-89937846D01*
X105193369Y-89936740D01*
X105201567Y-89927044D01*
X105204828Y-89916967D01*
X105210608Y-89897122D01*
X105219530Y-89874634D01*
X105225713Y-89850440D01*
X105229564Y-89810108D01*
X105231109Y-89753340D01*
X105231137Y-89745297D01*
X104972239Y-89745297D01*
X104964123Y-89794275D01*
X104947008Y-89841489D01*
X104921758Y-89882238D01*
X104915957Y-89889034D01*
X104882230Y-89920750D01*
X104845550Y-89942206D01*
X104799743Y-89956782D01*
X104787303Y-89959510D01*
X104743033Y-89963934D01*
X104700034Y-89957318D01*
X104652855Y-89938689D01*
X104643166Y-89933814D01*
X104596107Y-89900517D01*
X104561630Y-89856410D01*
X104540467Y-89802775D01*
X104533350Y-89741112D01*
X104541078Y-89680142D01*
X104563039Y-89626903D01*
X104597700Y-89582946D01*
X104643528Y-89549826D01*
X104698989Y-89529093D01*
X104749257Y-89522471D01*
X104800944Y-89525899D01*
X104846803Y-89541209D01*
X104889793Y-89569918D01*
X104932875Y-89613546D01*
X104937494Y-89619018D01*
X104948843Y-89633953D01*
X104952463Y-89641556D01*
X104952013Y-89641800D01*
X104952141Y-89648056D01*
X104958003Y-89660850D01*
X104970487Y-89699255D01*
X104972239Y-89745297D01*
X105231137Y-89745297D01*
X105231144Y-89743400D01*
X105230685Y-89694911D01*
X105228846Y-89658821D01*
X105225092Y-89630615D01*
X105218883Y-89605779D01*
X105212552Y-89587341D01*
X105173740Y-89504979D01*
X105122647Y-89431754D01*
X105060994Y-89369648D01*
X104990499Y-89320648D01*
X104973485Y-89311576D01*
X104902046Y-89281953D01*
X104828373Y-89263145D01*
X104756821Y-89255945D01*
X104694133Y-89260696D01*
X104694133Y-89260696D01*
G37*
X104694133Y-89260696D02*
X104663142Y-89266294D01*
X104635253Y-89271198D01*
X104623752Y-89273147D01*
X104581570Y-89285542D01*
X104533249Y-89308610D01*
X104483166Y-89339751D01*
X104435699Y-89376368D01*
X104410413Y-89399768D01*
X104375154Y-89439286D01*
X104342621Y-89483551D01*
X104315186Y-89528621D01*
X104295224Y-89570552D01*
X104285108Y-89605403D01*
X104284704Y-89608577D01*
X104280132Y-89629819D01*
X104275209Y-89641516D01*
X104272163Y-89654588D01*
X104269801Y-89680336D01*
X104268428Y-89714509D01*
X104268210Y-89738525D01*
X104276104Y-89830813D01*
X104299331Y-89915949D01*
X104337991Y-89994178D01*
X104392187Y-90065749D01*
X104410667Y-90085136D01*
X104437544Y-90110328D01*
X104465387Y-90133802D01*
X104484088Y-90147645D01*
X104516333Y-90168984D01*
X104516333Y-90844067D01*
X102746800Y-90844067D01*
X102746810Y-91019750D01*
X102746819Y-91195433D01*
X104871933Y-91196035D01*
X104871933Y-90212159D01*
X104916383Y-90198066D01*
X104960190Y-90179478D01*
X105007478Y-90151596D01*
X105054603Y-90117383D01*
X105097918Y-90079801D01*
X105133780Y-90041813D01*
X105158543Y-90006383D01*
X105162800Y-89997760D01*
X105173901Y-89977289D01*
X105183063Y-89964968D01*
X105190109Y-89952196D01*
X105189459Y-89946641D01*
X105191189Y-89937846D01*
X105193369Y-89936740D01*
X105201567Y-89927044D01*
X105204828Y-89916967D01*
X105210608Y-89897122D01*
X105219530Y-89874634D01*
X105225713Y-89850440D01*
X105229564Y-89810108D01*
X105231109Y-89753340D01*
X105231137Y-89745297D01*
X104972239Y-89745297D01*
X104964123Y-89794275D01*
X104947008Y-89841489D01*
X104921758Y-89882238D01*
X104915957Y-89889034D01*
X104882230Y-89920750D01*
X104845550Y-89942206D01*
X104799743Y-89956782D01*
X104787303Y-89959510D01*
X104743033Y-89963934D01*
X104700034Y-89957318D01*
X104652855Y-89938689D01*
X104643166Y-89933814D01*
X104596107Y-89900517D01*
X104561630Y-89856410D01*
X104540467Y-89802775D01*
X104533350Y-89741112D01*
X104541078Y-89680142D01*
X104563039Y-89626903D01*
X104597700Y-89582946D01*
X104643528Y-89549826D01*
X104698989Y-89529093D01*
X104749257Y-89522471D01*
X104800944Y-89525899D01*
X104846803Y-89541209D01*
X104889793Y-89569918D01*
X104932875Y-89613546D01*
X104937494Y-89619018D01*
X104948843Y-89633953D01*
X104952463Y-89641556D01*
X104952013Y-89641800D01*
X104952141Y-89648056D01*
X104958003Y-89660850D01*
X104970487Y-89699255D01*
X104972239Y-89745297D01*
X105231137Y-89745297D01*
X105231144Y-89743400D01*
X105230685Y-89694911D01*
X105228846Y-89658821D01*
X105225092Y-89630615D01*
X105218883Y-89605779D01*
X105212552Y-89587341D01*
X105173740Y-89504979D01*
X105122647Y-89431754D01*
X105060994Y-89369648D01*
X104990499Y-89320648D01*
X104973485Y-89311576D01*
X104902046Y-89281953D01*
X104828373Y-89263145D01*
X104756821Y-89255945D01*
X104694133Y-89260696D01*
G36*
X106345134Y-90149800D02*
X107225916Y-90149800D01*
X107242223Y-90177317D01*
X107255401Y-90198296D01*
X107266366Y-90213711D01*
X107267498Y-90215059D01*
X107275479Y-90227174D01*
X107276467Y-90230818D01*
X107282599Y-90243827D01*
X107298963Y-90264278D01*
X107322510Y-90289107D01*
X107350189Y-90315251D01*
X107378953Y-90339647D01*
X107401430Y-90356350D01*
X107472631Y-90397199D01*
X107547997Y-90424433D01*
X107612827Y-90437507D01*
X107645902Y-90442101D01*
X107669205Y-90444239D01*
X107689718Y-90443929D01*
X107714420Y-90441181D01*
X107738905Y-90437671D01*
X107769393Y-90431804D01*
X107803341Y-90423117D01*
X107836788Y-90412922D01*
X107865774Y-90402528D01*
X107886338Y-90393246D01*
X107894520Y-90386386D01*
X107894533Y-90386177D01*
X107900450Y-90380237D01*
X107902308Y-90380517D01*
X107916141Y-90377009D01*
X107938158Y-90363561D01*
X107965327Y-90342918D01*
X107994613Y-90317825D01*
X108022982Y-90291025D01*
X108047402Y-90265263D01*
X108064839Y-90243285D01*
X108072259Y-90227834D01*
X108072334Y-90226692D01*
X108077368Y-90217909D01*
X108079353Y-90217534D01*
X108085952Y-90210859D01*
X108096105Y-90194197D01*
X108107332Y-90172586D01*
X108117154Y-90151067D01*
X108123094Y-90134681D01*
X108123134Y-90128506D01*
X108124186Y-90121909D01*
X108129772Y-90113903D01*
X108138352Y-90098791D01*
X108144856Y-90075317D01*
X108149703Y-90041001D01*
X108153312Y-89993362D01*
X108154645Y-89966886D01*
X108153588Y-89929638D01*
X107893511Y-89929638D01*
X107892796Y-89983995D01*
X107882193Y-90030485D01*
X107856029Y-90084395D01*
X107817951Y-90126539D01*
X107768825Y-90156258D01*
X107709522Y-90172889D01*
X107692194Y-90175021D01*
X107661328Y-90176777D01*
X107635960Y-90176221D01*
X107622597Y-90173778D01*
X107609396Y-90169851D01*
X107605619Y-90170603D01*
X107595727Y-90169548D01*
X107577541Y-90158979D01*
X107554417Y-90141670D01*
X107529709Y-90120401D01*
X107506771Y-90097947D01*
X107488956Y-90077084D01*
X107484174Y-90070064D01*
X107470524Y-90045776D01*
X107462767Y-90024157D01*
X107459300Y-89998597D01*
X107458521Y-89964231D01*
X107458768Y-89923747D01*
X107460662Y-89895286D01*
X107465884Y-89873938D01*
X107476113Y-89854792D01*
X107493032Y-89832938D01*
X107510414Y-89812637D01*
X107556333Y-89770767D01*
X107607121Y-89744404D01*
X107660870Y-89733537D01*
X107715669Y-89738155D01*
X107769611Y-89758248D01*
X107820787Y-89793805D01*
X107842083Y-89814503D01*
X107860193Y-89834514D01*
X107871751Y-89848573D01*
X107874265Y-89853467D01*
X107874306Y-89860270D01*
X107879888Y-89877033D01*
X107881496Y-89880987D01*
X107893511Y-89929638D01*
X108153588Y-89929638D01*
X108152295Y-89884131D01*
X108136775Y-89808816D01*
X108107128Y-89738572D01*
X108062397Y-89671031D01*
X108012102Y-89614284D01*
X107984516Y-89587492D01*
X107960068Y-89565981D01*
X107941788Y-89552289D01*
X107933717Y-89548667D01*
X107921764Y-89544920D01*
X107919933Y-89541227D01*
X107913099Y-89534268D01*
X107896884Y-89524602D01*
X107877722Y-89515577D01*
X107862044Y-89510545D01*
X107860667Y-89510365D01*
X107850720Y-89506437D01*
X107839500Y-89500695D01*
X107807369Y-89488690D01*
X107763376Y-89479834D01*
X107712360Y-89474480D01*
X107659159Y-89472981D01*
X107608611Y-89475689D01*
X107572800Y-89481240D01*
X107544654Y-89488874D01*
X107512798Y-89499708D01*
X107481265Y-89512065D01*
X107454085Y-89524267D01*
X107435289Y-89534635D01*
X107428867Y-89541153D01*
X107421961Y-89547749D01*
X107415654Y-89548667D01*
X107401254Y-89555046D01*
X107379457Y-89572324D01*
X107352832Y-89597708D01*
X107323948Y-89628405D01*
X107295374Y-89661624D01*
X107269679Y-89694574D01*
X107249433Y-89724461D01*
X107242343Y-89737019D01*
X107212967Y-89794138D01*
X106956850Y-89794169D01*
X106700734Y-89794200D01*
X106700734Y-88769734D01*
X106345134Y-88769734D01*
X106345134Y-90149800D01*
X106345134Y-90149800D01*
G37*
X106345134Y-90149800D02*
X107225916Y-90149800D01*
X107242223Y-90177317D01*
X107255401Y-90198296D01*
X107266366Y-90213711D01*
X107267498Y-90215059D01*
X107275479Y-90227174D01*
X107276467Y-90230818D01*
X107282599Y-90243827D01*
X107298963Y-90264278D01*
X107322510Y-90289107D01*
X107350189Y-90315251D01*
X107378953Y-90339647D01*
X107401430Y-90356350D01*
X107472631Y-90397199D01*
X107547997Y-90424433D01*
X107612827Y-90437507D01*
X107645902Y-90442101D01*
X107669205Y-90444239D01*
X107689718Y-90443929D01*
X107714420Y-90441181D01*
X107738905Y-90437671D01*
X107769393Y-90431804D01*
X107803341Y-90423117D01*
X107836788Y-90412922D01*
X107865774Y-90402528D01*
X107886338Y-90393246D01*
X107894520Y-90386386D01*
X107894533Y-90386177D01*
X107900450Y-90380237D01*
X107902308Y-90380517D01*
X107916141Y-90377009D01*
X107938158Y-90363561D01*
X107965327Y-90342918D01*
X107994613Y-90317825D01*
X108022982Y-90291025D01*
X108047402Y-90265263D01*
X108064839Y-90243285D01*
X108072259Y-90227834D01*
X108072334Y-90226692D01*
X108077368Y-90217909D01*
X108079353Y-90217534D01*
X108085952Y-90210859D01*
X108096105Y-90194197D01*
X108107332Y-90172586D01*
X108117154Y-90151067D01*
X108123094Y-90134681D01*
X108123134Y-90128506D01*
X108124186Y-90121909D01*
X108129772Y-90113903D01*
X108138352Y-90098791D01*
X108144856Y-90075317D01*
X108149703Y-90041001D01*
X108153312Y-89993362D01*
X108154645Y-89966886D01*
X108153588Y-89929638D01*
X107893511Y-89929638D01*
X107892796Y-89983995D01*
X107882193Y-90030485D01*
X107856029Y-90084395D01*
X107817951Y-90126539D01*
X107768825Y-90156258D01*
X107709522Y-90172889D01*
X107692194Y-90175021D01*
X107661328Y-90176777D01*
X107635960Y-90176221D01*
X107622597Y-90173778D01*
X107609396Y-90169851D01*
X107605619Y-90170603D01*
X107595727Y-90169548D01*
X107577541Y-90158979D01*
X107554417Y-90141670D01*
X107529709Y-90120401D01*
X107506771Y-90097947D01*
X107488956Y-90077084D01*
X107484174Y-90070064D01*
X107470524Y-90045776D01*
X107462767Y-90024157D01*
X107459300Y-89998597D01*
X107458521Y-89964231D01*
X107458768Y-89923747D01*
X107460662Y-89895286D01*
X107465884Y-89873938D01*
X107476113Y-89854792D01*
X107493032Y-89832938D01*
X107510414Y-89812637D01*
X107556333Y-89770767D01*
X107607121Y-89744404D01*
X107660870Y-89733537D01*
X107715669Y-89738155D01*
X107769611Y-89758248D01*
X107820787Y-89793805D01*
X107842083Y-89814503D01*
X107860193Y-89834514D01*
X107871751Y-89848573D01*
X107874265Y-89853467D01*
X107874306Y-89860270D01*
X107879888Y-89877033D01*
X107881496Y-89880987D01*
X107893511Y-89929638D01*
X108153588Y-89929638D01*
X108152295Y-89884131D01*
X108136775Y-89808816D01*
X108107128Y-89738572D01*
X108062397Y-89671031D01*
X108012102Y-89614284D01*
X107984516Y-89587492D01*
X107960068Y-89565981D01*
X107941788Y-89552289D01*
X107933717Y-89548667D01*
X107921764Y-89544920D01*
X107919933Y-89541227D01*
X107913099Y-89534268D01*
X107896884Y-89524602D01*
X107877722Y-89515577D01*
X107862044Y-89510545D01*
X107860667Y-89510365D01*
X107850720Y-89506437D01*
X107839500Y-89500695D01*
X107807369Y-89488690D01*
X107763376Y-89479834D01*
X107712360Y-89474480D01*
X107659159Y-89472981D01*
X107608611Y-89475689D01*
X107572800Y-89481240D01*
X107544654Y-89488874D01*
X107512798Y-89499708D01*
X107481265Y-89512065D01*
X107454085Y-89524267D01*
X107435289Y-89534635D01*
X107428867Y-89541153D01*
X107421961Y-89547749D01*
X107415654Y-89548667D01*
X107401254Y-89555046D01*
X107379457Y-89572324D01*
X107352832Y-89597708D01*
X107323948Y-89628405D01*
X107295374Y-89661624D01*
X107269679Y-89694574D01*
X107249433Y-89724461D01*
X107242343Y-89737019D01*
X107212967Y-89794138D01*
X106956850Y-89794169D01*
X106700734Y-89794200D01*
X106700734Y-88769734D01*
X106345134Y-88769734D01*
X106345134Y-90149800D01*
D10*
X77070000Y-60490000D02*
X76920000Y-60490000D01*
X78470000Y-59090000D02*
X76470000Y-60290000D01*
X78470000Y-60290000D02*
X76470000Y-59090000D01*
X77470000Y-58890000D02*
X77470000Y-60290000D01*
X78870000Y-59690000D02*
X75970000Y-59690000D01*
X78870000Y-58890000D02*
X78870000Y-60490000D01*
X78020000Y-60490000D02*
X77920000Y-60490000D01*
X75970000Y-60490000D02*
X75970000Y-58890000D01*
X76970000Y-58890000D02*
X77970000Y-58890000D01*
X77970000Y-60490000D02*
X77870000Y-60490000D01*
X77070000Y-41440000D02*
X76920000Y-41440000D01*
X78470000Y-40040000D02*
X76470000Y-41240000D01*
X78470000Y-41240000D02*
X76470000Y-40040000D01*
X77470000Y-39840000D02*
X77470000Y-41240000D01*
X78870000Y-40640000D02*
X75970000Y-40640000D01*
X78870000Y-39840000D02*
X78870000Y-41440000D01*
X78020000Y-41440000D02*
X77920000Y-41440000D01*
X75970000Y-41440000D02*
X75970000Y-39840000D01*
X76970000Y-39840000D02*
X77970000Y-39840000D01*
X77970000Y-41440000D02*
X77870000Y-41440000D01*
X77070000Y-79540000D02*
X76920000Y-79540000D01*
X78470000Y-78140000D02*
X76470000Y-79340000D01*
X78470000Y-79340000D02*
X76470000Y-78140000D01*
X77470000Y-77940000D02*
X77470000Y-79340000D01*
X78870000Y-78740000D02*
X75970000Y-78740000D01*
X78870000Y-77940000D02*
X78870000Y-79540000D01*
X78020000Y-79540000D02*
X77920000Y-79540000D01*
X75970000Y-79540000D02*
X75970000Y-77940000D01*
X76970000Y-77940000D02*
X77970000Y-77940000D01*
X77970000Y-79540000D02*
X77870000Y-79540000D01*
X77070000Y-98590000D02*
X76920000Y-98590000D01*
X78470000Y-97190000D02*
X76470000Y-98390000D01*
X78470000Y-98390000D02*
X76470000Y-97190000D01*
X77470000Y-96990000D02*
X77470000Y-98390000D01*
X78870000Y-97790000D02*
X75970000Y-97790000D01*
X78870000Y-96990000D02*
X78870000Y-98590000D01*
X78020000Y-98590000D02*
X77920000Y-98590000D01*
X75970000Y-98590000D02*
X75970000Y-96990000D01*
X76970000Y-96990000D02*
X77970000Y-96990000D01*
X77970000Y-98590000D02*
X77870000Y-98590000D01*
X77070000Y-117640000D02*
X76920000Y-117640000D01*
X78470000Y-116240000D02*
X76470000Y-117440000D01*
X78470000Y-117440000D02*
X76470000Y-116240000D01*
X77470000Y-116040000D02*
X77470000Y-117440000D01*
X78870000Y-116840000D02*
X75970000Y-116840000D01*
X78870000Y-116040000D02*
X78870000Y-117640000D01*
X78020000Y-117640000D02*
X77920000Y-117640000D01*
X75970000Y-117640000D02*
X75970000Y-116040000D01*
X76970000Y-116040000D02*
X77970000Y-116040000D01*
X77970000Y-117640000D02*
X77870000Y-117640000D01*
X65150000Y-53150000D02*
X65150000Y-53850000D01*
X66350000Y-53850000D02*
X66350000Y-53150000D01*
X59150000Y-53150000D02*
X59150000Y-53850000D01*
X60350000Y-53850000D02*
X60350000Y-53150000D01*
X54150000Y-51100000D02*
X54850000Y-51100000D01*
X54850000Y-49900000D02*
X54150000Y-49900000D01*
X46100000Y-54900000D02*
X45400000Y-54900000D01*
X45400000Y-56100000D02*
X46100000Y-56100000D01*
X38400000Y-41475000D02*
X40400000Y-41475000D01*
X40400000Y-43525000D02*
X38400000Y-43525000D01*
X54400000Y-64100000D02*
X55100000Y-64100000D01*
X55100000Y-62900000D02*
X54400000Y-62900000D01*
X45400000Y-54600000D02*
X46100000Y-54600000D01*
X46100000Y-53400000D02*
X45400000Y-53400000D01*
X55100000Y-64400000D02*
X54400000Y-64400000D01*
X54400000Y-65600000D02*
X55100000Y-65600000D01*
X46100000Y-51900000D02*
X45400000Y-51900000D01*
X45400000Y-53100000D02*
X46100000Y-53100000D01*
X51100000Y-72650000D02*
X50400000Y-72650000D01*
X50400000Y-73850000D02*
X51100000Y-73850000D01*
X50400000Y-75350000D02*
X51100000Y-75350000D01*
X51100000Y-74150000D02*
X50400000Y-74150000D01*
X59650000Y-73400000D02*
X59650000Y-74100000D01*
X60850000Y-74100000D02*
X60850000Y-73400000D01*
X38375000Y-40100000D02*
X38375000Y-38100000D01*
X40425000Y-38100000D02*
X40425000Y-40100000D01*
D14*
X67800000Y-55700000D02*
X67800000Y-57300000D01*
X71200000Y-55700000D02*
X71200000Y-57300000D01*
X68400000Y-58700000D02*
X68700000Y-58700000D01*
X70300000Y-58700000D02*
X70600000Y-58700000D01*
X70300000Y-54300000D02*
X70600000Y-54300000D01*
X68400000Y-54300000D02*
X68700000Y-54300000D01*
D10*
X49250000Y-52500000D02*
X49000000Y-52750000D01*
X49000000Y-61250000D02*
X49000000Y-61500000D01*
X49000000Y-61500000D02*
X49250000Y-61500000D01*
X58000000Y-52750000D02*
X58000000Y-52500000D01*
X58000000Y-52500000D02*
X57750000Y-52500000D01*
X58000000Y-61250000D02*
X58000000Y-61500000D01*
X58000000Y-61500000D02*
X57750000Y-61500000D01*
X50124360Y-30055820D02*
X57825640Y-30055820D01*
X50124360Y-29055060D02*
X57825640Y-29055060D01*
X57825640Y-29055060D02*
X57825640Y-38254940D01*
X57825640Y-38254940D02*
X50124360Y-38254940D01*
X50124360Y-38254940D02*
X50124360Y-29055060D01*
X54000000Y-76500000D02*
X54500000Y-77000000D01*
X58000000Y-77000000D02*
X58000000Y-76500000D01*
X57500000Y-77000000D02*
X58000000Y-77000000D01*
X54500000Y-73000000D02*
X54000000Y-73000000D01*
X54000000Y-73000000D02*
X54000000Y-73500000D01*
X58000000Y-73500000D02*
X58000000Y-73000000D01*
X58000000Y-73000000D02*
X57500000Y-73000000D01*
D15*
X64750000Y-51850000D02*
X64750000Y-55150000D01*
X64750000Y-55150000D02*
X60750000Y-55150000D01*
D16*
X49950000Y-64300000D02*
X49950000Y-68100000D01*
X47750000Y-70300000D02*
G75*
G03X49950000Y-68100000I0J2200000D01*
G01*
X47750000Y-70300000D02*
X40150000Y-70300000D01*
X40150000Y-70300000D02*
X40150000Y-67350000D01*
X40750000Y-66800000D02*
G75*
G03X40150000Y-67350000I-25000J-575000D01*
G01*
X40750000Y-66800000D02*
X44750000Y-66800000D01*
X46749999Y-64999999D02*
G75*
G02X44750000Y-66800000I-1900000J99999D01*
G01*
X46750000Y-65000000D02*
X46750000Y-64850000D01*
X47100000Y-64300000D02*
G75*
G03X46750000Y-64850000I100000J-450000D01*
G01*
X47100000Y-64300000D02*
X49950000Y-64300000D01*
X88050000Y-45250000D02*
X88050000Y-49050000D01*
X85850000Y-51250000D02*
G75*
G03X88050000Y-49050000I0J2200000D01*
G01*
X85850000Y-51250000D02*
X78250000Y-51250000D01*
X78250000Y-51250000D02*
X78250000Y-48300000D01*
X78850000Y-47750000D02*
G75*
G03X78250000Y-48300000I-25000J-575000D01*
G01*
X78850000Y-47750000D02*
X82850000Y-47750000D01*
X84849999Y-45949999D02*
G75*
G02X82850000Y-47750000I-1900000J99999D01*
G01*
X84850000Y-45950000D02*
X84850000Y-45800000D01*
X85200000Y-45250000D02*
G75*
G03X84850000Y-45800000I100000J-450000D01*
G01*
X85200000Y-45250000D02*
X88050000Y-45250000D01*
X107100000Y-45250000D02*
X107100000Y-49050000D01*
X104900000Y-51250000D02*
G75*
G03X107100000Y-49050000I0J2200000D01*
G01*
X104900000Y-51250000D02*
X97300000Y-51250000D01*
X97300000Y-51250000D02*
X97300000Y-48300000D01*
X97900000Y-47750000D02*
G75*
G03X97300000Y-48300000I-25000J-575000D01*
G01*
X97900000Y-47750000D02*
X101900000Y-47750000D01*
X103899999Y-45949999D02*
G75*
G02X101900000Y-47750000I-1900000J99999D01*
G01*
X103900000Y-45950000D02*
X103900000Y-45800000D01*
X104250000Y-45250000D02*
G75*
G03X103900000Y-45800000I100000J-450000D01*
G01*
X104250000Y-45250000D02*
X107100000Y-45250000D01*
X88050000Y-121450000D02*
X88050000Y-125250000D01*
X85850000Y-127450000D02*
G75*
G03X88050000Y-125250000I0J2200000D01*
G01*
X85850000Y-127450000D02*
X78250000Y-127450000D01*
X78250000Y-127450000D02*
X78250000Y-124500000D01*
X78850000Y-123950000D02*
G75*
G03X78250000Y-124500000I-25000J-575000D01*
G01*
X78850000Y-123950000D02*
X82850000Y-123950000D01*
X84849999Y-122149999D02*
G75*
G02X82850000Y-123950000I-1900000J99999D01*
G01*
X84850000Y-122150000D02*
X84850000Y-122000000D01*
X85200000Y-121450000D02*
G75*
G03X84850000Y-122000000I100000J-450000D01*
G01*
X85200000Y-121450000D02*
X88050000Y-121450000D01*
X59475000Y-121450000D02*
X59475000Y-125250000D01*
X57275000Y-127450000D02*
G75*
G03X59475000Y-125250000I0J2200000D01*
G01*
X57275000Y-127450000D02*
X49675000Y-127450000D01*
X49675000Y-127450000D02*
X49675000Y-124500000D01*
X50275000Y-123950000D02*
G75*
G03X49675000Y-124500000I-25000J-575000D01*
G01*
X50275000Y-123950000D02*
X54275000Y-123950000D01*
X56274999Y-122149999D02*
G75*
G02X54275000Y-123950000I-1900000J99999D01*
G01*
X56275000Y-122150000D02*
X56275000Y-122000000D01*
X56625000Y-121450000D02*
G75*
G03X56275000Y-122000000I100000J-450000D01*
G01*
X56625000Y-121450000D02*
X59475000Y-121450000D01*
X102400000Y-105625000D02*
X106200000Y-105625000D01*
X108400000Y-107825000D02*
G75*
G03X106200000Y-105625000I-2200000J0D01*
G01*
X108400000Y-107825000D02*
X108400000Y-115425000D01*
X108400000Y-115425000D02*
X105450000Y-115425000D01*
X104900000Y-114825000D02*
G75*
G03X105450000Y-115425000I575000J-25000D01*
G01*
X104900000Y-114825000D02*
X104900000Y-110825000D01*
X103099999Y-108825001D02*
G75*
G02X104900000Y-110825000I-99999J-1900000D01*
G01*
X103100000Y-108825000D02*
X102950000Y-108825000D01*
X102400000Y-108475000D02*
G75*
G03X102950000Y-108825000I450000J100000D01*
G01*
X102400000Y-108475000D02*
X102400000Y-105625000D01*
X88050000Y-102400000D02*
X88050000Y-106200000D01*
X85850000Y-108400000D02*
G75*
G03X88050000Y-106200000I0J2200000D01*
G01*
X85850000Y-108400000D02*
X78250000Y-108400000D01*
X78250000Y-108400000D02*
X78250000Y-105450000D01*
X78850000Y-104900000D02*
G75*
G03X78250000Y-105450000I-25000J-575000D01*
G01*
X78850000Y-104900000D02*
X82850000Y-104900000D01*
X84849999Y-103099999D02*
G75*
G02X82850000Y-104900000I-1900000J99999D01*
G01*
X84850000Y-103100000D02*
X84850000Y-102950000D01*
X85200000Y-102400000D02*
G75*
G03X84850000Y-102950000I100000J-450000D01*
G01*
X85200000Y-102400000D02*
X88050000Y-102400000D01*
X69000000Y-102400000D02*
X69000000Y-106200000D01*
X66800000Y-108400000D02*
G75*
G03X69000000Y-106200000I0J2200000D01*
G01*
X66800000Y-108400000D02*
X59200000Y-108400000D01*
X59200000Y-108400000D02*
X59200000Y-105450000D01*
X59800000Y-104900000D02*
G75*
G03X59200000Y-105450000I-25000J-575000D01*
G01*
X59800000Y-104900000D02*
X63800000Y-104900000D01*
X65799999Y-103099999D02*
G75*
G02X63800000Y-104900000I-1900000J99999D01*
G01*
X65800000Y-103100000D02*
X65800000Y-102950000D01*
X66150000Y-102400000D02*
G75*
G03X65800000Y-102950000I100000J-450000D01*
G01*
X66150000Y-102400000D02*
X69000000Y-102400000D01*
X49950000Y-102400000D02*
X49950000Y-106200000D01*
X47750000Y-108400000D02*
G75*
G03X49950000Y-106200000I0J2200000D01*
G01*
X47750000Y-108400000D02*
X40150000Y-108400000D01*
X40150000Y-108400000D02*
X40150000Y-105450000D01*
X40750000Y-104900000D02*
G75*
G03X40150000Y-105450000I-25000J-575000D01*
G01*
X40750000Y-104900000D02*
X44750000Y-104900000D01*
X46749999Y-103099999D02*
G75*
G02X44750000Y-104900000I-1900000J99999D01*
G01*
X46750000Y-103100000D02*
X46750000Y-102950000D01*
X47100000Y-102400000D02*
G75*
G03X46750000Y-102950000I100000J-450000D01*
G01*
X47100000Y-102400000D02*
X49950000Y-102400000D01*
X88050000Y-83350000D02*
X88050000Y-87150000D01*
X85850000Y-89350000D02*
G75*
G03X88050000Y-87150000I0J2200000D01*
G01*
X85850000Y-89350000D02*
X78250000Y-89350000D01*
X78250000Y-89350000D02*
X78250000Y-86400000D01*
X78850000Y-85850000D02*
G75*
G03X78250000Y-86400000I-25000J-575000D01*
G01*
X78850000Y-85850000D02*
X82850000Y-85850000D01*
X84849999Y-84049999D02*
G75*
G02X82850000Y-85850000I-1900000J99999D01*
G01*
X84850000Y-84050000D02*
X84850000Y-83900000D01*
X85200000Y-83350000D02*
G75*
G03X84850000Y-83900000I100000J-450000D01*
G01*
X85200000Y-83350000D02*
X88050000Y-83350000D01*
X69000000Y-83350000D02*
X69000000Y-87150000D01*
X66800000Y-89350000D02*
G75*
G03X69000000Y-87150000I0J2200000D01*
G01*
X66800000Y-89350000D02*
X59200000Y-89350000D01*
X59200000Y-89350000D02*
X59200000Y-86400000D01*
X59800000Y-85850000D02*
G75*
G03X59200000Y-86400000I-25000J-575000D01*
G01*
X59800000Y-85850000D02*
X63800000Y-85850000D01*
X65799999Y-84049999D02*
G75*
G02X63800000Y-85850000I-1900000J99999D01*
G01*
X65800000Y-84050000D02*
X65800000Y-83900000D01*
X66150000Y-83350000D02*
G75*
G03X65800000Y-83900000I100000J-450000D01*
G01*
X66150000Y-83350000D02*
X69000000Y-83350000D01*
X49950000Y-83350000D02*
X49950000Y-87150000D01*
X47750000Y-89350000D02*
G75*
G03X49950000Y-87150000I0J2200000D01*
G01*
X47750000Y-89350000D02*
X40150000Y-89350000D01*
X40150000Y-89350000D02*
X40150000Y-86400000D01*
X40750000Y-85850000D02*
G75*
G03X40150000Y-86400000I-25000J-575000D01*
G01*
X40750000Y-85850000D02*
X44750000Y-85850000D01*
X46749999Y-84049999D02*
G75*
G02X44750000Y-85850000I-1900000J99999D01*
G01*
X46750000Y-84050000D02*
X46750000Y-83900000D01*
X47100000Y-83350000D02*
G75*
G03X46750000Y-83900000I100000J-450000D01*
G01*
X47100000Y-83350000D02*
X49950000Y-83350000D01*
X102400000Y-67525000D02*
X106200000Y-67525000D01*
X108400000Y-69725000D02*
G75*
G03X106200000Y-67525000I-2200000J0D01*
G01*
X108400000Y-69725000D02*
X108400000Y-77325000D01*
X108400000Y-77325000D02*
X105450000Y-77325000D01*
X104900000Y-76725000D02*
G75*
G03X105450000Y-77325000I575000J-25000D01*
G01*
X104900000Y-76725000D02*
X104900000Y-72725000D01*
X103099999Y-70725001D02*
G75*
G02X104900000Y-72725000I-99999J-1900000D01*
G01*
X103100000Y-70725000D02*
X102950000Y-70725000D01*
X102400000Y-70375000D02*
G75*
G03X102950000Y-70725000I450000J100000D01*
G01*
X102400000Y-70375000D02*
X102400000Y-67525000D01*
X69000000Y-64300000D02*
X69000000Y-68100000D01*
X66800000Y-70300000D02*
G75*
G03X69000000Y-68100000I0J2200000D01*
G01*
X66800000Y-70300000D02*
X59200000Y-70300000D01*
X59200000Y-70300000D02*
X59200000Y-67350000D01*
X59800000Y-66800000D02*
G75*
G03X59200000Y-67350000I-25000J-575000D01*
G01*
X59800000Y-66800000D02*
X63800000Y-66800000D01*
X65799999Y-64999999D02*
G75*
G02X63800000Y-66800000I-1900000J99999D01*
G01*
X65800000Y-65000000D02*
X65800000Y-64850000D01*
X66150000Y-64300000D02*
G75*
G03X65800000Y-64850000I100000J-450000D01*
G01*
X66150000Y-64300000D02*
X69000000Y-64300000D01*
X69000000Y-45250000D02*
X69000000Y-49050000D01*
X66800000Y-51250000D02*
G75*
G03X69000000Y-49050000I0J2200000D01*
G01*
X66800000Y-51250000D02*
X59200000Y-51250000D01*
X59200000Y-51250000D02*
X59200000Y-48300000D01*
X59800000Y-47750000D02*
G75*
G03X59200000Y-48300000I-25000J-575000D01*
G01*
X59800000Y-47750000D02*
X63800000Y-47750000D01*
X65799999Y-45949999D02*
G75*
G02X63800000Y-47750000I-1900000J99999D01*
G01*
X65800000Y-45950000D02*
X65800000Y-45800000D01*
X66150000Y-45250000D02*
G75*
G03X65800000Y-45800000I100000J-450000D01*
G01*
X66150000Y-45250000D02*
X69000000Y-45250000D01*
X49950000Y-45250000D02*
X49950000Y-49050000D01*
X47750000Y-51250000D02*
G75*
G03X49950000Y-49050000I0J2200000D01*
G01*
X47750000Y-51250000D02*
X40150000Y-51250000D01*
X40150000Y-51250000D02*
X40150000Y-48300000D01*
X40750000Y-47750000D02*
G75*
G03X40150000Y-48300000I-25000J-575000D01*
G01*
X40750000Y-47750000D02*
X44750000Y-47750000D01*
X46749999Y-45949999D02*
G75*
G02X44750000Y-47750000I-1900000J99999D01*
G01*
X46750000Y-45950000D02*
X46750000Y-45800000D01*
X47100000Y-45250000D02*
G75*
G03X46750000Y-45800000I100000J-450000D01*
G01*
X47100000Y-45250000D02*
X49950000Y-45250000D01*
X88050000Y-64300000D02*
X88050000Y-68100000D01*
X85850000Y-70300000D02*
G75*
G03X88050000Y-68100000I0J2200000D01*
G01*
X85850000Y-70300000D02*
X78250000Y-70300000D01*
X78250000Y-70300000D02*
X78250000Y-67350000D01*
X78850000Y-66800000D02*
G75*
G03X78250000Y-67350000I-25000J-575000D01*
G01*
X78850000Y-66800000D02*
X82850000Y-66800000D01*
X84849999Y-64999999D02*
G75*
G02X82850000Y-66800000I-1900000J99999D01*
G01*
X84850000Y-65000000D02*
X84850000Y-64850000D01*
X85200000Y-64300000D02*
G75*
G03X84850000Y-64850000I100000J-450000D01*
G01*
X85200000Y-64300000D02*
X88050000Y-64300000D01*
D10*
X55325000Y-46000000D02*
X55325000Y-47000000D01*
X56675000Y-47000000D02*
X56675000Y-46000000D01*
X70500000Y-53175000D02*
X71500000Y-53175000D01*
X71500000Y-51825000D02*
X70500000Y-51825000D01*
X64925000Y-74450000D02*
X64925000Y-73450000D01*
X63575000Y-73450000D02*
X63575000Y-74450000D01*
X63425000Y-74450000D02*
X63425000Y-73450000D01*
X62075000Y-73450000D02*
X62075000Y-74450000D01*
X53825000Y-46000000D02*
X53825000Y-47000000D01*
X55175000Y-47000000D02*
X55175000Y-46000000D01*
X51250000Y-75575000D02*
X50250000Y-75575000D01*
X50250000Y-76925000D02*
X51250000Y-76925000D01*
X51250000Y-71075000D02*
X50250000Y-71075000D01*
X50250000Y-72425000D02*
X51250000Y-72425000D01*
X100500000Y-63100000D02*
X102500000Y-63100000D01*
X96000000Y-63100000D02*
X96000000Y-52100000D01*
X107000000Y-63100000D02*
X96000000Y-63100000D01*
X107000000Y-52100000D02*
X107000000Y-63100000D01*
X96000000Y-52100000D02*
X107000000Y-52100000D01*
X78208095Y-57642381D02*
X78208095Y-56642381D01*
X77970000Y-56642381D01*
X77827142Y-56690000D01*
X77731904Y-56785238D01*
X77684285Y-56880476D01*
X77636666Y-57070952D01*
X77636666Y-57213810D01*
X77684285Y-57404286D01*
X77731904Y-57499524D01*
X77827142Y-57594762D01*
X77970000Y-57642381D01*
X78208095Y-57642381D01*
X77255714Y-56737619D02*
X77208095Y-56690000D01*
X77112857Y-56642381D01*
X76874761Y-56642381D01*
X76779523Y-56690000D01*
X76731904Y-56737619D01*
X76684285Y-56832857D01*
X76684285Y-56928095D01*
X76731904Y-57070952D01*
X77303333Y-57642381D01*
X76684285Y-57642381D01*
X78208095Y-38592381D02*
X78208095Y-37592381D01*
X77970000Y-37592381D01*
X77827142Y-37640000D01*
X77731904Y-37735238D01*
X77684285Y-37830476D01*
X77636666Y-38020952D01*
X77636666Y-38163810D01*
X77684285Y-38354286D01*
X77731904Y-38449524D01*
X77827142Y-38544762D01*
X77970000Y-38592381D01*
X78208095Y-38592381D01*
X76684285Y-38592381D02*
X77255714Y-38592381D01*
X76970000Y-38592381D02*
X76970000Y-37592381D01*
X77065238Y-37735238D01*
X77160476Y-37830476D01*
X77255714Y-37878095D01*
X78208095Y-76692381D02*
X78208095Y-75692381D01*
X77970000Y-75692381D01*
X77827142Y-75740000D01*
X77731904Y-75835238D01*
X77684285Y-75930476D01*
X77636666Y-76120952D01*
X77636666Y-76263810D01*
X77684285Y-76454286D01*
X77731904Y-76549524D01*
X77827142Y-76644762D01*
X77970000Y-76692381D01*
X78208095Y-76692381D01*
X77303333Y-75692381D02*
X76684285Y-75692381D01*
X77017619Y-76073333D01*
X76874761Y-76073333D01*
X76779523Y-76120952D01*
X76731904Y-76168571D01*
X76684285Y-76263810D01*
X76684285Y-76501905D01*
X76731904Y-76597143D01*
X76779523Y-76644762D01*
X76874761Y-76692381D01*
X77160476Y-76692381D01*
X77255714Y-76644762D01*
X77303333Y-76597143D01*
X78208095Y-95742381D02*
X78208095Y-94742381D01*
X77970000Y-94742381D01*
X77827142Y-94790000D01*
X77731904Y-94885238D01*
X77684285Y-94980476D01*
X77636666Y-95170952D01*
X77636666Y-95313810D01*
X77684285Y-95504286D01*
X77731904Y-95599524D01*
X77827142Y-95694762D01*
X77970000Y-95742381D01*
X78208095Y-95742381D01*
X76779523Y-95075714D02*
X76779523Y-95742381D01*
X77017619Y-94694762D02*
X77255714Y-95409048D01*
X76636666Y-95409048D01*
X78208095Y-114792381D02*
X78208095Y-113792381D01*
X77970000Y-113792381D01*
X77827142Y-113840000D01*
X77731904Y-113935238D01*
X77684285Y-114030476D01*
X77636666Y-114220952D01*
X77636666Y-114363810D01*
X77684285Y-114554286D01*
X77731904Y-114649524D01*
X77827142Y-114744762D01*
X77970000Y-114792381D01*
X78208095Y-114792381D01*
X76731904Y-113792381D02*
X77208095Y-113792381D01*
X77255714Y-114268571D01*
X77208095Y-114220952D01*
X77112857Y-114173333D01*
X76874761Y-114173333D01*
X76779523Y-114220952D01*
X76731904Y-114268571D01*
X76684285Y-114363810D01*
X76684285Y-114601905D01*
X76731904Y-114697143D01*
X76779523Y-114744762D01*
X76874761Y-114792381D01*
X77112857Y-114792381D01*
X77208095Y-114744762D01*
X77255714Y-114697143D01*
X64584143Y-53281334D02*
X64631762Y-53233715D01*
X64679381Y-53090858D01*
X64679381Y-52995620D01*
X64631762Y-52852762D01*
X64536524Y-52757524D01*
X64441286Y-52709905D01*
X64250810Y-52662286D01*
X64107952Y-52662286D01*
X63917476Y-52709905D01*
X63822238Y-52757524D01*
X63727000Y-52852762D01*
X63679381Y-52995620D01*
X63679381Y-53090858D01*
X63727000Y-53233715D01*
X63774619Y-53281334D01*
X64679381Y-54233715D02*
X64679381Y-53662286D01*
X64679381Y-53948000D02*
X63679381Y-53948000D01*
X63822238Y-53852762D01*
X63917476Y-53757524D01*
X63965095Y-53662286D01*
X60107143Y-55873334D02*
X60154762Y-55825715D01*
X60202381Y-55682858D01*
X60202381Y-55587620D01*
X60154762Y-55444762D01*
X60059524Y-55349524D01*
X59964286Y-55301905D01*
X59773810Y-55254286D01*
X59630952Y-55254286D01*
X59440476Y-55301905D01*
X59345238Y-55349524D01*
X59250000Y-55444762D01*
X59202381Y-55587620D01*
X59202381Y-55682858D01*
X59250000Y-55825715D01*
X59297619Y-55873334D01*
X59297619Y-56254286D02*
X59250000Y-56301905D01*
X59202381Y-56397143D01*
X59202381Y-56635239D01*
X59250000Y-56730477D01*
X59297619Y-56778096D01*
X59392857Y-56825715D01*
X59488095Y-56825715D01*
X59630952Y-56778096D01*
X60202381Y-56206667D01*
X60202381Y-56825715D01*
X54666666Y-49457143D02*
X54714285Y-49504762D01*
X54857142Y-49552381D01*
X54952380Y-49552381D01*
X55095238Y-49504762D01*
X55190476Y-49409524D01*
X55238095Y-49314286D01*
X55285714Y-49123810D01*
X55285714Y-48980952D01*
X55238095Y-48790476D01*
X55190476Y-48695238D01*
X55095238Y-48600000D01*
X54952380Y-48552381D01*
X54857142Y-48552381D01*
X54714285Y-48600000D01*
X54666666Y-48647619D01*
X54333333Y-48552381D02*
X53714285Y-48552381D01*
X54047619Y-48933333D01*
X53904761Y-48933333D01*
X53809523Y-48980952D01*
X53761904Y-49028571D01*
X53714285Y-49123810D01*
X53714285Y-49361905D01*
X53761904Y-49457143D01*
X53809523Y-49504762D01*
X53904761Y-49552381D01*
X54190476Y-49552381D01*
X54285714Y-49504762D01*
X54333333Y-49457143D01*
X43416666Y-55857143D02*
X43464285Y-55904762D01*
X43607142Y-55952381D01*
X43702380Y-55952381D01*
X43845238Y-55904762D01*
X43940476Y-55809524D01*
X43988095Y-55714286D01*
X44035714Y-55523810D01*
X44035714Y-55380952D01*
X43988095Y-55190476D01*
X43940476Y-55095238D01*
X43845238Y-55000000D01*
X43702380Y-54952381D01*
X43607142Y-54952381D01*
X43464285Y-55000000D01*
X43416666Y-55047619D01*
X42559523Y-55285714D02*
X42559523Y-55952381D01*
X42797619Y-54904762D02*
X43035714Y-55619048D01*
X42416666Y-55619048D01*
X36666666Y-42857143D02*
X36714285Y-42904762D01*
X36857142Y-42952381D01*
X36952380Y-42952381D01*
X37095238Y-42904762D01*
X37190476Y-42809524D01*
X37238095Y-42714286D01*
X37285714Y-42523810D01*
X37285714Y-42380952D01*
X37238095Y-42190476D01*
X37190476Y-42095238D01*
X37095238Y-42000000D01*
X36952380Y-41952381D01*
X36857142Y-41952381D01*
X36714285Y-42000000D01*
X36666666Y-42047619D01*
X35761904Y-41952381D02*
X36238095Y-41952381D01*
X36285714Y-42428571D01*
X36238095Y-42380952D01*
X36142857Y-42333333D01*
X35904761Y-42333333D01*
X35809523Y-42380952D01*
X35761904Y-42428571D01*
X35714285Y-42523810D01*
X35714285Y-42761905D01*
X35761904Y-42857143D01*
X35809523Y-42904762D01*
X35904761Y-42952381D01*
X36142857Y-42952381D01*
X36238095Y-42904762D01*
X36285714Y-42857143D01*
X52366666Y-63857143D02*
X52414285Y-63904762D01*
X52557142Y-63952381D01*
X52652380Y-63952381D01*
X52795238Y-63904762D01*
X52890476Y-63809524D01*
X52938095Y-63714286D01*
X52985714Y-63523810D01*
X52985714Y-63380952D01*
X52938095Y-63190476D01*
X52890476Y-63095238D01*
X52795238Y-63000000D01*
X52652380Y-62952381D01*
X52557142Y-62952381D01*
X52414285Y-63000000D01*
X52366666Y-63047619D01*
X51509523Y-62952381D02*
X51700000Y-62952381D01*
X51795238Y-63000000D01*
X51842857Y-63047619D01*
X51938095Y-63190476D01*
X51985714Y-63380952D01*
X51985714Y-63761905D01*
X51938095Y-63857143D01*
X51890476Y-63904762D01*
X51795238Y-63952381D01*
X51604761Y-63952381D01*
X51509523Y-63904762D01*
X51461904Y-63857143D01*
X51414285Y-63761905D01*
X51414285Y-63523810D01*
X51461904Y-63428571D01*
X51509523Y-63380952D01*
X51604761Y-63333333D01*
X51795238Y-63333333D01*
X51890476Y-63380952D01*
X51938095Y-63428571D01*
X51985714Y-63523810D01*
X43416666Y-54357143D02*
X43464285Y-54404762D01*
X43607142Y-54452381D01*
X43702380Y-54452381D01*
X43845238Y-54404762D01*
X43940476Y-54309524D01*
X43988095Y-54214286D01*
X44035714Y-54023810D01*
X44035714Y-53880952D01*
X43988095Y-53690476D01*
X43940476Y-53595238D01*
X43845238Y-53500000D01*
X43702380Y-53452381D01*
X43607142Y-53452381D01*
X43464285Y-53500000D01*
X43416666Y-53547619D01*
X43083333Y-53452381D02*
X42416666Y-53452381D01*
X42845238Y-54452381D01*
X57416666Y-65357143D02*
X57464285Y-65404762D01*
X57607142Y-65452381D01*
X57702380Y-65452381D01*
X57845238Y-65404762D01*
X57940476Y-65309524D01*
X57988095Y-65214286D01*
X58035714Y-65023810D01*
X58035714Y-64880952D01*
X57988095Y-64690476D01*
X57940476Y-64595238D01*
X57845238Y-64500000D01*
X57702380Y-64452381D01*
X57607142Y-64452381D01*
X57464285Y-64500000D01*
X57416666Y-64547619D01*
X56845238Y-64880952D02*
X56940476Y-64833333D01*
X56988095Y-64785714D01*
X57035714Y-64690476D01*
X57035714Y-64642857D01*
X56988095Y-64547619D01*
X56940476Y-64500000D01*
X56845238Y-64452381D01*
X56654761Y-64452381D01*
X56559523Y-64500000D01*
X56511904Y-64547619D01*
X56464285Y-64642857D01*
X56464285Y-64690476D01*
X56511904Y-64785714D01*
X56559523Y-64833333D01*
X56654761Y-64880952D01*
X56845238Y-64880952D01*
X56940476Y-64928571D01*
X56988095Y-64976190D01*
X57035714Y-65071429D01*
X57035714Y-65261905D01*
X56988095Y-65357143D01*
X56940476Y-65404762D01*
X56845238Y-65452381D01*
X56654761Y-65452381D01*
X56559523Y-65404762D01*
X56511904Y-65357143D01*
X56464285Y-65261905D01*
X56464285Y-65071429D01*
X56511904Y-64976190D01*
X56559523Y-64928571D01*
X56654761Y-64880952D01*
X43416666Y-52857143D02*
X43464285Y-52904762D01*
X43607142Y-52952381D01*
X43702380Y-52952381D01*
X43845238Y-52904762D01*
X43940476Y-52809524D01*
X43988095Y-52714286D01*
X44035714Y-52523810D01*
X44035714Y-52380952D01*
X43988095Y-52190476D01*
X43940476Y-52095238D01*
X43845238Y-52000000D01*
X43702380Y-51952381D01*
X43607142Y-51952381D01*
X43464285Y-52000000D01*
X43416666Y-52047619D01*
X42940476Y-52952381D02*
X42750000Y-52952381D01*
X42654761Y-52904762D01*
X42607142Y-52857143D01*
X42511904Y-52714286D01*
X42464285Y-52523810D01*
X42464285Y-52142857D01*
X42511904Y-52047619D01*
X42559523Y-52000000D01*
X42654761Y-51952381D01*
X42845238Y-51952381D01*
X42940476Y-52000000D01*
X42988095Y-52047619D01*
X43035714Y-52142857D01*
X43035714Y-52380952D01*
X42988095Y-52476190D01*
X42940476Y-52523810D01*
X42845238Y-52571429D01*
X42654761Y-52571429D01*
X42559523Y-52523810D01*
X42511904Y-52476190D01*
X42464285Y-52380952D01*
X48642857Y-73607143D02*
X48690476Y-73654762D01*
X48833333Y-73702381D01*
X48928571Y-73702381D01*
X49071429Y-73654762D01*
X49166667Y-73559524D01*
X49214286Y-73464286D01*
X49261905Y-73273810D01*
X49261905Y-73130952D01*
X49214286Y-72940476D01*
X49166667Y-72845238D01*
X49071429Y-72750000D01*
X48928571Y-72702381D01*
X48833333Y-72702381D01*
X48690476Y-72750000D01*
X48642857Y-72797619D01*
X47690476Y-73702381D02*
X48261905Y-73702381D01*
X47976191Y-73702381D02*
X47976191Y-72702381D01*
X48071429Y-72845238D01*
X48166667Y-72940476D01*
X48261905Y-72988095D01*
X47071429Y-72702381D02*
X46976190Y-72702381D01*
X46880952Y-72750000D01*
X46833333Y-72797619D01*
X46785714Y-72892857D01*
X46738095Y-73083333D01*
X46738095Y-73321429D01*
X46785714Y-73511905D01*
X46833333Y-73607143D01*
X46880952Y-73654762D01*
X46976190Y-73702381D01*
X47071429Y-73702381D01*
X47166667Y-73654762D01*
X47214286Y-73607143D01*
X47261905Y-73511905D01*
X47309524Y-73321429D01*
X47309524Y-73083333D01*
X47261905Y-72892857D01*
X47214286Y-72797619D01*
X47166667Y-72750000D01*
X47071429Y-72702381D01*
X48642857Y-75107143D02*
X48690476Y-75154762D01*
X48833333Y-75202381D01*
X48928571Y-75202381D01*
X49071429Y-75154762D01*
X49166667Y-75059524D01*
X49214286Y-74964286D01*
X49261905Y-74773810D01*
X49261905Y-74630952D01*
X49214286Y-74440476D01*
X49166667Y-74345238D01*
X49071429Y-74250000D01*
X48928571Y-74202381D01*
X48833333Y-74202381D01*
X48690476Y-74250000D01*
X48642857Y-74297619D01*
X47690476Y-75202381D02*
X48261905Y-75202381D01*
X47976191Y-75202381D02*
X47976191Y-74202381D01*
X48071429Y-74345238D01*
X48166667Y-74440476D01*
X48261905Y-74488095D01*
X46738095Y-75202381D02*
X47309524Y-75202381D01*
X47023810Y-75202381D02*
X47023810Y-74202381D01*
X47119048Y-74345238D01*
X47214286Y-74440476D01*
X47309524Y-74488095D01*
X60607143Y-75857143D02*
X60654762Y-75809524D01*
X60702381Y-75666667D01*
X60702381Y-75571429D01*
X60654762Y-75428571D01*
X60559524Y-75333333D01*
X60464286Y-75285714D01*
X60273810Y-75238095D01*
X60130952Y-75238095D01*
X59940476Y-75285714D01*
X59845238Y-75333333D01*
X59750000Y-75428571D01*
X59702381Y-75571429D01*
X59702381Y-75666667D01*
X59750000Y-75809524D01*
X59797619Y-75857143D01*
X60702381Y-76809524D02*
X60702381Y-76238095D01*
X60702381Y-76523809D02*
X59702381Y-76523809D01*
X59845238Y-76428571D01*
X59940476Y-76333333D01*
X59988095Y-76238095D01*
X59797619Y-77190476D02*
X59750000Y-77238095D01*
X59702381Y-77333333D01*
X59702381Y-77571429D01*
X59750000Y-77666667D01*
X59797619Y-77714286D01*
X59892857Y-77761905D01*
X59988095Y-77761905D01*
X60130952Y-77714286D01*
X60702381Y-77142857D01*
X60702381Y-77761905D01*
X39328571Y-35866667D02*
X39328571Y-35533333D01*
X39852381Y-35533333D02*
X38852381Y-35533333D01*
X38852381Y-36009524D01*
X39852381Y-36914286D02*
X39852381Y-36342857D01*
X39852381Y-36628571D02*
X38852381Y-36628571D01*
X38995238Y-36533333D01*
X39090476Y-36438095D01*
X39138095Y-36342857D01*
X69861905Y-60104762D02*
X69719048Y-60152381D01*
X69480952Y-60152381D01*
X69385714Y-60104762D01*
X69338095Y-60057143D01*
X69290476Y-59961905D01*
X69290476Y-59866667D01*
X69338095Y-59771429D01*
X69385714Y-59723810D01*
X69480952Y-59676190D01*
X69671429Y-59628571D01*
X69766667Y-59580952D01*
X69814286Y-59533333D01*
X69861905Y-59438095D01*
X69861905Y-59342857D01*
X69814286Y-59247619D01*
X69766667Y-59200000D01*
X69671429Y-59152381D01*
X69433333Y-59152381D01*
X69290476Y-59200000D01*
X68338095Y-60152381D02*
X68909524Y-60152381D01*
X68623810Y-60152381D02*
X68623810Y-59152381D01*
X68719048Y-59295238D01*
X68814286Y-59390476D01*
X68909524Y-59438095D01*
X47092857Y-56835714D02*
X48064286Y-56835714D01*
X48178571Y-56892857D01*
X48235714Y-56950000D01*
X48292857Y-57064286D01*
X48292857Y-57292857D01*
X48235714Y-57407143D01*
X48178571Y-57464286D01*
X48064286Y-57521429D01*
X47092857Y-57521429D01*
X48292857Y-58721429D02*
X48292857Y-58035714D01*
X48292857Y-58378572D02*
X47092857Y-58378572D01*
X47264286Y-58264286D01*
X47378571Y-58150000D01*
X47435714Y-58035714D01*
X59126381Y-33678905D02*
X58126381Y-33678905D01*
X58126381Y-34059858D01*
X58174000Y-34155096D01*
X58221619Y-34202715D01*
X58316857Y-34250334D01*
X58459714Y-34250334D01*
X58554952Y-34202715D01*
X58602571Y-34155096D01*
X58650190Y-34059858D01*
X58650190Y-33678905D01*
X59126381Y-35202715D02*
X59126381Y-34631286D01*
X59126381Y-34917000D02*
X58126381Y-34917000D01*
X58269238Y-34821762D01*
X58364476Y-34726524D01*
X58412095Y-34631286D01*
X56914286Y-77942857D02*
X56914286Y-78914286D01*
X56857143Y-79028571D01*
X56800000Y-79085714D01*
X56685714Y-79142857D01*
X56457143Y-79142857D01*
X56342857Y-79085714D01*
X56285714Y-79028571D01*
X56228571Y-78914286D01*
X56228571Y-77942857D01*
X55714286Y-78057143D02*
X55657143Y-78000000D01*
X55542857Y-77942857D01*
X55257143Y-77942857D01*
X55142857Y-78000000D01*
X55085714Y-78057143D01*
X55028571Y-78171429D01*
X55028571Y-78285714D01*
X55085714Y-78457143D01*
X55771428Y-79142857D01*
X55028571Y-79142857D01*
X66139191Y-53476190D02*
X66139191Y-53952381D01*
X66472524Y-52952381D02*
X66139191Y-53476190D01*
X65805857Y-52952381D01*
X64948714Y-53952381D02*
X65520143Y-53952381D01*
X65234429Y-53952381D02*
X65234429Y-52952381D01*
X65329667Y-53095238D01*
X65424905Y-53190476D01*
X65520143Y-53238095D01*
D17*
X46507143Y-66525714D02*
X46335714Y-66582857D01*
X46050000Y-66582857D01*
X45935714Y-66525714D01*
X45878571Y-66468571D01*
X45821428Y-66354286D01*
X45821428Y-66240000D01*
X45878571Y-66125714D01*
X45935714Y-66068571D01*
X46050000Y-66011429D01*
X46278571Y-65954286D01*
X46392857Y-65897143D01*
X46450000Y-65840000D01*
X46507143Y-65725714D01*
X46507143Y-65611429D01*
X46450000Y-65497143D01*
X46392857Y-65440000D01*
X46278571Y-65382857D01*
X45992857Y-65382857D01*
X45821428Y-65440000D01*
X45421428Y-65382857D02*
X45135714Y-66582857D01*
X44907143Y-65725714D01*
X44678571Y-66582857D01*
X44392857Y-65382857D01*
X44221428Y-66697143D02*
X43307142Y-66697143D01*
X42449999Y-65382857D02*
X43021428Y-65382857D01*
X43078571Y-65954286D01*
X43021428Y-65897143D01*
X42907142Y-65840000D01*
X42621428Y-65840000D01*
X42507142Y-65897143D01*
X42449999Y-65954286D01*
X42392856Y-66068571D01*
X42392856Y-66354286D01*
X42449999Y-66468571D01*
X42507142Y-66525714D01*
X42621428Y-66582857D01*
X42907142Y-66582857D01*
X43021428Y-66525714D01*
X43078571Y-66468571D01*
X84607143Y-47475714D02*
X84435714Y-47532857D01*
X84150000Y-47532857D01*
X84035714Y-47475714D01*
X83978571Y-47418571D01*
X83921428Y-47304286D01*
X83921428Y-47190000D01*
X83978571Y-47075714D01*
X84035714Y-47018571D01*
X84150000Y-46961429D01*
X84378571Y-46904286D01*
X84492857Y-46847143D01*
X84550000Y-46790000D01*
X84607143Y-46675714D01*
X84607143Y-46561429D01*
X84550000Y-46447143D01*
X84492857Y-46390000D01*
X84378571Y-46332857D01*
X84092857Y-46332857D01*
X83921428Y-46390000D01*
X83521428Y-46332857D02*
X83235714Y-47532857D01*
X83007143Y-46675714D01*
X82778571Y-47532857D01*
X82492857Y-46332857D01*
X82321428Y-47647143D02*
X81407142Y-47647143D01*
X81235713Y-46332857D02*
X80492856Y-46332857D01*
X80892856Y-46790000D01*
X80721428Y-46790000D01*
X80607142Y-46847143D01*
X80549999Y-46904286D01*
X80492856Y-47018571D01*
X80492856Y-47304286D01*
X80549999Y-47418571D01*
X80607142Y-47475714D01*
X80721428Y-47532857D01*
X81064285Y-47532857D01*
X81178571Y-47475714D01*
X81235713Y-47418571D01*
X103657143Y-47475714D02*
X103485714Y-47532857D01*
X103200000Y-47532857D01*
X103085714Y-47475714D01*
X103028571Y-47418571D01*
X102971428Y-47304286D01*
X102971428Y-47190000D01*
X103028571Y-47075714D01*
X103085714Y-47018571D01*
X103200000Y-46961429D01*
X103428571Y-46904286D01*
X103542857Y-46847143D01*
X103600000Y-46790000D01*
X103657143Y-46675714D01*
X103657143Y-46561429D01*
X103600000Y-46447143D01*
X103542857Y-46390000D01*
X103428571Y-46332857D01*
X103142857Y-46332857D01*
X102971428Y-46390000D01*
X102571428Y-46332857D02*
X102285714Y-47532857D01*
X102057143Y-46675714D01*
X101828571Y-47532857D01*
X101542857Y-46332857D01*
X101371428Y-47647143D02*
X100457142Y-47647143D01*
X99657142Y-46732857D02*
X99657142Y-47532857D01*
X99942856Y-46275714D02*
X100228571Y-47132857D01*
X99485713Y-47132857D01*
X85178572Y-123675714D02*
X85007143Y-123732857D01*
X84721429Y-123732857D01*
X84607143Y-123675714D01*
X84550000Y-123618571D01*
X84492857Y-123504286D01*
X84492857Y-123390000D01*
X84550000Y-123275714D01*
X84607143Y-123218571D01*
X84721429Y-123161429D01*
X84950000Y-123104286D01*
X85064286Y-123047143D01*
X85121429Y-122990000D01*
X85178572Y-122875714D01*
X85178572Y-122761429D01*
X85121429Y-122647143D01*
X85064286Y-122590000D01*
X84950000Y-122532857D01*
X84664286Y-122532857D01*
X84492857Y-122590000D01*
X84092857Y-122532857D02*
X83807143Y-123732857D01*
X83578572Y-122875714D01*
X83350000Y-123732857D01*
X83064286Y-122532857D01*
X82892857Y-123847143D02*
X81978571Y-123847143D01*
X81064285Y-123732857D02*
X81750000Y-123732857D01*
X81407142Y-123732857D02*
X81407142Y-122532857D01*
X81521428Y-122704286D01*
X81635714Y-122818571D01*
X81750000Y-122875714D01*
X80664285Y-122532857D02*
X79864285Y-122532857D01*
X80378571Y-123732857D01*
X56603572Y-123675714D02*
X56432143Y-123732857D01*
X56146429Y-123732857D01*
X56032143Y-123675714D01*
X55975000Y-123618571D01*
X55917857Y-123504286D01*
X55917857Y-123390000D01*
X55975000Y-123275714D01*
X56032143Y-123218571D01*
X56146429Y-123161429D01*
X56375000Y-123104286D01*
X56489286Y-123047143D01*
X56546429Y-122990000D01*
X56603572Y-122875714D01*
X56603572Y-122761429D01*
X56546429Y-122647143D01*
X56489286Y-122590000D01*
X56375000Y-122532857D01*
X56089286Y-122532857D01*
X55917857Y-122590000D01*
X55517857Y-122532857D02*
X55232143Y-123732857D01*
X55003572Y-122875714D01*
X54775000Y-123732857D01*
X54489286Y-122532857D01*
X54317857Y-123847143D02*
X53403571Y-123847143D01*
X52489285Y-123732857D02*
X53175000Y-123732857D01*
X52832142Y-123732857D02*
X52832142Y-122532857D01*
X52946428Y-122704286D01*
X53060714Y-122818571D01*
X53175000Y-122875714D01*
X51460714Y-122532857D02*
X51689285Y-122532857D01*
X51803571Y-122590000D01*
X51860714Y-122647143D01*
X51975000Y-122818571D01*
X52032143Y-123047143D01*
X52032143Y-123504286D01*
X51975000Y-123618571D01*
X51917857Y-123675714D01*
X51803571Y-123732857D01*
X51575000Y-123732857D01*
X51460714Y-123675714D01*
X51403571Y-123618571D01*
X51346428Y-123504286D01*
X51346428Y-123218571D01*
X51403571Y-123104286D01*
X51460714Y-123047143D01*
X51575000Y-122990000D01*
X51803571Y-122990000D01*
X51917857Y-123047143D01*
X51975000Y-123104286D01*
X52032143Y-123218571D01*
X104625714Y-108496428D02*
X104682857Y-108667857D01*
X104682857Y-108953571D01*
X104625714Y-109067857D01*
X104568571Y-109125000D01*
X104454286Y-109182143D01*
X104340000Y-109182143D01*
X104225714Y-109125000D01*
X104168571Y-109067857D01*
X104111429Y-108953571D01*
X104054286Y-108725000D01*
X103997143Y-108610714D01*
X103940000Y-108553571D01*
X103825714Y-108496428D01*
X103711429Y-108496428D01*
X103597143Y-108553571D01*
X103540000Y-108610714D01*
X103482857Y-108725000D01*
X103482857Y-109010714D01*
X103540000Y-109182143D01*
X103482857Y-109582143D02*
X104682857Y-109867857D01*
X103825714Y-110096428D01*
X104682857Y-110325000D01*
X103482857Y-110610714D01*
X104797143Y-110782143D02*
X104797143Y-111696429D01*
X104682857Y-112610715D02*
X104682857Y-111925000D01*
X104682857Y-112267858D02*
X103482857Y-112267858D01*
X103654286Y-112153572D01*
X103768571Y-112039286D01*
X103825714Y-111925000D01*
X103482857Y-113696429D02*
X103482857Y-113125000D01*
X104054286Y-113067857D01*
X103997143Y-113125000D01*
X103940000Y-113239286D01*
X103940000Y-113525000D01*
X103997143Y-113639286D01*
X104054286Y-113696429D01*
X104168571Y-113753572D01*
X104454286Y-113753572D01*
X104568571Y-113696429D01*
X104625714Y-113639286D01*
X104682857Y-113525000D01*
X104682857Y-113239286D01*
X104625714Y-113125000D01*
X104568571Y-113067857D01*
X85178572Y-104625714D02*
X85007143Y-104682857D01*
X84721429Y-104682857D01*
X84607143Y-104625714D01*
X84550000Y-104568571D01*
X84492857Y-104454286D01*
X84492857Y-104340000D01*
X84550000Y-104225714D01*
X84607143Y-104168571D01*
X84721429Y-104111429D01*
X84950000Y-104054286D01*
X85064286Y-103997143D01*
X85121429Y-103940000D01*
X85178572Y-103825714D01*
X85178572Y-103711429D01*
X85121429Y-103597143D01*
X85064286Y-103540000D01*
X84950000Y-103482857D01*
X84664286Y-103482857D01*
X84492857Y-103540000D01*
X84092857Y-103482857D02*
X83807143Y-104682857D01*
X83578572Y-103825714D01*
X83350000Y-104682857D01*
X83064286Y-103482857D01*
X82892857Y-104797143D02*
X81978571Y-104797143D01*
X81064285Y-104682857D02*
X81750000Y-104682857D01*
X81407142Y-104682857D02*
X81407142Y-103482857D01*
X81521428Y-103654286D01*
X81635714Y-103768571D01*
X81750000Y-103825714D01*
X80035714Y-103882857D02*
X80035714Y-104682857D01*
X80321428Y-103425714D02*
X80607143Y-104282857D01*
X79864285Y-104282857D01*
X66128572Y-104625714D02*
X65957143Y-104682857D01*
X65671429Y-104682857D01*
X65557143Y-104625714D01*
X65500000Y-104568571D01*
X65442857Y-104454286D01*
X65442857Y-104340000D01*
X65500000Y-104225714D01*
X65557143Y-104168571D01*
X65671429Y-104111429D01*
X65900000Y-104054286D01*
X66014286Y-103997143D01*
X66071429Y-103940000D01*
X66128572Y-103825714D01*
X66128572Y-103711429D01*
X66071429Y-103597143D01*
X66014286Y-103540000D01*
X65900000Y-103482857D01*
X65614286Y-103482857D01*
X65442857Y-103540000D01*
X65042857Y-103482857D02*
X64757143Y-104682857D01*
X64528572Y-103825714D01*
X64300000Y-104682857D01*
X64014286Y-103482857D01*
X63842857Y-104797143D02*
X62928571Y-104797143D01*
X62014285Y-104682857D02*
X62700000Y-104682857D01*
X62357142Y-104682857D02*
X62357142Y-103482857D01*
X62471428Y-103654286D01*
X62585714Y-103768571D01*
X62700000Y-103825714D01*
X61614285Y-103482857D02*
X60871428Y-103482857D01*
X61271428Y-103940000D01*
X61100000Y-103940000D01*
X60985714Y-103997143D01*
X60928571Y-104054286D01*
X60871428Y-104168571D01*
X60871428Y-104454286D01*
X60928571Y-104568571D01*
X60985714Y-104625714D01*
X61100000Y-104682857D01*
X61442857Y-104682857D01*
X61557143Y-104625714D01*
X61614285Y-104568571D01*
X47078572Y-104625714D02*
X46907143Y-104682857D01*
X46621429Y-104682857D01*
X46507143Y-104625714D01*
X46450000Y-104568571D01*
X46392857Y-104454286D01*
X46392857Y-104340000D01*
X46450000Y-104225714D01*
X46507143Y-104168571D01*
X46621429Y-104111429D01*
X46850000Y-104054286D01*
X46964286Y-103997143D01*
X47021429Y-103940000D01*
X47078572Y-103825714D01*
X47078572Y-103711429D01*
X47021429Y-103597143D01*
X46964286Y-103540000D01*
X46850000Y-103482857D01*
X46564286Y-103482857D01*
X46392857Y-103540000D01*
X45992857Y-103482857D02*
X45707143Y-104682857D01*
X45478572Y-103825714D01*
X45250000Y-104682857D01*
X44964286Y-103482857D01*
X44792857Y-104797143D02*
X43878571Y-104797143D01*
X42964285Y-104682857D02*
X43650000Y-104682857D01*
X43307142Y-104682857D02*
X43307142Y-103482857D01*
X43421428Y-103654286D01*
X43535714Y-103768571D01*
X43650000Y-103825714D01*
X42507143Y-103597143D02*
X42450000Y-103540000D01*
X42335714Y-103482857D01*
X42050000Y-103482857D01*
X41935714Y-103540000D01*
X41878571Y-103597143D01*
X41821428Y-103711429D01*
X41821428Y-103825714D01*
X41878571Y-103997143D01*
X42564285Y-104682857D01*
X41821428Y-104682857D01*
X85178572Y-85575714D02*
X85007143Y-85632857D01*
X84721429Y-85632857D01*
X84607143Y-85575714D01*
X84550000Y-85518571D01*
X84492857Y-85404286D01*
X84492857Y-85290000D01*
X84550000Y-85175714D01*
X84607143Y-85118571D01*
X84721429Y-85061429D01*
X84950000Y-85004286D01*
X85064286Y-84947143D01*
X85121429Y-84890000D01*
X85178572Y-84775714D01*
X85178572Y-84661429D01*
X85121429Y-84547143D01*
X85064286Y-84490000D01*
X84950000Y-84432857D01*
X84664286Y-84432857D01*
X84492857Y-84490000D01*
X84092857Y-84432857D02*
X83807143Y-85632857D01*
X83578572Y-84775714D01*
X83350000Y-85632857D01*
X83064286Y-84432857D01*
X82892857Y-85747143D02*
X81978571Y-85747143D01*
X81064285Y-85632857D02*
X81750000Y-85632857D01*
X81407142Y-85632857D02*
X81407142Y-84432857D01*
X81521428Y-84604286D01*
X81635714Y-84718571D01*
X81750000Y-84775714D01*
X79921428Y-85632857D02*
X80607143Y-85632857D01*
X80264285Y-85632857D02*
X80264285Y-84432857D01*
X80378571Y-84604286D01*
X80492857Y-84718571D01*
X80607143Y-84775714D01*
X66128572Y-85575714D02*
X65957143Y-85632857D01*
X65671429Y-85632857D01*
X65557143Y-85575714D01*
X65500000Y-85518571D01*
X65442857Y-85404286D01*
X65442857Y-85290000D01*
X65500000Y-85175714D01*
X65557143Y-85118571D01*
X65671429Y-85061429D01*
X65900000Y-85004286D01*
X66014286Y-84947143D01*
X66071429Y-84890000D01*
X66128572Y-84775714D01*
X66128572Y-84661429D01*
X66071429Y-84547143D01*
X66014286Y-84490000D01*
X65900000Y-84432857D01*
X65614286Y-84432857D01*
X65442857Y-84490000D01*
X65042857Y-84432857D02*
X64757143Y-85632857D01*
X64528572Y-84775714D01*
X64300000Y-85632857D01*
X64014286Y-84432857D01*
X63842857Y-85747143D02*
X62928571Y-85747143D01*
X62014285Y-85632857D02*
X62700000Y-85632857D01*
X62357142Y-85632857D02*
X62357142Y-84432857D01*
X62471428Y-84604286D01*
X62585714Y-84718571D01*
X62700000Y-84775714D01*
X61271428Y-84432857D02*
X61157143Y-84432857D01*
X61042857Y-84490000D01*
X60985714Y-84547143D01*
X60928571Y-84661429D01*
X60871428Y-84890000D01*
X60871428Y-85175714D01*
X60928571Y-85404286D01*
X60985714Y-85518571D01*
X61042857Y-85575714D01*
X61157143Y-85632857D01*
X61271428Y-85632857D01*
X61385714Y-85575714D01*
X61442857Y-85518571D01*
X61500000Y-85404286D01*
X61557143Y-85175714D01*
X61557143Y-84890000D01*
X61500000Y-84661429D01*
X61442857Y-84547143D01*
X61385714Y-84490000D01*
X61271428Y-84432857D01*
X46507143Y-85575714D02*
X46335714Y-85632857D01*
X46050000Y-85632857D01*
X45935714Y-85575714D01*
X45878571Y-85518571D01*
X45821428Y-85404286D01*
X45821428Y-85290000D01*
X45878571Y-85175714D01*
X45935714Y-85118571D01*
X46050000Y-85061429D01*
X46278571Y-85004286D01*
X46392857Y-84947143D01*
X46450000Y-84890000D01*
X46507143Y-84775714D01*
X46507143Y-84661429D01*
X46450000Y-84547143D01*
X46392857Y-84490000D01*
X46278571Y-84432857D01*
X45992857Y-84432857D01*
X45821428Y-84490000D01*
X45421428Y-84432857D02*
X45135714Y-85632857D01*
X44907143Y-84775714D01*
X44678571Y-85632857D01*
X44392857Y-84432857D01*
X44221428Y-85747143D02*
X43307142Y-85747143D01*
X42964285Y-85632857D02*
X42735713Y-85632857D01*
X42621428Y-85575714D01*
X42564285Y-85518571D01*
X42449999Y-85347143D01*
X42392856Y-85118571D01*
X42392856Y-84661429D01*
X42449999Y-84547143D01*
X42507142Y-84490000D01*
X42621428Y-84432857D01*
X42849999Y-84432857D01*
X42964285Y-84490000D01*
X43021428Y-84547143D01*
X43078571Y-84661429D01*
X43078571Y-84947143D01*
X43021428Y-85061429D01*
X42964285Y-85118571D01*
X42849999Y-85175714D01*
X42621428Y-85175714D01*
X42507142Y-85118571D01*
X42449999Y-85061429D01*
X42392856Y-84947143D01*
X104625714Y-70967857D02*
X104682857Y-71139286D01*
X104682857Y-71425000D01*
X104625714Y-71539286D01*
X104568571Y-71596429D01*
X104454286Y-71653572D01*
X104340000Y-71653572D01*
X104225714Y-71596429D01*
X104168571Y-71539286D01*
X104111429Y-71425000D01*
X104054286Y-71196429D01*
X103997143Y-71082143D01*
X103940000Y-71025000D01*
X103825714Y-70967857D01*
X103711429Y-70967857D01*
X103597143Y-71025000D01*
X103540000Y-71082143D01*
X103482857Y-71196429D01*
X103482857Y-71482143D01*
X103540000Y-71653572D01*
X103482857Y-72053572D02*
X104682857Y-72339286D01*
X103825714Y-72567857D01*
X104682857Y-72796429D01*
X103482857Y-73082143D01*
X104797143Y-73253572D02*
X104797143Y-74167858D01*
X103997143Y-74625001D02*
X103940000Y-74510715D01*
X103882857Y-74453572D01*
X103768571Y-74396429D01*
X103711429Y-74396429D01*
X103597143Y-74453572D01*
X103540000Y-74510715D01*
X103482857Y-74625001D01*
X103482857Y-74853572D01*
X103540000Y-74967858D01*
X103597143Y-75025001D01*
X103711429Y-75082144D01*
X103768571Y-75082144D01*
X103882857Y-75025001D01*
X103940000Y-74967858D01*
X103997143Y-74853572D01*
X103997143Y-74625001D01*
X104054286Y-74510715D01*
X104111429Y-74453572D01*
X104225714Y-74396429D01*
X104454286Y-74396429D01*
X104568571Y-74453572D01*
X104625714Y-74510715D01*
X104682857Y-74625001D01*
X104682857Y-74853572D01*
X104625714Y-74967858D01*
X104568571Y-75025001D01*
X104454286Y-75082144D01*
X104225714Y-75082144D01*
X104111429Y-75025001D01*
X104054286Y-74967858D01*
X103997143Y-74853572D01*
X65557143Y-66525714D02*
X65385714Y-66582857D01*
X65100000Y-66582857D01*
X64985714Y-66525714D01*
X64928571Y-66468571D01*
X64871428Y-66354286D01*
X64871428Y-66240000D01*
X64928571Y-66125714D01*
X64985714Y-66068571D01*
X65100000Y-66011429D01*
X65328571Y-65954286D01*
X65442857Y-65897143D01*
X65500000Y-65840000D01*
X65557143Y-65725714D01*
X65557143Y-65611429D01*
X65500000Y-65497143D01*
X65442857Y-65440000D01*
X65328571Y-65382857D01*
X65042857Y-65382857D01*
X64871428Y-65440000D01*
X64471428Y-65382857D02*
X64185714Y-66582857D01*
X63957143Y-65725714D01*
X63728571Y-66582857D01*
X63442857Y-65382857D01*
X63271428Y-66697143D02*
X62357142Y-66697143D01*
X61557142Y-65382857D02*
X61785713Y-65382857D01*
X61899999Y-65440000D01*
X61957142Y-65497143D01*
X62071428Y-65668571D01*
X62128571Y-65897143D01*
X62128571Y-66354286D01*
X62071428Y-66468571D01*
X62014285Y-66525714D01*
X61899999Y-66582857D01*
X61671428Y-66582857D01*
X61557142Y-66525714D01*
X61499999Y-66468571D01*
X61442856Y-66354286D01*
X61442856Y-66068571D01*
X61499999Y-65954286D01*
X61557142Y-65897143D01*
X61671428Y-65840000D01*
X61899999Y-65840000D01*
X62014285Y-65897143D01*
X62071428Y-65954286D01*
X62128571Y-66068571D01*
X65557143Y-47475714D02*
X65385714Y-47532857D01*
X65100000Y-47532857D01*
X64985714Y-47475714D01*
X64928571Y-47418571D01*
X64871428Y-47304286D01*
X64871428Y-47190000D01*
X64928571Y-47075714D01*
X64985714Y-47018571D01*
X65100000Y-46961429D01*
X65328571Y-46904286D01*
X65442857Y-46847143D01*
X65500000Y-46790000D01*
X65557143Y-46675714D01*
X65557143Y-46561429D01*
X65500000Y-46447143D01*
X65442857Y-46390000D01*
X65328571Y-46332857D01*
X65042857Y-46332857D01*
X64871428Y-46390000D01*
X64471428Y-46332857D02*
X64185714Y-47532857D01*
X63957143Y-46675714D01*
X63728571Y-47532857D01*
X63442857Y-46332857D01*
X63271428Y-47647143D02*
X62357142Y-47647143D01*
X62128571Y-46447143D02*
X62071428Y-46390000D01*
X61957142Y-46332857D01*
X61671428Y-46332857D01*
X61557142Y-46390000D01*
X61499999Y-46447143D01*
X61442856Y-46561429D01*
X61442856Y-46675714D01*
X61499999Y-46847143D01*
X62185713Y-47532857D01*
X61442856Y-47532857D01*
X46507143Y-47475714D02*
X46335714Y-47532857D01*
X46050000Y-47532857D01*
X45935714Y-47475714D01*
X45878571Y-47418571D01*
X45821428Y-47304286D01*
X45821428Y-47190000D01*
X45878571Y-47075714D01*
X45935714Y-47018571D01*
X46050000Y-46961429D01*
X46278571Y-46904286D01*
X46392857Y-46847143D01*
X46450000Y-46790000D01*
X46507143Y-46675714D01*
X46507143Y-46561429D01*
X46450000Y-46447143D01*
X46392857Y-46390000D01*
X46278571Y-46332857D01*
X45992857Y-46332857D01*
X45821428Y-46390000D01*
X45421428Y-46332857D02*
X45135714Y-47532857D01*
X44907143Y-46675714D01*
X44678571Y-47532857D01*
X44392857Y-46332857D01*
X44221428Y-47647143D02*
X43307142Y-47647143D01*
X42392856Y-47532857D02*
X43078571Y-47532857D01*
X42735713Y-47532857D02*
X42735713Y-46332857D01*
X42849999Y-46504286D01*
X42964285Y-46618571D01*
X43078571Y-46675714D01*
X84607143Y-66525714D02*
X84435714Y-66582857D01*
X84150000Y-66582857D01*
X84035714Y-66525714D01*
X83978571Y-66468571D01*
X83921428Y-66354286D01*
X83921428Y-66240000D01*
X83978571Y-66125714D01*
X84035714Y-66068571D01*
X84150000Y-66011429D01*
X84378571Y-65954286D01*
X84492857Y-65897143D01*
X84550000Y-65840000D01*
X84607143Y-65725714D01*
X84607143Y-65611429D01*
X84550000Y-65497143D01*
X84492857Y-65440000D01*
X84378571Y-65382857D01*
X84092857Y-65382857D01*
X83921428Y-65440000D01*
X83521428Y-65382857D02*
X83235714Y-66582857D01*
X83007143Y-65725714D01*
X82778571Y-66582857D01*
X82492857Y-65382857D01*
X82321428Y-66697143D02*
X81407142Y-66697143D01*
X81235713Y-65382857D02*
X80435713Y-65382857D01*
X80949999Y-66582857D01*
D10*
X56452381Y-48365334D02*
X55976190Y-48032000D01*
X56452381Y-47793905D02*
X55452381Y-47793905D01*
X55452381Y-48174858D01*
X55500000Y-48270096D01*
X55547619Y-48317715D01*
X55642857Y-48365334D01*
X55785714Y-48365334D01*
X55880952Y-48317715D01*
X55928571Y-48270096D01*
X55976190Y-48174858D01*
X55976190Y-47793905D01*
X55452381Y-49270096D02*
X55452381Y-48793905D01*
X55928571Y-48746286D01*
X55880952Y-48793905D01*
X55833333Y-48889143D01*
X55833333Y-49127239D01*
X55880952Y-49222477D01*
X55928571Y-49270096D01*
X56023810Y-49317715D01*
X56261905Y-49317715D01*
X56357143Y-49270096D01*
X56404762Y-49222477D01*
X56452381Y-49127239D01*
X56452381Y-48889143D01*
X56404762Y-48793905D01*
X56357143Y-48746286D01*
X73198666Y-52952381D02*
X73532000Y-52476190D01*
X73770095Y-52952381D02*
X73770095Y-51952381D01*
X73389142Y-51952381D01*
X73293904Y-52000000D01*
X73246285Y-52047619D01*
X73198666Y-52142857D01*
X73198666Y-52285714D01*
X73246285Y-52380952D01*
X73293904Y-52428571D01*
X73389142Y-52476190D01*
X73770095Y-52476190D01*
X72246285Y-52952381D02*
X72817714Y-52952381D01*
X72532000Y-52952381D02*
X72532000Y-51952381D01*
X72627238Y-52095238D01*
X72722476Y-52190476D01*
X72817714Y-52238095D01*
X64702381Y-71751334D02*
X64226190Y-71418000D01*
X64702381Y-71179905D02*
X63702381Y-71179905D01*
X63702381Y-71560858D01*
X63750000Y-71656096D01*
X63797619Y-71703715D01*
X63892857Y-71751334D01*
X64035714Y-71751334D01*
X64130952Y-71703715D01*
X64178571Y-71656096D01*
X64226190Y-71560858D01*
X64226190Y-71179905D01*
X63797619Y-72132286D02*
X63750000Y-72179905D01*
X63702381Y-72275143D01*
X63702381Y-72513239D01*
X63750000Y-72608477D01*
X63797619Y-72656096D01*
X63892857Y-72703715D01*
X63988095Y-72703715D01*
X64130952Y-72656096D01*
X64702381Y-72084667D01*
X64702381Y-72703715D01*
X63202381Y-71751334D02*
X62726190Y-71418000D01*
X63202381Y-71179905D02*
X62202381Y-71179905D01*
X62202381Y-71560858D01*
X62250000Y-71656096D01*
X62297619Y-71703715D01*
X62392857Y-71751334D01*
X62535714Y-71751334D01*
X62630952Y-71703715D01*
X62678571Y-71656096D01*
X62726190Y-71560858D01*
X62726190Y-71179905D01*
X62202381Y-72084667D02*
X62202381Y-72703715D01*
X62583333Y-72370381D01*
X62583333Y-72513239D01*
X62630952Y-72608477D01*
X62678571Y-72656096D01*
X62773810Y-72703715D01*
X63011905Y-72703715D01*
X63107143Y-72656096D01*
X63154762Y-72608477D01*
X63202381Y-72513239D01*
X63202381Y-72227524D01*
X63154762Y-72132286D01*
X63107143Y-72084667D01*
X54952381Y-48365334D02*
X54476190Y-48032000D01*
X54952381Y-47793905D02*
X53952381Y-47793905D01*
X53952381Y-48174858D01*
X54000000Y-48270096D01*
X54047619Y-48317715D01*
X54142857Y-48365334D01*
X54285714Y-48365334D01*
X54380952Y-48317715D01*
X54428571Y-48270096D01*
X54476190Y-48174858D01*
X54476190Y-47793905D01*
X54285714Y-49222477D02*
X54952381Y-49222477D01*
X53904762Y-48984381D02*
X54619048Y-48746286D01*
X54619048Y-49365334D01*
X48884666Y-76702381D02*
X49218000Y-76226190D01*
X49456095Y-76702381D02*
X49456095Y-75702381D01*
X49075142Y-75702381D01*
X48979904Y-75750000D01*
X48932285Y-75797619D01*
X48884666Y-75892857D01*
X48884666Y-76035714D01*
X48932285Y-76130952D01*
X48979904Y-76178571D01*
X49075142Y-76226190D01*
X49456095Y-76226190D01*
X48027523Y-75702381D02*
X48218000Y-75702381D01*
X48313238Y-75750000D01*
X48360857Y-75797619D01*
X48456095Y-75940476D01*
X48503714Y-76130952D01*
X48503714Y-76511905D01*
X48456095Y-76607143D01*
X48408476Y-76654762D01*
X48313238Y-76702381D01*
X48122761Y-76702381D01*
X48027523Y-76654762D01*
X47979904Y-76607143D01*
X47932285Y-76511905D01*
X47932285Y-76273810D01*
X47979904Y-76178571D01*
X48027523Y-76130952D01*
X48122761Y-76083333D01*
X48313238Y-76083333D01*
X48408476Y-76130952D01*
X48456095Y-76178571D01*
X48503714Y-76273810D01*
X48884666Y-72202381D02*
X49218000Y-71726190D01*
X49456095Y-72202381D02*
X49456095Y-71202381D01*
X49075142Y-71202381D01*
X48979904Y-71250000D01*
X48932285Y-71297619D01*
X48884666Y-71392857D01*
X48884666Y-71535714D01*
X48932285Y-71630952D01*
X48979904Y-71678571D01*
X49075142Y-71726190D01*
X49456095Y-71726190D01*
X48551333Y-71202381D02*
X47884666Y-71202381D01*
X48313238Y-72202381D01*
X94442857Y-52428572D02*
X95642857Y-53228572D01*
X94442857Y-53228572D02*
X95642857Y-52428572D01*
X95642857Y-54314286D02*
X95642857Y-53628571D01*
X95642857Y-53971429D02*
X94442857Y-53971429D01*
X94614286Y-53857143D01*
X94728571Y-53742857D01*
X94785714Y-53628571D01*
%LPC*%
D18*
X40000000Y-119000000D03*
X40000000Y-54000000D03*
D19*
X78420000Y-58490000D03*
X78420000Y-60890000D03*
X77470000Y-60890000D03*
X76520000Y-58490000D03*
X76520000Y-60890000D03*
X78420000Y-39440000D03*
X78420000Y-41840000D03*
X77470000Y-41840000D03*
X76520000Y-39440000D03*
X76520000Y-41840000D03*
X78420000Y-77540000D03*
X78420000Y-79940000D03*
X77470000Y-79940000D03*
X76520000Y-77540000D03*
X76520000Y-79940000D03*
X78420000Y-96590000D03*
X78420000Y-98990000D03*
X77470000Y-98990000D03*
X76520000Y-96590000D03*
X76520000Y-98990000D03*
X78420000Y-115640000D03*
X78420000Y-118040000D03*
X77470000Y-118040000D03*
X76520000Y-115640000D03*
X76520000Y-118040000D03*
D20*
X65750000Y-52750000D03*
X65750000Y-54250000D03*
X59750000Y-52750000D03*
X59750000Y-54250000D03*
D21*
X53750000Y-50500000D03*
X55250000Y-50500000D03*
X46500000Y-55500000D03*
X45000000Y-55500000D03*
D22*
X40900000Y-42500000D03*
X37900000Y-42500000D03*
D21*
X54000000Y-63500000D03*
X55500000Y-63500000D03*
X45000000Y-54000000D03*
X46500000Y-54000000D03*
X55500000Y-65000000D03*
X54000000Y-65000000D03*
X46500000Y-52500000D03*
X45000000Y-52500000D03*
X51500000Y-73250000D03*
X50000000Y-73250000D03*
X50000000Y-74750000D03*
X51500000Y-74750000D03*
D20*
X60250000Y-73000000D03*
X60250000Y-74500000D03*
D23*
X39400000Y-37600000D03*
X39400000Y-40600000D03*
D24*
X70400000Y-56500000D03*
X68600000Y-56500000D03*
D25*
X67975000Y-54925000D03*
X67975000Y-58075000D03*
X71025000Y-54925000D03*
X71025000Y-58075000D03*
D26*
X69500000Y-58575000D03*
X69500000Y-54425000D03*
D27*
X49750000Y-52500000D03*
X50250000Y-52500000D03*
X50750000Y-52500000D03*
X51250000Y-52500000D03*
X51750000Y-52500000D03*
X52250000Y-52500000D03*
X52750000Y-52500000D03*
X53250000Y-52500000D03*
X53750000Y-52500000D03*
X54250000Y-52500000D03*
X54750000Y-52500000D03*
X55250000Y-52500000D03*
X55750000Y-52500000D03*
X56250000Y-52500000D03*
X56750000Y-52500000D03*
X57250000Y-52500000D03*
D28*
X58000000Y-53250000D03*
X58000000Y-53750000D03*
X58000000Y-54250000D03*
X58000000Y-54750000D03*
X58000000Y-55250000D03*
X58000000Y-55750000D03*
X58000000Y-56250000D03*
X58000000Y-56750000D03*
X58000000Y-57250000D03*
X58000000Y-57750000D03*
X58000000Y-58250000D03*
X58000000Y-58750000D03*
X58000000Y-59250000D03*
X58000000Y-59750000D03*
X58000000Y-60250000D03*
X58000000Y-60750000D03*
D27*
X57250000Y-61500000D03*
X56750000Y-61500000D03*
X56250000Y-61500000D03*
X55750000Y-61500000D03*
X55250000Y-61500000D03*
X54750000Y-61500000D03*
X54250000Y-61500000D03*
X53750000Y-61500000D03*
X53250000Y-61500000D03*
X52750000Y-61500000D03*
X52250000Y-61500000D03*
X51750000Y-61500000D03*
X51250000Y-61500000D03*
X50750000Y-61500000D03*
X50250000Y-61500000D03*
X49750000Y-61500000D03*
D28*
X49000000Y-60750000D03*
X49000000Y-60250000D03*
X49000000Y-59750000D03*
X49000000Y-59250000D03*
X49000000Y-58750000D03*
X49000000Y-58250000D03*
X49000000Y-57750000D03*
X49000000Y-57250000D03*
X49000000Y-56750000D03*
X49000000Y-56250000D03*
X49000000Y-55750000D03*
X49000000Y-55250000D03*
X49000000Y-54750000D03*
X49000000Y-54250000D03*
X49000000Y-53750000D03*
X49000000Y-53250000D03*
D29*
X53500000Y-57000000D03*
D30*
X52374800Y-37104320D03*
X53174900Y-37104320D03*
X53975000Y-37104320D03*
X54775100Y-37104320D03*
X55575200Y-37104320D03*
D31*
X49524920Y-37005260D03*
X49524920Y-31506160D03*
X58425080Y-37005260D03*
X58425080Y-31506160D03*
D32*
X51775360Y-34505900D03*
X56174640Y-34505900D03*
D33*
X54000000Y-76200000D03*
X54000000Y-75800000D03*
X54000000Y-75400000D03*
X54000000Y-75000000D03*
X54000000Y-74600000D03*
X54000000Y-74200000D03*
X54000000Y-73800000D03*
D34*
X54800000Y-73000000D03*
X55200000Y-73000000D03*
X55600000Y-73000000D03*
X56000000Y-73000000D03*
X56400000Y-73000000D03*
X56800000Y-73000000D03*
X57200000Y-73000000D03*
D33*
X58000000Y-73800000D03*
X58000000Y-74200000D03*
X58000000Y-74600000D03*
X58000000Y-75000000D03*
X58000000Y-75400000D03*
X58000000Y-75800000D03*
X58000000Y-76200000D03*
D34*
X57200000Y-77000000D03*
X56800000Y-77000000D03*
X56400000Y-77000000D03*
X56000000Y-77000000D03*
X55600000Y-77000000D03*
X55200000Y-77000000D03*
X54800000Y-77000000D03*
D35*
X56000000Y-77000000D03*
D36*
X58000000Y-75000000D03*
X54000000Y-75000000D03*
D35*
X56000000Y-73000000D03*
D37*
X56000000Y-75000000D03*
D38*
X63850000Y-54350000D03*
X61650000Y-54350000D03*
X61650000Y-52650000D03*
X63850000Y-52650000D03*
D39*
X51810000Y-66040000D03*
X38360000Y-68580000D03*
D40*
X47150000Y-59145000D03*
X47150000Y-57695000D03*
X41750000Y-57695000D03*
X41750000Y-59145000D03*
D39*
X89910000Y-46990000D03*
X76460000Y-49530000D03*
D40*
X85250000Y-40095000D03*
X85250000Y-38645000D03*
X79850000Y-38645000D03*
X79850000Y-40095000D03*
D39*
X108960000Y-46990000D03*
X95510000Y-49530000D03*
D40*
X104300000Y-40095000D03*
X104300000Y-38645000D03*
X98900000Y-38645000D03*
X98900000Y-40095000D03*
D39*
X89910000Y-123190000D03*
X76460000Y-125730000D03*
D40*
X85250000Y-116295000D03*
X85250000Y-114845000D03*
X79850000Y-114845000D03*
X79850000Y-116295000D03*
D39*
X61335000Y-123190000D03*
X47885000Y-125730000D03*
D40*
X56675000Y-116295000D03*
X56675000Y-114845000D03*
X51275000Y-114845000D03*
X51275000Y-116295000D03*
D41*
X104140000Y-103765000D03*
X106680000Y-117215000D03*
D42*
X97245000Y-108425000D03*
X95795000Y-108425000D03*
X95795000Y-113825000D03*
X97245000Y-113825000D03*
D39*
X89910000Y-104140000D03*
X76460000Y-106680000D03*
D40*
X85250000Y-97245000D03*
X85250000Y-95795000D03*
X79850000Y-95795000D03*
X79850000Y-97245000D03*
D39*
X70860000Y-104140000D03*
X57410000Y-106680000D03*
D40*
X66200000Y-97245000D03*
X66200000Y-95795000D03*
X60800000Y-95795000D03*
X60800000Y-97245000D03*
D39*
X51810000Y-104140000D03*
X38360000Y-106680000D03*
D40*
X47150000Y-97245000D03*
X47150000Y-95795000D03*
X41750000Y-95795000D03*
X41750000Y-97245000D03*
D39*
X89910000Y-85090000D03*
X76460000Y-87630000D03*
D40*
X85250000Y-78195000D03*
X85250000Y-76745000D03*
X79850000Y-76745000D03*
X79850000Y-78195000D03*
D39*
X70860000Y-85090000D03*
X57410000Y-87630000D03*
D40*
X66200000Y-78195000D03*
X66200000Y-76745000D03*
X60800000Y-76745000D03*
X60800000Y-78195000D03*
D39*
X51810000Y-85090000D03*
X38360000Y-87630000D03*
D40*
X47150000Y-78195000D03*
X47150000Y-76745000D03*
X41750000Y-76745000D03*
X41750000Y-78195000D03*
D41*
X104140000Y-65665000D03*
X106680000Y-79115000D03*
D42*
X97245000Y-70325000D03*
X95795000Y-70325000D03*
X95795000Y-75725000D03*
X97245000Y-75725000D03*
D39*
X70860000Y-66040000D03*
X57410000Y-68580000D03*
D40*
X66200000Y-59145000D03*
X66200000Y-57695000D03*
X60800000Y-57695000D03*
X60800000Y-59145000D03*
D39*
X70860000Y-46990000D03*
X57410000Y-49530000D03*
D40*
X66200000Y-40095000D03*
X66200000Y-38645000D03*
X60800000Y-38645000D03*
X60800000Y-40095000D03*
D39*
X51810000Y-46990000D03*
X38360000Y-49530000D03*
D40*
X47150000Y-40095000D03*
X47150000Y-38645000D03*
X41750000Y-38645000D03*
X41750000Y-40095000D03*
D39*
X89910000Y-66040000D03*
X76460000Y-68580000D03*
D40*
X85250000Y-59145000D03*
X85250000Y-57695000D03*
X79850000Y-57695000D03*
X79850000Y-59145000D03*
D43*
X56000000Y-47250000D03*
X56000000Y-45750000D03*
D44*
X71750000Y-52500000D03*
X70250000Y-52500000D03*
D43*
X64250000Y-73200000D03*
X64250000Y-74700000D03*
X62750000Y-73200000D03*
X62750000Y-74700000D03*
X54500000Y-47250000D03*
X54500000Y-45750000D03*
D44*
X50000000Y-76250000D03*
X51500000Y-76250000D03*
X50000000Y-71750000D03*
X51500000Y-71750000D03*
D45*
X97150000Y-57600000D03*
X105850000Y-57600000D03*
D46*
X101500000Y-52850000D03*
X101500000Y-62350000D03*
M02*
