M48
;DRILL file {KiCad 4.0.6} date Saturday, January 06, 2018 'AMt' 08:46:43 AM
;FORMAT={-:-/ absolute / metric / decimal}
FMAT,2
METRIC,TZ
T1C0.300
T2C0.305
T3C0.800
T4C0.899
T5C1.000
T6C1.700
T7C2.520
T8C3.000
T9C3.048
T10C3.988
T11C4.000
%
G90
G05
M71
T1
X37.8Y-45.6
X38.Y-60.
X38.5Y-95.
X38.5Y-112.5
X39.Y-38.8
X41.Y-44.
X41.Y-124.
X44.Y-54.75
X45.Y-47.5
X45.Y-51.25
X47.25Y-51.25
X47.5Y-55.75
X48.75Y-71.75
X48.75Y-73.5
X49.Y-34.
X49.Y-96.5
X49.Y-107.25
X49.5Y-41.25
X50.25Y-50.5
X50.6Y-62.5
X51.1Y-54.6
X51.1Y-57.
X51.1Y-59.4
X51.85Y-48.9
X52.45Y-41.3
X52.5Y-63.5
X52.5Y-71.75
X52.5Y-74.75
X52.5Y-77.5
X53.Y-118.
X53.5Y-54.6
X53.5Y-57.
X53.5Y-59.4
X53.65Y-46.45
X53.75Y-92.
X54.Y-66.5
X54.15Y-43.9
X54.4Y-49.4
X54.75Y-41.25
X55.Y-126.
X55.25Y-51.5
X55.5Y-62.5
X55.65Y-75.35
X55.9Y-54.6
X55.9Y-57.
X55.9Y-59.4
X56.3Y-43.9
X56.35Y-74.65
X56.9Y-46.45
X58.25Y-41.25
X58.4Y-77.7
X58.5Y-96.
X59.Y-34.
X59.2Y-74.8
X60.4Y-52.
X61.15Y-74.05
X61.5Y-128.5
X63.4Y-70.9
X63.75Y-49.75
X65.Y-52.
X65.2Y-55.2
X66.8Y-52.8
X67.2Y-50.6
X68.2Y-70.9
X68.2Y-75.9
X70.6Y-50.6
X71.Y-112.5
X71.Y-125.
X71.25Y-43.5
X72.25Y-87.75
X73.4Y-50.6
X73.7Y-54.5
X78.Y-92.
X78.5Y-85.
X79.Y-111.5
X79.Y-123.
X79.5Y-75.
X82.Y-53.5
X86.5Y-90.5
X93.Y-111.
X95.2Y-54.3
X96.5Y-119.8
X98.Y-84.5
X101.Y-69.75
X101.5Y-55.3
X103.Y-49.
X104.Y-125.
X105.Y-52.5
X105.5Y-61.5
X108.Y-71.5
X108.Y-91.
X108.Y-108.
X108.5Y-55.5
T2
X37.6Y-37.882
X38.35Y-46.85
X38.4Y-70.6
X38.4Y-108.6
X38.608Y-90.043
X39.4Y-36.3
X39.6Y-56.2
X39.9Y-41.5
X39.944Y-71.171
X40.1Y-61.049
X40.3Y-79.2
X40.312Y-80.
X40.312Y-85.8
X41.234Y-46.499
X41.6Y-79.2
X41.6Y-98.2
X41.682Y-37.882
X41.8Y-57.
X41.8Y-94.2
X41.816Y-60.
X43.Y-56.037
X43.105Y-51.2
X43.5Y-72.6
X44.049Y-69.849
X46.7Y-42.2
X46.853Y-73.162
X47.051Y-56.949
X47.183Y-98.115
X47.2Y-94.8
X47.445Y-74.93
X47.491Y-44.
X47.6Y-62.4
X47.601Y-53.178
X48.Y-79.6
X50.8Y-48.8
X51.2Y-113.4
X51.4Y-70.035
X51.708Y-111.6
X51.81Y-86.8
X52.2Y-38.9
X52.8Y-99.2
X53.Y-70.272
X53.228Y-109.743
X53.8Y-51.4
X53.805Y-71.6
X53.805Y-72.5
X53.923Y-98.2
X54.Y-62.6
X55.028Y-79.2
X55.762Y-68.615
X55.791Y-71.709
X55.8Y-94.353
X55.943Y-65.927
X56.3Y-65.
X56.4Y-80.4
X56.6Y-51.263
X56.675Y-110.314
X56.73Y-65.927
X56.8Y-117.2
X56.962Y-71.862
X56.971Y-78.629
X57.4Y-79.8
X57.4Y-108.4
X57.404Y-89.408
X57.531Y-51.308
X57.6Y-65.6
X57.824Y-72.419
X58.198Y-62.186
X58.9Y-55.3
X58.9Y-76.6
X58.923Y-73.57
X59.2Y-113.4
X59.264Y-58.822
X59.377Y-57.537
X59.6Y-78.6
X59.753Y-60.811
X59.852Y-59.345
X60.121Y-63.34
X60.165Y-56.565
X60.2Y-42.
X60.295Y-60.239
X60.8Y-37.6
X60.8Y-79.
X60.8Y-80.371
X60.8Y-93.782
X60.8Y-99.276
X60.917Y-41.275
X61.Y-62.2
X61.4Y-111.6
X62.035Y-74.02
X63.051Y-48.033
X63.6Y-117.2
X64.59Y-65.764
X65.1Y-72.543
X65.5Y-74.4
X66.096Y-59.896
X66.2Y-76.
X66.2Y-79.8
X66.4Y-94.6
X66.6Y-98.4
X67.029Y-58.345
X67.2Y-79.4
X67.396Y-40.096
X67.556Y-60.604
X67.8Y-94.6
X68.276Y-61.175
X68.5Y-49.328
X69.25Y-67.75
X70.86Y-61.315
X70.86Y-86.8
X71.431Y-74.369
X72.2Y-73.971
X72.623Y-61.417
X73.26Y-57.741
X73.41Y-61.384
X73.7Y-58.394
X73.757Y-48.75
X74.231Y-60.812
X74.328Y-51.308
X74.4Y-71.762
X74.545Y-109.171
X74.554Y-89.98
X74.702Y-68.828
X75.184Y-89.408
X75.2Y-108.6
X75.669Y-60.41
X77.4Y-42.8
X77.978Y-51.435
X78.2Y-70.
X78.425Y-76.4
X79.Y-37.8
X79.067Y-81.1
X79.6Y-98.533
X79.8Y-79.4
X79.8Y-94.8
X79.8Y-113.2
X79.8Y-118.4
X79.9Y-41.
X82.7Y-72.828
X85.2Y-41.
X85.4Y-98.8
X85.4Y-110.314
X86.117Y-42.2
X86.4Y-77.4
X86.4Y-95.8
X86.6Y-57.8
X86.6Y-59.2
X86.7Y-36.632
X88.3Y-70.843
X89.91Y-67.788
X91.6Y-37.203
X93.6Y-41.537
X93.8Y-109.8
X93.8Y-118.
X94.8Y-57.8
X95.504Y-51.435
X95.6Y-58.8
X95.63Y-68.499
X95.8Y-78.2
X95.8Y-96.
X97.005Y-68.6
X97.4Y-76.8
X97.4Y-97.2
X97.4Y-115.2
X97.79Y-38.735
X98.6Y-94.2
X102.4Y-65.8
X104.4Y-41.6
X104.8Y-77.6
X105.2Y-42.
X105.7Y-51.3
T3
X68.6Y-56.5
X70.4Y-56.5
T4
X51.775Y-34.506
X56.175Y-34.506
T6
X39.37Y-44.45
X39.37Y-63.5
X39.37Y-82.55
X39.37Y-101.6
X48.895Y-120.65
X49.53Y-44.45
X49.53Y-63.5
X49.53Y-82.55
X49.53Y-101.6
X58.42Y-44.45
X58.42Y-63.5
X58.42Y-82.55
X58.42Y-101.6
X59.055Y-120.65
X68.58Y-44.45
X68.58Y-63.5
X68.58Y-82.55
X68.58Y-101.6
X77.47Y-44.45
X77.47Y-63.5
X77.47Y-82.55
X77.47Y-101.6
X77.47Y-120.65
X87.63Y-44.45
X87.63Y-63.5
X87.63Y-82.55
X87.63Y-101.6
X87.63Y-120.65
X96.52Y-44.45
X101.6Y-67.945
X101.6Y-78.105
X101.6Y-106.045
X101.6Y-116.205
X106.68Y-44.45
T7
X40.Y-54.
X40.Y-119.
T8
X41.91Y-49.53
X41.91Y-68.58
X41.91Y-87.63
X41.91Y-106.68
X48.26Y-46.99
X48.26Y-66.04
X48.26Y-85.09
X48.26Y-104.14
X51.435Y-125.73
X57.785Y-123.19
X60.96Y-49.53
X60.96Y-68.58
X60.96Y-87.63
X60.96Y-106.68
X67.31Y-46.99
X67.31Y-66.04
X67.31Y-85.09
X67.31Y-104.14
X80.01Y-49.53
X80.01Y-68.58
X80.01Y-87.63
X80.01Y-106.68
X80.01Y-125.73
X86.36Y-46.99
X86.36Y-66.04
X86.36Y-85.09
X86.36Y-104.14
X86.36Y-123.19
X99.06Y-49.53
X104.14Y-69.215
X104.14Y-107.315
X105.41Y-46.99
X106.68Y-75.565
X106.68Y-113.665
T9
X42.037Y-127.635
X65.913Y-127.635
X108.585Y-61.087
X108.585Y-84.963
X108.585Y-99.187
X108.585Y-123.063
T10
X42.037Y-112.395
X65.913Y-112.395
X93.345Y-61.087
X93.345Y-84.963
X93.345Y-99.187
X93.345Y-123.063
T11
X44.45Y-44.45
X44.45Y-63.5
X44.45Y-82.55
X44.45Y-101.6
X53.975Y-120.65
X63.5Y-44.45
X63.5Y-63.5
X63.5Y-82.55
X63.5Y-101.6
X82.55Y-44.45
X82.55Y-63.5
X82.55Y-82.55
X82.55Y-101.6
X82.55Y-120.65
X101.6Y-44.45
X101.6Y-73.025
X101.6Y-111.125
T5
X102.5Y-52.85G85X100.5Y-52.85
G05
X102.5Y-62.35G85X100.5Y-62.35
G05
T0
M30
