G04 #@! TF.FileFunction,Legend,Top*
%FSLAX46Y46*%
G04 Gerber Fmt 4.6, Leading zero omitted, Abs format (unit mm)*
G04 Created by KiCad (PCBNEW 4.0.6) date Saturday, January 06, 2018 'AMt' 08:46:40 AM*
%MOMM*%
%LPD*%
G01*
G04 APERTURE LIST*
%ADD10C,0.150000*%
%ADD11C,0.437500*%
%ADD12C,0.010000*%
%ADD13C,2.600000*%
%ADD14C,0.880000*%
%ADD15C,0.979160*%
%ADD16O,3.080000X1.080000*%
G04 APERTURE END LIST*
D10*
D11*
X47416667Y-60041667D02*
X46583334Y-60041667D01*
X46583334Y-58291667D01*
X48583334Y-59125000D02*
X48000001Y-59125000D01*
X48000001Y-60041667D02*
X48000001Y-58291667D01*
X48833334Y-58291667D01*
X49500001Y-60041667D02*
X49500001Y-58291667D01*
X50500001Y-60041667D02*
X49750001Y-59041667D01*
X50500001Y-58291667D02*
X49500001Y-59291667D01*
X52166667Y-60041667D02*
X51166667Y-60041667D01*
X51666667Y-60041667D02*
X51666667Y-58291667D01*
X51500001Y-58541667D01*
X51333334Y-58708333D01*
X51166667Y-58791667D01*
X52750001Y-58291667D02*
X53916668Y-58291667D01*
X53166668Y-60041667D01*
X56916668Y-60041667D02*
X56333334Y-59208333D01*
X55916668Y-60041667D02*
X55916668Y-58291667D01*
X56583334Y-58291667D01*
X56750001Y-58375000D01*
X56833334Y-58458333D01*
X56916668Y-58625000D01*
X56916668Y-58875000D01*
X56833334Y-59041667D01*
X56750001Y-59125000D01*
X56583334Y-59208333D01*
X55916668Y-59208333D01*
X58333334Y-59958333D02*
X58166668Y-60041667D01*
X57833334Y-60041667D01*
X57666668Y-59958333D01*
X57583334Y-59791667D01*
X57583334Y-59125000D01*
X57666668Y-58958333D01*
X57833334Y-58875000D01*
X58166668Y-58875000D01*
X58333334Y-58958333D01*
X58416668Y-59125000D01*
X58416668Y-59291667D01*
X57583334Y-59458333D01*
X59000001Y-58875000D02*
X59416668Y-60041667D01*
X59833334Y-58875000D01*
X61083334Y-59125000D02*
X61333334Y-59208333D01*
X61416667Y-59291667D01*
X61500001Y-59458333D01*
X61500001Y-59708333D01*
X61416667Y-59875000D01*
X61333334Y-59958333D01*
X61166667Y-60041667D01*
X60500001Y-60041667D01*
X60500001Y-58291667D01*
X61083334Y-58291667D01*
X61250001Y-58375000D01*
X61333334Y-58458333D01*
X61416667Y-58625000D01*
X61416667Y-58791667D01*
X61333334Y-58958333D01*
X61250001Y-59041667D01*
X61083334Y-59125000D01*
X60500001Y-59125000D01*
D12*
G36*
X63330496Y-52613048D02*
X63819511Y-52615233D01*
X64054869Y-53555034D01*
X64091644Y-53701970D01*
X64124538Y-53833645D01*
X64153820Y-53951216D01*
X64179758Y-54055840D01*
X64202624Y-54148671D01*
X64222684Y-54230868D01*
X64240209Y-54303585D01*
X64255467Y-54367979D01*
X64268728Y-54425207D01*
X64280261Y-54476425D01*
X64290335Y-54522788D01*
X64299219Y-54565455D01*
X64307182Y-54605579D01*
X64314493Y-54644319D01*
X64321421Y-54682830D01*
X64328236Y-54722269D01*
X64332713Y-54748834D01*
X64345677Y-54826332D01*
X64356169Y-54888759D01*
X64364535Y-54937745D01*
X64371116Y-54974915D01*
X64376258Y-55001898D01*
X64380304Y-55020321D01*
X64383598Y-55031812D01*
X64386484Y-55037997D01*
X64389306Y-55040506D01*
X64392408Y-55040965D01*
X64394429Y-55040934D01*
X64398265Y-55035145D01*
X64402880Y-55017201D01*
X64408406Y-54986238D01*
X64414975Y-54941389D01*
X64422721Y-54881790D01*
X64431776Y-54806573D01*
X64436257Y-54767884D01*
X64441299Y-54724153D01*
X64446023Y-54684131D01*
X64450656Y-54646592D01*
X64455426Y-54610311D01*
X64460560Y-54574065D01*
X64466284Y-54536630D01*
X64472825Y-54496779D01*
X64480411Y-54453291D01*
X64489267Y-54404939D01*
X64499622Y-54350501D01*
X64511702Y-54288750D01*
X64525734Y-54218464D01*
X64541945Y-54138417D01*
X64560562Y-54047385D01*
X64581811Y-53944145D01*
X64605921Y-53827471D01*
X64633117Y-53696139D01*
X64650077Y-53614300D01*
X64675121Y-53493495D01*
X64699401Y-53376437D01*
X64722672Y-53264308D01*
X64744688Y-53158285D01*
X64765204Y-53059549D01*
X64783974Y-52969278D01*
X64800754Y-52888653D01*
X64815297Y-52818852D01*
X64827359Y-52761056D01*
X64836694Y-52716443D01*
X64843056Y-52686194D01*
X64846004Y-52672383D01*
X64859433Y-52611000D01*
X65272950Y-52611000D01*
X65358439Y-52611151D01*
X65437442Y-52611586D01*
X65508456Y-52612279D01*
X65569981Y-52613200D01*
X65620517Y-52614325D01*
X65658562Y-52615624D01*
X65682615Y-52617072D01*
X65691149Y-52618575D01*
X65689433Y-52627418D01*
X65683414Y-52651643D01*
X65673348Y-52690324D01*
X65659492Y-52742535D01*
X65642101Y-52807352D01*
X65621433Y-52883848D01*
X65597742Y-52971097D01*
X65571286Y-53068173D01*
X65542321Y-53174151D01*
X65511102Y-53288105D01*
X65477887Y-53409108D01*
X65442931Y-53536237D01*
X65406491Y-53668563D01*
X65368822Y-53805162D01*
X65330181Y-53945108D01*
X65290825Y-54087476D01*
X65251010Y-54231338D01*
X65210991Y-54375770D01*
X65171025Y-54519846D01*
X65131368Y-54662639D01*
X65092277Y-54803225D01*
X65054007Y-54940677D01*
X65016816Y-55074069D01*
X64980958Y-55202476D01*
X64946691Y-55324972D01*
X64914271Y-55440631D01*
X64883954Y-55548528D01*
X64855995Y-55647735D01*
X64830652Y-55737329D01*
X64808181Y-55816383D01*
X64788838Y-55883970D01*
X64772878Y-55939166D01*
X64760559Y-55981045D01*
X64759891Y-55983280D01*
X64709535Y-56149282D01*
X64662259Y-56299751D01*
X64617601Y-56435714D01*
X64575094Y-56558196D01*
X64534274Y-56668223D01*
X64494676Y-56766820D01*
X64455835Y-56855015D01*
X64417286Y-56933831D01*
X64378565Y-57004295D01*
X64339206Y-57067432D01*
X64298745Y-57124269D01*
X64256717Y-57175831D01*
X64212657Y-57223143D01*
X64186441Y-57248617D01*
X64139080Y-57293067D01*
X63719973Y-57293067D01*
X63637390Y-57292942D01*
X63560068Y-57292585D01*
X63489634Y-57292020D01*
X63427718Y-57291272D01*
X63375948Y-57290364D01*
X63335952Y-57289322D01*
X63309360Y-57288169D01*
X63297800Y-57286931D01*
X63297449Y-57286717D01*
X63298473Y-57277751D01*
X63302366Y-57254295D01*
X63308721Y-57218471D01*
X63317131Y-57172404D01*
X63327190Y-57118216D01*
X63338491Y-57058030D01*
X63350629Y-56993971D01*
X63363196Y-56928161D01*
X63375786Y-56862723D01*
X63387993Y-56799781D01*
X63399410Y-56741457D01*
X63409631Y-56689876D01*
X63418250Y-56647161D01*
X63424859Y-56615434D01*
X63429053Y-56596819D01*
X63430288Y-56592761D01*
X63438507Y-56594052D01*
X63457857Y-56599316D01*
X63473828Y-56604180D01*
X63502803Y-56610629D01*
X63541217Y-56615631D01*
X63581582Y-56618258D01*
X63588480Y-56618407D01*
X63626294Y-56618277D01*
X63653836Y-56615734D01*
X63677735Y-56609408D01*
X63704622Y-56597930D01*
X63717232Y-56591819D01*
X63775879Y-56553638D01*
X63829434Y-56499396D01*
X63877836Y-56429201D01*
X63921024Y-56343163D01*
X63958936Y-56241388D01*
X63991510Y-56123985D01*
X63997486Y-56098161D01*
X64019273Y-56001020D01*
X63436369Y-54325060D01*
X63379752Y-54162267D01*
X63324577Y-54003605D01*
X63271107Y-53849824D01*
X63219601Y-53701676D01*
X63170320Y-53559911D01*
X63123525Y-53425281D01*
X63079477Y-53298535D01*
X63038437Y-53180426D01*
X63000666Y-53071702D01*
X62966424Y-52973116D01*
X62935973Y-52885418D01*
X62909572Y-52809360D01*
X62887484Y-52745690D01*
X62869968Y-52695162D01*
X62857286Y-52658525D01*
X62849699Y-52636529D01*
X62847473Y-52629981D01*
X62841482Y-52610862D01*
X63330496Y-52613048D01*
X63330496Y-52613048D01*
G37*
X63330496Y-52613048D02*
X63819511Y-52615233D01*
X64054869Y-53555034D01*
X64091644Y-53701970D01*
X64124538Y-53833645D01*
X64153820Y-53951216D01*
X64179758Y-54055840D01*
X64202624Y-54148671D01*
X64222684Y-54230868D01*
X64240209Y-54303585D01*
X64255467Y-54367979D01*
X64268728Y-54425207D01*
X64280261Y-54476425D01*
X64290335Y-54522788D01*
X64299219Y-54565455D01*
X64307182Y-54605579D01*
X64314493Y-54644319D01*
X64321421Y-54682830D01*
X64328236Y-54722269D01*
X64332713Y-54748834D01*
X64345677Y-54826332D01*
X64356169Y-54888759D01*
X64364535Y-54937745D01*
X64371116Y-54974915D01*
X64376258Y-55001898D01*
X64380304Y-55020321D01*
X64383598Y-55031812D01*
X64386484Y-55037997D01*
X64389306Y-55040506D01*
X64392408Y-55040965D01*
X64394429Y-55040934D01*
X64398265Y-55035145D01*
X64402880Y-55017201D01*
X64408406Y-54986238D01*
X64414975Y-54941389D01*
X64422721Y-54881790D01*
X64431776Y-54806573D01*
X64436257Y-54767884D01*
X64441299Y-54724153D01*
X64446023Y-54684131D01*
X64450656Y-54646592D01*
X64455426Y-54610311D01*
X64460560Y-54574065D01*
X64466284Y-54536630D01*
X64472825Y-54496779D01*
X64480411Y-54453291D01*
X64489267Y-54404939D01*
X64499622Y-54350501D01*
X64511702Y-54288750D01*
X64525734Y-54218464D01*
X64541945Y-54138417D01*
X64560562Y-54047385D01*
X64581811Y-53944145D01*
X64605921Y-53827471D01*
X64633117Y-53696139D01*
X64650077Y-53614300D01*
X64675121Y-53493495D01*
X64699401Y-53376437D01*
X64722672Y-53264308D01*
X64744688Y-53158285D01*
X64765204Y-53059549D01*
X64783974Y-52969278D01*
X64800754Y-52888653D01*
X64815297Y-52818852D01*
X64827359Y-52761056D01*
X64836694Y-52716443D01*
X64843056Y-52686194D01*
X64846004Y-52672383D01*
X64859433Y-52611000D01*
X65272950Y-52611000D01*
X65358439Y-52611151D01*
X65437442Y-52611586D01*
X65508456Y-52612279D01*
X65569981Y-52613200D01*
X65620517Y-52614325D01*
X65658562Y-52615624D01*
X65682615Y-52617072D01*
X65691149Y-52618575D01*
X65689433Y-52627418D01*
X65683414Y-52651643D01*
X65673348Y-52690324D01*
X65659492Y-52742535D01*
X65642101Y-52807352D01*
X65621433Y-52883848D01*
X65597742Y-52971097D01*
X65571286Y-53068173D01*
X65542321Y-53174151D01*
X65511102Y-53288105D01*
X65477887Y-53409108D01*
X65442931Y-53536237D01*
X65406491Y-53668563D01*
X65368822Y-53805162D01*
X65330181Y-53945108D01*
X65290825Y-54087476D01*
X65251010Y-54231338D01*
X65210991Y-54375770D01*
X65171025Y-54519846D01*
X65131368Y-54662639D01*
X65092277Y-54803225D01*
X65054007Y-54940677D01*
X65016816Y-55074069D01*
X64980958Y-55202476D01*
X64946691Y-55324972D01*
X64914271Y-55440631D01*
X64883954Y-55548528D01*
X64855995Y-55647735D01*
X64830652Y-55737329D01*
X64808181Y-55816383D01*
X64788838Y-55883970D01*
X64772878Y-55939166D01*
X64760559Y-55981045D01*
X64759891Y-55983280D01*
X64709535Y-56149282D01*
X64662259Y-56299751D01*
X64617601Y-56435714D01*
X64575094Y-56558196D01*
X64534274Y-56668223D01*
X64494676Y-56766820D01*
X64455835Y-56855015D01*
X64417286Y-56933831D01*
X64378565Y-57004295D01*
X64339206Y-57067432D01*
X64298745Y-57124269D01*
X64256717Y-57175831D01*
X64212657Y-57223143D01*
X64186441Y-57248617D01*
X64139080Y-57293067D01*
X63719973Y-57293067D01*
X63637390Y-57292942D01*
X63560068Y-57292585D01*
X63489634Y-57292020D01*
X63427718Y-57291272D01*
X63375948Y-57290364D01*
X63335952Y-57289322D01*
X63309360Y-57288169D01*
X63297800Y-57286931D01*
X63297449Y-57286717D01*
X63298473Y-57277751D01*
X63302366Y-57254295D01*
X63308721Y-57218471D01*
X63317131Y-57172404D01*
X63327190Y-57118216D01*
X63338491Y-57058030D01*
X63350629Y-56993971D01*
X63363196Y-56928161D01*
X63375786Y-56862723D01*
X63387993Y-56799781D01*
X63399410Y-56741457D01*
X63409631Y-56689876D01*
X63418250Y-56647161D01*
X63424859Y-56615434D01*
X63429053Y-56596819D01*
X63430288Y-56592761D01*
X63438507Y-56594052D01*
X63457857Y-56599316D01*
X63473828Y-56604180D01*
X63502803Y-56610629D01*
X63541217Y-56615631D01*
X63581582Y-56618258D01*
X63588480Y-56618407D01*
X63626294Y-56618277D01*
X63653836Y-56615734D01*
X63677735Y-56609408D01*
X63704622Y-56597930D01*
X63717232Y-56591819D01*
X63775879Y-56553638D01*
X63829434Y-56499396D01*
X63877836Y-56429201D01*
X63921024Y-56343163D01*
X63958936Y-56241388D01*
X63991510Y-56123985D01*
X63997486Y-56098161D01*
X64019273Y-56001020D01*
X63436369Y-54325060D01*
X63379752Y-54162267D01*
X63324577Y-54003605D01*
X63271107Y-53849824D01*
X63219601Y-53701676D01*
X63170320Y-53559911D01*
X63123525Y-53425281D01*
X63079477Y-53298535D01*
X63038437Y-53180426D01*
X63000666Y-53071702D01*
X62966424Y-52973116D01*
X62935973Y-52885418D01*
X62909572Y-52809360D01*
X62887484Y-52745690D01*
X62869968Y-52695162D01*
X62857286Y-52658525D01*
X62849699Y-52636529D01*
X62847473Y-52629981D01*
X62841482Y-52610862D01*
X63330496Y-52613048D01*
G36*
X49710866Y-50085616D02*
X49799755Y-50121136D01*
X49877763Y-50164598D01*
X49949940Y-50219172D01*
X50003287Y-50269308D01*
X50039099Y-50306756D01*
X50065999Y-50338352D01*
X50087827Y-50369380D01*
X50108423Y-50405127D01*
X50123992Y-50435440D01*
X50143603Y-50476646D01*
X50161793Y-50518259D01*
X50176181Y-50554655D01*
X50182938Y-50574767D01*
X50184278Y-50580033D01*
X50185536Y-50586675D01*
X50186716Y-50595225D01*
X50187820Y-50606220D01*
X50188852Y-50620191D01*
X50189814Y-50637672D01*
X50190710Y-50659198D01*
X50191543Y-50685303D01*
X50192316Y-50716519D01*
X50193032Y-50753381D01*
X50193695Y-50796422D01*
X50194307Y-50846177D01*
X50194871Y-50903179D01*
X50195391Y-50967962D01*
X50195870Y-51041059D01*
X50196311Y-51123004D01*
X50196716Y-51214332D01*
X50197090Y-51315576D01*
X50197435Y-51427269D01*
X50197754Y-51549946D01*
X50198051Y-51684140D01*
X50198328Y-51830385D01*
X50198589Y-51989215D01*
X50198837Y-52161164D01*
X50199075Y-52346764D01*
X50199306Y-52546551D01*
X50199533Y-52761058D01*
X50199760Y-52990818D01*
X50199988Y-53236365D01*
X50200223Y-53498234D01*
X50200258Y-53538100D01*
X50200491Y-53821640D01*
X50200678Y-54088612D01*
X50200818Y-54339383D01*
X50200909Y-54574320D01*
X50200951Y-54793788D01*
X50200943Y-54998153D01*
X50200884Y-55187781D01*
X50200773Y-55363039D01*
X50200609Y-55524293D01*
X50200392Y-55671909D01*
X50200121Y-55806253D01*
X50199794Y-55927690D01*
X50199411Y-56036588D01*
X50198970Y-56133313D01*
X50198472Y-56218230D01*
X50197915Y-56291705D01*
X50197298Y-56354105D01*
X50196621Y-56405797D01*
X50195882Y-56447145D01*
X50195080Y-56478516D01*
X50194216Y-56500276D01*
X50193287Y-56512792D01*
X50193106Y-56514133D01*
X50169497Y-56613711D01*
X50130547Y-56708697D01*
X50077630Y-56797230D01*
X50012117Y-56877447D01*
X49935381Y-56947486D01*
X49848794Y-57005484D01*
X49819683Y-57020970D01*
X49776062Y-57041375D01*
X49729374Y-57060896D01*
X49686431Y-57076783D01*
X49664300Y-57083705D01*
X49596566Y-57102567D01*
X46781400Y-57103632D01*
X46563478Y-57103695D01*
X46349625Y-57103716D01*
X46140482Y-57103697D01*
X45936686Y-57103640D01*
X45738876Y-57103545D01*
X45547691Y-57103415D01*
X45363770Y-57103249D01*
X45187751Y-57103050D01*
X45020274Y-57102819D01*
X44861976Y-57102557D01*
X44713498Y-57102266D01*
X44575476Y-57101946D01*
X44448551Y-57101599D01*
X44333361Y-57101226D01*
X44230545Y-57100828D01*
X44140741Y-57100407D01*
X44064588Y-57099964D01*
X44002725Y-57099500D01*
X43955791Y-57099017D01*
X43924425Y-57098515D01*
X43909264Y-57097997D01*
X43908479Y-57097924D01*
X43804130Y-57077273D01*
X43703996Y-57040728D01*
X43609736Y-56989136D01*
X43523011Y-56923342D01*
X43474707Y-56876797D01*
X43405494Y-56792575D01*
X43352019Y-56702170D01*
X43314165Y-56605351D01*
X43293603Y-56514133D01*
X43292656Y-56503569D01*
X43291774Y-56484287D01*
X43290955Y-56455906D01*
X43290198Y-56418043D01*
X43289504Y-56370317D01*
X43288870Y-56312345D01*
X43288295Y-56243744D01*
X43287780Y-56164133D01*
X43287322Y-56073130D01*
X43286922Y-55970351D01*
X43286578Y-55855414D01*
X43286288Y-55727939D01*
X43286053Y-55587541D01*
X43285871Y-55433839D01*
X43285742Y-55266450D01*
X43285663Y-55084993D01*
X43285647Y-54966011D01*
X43717449Y-54966011D01*
X43717488Y-55113187D01*
X43717600Y-55248033D01*
X43717793Y-55371123D01*
X43718077Y-55483034D01*
X43718459Y-55584340D01*
X43718950Y-55675616D01*
X43719558Y-55757439D01*
X43720292Y-55830383D01*
X43721160Y-55895024D01*
X43722171Y-55951937D01*
X43723334Y-56001698D01*
X43724658Y-56044881D01*
X43726152Y-56082063D01*
X43727825Y-56113818D01*
X43729685Y-56140721D01*
X43731740Y-56163349D01*
X43734001Y-56182276D01*
X43736476Y-56198079D01*
X43739173Y-56211331D01*
X43742102Y-56222609D01*
X43745270Y-56232488D01*
X43748688Y-56241543D01*
X43752363Y-56250349D01*
X43756305Y-56259482D01*
X43760222Y-56268783D01*
X43806512Y-56361452D01*
X43864662Y-56442181D01*
X43935194Y-56511533D01*
X44018631Y-56570070D01*
X44062589Y-56594075D01*
X44077937Y-56602026D01*
X44091491Y-56609283D01*
X44104046Y-56615877D01*
X44116399Y-56621839D01*
X44129342Y-56627203D01*
X44143673Y-56631998D01*
X44160186Y-56636258D01*
X44179675Y-56640014D01*
X44202937Y-56643299D01*
X44230766Y-56646143D01*
X44263958Y-56648578D01*
X44303307Y-56650638D01*
X44349609Y-56652352D01*
X44403658Y-56653754D01*
X44466251Y-56654875D01*
X44538182Y-56655746D01*
X44620246Y-56656401D01*
X44713238Y-56656870D01*
X44817954Y-56657185D01*
X44935188Y-56657379D01*
X45065737Y-56657483D01*
X45210394Y-56657528D01*
X45369955Y-56657548D01*
X45545216Y-56657573D01*
X45648983Y-56657601D01*
X47052333Y-56658067D01*
X47052333Y-54795400D01*
X45782109Y-54795400D01*
X45784338Y-53882067D01*
X45786566Y-52968734D01*
X45740000Y-52944738D01*
X45712951Y-52927768D01*
X45679911Y-52902631D01*
X45646355Y-52873624D01*
X45632355Y-52860265D01*
X45574173Y-52791528D01*
X45530802Y-52716426D01*
X45502239Y-52636796D01*
X45488482Y-52554476D01*
X45488924Y-52519267D01*
X45753280Y-52519267D01*
X45753296Y-52521695D01*
X45759710Y-52576739D01*
X45772508Y-52612427D01*
X45785681Y-52634288D01*
X45804180Y-52658521D01*
X45824945Y-52681917D01*
X45844917Y-52701267D01*
X45861039Y-52713362D01*
X45870251Y-52714994D01*
X45870264Y-52714980D01*
X45875009Y-52716370D01*
X45875466Y-52720155D01*
X45879311Y-52727462D01*
X45881816Y-52726859D01*
X45893855Y-52726863D01*
X45905100Y-52730430D01*
X45920307Y-52732969D01*
X45947292Y-52734113D01*
X45980961Y-52733931D01*
X46016223Y-52732492D01*
X46047985Y-52729864D01*
X46059616Y-52728337D01*
X46069488Y-52721983D01*
X46070200Y-52719156D01*
X46075471Y-52715420D01*
X46078666Y-52716833D01*
X46086468Y-52716162D01*
X46087133Y-52713100D01*
X46093363Y-52704479D01*
X46095719Y-52704133D01*
X46108443Y-52697415D01*
X46126280Y-52679848D01*
X46145991Y-52655312D01*
X46164334Y-52627687D01*
X46173420Y-52611076D01*
X46189379Y-52561211D01*
X46192424Y-52506280D01*
X46182663Y-52452039D01*
X46169827Y-52420500D01*
X46147730Y-52382462D01*
X46125085Y-52355672D01*
X46096880Y-52335045D01*
X46073457Y-52322661D01*
X46016146Y-52303224D01*
X45959412Y-52299075D01*
X45905438Y-52308856D01*
X45856403Y-52331212D01*
X45814488Y-52364786D01*
X45781876Y-52408225D01*
X45760746Y-52460170D01*
X45753280Y-52519267D01*
X45488924Y-52519267D01*
X45489528Y-52471300D01*
X45505372Y-52389107D01*
X45536013Y-52309732D01*
X45581446Y-52235013D01*
X45633541Y-52174689D01*
X45702615Y-52117720D01*
X45780010Y-52075077D01*
X45863957Y-52047486D01*
X45952685Y-52035675D01*
X45972833Y-52035267D01*
X46060416Y-52043194D01*
X46142455Y-52065962D01*
X46217716Y-52102053D01*
X46284970Y-52149949D01*
X46342983Y-52208132D01*
X46390526Y-52275082D01*
X46426365Y-52349283D01*
X46449270Y-52429215D01*
X46458008Y-52513361D01*
X46451349Y-52600201D01*
X46447500Y-52620443D01*
X46423632Y-52695723D01*
X46385661Y-52768768D01*
X46336177Y-52836176D01*
X46277773Y-52894547D01*
X46213039Y-52940476D01*
X46197200Y-52949091D01*
X46142166Y-52977289D01*
X46144376Y-53704311D01*
X46146586Y-54431334D01*
X47407933Y-54431334D01*
X47407933Y-56658067D01*
X47966733Y-56658067D01*
X47966733Y-53886846D01*
X46684033Y-53893700D01*
X46684033Y-50515500D01*
X47039633Y-50515500D01*
X47041773Y-52024684D01*
X47043913Y-53533867D01*
X47580194Y-53533867D01*
X47677423Y-53533955D01*
X47772304Y-53534211D01*
X47863024Y-53534618D01*
X47947772Y-53535160D01*
X48024734Y-53535822D01*
X48092099Y-53536588D01*
X48148055Y-53537442D01*
X48190788Y-53538369D01*
X48218488Y-53539353D01*
X48219404Y-53539401D01*
X48322333Y-53544936D01*
X48322333Y-56658067D01*
X48792233Y-56658067D01*
X48787911Y-53508467D01*
X49744733Y-53508467D01*
X49744733Y-53864067D01*
X49152166Y-53864067D01*
X49150000Y-55261067D01*
X49147833Y-56658067D01*
X49190929Y-56658067D01*
X49251051Y-56652122D01*
X49318225Y-56635445D01*
X49388046Y-56609775D01*
X49456110Y-56576851D01*
X49518011Y-56538411D01*
X49544018Y-56518693D01*
X49613062Y-56451983D01*
X49672157Y-56373418D01*
X49719287Y-56286102D01*
X49750304Y-56200867D01*
X49751807Y-56195116D01*
X49753210Y-56188448D01*
X49754517Y-56180290D01*
X49755731Y-56170068D01*
X49756856Y-56157209D01*
X49757895Y-56141141D01*
X49758851Y-56121291D01*
X49759728Y-56097085D01*
X49760530Y-56067951D01*
X49761259Y-56033315D01*
X49761919Y-55992605D01*
X49762513Y-55945247D01*
X49763046Y-55890669D01*
X49763519Y-55828298D01*
X49763938Y-55757560D01*
X49764304Y-55677882D01*
X49764622Y-55588692D01*
X49764895Y-55489417D01*
X49765127Y-55379483D01*
X49765320Y-55258318D01*
X49765478Y-55125348D01*
X49765605Y-54980001D01*
X49765704Y-54821703D01*
X49765778Y-54649882D01*
X49765831Y-54463965D01*
X49765866Y-54263378D01*
X49765887Y-54047548D01*
X49765897Y-53815904D01*
X49765900Y-53580434D01*
X49765916Y-53330459D01*
X49765954Y-53096844D01*
X49766001Y-52879015D01*
X49766043Y-52676398D01*
X49766066Y-52488420D01*
X49766057Y-52314507D01*
X49766003Y-52154086D01*
X49765889Y-52006582D01*
X49765702Y-51871423D01*
X49765428Y-51748034D01*
X49765054Y-51635841D01*
X49764566Y-51534272D01*
X49763950Y-51442753D01*
X49763193Y-51360710D01*
X49762281Y-51287568D01*
X49761201Y-51222756D01*
X49759938Y-51165698D01*
X49758479Y-51115822D01*
X49756812Y-51072554D01*
X49754921Y-51035319D01*
X49752793Y-51003545D01*
X49750415Y-50976658D01*
X49747773Y-50954084D01*
X49744853Y-50935249D01*
X49741642Y-50919580D01*
X49738126Y-50906504D01*
X49734292Y-50895446D01*
X49730125Y-50885833D01*
X49725613Y-50877091D01*
X49720741Y-50868646D01*
X49715496Y-50859926D01*
X49709864Y-50850356D01*
X49703832Y-50839363D01*
X49700586Y-50833000D01*
X49680593Y-50795791D01*
X49659014Y-50763161D01*
X49632240Y-50730325D01*
X49596666Y-50692496D01*
X49588379Y-50684112D01*
X49551775Y-50648373D01*
X49521327Y-50621841D01*
X49492143Y-50600888D01*
X49459333Y-50581887D01*
X49431466Y-50567745D01*
X49389936Y-50547892D01*
X49353806Y-50532327D01*
X49320041Y-50520480D01*
X49285606Y-50511778D01*
X49247467Y-50505651D01*
X49202589Y-50501528D01*
X49147935Y-50498838D01*
X49080471Y-50497010D01*
X49052583Y-50496455D01*
X48855733Y-50492749D01*
X48855733Y-51722000D01*
X49744733Y-51722000D01*
X49744733Y-52077600D01*
X48499530Y-52077600D01*
X48500145Y-51901917D01*
X48500244Y-51863543D01*
X48500329Y-51810120D01*
X48500399Y-51743532D01*
X48500454Y-51665663D01*
X48500493Y-51578396D01*
X48500515Y-51483616D01*
X48500520Y-51383207D01*
X48500507Y-51279052D01*
X48500474Y-51173037D01*
X48500446Y-51110170D01*
X48500133Y-50494106D01*
X46368650Y-50496343D01*
X46141669Y-50496561D01*
X45930985Y-50496734D01*
X45735961Y-50496881D01*
X45555961Y-50497022D01*
X45390349Y-50497177D01*
X45238489Y-50497365D01*
X45099743Y-50497607D01*
X44973476Y-50497921D01*
X44859050Y-50498327D01*
X44755831Y-50498845D01*
X44663180Y-50499495D01*
X44580463Y-50500296D01*
X44507042Y-50501268D01*
X44442281Y-50502430D01*
X44385544Y-50503803D01*
X44336195Y-50505405D01*
X44293596Y-50507257D01*
X44257112Y-50509378D01*
X44226106Y-50511787D01*
X44199942Y-50514505D01*
X44177983Y-50517551D01*
X44159594Y-50520945D01*
X44144137Y-50524705D01*
X44130976Y-50528853D01*
X44119475Y-50533407D01*
X44108998Y-50538388D01*
X44098907Y-50543814D01*
X44088567Y-50549706D01*
X44077342Y-50556082D01*
X44064594Y-50562964D01*
X44055133Y-50567745D01*
X44016847Y-50587545D01*
X43985626Y-50606747D01*
X43956577Y-50628980D01*
X43924810Y-50657869D01*
X43898221Y-50684112D01*
X43860555Y-50723418D01*
X43832394Y-50756782D01*
X43810133Y-50788985D01*
X43790172Y-50824810D01*
X43786055Y-50833000D01*
X43779768Y-50845034D01*
X43773894Y-50855307D01*
X43768421Y-50864399D01*
X43763332Y-50872885D01*
X43758614Y-50881345D01*
X43754253Y-50890356D01*
X43750234Y-50900496D01*
X43746542Y-50912342D01*
X43743164Y-50926474D01*
X43740084Y-50943468D01*
X43737289Y-50963902D01*
X43734763Y-50988355D01*
X43732493Y-51017404D01*
X43730464Y-51051626D01*
X43728662Y-51091601D01*
X43727072Y-51137905D01*
X43725680Y-51191116D01*
X43724471Y-51251813D01*
X43723432Y-51320574D01*
X43722547Y-51397975D01*
X43721802Y-51484595D01*
X43721183Y-51581012D01*
X43720675Y-51687803D01*
X43720264Y-51805547D01*
X43719936Y-51934822D01*
X43719676Y-52076204D01*
X43719469Y-52230273D01*
X43719302Y-52397605D01*
X43719160Y-52578779D01*
X43719028Y-52774373D01*
X43718892Y-52984964D01*
X43718738Y-53211131D01*
X43718551Y-53453450D01*
X43718476Y-53542191D01*
X43718252Y-53791791D01*
X43718039Y-54025033D01*
X43717845Y-54242493D01*
X43717681Y-54444745D01*
X43717554Y-54632365D01*
X43717474Y-54805929D01*
X43717449Y-54966011D01*
X43285647Y-54966011D01*
X43285636Y-54889085D01*
X43285657Y-54678343D01*
X43285728Y-54452386D01*
X43285846Y-54210832D01*
X43286011Y-53953297D01*
X43286221Y-53679399D01*
X43286342Y-53538100D01*
X43288900Y-50625567D01*
X43308164Y-50563518D01*
X43349149Y-50458809D01*
X43403704Y-50363908D01*
X43471080Y-50279578D01*
X43550533Y-50206582D01*
X43641316Y-50145682D01*
X43742683Y-50097641D01*
X43775733Y-50085616D01*
X43856167Y-50058300D01*
X49630433Y-50058300D01*
X49710866Y-50085616D01*
X49710866Y-50085616D01*
G37*
X49710866Y-50085616D02*
X49799755Y-50121136D01*
X49877763Y-50164598D01*
X49949940Y-50219172D01*
X50003287Y-50269308D01*
X50039099Y-50306756D01*
X50065999Y-50338352D01*
X50087827Y-50369380D01*
X50108423Y-50405127D01*
X50123992Y-50435440D01*
X50143603Y-50476646D01*
X50161793Y-50518259D01*
X50176181Y-50554655D01*
X50182938Y-50574767D01*
X50184278Y-50580033D01*
X50185536Y-50586675D01*
X50186716Y-50595225D01*
X50187820Y-50606220D01*
X50188852Y-50620191D01*
X50189814Y-50637672D01*
X50190710Y-50659198D01*
X50191543Y-50685303D01*
X50192316Y-50716519D01*
X50193032Y-50753381D01*
X50193695Y-50796422D01*
X50194307Y-50846177D01*
X50194871Y-50903179D01*
X50195391Y-50967962D01*
X50195870Y-51041059D01*
X50196311Y-51123004D01*
X50196716Y-51214332D01*
X50197090Y-51315576D01*
X50197435Y-51427269D01*
X50197754Y-51549946D01*
X50198051Y-51684140D01*
X50198328Y-51830385D01*
X50198589Y-51989215D01*
X50198837Y-52161164D01*
X50199075Y-52346764D01*
X50199306Y-52546551D01*
X50199533Y-52761058D01*
X50199760Y-52990818D01*
X50199988Y-53236365D01*
X50200223Y-53498234D01*
X50200258Y-53538100D01*
X50200491Y-53821640D01*
X50200678Y-54088612D01*
X50200818Y-54339383D01*
X50200909Y-54574320D01*
X50200951Y-54793788D01*
X50200943Y-54998153D01*
X50200884Y-55187781D01*
X50200773Y-55363039D01*
X50200609Y-55524293D01*
X50200392Y-55671909D01*
X50200121Y-55806253D01*
X50199794Y-55927690D01*
X50199411Y-56036588D01*
X50198970Y-56133313D01*
X50198472Y-56218230D01*
X50197915Y-56291705D01*
X50197298Y-56354105D01*
X50196621Y-56405797D01*
X50195882Y-56447145D01*
X50195080Y-56478516D01*
X50194216Y-56500276D01*
X50193287Y-56512792D01*
X50193106Y-56514133D01*
X50169497Y-56613711D01*
X50130547Y-56708697D01*
X50077630Y-56797230D01*
X50012117Y-56877447D01*
X49935381Y-56947486D01*
X49848794Y-57005484D01*
X49819683Y-57020970D01*
X49776062Y-57041375D01*
X49729374Y-57060896D01*
X49686431Y-57076783D01*
X49664300Y-57083705D01*
X49596566Y-57102567D01*
X46781400Y-57103632D01*
X46563478Y-57103695D01*
X46349625Y-57103716D01*
X46140482Y-57103697D01*
X45936686Y-57103640D01*
X45738876Y-57103545D01*
X45547691Y-57103415D01*
X45363770Y-57103249D01*
X45187751Y-57103050D01*
X45020274Y-57102819D01*
X44861976Y-57102557D01*
X44713498Y-57102266D01*
X44575476Y-57101946D01*
X44448551Y-57101599D01*
X44333361Y-57101226D01*
X44230545Y-57100828D01*
X44140741Y-57100407D01*
X44064588Y-57099964D01*
X44002725Y-57099500D01*
X43955791Y-57099017D01*
X43924425Y-57098515D01*
X43909264Y-57097997D01*
X43908479Y-57097924D01*
X43804130Y-57077273D01*
X43703996Y-57040728D01*
X43609736Y-56989136D01*
X43523011Y-56923342D01*
X43474707Y-56876797D01*
X43405494Y-56792575D01*
X43352019Y-56702170D01*
X43314165Y-56605351D01*
X43293603Y-56514133D01*
X43292656Y-56503569D01*
X43291774Y-56484287D01*
X43290955Y-56455906D01*
X43290198Y-56418043D01*
X43289504Y-56370317D01*
X43288870Y-56312345D01*
X43288295Y-56243744D01*
X43287780Y-56164133D01*
X43287322Y-56073130D01*
X43286922Y-55970351D01*
X43286578Y-55855414D01*
X43286288Y-55727939D01*
X43286053Y-55587541D01*
X43285871Y-55433839D01*
X43285742Y-55266450D01*
X43285663Y-55084993D01*
X43285647Y-54966011D01*
X43717449Y-54966011D01*
X43717488Y-55113187D01*
X43717600Y-55248033D01*
X43717793Y-55371123D01*
X43718077Y-55483034D01*
X43718459Y-55584340D01*
X43718950Y-55675616D01*
X43719558Y-55757439D01*
X43720292Y-55830383D01*
X43721160Y-55895024D01*
X43722171Y-55951937D01*
X43723334Y-56001698D01*
X43724658Y-56044881D01*
X43726152Y-56082063D01*
X43727825Y-56113818D01*
X43729685Y-56140721D01*
X43731740Y-56163349D01*
X43734001Y-56182276D01*
X43736476Y-56198079D01*
X43739173Y-56211331D01*
X43742102Y-56222609D01*
X43745270Y-56232488D01*
X43748688Y-56241543D01*
X43752363Y-56250349D01*
X43756305Y-56259482D01*
X43760222Y-56268783D01*
X43806512Y-56361452D01*
X43864662Y-56442181D01*
X43935194Y-56511533D01*
X44018631Y-56570070D01*
X44062589Y-56594075D01*
X44077937Y-56602026D01*
X44091491Y-56609283D01*
X44104046Y-56615877D01*
X44116399Y-56621839D01*
X44129342Y-56627203D01*
X44143673Y-56631998D01*
X44160186Y-56636258D01*
X44179675Y-56640014D01*
X44202937Y-56643299D01*
X44230766Y-56646143D01*
X44263958Y-56648578D01*
X44303307Y-56650638D01*
X44349609Y-56652352D01*
X44403658Y-56653754D01*
X44466251Y-56654875D01*
X44538182Y-56655746D01*
X44620246Y-56656401D01*
X44713238Y-56656870D01*
X44817954Y-56657185D01*
X44935188Y-56657379D01*
X45065737Y-56657483D01*
X45210394Y-56657528D01*
X45369955Y-56657548D01*
X45545216Y-56657573D01*
X45648983Y-56657601D01*
X47052333Y-56658067D01*
X47052333Y-54795400D01*
X45782109Y-54795400D01*
X45784338Y-53882067D01*
X45786566Y-52968734D01*
X45740000Y-52944738D01*
X45712951Y-52927768D01*
X45679911Y-52902631D01*
X45646355Y-52873624D01*
X45632355Y-52860265D01*
X45574173Y-52791528D01*
X45530802Y-52716426D01*
X45502239Y-52636796D01*
X45488482Y-52554476D01*
X45488924Y-52519267D01*
X45753280Y-52519267D01*
X45753296Y-52521695D01*
X45759710Y-52576739D01*
X45772508Y-52612427D01*
X45785681Y-52634288D01*
X45804180Y-52658521D01*
X45824945Y-52681917D01*
X45844917Y-52701267D01*
X45861039Y-52713362D01*
X45870251Y-52714994D01*
X45870264Y-52714980D01*
X45875009Y-52716370D01*
X45875466Y-52720155D01*
X45879311Y-52727462D01*
X45881816Y-52726859D01*
X45893855Y-52726863D01*
X45905100Y-52730430D01*
X45920307Y-52732969D01*
X45947292Y-52734113D01*
X45980961Y-52733931D01*
X46016223Y-52732492D01*
X46047985Y-52729864D01*
X46059616Y-52728337D01*
X46069488Y-52721983D01*
X46070200Y-52719156D01*
X46075471Y-52715420D01*
X46078666Y-52716833D01*
X46086468Y-52716162D01*
X46087133Y-52713100D01*
X46093363Y-52704479D01*
X46095719Y-52704133D01*
X46108443Y-52697415D01*
X46126280Y-52679848D01*
X46145991Y-52655312D01*
X46164334Y-52627687D01*
X46173420Y-52611076D01*
X46189379Y-52561211D01*
X46192424Y-52506280D01*
X46182663Y-52452039D01*
X46169827Y-52420500D01*
X46147730Y-52382462D01*
X46125085Y-52355672D01*
X46096880Y-52335045D01*
X46073457Y-52322661D01*
X46016146Y-52303224D01*
X45959412Y-52299075D01*
X45905438Y-52308856D01*
X45856403Y-52331212D01*
X45814488Y-52364786D01*
X45781876Y-52408225D01*
X45760746Y-52460170D01*
X45753280Y-52519267D01*
X45488924Y-52519267D01*
X45489528Y-52471300D01*
X45505372Y-52389107D01*
X45536013Y-52309732D01*
X45581446Y-52235013D01*
X45633541Y-52174689D01*
X45702615Y-52117720D01*
X45780010Y-52075077D01*
X45863957Y-52047486D01*
X45952685Y-52035675D01*
X45972833Y-52035267D01*
X46060416Y-52043194D01*
X46142455Y-52065962D01*
X46217716Y-52102053D01*
X46284970Y-52149949D01*
X46342983Y-52208132D01*
X46390526Y-52275082D01*
X46426365Y-52349283D01*
X46449270Y-52429215D01*
X46458008Y-52513361D01*
X46451349Y-52600201D01*
X46447500Y-52620443D01*
X46423632Y-52695723D01*
X46385661Y-52768768D01*
X46336177Y-52836176D01*
X46277773Y-52894547D01*
X46213039Y-52940476D01*
X46197200Y-52949091D01*
X46142166Y-52977289D01*
X46144376Y-53704311D01*
X46146586Y-54431334D01*
X47407933Y-54431334D01*
X47407933Y-56658067D01*
X47966733Y-56658067D01*
X47966733Y-53886846D01*
X46684033Y-53893700D01*
X46684033Y-50515500D01*
X47039633Y-50515500D01*
X47041773Y-52024684D01*
X47043913Y-53533867D01*
X47580194Y-53533867D01*
X47677423Y-53533955D01*
X47772304Y-53534211D01*
X47863024Y-53534618D01*
X47947772Y-53535160D01*
X48024734Y-53535822D01*
X48092099Y-53536588D01*
X48148055Y-53537442D01*
X48190788Y-53538369D01*
X48218488Y-53539353D01*
X48219404Y-53539401D01*
X48322333Y-53544936D01*
X48322333Y-56658067D01*
X48792233Y-56658067D01*
X48787911Y-53508467D01*
X49744733Y-53508467D01*
X49744733Y-53864067D01*
X49152166Y-53864067D01*
X49150000Y-55261067D01*
X49147833Y-56658067D01*
X49190929Y-56658067D01*
X49251051Y-56652122D01*
X49318225Y-56635445D01*
X49388046Y-56609775D01*
X49456110Y-56576851D01*
X49518011Y-56538411D01*
X49544018Y-56518693D01*
X49613062Y-56451983D01*
X49672157Y-56373418D01*
X49719287Y-56286102D01*
X49750304Y-56200867D01*
X49751807Y-56195116D01*
X49753210Y-56188448D01*
X49754517Y-56180290D01*
X49755731Y-56170068D01*
X49756856Y-56157209D01*
X49757895Y-56141141D01*
X49758851Y-56121291D01*
X49759728Y-56097085D01*
X49760530Y-56067951D01*
X49761259Y-56033315D01*
X49761919Y-55992605D01*
X49762513Y-55945247D01*
X49763046Y-55890669D01*
X49763519Y-55828298D01*
X49763938Y-55757560D01*
X49764304Y-55677882D01*
X49764622Y-55588692D01*
X49764895Y-55489417D01*
X49765127Y-55379483D01*
X49765320Y-55258318D01*
X49765478Y-55125348D01*
X49765605Y-54980001D01*
X49765704Y-54821703D01*
X49765778Y-54649882D01*
X49765831Y-54463965D01*
X49765866Y-54263378D01*
X49765887Y-54047548D01*
X49765897Y-53815904D01*
X49765900Y-53580434D01*
X49765916Y-53330459D01*
X49765954Y-53096844D01*
X49766001Y-52879015D01*
X49766043Y-52676398D01*
X49766066Y-52488420D01*
X49766057Y-52314507D01*
X49766003Y-52154086D01*
X49765889Y-52006582D01*
X49765702Y-51871423D01*
X49765428Y-51748034D01*
X49765054Y-51635841D01*
X49764566Y-51534272D01*
X49763950Y-51442753D01*
X49763193Y-51360710D01*
X49762281Y-51287568D01*
X49761201Y-51222756D01*
X49759938Y-51165698D01*
X49758479Y-51115822D01*
X49756812Y-51072554D01*
X49754921Y-51035319D01*
X49752793Y-51003545D01*
X49750415Y-50976658D01*
X49747773Y-50954084D01*
X49744853Y-50935249D01*
X49741642Y-50919580D01*
X49738126Y-50906504D01*
X49734292Y-50895446D01*
X49730125Y-50885833D01*
X49725613Y-50877091D01*
X49720741Y-50868646D01*
X49715496Y-50859926D01*
X49709864Y-50850356D01*
X49703832Y-50839363D01*
X49700586Y-50833000D01*
X49680593Y-50795791D01*
X49659014Y-50763161D01*
X49632240Y-50730325D01*
X49596666Y-50692496D01*
X49588379Y-50684112D01*
X49551775Y-50648373D01*
X49521327Y-50621841D01*
X49492143Y-50600888D01*
X49459333Y-50581887D01*
X49431466Y-50567745D01*
X49389936Y-50547892D01*
X49353806Y-50532327D01*
X49320041Y-50520480D01*
X49285606Y-50511778D01*
X49247467Y-50505651D01*
X49202589Y-50501528D01*
X49147935Y-50498838D01*
X49080471Y-50497010D01*
X49052583Y-50496455D01*
X48855733Y-50492749D01*
X48855733Y-51722000D01*
X49744733Y-51722000D01*
X49744733Y-52077600D01*
X48499530Y-52077600D01*
X48500145Y-51901917D01*
X48500244Y-51863543D01*
X48500329Y-51810120D01*
X48500399Y-51743532D01*
X48500454Y-51665663D01*
X48500493Y-51578396D01*
X48500515Y-51483616D01*
X48500520Y-51383207D01*
X48500507Y-51279052D01*
X48500474Y-51173037D01*
X48500446Y-51110170D01*
X48500133Y-50494106D01*
X46368650Y-50496343D01*
X46141669Y-50496561D01*
X45930985Y-50496734D01*
X45735961Y-50496881D01*
X45555961Y-50497022D01*
X45390349Y-50497177D01*
X45238489Y-50497365D01*
X45099743Y-50497607D01*
X44973476Y-50497921D01*
X44859050Y-50498327D01*
X44755831Y-50498845D01*
X44663180Y-50499495D01*
X44580463Y-50500296D01*
X44507042Y-50501268D01*
X44442281Y-50502430D01*
X44385544Y-50503803D01*
X44336195Y-50505405D01*
X44293596Y-50507257D01*
X44257112Y-50509378D01*
X44226106Y-50511787D01*
X44199942Y-50514505D01*
X44177983Y-50517551D01*
X44159594Y-50520945D01*
X44144137Y-50524705D01*
X44130976Y-50528853D01*
X44119475Y-50533407D01*
X44108998Y-50538388D01*
X44098907Y-50543814D01*
X44088567Y-50549706D01*
X44077342Y-50556082D01*
X44064594Y-50562964D01*
X44055133Y-50567745D01*
X44016847Y-50587545D01*
X43985626Y-50606747D01*
X43956577Y-50628980D01*
X43924810Y-50657869D01*
X43898221Y-50684112D01*
X43860555Y-50723418D01*
X43832394Y-50756782D01*
X43810133Y-50788985D01*
X43790172Y-50824810D01*
X43786055Y-50833000D01*
X43779768Y-50845034D01*
X43773894Y-50855307D01*
X43768421Y-50864399D01*
X43763332Y-50872885D01*
X43758614Y-50881345D01*
X43754253Y-50890356D01*
X43750234Y-50900496D01*
X43746542Y-50912342D01*
X43743164Y-50926474D01*
X43740084Y-50943468D01*
X43737289Y-50963902D01*
X43734763Y-50988355D01*
X43732493Y-51017404D01*
X43730464Y-51051626D01*
X43728662Y-51091601D01*
X43727072Y-51137905D01*
X43725680Y-51191116D01*
X43724471Y-51251813D01*
X43723432Y-51320574D01*
X43722547Y-51397975D01*
X43721802Y-51484595D01*
X43721183Y-51581012D01*
X43720675Y-51687803D01*
X43720264Y-51805547D01*
X43719936Y-51934822D01*
X43719676Y-52076204D01*
X43719469Y-52230273D01*
X43719302Y-52397605D01*
X43719160Y-52578779D01*
X43719028Y-52774373D01*
X43718892Y-52984964D01*
X43718738Y-53211131D01*
X43718551Y-53453450D01*
X43718476Y-53542191D01*
X43718252Y-53791791D01*
X43718039Y-54025033D01*
X43717845Y-54242493D01*
X43717681Y-54444745D01*
X43717554Y-54632365D01*
X43717474Y-54805929D01*
X43717449Y-54966011D01*
X43285647Y-54966011D01*
X43285636Y-54889085D01*
X43285657Y-54678343D01*
X43285728Y-54452386D01*
X43285846Y-54210832D01*
X43286011Y-53953297D01*
X43286221Y-53679399D01*
X43286342Y-53538100D01*
X43288900Y-50625567D01*
X43308164Y-50563518D01*
X43349149Y-50458809D01*
X43403704Y-50363908D01*
X43471080Y-50279578D01*
X43550533Y-50206582D01*
X43641316Y-50145682D01*
X43742683Y-50097641D01*
X43775733Y-50085616D01*
X43856167Y-50058300D01*
X49630433Y-50058300D01*
X49710866Y-50085616D01*
G36*
X61678550Y-52523392D02*
X61816424Y-52541827D01*
X61943594Y-52572866D01*
X62060555Y-52616687D01*
X62167802Y-52673468D01*
X62265828Y-52743386D01*
X62336585Y-52807536D01*
X62394084Y-52868918D01*
X62442653Y-52929932D01*
X62485999Y-52995818D01*
X62527831Y-53071817D01*
X62538339Y-53092712D01*
X62582845Y-53191127D01*
X62618969Y-53290724D01*
X62647132Y-53393861D01*
X62667757Y-53502897D01*
X62681266Y-53620188D01*
X62688082Y-53748094D01*
X62688626Y-53888971D01*
X62687814Y-53927198D01*
X62684254Y-54014352D01*
X62678109Y-54108210D01*
X62669804Y-54204688D01*
X62659761Y-54299700D01*
X62648403Y-54389163D01*
X62636153Y-54468990D01*
X62626167Y-54522350D01*
X62622211Y-54541400D01*
X60977680Y-54541400D01*
X60983730Y-54623950D01*
X60998374Y-54754154D01*
X61022242Y-54873648D01*
X61054993Y-54981721D01*
X61096287Y-55077664D01*
X61145783Y-55160766D01*
X61203141Y-55230319D01*
X61268019Y-55285611D01*
X61314815Y-55313958D01*
X61362819Y-55337271D01*
X61407358Y-55354944D01*
X61452064Y-55367690D01*
X61500570Y-55376225D01*
X61556507Y-55381263D01*
X61623508Y-55383519D01*
X61670033Y-55383834D01*
X61745567Y-55382986D01*
X61809485Y-55380508D01*
X61859925Y-55376500D01*
X61890167Y-55372094D01*
X61977571Y-55350467D01*
X62069054Y-55320161D01*
X62158847Y-55283454D01*
X62241185Y-55242620D01*
X62287507Y-55215245D01*
X62312862Y-55200488D01*
X62332741Y-55191614D01*
X62343015Y-55190451D01*
X62343196Y-55190620D01*
X62347504Y-55199130D01*
X62357738Y-55220993D01*
X62372946Y-55254091D01*
X62392175Y-55296304D01*
X62414472Y-55345513D01*
X62438885Y-55399598D01*
X62464460Y-55456441D01*
X62490247Y-55513922D01*
X62515291Y-55569921D01*
X62538640Y-55622320D01*
X62559341Y-55668998D01*
X62576442Y-55707838D01*
X62588991Y-55736718D01*
X62594213Y-55749046D01*
X62589710Y-55758879D01*
X62572842Y-55775203D01*
X62546055Y-55796298D01*
X62511794Y-55820447D01*
X62472504Y-55845930D01*
X62430631Y-55871029D01*
X62388622Y-55894027D01*
X62385857Y-55895453D01*
X62241693Y-55960631D01*
X62087917Y-56013544D01*
X61927099Y-56053687D01*
X61761808Y-56080558D01*
X61594613Y-56093654D01*
X61428084Y-56092471D01*
X61391411Y-56090217D01*
X61240914Y-56072084D01*
X61099869Y-56039971D01*
X60968396Y-55993955D01*
X60846615Y-55934116D01*
X60734646Y-55860530D01*
X60632607Y-55773276D01*
X60540620Y-55672432D01*
X60458803Y-55558075D01*
X60391808Y-55439390D01*
X60334887Y-55313264D01*
X60287024Y-55179244D01*
X60247998Y-55036178D01*
X60217592Y-54882917D01*
X60195588Y-54718312D01*
X60181767Y-54541211D01*
X60175911Y-54350464D01*
X60175667Y-54300100D01*
X60180420Y-54094105D01*
X60188086Y-53991067D01*
X61004181Y-53991067D01*
X61928267Y-53991067D01*
X61928243Y-53870417D01*
X61925869Y-53766768D01*
X61918550Y-53676235D01*
X61905924Y-53595636D01*
X61889194Y-53527122D01*
X61860368Y-53443991D01*
X61825964Y-53375750D01*
X61784970Y-53320982D01*
X61736375Y-53278270D01*
X61693099Y-53252686D01*
X61662603Y-53238848D01*
X61635497Y-53230170D01*
X61605289Y-53225166D01*
X61565486Y-53222351D01*
X61559312Y-53222070D01*
X61467407Y-53224707D01*
X61384996Y-53241253D01*
X61311564Y-53271960D01*
X61246598Y-53317076D01*
X61189584Y-53376851D01*
X61161909Y-53415334D01*
X61123098Y-53482710D01*
X61090131Y-53557975D01*
X61062481Y-53642961D01*
X61039616Y-53739502D01*
X61021006Y-53849430D01*
X61009454Y-53942384D01*
X61004181Y-53991067D01*
X60188086Y-53991067D01*
X60194724Y-53901862D01*
X60218639Y-53723099D01*
X60252230Y-53557541D01*
X60295559Y-53404914D01*
X60348689Y-53264945D01*
X60411683Y-53137361D01*
X60461531Y-53055500D01*
X60547498Y-52940034D01*
X60643306Y-52838313D01*
X60748794Y-52750417D01*
X60863802Y-52676428D01*
X60988168Y-52616427D01*
X61121732Y-52570495D01*
X61264333Y-52538714D01*
X61415809Y-52521163D01*
X61529479Y-52517385D01*
X61678550Y-52523392D01*
X61678550Y-52523392D01*
G37*
X61678550Y-52523392D02*
X61816424Y-52541827D01*
X61943594Y-52572866D01*
X62060555Y-52616687D01*
X62167802Y-52673468D01*
X62265828Y-52743386D01*
X62336585Y-52807536D01*
X62394084Y-52868918D01*
X62442653Y-52929932D01*
X62485999Y-52995818D01*
X62527831Y-53071817D01*
X62538339Y-53092712D01*
X62582845Y-53191127D01*
X62618969Y-53290724D01*
X62647132Y-53393861D01*
X62667757Y-53502897D01*
X62681266Y-53620188D01*
X62688082Y-53748094D01*
X62688626Y-53888971D01*
X62687814Y-53927198D01*
X62684254Y-54014352D01*
X62678109Y-54108210D01*
X62669804Y-54204688D01*
X62659761Y-54299700D01*
X62648403Y-54389163D01*
X62636153Y-54468990D01*
X62626167Y-54522350D01*
X62622211Y-54541400D01*
X60977680Y-54541400D01*
X60983730Y-54623950D01*
X60998374Y-54754154D01*
X61022242Y-54873648D01*
X61054993Y-54981721D01*
X61096287Y-55077664D01*
X61145783Y-55160766D01*
X61203141Y-55230319D01*
X61268019Y-55285611D01*
X61314815Y-55313958D01*
X61362819Y-55337271D01*
X61407358Y-55354944D01*
X61452064Y-55367690D01*
X61500570Y-55376225D01*
X61556507Y-55381263D01*
X61623508Y-55383519D01*
X61670033Y-55383834D01*
X61745567Y-55382986D01*
X61809485Y-55380508D01*
X61859925Y-55376500D01*
X61890167Y-55372094D01*
X61977571Y-55350467D01*
X62069054Y-55320161D01*
X62158847Y-55283454D01*
X62241185Y-55242620D01*
X62287507Y-55215245D01*
X62312862Y-55200488D01*
X62332741Y-55191614D01*
X62343015Y-55190451D01*
X62343196Y-55190620D01*
X62347504Y-55199130D01*
X62357738Y-55220993D01*
X62372946Y-55254091D01*
X62392175Y-55296304D01*
X62414472Y-55345513D01*
X62438885Y-55399598D01*
X62464460Y-55456441D01*
X62490247Y-55513922D01*
X62515291Y-55569921D01*
X62538640Y-55622320D01*
X62559341Y-55668998D01*
X62576442Y-55707838D01*
X62588991Y-55736718D01*
X62594213Y-55749046D01*
X62589710Y-55758879D01*
X62572842Y-55775203D01*
X62546055Y-55796298D01*
X62511794Y-55820447D01*
X62472504Y-55845930D01*
X62430631Y-55871029D01*
X62388622Y-55894027D01*
X62385857Y-55895453D01*
X62241693Y-55960631D01*
X62087917Y-56013544D01*
X61927099Y-56053687D01*
X61761808Y-56080558D01*
X61594613Y-56093654D01*
X61428084Y-56092471D01*
X61391411Y-56090217D01*
X61240914Y-56072084D01*
X61099869Y-56039971D01*
X60968396Y-55993955D01*
X60846615Y-55934116D01*
X60734646Y-55860530D01*
X60632607Y-55773276D01*
X60540620Y-55672432D01*
X60458803Y-55558075D01*
X60391808Y-55439390D01*
X60334887Y-55313264D01*
X60287024Y-55179244D01*
X60247998Y-55036178D01*
X60217592Y-54882917D01*
X60195588Y-54718312D01*
X60181767Y-54541211D01*
X60175911Y-54350464D01*
X60175667Y-54300100D01*
X60180420Y-54094105D01*
X60188086Y-53991067D01*
X61004181Y-53991067D01*
X61928267Y-53991067D01*
X61928243Y-53870417D01*
X61925869Y-53766768D01*
X61918550Y-53676235D01*
X61905924Y-53595636D01*
X61889194Y-53527122D01*
X61860368Y-53443991D01*
X61825964Y-53375750D01*
X61784970Y-53320982D01*
X61736375Y-53278270D01*
X61693099Y-53252686D01*
X61662603Y-53238848D01*
X61635497Y-53230170D01*
X61605289Y-53225166D01*
X61565486Y-53222351D01*
X61559312Y-53222070D01*
X61467407Y-53224707D01*
X61384996Y-53241253D01*
X61311564Y-53271960D01*
X61246598Y-53317076D01*
X61189584Y-53376851D01*
X61161909Y-53415334D01*
X61123098Y-53482710D01*
X61090131Y-53557975D01*
X61062481Y-53642961D01*
X61039616Y-53739502D01*
X61021006Y-53849430D01*
X61009454Y-53942384D01*
X61004181Y-53991067D01*
X60188086Y-53991067D01*
X60194724Y-53901862D01*
X60218639Y-53723099D01*
X60252230Y-53557541D01*
X60295559Y-53404914D01*
X60348689Y-53264945D01*
X60411683Y-53137361D01*
X60461531Y-53055500D01*
X60547498Y-52940034D01*
X60643306Y-52838313D01*
X60748794Y-52750417D01*
X60863802Y-52676428D01*
X60988168Y-52616427D01*
X61121732Y-52570495D01*
X61264333Y-52538714D01*
X61415809Y-52521163D01*
X61529479Y-52517385D01*
X61678550Y-52523392D01*
G36*
X66316117Y-51258369D02*
X66724633Y-51260567D01*
X66726794Y-52041617D01*
X66727140Y-52155020D01*
X66727534Y-52263480D01*
X66727969Y-52365817D01*
X66728436Y-52460851D01*
X66728928Y-52547400D01*
X66729436Y-52624286D01*
X66729952Y-52690328D01*
X66730470Y-52744346D01*
X66730980Y-52785159D01*
X66731476Y-52811588D01*
X66731948Y-52822452D01*
X66732021Y-52822667D01*
X66738963Y-52817125D01*
X66755183Y-52802200D01*
X66777946Y-52780448D01*
X66794559Y-52764248D01*
X66876119Y-52693943D01*
X66964865Y-52636740D01*
X67062284Y-52591976D01*
X67169865Y-52558992D01*
X67289094Y-52537127D01*
X67312661Y-52534236D01*
X67436619Y-52527640D01*
X67558628Y-52535883D01*
X67676615Y-52558518D01*
X67788505Y-52595102D01*
X67892226Y-52645191D01*
X67925888Y-52665621D01*
X67963623Y-52693034D01*
X68007541Y-52729938D01*
X68053487Y-52772417D01*
X68097302Y-52816555D01*
X68134829Y-52858434D01*
X68148271Y-52875128D01*
X68211660Y-52967510D01*
X68267435Y-53070494D01*
X68315782Y-53184779D01*
X68356890Y-53311063D01*
X68390945Y-53450044D01*
X68418137Y-53602420D01*
X68438652Y-53768889D01*
X68452678Y-53950149D01*
X68456225Y-54020288D01*
X68460834Y-54229653D01*
X68455980Y-54430163D01*
X68441793Y-54620977D01*
X68418404Y-54801259D01*
X68385944Y-54970168D01*
X68344542Y-55126867D01*
X68294330Y-55270516D01*
X68244493Y-55382389D01*
X68186282Y-55488248D01*
X68121399Y-55583364D01*
X68046109Y-55672823D01*
X67987054Y-55733029D01*
X67890676Y-55818235D01*
X67790170Y-55891036D01*
X67684325Y-55951796D01*
X67571932Y-56000881D01*
X67451781Y-56038655D01*
X67322662Y-56065482D01*
X67183365Y-56081728D01*
X67032681Y-56087758D01*
X66869400Y-56083936D01*
X66830467Y-56081734D01*
X66608163Y-56059602D01*
X66388604Y-56021173D01*
X66205004Y-55975773D01*
X66149559Y-55959309D01*
X66093558Y-55941186D01*
X66040272Y-55922597D01*
X65992969Y-55904735D01*
X65954920Y-55888792D01*
X65929395Y-55875961D01*
X65926650Y-55874250D01*
X65907600Y-55861810D01*
X65907600Y-53615254D01*
X66728783Y-53615254D01*
X66730941Y-54444158D01*
X66733100Y-55273062D01*
X66789517Y-55292416D01*
X66857439Y-55311666D01*
X66931616Y-55325741D01*
X67007611Y-55334290D01*
X67080988Y-55336962D01*
X67147311Y-55333406D01*
X67197130Y-55324637D01*
X67274182Y-55295986D01*
X67343965Y-55252270D01*
X67406073Y-55193906D01*
X67460098Y-55121311D01*
X67505635Y-55034901D01*
X67523804Y-54990134D01*
X67547941Y-54912615D01*
X67568469Y-54821020D01*
X67585322Y-54717831D01*
X67598433Y-54605532D01*
X67607739Y-54486604D01*
X67613172Y-54363530D01*
X67614667Y-54238792D01*
X67612160Y-54114873D01*
X67605583Y-53994255D01*
X67594872Y-53879420D01*
X67579960Y-53772851D01*
X67560783Y-53677031D01*
X67558734Y-53668563D01*
X67528803Y-53568085D01*
X67492146Y-53483013D01*
X67448536Y-53413118D01*
X67397744Y-53358169D01*
X67339543Y-53317935D01*
X67273704Y-53292188D01*
X67199999Y-53280695D01*
X67173946Y-53279992D01*
X67083857Y-53287632D01*
X67002036Y-53310022D01*
X66928814Y-53346954D01*
X66864518Y-53398222D01*
X66809477Y-53463619D01*
X66767441Y-53535787D01*
X66728783Y-53615254D01*
X65907600Y-53615254D01*
X65907600Y-51256171D01*
X66316117Y-51258369D01*
X66316117Y-51258369D01*
G37*
X66316117Y-51258369D02*
X66724633Y-51260567D01*
X66726794Y-52041617D01*
X66727140Y-52155020D01*
X66727534Y-52263480D01*
X66727969Y-52365817D01*
X66728436Y-52460851D01*
X66728928Y-52547400D01*
X66729436Y-52624286D01*
X66729952Y-52690328D01*
X66730470Y-52744346D01*
X66730980Y-52785159D01*
X66731476Y-52811588D01*
X66731948Y-52822452D01*
X66732021Y-52822667D01*
X66738963Y-52817125D01*
X66755183Y-52802200D01*
X66777946Y-52780448D01*
X66794559Y-52764248D01*
X66876119Y-52693943D01*
X66964865Y-52636740D01*
X67062284Y-52591976D01*
X67169865Y-52558992D01*
X67289094Y-52537127D01*
X67312661Y-52534236D01*
X67436619Y-52527640D01*
X67558628Y-52535883D01*
X67676615Y-52558518D01*
X67788505Y-52595102D01*
X67892226Y-52645191D01*
X67925888Y-52665621D01*
X67963623Y-52693034D01*
X68007541Y-52729938D01*
X68053487Y-52772417D01*
X68097302Y-52816555D01*
X68134829Y-52858434D01*
X68148271Y-52875128D01*
X68211660Y-52967510D01*
X68267435Y-53070494D01*
X68315782Y-53184779D01*
X68356890Y-53311063D01*
X68390945Y-53450044D01*
X68418137Y-53602420D01*
X68438652Y-53768889D01*
X68452678Y-53950149D01*
X68456225Y-54020288D01*
X68460834Y-54229653D01*
X68455980Y-54430163D01*
X68441793Y-54620977D01*
X68418404Y-54801259D01*
X68385944Y-54970168D01*
X68344542Y-55126867D01*
X68294330Y-55270516D01*
X68244493Y-55382389D01*
X68186282Y-55488248D01*
X68121399Y-55583364D01*
X68046109Y-55672823D01*
X67987054Y-55733029D01*
X67890676Y-55818235D01*
X67790170Y-55891036D01*
X67684325Y-55951796D01*
X67571932Y-56000881D01*
X67451781Y-56038655D01*
X67322662Y-56065482D01*
X67183365Y-56081728D01*
X67032681Y-56087758D01*
X66869400Y-56083936D01*
X66830467Y-56081734D01*
X66608163Y-56059602D01*
X66388604Y-56021173D01*
X66205004Y-55975773D01*
X66149559Y-55959309D01*
X66093558Y-55941186D01*
X66040272Y-55922597D01*
X65992969Y-55904735D01*
X65954920Y-55888792D01*
X65929395Y-55875961D01*
X65926650Y-55874250D01*
X65907600Y-55861810D01*
X65907600Y-53615254D01*
X66728783Y-53615254D01*
X66730941Y-54444158D01*
X66733100Y-55273062D01*
X66789517Y-55292416D01*
X66857439Y-55311666D01*
X66931616Y-55325741D01*
X67007611Y-55334290D01*
X67080988Y-55336962D01*
X67147311Y-55333406D01*
X67197130Y-55324637D01*
X67274182Y-55295986D01*
X67343965Y-55252270D01*
X67406073Y-55193906D01*
X67460098Y-55121311D01*
X67505635Y-55034901D01*
X67523804Y-54990134D01*
X67547941Y-54912615D01*
X67568469Y-54821020D01*
X67585322Y-54717831D01*
X67598433Y-54605532D01*
X67607739Y-54486604D01*
X67613172Y-54363530D01*
X67614667Y-54238792D01*
X67612160Y-54114873D01*
X67605583Y-53994255D01*
X67594872Y-53879420D01*
X67579960Y-53772851D01*
X67560783Y-53677031D01*
X67558734Y-53668563D01*
X67528803Y-53568085D01*
X67492146Y-53483013D01*
X67448536Y-53413118D01*
X67397744Y-53358169D01*
X67339543Y-53317935D01*
X67273704Y-53292188D01*
X67199999Y-53280695D01*
X67173946Y-53279992D01*
X67083857Y-53287632D01*
X67002036Y-53310022D01*
X66928814Y-53346954D01*
X66864518Y-53398222D01*
X66809477Y-53463619D01*
X66767441Y-53535787D01*
X66728783Y-53615254D01*
X65907600Y-53615254D01*
X65907600Y-51256171D01*
X66316117Y-51258369D01*
G36*
X70204455Y-52531019D02*
X70271472Y-52532614D01*
X70328530Y-52535767D01*
X70379106Y-52540883D01*
X70426681Y-52548369D01*
X70474732Y-52558630D01*
X70526738Y-52572073D01*
X70560033Y-52581474D01*
X70688180Y-52626149D01*
X70806200Y-52683423D01*
X70914214Y-52753472D01*
X71012342Y-52836472D01*
X71100707Y-52932597D01*
X71179428Y-53042025D01*
X71248627Y-53164932D01*
X71308424Y-53301492D01*
X71358942Y-53451882D01*
X71400299Y-53616279D01*
X71432619Y-53794857D01*
X71442286Y-53864367D01*
X71446386Y-53899888D01*
X71449695Y-53937591D01*
X71452287Y-53979670D01*
X71454235Y-54028316D01*
X71455614Y-54085722D01*
X71456497Y-54154081D01*
X71456956Y-54235584D01*
X71457068Y-54304334D01*
X71457015Y-54390624D01*
X71456717Y-54462377D01*
X71456077Y-54521991D01*
X71454998Y-54571860D01*
X71453381Y-54614382D01*
X71451130Y-54651952D01*
X71448147Y-54686967D01*
X71444334Y-54721823D01*
X71439594Y-54758916D01*
X71438126Y-54769742D01*
X71410833Y-54936864D01*
X71376403Y-55089839D01*
X71334358Y-55230094D01*
X71284218Y-55359052D01*
X71225504Y-55478137D01*
X71167397Y-55574334D01*
X71136033Y-55616968D01*
X71094882Y-55665783D01*
X71047296Y-55717388D01*
X70996624Y-55768397D01*
X70946218Y-55815421D01*
X70899427Y-55855072D01*
X70864000Y-55881113D01*
X70744636Y-55949960D01*
X70615838Y-56005369D01*
X70478813Y-56047073D01*
X70334769Y-56074805D01*
X70184914Y-56088296D01*
X70030456Y-56087280D01*
X69957219Y-56081774D01*
X69808022Y-56060095D01*
X69669022Y-56024920D01*
X69540207Y-55976238D01*
X69421563Y-55914037D01*
X69313076Y-55838303D01*
X69214733Y-55749025D01*
X69126522Y-55646191D01*
X69048428Y-55529788D01*
X68980439Y-55399804D01*
X68922540Y-55256227D01*
X68874720Y-55099045D01*
X68870666Y-55083267D01*
X68846065Y-54975993D01*
X68826285Y-54866580D01*
X68810940Y-54751854D01*
X68799648Y-54628640D01*
X68792023Y-54493763D01*
X68789162Y-54410167D01*
X68788411Y-54211295D01*
X68789297Y-54191724D01*
X69626508Y-54191724D01*
X69626532Y-54363819D01*
X69627127Y-54393106D01*
X69630406Y-54498452D01*
X69635273Y-54590351D01*
X69642068Y-54672245D01*
X69651133Y-54747573D01*
X69662809Y-54819777D01*
X69675994Y-54885678D01*
X69705432Y-54998715D01*
X69741511Y-55096258D01*
X69784427Y-55178471D01*
X69834372Y-55245517D01*
X69891540Y-55297560D01*
X69956124Y-55334765D01*
X70028317Y-55357293D01*
X70108313Y-55365309D01*
X70196306Y-55358977D01*
X70228995Y-55353408D01*
X70298057Y-55331552D01*
X70361829Y-55294298D01*
X70419589Y-55242552D01*
X70470616Y-55177220D01*
X70514188Y-55099207D01*
X70549586Y-55009422D01*
X70573668Y-54920172D01*
X70593239Y-54813358D01*
X70608557Y-54693203D01*
X70619424Y-54562807D01*
X70625641Y-54425270D01*
X70627009Y-54283694D01*
X70623430Y-54143467D01*
X70613912Y-53991267D01*
X70599172Y-53854748D01*
X70578993Y-53733416D01*
X70553160Y-53626777D01*
X70521458Y-53534336D01*
X70483671Y-53455598D01*
X70439584Y-53390068D01*
X70388980Y-53337254D01*
X70331646Y-53296659D01*
X70267364Y-53267789D01*
X70238004Y-53258979D01*
X70163152Y-53246968D01*
X70085996Y-53248172D01*
X70011003Y-53262022D01*
X69942639Y-53287948D01*
X69921929Y-53299275D01*
X69861857Y-53343684D01*
X69808784Y-53401082D01*
X69762632Y-53471769D01*
X69723318Y-53556044D01*
X69690762Y-53654206D01*
X69664884Y-53766556D01*
X69645603Y-53893393D01*
X69632838Y-54035016D01*
X69626508Y-54191724D01*
X68789297Y-54191724D01*
X68797065Y-54020293D01*
X68814954Y-53838576D01*
X68841909Y-53667557D01*
X68877760Y-53508652D01*
X68910343Y-53398400D01*
X68932980Y-53336723D01*
X68961829Y-53268806D01*
X68994786Y-53198848D01*
X69029749Y-53131050D01*
X69064616Y-53069612D01*
X69097284Y-53018733D01*
X69107430Y-53004700D01*
X69198838Y-52895290D01*
X69297813Y-52800641D01*
X69405190Y-52720223D01*
X69521805Y-52653509D01*
X69648494Y-52599970D01*
X69786093Y-52559076D01*
X69826272Y-52549910D01*
X69857068Y-52543669D01*
X69885660Y-52538918D01*
X69915082Y-52535457D01*
X69948371Y-52533091D01*
X69988561Y-52531622D01*
X70038690Y-52530853D01*
X70101791Y-52530586D01*
X70124000Y-52530575D01*
X70204455Y-52531019D01*
X70204455Y-52531019D01*
G37*
X70204455Y-52531019D02*
X70271472Y-52532614D01*
X70328530Y-52535767D01*
X70379106Y-52540883D01*
X70426681Y-52548369D01*
X70474732Y-52558630D01*
X70526738Y-52572073D01*
X70560033Y-52581474D01*
X70688180Y-52626149D01*
X70806200Y-52683423D01*
X70914214Y-52753472D01*
X71012342Y-52836472D01*
X71100707Y-52932597D01*
X71179428Y-53042025D01*
X71248627Y-53164932D01*
X71308424Y-53301492D01*
X71358942Y-53451882D01*
X71400299Y-53616279D01*
X71432619Y-53794857D01*
X71442286Y-53864367D01*
X71446386Y-53899888D01*
X71449695Y-53937591D01*
X71452287Y-53979670D01*
X71454235Y-54028316D01*
X71455614Y-54085722D01*
X71456497Y-54154081D01*
X71456956Y-54235584D01*
X71457068Y-54304334D01*
X71457015Y-54390624D01*
X71456717Y-54462377D01*
X71456077Y-54521991D01*
X71454998Y-54571860D01*
X71453381Y-54614382D01*
X71451130Y-54651952D01*
X71448147Y-54686967D01*
X71444334Y-54721823D01*
X71439594Y-54758916D01*
X71438126Y-54769742D01*
X71410833Y-54936864D01*
X71376403Y-55089839D01*
X71334358Y-55230094D01*
X71284218Y-55359052D01*
X71225504Y-55478137D01*
X71167397Y-55574334D01*
X71136033Y-55616968D01*
X71094882Y-55665783D01*
X71047296Y-55717388D01*
X70996624Y-55768397D01*
X70946218Y-55815421D01*
X70899427Y-55855072D01*
X70864000Y-55881113D01*
X70744636Y-55949960D01*
X70615838Y-56005369D01*
X70478813Y-56047073D01*
X70334769Y-56074805D01*
X70184914Y-56088296D01*
X70030456Y-56087280D01*
X69957219Y-56081774D01*
X69808022Y-56060095D01*
X69669022Y-56024920D01*
X69540207Y-55976238D01*
X69421563Y-55914037D01*
X69313076Y-55838303D01*
X69214733Y-55749025D01*
X69126522Y-55646191D01*
X69048428Y-55529788D01*
X68980439Y-55399804D01*
X68922540Y-55256227D01*
X68874720Y-55099045D01*
X68870666Y-55083267D01*
X68846065Y-54975993D01*
X68826285Y-54866580D01*
X68810940Y-54751854D01*
X68799648Y-54628640D01*
X68792023Y-54493763D01*
X68789162Y-54410167D01*
X68788411Y-54211295D01*
X68789297Y-54191724D01*
X69626508Y-54191724D01*
X69626532Y-54363819D01*
X69627127Y-54393106D01*
X69630406Y-54498452D01*
X69635273Y-54590351D01*
X69642068Y-54672245D01*
X69651133Y-54747573D01*
X69662809Y-54819777D01*
X69675994Y-54885678D01*
X69705432Y-54998715D01*
X69741511Y-55096258D01*
X69784427Y-55178471D01*
X69834372Y-55245517D01*
X69891540Y-55297560D01*
X69956124Y-55334765D01*
X70028317Y-55357293D01*
X70108313Y-55365309D01*
X70196306Y-55358977D01*
X70228995Y-55353408D01*
X70298057Y-55331552D01*
X70361829Y-55294298D01*
X70419589Y-55242552D01*
X70470616Y-55177220D01*
X70514188Y-55099207D01*
X70549586Y-55009422D01*
X70573668Y-54920172D01*
X70593239Y-54813358D01*
X70608557Y-54693203D01*
X70619424Y-54562807D01*
X70625641Y-54425270D01*
X70627009Y-54283694D01*
X70623430Y-54143467D01*
X70613912Y-53991267D01*
X70599172Y-53854748D01*
X70578993Y-53733416D01*
X70553160Y-53626777D01*
X70521458Y-53534336D01*
X70483671Y-53455598D01*
X70439584Y-53390068D01*
X70388980Y-53337254D01*
X70331646Y-53296659D01*
X70267364Y-53267789D01*
X70238004Y-53258979D01*
X70163152Y-53246968D01*
X70085996Y-53248172D01*
X70011003Y-53262022D01*
X69942639Y-53287948D01*
X69921929Y-53299275D01*
X69861857Y-53343684D01*
X69808784Y-53401082D01*
X69762632Y-53471769D01*
X69723318Y-53556044D01*
X69690762Y-53654206D01*
X69664884Y-53766556D01*
X69645603Y-53893393D01*
X69632838Y-54035016D01*
X69626508Y-54191724D01*
X68789297Y-54191724D01*
X68797065Y-54020293D01*
X68814954Y-53838576D01*
X68841909Y-53667557D01*
X68877760Y-53508652D01*
X68910343Y-53398400D01*
X68932980Y-53336723D01*
X68961829Y-53268806D01*
X68994786Y-53198848D01*
X69029749Y-53131050D01*
X69064616Y-53069612D01*
X69097284Y-53018733D01*
X69107430Y-53004700D01*
X69198838Y-52895290D01*
X69297813Y-52800641D01*
X69405190Y-52720223D01*
X69521805Y-52653509D01*
X69648494Y-52599970D01*
X69786093Y-52559076D01*
X69826272Y-52549910D01*
X69857068Y-52543669D01*
X69885660Y-52538918D01*
X69915082Y-52535457D01*
X69948371Y-52533091D01*
X69988561Y-52531622D01*
X70038690Y-52530853D01*
X70101791Y-52530586D01*
X70124000Y-52530575D01*
X70204455Y-52531019D01*
G36*
X78736717Y-51258367D02*
X79136767Y-51260567D01*
X79141682Y-53389934D01*
X79142288Y-53640659D01*
X79142912Y-53874770D01*
X79143555Y-54092586D01*
X79144219Y-54294425D01*
X79144907Y-54480607D01*
X79145621Y-54651450D01*
X79146363Y-54807274D01*
X79147135Y-54948398D01*
X79147939Y-55075140D01*
X79148777Y-55187820D01*
X79149651Y-55286756D01*
X79150563Y-55372267D01*
X79151517Y-55444674D01*
X79152512Y-55504293D01*
X79153552Y-55551445D01*
X79154639Y-55586449D01*
X79155775Y-55609623D01*
X79156341Y-55616667D01*
X79162812Y-55680069D01*
X79169559Y-55743946D01*
X79176270Y-55805549D01*
X79182634Y-55862129D01*
X79188341Y-55910934D01*
X79193080Y-55949216D01*
X79196540Y-55974224D01*
X79197283Y-55978731D01*
X79202194Y-56006361D01*
X78916117Y-56004131D01*
X78630041Y-56001900D01*
X78577638Y-55811400D01*
X78560324Y-55749175D01*
X78546530Y-55701540D01*
X78535612Y-55666673D01*
X78526923Y-55642751D01*
X78519818Y-55627951D01*
X78513649Y-55620451D01*
X78509268Y-55618524D01*
X78496230Y-55622276D01*
X78482192Y-55638907D01*
X78472133Y-55656495D01*
X78457078Y-55682223D01*
X78435542Y-55715367D01*
X78411440Y-55749974D01*
X78403761Y-55760471D01*
X78328718Y-55848089D01*
X78243830Y-55921952D01*
X78149167Y-55982030D01*
X78044799Y-56028298D01*
X77930796Y-56060726D01*
X77807228Y-56079286D01*
X77674165Y-56083951D01*
X77604300Y-56081078D01*
X77475996Y-56065441D01*
X77356573Y-56035532D01*
X77245247Y-55990980D01*
X77141233Y-55931418D01*
X77043748Y-55856475D01*
X76965557Y-55780539D01*
X76894542Y-55695823D01*
X76831472Y-55601917D01*
X76776120Y-55498049D01*
X76728258Y-55383451D01*
X76687660Y-55257354D01*
X76654100Y-55118987D01*
X76627350Y-54967582D01*
X76607183Y-54802369D01*
X76593372Y-54622579D01*
X76587750Y-54499067D01*
X76585997Y-54363600D01*
X77426500Y-54363600D01*
X77426632Y-54449989D01*
X77427084Y-54521638D01*
X77427938Y-54580739D01*
X77429276Y-54629483D01*
X77431179Y-54670063D01*
X77433732Y-54704669D01*
X77437014Y-54735494D01*
X77441109Y-54764730D01*
X77441676Y-54768339D01*
X77464490Y-54889524D01*
X77492208Y-54995055D01*
X77525221Y-55085598D01*
X77563922Y-55161820D01*
X77608700Y-55224387D01*
X77659947Y-55273966D01*
X77718054Y-55311224D01*
X77773633Y-55333862D01*
X77805290Y-55340156D01*
X77848101Y-55343671D01*
X77896515Y-55344407D01*
X77944982Y-55342363D01*
X77987953Y-55337539D01*
X78006467Y-55333887D01*
X78068979Y-55314094D01*
X78123236Y-55285677D01*
X78174789Y-55245464D01*
X78195082Y-55226177D01*
X78226880Y-55192397D01*
X78251938Y-55159580D01*
X78274585Y-55121497D01*
X78292449Y-55086027D01*
X78332433Y-55002834D01*
X78336917Y-53390920D01*
X78298451Y-53364454D01*
X78243528Y-53331193D01*
X78187215Y-53307083D01*
X78125793Y-53291146D01*
X78055543Y-53282402D01*
X77977057Y-53279867D01*
X77889815Y-53284468D01*
X77814514Y-53298904D01*
X77748682Y-53324128D01*
X77689845Y-53361091D01*
X77635528Y-53410744D01*
X77634812Y-53411508D01*
X77586415Y-53470989D01*
X77545919Y-53538298D01*
X77512308Y-53615702D01*
X77484564Y-53705466D01*
X77465843Y-53788038D01*
X77455801Y-53841125D01*
X77447579Y-53890681D01*
X77441003Y-53939223D01*
X77435902Y-53989268D01*
X77432105Y-54043332D01*
X77429438Y-54103931D01*
X77427730Y-54173584D01*
X77426809Y-54254805D01*
X77426503Y-54350112D01*
X77426500Y-54363600D01*
X76585997Y-54363600D01*
X76585526Y-54327211D01*
X76590531Y-54156659D01*
X76602474Y-53989637D01*
X76621066Y-53828371D01*
X76646019Y-53675089D01*
X76677042Y-53532016D01*
X76713848Y-53401380D01*
X76740143Y-53325752D01*
X76800476Y-53184268D01*
X76869158Y-53057421D01*
X76946488Y-52944949D01*
X77032768Y-52846591D01*
X77128296Y-52762085D01*
X77233374Y-52691169D01*
X77348302Y-52633583D01*
X77473379Y-52589063D01*
X77608907Y-52557350D01*
X77625366Y-52554480D01*
X77686688Y-52547009D01*
X77764494Y-52542488D01*
X77858879Y-52540912D01*
X77862533Y-52540910D01*
X77953144Y-52542346D01*
X78030968Y-52547020D01*
X78099936Y-52555468D01*
X78163979Y-52568230D01*
X78227028Y-52585844D01*
X78253005Y-52594422D01*
X78285726Y-52605463D01*
X78312130Y-52614019D01*
X78328319Y-52618843D01*
X78331321Y-52619467D01*
X78332151Y-52611211D01*
X78332941Y-52587285D01*
X78333682Y-52548952D01*
X78334364Y-52497476D01*
X78334976Y-52434119D01*
X78335509Y-52360146D01*
X78335954Y-52276819D01*
X78336300Y-52185402D01*
X78336536Y-52087159D01*
X78336655Y-51983351D01*
X78336667Y-51937817D01*
X78336667Y-51256168D01*
X78736717Y-51258367D01*
X78736717Y-51258367D01*
G37*
X78736717Y-51258367D02*
X79136767Y-51260567D01*
X79141682Y-53389934D01*
X79142288Y-53640659D01*
X79142912Y-53874770D01*
X79143555Y-54092586D01*
X79144219Y-54294425D01*
X79144907Y-54480607D01*
X79145621Y-54651450D01*
X79146363Y-54807274D01*
X79147135Y-54948398D01*
X79147939Y-55075140D01*
X79148777Y-55187820D01*
X79149651Y-55286756D01*
X79150563Y-55372267D01*
X79151517Y-55444674D01*
X79152512Y-55504293D01*
X79153552Y-55551445D01*
X79154639Y-55586449D01*
X79155775Y-55609623D01*
X79156341Y-55616667D01*
X79162812Y-55680069D01*
X79169559Y-55743946D01*
X79176270Y-55805549D01*
X79182634Y-55862129D01*
X79188341Y-55910934D01*
X79193080Y-55949216D01*
X79196540Y-55974224D01*
X79197283Y-55978731D01*
X79202194Y-56006361D01*
X78916117Y-56004131D01*
X78630041Y-56001900D01*
X78577638Y-55811400D01*
X78560324Y-55749175D01*
X78546530Y-55701540D01*
X78535612Y-55666673D01*
X78526923Y-55642751D01*
X78519818Y-55627951D01*
X78513649Y-55620451D01*
X78509268Y-55618524D01*
X78496230Y-55622276D01*
X78482192Y-55638907D01*
X78472133Y-55656495D01*
X78457078Y-55682223D01*
X78435542Y-55715367D01*
X78411440Y-55749974D01*
X78403761Y-55760471D01*
X78328718Y-55848089D01*
X78243830Y-55921952D01*
X78149167Y-55982030D01*
X78044799Y-56028298D01*
X77930796Y-56060726D01*
X77807228Y-56079286D01*
X77674165Y-56083951D01*
X77604300Y-56081078D01*
X77475996Y-56065441D01*
X77356573Y-56035532D01*
X77245247Y-55990980D01*
X77141233Y-55931418D01*
X77043748Y-55856475D01*
X76965557Y-55780539D01*
X76894542Y-55695823D01*
X76831472Y-55601917D01*
X76776120Y-55498049D01*
X76728258Y-55383451D01*
X76687660Y-55257354D01*
X76654100Y-55118987D01*
X76627350Y-54967582D01*
X76607183Y-54802369D01*
X76593372Y-54622579D01*
X76587750Y-54499067D01*
X76585997Y-54363600D01*
X77426500Y-54363600D01*
X77426632Y-54449989D01*
X77427084Y-54521638D01*
X77427938Y-54580739D01*
X77429276Y-54629483D01*
X77431179Y-54670063D01*
X77433732Y-54704669D01*
X77437014Y-54735494D01*
X77441109Y-54764730D01*
X77441676Y-54768339D01*
X77464490Y-54889524D01*
X77492208Y-54995055D01*
X77525221Y-55085598D01*
X77563922Y-55161820D01*
X77608700Y-55224387D01*
X77659947Y-55273966D01*
X77718054Y-55311224D01*
X77773633Y-55333862D01*
X77805290Y-55340156D01*
X77848101Y-55343671D01*
X77896515Y-55344407D01*
X77944982Y-55342363D01*
X77987953Y-55337539D01*
X78006467Y-55333887D01*
X78068979Y-55314094D01*
X78123236Y-55285677D01*
X78174789Y-55245464D01*
X78195082Y-55226177D01*
X78226880Y-55192397D01*
X78251938Y-55159580D01*
X78274585Y-55121497D01*
X78292449Y-55086027D01*
X78332433Y-55002834D01*
X78336917Y-53390920D01*
X78298451Y-53364454D01*
X78243528Y-53331193D01*
X78187215Y-53307083D01*
X78125793Y-53291146D01*
X78055543Y-53282402D01*
X77977057Y-53279867D01*
X77889815Y-53284468D01*
X77814514Y-53298904D01*
X77748682Y-53324128D01*
X77689845Y-53361091D01*
X77635528Y-53410744D01*
X77634812Y-53411508D01*
X77586415Y-53470989D01*
X77545919Y-53538298D01*
X77512308Y-53615702D01*
X77484564Y-53705466D01*
X77465843Y-53788038D01*
X77455801Y-53841125D01*
X77447579Y-53890681D01*
X77441003Y-53939223D01*
X77435902Y-53989268D01*
X77432105Y-54043332D01*
X77429438Y-54103931D01*
X77427730Y-54173584D01*
X77426809Y-54254805D01*
X77426503Y-54350112D01*
X77426500Y-54363600D01*
X76585997Y-54363600D01*
X76585526Y-54327211D01*
X76590531Y-54156659D01*
X76602474Y-53989637D01*
X76621066Y-53828371D01*
X76646019Y-53675089D01*
X76677042Y-53532016D01*
X76713848Y-53401380D01*
X76740143Y-53325752D01*
X76800476Y-53184268D01*
X76869158Y-53057421D01*
X76946488Y-52944949D01*
X77032768Y-52846591D01*
X77128296Y-52762085D01*
X77233374Y-52691169D01*
X77348302Y-52633583D01*
X77473379Y-52589063D01*
X77608907Y-52557350D01*
X77625366Y-52554480D01*
X77686688Y-52547009D01*
X77764494Y-52542488D01*
X77858879Y-52540912D01*
X77862533Y-52540910D01*
X77953144Y-52542346D01*
X78030968Y-52547020D01*
X78099936Y-52555468D01*
X78163979Y-52568230D01*
X78227028Y-52585844D01*
X78253005Y-52594422D01*
X78285726Y-52605463D01*
X78312130Y-52614019D01*
X78328319Y-52618843D01*
X78331321Y-52619467D01*
X78332151Y-52611211D01*
X78332941Y-52587285D01*
X78333682Y-52548952D01*
X78334364Y-52497476D01*
X78334976Y-52434119D01*
X78335509Y-52360146D01*
X78335954Y-52276819D01*
X78336300Y-52185402D01*
X78336536Y-52087159D01*
X78336655Y-51983351D01*
X78336667Y-51937817D01*
X78336667Y-51256168D01*
X78736717Y-51258367D01*
G36*
X80748397Y-52532183D02*
X80848943Y-52536676D01*
X80941256Y-52544825D01*
X81029589Y-52557175D01*
X81118194Y-52574269D01*
X81211323Y-52596650D01*
X81266133Y-52611444D01*
X81322881Y-52628418D01*
X81379738Y-52647517D01*
X81434510Y-52667786D01*
X81485005Y-52688272D01*
X81529029Y-52708019D01*
X81564390Y-52726074D01*
X81588893Y-52741482D01*
X81600346Y-52753289D01*
X81600710Y-52757027D01*
X81596296Y-52770931D01*
X81587923Y-52798046D01*
X81576251Y-52836187D01*
X81561942Y-52883167D01*
X81545655Y-52936800D01*
X81528051Y-52994901D01*
X81509789Y-53055282D01*
X81491531Y-53115758D01*
X81473937Y-53174142D01*
X81457666Y-53228249D01*
X81443380Y-53275892D01*
X81431738Y-53314885D01*
X81423402Y-53343042D01*
X81419031Y-53358177D01*
X81418533Y-53360160D01*
X81413713Y-53364220D01*
X81398209Y-53362184D01*
X81370457Y-53353675D01*
X81330596Y-53338971D01*
X81215903Y-53298686D01*
X81102234Y-53266219D01*
X80991537Y-53241818D01*
X80885761Y-53225732D01*
X80786855Y-53218210D01*
X80696767Y-53219499D01*
X80617447Y-53229849D01*
X80570941Y-53242094D01*
X80529717Y-53261932D01*
X80490196Y-53291590D01*
X80458215Y-53326212D01*
X80445554Y-53346393D01*
X80427457Y-53394558D01*
X80416324Y-53450377D01*
X80413587Y-53505497D01*
X80415033Y-53524412D01*
X80421905Y-53563625D01*
X80433467Y-53600360D01*
X80450798Y-53635591D01*
X80474982Y-53670290D01*
X80507099Y-53705429D01*
X80548231Y-53741982D01*
X80599460Y-53780921D01*
X80661867Y-53823219D01*
X80736534Y-53869849D01*
X80824542Y-53921784D01*
X80912657Y-53971956D01*
X80998925Y-54021164D01*
X81072199Y-54064616D01*
X81134762Y-54103861D01*
X81188896Y-54140451D01*
X81236883Y-54175935D01*
X81281007Y-54211864D01*
X81323548Y-54249788D01*
X81328552Y-54254450D01*
X81421458Y-54350876D01*
X81498661Y-54452017D01*
X81560585Y-54558873D01*
X81607654Y-54672444D01*
X81640292Y-54793730D01*
X81658922Y-54923730D01*
X81664067Y-55045900D01*
X81656979Y-55186106D01*
X81635918Y-55318701D01*
X81601188Y-55443019D01*
X81553093Y-55558392D01*
X81491936Y-55664154D01*
X81418022Y-55759639D01*
X81331654Y-55844180D01*
X81282342Y-55883285D01*
X81190598Y-55941478D01*
X81086570Y-55990533D01*
X80972701Y-56029671D01*
X80851435Y-56058112D01*
X80725215Y-56075076D01*
X80670424Y-56078630D01*
X80628401Y-56080580D01*
X80590870Y-56082509D01*
X80562034Y-56084188D01*
X80546467Y-56085350D01*
X80530330Y-56085744D01*
X80501161Y-56085268D01*
X80462833Y-56084024D01*
X80419218Y-56082118D01*
X80410522Y-56081683D01*
X80265528Y-56069222D01*
X80121554Y-56047123D01*
X79981778Y-56016164D01*
X79849379Y-55977122D01*
X79727533Y-55930776D01*
X79654375Y-55896531D01*
X79621361Y-55878855D01*
X79593859Y-55862544D01*
X79575590Y-55849890D01*
X79570545Y-55844906D01*
X79570040Y-55836195D01*
X79573639Y-55817344D01*
X79581623Y-55787426D01*
X79594275Y-55745513D01*
X79611876Y-55690679D01*
X79634710Y-55621996D01*
X79663057Y-55538538D01*
X79669480Y-55519795D01*
X79693302Y-55450513D01*
X79715502Y-55386217D01*
X79735463Y-55328678D01*
X79752565Y-55279666D01*
X79766190Y-55240952D01*
X79775720Y-55214307D01*
X79780537Y-55201501D01*
X79780916Y-55200695D01*
X79789938Y-55200729D01*
X79808964Y-55207953D01*
X79829320Y-55218335D01*
X79866388Y-55237175D01*
X79915054Y-55259124D01*
X79970726Y-55282327D01*
X80028812Y-55304932D01*
X80084719Y-55325088D01*
X80131600Y-55340269D01*
X80220344Y-55363334D01*
X80310635Y-55380392D01*
X80398977Y-55391113D01*
X80481874Y-55395168D01*
X80555831Y-55392226D01*
X80604704Y-55384939D01*
X80679939Y-55363279D01*
X80740905Y-55333126D01*
X80788379Y-55293754D01*
X80823137Y-55244438D01*
X80845958Y-55184453D01*
X80852570Y-55153606D01*
X80857759Y-55078119D01*
X80846680Y-55006272D01*
X80819199Y-54937704D01*
X80775180Y-54872055D01*
X80728122Y-54821542D01*
X80699614Y-54795382D01*
X80670249Y-54770612D01*
X80638079Y-54745929D01*
X80601156Y-54720028D01*
X80557531Y-54691608D01*
X80505258Y-54659364D01*
X80442388Y-54621993D01*
X80366974Y-54578192D01*
X80348751Y-54567705D01*
X80277054Y-54526304D01*
X80217844Y-54491570D01*
X80168789Y-54461976D01*
X80127559Y-54435989D01*
X80091824Y-54412082D01*
X80059254Y-54388724D01*
X80027517Y-54364385D01*
X79994284Y-54337536D01*
X79979711Y-54325469D01*
X79881994Y-54234865D01*
X79799607Y-54138208D01*
X79732290Y-54034890D01*
X79679783Y-53924302D01*
X79641826Y-53805836D01*
X79618161Y-53678882D01*
X79608525Y-53542832D01*
X79609331Y-53457667D01*
X79620440Y-53318853D01*
X79643212Y-53191972D01*
X79677846Y-53076492D01*
X79724544Y-52971880D01*
X79783508Y-52877603D01*
X79854939Y-52793129D01*
X79863966Y-52784015D01*
X79934456Y-52721086D01*
X80009768Y-52668457D01*
X80092523Y-52624824D01*
X80185341Y-52588880D01*
X80290845Y-52559319D01*
X80334800Y-52549491D01*
X80365152Y-52543489D01*
X80393780Y-52538907D01*
X80423658Y-52535559D01*
X80457762Y-52533261D01*
X80499067Y-52531827D01*
X80550546Y-52531072D01*
X80615174Y-52530812D01*
X80635367Y-52530803D01*
X80748397Y-52532183D01*
X80748397Y-52532183D01*
G37*
X80748397Y-52532183D02*
X80848943Y-52536676D01*
X80941256Y-52544825D01*
X81029589Y-52557175D01*
X81118194Y-52574269D01*
X81211323Y-52596650D01*
X81266133Y-52611444D01*
X81322881Y-52628418D01*
X81379738Y-52647517D01*
X81434510Y-52667786D01*
X81485005Y-52688272D01*
X81529029Y-52708019D01*
X81564390Y-52726074D01*
X81588893Y-52741482D01*
X81600346Y-52753289D01*
X81600710Y-52757027D01*
X81596296Y-52770931D01*
X81587923Y-52798046D01*
X81576251Y-52836187D01*
X81561942Y-52883167D01*
X81545655Y-52936800D01*
X81528051Y-52994901D01*
X81509789Y-53055282D01*
X81491531Y-53115758D01*
X81473937Y-53174142D01*
X81457666Y-53228249D01*
X81443380Y-53275892D01*
X81431738Y-53314885D01*
X81423402Y-53343042D01*
X81419031Y-53358177D01*
X81418533Y-53360160D01*
X81413713Y-53364220D01*
X81398209Y-53362184D01*
X81370457Y-53353675D01*
X81330596Y-53338971D01*
X81215903Y-53298686D01*
X81102234Y-53266219D01*
X80991537Y-53241818D01*
X80885761Y-53225732D01*
X80786855Y-53218210D01*
X80696767Y-53219499D01*
X80617447Y-53229849D01*
X80570941Y-53242094D01*
X80529717Y-53261932D01*
X80490196Y-53291590D01*
X80458215Y-53326212D01*
X80445554Y-53346393D01*
X80427457Y-53394558D01*
X80416324Y-53450377D01*
X80413587Y-53505497D01*
X80415033Y-53524412D01*
X80421905Y-53563625D01*
X80433467Y-53600360D01*
X80450798Y-53635591D01*
X80474982Y-53670290D01*
X80507099Y-53705429D01*
X80548231Y-53741982D01*
X80599460Y-53780921D01*
X80661867Y-53823219D01*
X80736534Y-53869849D01*
X80824542Y-53921784D01*
X80912657Y-53971956D01*
X80998925Y-54021164D01*
X81072199Y-54064616D01*
X81134762Y-54103861D01*
X81188896Y-54140451D01*
X81236883Y-54175935D01*
X81281007Y-54211864D01*
X81323548Y-54249788D01*
X81328552Y-54254450D01*
X81421458Y-54350876D01*
X81498661Y-54452017D01*
X81560585Y-54558873D01*
X81607654Y-54672444D01*
X81640292Y-54793730D01*
X81658922Y-54923730D01*
X81664067Y-55045900D01*
X81656979Y-55186106D01*
X81635918Y-55318701D01*
X81601188Y-55443019D01*
X81553093Y-55558392D01*
X81491936Y-55664154D01*
X81418022Y-55759639D01*
X81331654Y-55844180D01*
X81282342Y-55883285D01*
X81190598Y-55941478D01*
X81086570Y-55990533D01*
X80972701Y-56029671D01*
X80851435Y-56058112D01*
X80725215Y-56075076D01*
X80670424Y-56078630D01*
X80628401Y-56080580D01*
X80590870Y-56082509D01*
X80562034Y-56084188D01*
X80546467Y-56085350D01*
X80530330Y-56085744D01*
X80501161Y-56085268D01*
X80462833Y-56084024D01*
X80419218Y-56082118D01*
X80410522Y-56081683D01*
X80265528Y-56069222D01*
X80121554Y-56047123D01*
X79981778Y-56016164D01*
X79849379Y-55977122D01*
X79727533Y-55930776D01*
X79654375Y-55896531D01*
X79621361Y-55878855D01*
X79593859Y-55862544D01*
X79575590Y-55849890D01*
X79570545Y-55844906D01*
X79570040Y-55836195D01*
X79573639Y-55817344D01*
X79581623Y-55787426D01*
X79594275Y-55745513D01*
X79611876Y-55690679D01*
X79634710Y-55621996D01*
X79663057Y-55538538D01*
X79669480Y-55519795D01*
X79693302Y-55450513D01*
X79715502Y-55386217D01*
X79735463Y-55328678D01*
X79752565Y-55279666D01*
X79766190Y-55240952D01*
X79775720Y-55214307D01*
X79780537Y-55201501D01*
X79780916Y-55200695D01*
X79789938Y-55200729D01*
X79808964Y-55207953D01*
X79829320Y-55218335D01*
X79866388Y-55237175D01*
X79915054Y-55259124D01*
X79970726Y-55282327D01*
X80028812Y-55304932D01*
X80084719Y-55325088D01*
X80131600Y-55340269D01*
X80220344Y-55363334D01*
X80310635Y-55380392D01*
X80398977Y-55391113D01*
X80481874Y-55395168D01*
X80555831Y-55392226D01*
X80604704Y-55384939D01*
X80679939Y-55363279D01*
X80740905Y-55333126D01*
X80788379Y-55293754D01*
X80823137Y-55244438D01*
X80845958Y-55184453D01*
X80852570Y-55153606D01*
X80857759Y-55078119D01*
X80846680Y-55006272D01*
X80819199Y-54937704D01*
X80775180Y-54872055D01*
X80728122Y-54821542D01*
X80699614Y-54795382D01*
X80670249Y-54770612D01*
X80638079Y-54745929D01*
X80601156Y-54720028D01*
X80557531Y-54691608D01*
X80505258Y-54659364D01*
X80442388Y-54621993D01*
X80366974Y-54578192D01*
X80348751Y-54567705D01*
X80277054Y-54526304D01*
X80217844Y-54491570D01*
X80168789Y-54461976D01*
X80127559Y-54435989D01*
X80091824Y-54412082D01*
X80059254Y-54388724D01*
X80027517Y-54364385D01*
X79994284Y-54337536D01*
X79979711Y-54325469D01*
X79881994Y-54234865D01*
X79799607Y-54138208D01*
X79732290Y-54034890D01*
X79679783Y-53924302D01*
X79641826Y-53805836D01*
X79618161Y-53678882D01*
X79608525Y-53542832D01*
X79609331Y-53457667D01*
X79620440Y-53318853D01*
X79643212Y-53191972D01*
X79677846Y-53076492D01*
X79724544Y-52971880D01*
X79783508Y-52877603D01*
X79854939Y-52793129D01*
X79863966Y-52784015D01*
X79934456Y-52721086D01*
X80009768Y-52668457D01*
X80092523Y-52624824D01*
X80185341Y-52588880D01*
X80290845Y-52559319D01*
X80334800Y-52549491D01*
X80365152Y-52543489D01*
X80393780Y-52538907D01*
X80423658Y-52535559D01*
X80457762Y-52533261D01*
X80499067Y-52531827D01*
X80550546Y-52531072D01*
X80615174Y-52530812D01*
X80635367Y-52530803D01*
X80748397Y-52532183D01*
G36*
X73169140Y-52544731D02*
X73301022Y-52552972D01*
X73423702Y-52569052D01*
X73534751Y-52593132D01*
X73566494Y-52602264D01*
X73669684Y-52641083D01*
X73762331Y-52691195D01*
X73844743Y-52753039D01*
X73917229Y-52827055D01*
X73980097Y-52913684D01*
X74033654Y-53013366D01*
X74078208Y-53126541D01*
X74114068Y-53253651D01*
X74141541Y-53395134D01*
X74147060Y-53432267D01*
X74151002Y-53472021D01*
X74153964Y-53526853D01*
X74155959Y-53594934D01*
X74157000Y-53674438D01*
X74157101Y-53763538D01*
X74156274Y-53860405D01*
X74154532Y-53963214D01*
X74151889Y-54070137D01*
X74148357Y-54179346D01*
X74143949Y-54289015D01*
X74140424Y-54363600D01*
X74136379Y-54454093D01*
X74132913Y-54552046D01*
X74130034Y-54655459D01*
X74127750Y-54762332D01*
X74126067Y-54870667D01*
X74124994Y-54978462D01*
X74124538Y-55083720D01*
X74124707Y-55184440D01*
X74125508Y-55278622D01*
X74126948Y-55364268D01*
X74129036Y-55439378D01*
X74131778Y-55501951D01*
X74135183Y-55549989D01*
X74135915Y-55557400D01*
X74143784Y-55623021D01*
X74153852Y-55692561D01*
X74165494Y-55762725D01*
X74178084Y-55830219D01*
X74190998Y-55891748D01*
X74203611Y-55944018D01*
X74215295Y-55983734D01*
X74218549Y-55992768D01*
X74218547Y-55996160D01*
X74214680Y-55998931D01*
X74205447Y-56001142D01*
X74189344Y-56002855D01*
X74164868Y-56004132D01*
X74130518Y-56005034D01*
X74084789Y-56005623D01*
X74026180Y-56005961D01*
X73953188Y-56006109D01*
X73893018Y-56006133D01*
X73562359Y-56006133D01*
X73524448Y-55885483D01*
X73508123Y-55833390D01*
X73490831Y-55777986D01*
X73474518Y-55725515D01*
X73461128Y-55682220D01*
X73459845Y-55678050D01*
X73445730Y-55635677D01*
X73433700Y-55606731D01*
X73424336Y-55592527D01*
X73421519Y-55591267D01*
X73411820Y-55597949D01*
X73396264Y-55615719D01*
X73377739Y-55641163D01*
X73371964Y-55649890D01*
X73315025Y-55726403D01*
X73246035Y-55800319D01*
X73169151Y-55867882D01*
X73088535Y-55925336D01*
X73030255Y-55958465D01*
X72944993Y-55993954D01*
X72848738Y-56021052D01*
X72745518Y-56039185D01*
X72639361Y-56047779D01*
X72534295Y-56046258D01*
X72465033Y-56039082D01*
X72349500Y-56014477D01*
X72242505Y-55975460D01*
X72144506Y-55922498D01*
X72055962Y-55856062D01*
X71977332Y-55776619D01*
X71909075Y-55684638D01*
X71851648Y-55580589D01*
X71805511Y-55464940D01*
X71771123Y-55338160D01*
X71768875Y-55327463D01*
X71762476Y-55284783D01*
X71757709Y-55229353D01*
X71754569Y-55164878D01*
X71753051Y-55095062D01*
X71753150Y-55023610D01*
X71754861Y-54954224D01*
X71756054Y-54931347D01*
X72586559Y-54931347D01*
X72586575Y-54942651D01*
X72592728Y-55037407D01*
X72609536Y-55120946D01*
X72636684Y-55192682D01*
X72673851Y-55252030D01*
X72720722Y-55298406D01*
X72776977Y-55331224D01*
X72802892Y-55340691D01*
X72843675Y-55348453D01*
X72895059Y-55351093D01*
X72951582Y-55348850D01*
X73007783Y-55341963D01*
X73058198Y-55330669D01*
X73062544Y-55329358D01*
X73128301Y-55301493D01*
X73193884Y-55259870D01*
X73255782Y-55207335D01*
X73310483Y-55146731D01*
X73340700Y-55104068D01*
X73366733Y-55063018D01*
X73366733Y-54785010D01*
X73366678Y-54708794D01*
X73366451Y-54647785D01*
X73365964Y-54600256D01*
X73365125Y-54564480D01*
X73363845Y-54538731D01*
X73362033Y-54521281D01*
X73359599Y-54510406D01*
X73356454Y-54504377D01*
X73352507Y-54501468D01*
X73351916Y-54501224D01*
X73335913Y-54498521D01*
X73306365Y-54496706D01*
X73266634Y-54495731D01*
X73220084Y-54495549D01*
X73170078Y-54496113D01*
X73119978Y-54497376D01*
X73073146Y-54499289D01*
X73032946Y-54501807D01*
X73002741Y-54504881D01*
X72994200Y-54506258D01*
X72898978Y-54529303D01*
X72818168Y-54559399D01*
X72750557Y-54597071D01*
X72708964Y-54629543D01*
X72662136Y-54678043D01*
X72627631Y-54729530D01*
X72604301Y-54786948D01*
X72590993Y-54853239D01*
X72586559Y-54931347D01*
X71756054Y-54931347D01*
X71758179Y-54890610D01*
X71763101Y-54836472D01*
X71769569Y-54795743D01*
X71796330Y-54692151D01*
X71829064Y-54600501D01*
X71869649Y-54516303D01*
X71919961Y-54435067D01*
X71921018Y-54433531D01*
X71988259Y-54350530D01*
X72070006Y-54274981D01*
X72165418Y-54207183D01*
X72273654Y-54147438D01*
X72393871Y-54096043D01*
X72525228Y-54053299D01*
X72666882Y-54019505D01*
X72817993Y-53994962D01*
X72977717Y-53979969D01*
X73145214Y-53974825D01*
X73207647Y-53975450D01*
X73349127Y-53978367D01*
X73354785Y-53933012D01*
X73357385Y-53898376D01*
X73358419Y-53852035D01*
X73358047Y-53797700D01*
X73356429Y-53739084D01*
X73353724Y-53679897D01*
X73350094Y-53623851D01*
X73345698Y-53574656D01*
X73340696Y-53536026D01*
X73336836Y-53516934D01*
X73311867Y-53441057D01*
X73280026Y-53379695D01*
X73239674Y-53331257D01*
X73189172Y-53294154D01*
X73126879Y-53266796D01*
X73061133Y-53249545D01*
X72993204Y-53240647D01*
X72912862Y-53238289D01*
X72823116Y-53242012D01*
X72726974Y-53251360D01*
X72627445Y-53265877D01*
X72527537Y-53285107D01*
X72430259Y-53308592D01*
X72338619Y-53335876D01*
X72255625Y-53366503D01*
X72236433Y-53374694D01*
X72202300Y-53389548D01*
X72173006Y-53401980D01*
X72152679Y-53410252D01*
X72146661Y-53412450D01*
X72142159Y-53411042D01*
X72136313Y-53403430D01*
X72128592Y-53388258D01*
X72118466Y-53364171D01*
X72105406Y-53329812D01*
X72088880Y-53283827D01*
X72068360Y-53224859D01*
X72043314Y-53151553D01*
X72034652Y-53126012D01*
X72011984Y-53058961D01*
X71991032Y-52996750D01*
X71972421Y-52941255D01*
X71956778Y-52894353D01*
X71944727Y-52857918D01*
X71936896Y-52833828D01*
X71933924Y-52824041D01*
X71940118Y-52814666D01*
X71959787Y-52800444D01*
X71990587Y-52782564D01*
X72030171Y-52762217D01*
X72076196Y-52740591D01*
X72126316Y-52718878D01*
X72178185Y-52698265D01*
X72192098Y-52693075D01*
X72320460Y-52650931D01*
X72456605Y-52615504D01*
X72598106Y-52586953D01*
X72742537Y-52565441D01*
X72887470Y-52551126D01*
X73030480Y-52544169D01*
X73169140Y-52544731D01*
X73169140Y-52544731D01*
G37*
X73169140Y-52544731D02*
X73301022Y-52552972D01*
X73423702Y-52569052D01*
X73534751Y-52593132D01*
X73566494Y-52602264D01*
X73669684Y-52641083D01*
X73762331Y-52691195D01*
X73844743Y-52753039D01*
X73917229Y-52827055D01*
X73980097Y-52913684D01*
X74033654Y-53013366D01*
X74078208Y-53126541D01*
X74114068Y-53253651D01*
X74141541Y-53395134D01*
X74147060Y-53432267D01*
X74151002Y-53472021D01*
X74153964Y-53526853D01*
X74155959Y-53594934D01*
X74157000Y-53674438D01*
X74157101Y-53763538D01*
X74156274Y-53860405D01*
X74154532Y-53963214D01*
X74151889Y-54070137D01*
X74148357Y-54179346D01*
X74143949Y-54289015D01*
X74140424Y-54363600D01*
X74136379Y-54454093D01*
X74132913Y-54552046D01*
X74130034Y-54655459D01*
X74127750Y-54762332D01*
X74126067Y-54870667D01*
X74124994Y-54978462D01*
X74124538Y-55083720D01*
X74124707Y-55184440D01*
X74125508Y-55278622D01*
X74126948Y-55364268D01*
X74129036Y-55439378D01*
X74131778Y-55501951D01*
X74135183Y-55549989D01*
X74135915Y-55557400D01*
X74143784Y-55623021D01*
X74153852Y-55692561D01*
X74165494Y-55762725D01*
X74178084Y-55830219D01*
X74190998Y-55891748D01*
X74203611Y-55944018D01*
X74215295Y-55983734D01*
X74218549Y-55992768D01*
X74218547Y-55996160D01*
X74214680Y-55998931D01*
X74205447Y-56001142D01*
X74189344Y-56002855D01*
X74164868Y-56004132D01*
X74130518Y-56005034D01*
X74084789Y-56005623D01*
X74026180Y-56005961D01*
X73953188Y-56006109D01*
X73893018Y-56006133D01*
X73562359Y-56006133D01*
X73524448Y-55885483D01*
X73508123Y-55833390D01*
X73490831Y-55777986D01*
X73474518Y-55725515D01*
X73461128Y-55682220D01*
X73459845Y-55678050D01*
X73445730Y-55635677D01*
X73433700Y-55606731D01*
X73424336Y-55592527D01*
X73421519Y-55591267D01*
X73411820Y-55597949D01*
X73396264Y-55615719D01*
X73377739Y-55641163D01*
X73371964Y-55649890D01*
X73315025Y-55726403D01*
X73246035Y-55800319D01*
X73169151Y-55867882D01*
X73088535Y-55925336D01*
X73030255Y-55958465D01*
X72944993Y-55993954D01*
X72848738Y-56021052D01*
X72745518Y-56039185D01*
X72639361Y-56047779D01*
X72534295Y-56046258D01*
X72465033Y-56039082D01*
X72349500Y-56014477D01*
X72242505Y-55975460D01*
X72144506Y-55922498D01*
X72055962Y-55856062D01*
X71977332Y-55776619D01*
X71909075Y-55684638D01*
X71851648Y-55580589D01*
X71805511Y-55464940D01*
X71771123Y-55338160D01*
X71768875Y-55327463D01*
X71762476Y-55284783D01*
X71757709Y-55229353D01*
X71754569Y-55164878D01*
X71753051Y-55095062D01*
X71753150Y-55023610D01*
X71754861Y-54954224D01*
X71756054Y-54931347D01*
X72586559Y-54931347D01*
X72586575Y-54942651D01*
X72592728Y-55037407D01*
X72609536Y-55120946D01*
X72636684Y-55192682D01*
X72673851Y-55252030D01*
X72720722Y-55298406D01*
X72776977Y-55331224D01*
X72802892Y-55340691D01*
X72843675Y-55348453D01*
X72895059Y-55351093D01*
X72951582Y-55348850D01*
X73007783Y-55341963D01*
X73058198Y-55330669D01*
X73062544Y-55329358D01*
X73128301Y-55301493D01*
X73193884Y-55259870D01*
X73255782Y-55207335D01*
X73310483Y-55146731D01*
X73340700Y-55104068D01*
X73366733Y-55063018D01*
X73366733Y-54785010D01*
X73366678Y-54708794D01*
X73366451Y-54647785D01*
X73365964Y-54600256D01*
X73365125Y-54564480D01*
X73363845Y-54538731D01*
X73362033Y-54521281D01*
X73359599Y-54510406D01*
X73356454Y-54504377D01*
X73352507Y-54501468D01*
X73351916Y-54501224D01*
X73335913Y-54498521D01*
X73306365Y-54496706D01*
X73266634Y-54495731D01*
X73220084Y-54495549D01*
X73170078Y-54496113D01*
X73119978Y-54497376D01*
X73073146Y-54499289D01*
X73032946Y-54501807D01*
X73002741Y-54504881D01*
X72994200Y-54506258D01*
X72898978Y-54529303D01*
X72818168Y-54559399D01*
X72750557Y-54597071D01*
X72708964Y-54629543D01*
X72662136Y-54678043D01*
X72627631Y-54729530D01*
X72604301Y-54786948D01*
X72590993Y-54853239D01*
X72586559Y-54931347D01*
X71756054Y-54931347D01*
X71758179Y-54890610D01*
X71763101Y-54836472D01*
X71769569Y-54795743D01*
X71796330Y-54692151D01*
X71829064Y-54600501D01*
X71869649Y-54516303D01*
X71919961Y-54435067D01*
X71921018Y-54433531D01*
X71988259Y-54350530D01*
X72070006Y-54274981D01*
X72165418Y-54207183D01*
X72273654Y-54147438D01*
X72393871Y-54096043D01*
X72525228Y-54053299D01*
X72666882Y-54019505D01*
X72817993Y-53994962D01*
X72977717Y-53979969D01*
X73145214Y-53974825D01*
X73207647Y-53975450D01*
X73349127Y-53978367D01*
X73354785Y-53933012D01*
X73357385Y-53898376D01*
X73358419Y-53852035D01*
X73358047Y-53797700D01*
X73356429Y-53739084D01*
X73353724Y-53679897D01*
X73350094Y-53623851D01*
X73345698Y-53574656D01*
X73340696Y-53536026D01*
X73336836Y-53516934D01*
X73311867Y-53441057D01*
X73280026Y-53379695D01*
X73239674Y-53331257D01*
X73189172Y-53294154D01*
X73126879Y-53266796D01*
X73061133Y-53249545D01*
X72993204Y-53240647D01*
X72912862Y-53238289D01*
X72823116Y-53242012D01*
X72726974Y-53251360D01*
X72627445Y-53265877D01*
X72527537Y-53285107D01*
X72430259Y-53308592D01*
X72338619Y-53335876D01*
X72255625Y-53366503D01*
X72236433Y-53374694D01*
X72202300Y-53389548D01*
X72173006Y-53401980D01*
X72152679Y-53410252D01*
X72146661Y-53412450D01*
X72142159Y-53411042D01*
X72136313Y-53403430D01*
X72128592Y-53388258D01*
X72118466Y-53364171D01*
X72105406Y-53329812D01*
X72088880Y-53283827D01*
X72068360Y-53224859D01*
X72043314Y-53151553D01*
X72034652Y-53126012D01*
X72011984Y-53058961D01*
X71991032Y-52996750D01*
X71972421Y-52941255D01*
X71956778Y-52894353D01*
X71944727Y-52857918D01*
X71936896Y-52833828D01*
X71933924Y-52824041D01*
X71940118Y-52814666D01*
X71959787Y-52800444D01*
X71990587Y-52782564D01*
X72030171Y-52762217D01*
X72076196Y-52740591D01*
X72126316Y-52718878D01*
X72178185Y-52698265D01*
X72192098Y-52693075D01*
X72320460Y-52650931D01*
X72456605Y-52615504D01*
X72598106Y-52586953D01*
X72742537Y-52565441D01*
X72887470Y-52551126D01*
X73030480Y-52544169D01*
X73169140Y-52544731D01*
G36*
X51520617Y-51258373D02*
X51950300Y-51260567D01*
X51952434Y-53235375D01*
X51954569Y-55210184D01*
X53618233Y-55214500D01*
X53620434Y-55610317D01*
X53622634Y-56006133D01*
X52362428Y-56006133D01*
X52217668Y-56006096D01*
X52077534Y-56005987D01*
X51942960Y-56005811D01*
X51814881Y-56005571D01*
X51694231Y-56005271D01*
X51581945Y-56004917D01*
X51478958Y-56004512D01*
X51386205Y-56004060D01*
X51304619Y-56003565D01*
X51235137Y-56003032D01*
X51178691Y-56002465D01*
X51136218Y-56001868D01*
X51108652Y-56001244D01*
X51096927Y-56000599D01*
X51096578Y-56000489D01*
X51096103Y-55991656D01*
X51095639Y-55966570D01*
X51095187Y-55925910D01*
X51094749Y-55870356D01*
X51094327Y-55800588D01*
X51093921Y-55717285D01*
X51093535Y-55621127D01*
X51093168Y-55512794D01*
X51092824Y-55392966D01*
X51092502Y-55262322D01*
X51092206Y-55121543D01*
X51091937Y-54971307D01*
X51091696Y-54812296D01*
X51091485Y-54645187D01*
X51091306Y-54470662D01*
X51091160Y-54289400D01*
X51091049Y-54102081D01*
X51090974Y-53909384D01*
X51090937Y-53711990D01*
X51090933Y-53625511D01*
X51090933Y-51256178D01*
X51520617Y-51258373D01*
X51520617Y-51258373D01*
G37*
X51520617Y-51258373D02*
X51950300Y-51260567D01*
X51952434Y-53235375D01*
X51954569Y-55210184D01*
X53618233Y-55214500D01*
X53620434Y-55610317D01*
X53622634Y-56006133D01*
X52362428Y-56006133D01*
X52217668Y-56006096D01*
X52077534Y-56005987D01*
X51942960Y-56005811D01*
X51814881Y-56005571D01*
X51694231Y-56005271D01*
X51581945Y-56004917D01*
X51478958Y-56004512D01*
X51386205Y-56004060D01*
X51304619Y-56003565D01*
X51235137Y-56003032D01*
X51178691Y-56002465D01*
X51136218Y-56001868D01*
X51108652Y-56001244D01*
X51096927Y-56000599D01*
X51096578Y-56000489D01*
X51096103Y-55991656D01*
X51095639Y-55966570D01*
X51095187Y-55925910D01*
X51094749Y-55870356D01*
X51094327Y-55800588D01*
X51093921Y-55717285D01*
X51093535Y-55621127D01*
X51093168Y-55512794D01*
X51092824Y-55392966D01*
X51092502Y-55262322D01*
X51092206Y-55121543D01*
X51091937Y-54971307D01*
X51091696Y-54812296D01*
X51091485Y-54645187D01*
X51091306Y-54470662D01*
X51091160Y-54289400D01*
X51091049Y-54102081D01*
X51090974Y-53909384D01*
X51090937Y-53711990D01*
X51090933Y-53625511D01*
X51090933Y-51256178D01*
X51520617Y-51258373D01*
G36*
X56336033Y-51260567D02*
X56338234Y-51656384D01*
X56340434Y-52052200D01*
X54824733Y-52052200D01*
X54824733Y-53271302D01*
X55521116Y-53273468D01*
X56217500Y-53275633D01*
X56219700Y-53671450D01*
X56221901Y-54067267D01*
X54824733Y-54067267D01*
X54824733Y-56006133D01*
X54398578Y-56006133D01*
X54315196Y-56006025D01*
X54236989Y-56005712D01*
X54165584Y-56005217D01*
X54102606Y-56004561D01*
X54049681Y-56003765D01*
X54008436Y-56002850D01*
X53980496Y-56001837D01*
X53967488Y-56000749D01*
X53966778Y-56000489D01*
X53966303Y-55991656D01*
X53965839Y-55966570D01*
X53965387Y-55925910D01*
X53964949Y-55870356D01*
X53964527Y-55800588D01*
X53964121Y-55717285D01*
X53963735Y-55621127D01*
X53963368Y-55512794D01*
X53963024Y-55392967D01*
X53962702Y-55262323D01*
X53962406Y-55121544D01*
X53962137Y-54971309D01*
X53961896Y-54812298D01*
X53961685Y-54645190D01*
X53961506Y-54470666D01*
X53961360Y-54289405D01*
X53961249Y-54102087D01*
X53961174Y-53909391D01*
X53961137Y-53711998D01*
X53961133Y-53625560D01*
X53961133Y-51256275D01*
X56336033Y-51260567D01*
X56336033Y-51260567D01*
G37*
X56336033Y-51260567D02*
X56338234Y-51656384D01*
X56340434Y-52052200D01*
X54824733Y-52052200D01*
X54824733Y-53271302D01*
X55521116Y-53273468D01*
X56217500Y-53275633D01*
X56219700Y-53671450D01*
X56221901Y-54067267D01*
X54824733Y-54067267D01*
X54824733Y-56006133D01*
X54398578Y-56006133D01*
X54315196Y-56006025D01*
X54236989Y-56005712D01*
X54165584Y-56005217D01*
X54102606Y-56004561D01*
X54049681Y-56003765D01*
X54008436Y-56002850D01*
X53980496Y-56001837D01*
X53967488Y-56000749D01*
X53966778Y-56000489D01*
X53966303Y-55991656D01*
X53965839Y-55966570D01*
X53965387Y-55925910D01*
X53964949Y-55870356D01*
X53964527Y-55800588D01*
X53964121Y-55717285D01*
X53963735Y-55621127D01*
X53963368Y-55512794D01*
X53963024Y-55392967D01*
X53962702Y-55262323D01*
X53962406Y-55121544D01*
X53962137Y-54971309D01*
X53961896Y-54812298D01*
X53961685Y-54645190D01*
X53961506Y-54470666D01*
X53961360Y-54289405D01*
X53961249Y-54102087D01*
X53961174Y-53909391D01*
X53961137Y-53711998D01*
X53961133Y-53625560D01*
X53961133Y-51256275D01*
X56336033Y-51260567D01*
G36*
X57227150Y-51258373D02*
X57656833Y-51260567D01*
X57661133Y-53355923D01*
X57740548Y-53316473D01*
X57819964Y-53277023D01*
X58810458Y-51260567D01*
X59291485Y-51258380D01*
X59380219Y-51258088D01*
X59463876Y-51258028D01*
X59540927Y-51258187D01*
X59609839Y-51258552D01*
X59669082Y-51259109D01*
X59717126Y-51259845D01*
X59752438Y-51260745D01*
X59773489Y-51261797D01*
X59778991Y-51262672D01*
X59775815Y-51270758D01*
X59765004Y-51292850D01*
X59747019Y-51328080D01*
X59722323Y-51375580D01*
X59691376Y-51434484D01*
X59654641Y-51503924D01*
X59612578Y-51583032D01*
X59565650Y-51670943D01*
X59514317Y-51766788D01*
X59459042Y-51869701D01*
X59400286Y-51978813D01*
X59338510Y-52093258D01*
X59274176Y-52212170D01*
X59244877Y-52266236D01*
X58704284Y-53263322D01*
X58548859Y-53385734D01*
X58505007Y-53420530D01*
X58466083Y-53451909D01*
X58433918Y-53478356D01*
X58410340Y-53498356D01*
X58397176Y-53510394D01*
X58395043Y-53513181D01*
X58401862Y-53519640D01*
X58420123Y-53535036D01*
X58447954Y-53557840D01*
X58483482Y-53586527D01*
X58524833Y-53619570D01*
X58551676Y-53640864D01*
X58706700Y-53763513D01*
X59334267Y-54882707D01*
X59961835Y-56001900D01*
X59444334Y-56004096D01*
X59352131Y-56004430D01*
X59264885Y-56004635D01*
X59184081Y-56004715D01*
X59111204Y-56004674D01*
X59047739Y-56004515D01*
X58995171Y-56004243D01*
X58954984Y-56003861D01*
X58928663Y-56003374D01*
X58917693Y-56002784D01*
X58917545Y-56002742D01*
X58912534Y-55994966D01*
X58900081Y-55973082D01*
X58880650Y-55937957D01*
X58854706Y-55890455D01*
X58822716Y-55831444D01*
X58785142Y-55761789D01*
X58742451Y-55682357D01*
X58695108Y-55594012D01*
X58643578Y-55497621D01*
X58588325Y-55394049D01*
X58529815Y-55284164D01*
X58468512Y-55168830D01*
X58404882Y-55048914D01*
X58371892Y-54986663D01*
X57835527Y-53974134D01*
X57661066Y-53974134D01*
X57661066Y-56006133D01*
X57234911Y-56006133D01*
X57151529Y-56006025D01*
X57073323Y-56005712D01*
X57001917Y-56005217D01*
X56938939Y-56004561D01*
X56886015Y-56003765D01*
X56844769Y-56002850D01*
X56816829Y-56001837D01*
X56803821Y-56000749D01*
X56803111Y-56000489D01*
X56802636Y-55991656D01*
X56802172Y-55966570D01*
X56801721Y-55925910D01*
X56801283Y-55870356D01*
X56800860Y-55800588D01*
X56800455Y-55717285D01*
X56800068Y-55621127D01*
X56799702Y-55512794D01*
X56799357Y-55392966D01*
X56799036Y-55262322D01*
X56798740Y-55121543D01*
X56798471Y-54971307D01*
X56798230Y-54812296D01*
X56798019Y-54645187D01*
X56797839Y-54470662D01*
X56797693Y-54289400D01*
X56797582Y-54102081D01*
X56797507Y-53909384D01*
X56797470Y-53711990D01*
X56797466Y-53625511D01*
X56797466Y-51256178D01*
X57227150Y-51258373D01*
X57227150Y-51258373D01*
G37*
X57227150Y-51258373D02*
X57656833Y-51260567D01*
X57661133Y-53355923D01*
X57740548Y-53316473D01*
X57819964Y-53277023D01*
X58810458Y-51260567D01*
X59291485Y-51258380D01*
X59380219Y-51258088D01*
X59463876Y-51258028D01*
X59540927Y-51258187D01*
X59609839Y-51258552D01*
X59669082Y-51259109D01*
X59717126Y-51259845D01*
X59752438Y-51260745D01*
X59773489Y-51261797D01*
X59778991Y-51262672D01*
X59775815Y-51270758D01*
X59765004Y-51292850D01*
X59747019Y-51328080D01*
X59722323Y-51375580D01*
X59691376Y-51434484D01*
X59654641Y-51503924D01*
X59612578Y-51583032D01*
X59565650Y-51670943D01*
X59514317Y-51766788D01*
X59459042Y-51869701D01*
X59400286Y-51978813D01*
X59338510Y-52093258D01*
X59274176Y-52212170D01*
X59244877Y-52266236D01*
X58704284Y-53263322D01*
X58548859Y-53385734D01*
X58505007Y-53420530D01*
X58466083Y-53451909D01*
X58433918Y-53478356D01*
X58410340Y-53498356D01*
X58397176Y-53510394D01*
X58395043Y-53513181D01*
X58401862Y-53519640D01*
X58420123Y-53535036D01*
X58447954Y-53557840D01*
X58483482Y-53586527D01*
X58524833Y-53619570D01*
X58551676Y-53640864D01*
X58706700Y-53763513D01*
X59334267Y-54882707D01*
X59961835Y-56001900D01*
X59444334Y-56004096D01*
X59352131Y-56004430D01*
X59264885Y-56004635D01*
X59184081Y-56004715D01*
X59111204Y-56004674D01*
X59047739Y-56004515D01*
X58995171Y-56004243D01*
X58954984Y-56003861D01*
X58928663Y-56003374D01*
X58917693Y-56002784D01*
X58917545Y-56002742D01*
X58912534Y-55994966D01*
X58900081Y-55973082D01*
X58880650Y-55937957D01*
X58854706Y-55890455D01*
X58822716Y-55831444D01*
X58785142Y-55761789D01*
X58742451Y-55682357D01*
X58695108Y-55594012D01*
X58643578Y-55497621D01*
X58588325Y-55394049D01*
X58529815Y-55284164D01*
X58468512Y-55168830D01*
X58404882Y-55048914D01*
X58371892Y-54986663D01*
X57835527Y-53974134D01*
X57661066Y-53974134D01*
X57661066Y-56006133D01*
X57234911Y-56006133D01*
X57151529Y-56006025D01*
X57073323Y-56005712D01*
X57001917Y-56005217D01*
X56938939Y-56004561D01*
X56886015Y-56003765D01*
X56844769Y-56002850D01*
X56816829Y-56001837D01*
X56803821Y-56000749D01*
X56803111Y-56000489D01*
X56802636Y-55991656D01*
X56802172Y-55966570D01*
X56801721Y-55925910D01*
X56801283Y-55870356D01*
X56800860Y-55800588D01*
X56800455Y-55717285D01*
X56800068Y-55621127D01*
X56799702Y-55512794D01*
X56799357Y-55392966D01*
X56799036Y-55262322D01*
X56798740Y-55121543D01*
X56798471Y-54971307D01*
X56798230Y-54812296D01*
X56798019Y-54645187D01*
X56797839Y-54470662D01*
X56797693Y-54289400D01*
X56797582Y-54102081D01*
X56797507Y-53909384D01*
X56797470Y-53711990D01*
X56797466Y-53625511D01*
X56797466Y-51256178D01*
X57227150Y-51258373D01*
G36*
X76170727Y-52550742D02*
X76266374Y-52565614D01*
X76357483Y-52592344D01*
X76360284Y-52593396D01*
X76385528Y-52604320D01*
X76398569Y-52614881D01*
X76403611Y-52628911D01*
X76404111Y-52633376D01*
X76403556Y-52646670D01*
X76401130Y-52674931D01*
X76397031Y-52716321D01*
X76391456Y-52769000D01*
X76384604Y-52831129D01*
X76376672Y-52900869D01*
X76367858Y-52976382D01*
X76361459Y-53030100D01*
X76350744Y-53119047D01*
X76341761Y-53192621D01*
X76334269Y-53252265D01*
X76328032Y-53299425D01*
X76322810Y-53335545D01*
X76318364Y-53362071D01*
X76314457Y-53380446D01*
X76310848Y-53392115D01*
X76307301Y-53398523D01*
X76303575Y-53401115D01*
X76300115Y-53401398D01*
X76285188Y-53398754D01*
X76258278Y-53392619D01*
X76223724Y-53384017D01*
X76198833Y-53377484D01*
X76129533Y-53363223D01*
X76055824Y-53355523D01*
X75983094Y-53354541D01*
X75916731Y-53360429D01*
X75878556Y-53368284D01*
X75792868Y-53399791D01*
X75716047Y-53445139D01*
X75649434Y-53503145D01*
X75594372Y-53572626D01*
X75552204Y-53652398D01*
X75549910Y-53657987D01*
X75529966Y-53707434D01*
X75527760Y-54852550D01*
X75525553Y-55997667D01*
X74721400Y-55997667D01*
X74721400Y-52610789D01*
X75335016Y-52615233D01*
X75381585Y-52816317D01*
X75397100Y-52882270D01*
X75409676Y-52933173D01*
X75419771Y-52970566D01*
X75427841Y-52995987D01*
X75434342Y-53010977D01*
X75439732Y-53017075D01*
X75441220Y-53017400D01*
X75451581Y-53009963D01*
X75466284Y-52989414D01*
X75483469Y-52958395D01*
X75485111Y-52955104D01*
X75543000Y-52853153D01*
X75608675Y-52765913D01*
X75682707Y-52692774D01*
X75765669Y-52633126D01*
X75810981Y-52608018D01*
X75890669Y-52576366D01*
X75979463Y-52556209D01*
X76073953Y-52547637D01*
X76170727Y-52550742D01*
X76170727Y-52550742D01*
G37*
X76170727Y-52550742D02*
X76266374Y-52565614D01*
X76357483Y-52592344D01*
X76360284Y-52593396D01*
X76385528Y-52604320D01*
X76398569Y-52614881D01*
X76403611Y-52628911D01*
X76404111Y-52633376D01*
X76403556Y-52646670D01*
X76401130Y-52674931D01*
X76397031Y-52716321D01*
X76391456Y-52769000D01*
X76384604Y-52831129D01*
X76376672Y-52900869D01*
X76367858Y-52976382D01*
X76361459Y-53030100D01*
X76350744Y-53119047D01*
X76341761Y-53192621D01*
X76334269Y-53252265D01*
X76328032Y-53299425D01*
X76322810Y-53335545D01*
X76318364Y-53362071D01*
X76314457Y-53380446D01*
X76310848Y-53392115D01*
X76307301Y-53398523D01*
X76303575Y-53401115D01*
X76300115Y-53401398D01*
X76285188Y-53398754D01*
X76258278Y-53392619D01*
X76223724Y-53384017D01*
X76198833Y-53377484D01*
X76129533Y-53363223D01*
X76055824Y-53355523D01*
X75983094Y-53354541D01*
X75916731Y-53360429D01*
X75878556Y-53368284D01*
X75792868Y-53399791D01*
X75716047Y-53445139D01*
X75649434Y-53503145D01*
X75594372Y-53572626D01*
X75552204Y-53652398D01*
X75549910Y-53657987D01*
X75529966Y-53707434D01*
X75527760Y-54852550D01*
X75525553Y-55997667D01*
X74721400Y-55997667D01*
X74721400Y-52610789D01*
X75335016Y-52615233D01*
X75381585Y-52816317D01*
X75397100Y-52882270D01*
X75409676Y-52933173D01*
X75419771Y-52970566D01*
X75427841Y-52995987D01*
X75434342Y-53010977D01*
X75439732Y-53017075D01*
X75441220Y-53017400D01*
X75451581Y-53009963D01*
X75466284Y-52989414D01*
X75483469Y-52958395D01*
X75485111Y-52955104D01*
X75543000Y-52853153D01*
X75608675Y-52765913D01*
X75682707Y-52692774D01*
X75765669Y-52633126D01*
X75810981Y-52608018D01*
X75890669Y-52576366D01*
X75979463Y-52556209D01*
X76073953Y-52547637D01*
X76170727Y-52550742D01*
G36*
X45689167Y-55406782D02*
X45817291Y-55406894D01*
X45937266Y-55407076D01*
X46048200Y-55407326D01*
X46149201Y-55407641D01*
X46239376Y-55408018D01*
X46317833Y-55408454D01*
X46383681Y-55408947D01*
X46436028Y-55409495D01*
X46473980Y-55410093D01*
X46496647Y-55410741D01*
X46503227Y-55411325D01*
X46504196Y-55420629D01*
X46504981Y-55445518D01*
X46505580Y-55484646D01*
X46505991Y-55536664D01*
X46506210Y-55600225D01*
X46506235Y-55673982D01*
X46506063Y-55756588D01*
X46505692Y-55846696D01*
X46505119Y-55942958D01*
X46504430Y-56033650D01*
X46499275Y-56649600D01*
X46154866Y-56649600D01*
X46154866Y-55769124D01*
X44942017Y-55766979D01*
X43729167Y-55764833D01*
X43729167Y-55409234D01*
X45113018Y-55407091D01*
X45264818Y-55406895D01*
X45412038Y-55406779D01*
X45553785Y-55406743D01*
X45689167Y-55406782D01*
X45689167Y-55406782D01*
G37*
X45689167Y-55406782D02*
X45817291Y-55406894D01*
X45937266Y-55407076D01*
X46048200Y-55407326D01*
X46149201Y-55407641D01*
X46239376Y-55408018D01*
X46317833Y-55408454D01*
X46383681Y-55408947D01*
X46436028Y-55409495D01*
X46473980Y-55410093D01*
X46496647Y-55410741D01*
X46503227Y-55411325D01*
X46504196Y-55420629D01*
X46504981Y-55445518D01*
X46505580Y-55484646D01*
X46505991Y-55536664D01*
X46506210Y-55600225D01*
X46506235Y-55673982D01*
X46506063Y-55756588D01*
X46505692Y-55846696D01*
X46505119Y-55942958D01*
X46504430Y-56033650D01*
X46499275Y-56649600D01*
X46154866Y-56649600D01*
X46154866Y-55769124D01*
X44942017Y-55766979D01*
X43729167Y-55764833D01*
X43729167Y-55409234D01*
X45113018Y-55407091D01*
X45264818Y-55406895D01*
X45412038Y-55406779D01*
X45553785Y-55406743D01*
X45689167Y-55406782D01*
G36*
X44332416Y-52365518D02*
X44433707Y-52365603D01*
X44531596Y-52365833D01*
X44624519Y-52366194D01*
X44710910Y-52366675D01*
X44789204Y-52367262D01*
X44857837Y-52367942D01*
X44915242Y-52368702D01*
X44959855Y-52369530D01*
X44990110Y-52370413D01*
X45001283Y-52371006D01*
X45071133Y-52376443D01*
X45071133Y-54259981D01*
X45119817Y-54284249D01*
X45161553Y-54310397D01*
X45206723Y-54347512D01*
X45251221Y-54391398D01*
X45290939Y-54437859D01*
X45321772Y-54482702D01*
X45331120Y-54500119D01*
X45344937Y-54530724D01*
X45355583Y-54557871D01*
X45360832Y-54575865D01*
X45360899Y-54576319D01*
X45365159Y-54595589D01*
X45368936Y-54604900D01*
X45374751Y-54623143D01*
X45378846Y-54653472D01*
X45381017Y-54691109D01*
X45381059Y-54731275D01*
X45378767Y-54769190D01*
X45376680Y-54785827D01*
X45367314Y-54830848D01*
X45353696Y-54876938D01*
X45337565Y-54919404D01*
X45320661Y-54953553D01*
X45307742Y-54971741D01*
X45295722Y-54986916D01*
X45291267Y-54996575D01*
X45285338Y-55007023D01*
X45269688Y-55025265D01*
X45247518Y-55048151D01*
X45222030Y-55072533D01*
X45196426Y-55095262D01*
X45173908Y-55113190D01*
X45169517Y-55116293D01*
X45129700Y-55141570D01*
X45094361Y-55160299D01*
X45067496Y-55170387D01*
X45065234Y-55170879D01*
X45044625Y-55176440D01*
X45037267Y-55179136D01*
X44997497Y-55190638D01*
X44947189Y-55197868D01*
X44892282Y-55200470D01*
X44838711Y-55198087D01*
X44804433Y-55193110D01*
X44775107Y-55185985D01*
X44747977Y-55177557D01*
X44745167Y-55176510D01*
X44727044Y-55170059D01*
X44717605Y-55167686D01*
X44717444Y-55167725D01*
X44709414Y-55164545D01*
X44690479Y-55155254D01*
X44664619Y-55141812D01*
X44662723Y-55140803D01*
X44615314Y-55109750D01*
X44566540Y-55067890D01*
X44521318Y-55020143D01*
X44484565Y-54971426D01*
X44471620Y-54949604D01*
X44458650Y-54923854D01*
X44450624Y-54905105D01*
X44449111Y-54897071D01*
X44449373Y-54897000D01*
X44449943Y-54891859D01*
X44445805Y-54885752D01*
X44436113Y-54867751D01*
X44433340Y-54858236D01*
X44427121Y-54836502D01*
X44422614Y-54825034D01*
X44419431Y-54809726D01*
X44416899Y-54781931D01*
X44415337Y-54746091D01*
X44414992Y-54719200D01*
X44415199Y-54716565D01*
X44675068Y-54716565D01*
X44680688Y-54766367D01*
X44703491Y-54820805D01*
X44739210Y-54868141D01*
X44784844Y-54905364D01*
X44837394Y-54929461D01*
X44845344Y-54931670D01*
X44883068Y-54935853D01*
X44927391Y-54932879D01*
X44970058Y-54923718D01*
X44994582Y-54914113D01*
X45044740Y-54879703D01*
X45082454Y-54835000D01*
X45106406Y-54782174D01*
X45115284Y-54723394D01*
X45115252Y-54714967D01*
X45114080Y-54680310D01*
X45111658Y-54656837D01*
X45106819Y-54638797D01*
X45098399Y-54620441D01*
X45094652Y-54613367D01*
X45077555Y-54589029D01*
X45052390Y-54561369D01*
X45024781Y-54535984D01*
X45000350Y-54518470D01*
X44998123Y-54517278D01*
X44945124Y-54499293D01*
X44887690Y-54495726D01*
X44829802Y-54506301D01*
X44775447Y-54530744D01*
X44772059Y-54532852D01*
X44733179Y-54566821D01*
X44702892Y-54611733D01*
X44682941Y-54663133D01*
X44675068Y-54716565D01*
X44415199Y-54716565D01*
X44422293Y-54626329D01*
X44444365Y-54541614D01*
X44481379Y-54464635D01*
X44533506Y-54394973D01*
X44556304Y-54371312D01*
X44585029Y-54345680D01*
X44617340Y-54320509D01*
X44649226Y-54298561D01*
X44676676Y-54282597D01*
X44695614Y-54275388D01*
X44698295Y-54274496D01*
X44700656Y-54271971D01*
X44702723Y-54266789D01*
X44704518Y-54257924D01*
X44706066Y-54244352D01*
X44707389Y-54225047D01*
X44708512Y-54198986D01*
X44709457Y-54165142D01*
X44710250Y-54122491D01*
X44710913Y-54070008D01*
X44711469Y-54006668D01*
X44711944Y-53931446D01*
X44712359Y-53843318D01*
X44712739Y-53741257D01*
X44713108Y-53624240D01*
X44713461Y-53501310D01*
X44715622Y-52729534D01*
X44224511Y-52729533D01*
X43733400Y-52729533D01*
X43733400Y-52365467D01*
X44332416Y-52365518D01*
X44332416Y-52365518D01*
G37*
X44332416Y-52365518D02*
X44433707Y-52365603D01*
X44531596Y-52365833D01*
X44624519Y-52366194D01*
X44710910Y-52366675D01*
X44789204Y-52367262D01*
X44857837Y-52367942D01*
X44915242Y-52368702D01*
X44959855Y-52369530D01*
X44990110Y-52370413D01*
X45001283Y-52371006D01*
X45071133Y-52376443D01*
X45071133Y-54259981D01*
X45119817Y-54284249D01*
X45161553Y-54310397D01*
X45206723Y-54347512D01*
X45251221Y-54391398D01*
X45290939Y-54437859D01*
X45321772Y-54482702D01*
X45331120Y-54500119D01*
X45344937Y-54530724D01*
X45355583Y-54557871D01*
X45360832Y-54575865D01*
X45360899Y-54576319D01*
X45365159Y-54595589D01*
X45368936Y-54604900D01*
X45374751Y-54623143D01*
X45378846Y-54653472D01*
X45381017Y-54691109D01*
X45381059Y-54731275D01*
X45378767Y-54769190D01*
X45376680Y-54785827D01*
X45367314Y-54830848D01*
X45353696Y-54876938D01*
X45337565Y-54919404D01*
X45320661Y-54953553D01*
X45307742Y-54971741D01*
X45295722Y-54986916D01*
X45291267Y-54996575D01*
X45285338Y-55007023D01*
X45269688Y-55025265D01*
X45247518Y-55048151D01*
X45222030Y-55072533D01*
X45196426Y-55095262D01*
X45173908Y-55113190D01*
X45169517Y-55116293D01*
X45129700Y-55141570D01*
X45094361Y-55160299D01*
X45067496Y-55170387D01*
X45065234Y-55170879D01*
X45044625Y-55176440D01*
X45037267Y-55179136D01*
X44997497Y-55190638D01*
X44947189Y-55197868D01*
X44892282Y-55200470D01*
X44838711Y-55198087D01*
X44804433Y-55193110D01*
X44775107Y-55185985D01*
X44747977Y-55177557D01*
X44745167Y-55176510D01*
X44727044Y-55170059D01*
X44717605Y-55167686D01*
X44717444Y-55167725D01*
X44709414Y-55164545D01*
X44690479Y-55155254D01*
X44664619Y-55141812D01*
X44662723Y-55140803D01*
X44615314Y-55109750D01*
X44566540Y-55067890D01*
X44521318Y-55020143D01*
X44484565Y-54971426D01*
X44471620Y-54949604D01*
X44458650Y-54923854D01*
X44450624Y-54905105D01*
X44449111Y-54897071D01*
X44449373Y-54897000D01*
X44449943Y-54891859D01*
X44445805Y-54885752D01*
X44436113Y-54867751D01*
X44433340Y-54858236D01*
X44427121Y-54836502D01*
X44422614Y-54825034D01*
X44419431Y-54809726D01*
X44416899Y-54781931D01*
X44415337Y-54746091D01*
X44414992Y-54719200D01*
X44415199Y-54716565D01*
X44675068Y-54716565D01*
X44680688Y-54766367D01*
X44703491Y-54820805D01*
X44739210Y-54868141D01*
X44784844Y-54905364D01*
X44837394Y-54929461D01*
X44845344Y-54931670D01*
X44883068Y-54935853D01*
X44927391Y-54932879D01*
X44970058Y-54923718D01*
X44994582Y-54914113D01*
X45044740Y-54879703D01*
X45082454Y-54835000D01*
X45106406Y-54782174D01*
X45115284Y-54723394D01*
X45115252Y-54714967D01*
X45114080Y-54680310D01*
X45111658Y-54656837D01*
X45106819Y-54638797D01*
X45098399Y-54620441D01*
X45094652Y-54613367D01*
X45077555Y-54589029D01*
X45052390Y-54561369D01*
X45024781Y-54535984D01*
X45000350Y-54518470D01*
X44998123Y-54517278D01*
X44945124Y-54499293D01*
X44887690Y-54495726D01*
X44829802Y-54506301D01*
X44775447Y-54530744D01*
X44772059Y-54532852D01*
X44733179Y-54566821D01*
X44702892Y-54611733D01*
X44682941Y-54663133D01*
X44675068Y-54716565D01*
X44415199Y-54716565D01*
X44422293Y-54626329D01*
X44444365Y-54541614D01*
X44481379Y-54464635D01*
X44533506Y-54394973D01*
X44556304Y-54371312D01*
X44585029Y-54345680D01*
X44617340Y-54320509D01*
X44649226Y-54298561D01*
X44676676Y-54282597D01*
X44695614Y-54275388D01*
X44698295Y-54274496D01*
X44700656Y-54271971D01*
X44702723Y-54266789D01*
X44704518Y-54257924D01*
X44706066Y-54244352D01*
X44707389Y-54225047D01*
X44708512Y-54198986D01*
X44709457Y-54165142D01*
X44710250Y-54122491D01*
X44710913Y-54070008D01*
X44711469Y-54006668D01*
X44711944Y-53931446D01*
X44712359Y-53843318D01*
X44712739Y-53741257D01*
X44713108Y-53624240D01*
X44713461Y-53501310D01*
X44715622Y-52729534D01*
X44224511Y-52729533D01*
X43733400Y-52729533D01*
X43733400Y-52365467D01*
X44332416Y-52365518D01*
G36*
X47805867Y-51010696D02*
X47836858Y-51016294D01*
X47864747Y-51021198D01*
X47876248Y-51023147D01*
X47918430Y-51035542D01*
X47966751Y-51058610D01*
X48016834Y-51089751D01*
X48064301Y-51126368D01*
X48089587Y-51149768D01*
X48124846Y-51189286D01*
X48157379Y-51233551D01*
X48184814Y-51278621D01*
X48204776Y-51320552D01*
X48214892Y-51355403D01*
X48215296Y-51358577D01*
X48219868Y-51379819D01*
X48224791Y-51391516D01*
X48227837Y-51404588D01*
X48230199Y-51430336D01*
X48231572Y-51464509D01*
X48231790Y-51488525D01*
X48223896Y-51580813D01*
X48200669Y-51665949D01*
X48162009Y-51744178D01*
X48107813Y-51815749D01*
X48089333Y-51835136D01*
X48062456Y-51860328D01*
X48034613Y-51883802D01*
X48015912Y-51897645D01*
X47983667Y-51918984D01*
X47983667Y-52594067D01*
X49753200Y-52594067D01*
X49753190Y-52769750D01*
X49753181Y-52945433D01*
X47628067Y-52946035D01*
X47628067Y-51962159D01*
X47583617Y-51948066D01*
X47539810Y-51929478D01*
X47492522Y-51901596D01*
X47445397Y-51867383D01*
X47402082Y-51829801D01*
X47366220Y-51791813D01*
X47341457Y-51756383D01*
X47337200Y-51747760D01*
X47326099Y-51727289D01*
X47316937Y-51714968D01*
X47309891Y-51702196D01*
X47310541Y-51696641D01*
X47308811Y-51687846D01*
X47306631Y-51686740D01*
X47298433Y-51677044D01*
X47295172Y-51666967D01*
X47289392Y-51647122D01*
X47280470Y-51624634D01*
X47274287Y-51600440D01*
X47270436Y-51560108D01*
X47268891Y-51503340D01*
X47268863Y-51495297D01*
X47527761Y-51495297D01*
X47535877Y-51544275D01*
X47552992Y-51591489D01*
X47578242Y-51632238D01*
X47584043Y-51639034D01*
X47617770Y-51670750D01*
X47654450Y-51692206D01*
X47700257Y-51706782D01*
X47712697Y-51709510D01*
X47756967Y-51713934D01*
X47799966Y-51707318D01*
X47847145Y-51688689D01*
X47856834Y-51683814D01*
X47903893Y-51650517D01*
X47938370Y-51606410D01*
X47959533Y-51552775D01*
X47966650Y-51491112D01*
X47958922Y-51430142D01*
X47936961Y-51376903D01*
X47902300Y-51332946D01*
X47856472Y-51299826D01*
X47801011Y-51279093D01*
X47750743Y-51272471D01*
X47699056Y-51275899D01*
X47653197Y-51291209D01*
X47610207Y-51319918D01*
X47567125Y-51363546D01*
X47562506Y-51369018D01*
X47551157Y-51383953D01*
X47547537Y-51391556D01*
X47547987Y-51391800D01*
X47547859Y-51398056D01*
X47541997Y-51410850D01*
X47529513Y-51449255D01*
X47527761Y-51495297D01*
X47268863Y-51495297D01*
X47268856Y-51493400D01*
X47269315Y-51444911D01*
X47271154Y-51408821D01*
X47274908Y-51380615D01*
X47281117Y-51355779D01*
X47287448Y-51337341D01*
X47326260Y-51254979D01*
X47377353Y-51181754D01*
X47439006Y-51119648D01*
X47509501Y-51070648D01*
X47526515Y-51061576D01*
X47597954Y-51031953D01*
X47671627Y-51013145D01*
X47743179Y-51005945D01*
X47805867Y-51010696D01*
X47805867Y-51010696D01*
G37*
X47805867Y-51010696D02*
X47836858Y-51016294D01*
X47864747Y-51021198D01*
X47876248Y-51023147D01*
X47918430Y-51035542D01*
X47966751Y-51058610D01*
X48016834Y-51089751D01*
X48064301Y-51126368D01*
X48089587Y-51149768D01*
X48124846Y-51189286D01*
X48157379Y-51233551D01*
X48184814Y-51278621D01*
X48204776Y-51320552D01*
X48214892Y-51355403D01*
X48215296Y-51358577D01*
X48219868Y-51379819D01*
X48224791Y-51391516D01*
X48227837Y-51404588D01*
X48230199Y-51430336D01*
X48231572Y-51464509D01*
X48231790Y-51488525D01*
X48223896Y-51580813D01*
X48200669Y-51665949D01*
X48162009Y-51744178D01*
X48107813Y-51815749D01*
X48089333Y-51835136D01*
X48062456Y-51860328D01*
X48034613Y-51883802D01*
X48015912Y-51897645D01*
X47983667Y-51918984D01*
X47983667Y-52594067D01*
X49753200Y-52594067D01*
X49753190Y-52769750D01*
X49753181Y-52945433D01*
X47628067Y-52946035D01*
X47628067Y-51962159D01*
X47583617Y-51948066D01*
X47539810Y-51929478D01*
X47492522Y-51901596D01*
X47445397Y-51867383D01*
X47402082Y-51829801D01*
X47366220Y-51791813D01*
X47341457Y-51756383D01*
X47337200Y-51747760D01*
X47326099Y-51727289D01*
X47316937Y-51714968D01*
X47309891Y-51702196D01*
X47310541Y-51696641D01*
X47308811Y-51687846D01*
X47306631Y-51686740D01*
X47298433Y-51677044D01*
X47295172Y-51666967D01*
X47289392Y-51647122D01*
X47280470Y-51624634D01*
X47274287Y-51600440D01*
X47270436Y-51560108D01*
X47268891Y-51503340D01*
X47268863Y-51495297D01*
X47527761Y-51495297D01*
X47535877Y-51544275D01*
X47552992Y-51591489D01*
X47578242Y-51632238D01*
X47584043Y-51639034D01*
X47617770Y-51670750D01*
X47654450Y-51692206D01*
X47700257Y-51706782D01*
X47712697Y-51709510D01*
X47756967Y-51713934D01*
X47799966Y-51707318D01*
X47847145Y-51688689D01*
X47856834Y-51683814D01*
X47903893Y-51650517D01*
X47938370Y-51606410D01*
X47959533Y-51552775D01*
X47966650Y-51491112D01*
X47958922Y-51430142D01*
X47936961Y-51376903D01*
X47902300Y-51332946D01*
X47856472Y-51299826D01*
X47801011Y-51279093D01*
X47750743Y-51272471D01*
X47699056Y-51275899D01*
X47653197Y-51291209D01*
X47610207Y-51319918D01*
X47567125Y-51363546D01*
X47562506Y-51369018D01*
X47551157Y-51383953D01*
X47547537Y-51391556D01*
X47547987Y-51391800D01*
X47547859Y-51398056D01*
X47541997Y-51410850D01*
X47529513Y-51449255D01*
X47527761Y-51495297D01*
X47268863Y-51495297D01*
X47268856Y-51493400D01*
X47269315Y-51444911D01*
X47271154Y-51408821D01*
X47274908Y-51380615D01*
X47281117Y-51355779D01*
X47287448Y-51337341D01*
X47326260Y-51254979D01*
X47377353Y-51181754D01*
X47439006Y-51119648D01*
X47509501Y-51070648D01*
X47526515Y-51061576D01*
X47597954Y-51031953D01*
X47671627Y-51013145D01*
X47743179Y-51005945D01*
X47805867Y-51010696D01*
G36*
X46154866Y-51899800D02*
X45274084Y-51899800D01*
X45257777Y-51927317D01*
X45244599Y-51948296D01*
X45233634Y-51963711D01*
X45232502Y-51965059D01*
X45224521Y-51977174D01*
X45223533Y-51980818D01*
X45217401Y-51993827D01*
X45201037Y-52014278D01*
X45177490Y-52039107D01*
X45149811Y-52065251D01*
X45121047Y-52089647D01*
X45098570Y-52106350D01*
X45027369Y-52147199D01*
X44952003Y-52174433D01*
X44887173Y-52187507D01*
X44854098Y-52192101D01*
X44830795Y-52194239D01*
X44810282Y-52193929D01*
X44785580Y-52191181D01*
X44761095Y-52187671D01*
X44730607Y-52181804D01*
X44696659Y-52173117D01*
X44663212Y-52162922D01*
X44634226Y-52152528D01*
X44613662Y-52143246D01*
X44605480Y-52136386D01*
X44605467Y-52136177D01*
X44599550Y-52130237D01*
X44597692Y-52130517D01*
X44583859Y-52127009D01*
X44561842Y-52113561D01*
X44534673Y-52092918D01*
X44505387Y-52067825D01*
X44477018Y-52041025D01*
X44452598Y-52015263D01*
X44435161Y-51993285D01*
X44427741Y-51977834D01*
X44427666Y-51976692D01*
X44422632Y-51967909D01*
X44420647Y-51967534D01*
X44414048Y-51960859D01*
X44403895Y-51944197D01*
X44392668Y-51922586D01*
X44382846Y-51901067D01*
X44376906Y-51884681D01*
X44376866Y-51878506D01*
X44375814Y-51871909D01*
X44370228Y-51863903D01*
X44361648Y-51848791D01*
X44355144Y-51825317D01*
X44350297Y-51791001D01*
X44346688Y-51743362D01*
X44345355Y-51716886D01*
X44346412Y-51679638D01*
X44606489Y-51679638D01*
X44607204Y-51733995D01*
X44617807Y-51780485D01*
X44643971Y-51834395D01*
X44682049Y-51876539D01*
X44731175Y-51906258D01*
X44790478Y-51922889D01*
X44807806Y-51925021D01*
X44838672Y-51926777D01*
X44864040Y-51926221D01*
X44877403Y-51923778D01*
X44890604Y-51919851D01*
X44894381Y-51920603D01*
X44904273Y-51919548D01*
X44922459Y-51908979D01*
X44945583Y-51891670D01*
X44970291Y-51870401D01*
X44993229Y-51847947D01*
X45011044Y-51827084D01*
X45015826Y-51820064D01*
X45029476Y-51795776D01*
X45037233Y-51774157D01*
X45040700Y-51748597D01*
X45041479Y-51714231D01*
X45041232Y-51673747D01*
X45039338Y-51645286D01*
X45034116Y-51623938D01*
X45023887Y-51604792D01*
X45006968Y-51582938D01*
X44989586Y-51562637D01*
X44943667Y-51520767D01*
X44892879Y-51494404D01*
X44839130Y-51483537D01*
X44784331Y-51488155D01*
X44730389Y-51508248D01*
X44679213Y-51543805D01*
X44657917Y-51564503D01*
X44639807Y-51584514D01*
X44628249Y-51598573D01*
X44625735Y-51603467D01*
X44625694Y-51610270D01*
X44620112Y-51627033D01*
X44618504Y-51630987D01*
X44606489Y-51679638D01*
X44346412Y-51679638D01*
X44347705Y-51634131D01*
X44363225Y-51558816D01*
X44392872Y-51488572D01*
X44437603Y-51421031D01*
X44487898Y-51364284D01*
X44515484Y-51337492D01*
X44539932Y-51315981D01*
X44558212Y-51302289D01*
X44566283Y-51298667D01*
X44578236Y-51294920D01*
X44580067Y-51291227D01*
X44586901Y-51284268D01*
X44603116Y-51274602D01*
X44622278Y-51265577D01*
X44637956Y-51260545D01*
X44639333Y-51260365D01*
X44649280Y-51256437D01*
X44660500Y-51250695D01*
X44692631Y-51238690D01*
X44736624Y-51229834D01*
X44787640Y-51224480D01*
X44840841Y-51222981D01*
X44891389Y-51225689D01*
X44927200Y-51231240D01*
X44955346Y-51238874D01*
X44987202Y-51249708D01*
X45018735Y-51262065D01*
X45045915Y-51274267D01*
X45064711Y-51284635D01*
X45071133Y-51291153D01*
X45078039Y-51297749D01*
X45084346Y-51298667D01*
X45098746Y-51305046D01*
X45120543Y-51322324D01*
X45147168Y-51347708D01*
X45176052Y-51378405D01*
X45204626Y-51411624D01*
X45230321Y-51444574D01*
X45250567Y-51474461D01*
X45257657Y-51487019D01*
X45287033Y-51544138D01*
X45543150Y-51544169D01*
X45799266Y-51544200D01*
X45799266Y-50519734D01*
X46154866Y-50519734D01*
X46154866Y-51899800D01*
X46154866Y-51899800D01*
G37*
X46154866Y-51899800D02*
X45274084Y-51899800D01*
X45257777Y-51927317D01*
X45244599Y-51948296D01*
X45233634Y-51963711D01*
X45232502Y-51965059D01*
X45224521Y-51977174D01*
X45223533Y-51980818D01*
X45217401Y-51993827D01*
X45201037Y-52014278D01*
X45177490Y-52039107D01*
X45149811Y-52065251D01*
X45121047Y-52089647D01*
X45098570Y-52106350D01*
X45027369Y-52147199D01*
X44952003Y-52174433D01*
X44887173Y-52187507D01*
X44854098Y-52192101D01*
X44830795Y-52194239D01*
X44810282Y-52193929D01*
X44785580Y-52191181D01*
X44761095Y-52187671D01*
X44730607Y-52181804D01*
X44696659Y-52173117D01*
X44663212Y-52162922D01*
X44634226Y-52152528D01*
X44613662Y-52143246D01*
X44605480Y-52136386D01*
X44605467Y-52136177D01*
X44599550Y-52130237D01*
X44597692Y-52130517D01*
X44583859Y-52127009D01*
X44561842Y-52113561D01*
X44534673Y-52092918D01*
X44505387Y-52067825D01*
X44477018Y-52041025D01*
X44452598Y-52015263D01*
X44435161Y-51993285D01*
X44427741Y-51977834D01*
X44427666Y-51976692D01*
X44422632Y-51967909D01*
X44420647Y-51967534D01*
X44414048Y-51960859D01*
X44403895Y-51944197D01*
X44392668Y-51922586D01*
X44382846Y-51901067D01*
X44376906Y-51884681D01*
X44376866Y-51878506D01*
X44375814Y-51871909D01*
X44370228Y-51863903D01*
X44361648Y-51848791D01*
X44355144Y-51825317D01*
X44350297Y-51791001D01*
X44346688Y-51743362D01*
X44345355Y-51716886D01*
X44346412Y-51679638D01*
X44606489Y-51679638D01*
X44607204Y-51733995D01*
X44617807Y-51780485D01*
X44643971Y-51834395D01*
X44682049Y-51876539D01*
X44731175Y-51906258D01*
X44790478Y-51922889D01*
X44807806Y-51925021D01*
X44838672Y-51926777D01*
X44864040Y-51926221D01*
X44877403Y-51923778D01*
X44890604Y-51919851D01*
X44894381Y-51920603D01*
X44904273Y-51919548D01*
X44922459Y-51908979D01*
X44945583Y-51891670D01*
X44970291Y-51870401D01*
X44993229Y-51847947D01*
X45011044Y-51827084D01*
X45015826Y-51820064D01*
X45029476Y-51795776D01*
X45037233Y-51774157D01*
X45040700Y-51748597D01*
X45041479Y-51714231D01*
X45041232Y-51673747D01*
X45039338Y-51645286D01*
X45034116Y-51623938D01*
X45023887Y-51604792D01*
X45006968Y-51582938D01*
X44989586Y-51562637D01*
X44943667Y-51520767D01*
X44892879Y-51494404D01*
X44839130Y-51483537D01*
X44784331Y-51488155D01*
X44730389Y-51508248D01*
X44679213Y-51543805D01*
X44657917Y-51564503D01*
X44639807Y-51584514D01*
X44628249Y-51598573D01*
X44625735Y-51603467D01*
X44625694Y-51610270D01*
X44620112Y-51627033D01*
X44618504Y-51630987D01*
X44606489Y-51679638D01*
X44346412Y-51679638D01*
X44347705Y-51634131D01*
X44363225Y-51558816D01*
X44392872Y-51488572D01*
X44437603Y-51421031D01*
X44487898Y-51364284D01*
X44515484Y-51337492D01*
X44539932Y-51315981D01*
X44558212Y-51302289D01*
X44566283Y-51298667D01*
X44578236Y-51294920D01*
X44580067Y-51291227D01*
X44586901Y-51284268D01*
X44603116Y-51274602D01*
X44622278Y-51265577D01*
X44637956Y-51260545D01*
X44639333Y-51260365D01*
X44649280Y-51256437D01*
X44660500Y-51250695D01*
X44692631Y-51238690D01*
X44736624Y-51229834D01*
X44787640Y-51224480D01*
X44840841Y-51222981D01*
X44891389Y-51225689D01*
X44927200Y-51231240D01*
X44955346Y-51238874D01*
X44987202Y-51249708D01*
X45018735Y-51262065D01*
X45045915Y-51274267D01*
X45064711Y-51284635D01*
X45071133Y-51291153D01*
X45078039Y-51297749D01*
X45084346Y-51298667D01*
X45098746Y-51305046D01*
X45120543Y-51322324D01*
X45147168Y-51347708D01*
X45176052Y-51378405D01*
X45204626Y-51411624D01*
X45230321Y-51444574D01*
X45250567Y-51474461D01*
X45257657Y-51487019D01*
X45287033Y-51544138D01*
X45543150Y-51544169D01*
X45799266Y-51544200D01*
X45799266Y-50519734D01*
X46154866Y-50519734D01*
X46154866Y-51899800D01*
%LPC*%
D13*
X40000000Y-119000000D03*
X40000000Y-54000000D03*
D14*
X70400000Y-56500000D03*
X68600000Y-56500000D03*
D15*
X51775360Y-34505900D03*
X56174640Y-34505900D03*
D16*
X101500000Y-52850000D03*
X101500000Y-62350000D03*
M02*
