G04 #@! TF.FileFunction,Profile,NP*
%FSLAX46Y46*%
G04 Gerber Fmt 4.6, Leading zero omitted, Abs format (unit mm)*
G04 Created by KiCad (PCBNEW 4.0.6) date Saturday, January 06, 2018 'AMt' 08:46:40 AM*
%MOMM*%
%LPD*%
G01*
G04 APERTURE LIST*
%ADD10C,0.150000*%
%ADD11C,0.100000*%
G04 APERTURE END LIST*
D10*
X36195000Y-126365000D02*
G75*
G03X39370000Y-129540000I3175000J0D01*
G01*
X107315000Y-129540000D02*
G75*
G03X110490000Y-126365000I0J3175000D01*
G01*
X110490000Y-38735000D02*
G75*
G03X107315000Y-35560000I-3175000J0D01*
G01*
X48260000Y-35560000D02*
X39370000Y-35560000D01*
X59690000Y-35560000D02*
X107315000Y-35560000D01*
X59690000Y-29845000D02*
X59690000Y-35560000D01*
X48260000Y-29845000D02*
X59690000Y-29845000D01*
X48260000Y-35560000D02*
X48260000Y-29845000D01*
X39370000Y-35560000D02*
G75*
G03X36195000Y-38735000I0J-3175000D01*
G01*
X110490000Y-126365000D02*
X110490000Y-38735000D01*
X39370000Y-129540000D02*
X107315000Y-129540000D01*
X36195000Y-38735000D02*
X36195000Y-126365000D01*
D11*
X42450000Y-60220000D02*
X42450000Y-56620000D01*
X46450000Y-56620000D02*
X42450000Y-56620000D01*
X46450000Y-60220000D02*
X42450000Y-60220000D01*
X46450000Y-60220000D02*
X46450000Y-56620000D01*
X80550000Y-41170000D02*
X80550000Y-37570000D01*
X84550000Y-37570000D02*
X80550000Y-37570000D01*
X84550000Y-41170000D02*
X80550000Y-41170000D01*
X84550000Y-41170000D02*
X84550000Y-37570000D01*
X99600000Y-41170000D02*
X99600000Y-37570000D01*
X103600000Y-37570000D02*
X99600000Y-37570000D01*
X103600000Y-41170000D02*
X99600000Y-41170000D01*
X103600000Y-41170000D02*
X103600000Y-37570000D01*
X80550000Y-117370000D02*
X80550000Y-113770000D01*
X84550000Y-113770000D02*
X80550000Y-113770000D01*
X84550000Y-117370000D02*
X80550000Y-117370000D01*
X84550000Y-117370000D02*
X84550000Y-113770000D01*
X51975000Y-117370000D02*
X51975000Y-113770000D01*
X55975000Y-113770000D02*
X51975000Y-113770000D01*
X55975000Y-117370000D02*
X51975000Y-117370000D01*
X55975000Y-117370000D02*
X55975000Y-113770000D01*
X98320000Y-113125000D02*
X94720000Y-113125000D01*
X94720000Y-109125000D02*
X94720000Y-113125000D01*
X98320000Y-109125000D02*
X98320000Y-113125000D01*
X98320000Y-109125000D02*
X94720000Y-109125000D01*
X80550000Y-98320000D02*
X80550000Y-94720000D01*
X84550000Y-94720000D02*
X80550000Y-94720000D01*
X84550000Y-98320000D02*
X80550000Y-98320000D01*
X84550000Y-98320000D02*
X84550000Y-94720000D01*
X61500000Y-98320000D02*
X61500000Y-94720000D01*
X65500000Y-94720000D02*
X61500000Y-94720000D01*
X65500000Y-98320000D02*
X61500000Y-98320000D01*
X65500000Y-98320000D02*
X65500000Y-94720000D01*
X42450000Y-98320000D02*
X42450000Y-94720000D01*
X46450000Y-94720000D02*
X42450000Y-94720000D01*
X46450000Y-98320000D02*
X42450000Y-98320000D01*
X46450000Y-98320000D02*
X46450000Y-94720000D01*
X80550000Y-79270000D02*
X80550000Y-75670000D01*
X84550000Y-75670000D02*
X80550000Y-75670000D01*
X84550000Y-79270000D02*
X80550000Y-79270000D01*
X84550000Y-79270000D02*
X84550000Y-75670000D01*
X61500000Y-79270000D02*
X61500000Y-75670000D01*
X65500000Y-75670000D02*
X61500000Y-75670000D01*
X65500000Y-79270000D02*
X61500000Y-79270000D01*
X65500000Y-79270000D02*
X65500000Y-75670000D01*
X42450000Y-79270000D02*
X42450000Y-75670000D01*
X46450000Y-75670000D02*
X42450000Y-75670000D01*
X46450000Y-79270000D02*
X42450000Y-79270000D01*
X46450000Y-79270000D02*
X46450000Y-75670000D01*
X98320000Y-75025000D02*
X94720000Y-75025000D01*
X94720000Y-71025000D02*
X94720000Y-75025000D01*
X98320000Y-71025000D02*
X98320000Y-75025000D01*
X98320000Y-71025000D02*
X94720000Y-71025000D01*
X61500000Y-60220000D02*
X61500000Y-56620000D01*
X65500000Y-56620000D02*
X61500000Y-56620000D01*
X65500000Y-60220000D02*
X61500000Y-60220000D01*
X65500000Y-60220000D02*
X65500000Y-56620000D01*
X61500000Y-41170000D02*
X61500000Y-37570000D01*
X65500000Y-37570000D02*
X61500000Y-37570000D01*
X65500000Y-41170000D02*
X61500000Y-41170000D01*
X65500000Y-41170000D02*
X65500000Y-37570000D01*
X42450000Y-41170000D02*
X42450000Y-37570000D01*
X46450000Y-37570000D02*
X42450000Y-37570000D01*
X46450000Y-41170000D02*
X42450000Y-41170000D01*
X46450000Y-41170000D02*
X46450000Y-37570000D01*
X80550000Y-60220000D02*
X80550000Y-56620000D01*
X84550000Y-56620000D02*
X80550000Y-56620000D01*
X84550000Y-60220000D02*
X80550000Y-60220000D01*
X84550000Y-60220000D02*
X84550000Y-56620000D01*
M02*
