%FSLAX45Y45*%
G04 Gerber Fmt 4.5, Leading zero omitted, Abs format (unit mm)*
G04 Created by KiCad (PCBNEW 4.0.6) date Saturday, January 06, 2018 'AMt' 08:46:44 AM*
%MOMM*%
%LPD*%
G01*
G04 APERTURE LIST*
%ADD10C,0.127000*%
%ADD11C,0.150000*%
%ADD12C,0.200000*%
%ADD13C,0.300000*%
G04 APERTURE END LIST*
D10*
D11*
X3619500Y-12636500D02*
G75*
G03X3937000Y-12954000I317500J0D01*
G01*
X10731500Y-12954000D02*
G75*
G03X11049000Y-12636500I0J317500D01*
G01*
X11049000Y-3873500D02*
G75*
G03X10731500Y-3556000I-317500J0D01*
G01*
X4826000Y-3556000D02*
X3937000Y-3556000D01*
X5969000Y-3556000D02*
X10731500Y-3556000D01*
X5969000Y-2984500D02*
X5969000Y-3556000D01*
X4826000Y-2984500D02*
X5969000Y-2984500D01*
X4826000Y-3556000D02*
X4826000Y-2984500D01*
X3937000Y-3556000D02*
G75*
G03X3619500Y-3873500I0J-317500D01*
G01*
X11049000Y-12636500D02*
X11049000Y-3873500D01*
X3937000Y-12954000D02*
X10731500Y-12954000D01*
X3619500Y-3873500D02*
X3619500Y-12636500D01*
D12*
X3765000Y-4545000D02*
X3795000Y-4575000D01*
X3795000Y-4545000D02*
X3765000Y-4575000D01*
X3785000Y-5985000D02*
X3815000Y-6015000D01*
X3815000Y-5985000D02*
X3785000Y-6015000D01*
X3835000Y-9485000D02*
X3865000Y-9515000D01*
X3865000Y-9485000D02*
X3835000Y-9515000D01*
X3835000Y-11235000D02*
X3865000Y-11265000D01*
X3865000Y-11235000D02*
X3835000Y-11265000D01*
X3885000Y-3865000D02*
X3915000Y-3895000D01*
X3915000Y-3865000D02*
X3885000Y-3895000D01*
X4085000Y-4385000D02*
X4115000Y-4415000D01*
X4115000Y-4385000D02*
X4085000Y-4415000D01*
X4085000Y-12385000D02*
X4115000Y-12415000D01*
X4115000Y-12385000D02*
X4085000Y-12415000D01*
X4385000Y-5460000D02*
X4415000Y-5490000D01*
X4415000Y-5460000D02*
X4385000Y-5490000D01*
X4485000Y-4735000D02*
X4515000Y-4765000D01*
X4515000Y-4735000D02*
X4485000Y-4765000D01*
X4485000Y-5110000D02*
X4515000Y-5140000D01*
X4515000Y-5110000D02*
X4485000Y-5140000D01*
X4710000Y-5110000D02*
X4740000Y-5140000D01*
X4740000Y-5110000D02*
X4710000Y-5140000D01*
X4735000Y-5560000D02*
X4765000Y-5590000D01*
X4765000Y-5560000D02*
X4735000Y-5590000D01*
X4860000Y-7160000D02*
X4890000Y-7190000D01*
X4890000Y-7160000D02*
X4860000Y-7190000D01*
X4860000Y-7335000D02*
X4890000Y-7365000D01*
X4890000Y-7335000D02*
X4860000Y-7365000D01*
X4885000Y-3385000D02*
X4915000Y-3415000D01*
X4915000Y-3385000D02*
X4885000Y-3415000D01*
X4885000Y-9635000D02*
X4915000Y-9665000D01*
X4915000Y-9635000D02*
X4885000Y-9665000D01*
X4885000Y-10710000D02*
X4915000Y-10740000D01*
X4915000Y-10710000D02*
X4885000Y-10740000D01*
X4935000Y-4110000D02*
X4965000Y-4140000D01*
X4965000Y-4110000D02*
X4935000Y-4140000D01*
X5010000Y-5035000D02*
X5040000Y-5065000D01*
X5040000Y-5035000D02*
X5010000Y-5065000D01*
X5045000Y-6235000D02*
X5075000Y-6265000D01*
X5075000Y-6235000D02*
X5045000Y-6265000D01*
X5095000Y-5445000D02*
X5125000Y-5475000D01*
X5125000Y-5445000D02*
X5095000Y-5475000D01*
X5095000Y-5685000D02*
X5125000Y-5715000D01*
X5125000Y-5685000D02*
X5095000Y-5715000D01*
X5095000Y-5925000D02*
X5125000Y-5955000D01*
X5125000Y-5925000D02*
X5095000Y-5955000D01*
X5170000Y-4875000D02*
X5200000Y-4905000D01*
X5200000Y-4875000D02*
X5170000Y-4905000D01*
X5230000Y-4115000D02*
X5260000Y-4145000D01*
X5260000Y-4115000D02*
X5230000Y-4145000D01*
X5235000Y-6335000D02*
X5265000Y-6365000D01*
X5265000Y-6335000D02*
X5235000Y-6365000D01*
X5235000Y-7160000D02*
X5265000Y-7190000D01*
X5265000Y-7160000D02*
X5235000Y-7190000D01*
X5235000Y-7460000D02*
X5265000Y-7490000D01*
X5265000Y-7460000D02*
X5235000Y-7490000D01*
X5235000Y-7735000D02*
X5265000Y-7765000D01*
X5265000Y-7735000D02*
X5235000Y-7765000D01*
X5285000Y-11785000D02*
X5315000Y-11815000D01*
X5315000Y-11785000D02*
X5285000Y-11815000D01*
X5335000Y-5445000D02*
X5365000Y-5475000D01*
X5365000Y-5445000D02*
X5335000Y-5475000D01*
X5335000Y-5685000D02*
X5365000Y-5715000D01*
X5365000Y-5685000D02*
X5335000Y-5715000D01*
X5335000Y-5925000D02*
X5365000Y-5955000D01*
X5365000Y-5925000D02*
X5335000Y-5955000D01*
X5350000Y-4630000D02*
X5380000Y-4660000D01*
X5380000Y-4630000D02*
X5350000Y-4660000D01*
X5360000Y-9185000D02*
X5390000Y-9215000D01*
X5390000Y-9185000D02*
X5360000Y-9215000D01*
X5385000Y-6635000D02*
X5415000Y-6665000D01*
X5415000Y-6635000D02*
X5385000Y-6665000D01*
X5400000Y-4375000D02*
X5430000Y-4405000D01*
X5430000Y-4375000D02*
X5400000Y-4405000D01*
X5425000Y-4925000D02*
X5455000Y-4955000D01*
X5455000Y-4925000D02*
X5425000Y-4955000D01*
X5460000Y-4110000D02*
X5490000Y-4140000D01*
X5490000Y-4110000D02*
X5460000Y-4140000D01*
X5485000Y-12585000D02*
X5515000Y-12615000D01*
X5515000Y-12585000D02*
X5485000Y-12615000D01*
X5510000Y-5135000D02*
X5540000Y-5165000D01*
X5540000Y-5135000D02*
X5510000Y-5165000D01*
X5535000Y-6235000D02*
X5565000Y-6265000D01*
X5565000Y-6235000D02*
X5535000Y-6265000D01*
X5550000Y-7520000D02*
X5580000Y-7550000D01*
X5580000Y-7520000D02*
X5550000Y-7550000D01*
X5575000Y-5445000D02*
X5605000Y-5475000D01*
X5605000Y-5445000D02*
X5575000Y-5475000D01*
X5575000Y-5685000D02*
X5605000Y-5715000D01*
X5605000Y-5685000D02*
X5575000Y-5715000D01*
X5575000Y-5925000D02*
X5605000Y-5955000D01*
X5605000Y-5925000D02*
X5575000Y-5955000D01*
X5615000Y-4375000D02*
X5645000Y-4405000D01*
X5645000Y-4375000D02*
X5615000Y-4405000D01*
X5620000Y-7450000D02*
X5650000Y-7480000D01*
X5650000Y-7450000D02*
X5620000Y-7480000D01*
X5675000Y-4630000D02*
X5705000Y-4660000D01*
X5705000Y-4630000D02*
X5675000Y-4660000D01*
X5810000Y-4110000D02*
X5840000Y-4140000D01*
X5840000Y-4110000D02*
X5810000Y-4140000D01*
X5825000Y-7755000D02*
X5855000Y-7785000D01*
X5855000Y-7755000D02*
X5825000Y-7785000D01*
X5835000Y-9585000D02*
X5865000Y-9615000D01*
X5865000Y-9585000D02*
X5835000Y-9615000D01*
X5885000Y-3385000D02*
X5915000Y-3415000D01*
X5915000Y-3385000D02*
X5885000Y-3415000D01*
X5905000Y-7465000D02*
X5935000Y-7495000D01*
X5935000Y-7465000D02*
X5905000Y-7495000D01*
X6025000Y-5185000D02*
X6055000Y-5215000D01*
X6055000Y-5185000D02*
X6025000Y-5215000D01*
X6100000Y-7390000D02*
X6130000Y-7420000D01*
X6130000Y-7390000D02*
X6100000Y-7420000D01*
X6135000Y-12835000D02*
X6165000Y-12865000D01*
X6165000Y-12835000D02*
X6135000Y-12865000D01*
X6325000Y-7075000D02*
X6355000Y-7105000D01*
X6355000Y-7075000D02*
X6325000Y-7105000D01*
X6360000Y-4960000D02*
X6390000Y-4990000D01*
X6390000Y-4960000D02*
X6360000Y-4990000D01*
X6485000Y-5185000D02*
X6515000Y-5215000D01*
X6515000Y-5185000D02*
X6485000Y-5215000D01*
X6505000Y-5505000D02*
X6535000Y-5535000D01*
X6535000Y-5505000D02*
X6505000Y-5535000D01*
X6665000Y-5265000D02*
X6695000Y-5295000D01*
X6695000Y-5265000D02*
X6665000Y-5295000D01*
X6705000Y-5045000D02*
X6735000Y-5075000D01*
X6735000Y-5045000D02*
X6705000Y-5075000D01*
X6805000Y-7075000D02*
X6835000Y-7105000D01*
X6835000Y-7075000D02*
X6805000Y-7105000D01*
X6805000Y-7575000D02*
X6835000Y-7605000D01*
X6835000Y-7575000D02*
X6805000Y-7605000D01*
X7045000Y-5045000D02*
X7075000Y-5075000D01*
X7075000Y-5045000D02*
X7045000Y-5075000D01*
X7085000Y-11235000D02*
X7115000Y-11265000D01*
X7115000Y-11235000D02*
X7085000Y-11265000D01*
X7085000Y-12485000D02*
X7115000Y-12515000D01*
X7115000Y-12485000D02*
X7085000Y-12515000D01*
X7110000Y-4335000D02*
X7140000Y-4365000D01*
X7140000Y-4335000D02*
X7110000Y-4365000D01*
X7210000Y-8760000D02*
X7240000Y-8790000D01*
X7240000Y-8760000D02*
X7210000Y-8790000D01*
X7325000Y-5045000D02*
X7355000Y-5075000D01*
X7355000Y-5045000D02*
X7325000Y-5075000D01*
X7355000Y-5435000D02*
X7385000Y-5465000D01*
X7385000Y-5435000D02*
X7355000Y-5465000D01*
X7785000Y-9185000D02*
X7815000Y-9215000D01*
X7815000Y-9185000D02*
X7785000Y-9215000D01*
X7835000Y-8485000D02*
X7865000Y-8515000D01*
X7865000Y-8485000D02*
X7835000Y-8515000D01*
X7885000Y-11135000D02*
X7915000Y-11165000D01*
X7915000Y-11135000D02*
X7885000Y-11165000D01*
X7885000Y-12285000D02*
X7915000Y-12315000D01*
X7915000Y-12285000D02*
X7885000Y-12315000D01*
X7935000Y-7485000D02*
X7965000Y-7515000D01*
X7965000Y-7485000D02*
X7935000Y-7515000D01*
X8185000Y-5335000D02*
X8215000Y-5365000D01*
X8215000Y-5335000D02*
X8185000Y-5365000D01*
X8635000Y-9035000D02*
X8665000Y-9065000D01*
X8665000Y-9035000D02*
X8635000Y-9065000D01*
X9285000Y-11085000D02*
X9315000Y-11115000D01*
X9315000Y-11085000D02*
X9285000Y-11115000D01*
X9505000Y-5415000D02*
X9535000Y-5445000D01*
X9535000Y-5415000D02*
X9505000Y-5445000D01*
X9635000Y-11965000D02*
X9665000Y-11995000D01*
X9665000Y-11965000D02*
X9635000Y-11995000D01*
X9785000Y-8435000D02*
X9815000Y-8465000D01*
X9815000Y-8435000D02*
X9785000Y-8465000D01*
X10085000Y-6960000D02*
X10115000Y-6990000D01*
X10115000Y-6960000D02*
X10085000Y-6990000D01*
X10135000Y-5515000D02*
X10165000Y-5545000D01*
X10165000Y-5515000D02*
X10135000Y-5545000D01*
X10285000Y-4885000D02*
X10315000Y-4915000D01*
X10315000Y-4885000D02*
X10285000Y-4915000D01*
X10385000Y-12485000D02*
X10415000Y-12515000D01*
X10415000Y-12485000D02*
X10385000Y-12515000D01*
X10485000Y-5235000D02*
X10515000Y-5265000D01*
X10515000Y-5235000D02*
X10485000Y-5265000D01*
X10535000Y-6135000D02*
X10565000Y-6165000D01*
X10565000Y-6135000D02*
X10535000Y-6165000D01*
X10785000Y-7135000D02*
X10815000Y-7165000D01*
X10815000Y-7135000D02*
X10785000Y-7165000D01*
X10785000Y-9085000D02*
X10815000Y-9115000D01*
X10815000Y-9085000D02*
X10785000Y-9115000D01*
X10785000Y-10785000D02*
X10815000Y-10815000D01*
X10815000Y-10785000D02*
X10785000Y-10815000D01*
X10835000Y-5535000D02*
X10865000Y-5565000D01*
X10865000Y-5535000D02*
X10835000Y-5565000D01*
X3775240Y-3788165D02*
G75*
G03X3775240Y-3788165I-15240J0D01*
G01*
X3850240Y-4685000D02*
G75*
G03X3850240Y-4685000I-15240J0D01*
G01*
X3855240Y-7060000D02*
G75*
G03X3855240Y-7060000I-15240J0D01*
G01*
X3855240Y-10860000D02*
G75*
G03X3855240Y-10860000I-15240J0D01*
G01*
X3876040Y-9004300D02*
G75*
G03X3876040Y-9004300I-15240J0D01*
G01*
X3955240Y-3630000D02*
G75*
G03X3955240Y-3630000I-15240J0D01*
G01*
X3975240Y-5620000D02*
G75*
G03X3975240Y-5620000I-15240J0D01*
G01*
X4005240Y-4150000D02*
G75*
G03X4005240Y-4150000I-15240J0D01*
G01*
X4009679Y-7117150D02*
G75*
G03X4009679Y-7117150I-15240J0D01*
G01*
X4025201Y-6104921D02*
G75*
G03X4025201Y-6104921I-15240J0D01*
G01*
X4045240Y-7920000D02*
G75*
G03X4045240Y-7920000I-15240J0D01*
G01*
X4046420Y-8000000D02*
G75*
G03X4046420Y-8000000I-15240J0D01*
G01*
X4046420Y-8580000D02*
G75*
G03X4046420Y-8580000I-15240J0D01*
G01*
X4138667Y-4649934D02*
G75*
G03X4138667Y-4649934I-15240J0D01*
G01*
X4175240Y-7920000D02*
G75*
G03X4175240Y-7920000I-15240J0D01*
G01*
X4175240Y-9820000D02*
G75*
G03X4175240Y-9820000I-15240J0D01*
G01*
X4183405Y-3788165D02*
G75*
G03X4183405Y-3788165I-15240J0D01*
G01*
X4195240Y-5700000D02*
G75*
G03X4195240Y-5700000I-15240J0D01*
G01*
X4195240Y-9420000D02*
G75*
G03X4195240Y-9420000I-15240J0D01*
G01*
X4196810Y-6000000D02*
G75*
G03X4196810Y-6000000I-15240J0D01*
G01*
X4315240Y-5603740D02*
G75*
G03X4315240Y-5603740I-15240J0D01*
G01*
X4325760Y-5120000D02*
G75*
G03X4325760Y-5120000I-15240J0D01*
G01*
X4365209Y-7259969D02*
G75*
G03X4365209Y-7259969I-15240J0D01*
G01*
X4420146Y-6984906D02*
G75*
G03X4420146Y-6984906I-15240J0D01*
G01*
X4685240Y-4220000D02*
G75*
G03X4685240Y-4220000I-15240J0D01*
G01*
X4700579Y-7316161D02*
G75*
G03X4700579Y-7316161I-15240J0D01*
G01*
X4720332Y-5694908D02*
G75*
G03X4720332Y-5694908I-15240J0D01*
G01*
X4733499Y-9811520D02*
G75*
G03X4733499Y-9811520I-15240J0D01*
G01*
X4735240Y-9480000D02*
G75*
G03X4735240Y-9480000I-15240J0D01*
G01*
X4759760Y-7493000D02*
G75*
G03X4759760Y-7493000I-15240J0D01*
G01*
X4764380Y-4400000D02*
G75*
G03X4764380Y-4400000I-15240J0D01*
G01*
X4775240Y-6240000D02*
G75*
G03X4775240Y-6240000I-15240J0D01*
G01*
X4775346Y-5317850D02*
G75*
G03X4775346Y-5317850I-15240J0D01*
G01*
X4815240Y-7960000D02*
G75*
G03X4815240Y-7960000I-15240J0D01*
G01*
X5095240Y-4880000D02*
G75*
G03X5095240Y-4880000I-15240J0D01*
G01*
X5135240Y-11340000D02*
G75*
G03X5135240Y-11340000I-15240J0D01*
G01*
X5155240Y-7003453D02*
G75*
G03X5155240Y-7003453I-15240J0D01*
G01*
X5186070Y-11160000D02*
G75*
G03X5186070Y-11160000I-15240J0D01*
G01*
X5196240Y-8680000D02*
G75*
G03X5196240Y-8680000I-15240J0D01*
G01*
X5235240Y-3890000D02*
G75*
G03X5235240Y-3890000I-15240J0D01*
G01*
X5295240Y-9920000D02*
G75*
G03X5295240Y-9920000I-15240J0D01*
G01*
X5315240Y-7027150D02*
G75*
G03X5315240Y-7027150I-15240J0D01*
G01*
X5338090Y-10974300D02*
G75*
G03X5338090Y-10974300I-15240J0D01*
G01*
X5395240Y-5140000D02*
G75*
G03X5395240Y-5140000I-15240J0D01*
G01*
X5395708Y-7160000D02*
G75*
G03X5395708Y-7160000I-15240J0D01*
G01*
X5395708Y-7250000D02*
G75*
G03X5395708Y-7250000I-15240J0D01*
G01*
X5407560Y-9820000D02*
G75*
G03X5407560Y-9820000I-15240J0D01*
G01*
X5415240Y-6260000D02*
G75*
G03X5415240Y-6260000I-15240J0D01*
G01*
X5518090Y-7920000D02*
G75*
G03X5518090Y-7920000I-15240J0D01*
G01*
X5591446Y-6861469D02*
G75*
G03X5591446Y-6861469I-15240J0D01*
G01*
X5594298Y-7170942D02*
G75*
G03X5594298Y-7170942I-15240J0D01*
G01*
X5595240Y-9435330D02*
G75*
G03X5595240Y-9435330I-15240J0D01*
G01*
X5609529Y-6592665D02*
G75*
G03X5609529Y-6592665I-15240J0D01*
G01*
X5645240Y-6500000D02*
G75*
G03X5645240Y-6500000I-15240J0D01*
G01*
X5655240Y-8040000D02*
G75*
G03X5655240Y-8040000I-15240J0D01*
G01*
X5675240Y-5126260D02*
G75*
G03X5675240Y-5126260I-15240J0D01*
G01*
X5682740Y-11031450D02*
G75*
G03X5682740Y-11031450I-15240J0D01*
G01*
X5688269Y-6592665D02*
G75*
G03X5688269Y-6592665I-15240J0D01*
G01*
X5695240Y-11720000D02*
G75*
G03X5695240Y-11720000I-15240J0D01*
G01*
X5711424Y-7186184D02*
G75*
G03X5711424Y-7186184I-15240J0D01*
G01*
X5712390Y-7862850D02*
G75*
G03X5712390Y-7862850I-15240J0D01*
G01*
X5755240Y-7980000D02*
G75*
G03X5755240Y-7980000I-15240J0D01*
G01*
X5755240Y-10840000D02*
G75*
G03X5755240Y-10840000I-15240J0D01*
G01*
X5755640Y-8940800D02*
G75*
G03X5755640Y-8940800I-15240J0D01*
G01*
X5768340Y-5130800D02*
G75*
G03X5768340Y-5130800I-15240J0D01*
G01*
X5775240Y-6560000D02*
G75*
G03X5775240Y-6560000I-15240J0D01*
G01*
X5797657Y-7241888D02*
G75*
G03X5797657Y-7241888I-15240J0D01*
G01*
X5835004Y-6218608D02*
G75*
G03X5835004Y-6218608I-15240J0D01*
G01*
X5905240Y-5530000D02*
G75*
G03X5905240Y-5530000I-15240J0D01*
G01*
X5905240Y-7660000D02*
G75*
G03X5905240Y-7660000I-15240J0D01*
G01*
X5907498Y-7356986D02*
G75*
G03X5907498Y-7356986I-15240J0D01*
G01*
X5935240Y-11340000D02*
G75*
G03X5935240Y-11340000I-15240J0D01*
G01*
X5941653Y-5882151D02*
G75*
G03X5941653Y-5882151I-15240J0D01*
G01*
X5952962Y-5753744D02*
G75*
G03X5952962Y-5753744I-15240J0D01*
G01*
X5975240Y-7860000D02*
G75*
G03X5975240Y-7860000I-15240J0D01*
G01*
X5990590Y-6081121D02*
G75*
G03X5990590Y-6081121I-15240J0D01*
G01*
X6000453Y-5934522D02*
G75*
G03X6000453Y-5934522I-15240J0D01*
G01*
X6027325Y-6333978D02*
G75*
G03X6027325Y-6333978I-15240J0D01*
G01*
X6031700Y-5656460D02*
G75*
G03X6031700Y-5656460I-15240J0D01*
G01*
X6035240Y-4200000D02*
G75*
G03X6035240Y-4200000I-15240J0D01*
G01*
X6044715Y-6023932D02*
G75*
G03X6044715Y-6023932I-15240J0D01*
G01*
X6095240Y-3760000D02*
G75*
G03X6095240Y-3760000I-15240J0D01*
G01*
X6095240Y-7900000D02*
G75*
G03X6095240Y-7900000I-15240J0D01*
G01*
X6095240Y-8037150D02*
G75*
G03X6095240Y-8037150I-15240J0D01*
G01*
X6095240Y-9378180D02*
G75*
G03X6095240Y-9378180I-15240J0D01*
G01*
X6095240Y-9927631D02*
G75*
G03X6095240Y-9927631I-15240J0D01*
G01*
X6106983Y-4127548D02*
G75*
G03X6106983Y-4127548I-15240J0D01*
G01*
X6115240Y-6220000D02*
G75*
G03X6115240Y-6220000I-15240J0D01*
G01*
X6155240Y-11160000D02*
G75*
G03X6155240Y-11160000I-15240J0D01*
G01*
X6218761Y-7402016D02*
G75*
G03X6218761Y-7402016I-15240J0D01*
G01*
X6320349Y-4803264D02*
G75*
G03X6320349Y-4803264I-15240J0D01*
G01*
X6375240Y-11720000D02*
G75*
G03X6375240Y-11720000I-15240J0D01*
G01*
X6474257Y-6576432D02*
G75*
G03X6474257Y-6576432I-15240J0D01*
G01*
X6525240Y-7254313D02*
G75*
G03X6525240Y-7254313I-15240J0D01*
G01*
X6565240Y-7440000D02*
G75*
G03X6565240Y-7440000I-15240J0D01*
G01*
X6624829Y-5989589D02*
G75*
G03X6624829Y-5989589I-15240J0D01*
G01*
X6635240Y-7600000D02*
G75*
G03X6635240Y-7600000I-15240J0D01*
G01*
X6635240Y-7980000D02*
G75*
G03X6635240Y-7980000I-15240J0D01*
G01*
X6655240Y-9460000D02*
G75*
G03X6655240Y-9460000I-15240J0D01*
G01*
X6675240Y-9840000D02*
G75*
G03X6675240Y-9840000I-15240J0D01*
G01*
X6718188Y-5834545D02*
G75*
G03X6718188Y-5834545I-15240J0D01*
G01*
X6735240Y-7940000D02*
G75*
G03X6735240Y-7940000I-15240J0D01*
G01*
X6754829Y-4009589D02*
G75*
G03X6754829Y-4009589I-15240J0D01*
G01*
X6770797Y-6060391D02*
G75*
G03X6770797Y-6060391I-15240J0D01*
G01*
X6795240Y-9460000D02*
G75*
G03X6795240Y-9460000I-15240J0D01*
G01*
X6842837Y-6117541D02*
G75*
G03X6842837Y-6117541I-15240J0D01*
G01*
X6865240Y-4932820D02*
G75*
G03X6865240Y-4932820I-15240J0D01*
G01*
X6940240Y-6775000D02*
G75*
G03X6940240Y-6775000I-15240J0D01*
G01*
X7101240Y-6131513D02*
G75*
G03X7101240Y-6131513I-15240J0D01*
G01*
X7101240Y-8680000D02*
G75*
G03X7101240Y-8680000I-15240J0D01*
G01*
X7158390Y-7436937D02*
G75*
G03X7158390Y-7436937I-15240J0D01*
G01*
X7235240Y-7397150D02*
G75*
G03X7235240Y-7397150I-15240J0D01*
G01*
X7277566Y-6141702D02*
G75*
G03X7277566Y-6141702I-15240J0D01*
G01*
X7341263Y-5774093D02*
G75*
G03X7341263Y-5774093I-15240J0D01*
G01*
X7356237Y-6138375D02*
G75*
G03X7356237Y-6138375I-15240J0D01*
G01*
X7385240Y-5839408D02*
G75*
G03X7385240Y-5839408I-15240J0D01*
G01*
X7390940Y-4875000D02*
G75*
G03X7390940Y-4875000I-15240J0D01*
G01*
X7438390Y-6081225D02*
G75*
G03X7438390Y-6081225I-15240J0D01*
G01*
X7448090Y-5130800D02*
G75*
G03X7448090Y-5130800I-15240J0D01*
G01*
X7455240Y-7176167D02*
G75*
G03X7455240Y-7176167I-15240J0D01*
G01*
X7469724Y-10917150D02*
G75*
G03X7469724Y-10917150I-15240J0D01*
G01*
X7470648Y-8997950D02*
G75*
G03X7470648Y-8997950I-15240J0D01*
G01*
X7485480Y-6882850D02*
G75*
G03X7485480Y-6882850I-15240J0D01*
G01*
X7533640Y-8940800D02*
G75*
G03X7533640Y-8940800I-15240J0D01*
G01*
X7535240Y-10860000D02*
G75*
G03X7535240Y-10860000I-15240J0D01*
G01*
X7582173Y-6041008D02*
G75*
G03X7582173Y-6041008I-15240J0D01*
G01*
X7755240Y-4280000D02*
G75*
G03X7755240Y-4280000I-15240J0D01*
G01*
X7813040Y-5143500D02*
G75*
G03X7813040Y-5143500I-15240J0D01*
G01*
X7835240Y-7000000D02*
G75*
G03X7835240Y-7000000I-15240J0D01*
G01*
X7857720Y-7640000D02*
G75*
G03X7857720Y-7640000I-15240J0D01*
G01*
X7915240Y-3780000D02*
G75*
G03X7915240Y-3780000I-15240J0D01*
G01*
X7921910Y-8110000D02*
G75*
G03X7921910Y-8110000I-15240J0D01*
G01*
X7975240Y-9853330D02*
G75*
G03X7975240Y-9853330I-15240J0D01*
G01*
X7995240Y-7940000D02*
G75*
G03X7995240Y-7940000I-15240J0D01*
G01*
X7995240Y-9480000D02*
G75*
G03X7995240Y-9480000I-15240J0D01*
G01*
X7995240Y-11320000D02*
G75*
G03X7995240Y-11320000I-15240J0D01*
G01*
X7995240Y-11840000D02*
G75*
G03X7995240Y-11840000I-15240J0D01*
G01*
X8005240Y-4100000D02*
G75*
G03X8005240Y-4100000I-15240J0D01*
G01*
X8285240Y-7282850D02*
G75*
G03X8285240Y-7282850I-15240J0D01*
G01*
X8535240Y-4100000D02*
G75*
G03X8535240Y-4100000I-15240J0D01*
G01*
X8555240Y-9880000D02*
G75*
G03X8555240Y-9880000I-15240J0D01*
G01*
X8555240Y-11031450D02*
G75*
G03X8555240Y-11031450I-15240J0D01*
G01*
X8626910Y-4220000D02*
G75*
G03X8626910Y-4220000I-15240J0D01*
G01*
X8655240Y-7740000D02*
G75*
G03X8655240Y-7740000I-15240J0D01*
G01*
X8655240Y-9580000D02*
G75*
G03X8655240Y-9580000I-15240J0D01*
G01*
X8675240Y-5780000D02*
G75*
G03X8675240Y-5780000I-15240J0D01*
G01*
X8675240Y-5920000D02*
G75*
G03X8675240Y-5920000I-15240J0D01*
G01*
X8685240Y-3663180D02*
G75*
G03X8685240Y-3663180I-15240J0D01*
G01*
X8845240Y-7084282D02*
G75*
G03X8845240Y-7084282I-15240J0D01*
G01*
X9006240Y-6778806D02*
G75*
G03X9006240Y-6778806I-15240J0D01*
G01*
X9175240Y-3720330D02*
G75*
G03X9175240Y-3720330I-15240J0D01*
G01*
X9375240Y-4153670D02*
G75*
G03X9375240Y-4153670I-15240J0D01*
G01*
X9395240Y-10980000D02*
G75*
G03X9395240Y-10980000I-15240J0D01*
G01*
X9395240Y-11800000D02*
G75*
G03X9395240Y-11800000I-15240J0D01*
G01*
X9495240Y-5780000D02*
G75*
G03X9495240Y-5780000I-15240J0D01*
G01*
X9565640Y-5143500D02*
G75*
G03X9565640Y-5143500I-15240J0D01*
G01*
X9575240Y-5880000D02*
G75*
G03X9575240Y-5880000I-15240J0D01*
G01*
X9578289Y-6849929D02*
G75*
G03X9578289Y-6849929I-15240J0D01*
G01*
X9595240Y-7820000D02*
G75*
G03X9595240Y-7820000I-15240J0D01*
G01*
X9595240Y-9600000D02*
G75*
G03X9595240Y-9600000I-15240J0D01*
G01*
X9715720Y-6860000D02*
G75*
G03X9715720Y-6860000I-15240J0D01*
G01*
X9755240Y-7680000D02*
G75*
G03X9755240Y-7680000I-15240J0D01*
G01*
X9755240Y-9720000D02*
G75*
G03X9755240Y-9720000I-15240J0D01*
G01*
X9755240Y-11520000D02*
G75*
G03X9755240Y-11520000I-15240J0D01*
G01*
X9794240Y-3873500D02*
G75*
G03X9794240Y-3873500I-15240J0D01*
G01*
X9875240Y-9420000D02*
G75*
G03X9875240Y-9420000I-15240J0D01*
G01*
X10255240Y-6580000D02*
G75*
G03X10255240Y-6580000I-15240J0D01*
G01*
X10455240Y-4160000D02*
G75*
G03X10455240Y-4160000I-15240J0D01*
G01*
X10495240Y-7760000D02*
G75*
G03X10495240Y-7760000I-15240J0D01*
G01*
X10535240Y-4200000D02*
G75*
G03X10535240Y-4200000I-15240J0D01*
G01*
X10585240Y-5130000D02*
G75*
G03X10585240Y-5130000I-15240J0D01*
G01*
X6860000Y-5610000D02*
X6860000Y-5690000D01*
X6820000Y-5650000D02*
X6900000Y-5650000D01*
X7040000Y-5610000D02*
X7040000Y-5690000D01*
X7000000Y-5650000D02*
X7080000Y-5650000D01*
X5209326Y-3482380D02*
X5209326Y-3418800D01*
X5145746Y-3418800D01*
X5145746Y-3482380D01*
X5209326Y-3482380D01*
X5649254Y-3482380D02*
X5649254Y-3418800D01*
X5585674Y-3418800D01*
X5585674Y-3482380D01*
X5649254Y-3482380D01*
X10150000Y-5335000D02*
X10200000Y-5285000D01*
X10150000Y-5235000D01*
X10100000Y-5285000D01*
X10150000Y-5335000D01*
X10250000Y-5245000D02*
X10050000Y-5245000D01*
X10250000Y-5325000D02*
X10050000Y-5325000D01*
X10050000Y-5245000D02*
G75*
G03X10050000Y-5325000I0J-40000D01*
G01*
X10250000Y-5325000D02*
G75*
G03X10250000Y-5245000I0J40000D01*
G01*
X10150000Y-6285000D02*
X10200000Y-6235000D01*
X10150000Y-6185000D01*
X10100000Y-6235000D01*
X10150000Y-6285000D01*
X10250000Y-6195000D02*
X10050000Y-6195000D01*
X10250000Y-6275000D02*
X10050000Y-6275000D01*
X10050000Y-6195000D02*
G75*
G03X10050000Y-6275000I0J-40000D01*
G01*
X10250000Y-6275000D02*
G75*
G03X10250000Y-6195000I0J40000D01*
G01*
X3852000Y-4360000D02*
X4022000Y-4530000D01*
X4022000Y-4360000D02*
X3852000Y-4530000D01*
X4022000Y-4445000D02*
G75*
G03X4022000Y-4445000I-85000J0D01*
G01*
X3852000Y-6265000D02*
X4022000Y-6435000D01*
X4022000Y-6265000D02*
X3852000Y-6435000D01*
X4022000Y-6350000D02*
G75*
G03X4022000Y-6350000I-85000J0D01*
G01*
X3852000Y-8170000D02*
X4022000Y-8340000D01*
X4022000Y-8170000D02*
X3852000Y-8340000D01*
X4022000Y-8255000D02*
G75*
G03X4022000Y-8255000I-85000J0D01*
G01*
X3852000Y-10075000D02*
X4022000Y-10245000D01*
X4022000Y-10075000D02*
X3852000Y-10245000D01*
X4022000Y-10160000D02*
G75*
G03X4022000Y-10160000I-85000J0D01*
G01*
X4804500Y-11980000D02*
X4974500Y-12150000D01*
X4974500Y-11980000D02*
X4804500Y-12150000D01*
X4974500Y-12065000D02*
G75*
G03X4974500Y-12065000I-85000J0D01*
G01*
X4868000Y-4360000D02*
X5038000Y-4530000D01*
X5038000Y-4360000D02*
X4868000Y-4530000D01*
X5038000Y-4445000D02*
G75*
G03X5038000Y-4445000I-85000J0D01*
G01*
X4868000Y-6265000D02*
X5038000Y-6435000D01*
X5038000Y-6265000D02*
X4868000Y-6435000D01*
X5038000Y-6350000D02*
G75*
G03X5038000Y-6350000I-85000J0D01*
G01*
X4868000Y-8170000D02*
X5038000Y-8340000D01*
X5038000Y-8170000D02*
X4868000Y-8340000D01*
X5038000Y-8255000D02*
G75*
G03X5038000Y-8255000I-85000J0D01*
G01*
X4868000Y-10075000D02*
X5038000Y-10245000D01*
X5038000Y-10075000D02*
X4868000Y-10245000D01*
X5038000Y-10160000D02*
G75*
G03X5038000Y-10160000I-85000J0D01*
G01*
X5757000Y-4360000D02*
X5927000Y-4530000D01*
X5927000Y-4360000D02*
X5757000Y-4530000D01*
X5927000Y-4445000D02*
G75*
G03X5927000Y-4445000I-85000J0D01*
G01*
X5757000Y-6265000D02*
X5927000Y-6435000D01*
X5927000Y-6265000D02*
X5757000Y-6435000D01*
X5927000Y-6350000D02*
G75*
G03X5927000Y-6350000I-85000J0D01*
G01*
X5757000Y-8170000D02*
X5927000Y-8340000D01*
X5927000Y-8170000D02*
X5757000Y-8340000D01*
X5927000Y-8255000D02*
G75*
G03X5927000Y-8255000I-85000J0D01*
G01*
X5757000Y-10075000D02*
X5927000Y-10245000D01*
X5927000Y-10075000D02*
X5757000Y-10245000D01*
X5927000Y-10160000D02*
G75*
G03X5927000Y-10160000I-85000J0D01*
G01*
X5820500Y-11980000D02*
X5990500Y-12150000D01*
X5990500Y-11980000D02*
X5820500Y-12150000D01*
X5990500Y-12065000D02*
G75*
G03X5990500Y-12065000I-85000J0D01*
G01*
X6773000Y-4360000D02*
X6943000Y-4530000D01*
X6943000Y-4360000D02*
X6773000Y-4530000D01*
X6943000Y-4445000D02*
G75*
G03X6943000Y-4445000I-85000J0D01*
G01*
X6773000Y-6265000D02*
X6943000Y-6435000D01*
X6943000Y-6265000D02*
X6773000Y-6435000D01*
X6943000Y-6350000D02*
G75*
G03X6943000Y-6350000I-85000J0D01*
G01*
X6773000Y-8170000D02*
X6943000Y-8340000D01*
X6943000Y-8170000D02*
X6773000Y-8340000D01*
X6943000Y-8255000D02*
G75*
G03X6943000Y-8255000I-85000J0D01*
G01*
X6773000Y-10075000D02*
X6943000Y-10245000D01*
X6943000Y-10075000D02*
X6773000Y-10245000D01*
X6943000Y-10160000D02*
G75*
G03X6943000Y-10160000I-85000J0D01*
G01*
X7662000Y-4360000D02*
X7832000Y-4530000D01*
X7832000Y-4360000D02*
X7662000Y-4530000D01*
X7832000Y-4445000D02*
G75*
G03X7832000Y-4445000I-85000J0D01*
G01*
X7662000Y-6265000D02*
X7832000Y-6435000D01*
X7832000Y-6265000D02*
X7662000Y-6435000D01*
X7832000Y-6350000D02*
G75*
G03X7832000Y-6350000I-85000J0D01*
G01*
X7662000Y-8170000D02*
X7832000Y-8340000D01*
X7832000Y-8170000D02*
X7662000Y-8340000D01*
X7832000Y-8255000D02*
G75*
G03X7832000Y-8255000I-85000J0D01*
G01*
X7662000Y-10075000D02*
X7832000Y-10245000D01*
X7832000Y-10075000D02*
X7662000Y-10245000D01*
X7832000Y-10160000D02*
G75*
G03X7832000Y-10160000I-85000J0D01*
G01*
X7662000Y-11980000D02*
X7832000Y-12150000D01*
X7832000Y-11980000D02*
X7662000Y-12150000D01*
X7832000Y-12065000D02*
G75*
G03X7832000Y-12065000I-85000J0D01*
G01*
X8678000Y-4360000D02*
X8848000Y-4530000D01*
X8848000Y-4360000D02*
X8678000Y-4530000D01*
X8848000Y-4445000D02*
G75*
G03X8848000Y-4445000I-85000J0D01*
G01*
X8678000Y-6265000D02*
X8848000Y-6435000D01*
X8848000Y-6265000D02*
X8678000Y-6435000D01*
X8848000Y-6350000D02*
G75*
G03X8848000Y-6350000I-85000J0D01*
G01*
X8678000Y-8170000D02*
X8848000Y-8340000D01*
X8848000Y-8170000D02*
X8678000Y-8340000D01*
X8848000Y-8255000D02*
G75*
G03X8848000Y-8255000I-85000J0D01*
G01*
X8678000Y-10075000D02*
X8848000Y-10245000D01*
X8848000Y-10075000D02*
X8678000Y-10245000D01*
X8848000Y-10160000D02*
G75*
G03X8848000Y-10160000I-85000J0D01*
G01*
X8678000Y-11980000D02*
X8848000Y-12150000D01*
X8848000Y-11980000D02*
X8678000Y-12150000D01*
X8848000Y-12065000D02*
G75*
G03X8848000Y-12065000I-85000J0D01*
G01*
X9567000Y-4360000D02*
X9737000Y-4530000D01*
X9737000Y-4360000D02*
X9567000Y-4530000D01*
X9737000Y-4445000D02*
G75*
G03X9737000Y-4445000I-85000J0D01*
G01*
X10075000Y-6709500D02*
X10245000Y-6879500D01*
X10245000Y-6709500D02*
X10075000Y-6879500D01*
X10245000Y-6794500D02*
G75*
G03X10245000Y-6794500I-85000J0D01*
G01*
X10075000Y-7725500D02*
X10245000Y-7895500D01*
X10245000Y-7725500D02*
X10075000Y-7895500D01*
X10245000Y-7810500D02*
G75*
G03X10245000Y-7810500I-85000J0D01*
G01*
X10075000Y-10519500D02*
X10245000Y-10689500D01*
X10245000Y-10519500D02*
X10075000Y-10689500D01*
X10245000Y-10604500D02*
G75*
G03X10245000Y-10604500I-85000J0D01*
G01*
X10075000Y-11535500D02*
X10245000Y-11705500D01*
X10245000Y-11535500D02*
X10075000Y-11705500D01*
X10245000Y-11620500D02*
G75*
G03X10245000Y-11620500I-85000J0D01*
G01*
X10583000Y-4360000D02*
X10753000Y-4530000D01*
X10753000Y-4360000D02*
X10583000Y-4530000D01*
X10753000Y-4445000D02*
G75*
G03X10753000Y-4445000I-85000J0D01*
G01*
X3874000Y-5274000D02*
X4126000Y-5526000D01*
X4126000Y-5274000D02*
X3874000Y-5526000D01*
X4000000Y-5274000D02*
X4000000Y-5526000D01*
X3874000Y-5400000D02*
X4126000Y-5400000D01*
X3874000Y-11774000D02*
X4126000Y-12026000D01*
X4126000Y-11774000D02*
X3874000Y-12026000D01*
X4000000Y-11774000D02*
X4000000Y-12026000D01*
X3874000Y-11900000D02*
X4126000Y-11900000D01*
X4041000Y-4803000D02*
X4341000Y-5103000D01*
X4341000Y-4803000D02*
X4041000Y-5103000D01*
X4297067Y-5059067D02*
X4297067Y-4846933D01*
X4084933Y-4846933D01*
X4084933Y-5059067D01*
X4297067Y-5059067D01*
X4041000Y-6708000D02*
X4341000Y-7008000D01*
X4341000Y-6708000D02*
X4041000Y-7008000D01*
X4297067Y-6964067D02*
X4297067Y-6751933D01*
X4084933Y-6751933D01*
X4084933Y-6964067D01*
X4297067Y-6964067D01*
X4041000Y-8613000D02*
X4341000Y-8913000D01*
X4341000Y-8613000D02*
X4041000Y-8913000D01*
X4297067Y-8869067D02*
X4297067Y-8656933D01*
X4084933Y-8656933D01*
X4084933Y-8869067D01*
X4297067Y-8869067D01*
X4041000Y-10518000D02*
X4341000Y-10818000D01*
X4341000Y-10518000D02*
X4041000Y-10818000D01*
X4297067Y-10774067D02*
X4297067Y-10561933D01*
X4084933Y-10561933D01*
X4084933Y-10774067D01*
X4297067Y-10774067D01*
X4676000Y-4549000D02*
X4976000Y-4849000D01*
X4976000Y-4549000D02*
X4676000Y-4849000D01*
X4932067Y-4805067D02*
X4932067Y-4592933D01*
X4719933Y-4592933D01*
X4719933Y-4805067D01*
X4932067Y-4805067D01*
X4676000Y-6454000D02*
X4976000Y-6754000D01*
X4976000Y-6454000D02*
X4676000Y-6754000D01*
X4932067Y-6710067D02*
X4932067Y-6497933D01*
X4719933Y-6497933D01*
X4719933Y-6710067D01*
X4932067Y-6710067D01*
X4676000Y-8359000D02*
X4976000Y-8659000D01*
X4976000Y-8359000D02*
X4676000Y-8659000D01*
X4932067Y-8615067D02*
X4932067Y-8402933D01*
X4719933Y-8402933D01*
X4719933Y-8615067D01*
X4932067Y-8615067D01*
X4676000Y-10264000D02*
X4976000Y-10564000D01*
X4976000Y-10264000D02*
X4676000Y-10564000D01*
X4932067Y-10520067D02*
X4932067Y-10307933D01*
X4719933Y-10307933D01*
X4719933Y-10520067D01*
X4932067Y-10520067D01*
X4993500Y-12423000D02*
X5293500Y-12723000D01*
X5293500Y-12423000D02*
X4993500Y-12723000D01*
X5249567Y-12679067D02*
X5249567Y-12466933D01*
X5037433Y-12466933D01*
X5037433Y-12679067D01*
X5249567Y-12679067D01*
X5628500Y-12169000D02*
X5928500Y-12469000D01*
X5928500Y-12169000D02*
X5628500Y-12469000D01*
X5884567Y-12425067D02*
X5884567Y-12212933D01*
X5672433Y-12212933D01*
X5672433Y-12425067D01*
X5884567Y-12425067D01*
X5946000Y-4803000D02*
X6246000Y-5103000D01*
X6246000Y-4803000D02*
X5946000Y-5103000D01*
X6202067Y-5059067D02*
X6202067Y-4846933D01*
X5989933Y-4846933D01*
X5989933Y-5059067D01*
X6202067Y-5059067D01*
X5946000Y-6708000D02*
X6246000Y-7008000D01*
X6246000Y-6708000D02*
X5946000Y-7008000D01*
X6202067Y-6964067D02*
X6202067Y-6751933D01*
X5989933Y-6751933D01*
X5989933Y-6964067D01*
X6202067Y-6964067D01*
X5946000Y-8613000D02*
X6246000Y-8913000D01*
X6246000Y-8613000D02*
X5946000Y-8913000D01*
X6202067Y-8869067D02*
X6202067Y-8656933D01*
X5989933Y-8656933D01*
X5989933Y-8869067D01*
X6202067Y-8869067D01*
X5946000Y-10518000D02*
X6246000Y-10818000D01*
X6246000Y-10518000D02*
X5946000Y-10818000D01*
X6202067Y-10774067D02*
X6202067Y-10561933D01*
X5989933Y-10561933D01*
X5989933Y-10774067D01*
X6202067Y-10774067D01*
X6581000Y-4549000D02*
X6881000Y-4849000D01*
X6881000Y-4549000D02*
X6581000Y-4849000D01*
X6837067Y-4805067D02*
X6837067Y-4592933D01*
X6624933Y-4592933D01*
X6624933Y-4805067D01*
X6837067Y-4805067D01*
X6581000Y-6454000D02*
X6881000Y-6754000D01*
X6881000Y-6454000D02*
X6581000Y-6754000D01*
X6837067Y-6710067D02*
X6837067Y-6497933D01*
X6624933Y-6497933D01*
X6624933Y-6710067D01*
X6837067Y-6710067D01*
X6581000Y-8359000D02*
X6881000Y-8659000D01*
X6881000Y-8359000D02*
X6581000Y-8659000D01*
X6837067Y-8615067D02*
X6837067Y-8402933D01*
X6624933Y-8402933D01*
X6624933Y-8615067D01*
X6837067Y-8615067D01*
X6581000Y-10264000D02*
X6881000Y-10564000D01*
X6881000Y-10264000D02*
X6581000Y-10564000D01*
X6837067Y-10520067D02*
X6837067Y-10307933D01*
X6624933Y-10307933D01*
X6624933Y-10520067D01*
X6837067Y-10520067D01*
X7851000Y-4803000D02*
X8151000Y-5103000D01*
X8151000Y-4803000D02*
X7851000Y-5103000D01*
X8107067Y-5059067D02*
X8107067Y-4846933D01*
X7894933Y-4846933D01*
X7894933Y-5059067D01*
X8107067Y-5059067D01*
X7851000Y-6708000D02*
X8151000Y-7008000D01*
X8151000Y-6708000D02*
X7851000Y-7008000D01*
X8107067Y-6964067D02*
X8107067Y-6751933D01*
X7894933Y-6751933D01*
X7894933Y-6964067D01*
X8107067Y-6964067D01*
X7851000Y-8613000D02*
X8151000Y-8913000D01*
X8151000Y-8613000D02*
X7851000Y-8913000D01*
X8107067Y-8869067D02*
X8107067Y-8656933D01*
X7894933Y-8656933D01*
X7894933Y-8869067D01*
X8107067Y-8869067D01*
X7851000Y-10518000D02*
X8151000Y-10818000D01*
X8151000Y-10518000D02*
X7851000Y-10818000D01*
X8107067Y-10774067D02*
X8107067Y-10561933D01*
X7894933Y-10561933D01*
X7894933Y-10774067D01*
X8107067Y-10774067D01*
X7851000Y-12423000D02*
X8151000Y-12723000D01*
X8151000Y-12423000D02*
X7851000Y-12723000D01*
X8107067Y-12679067D02*
X8107067Y-12466933D01*
X7894933Y-12466933D01*
X7894933Y-12679067D01*
X8107067Y-12679067D01*
X8486000Y-4549000D02*
X8786000Y-4849000D01*
X8786000Y-4549000D02*
X8486000Y-4849000D01*
X8742067Y-4805067D02*
X8742067Y-4592933D01*
X8529933Y-4592933D01*
X8529933Y-4805067D01*
X8742067Y-4805067D01*
X8486000Y-6454000D02*
X8786000Y-6754000D01*
X8786000Y-6454000D02*
X8486000Y-6754000D01*
X8742067Y-6710067D02*
X8742067Y-6497933D01*
X8529933Y-6497933D01*
X8529933Y-6710067D01*
X8742067Y-6710067D01*
X8486000Y-8359000D02*
X8786000Y-8659000D01*
X8786000Y-8359000D02*
X8486000Y-8659000D01*
X8742067Y-8615067D02*
X8742067Y-8402933D01*
X8529933Y-8402933D01*
X8529933Y-8615067D01*
X8742067Y-8615067D01*
X8486000Y-10264000D02*
X8786000Y-10564000D01*
X8786000Y-10264000D02*
X8486000Y-10564000D01*
X8742067Y-10520067D02*
X8742067Y-10307933D01*
X8529933Y-10307933D01*
X8529933Y-10520067D01*
X8742067Y-10520067D01*
X8486000Y-12169000D02*
X8786000Y-12469000D01*
X8786000Y-12169000D02*
X8486000Y-12469000D01*
X8742067Y-12425067D02*
X8742067Y-12212933D01*
X8529933Y-12212933D01*
X8529933Y-12425067D01*
X8742067Y-12425067D01*
X9756000Y-4803000D02*
X10056000Y-5103000D01*
X10056000Y-4803000D02*
X9756000Y-5103000D01*
X10012067Y-5059067D02*
X10012067Y-4846933D01*
X9799933Y-4846933D01*
X9799933Y-5059067D01*
X10012067Y-5059067D01*
X10264000Y-6771500D02*
X10564000Y-7071500D01*
X10564000Y-6771500D02*
X10264000Y-7071500D01*
X10520067Y-7027567D02*
X10520067Y-6815433D01*
X10307933Y-6815433D01*
X10307933Y-7027567D01*
X10520067Y-7027567D01*
X10264000Y-10581500D02*
X10564000Y-10881500D01*
X10564000Y-10581500D02*
X10264000Y-10881500D01*
X10520067Y-10837567D02*
X10520067Y-10625433D01*
X10307933Y-10625433D01*
X10307933Y-10837567D01*
X10520067Y-10837567D01*
X10391000Y-4549000D02*
X10691000Y-4849000D01*
X10691000Y-4549000D02*
X10391000Y-4849000D01*
X10647067Y-4805067D02*
X10647067Y-4592933D01*
X10434933Y-4592933D01*
X10434933Y-4805067D01*
X10647067Y-4805067D01*
X10518000Y-7406500D02*
X10818000Y-7706500D01*
X10818000Y-7406500D02*
X10518000Y-7706500D01*
X10774067Y-7662567D02*
X10774067Y-7450433D01*
X10561933Y-7450433D01*
X10561933Y-7662567D01*
X10774067Y-7662567D01*
X10518000Y-11216500D02*
X10818000Y-11516500D01*
X10818000Y-11216500D02*
X10518000Y-11516500D01*
X10774067Y-11472567D02*
X10774067Y-11260433D01*
X10561933Y-11260433D01*
X10561933Y-11472567D01*
X10774067Y-11472567D01*
X4051300Y-12611100D02*
X4356100Y-12915900D01*
X4356100Y-12611100D02*
X4051300Y-12915900D01*
X4203700Y-12915900D02*
X4356100Y-12763500D01*
X4203700Y-12611100D01*
X4051300Y-12763500D01*
X4203700Y-12915900D01*
X6438900Y-12611100D02*
X6743700Y-12915900D01*
X6743700Y-12611100D02*
X6438900Y-12915900D01*
X6591300Y-12915900D02*
X6743700Y-12763500D01*
X6591300Y-12611100D01*
X6438900Y-12763500D01*
X6591300Y-12915900D01*
X10706100Y-5956300D02*
X11010900Y-6261100D01*
X11010900Y-5956300D02*
X10706100Y-6261100D01*
X10858500Y-6261100D02*
X11010900Y-6108700D01*
X10858500Y-5956300D01*
X10706100Y-6108700D01*
X10858500Y-6261100D01*
X10706100Y-8343900D02*
X11010900Y-8648700D01*
X11010900Y-8343900D02*
X10706100Y-8648700D01*
X10858500Y-8648700D02*
X11010900Y-8496300D01*
X10858500Y-8343900D01*
X10706100Y-8496300D01*
X10858500Y-8648700D01*
X10706100Y-9766300D02*
X11010900Y-10071100D01*
X11010900Y-9766300D02*
X10706100Y-10071100D01*
X10858500Y-10071100D02*
X11010900Y-9918700D01*
X10858500Y-9766300D01*
X10706100Y-9918700D01*
X10858500Y-10071100D01*
X10706100Y-12153900D02*
X11010900Y-12458700D01*
X11010900Y-12153900D02*
X10706100Y-12458700D01*
X10858500Y-12458700D02*
X11010900Y-12306300D01*
X10858500Y-12153900D01*
X10706100Y-12306300D01*
X10858500Y-12458700D01*
X4203700Y-11040110D02*
X4203700Y-11438890D01*
X4004310Y-11239500D02*
X4403090Y-11239500D01*
X4403090Y-11239500D02*
G75*
G03X4403090Y-11239500I-199390J0D01*
G01*
X6591300Y-11040110D02*
X6591300Y-11438890D01*
X6391910Y-11239500D02*
X6790690Y-11239500D01*
X6790690Y-11239500D02*
G75*
G03X6790690Y-11239500I-199390J0D01*
G01*
X9334500Y-5909310D02*
X9334500Y-6308090D01*
X9135110Y-6108700D02*
X9533890Y-6108700D01*
X9533890Y-6108700D02*
G75*
G03X9533890Y-6108700I-199390J0D01*
G01*
X9334500Y-8296910D02*
X9334500Y-8695690D01*
X9135110Y-8496300D02*
X9533890Y-8496300D01*
X9533890Y-8496300D02*
G75*
G03X9533890Y-8496300I-199390J0D01*
G01*
X9334500Y-9719310D02*
X9334500Y-10118090D01*
X9135110Y-9918700D02*
X9533890Y-9918700D01*
X9533890Y-9918700D02*
G75*
G03X9533890Y-9918700I-199390J0D01*
G01*
X9334500Y-12106910D02*
X9334500Y-12505690D01*
X9135110Y-12306300D02*
X9533890Y-12306300D01*
X9533890Y-12306300D02*
G75*
G03X9533890Y-12306300I-199390J0D01*
G01*
X4586423Y-4586423D02*
X4586423Y-4303577D01*
X4303577Y-4303577D01*
X4303577Y-4586423D01*
X4586423Y-4586423D01*
X4645000Y-4445000D02*
G75*
G03X4645000Y-4445000I-200000J0D01*
G01*
X4586423Y-6491423D02*
X4586423Y-6208577D01*
X4303577Y-6208577D01*
X4303577Y-6491423D01*
X4586423Y-6491423D01*
X4645000Y-6350000D02*
G75*
G03X4645000Y-6350000I-200000J0D01*
G01*
X4586423Y-8396423D02*
X4586423Y-8113577D01*
X4303577Y-8113577D01*
X4303577Y-8396423D01*
X4586423Y-8396423D01*
X4645000Y-8255000D02*
G75*
G03X4645000Y-8255000I-200000J0D01*
G01*
X4586423Y-10301423D02*
X4586423Y-10018577D01*
X4303577Y-10018577D01*
X4303577Y-10301423D01*
X4586423Y-10301423D01*
X4645000Y-10160000D02*
G75*
G03X4645000Y-10160000I-200000J0D01*
G01*
X5538923Y-12206423D02*
X5538923Y-11923577D01*
X5256077Y-11923577D01*
X5256077Y-12206423D01*
X5538923Y-12206423D01*
X5597500Y-12065000D02*
G75*
G03X5597500Y-12065000I-200000J0D01*
G01*
X6491423Y-4586423D02*
X6491423Y-4303577D01*
X6208577Y-4303577D01*
X6208577Y-4586423D01*
X6491423Y-4586423D01*
X6550000Y-4445000D02*
G75*
G03X6550000Y-4445000I-200000J0D01*
G01*
X6491423Y-6491423D02*
X6491423Y-6208577D01*
X6208577Y-6208577D01*
X6208577Y-6491423D01*
X6491423Y-6491423D01*
X6550000Y-6350000D02*
G75*
G03X6550000Y-6350000I-200000J0D01*
G01*
X6491423Y-8396423D02*
X6491423Y-8113577D01*
X6208577Y-8113577D01*
X6208577Y-8396423D01*
X6491423Y-8396423D01*
X6550000Y-8255000D02*
G75*
G03X6550000Y-8255000I-200000J0D01*
G01*
X6491423Y-10301423D02*
X6491423Y-10018577D01*
X6208577Y-10018577D01*
X6208577Y-10301423D01*
X6491423Y-10301423D01*
X6550000Y-10160000D02*
G75*
G03X6550000Y-10160000I-200000J0D01*
G01*
X8396423Y-4586423D02*
X8396423Y-4303577D01*
X8113577Y-4303577D01*
X8113577Y-4586423D01*
X8396423Y-4586423D01*
X8455000Y-4445000D02*
G75*
G03X8455000Y-4445000I-200000J0D01*
G01*
X8396423Y-6491423D02*
X8396423Y-6208577D01*
X8113577Y-6208577D01*
X8113577Y-6491423D01*
X8396423Y-6491423D01*
X8455000Y-6350000D02*
G75*
G03X8455000Y-6350000I-200000J0D01*
G01*
X8396423Y-8396423D02*
X8396423Y-8113577D01*
X8113577Y-8113577D01*
X8113577Y-8396423D01*
X8396423Y-8396423D01*
X8455000Y-8255000D02*
G75*
G03X8455000Y-8255000I-200000J0D01*
G01*
X8396423Y-10301423D02*
X8396423Y-10018577D01*
X8113577Y-10018577D01*
X8113577Y-10301423D01*
X8396423Y-10301423D01*
X8455000Y-10160000D02*
G75*
G03X8455000Y-10160000I-200000J0D01*
G01*
X8396423Y-12206423D02*
X8396423Y-11923577D01*
X8113577Y-11923577D01*
X8113577Y-12206423D01*
X8396423Y-12206423D01*
X8455000Y-12065000D02*
G75*
G03X8455000Y-12065000I-200000J0D01*
G01*
X10301423Y-4586423D02*
X10301423Y-4303577D01*
X10018577Y-4303577D01*
X10018577Y-4586423D01*
X10301423Y-4586423D01*
X10360000Y-4445000D02*
G75*
G03X10360000Y-4445000I-200000J0D01*
G01*
X10301423Y-7443923D02*
X10301423Y-7161077D01*
X10018577Y-7161077D01*
X10018577Y-7443923D01*
X10301423Y-7443923D01*
X10360000Y-7302500D02*
G75*
G03X10360000Y-7302500I-200000J0D01*
G01*
X10301423Y-11253923D02*
X10301423Y-10971077D01*
X10018577Y-10971077D01*
X10018577Y-11253923D01*
X10301423Y-11253923D01*
X10360000Y-11112500D02*
G75*
G03X10360000Y-11112500I-200000J0D01*
G01*
D13*
X3883428Y-13427214D02*
X3883428Y-13127214D01*
X3954857Y-13127214D01*
X3997714Y-13141500D01*
X4026286Y-13170071D01*
X4040571Y-13198643D01*
X4054857Y-13255786D01*
X4054857Y-13298643D01*
X4040571Y-13355786D01*
X4026286Y-13384357D01*
X3997714Y-13412929D01*
X3954857Y-13427214D01*
X3883428Y-13427214D01*
X4183428Y-13427214D02*
X4183428Y-13227214D01*
X4183428Y-13284357D02*
X4197714Y-13255786D01*
X4212000Y-13241500D01*
X4240571Y-13227214D01*
X4269143Y-13227214D01*
X4369143Y-13427214D02*
X4369143Y-13227214D01*
X4369143Y-13127214D02*
X4354857Y-13141500D01*
X4369143Y-13155786D01*
X4383429Y-13141500D01*
X4369143Y-13127214D01*
X4369143Y-13155786D01*
X4554857Y-13427214D02*
X4526286Y-13412929D01*
X4512000Y-13384357D01*
X4512000Y-13127214D01*
X4712000Y-13427214D02*
X4683429Y-13412929D01*
X4669143Y-13384357D01*
X4669143Y-13127214D01*
X5054857Y-13427214D02*
X5054857Y-13127214D01*
X5154857Y-13341500D01*
X5254857Y-13127214D01*
X5254857Y-13427214D01*
X5526286Y-13427214D02*
X5526286Y-13270071D01*
X5512000Y-13241500D01*
X5483429Y-13227214D01*
X5426286Y-13227214D01*
X5397714Y-13241500D01*
X5526286Y-13412929D02*
X5497714Y-13427214D01*
X5426286Y-13427214D01*
X5397714Y-13412929D01*
X5383429Y-13384357D01*
X5383429Y-13355786D01*
X5397714Y-13327214D01*
X5426286Y-13312929D01*
X5497714Y-13312929D01*
X5526286Y-13298643D01*
X5669143Y-13227214D02*
X5669143Y-13527214D01*
X5669143Y-13241500D02*
X5697714Y-13227214D01*
X5754857Y-13227214D01*
X5783428Y-13241500D01*
X5797714Y-13255786D01*
X5812000Y-13284357D01*
X5812000Y-13370071D01*
X5797714Y-13398643D01*
X5783428Y-13412929D01*
X5754857Y-13427214D01*
X5697714Y-13427214D01*
X5669143Y-13412929D01*
X5940571Y-13398643D02*
X5954857Y-13412929D01*
X5940571Y-13427214D01*
X5926286Y-13412929D01*
X5940571Y-13398643D01*
X5940571Y-13427214D01*
X5940571Y-13241500D02*
X5954857Y-13255786D01*
X5940571Y-13270071D01*
X5926286Y-13255786D01*
X5940571Y-13241500D01*
X5940571Y-13270071D01*
X3582000Y-13906500D02*
X3612000Y-13936500D01*
X3612000Y-13906500D02*
X3582000Y-13936500D01*
X3940571Y-13757214D02*
X3969143Y-13757214D01*
X3997714Y-13771500D01*
X4012000Y-13785786D01*
X4026286Y-13814357D01*
X4040571Y-13871500D01*
X4040571Y-13942929D01*
X4026286Y-14000071D01*
X4012000Y-14028643D01*
X3997714Y-14042929D01*
X3969143Y-14057214D01*
X3940571Y-14057214D01*
X3912000Y-14042929D01*
X3897714Y-14028643D01*
X3883428Y-14000071D01*
X3869143Y-13942929D01*
X3869143Y-13871500D01*
X3883428Y-13814357D01*
X3897714Y-13785786D01*
X3912000Y-13771500D01*
X3940571Y-13757214D01*
X4169143Y-14028643D02*
X4183428Y-14042929D01*
X4169143Y-14057214D01*
X4154857Y-14042929D01*
X4169143Y-14028643D01*
X4169143Y-14057214D01*
X4283428Y-13757214D02*
X4469143Y-13757214D01*
X4369143Y-13871500D01*
X4412000Y-13871500D01*
X4440571Y-13885786D01*
X4454857Y-13900071D01*
X4469143Y-13928643D01*
X4469143Y-14000071D01*
X4454857Y-14028643D01*
X4440571Y-14042929D01*
X4412000Y-14057214D01*
X4326286Y-14057214D01*
X4297714Y-14042929D01*
X4283428Y-14028643D01*
X4654857Y-13757214D02*
X4683429Y-13757214D01*
X4712000Y-13771500D01*
X4726286Y-13785786D01*
X4740571Y-13814357D01*
X4754857Y-13871500D01*
X4754857Y-13942929D01*
X4740571Y-14000071D01*
X4726286Y-14028643D01*
X4712000Y-14042929D01*
X4683429Y-14057214D01*
X4654857Y-14057214D01*
X4626286Y-14042929D01*
X4612000Y-14028643D01*
X4597714Y-14000071D01*
X4583429Y-13942929D01*
X4583429Y-13871500D01*
X4597714Y-13814357D01*
X4612000Y-13785786D01*
X4626286Y-13771500D01*
X4654857Y-13757214D01*
X4883429Y-14057214D02*
X4883429Y-13857214D01*
X4883429Y-13885786D02*
X4897714Y-13871500D01*
X4926286Y-13857214D01*
X4969143Y-13857214D01*
X4997714Y-13871500D01*
X5012000Y-13900071D01*
X5012000Y-14057214D01*
X5012000Y-13900071D02*
X5026286Y-13871500D01*
X5054857Y-13857214D01*
X5097714Y-13857214D01*
X5126286Y-13871500D01*
X5140571Y-13900071D01*
X5140571Y-14057214D01*
X5283429Y-14057214D02*
X5283429Y-13857214D01*
X5283429Y-13885786D02*
X5297714Y-13871500D01*
X5326286Y-13857214D01*
X5369143Y-13857214D01*
X5397714Y-13871500D01*
X5412000Y-13900071D01*
X5412000Y-14057214D01*
X5412000Y-13900071D02*
X5426286Y-13871500D01*
X5454857Y-13857214D01*
X5497714Y-13857214D01*
X5526286Y-13871500D01*
X5540571Y-13900071D01*
X5540571Y-14057214D01*
X6126286Y-13742929D02*
X5869143Y-14128643D01*
X6512000Y-13757214D02*
X6540571Y-13757214D01*
X6569143Y-13771500D01*
X6583428Y-13785786D01*
X6597714Y-13814357D01*
X6612000Y-13871500D01*
X6612000Y-13942929D01*
X6597714Y-14000071D01*
X6583428Y-14028643D01*
X6569143Y-14042929D01*
X6540571Y-14057214D01*
X6512000Y-14057214D01*
X6483428Y-14042929D01*
X6469143Y-14028643D01*
X6454857Y-14000071D01*
X6440571Y-13942929D01*
X6440571Y-13871500D01*
X6454857Y-13814357D01*
X6469143Y-13785786D01*
X6483428Y-13771500D01*
X6512000Y-13757214D01*
X6740571Y-14028643D02*
X6754857Y-14042929D01*
X6740571Y-14057214D01*
X6726286Y-14042929D01*
X6740571Y-14028643D01*
X6740571Y-14057214D01*
X6940571Y-13757214D02*
X6969143Y-13757214D01*
X6997714Y-13771500D01*
X7012000Y-13785786D01*
X7026285Y-13814357D01*
X7040571Y-13871500D01*
X7040571Y-13942929D01*
X7026285Y-14000071D01*
X7012000Y-14028643D01*
X6997714Y-14042929D01*
X6969143Y-14057214D01*
X6940571Y-14057214D01*
X6912000Y-14042929D01*
X6897714Y-14028643D01*
X6883428Y-14000071D01*
X6869143Y-13942929D01*
X6869143Y-13871500D01*
X6883428Y-13814357D01*
X6897714Y-13785786D01*
X6912000Y-13771500D01*
X6940571Y-13757214D01*
X7326285Y-14057214D02*
X7154857Y-14057214D01*
X7240571Y-14057214D02*
X7240571Y-13757214D01*
X7212000Y-13800071D01*
X7183428Y-13828643D01*
X7154857Y-13842929D01*
X7440571Y-13785786D02*
X7454857Y-13771500D01*
X7483428Y-13757214D01*
X7554857Y-13757214D01*
X7583428Y-13771500D01*
X7597714Y-13785786D01*
X7612000Y-13814357D01*
X7612000Y-13842929D01*
X7597714Y-13885786D01*
X7426285Y-14057214D01*
X7612000Y-14057214D01*
X7726286Y-13757214D02*
X7726286Y-13814357D01*
X7840571Y-13757214D02*
X7840571Y-13814357D01*
X8283428Y-14171500D02*
X8269143Y-14157214D01*
X8240571Y-14114357D01*
X8226285Y-14085786D01*
X8212000Y-14042929D01*
X8197714Y-13971500D01*
X8197714Y-13914357D01*
X8212000Y-13842929D01*
X8226285Y-13800071D01*
X8240571Y-13771500D01*
X8269143Y-13728643D01*
X8283428Y-13714357D01*
X8412000Y-14057214D02*
X8469143Y-14057214D01*
X8497714Y-14042929D01*
X8512000Y-14028643D01*
X8540571Y-13985786D01*
X8554857Y-13928643D01*
X8554857Y-13814357D01*
X8540571Y-13785786D01*
X8526286Y-13771500D01*
X8497714Y-13757214D01*
X8440571Y-13757214D01*
X8412000Y-13771500D01*
X8397714Y-13785786D01*
X8383428Y-13814357D01*
X8383428Y-13885786D01*
X8397714Y-13914357D01*
X8412000Y-13928643D01*
X8440571Y-13942929D01*
X8497714Y-13942929D01*
X8526286Y-13928643D01*
X8540571Y-13914357D01*
X8554857Y-13885786D01*
X8654857Y-13757214D02*
X8840571Y-13757214D01*
X8740571Y-13871500D01*
X8783428Y-13871500D01*
X8812000Y-13885786D01*
X8826286Y-13900071D01*
X8840571Y-13928643D01*
X8840571Y-14000071D01*
X8826286Y-14028643D01*
X8812000Y-14042929D01*
X8783428Y-14057214D01*
X8697714Y-14057214D01*
X8669143Y-14042929D01*
X8654857Y-14028643D01*
X9197714Y-14057214D02*
X9197714Y-13757214D01*
X9326286Y-14057214D02*
X9326286Y-13900071D01*
X9312000Y-13871500D01*
X9283428Y-13857214D01*
X9240571Y-13857214D01*
X9212000Y-13871500D01*
X9197714Y-13885786D01*
X9512000Y-14057214D02*
X9483428Y-14042929D01*
X9469143Y-14028643D01*
X9454857Y-14000071D01*
X9454857Y-13914357D01*
X9469143Y-13885786D01*
X9483428Y-13871500D01*
X9512000Y-13857214D01*
X9554857Y-13857214D01*
X9583428Y-13871500D01*
X9597714Y-13885786D01*
X9612000Y-13914357D01*
X9612000Y-14000071D01*
X9597714Y-14028643D01*
X9583428Y-14042929D01*
X9554857Y-14057214D01*
X9512000Y-14057214D01*
X9783428Y-14057214D02*
X9754857Y-14042929D01*
X9740571Y-14014357D01*
X9740571Y-13757214D01*
X10012000Y-14042929D02*
X9983429Y-14057214D01*
X9926286Y-14057214D01*
X9897714Y-14042929D01*
X9883429Y-14014357D01*
X9883429Y-13900071D01*
X9897714Y-13871500D01*
X9926286Y-13857214D01*
X9983429Y-13857214D01*
X10012000Y-13871500D01*
X10026286Y-13900071D01*
X10026286Y-13928643D01*
X9883429Y-13957214D01*
X10140571Y-14042929D02*
X10169143Y-14057214D01*
X10226286Y-14057214D01*
X10254857Y-14042929D01*
X10269143Y-14014357D01*
X10269143Y-14000071D01*
X10254857Y-13971500D01*
X10226286Y-13957214D01*
X10183429Y-13957214D01*
X10154857Y-13942929D01*
X10140571Y-13914357D01*
X10140571Y-13900071D01*
X10154857Y-13871500D01*
X10183429Y-13857214D01*
X10226286Y-13857214D01*
X10254857Y-13871500D01*
X10369143Y-14171500D02*
X10383429Y-14157214D01*
X10412000Y-14114357D01*
X10426286Y-14085786D01*
X10440571Y-14042929D01*
X10454857Y-13971500D01*
X10454857Y-13914357D01*
X10440571Y-13842929D01*
X10426286Y-13800071D01*
X10412000Y-13771500D01*
X10383429Y-13728643D01*
X10369143Y-13714357D01*
X3612000Y-14317500D02*
G75*
G03X3612000Y-14317500I-15240J0D01*
G01*
X3940571Y-14153214D02*
X3969143Y-14153214D01*
X3997714Y-14167500D01*
X4012000Y-14181786D01*
X4026286Y-14210357D01*
X4040571Y-14267500D01*
X4040571Y-14338929D01*
X4026286Y-14396071D01*
X4012000Y-14424643D01*
X3997714Y-14438929D01*
X3969143Y-14453214D01*
X3940571Y-14453214D01*
X3912000Y-14438929D01*
X3897714Y-14424643D01*
X3883428Y-14396071D01*
X3869143Y-14338929D01*
X3869143Y-14267500D01*
X3883428Y-14210357D01*
X3897714Y-14181786D01*
X3912000Y-14167500D01*
X3940571Y-14153214D01*
X4169143Y-14424643D02*
X4183428Y-14438929D01*
X4169143Y-14453214D01*
X4154857Y-14438929D01*
X4169143Y-14424643D01*
X4169143Y-14453214D01*
X4283428Y-14153214D02*
X4469143Y-14153214D01*
X4369143Y-14267500D01*
X4412000Y-14267500D01*
X4440571Y-14281786D01*
X4454857Y-14296071D01*
X4469143Y-14324643D01*
X4469143Y-14396071D01*
X4454857Y-14424643D01*
X4440571Y-14438929D01*
X4412000Y-14453214D01*
X4326286Y-14453214D01*
X4297714Y-14438929D01*
X4283428Y-14424643D01*
X4654857Y-14153214D02*
X4683429Y-14153214D01*
X4712000Y-14167500D01*
X4726286Y-14181786D01*
X4740571Y-14210357D01*
X4754857Y-14267500D01*
X4754857Y-14338929D01*
X4740571Y-14396071D01*
X4726286Y-14424643D01*
X4712000Y-14438929D01*
X4683429Y-14453214D01*
X4654857Y-14453214D01*
X4626286Y-14438929D01*
X4612000Y-14424643D01*
X4597714Y-14396071D01*
X4583429Y-14338929D01*
X4583429Y-14267500D01*
X4597714Y-14210357D01*
X4612000Y-14181786D01*
X4626286Y-14167500D01*
X4654857Y-14153214D01*
X4883429Y-14453214D02*
X4883429Y-14253214D01*
X4883429Y-14281786D02*
X4897714Y-14267500D01*
X4926286Y-14253214D01*
X4969143Y-14253214D01*
X4997714Y-14267500D01*
X5012000Y-14296071D01*
X5012000Y-14453214D01*
X5012000Y-14296071D02*
X5026286Y-14267500D01*
X5054857Y-14253214D01*
X5097714Y-14253214D01*
X5126286Y-14267500D01*
X5140571Y-14296071D01*
X5140571Y-14453214D01*
X5283429Y-14453214D02*
X5283429Y-14253214D01*
X5283429Y-14281786D02*
X5297714Y-14267500D01*
X5326286Y-14253214D01*
X5369143Y-14253214D01*
X5397714Y-14267500D01*
X5412000Y-14296071D01*
X5412000Y-14453214D01*
X5412000Y-14296071D02*
X5426286Y-14267500D01*
X5454857Y-14253214D01*
X5497714Y-14253214D01*
X5526286Y-14267500D01*
X5540571Y-14296071D01*
X5540571Y-14453214D01*
X6126286Y-14138929D02*
X5869143Y-14524643D01*
X6512000Y-14153214D02*
X6540571Y-14153214D01*
X6569143Y-14167500D01*
X6583428Y-14181786D01*
X6597714Y-14210357D01*
X6612000Y-14267500D01*
X6612000Y-14338929D01*
X6597714Y-14396071D01*
X6583428Y-14424643D01*
X6569143Y-14438929D01*
X6540571Y-14453214D01*
X6512000Y-14453214D01*
X6483428Y-14438929D01*
X6469143Y-14424643D01*
X6454857Y-14396071D01*
X6440571Y-14338929D01*
X6440571Y-14267500D01*
X6454857Y-14210357D01*
X6469143Y-14181786D01*
X6483428Y-14167500D01*
X6512000Y-14153214D01*
X6740571Y-14424643D02*
X6754857Y-14438929D01*
X6740571Y-14453214D01*
X6726286Y-14438929D01*
X6740571Y-14424643D01*
X6740571Y-14453214D01*
X6940571Y-14153214D02*
X6969143Y-14153214D01*
X6997714Y-14167500D01*
X7012000Y-14181786D01*
X7026285Y-14210357D01*
X7040571Y-14267500D01*
X7040571Y-14338929D01*
X7026285Y-14396071D01*
X7012000Y-14424643D01*
X6997714Y-14438929D01*
X6969143Y-14453214D01*
X6940571Y-14453214D01*
X6912000Y-14438929D01*
X6897714Y-14424643D01*
X6883428Y-14396071D01*
X6869143Y-14338929D01*
X6869143Y-14267500D01*
X6883428Y-14210357D01*
X6897714Y-14181786D01*
X6912000Y-14167500D01*
X6940571Y-14153214D01*
X7326285Y-14453214D02*
X7154857Y-14453214D01*
X7240571Y-14453214D02*
X7240571Y-14153214D01*
X7212000Y-14196071D01*
X7183428Y-14224643D01*
X7154857Y-14238929D01*
X7440571Y-14181786D02*
X7454857Y-14167500D01*
X7483428Y-14153214D01*
X7554857Y-14153214D01*
X7583428Y-14167500D01*
X7597714Y-14181786D01*
X7612000Y-14210357D01*
X7612000Y-14238929D01*
X7597714Y-14281786D01*
X7426285Y-14453214D01*
X7612000Y-14453214D01*
X7726286Y-14153214D02*
X7726286Y-14210357D01*
X7840571Y-14153214D02*
X7840571Y-14210357D01*
X8283428Y-14567500D02*
X8269143Y-14553214D01*
X8240571Y-14510357D01*
X8226285Y-14481786D01*
X8212000Y-14438929D01*
X8197714Y-14367500D01*
X8197714Y-14310357D01*
X8212000Y-14238929D01*
X8226285Y-14196071D01*
X8240571Y-14167500D01*
X8269143Y-14124643D01*
X8283428Y-14110357D01*
X8554857Y-14453214D02*
X8383428Y-14453214D01*
X8469143Y-14453214D02*
X8469143Y-14153214D01*
X8440571Y-14196071D01*
X8412000Y-14224643D01*
X8383428Y-14238929D01*
X8654857Y-14153214D02*
X8854857Y-14153214D01*
X8726286Y-14453214D01*
X9126286Y-14453214D02*
X8954857Y-14453214D01*
X9040571Y-14453214D02*
X9040571Y-14153214D01*
X9012000Y-14196071D01*
X8983428Y-14224643D01*
X8954857Y-14238929D01*
X9483428Y-14453214D02*
X9483428Y-14153214D01*
X9612000Y-14453214D02*
X9612000Y-14296071D01*
X9597714Y-14267500D01*
X9569143Y-14253214D01*
X9526286Y-14253214D01*
X9497714Y-14267500D01*
X9483428Y-14281786D01*
X9797714Y-14453214D02*
X9769143Y-14438929D01*
X9754857Y-14424643D01*
X9740571Y-14396071D01*
X9740571Y-14310357D01*
X9754857Y-14281786D01*
X9769143Y-14267500D01*
X9797714Y-14253214D01*
X9840571Y-14253214D01*
X9869143Y-14267500D01*
X9883428Y-14281786D01*
X9897714Y-14310357D01*
X9897714Y-14396071D01*
X9883428Y-14424643D01*
X9869143Y-14438929D01*
X9840571Y-14453214D01*
X9797714Y-14453214D01*
X10069143Y-14453214D02*
X10040571Y-14438929D01*
X10026286Y-14410357D01*
X10026286Y-14153214D01*
X10297714Y-14438929D02*
X10269143Y-14453214D01*
X10212000Y-14453214D01*
X10183429Y-14438929D01*
X10169143Y-14410357D01*
X10169143Y-14296071D01*
X10183429Y-14267500D01*
X10212000Y-14253214D01*
X10269143Y-14253214D01*
X10297714Y-14267500D01*
X10312000Y-14296071D01*
X10312000Y-14324643D01*
X10169143Y-14353214D01*
X10426286Y-14438929D02*
X10454857Y-14453214D01*
X10512000Y-14453214D01*
X10540571Y-14438929D01*
X10554857Y-14410357D01*
X10554857Y-14396071D01*
X10540571Y-14367500D01*
X10512000Y-14353214D01*
X10469143Y-14353214D01*
X10440571Y-14338929D01*
X10426286Y-14310357D01*
X10426286Y-14296071D01*
X10440571Y-14267500D01*
X10469143Y-14253214D01*
X10512000Y-14253214D01*
X10540571Y-14267500D01*
X10654857Y-14567500D02*
X10669143Y-14553214D01*
X10697714Y-14510357D01*
X10712000Y-14481786D01*
X10726286Y-14438929D01*
X10740571Y-14367500D01*
X10740571Y-14310357D01*
X10726286Y-14238929D01*
X10712000Y-14196071D01*
X10697714Y-14167500D01*
X10669143Y-14124643D01*
X10654857Y-14110357D01*
X3572000Y-14673500D02*
X3572000Y-14753500D01*
X3532000Y-14713500D02*
X3612000Y-14713500D01*
X3940571Y-14549214D02*
X3969143Y-14549214D01*
X3997714Y-14563500D01*
X4012000Y-14577786D01*
X4026286Y-14606357D01*
X4040571Y-14663500D01*
X4040571Y-14734929D01*
X4026286Y-14792071D01*
X4012000Y-14820643D01*
X3997714Y-14834929D01*
X3969143Y-14849214D01*
X3940571Y-14849214D01*
X3912000Y-14834929D01*
X3897714Y-14820643D01*
X3883428Y-14792071D01*
X3869143Y-14734929D01*
X3869143Y-14663500D01*
X3883428Y-14606357D01*
X3897714Y-14577786D01*
X3912000Y-14563500D01*
X3940571Y-14549214D01*
X4169143Y-14820643D02*
X4183428Y-14834929D01*
X4169143Y-14849214D01*
X4154857Y-14834929D01*
X4169143Y-14820643D01*
X4169143Y-14849214D01*
X4354857Y-14677786D02*
X4326286Y-14663500D01*
X4312000Y-14649214D01*
X4297714Y-14620643D01*
X4297714Y-14606357D01*
X4312000Y-14577786D01*
X4326286Y-14563500D01*
X4354857Y-14549214D01*
X4412000Y-14549214D01*
X4440571Y-14563500D01*
X4454857Y-14577786D01*
X4469143Y-14606357D01*
X4469143Y-14620643D01*
X4454857Y-14649214D01*
X4440571Y-14663500D01*
X4412000Y-14677786D01*
X4354857Y-14677786D01*
X4326286Y-14692071D01*
X4312000Y-14706357D01*
X4297714Y-14734929D01*
X4297714Y-14792071D01*
X4312000Y-14820643D01*
X4326286Y-14834929D01*
X4354857Y-14849214D01*
X4412000Y-14849214D01*
X4440571Y-14834929D01*
X4454857Y-14820643D01*
X4469143Y-14792071D01*
X4469143Y-14734929D01*
X4454857Y-14706357D01*
X4440571Y-14692071D01*
X4412000Y-14677786D01*
X4654857Y-14549214D02*
X4683429Y-14549214D01*
X4712000Y-14563500D01*
X4726286Y-14577786D01*
X4740571Y-14606357D01*
X4754857Y-14663500D01*
X4754857Y-14734929D01*
X4740571Y-14792071D01*
X4726286Y-14820643D01*
X4712000Y-14834929D01*
X4683429Y-14849214D01*
X4654857Y-14849214D01*
X4626286Y-14834929D01*
X4612000Y-14820643D01*
X4597714Y-14792071D01*
X4583429Y-14734929D01*
X4583429Y-14663500D01*
X4597714Y-14606357D01*
X4612000Y-14577786D01*
X4626286Y-14563500D01*
X4654857Y-14549214D01*
X4883429Y-14849214D02*
X4883429Y-14649214D01*
X4883429Y-14677786D02*
X4897714Y-14663500D01*
X4926286Y-14649214D01*
X4969143Y-14649214D01*
X4997714Y-14663500D01*
X5012000Y-14692071D01*
X5012000Y-14849214D01*
X5012000Y-14692071D02*
X5026286Y-14663500D01*
X5054857Y-14649214D01*
X5097714Y-14649214D01*
X5126286Y-14663500D01*
X5140571Y-14692071D01*
X5140571Y-14849214D01*
X5283429Y-14849214D02*
X5283429Y-14649214D01*
X5283429Y-14677786D02*
X5297714Y-14663500D01*
X5326286Y-14649214D01*
X5369143Y-14649214D01*
X5397714Y-14663500D01*
X5412000Y-14692071D01*
X5412000Y-14849214D01*
X5412000Y-14692071D02*
X5426286Y-14663500D01*
X5454857Y-14649214D01*
X5497714Y-14649214D01*
X5526286Y-14663500D01*
X5540571Y-14692071D01*
X5540571Y-14849214D01*
X6126286Y-14534929D02*
X5869143Y-14920643D01*
X6512000Y-14549214D02*
X6540571Y-14549214D01*
X6569143Y-14563500D01*
X6583428Y-14577786D01*
X6597714Y-14606357D01*
X6612000Y-14663500D01*
X6612000Y-14734929D01*
X6597714Y-14792071D01*
X6583428Y-14820643D01*
X6569143Y-14834929D01*
X6540571Y-14849214D01*
X6512000Y-14849214D01*
X6483428Y-14834929D01*
X6469143Y-14820643D01*
X6454857Y-14792071D01*
X6440571Y-14734929D01*
X6440571Y-14663500D01*
X6454857Y-14606357D01*
X6469143Y-14577786D01*
X6483428Y-14563500D01*
X6512000Y-14549214D01*
X6740571Y-14820643D02*
X6754857Y-14834929D01*
X6740571Y-14849214D01*
X6726286Y-14834929D01*
X6740571Y-14820643D01*
X6740571Y-14849214D01*
X6940571Y-14549214D02*
X6969143Y-14549214D01*
X6997714Y-14563500D01*
X7012000Y-14577786D01*
X7026285Y-14606357D01*
X7040571Y-14663500D01*
X7040571Y-14734929D01*
X7026285Y-14792071D01*
X7012000Y-14820643D01*
X6997714Y-14834929D01*
X6969143Y-14849214D01*
X6940571Y-14849214D01*
X6912000Y-14834929D01*
X6897714Y-14820643D01*
X6883428Y-14792071D01*
X6869143Y-14734929D01*
X6869143Y-14663500D01*
X6883428Y-14606357D01*
X6897714Y-14577786D01*
X6912000Y-14563500D01*
X6940571Y-14549214D01*
X7140571Y-14549214D02*
X7326285Y-14549214D01*
X7226285Y-14663500D01*
X7269143Y-14663500D01*
X7297714Y-14677786D01*
X7312000Y-14692071D01*
X7326285Y-14720643D01*
X7326285Y-14792071D01*
X7312000Y-14820643D01*
X7297714Y-14834929D01*
X7269143Y-14849214D01*
X7183428Y-14849214D01*
X7154857Y-14834929D01*
X7140571Y-14820643D01*
X7612000Y-14849214D02*
X7440571Y-14849214D01*
X7526285Y-14849214D02*
X7526285Y-14549214D01*
X7497714Y-14592071D01*
X7469143Y-14620643D01*
X7440571Y-14634929D01*
X7726286Y-14549214D02*
X7726286Y-14606357D01*
X7840571Y-14549214D02*
X7840571Y-14606357D01*
X8283428Y-14963500D02*
X8269143Y-14949214D01*
X8240571Y-14906357D01*
X8226285Y-14877786D01*
X8212000Y-14834929D01*
X8197714Y-14763500D01*
X8197714Y-14706357D01*
X8212000Y-14634929D01*
X8226285Y-14592071D01*
X8240571Y-14563500D01*
X8269143Y-14520643D01*
X8283428Y-14506357D01*
X8383428Y-14577786D02*
X8397714Y-14563500D01*
X8426286Y-14549214D01*
X8497714Y-14549214D01*
X8526286Y-14563500D01*
X8540571Y-14577786D01*
X8554857Y-14606357D01*
X8554857Y-14634929D01*
X8540571Y-14677786D01*
X8369143Y-14849214D01*
X8554857Y-14849214D01*
X8912000Y-14849214D02*
X8912000Y-14549214D01*
X9040571Y-14849214D02*
X9040571Y-14692071D01*
X9026286Y-14663500D01*
X8997714Y-14649214D01*
X8954857Y-14649214D01*
X8926286Y-14663500D01*
X8912000Y-14677786D01*
X9226286Y-14849214D02*
X9197714Y-14834929D01*
X9183428Y-14820643D01*
X9169143Y-14792071D01*
X9169143Y-14706357D01*
X9183428Y-14677786D01*
X9197714Y-14663500D01*
X9226286Y-14649214D01*
X9269143Y-14649214D01*
X9297714Y-14663500D01*
X9312000Y-14677786D01*
X9326286Y-14706357D01*
X9326286Y-14792071D01*
X9312000Y-14820643D01*
X9297714Y-14834929D01*
X9269143Y-14849214D01*
X9226286Y-14849214D01*
X9497714Y-14849214D02*
X9469143Y-14834929D01*
X9454857Y-14806357D01*
X9454857Y-14549214D01*
X9726286Y-14834929D02*
X9697714Y-14849214D01*
X9640571Y-14849214D01*
X9612000Y-14834929D01*
X9597714Y-14806357D01*
X9597714Y-14692071D01*
X9612000Y-14663500D01*
X9640571Y-14649214D01*
X9697714Y-14649214D01*
X9726286Y-14663500D01*
X9740571Y-14692071D01*
X9740571Y-14720643D01*
X9597714Y-14749214D01*
X9854857Y-14834929D02*
X9883429Y-14849214D01*
X9940571Y-14849214D01*
X9969143Y-14834929D01*
X9983429Y-14806357D01*
X9983429Y-14792071D01*
X9969143Y-14763500D01*
X9940571Y-14749214D01*
X9897714Y-14749214D01*
X9869143Y-14734929D01*
X9854857Y-14706357D01*
X9854857Y-14692071D01*
X9869143Y-14663500D01*
X9897714Y-14649214D01*
X9940571Y-14649214D01*
X9969143Y-14663500D01*
X10083428Y-14963500D02*
X10097714Y-14949214D01*
X10126286Y-14906357D01*
X10140571Y-14877786D01*
X10154857Y-14834929D01*
X10169143Y-14763500D01*
X10169143Y-14706357D01*
X10154857Y-14634929D01*
X10140571Y-14592071D01*
X10126286Y-14563500D01*
X10097714Y-14520643D01*
X10083428Y-14506357D01*
X10626286Y-14963500D02*
X10612000Y-14949214D01*
X10583428Y-14906357D01*
X10569143Y-14877786D01*
X10554857Y-14834929D01*
X10540571Y-14763500D01*
X10540571Y-14706357D01*
X10554857Y-14634929D01*
X10569143Y-14592071D01*
X10583428Y-14563500D01*
X10612000Y-14520643D01*
X10626286Y-14506357D01*
X10740571Y-14649214D02*
X10740571Y-14849214D01*
X10740571Y-14677786D02*
X10754857Y-14663500D01*
X10783428Y-14649214D01*
X10826286Y-14649214D01*
X10854857Y-14663500D01*
X10869143Y-14692071D01*
X10869143Y-14849214D01*
X11054857Y-14849214D02*
X11026286Y-14834929D01*
X11012000Y-14820643D01*
X10997714Y-14792071D01*
X10997714Y-14706357D01*
X11012000Y-14677786D01*
X11026286Y-14663500D01*
X11054857Y-14649214D01*
X11097714Y-14649214D01*
X11126286Y-14663500D01*
X11140571Y-14677786D01*
X11154857Y-14706357D01*
X11154857Y-14792071D01*
X11140571Y-14820643D01*
X11126286Y-14834929D01*
X11097714Y-14849214D01*
X11054857Y-14849214D01*
X11240571Y-14649214D02*
X11354857Y-14649214D01*
X11283428Y-14549214D02*
X11283428Y-14806357D01*
X11297714Y-14834929D01*
X11326286Y-14849214D01*
X11354857Y-14849214D01*
X11683428Y-14649214D02*
X11683428Y-14949214D01*
X11683428Y-14663500D02*
X11712000Y-14649214D01*
X11769143Y-14649214D01*
X11797714Y-14663500D01*
X11812000Y-14677786D01*
X11826286Y-14706357D01*
X11826286Y-14792071D01*
X11812000Y-14820643D01*
X11797714Y-14834929D01*
X11769143Y-14849214D01*
X11712000Y-14849214D01*
X11683428Y-14834929D01*
X11997714Y-14849214D02*
X11969143Y-14834929D01*
X11954857Y-14806357D01*
X11954857Y-14549214D01*
X12240571Y-14849214D02*
X12240571Y-14692071D01*
X12226286Y-14663500D01*
X12197714Y-14649214D01*
X12140571Y-14649214D01*
X12112000Y-14663500D01*
X12240571Y-14834929D02*
X12212000Y-14849214D01*
X12140571Y-14849214D01*
X12112000Y-14834929D01*
X12097714Y-14806357D01*
X12097714Y-14777786D01*
X12112000Y-14749214D01*
X12140571Y-14734929D01*
X12212000Y-14734929D01*
X12240571Y-14720643D01*
X12340571Y-14649214D02*
X12454857Y-14649214D01*
X12383429Y-14549214D02*
X12383429Y-14806357D01*
X12397714Y-14834929D01*
X12426286Y-14849214D01*
X12454857Y-14849214D01*
X12669143Y-14834929D02*
X12640571Y-14849214D01*
X12583429Y-14849214D01*
X12554857Y-14834929D01*
X12540571Y-14806357D01*
X12540571Y-14692071D01*
X12554857Y-14663500D01*
X12583429Y-14649214D01*
X12640571Y-14649214D01*
X12669143Y-14663500D01*
X12683429Y-14692071D01*
X12683429Y-14720643D01*
X12540571Y-14749214D01*
X12940571Y-14849214D02*
X12940571Y-14549214D01*
X12940571Y-14834929D02*
X12912000Y-14849214D01*
X12854857Y-14849214D01*
X12826286Y-14834929D01*
X12812000Y-14820643D01*
X12797714Y-14792071D01*
X12797714Y-14706357D01*
X12812000Y-14677786D01*
X12826286Y-14663500D01*
X12854857Y-14649214D01*
X12912000Y-14649214D01*
X12940571Y-14663500D01*
X13054857Y-14963500D02*
X13069143Y-14949214D01*
X13097714Y-14906357D01*
X13112000Y-14877786D01*
X13126286Y-14834929D01*
X13140571Y-14763500D01*
X13140571Y-14706357D01*
X13126286Y-14634929D01*
X13112000Y-14592071D01*
X13097714Y-14563500D01*
X13069143Y-14520643D01*
X13054857Y-14506357D01*
X3598832Y-15141290D02*
X3598832Y-15077710D01*
X3535251Y-15077710D01*
X3535251Y-15141290D01*
X3598832Y-15141290D01*
X3940571Y-14945214D02*
X3969143Y-14945214D01*
X3997714Y-14959500D01*
X4012000Y-14973786D01*
X4026286Y-15002357D01*
X4040571Y-15059500D01*
X4040571Y-15130929D01*
X4026286Y-15188071D01*
X4012000Y-15216643D01*
X3997714Y-15230929D01*
X3969143Y-15245214D01*
X3940571Y-15245214D01*
X3912000Y-15230929D01*
X3897714Y-15216643D01*
X3883428Y-15188071D01*
X3869143Y-15130929D01*
X3869143Y-15059500D01*
X3883428Y-15002357D01*
X3897714Y-14973786D01*
X3912000Y-14959500D01*
X3940571Y-14945214D01*
X4169143Y-15216643D02*
X4183428Y-15230929D01*
X4169143Y-15245214D01*
X4154857Y-15230929D01*
X4169143Y-15216643D01*
X4169143Y-15245214D01*
X4326286Y-15245214D02*
X4383428Y-15245214D01*
X4412000Y-15230929D01*
X4426286Y-15216643D01*
X4454857Y-15173786D01*
X4469143Y-15116643D01*
X4469143Y-15002357D01*
X4454857Y-14973786D01*
X4440571Y-14959500D01*
X4412000Y-14945214D01*
X4354857Y-14945214D01*
X4326286Y-14959500D01*
X4312000Y-14973786D01*
X4297714Y-15002357D01*
X4297714Y-15073786D01*
X4312000Y-15102357D01*
X4326286Y-15116643D01*
X4354857Y-15130929D01*
X4412000Y-15130929D01*
X4440571Y-15116643D01*
X4454857Y-15102357D01*
X4469143Y-15073786D01*
X4654857Y-14945214D02*
X4683429Y-14945214D01*
X4712000Y-14959500D01*
X4726286Y-14973786D01*
X4740571Y-15002357D01*
X4754857Y-15059500D01*
X4754857Y-15130929D01*
X4740571Y-15188071D01*
X4726286Y-15216643D01*
X4712000Y-15230929D01*
X4683429Y-15245214D01*
X4654857Y-15245214D01*
X4626286Y-15230929D01*
X4612000Y-15216643D01*
X4597714Y-15188071D01*
X4583429Y-15130929D01*
X4583429Y-15059500D01*
X4597714Y-15002357D01*
X4612000Y-14973786D01*
X4626286Y-14959500D01*
X4654857Y-14945214D01*
X4883429Y-15245214D02*
X4883429Y-15045214D01*
X4883429Y-15073786D02*
X4897714Y-15059500D01*
X4926286Y-15045214D01*
X4969143Y-15045214D01*
X4997714Y-15059500D01*
X5012000Y-15088071D01*
X5012000Y-15245214D01*
X5012000Y-15088071D02*
X5026286Y-15059500D01*
X5054857Y-15045214D01*
X5097714Y-15045214D01*
X5126286Y-15059500D01*
X5140571Y-15088071D01*
X5140571Y-15245214D01*
X5283429Y-15245214D02*
X5283429Y-15045214D01*
X5283429Y-15073786D02*
X5297714Y-15059500D01*
X5326286Y-15045214D01*
X5369143Y-15045214D01*
X5397714Y-15059500D01*
X5412000Y-15088071D01*
X5412000Y-15245214D01*
X5412000Y-15088071D02*
X5426286Y-15059500D01*
X5454857Y-15045214D01*
X5497714Y-15045214D01*
X5526286Y-15059500D01*
X5540571Y-15088071D01*
X5540571Y-15245214D01*
X6126286Y-14930929D02*
X5869143Y-15316643D01*
X6512000Y-14945214D02*
X6540571Y-14945214D01*
X6569143Y-14959500D01*
X6583428Y-14973786D01*
X6597714Y-15002357D01*
X6612000Y-15059500D01*
X6612000Y-15130929D01*
X6597714Y-15188071D01*
X6583428Y-15216643D01*
X6569143Y-15230929D01*
X6540571Y-15245214D01*
X6512000Y-15245214D01*
X6483428Y-15230929D01*
X6469143Y-15216643D01*
X6454857Y-15188071D01*
X6440571Y-15130929D01*
X6440571Y-15059500D01*
X6454857Y-15002357D01*
X6469143Y-14973786D01*
X6483428Y-14959500D01*
X6512000Y-14945214D01*
X6740571Y-15216643D02*
X6754857Y-15230929D01*
X6740571Y-15245214D01*
X6726286Y-15230929D01*
X6740571Y-15216643D01*
X6740571Y-15245214D01*
X6940571Y-14945214D02*
X6969143Y-14945214D01*
X6997714Y-14959500D01*
X7012000Y-14973786D01*
X7026285Y-15002357D01*
X7040571Y-15059500D01*
X7040571Y-15130929D01*
X7026285Y-15188071D01*
X7012000Y-15216643D01*
X6997714Y-15230929D01*
X6969143Y-15245214D01*
X6940571Y-15245214D01*
X6912000Y-15230929D01*
X6897714Y-15216643D01*
X6883428Y-15188071D01*
X6869143Y-15130929D01*
X6869143Y-15059500D01*
X6883428Y-15002357D01*
X6897714Y-14973786D01*
X6912000Y-14959500D01*
X6940571Y-14945214D01*
X7140571Y-14945214D02*
X7326285Y-14945214D01*
X7226285Y-15059500D01*
X7269143Y-15059500D01*
X7297714Y-15073786D01*
X7312000Y-15088071D01*
X7326285Y-15116643D01*
X7326285Y-15188071D01*
X7312000Y-15216643D01*
X7297714Y-15230929D01*
X7269143Y-15245214D01*
X7183428Y-15245214D01*
X7154857Y-15230929D01*
X7140571Y-15216643D01*
X7597714Y-14945214D02*
X7454857Y-14945214D01*
X7440571Y-15088071D01*
X7454857Y-15073786D01*
X7483428Y-15059500D01*
X7554857Y-15059500D01*
X7583428Y-15073786D01*
X7597714Y-15088071D01*
X7612000Y-15116643D01*
X7612000Y-15188071D01*
X7597714Y-15216643D01*
X7583428Y-15230929D01*
X7554857Y-15245214D01*
X7483428Y-15245214D01*
X7454857Y-15230929D01*
X7440571Y-15216643D01*
X7726286Y-14945214D02*
X7726286Y-15002357D01*
X7840571Y-14945214D02*
X7840571Y-15002357D01*
X8283428Y-15359500D02*
X8269143Y-15345214D01*
X8240571Y-15302357D01*
X8226285Y-15273786D01*
X8212000Y-15230929D01*
X8197714Y-15159500D01*
X8197714Y-15102357D01*
X8212000Y-15030929D01*
X8226285Y-14988071D01*
X8240571Y-14959500D01*
X8269143Y-14916643D01*
X8283428Y-14902357D01*
X8383428Y-14973786D02*
X8397714Y-14959500D01*
X8426286Y-14945214D01*
X8497714Y-14945214D01*
X8526286Y-14959500D01*
X8540571Y-14973786D01*
X8554857Y-15002357D01*
X8554857Y-15030929D01*
X8540571Y-15073786D01*
X8369143Y-15245214D01*
X8554857Y-15245214D01*
X8912000Y-15245214D02*
X8912000Y-14945214D01*
X9040571Y-15245214D02*
X9040571Y-15088071D01*
X9026286Y-15059500D01*
X8997714Y-15045214D01*
X8954857Y-15045214D01*
X8926286Y-15059500D01*
X8912000Y-15073786D01*
X9226286Y-15245214D02*
X9197714Y-15230929D01*
X9183428Y-15216643D01*
X9169143Y-15188071D01*
X9169143Y-15102357D01*
X9183428Y-15073786D01*
X9197714Y-15059500D01*
X9226286Y-15045214D01*
X9269143Y-15045214D01*
X9297714Y-15059500D01*
X9312000Y-15073786D01*
X9326286Y-15102357D01*
X9326286Y-15188071D01*
X9312000Y-15216643D01*
X9297714Y-15230929D01*
X9269143Y-15245214D01*
X9226286Y-15245214D01*
X9497714Y-15245214D02*
X9469143Y-15230929D01*
X9454857Y-15202357D01*
X9454857Y-14945214D01*
X9726286Y-15230929D02*
X9697714Y-15245214D01*
X9640571Y-15245214D01*
X9612000Y-15230929D01*
X9597714Y-15202357D01*
X9597714Y-15088071D01*
X9612000Y-15059500D01*
X9640571Y-15045214D01*
X9697714Y-15045214D01*
X9726286Y-15059500D01*
X9740571Y-15088071D01*
X9740571Y-15116643D01*
X9597714Y-15145214D01*
X9854857Y-15230929D02*
X9883429Y-15245214D01*
X9940571Y-15245214D01*
X9969143Y-15230929D01*
X9983429Y-15202357D01*
X9983429Y-15188071D01*
X9969143Y-15159500D01*
X9940571Y-15145214D01*
X9897714Y-15145214D01*
X9869143Y-15130929D01*
X9854857Y-15102357D01*
X9854857Y-15088071D01*
X9869143Y-15059500D01*
X9897714Y-15045214D01*
X9940571Y-15045214D01*
X9969143Y-15059500D01*
X10083428Y-15359500D02*
X10097714Y-15345214D01*
X10126286Y-15302357D01*
X10140571Y-15273786D01*
X10154857Y-15230929D01*
X10169143Y-15159500D01*
X10169143Y-15102357D01*
X10154857Y-15030929D01*
X10140571Y-14988071D01*
X10126286Y-14959500D01*
X10097714Y-14916643D01*
X10083428Y-14902357D01*
X10626286Y-15359500D02*
X10612000Y-15345214D01*
X10583428Y-15302357D01*
X10569143Y-15273786D01*
X10554857Y-15230929D01*
X10540571Y-15159500D01*
X10540571Y-15102357D01*
X10554857Y-15030929D01*
X10569143Y-14988071D01*
X10583428Y-14959500D01*
X10612000Y-14916643D01*
X10626286Y-14902357D01*
X10740571Y-15045214D02*
X10740571Y-15245214D01*
X10740571Y-15073786D02*
X10754857Y-15059500D01*
X10783428Y-15045214D01*
X10826286Y-15045214D01*
X10854857Y-15059500D01*
X10869143Y-15088071D01*
X10869143Y-15245214D01*
X11054857Y-15245214D02*
X11026286Y-15230929D01*
X11012000Y-15216643D01*
X10997714Y-15188071D01*
X10997714Y-15102357D01*
X11012000Y-15073786D01*
X11026286Y-15059500D01*
X11054857Y-15045214D01*
X11097714Y-15045214D01*
X11126286Y-15059500D01*
X11140571Y-15073786D01*
X11154857Y-15102357D01*
X11154857Y-15188071D01*
X11140571Y-15216643D01*
X11126286Y-15230929D01*
X11097714Y-15245214D01*
X11054857Y-15245214D01*
X11240571Y-15045214D02*
X11354857Y-15045214D01*
X11283428Y-14945214D02*
X11283428Y-15202357D01*
X11297714Y-15230929D01*
X11326286Y-15245214D01*
X11354857Y-15245214D01*
X11683428Y-15045214D02*
X11683428Y-15345214D01*
X11683428Y-15059500D02*
X11712000Y-15045214D01*
X11769143Y-15045214D01*
X11797714Y-15059500D01*
X11812000Y-15073786D01*
X11826286Y-15102357D01*
X11826286Y-15188071D01*
X11812000Y-15216643D01*
X11797714Y-15230929D01*
X11769143Y-15245214D01*
X11712000Y-15245214D01*
X11683428Y-15230929D01*
X11997714Y-15245214D02*
X11969143Y-15230929D01*
X11954857Y-15202357D01*
X11954857Y-14945214D01*
X12240571Y-15245214D02*
X12240571Y-15088071D01*
X12226286Y-15059500D01*
X12197714Y-15045214D01*
X12140571Y-15045214D01*
X12112000Y-15059500D01*
X12240571Y-15230929D02*
X12212000Y-15245214D01*
X12140571Y-15245214D01*
X12112000Y-15230929D01*
X12097714Y-15202357D01*
X12097714Y-15173786D01*
X12112000Y-15145214D01*
X12140571Y-15130929D01*
X12212000Y-15130929D01*
X12240571Y-15116643D01*
X12340571Y-15045214D02*
X12454857Y-15045214D01*
X12383429Y-14945214D02*
X12383429Y-15202357D01*
X12397714Y-15230929D01*
X12426286Y-15245214D01*
X12454857Y-15245214D01*
X12669143Y-15230929D02*
X12640571Y-15245214D01*
X12583429Y-15245214D01*
X12554857Y-15230929D01*
X12540571Y-15202357D01*
X12540571Y-15088071D01*
X12554857Y-15059500D01*
X12583429Y-15045214D01*
X12640571Y-15045214D01*
X12669143Y-15059500D01*
X12683429Y-15088071D01*
X12683429Y-15116643D01*
X12540571Y-15145214D01*
X12940571Y-15245214D02*
X12940571Y-14945214D01*
X12940571Y-15230929D02*
X12912000Y-15245214D01*
X12854857Y-15245214D01*
X12826286Y-15230929D01*
X12812000Y-15216643D01*
X12797714Y-15188071D01*
X12797714Y-15102357D01*
X12812000Y-15073786D01*
X12826286Y-15059500D01*
X12854857Y-15045214D01*
X12912000Y-15045214D01*
X12940571Y-15059500D01*
X13054857Y-15359500D02*
X13069143Y-15345214D01*
X13097714Y-15302357D01*
X13112000Y-15273786D01*
X13126286Y-15230929D01*
X13140571Y-15159500D01*
X13140571Y-15102357D01*
X13126286Y-15030929D01*
X13112000Y-14988071D01*
X13097714Y-14959500D01*
X13069143Y-14916643D01*
X13054857Y-14902357D01*
X3562000Y-15555500D02*
X3612000Y-15505500D01*
X3562000Y-15455500D01*
X3512000Y-15505500D01*
X3562000Y-15555500D01*
X4040571Y-15641214D02*
X3869143Y-15641214D01*
X3954857Y-15641214D02*
X3954857Y-15341214D01*
X3926286Y-15384071D01*
X3897714Y-15412643D01*
X3869143Y-15426929D01*
X4169143Y-15612643D02*
X4183428Y-15626929D01*
X4169143Y-15641214D01*
X4154857Y-15626929D01*
X4169143Y-15612643D01*
X4169143Y-15641214D01*
X4369143Y-15341214D02*
X4397714Y-15341214D01*
X4426286Y-15355500D01*
X4440571Y-15369786D01*
X4454857Y-15398357D01*
X4469143Y-15455500D01*
X4469143Y-15526929D01*
X4454857Y-15584071D01*
X4440571Y-15612643D01*
X4426286Y-15626929D01*
X4397714Y-15641214D01*
X4369143Y-15641214D01*
X4340571Y-15626929D01*
X4326286Y-15612643D01*
X4312000Y-15584071D01*
X4297714Y-15526929D01*
X4297714Y-15455500D01*
X4312000Y-15398357D01*
X4326286Y-15369786D01*
X4340571Y-15355500D01*
X4369143Y-15341214D01*
X4654857Y-15341214D02*
X4683429Y-15341214D01*
X4712000Y-15355500D01*
X4726286Y-15369786D01*
X4740571Y-15398357D01*
X4754857Y-15455500D01*
X4754857Y-15526929D01*
X4740571Y-15584071D01*
X4726286Y-15612643D01*
X4712000Y-15626929D01*
X4683429Y-15641214D01*
X4654857Y-15641214D01*
X4626286Y-15626929D01*
X4612000Y-15612643D01*
X4597714Y-15584071D01*
X4583429Y-15526929D01*
X4583429Y-15455500D01*
X4597714Y-15398357D01*
X4612000Y-15369786D01*
X4626286Y-15355500D01*
X4654857Y-15341214D01*
X4883429Y-15641214D02*
X4883429Y-15441214D01*
X4883429Y-15469786D02*
X4897714Y-15455500D01*
X4926286Y-15441214D01*
X4969143Y-15441214D01*
X4997714Y-15455500D01*
X5012000Y-15484071D01*
X5012000Y-15641214D01*
X5012000Y-15484071D02*
X5026286Y-15455500D01*
X5054857Y-15441214D01*
X5097714Y-15441214D01*
X5126286Y-15455500D01*
X5140571Y-15484071D01*
X5140571Y-15641214D01*
X5283429Y-15641214D02*
X5283429Y-15441214D01*
X5283429Y-15469786D02*
X5297714Y-15455500D01*
X5326286Y-15441214D01*
X5369143Y-15441214D01*
X5397714Y-15455500D01*
X5412000Y-15484071D01*
X5412000Y-15641214D01*
X5412000Y-15484071D02*
X5426286Y-15455500D01*
X5454857Y-15441214D01*
X5497714Y-15441214D01*
X5526286Y-15455500D01*
X5540571Y-15484071D01*
X5540571Y-15641214D01*
X6126286Y-15326929D02*
X5869143Y-15712643D01*
X6512000Y-15341214D02*
X6540571Y-15341214D01*
X6569143Y-15355500D01*
X6583428Y-15369786D01*
X6597714Y-15398357D01*
X6612000Y-15455500D01*
X6612000Y-15526929D01*
X6597714Y-15584071D01*
X6583428Y-15612643D01*
X6569143Y-15626929D01*
X6540571Y-15641214D01*
X6512000Y-15641214D01*
X6483428Y-15626929D01*
X6469143Y-15612643D01*
X6454857Y-15584071D01*
X6440571Y-15526929D01*
X6440571Y-15455500D01*
X6454857Y-15398357D01*
X6469143Y-15369786D01*
X6483428Y-15355500D01*
X6512000Y-15341214D01*
X6740571Y-15612643D02*
X6754857Y-15626929D01*
X6740571Y-15641214D01*
X6726286Y-15626929D01*
X6740571Y-15612643D01*
X6740571Y-15641214D01*
X6940571Y-15341214D02*
X6969143Y-15341214D01*
X6997714Y-15355500D01*
X7012000Y-15369786D01*
X7026285Y-15398357D01*
X7040571Y-15455500D01*
X7040571Y-15526929D01*
X7026285Y-15584071D01*
X7012000Y-15612643D01*
X6997714Y-15626929D01*
X6969143Y-15641214D01*
X6940571Y-15641214D01*
X6912000Y-15626929D01*
X6897714Y-15612643D01*
X6883428Y-15584071D01*
X6869143Y-15526929D01*
X6869143Y-15455500D01*
X6883428Y-15398357D01*
X6897714Y-15369786D01*
X6912000Y-15355500D01*
X6940571Y-15341214D01*
X7140571Y-15341214D02*
X7326285Y-15341214D01*
X7226285Y-15455500D01*
X7269143Y-15455500D01*
X7297714Y-15469786D01*
X7312000Y-15484071D01*
X7326285Y-15512643D01*
X7326285Y-15584071D01*
X7312000Y-15612643D01*
X7297714Y-15626929D01*
X7269143Y-15641214D01*
X7183428Y-15641214D01*
X7154857Y-15626929D01*
X7140571Y-15612643D01*
X7469143Y-15641214D02*
X7526285Y-15641214D01*
X7554857Y-15626929D01*
X7569143Y-15612643D01*
X7597714Y-15569786D01*
X7612000Y-15512643D01*
X7612000Y-15398357D01*
X7597714Y-15369786D01*
X7583428Y-15355500D01*
X7554857Y-15341214D01*
X7497714Y-15341214D01*
X7469143Y-15355500D01*
X7454857Y-15369786D01*
X7440571Y-15398357D01*
X7440571Y-15469786D01*
X7454857Y-15498357D01*
X7469143Y-15512643D01*
X7497714Y-15526929D01*
X7554857Y-15526929D01*
X7583428Y-15512643D01*
X7597714Y-15498357D01*
X7612000Y-15469786D01*
X7726286Y-15341214D02*
X7726286Y-15398357D01*
X7840571Y-15341214D02*
X7840571Y-15398357D01*
X8283428Y-15755500D02*
X8269143Y-15741214D01*
X8240571Y-15698357D01*
X8226285Y-15669786D01*
X8212000Y-15626929D01*
X8197714Y-15555500D01*
X8197714Y-15498357D01*
X8212000Y-15426929D01*
X8226285Y-15384071D01*
X8240571Y-15355500D01*
X8269143Y-15312643D01*
X8283428Y-15298357D01*
X8454857Y-15341214D02*
X8483428Y-15341214D01*
X8512000Y-15355500D01*
X8526286Y-15369786D01*
X8540571Y-15398357D01*
X8554857Y-15455500D01*
X8554857Y-15526929D01*
X8540571Y-15584071D01*
X8526286Y-15612643D01*
X8512000Y-15626929D01*
X8483428Y-15641214D01*
X8454857Y-15641214D01*
X8426286Y-15626929D01*
X8412000Y-15612643D01*
X8397714Y-15584071D01*
X8383428Y-15526929D01*
X8383428Y-15455500D01*
X8397714Y-15398357D01*
X8412000Y-15369786D01*
X8426286Y-15355500D01*
X8454857Y-15341214D01*
X8912000Y-15641214D02*
X8912000Y-15341214D01*
X9040571Y-15641214D02*
X9040571Y-15484071D01*
X9026286Y-15455500D01*
X8997714Y-15441214D01*
X8954857Y-15441214D01*
X8926286Y-15455500D01*
X8912000Y-15469786D01*
X9226286Y-15641214D02*
X9197714Y-15626929D01*
X9183428Y-15612643D01*
X9169143Y-15584071D01*
X9169143Y-15498357D01*
X9183428Y-15469786D01*
X9197714Y-15455500D01*
X9226286Y-15441214D01*
X9269143Y-15441214D01*
X9297714Y-15455500D01*
X9312000Y-15469786D01*
X9326286Y-15498357D01*
X9326286Y-15584071D01*
X9312000Y-15612643D01*
X9297714Y-15626929D01*
X9269143Y-15641214D01*
X9226286Y-15641214D01*
X9497714Y-15641214D02*
X9469143Y-15626929D01*
X9454857Y-15598357D01*
X9454857Y-15341214D01*
X9726286Y-15626929D02*
X9697714Y-15641214D01*
X9640571Y-15641214D01*
X9612000Y-15626929D01*
X9597714Y-15598357D01*
X9597714Y-15484071D01*
X9612000Y-15455500D01*
X9640571Y-15441214D01*
X9697714Y-15441214D01*
X9726286Y-15455500D01*
X9740571Y-15484071D01*
X9740571Y-15512643D01*
X9597714Y-15541214D01*
X9854857Y-15626929D02*
X9883429Y-15641214D01*
X9940571Y-15641214D01*
X9969143Y-15626929D01*
X9983429Y-15598357D01*
X9983429Y-15584071D01*
X9969143Y-15555500D01*
X9940571Y-15541214D01*
X9897714Y-15541214D01*
X9869143Y-15526929D01*
X9854857Y-15498357D01*
X9854857Y-15484071D01*
X9869143Y-15455500D01*
X9897714Y-15441214D01*
X9940571Y-15441214D01*
X9969143Y-15455500D01*
X10340571Y-15526929D02*
X10569143Y-15526929D01*
X10454857Y-15641214D02*
X10454857Y-15412643D01*
X10926286Y-15369786D02*
X10940571Y-15355500D01*
X10969143Y-15341214D01*
X11040571Y-15341214D01*
X11069143Y-15355500D01*
X11083428Y-15369786D01*
X11097714Y-15398357D01*
X11097714Y-15426929D01*
X11083428Y-15469786D01*
X10912000Y-15641214D01*
X11097714Y-15641214D01*
X11440571Y-15626929D02*
X11469143Y-15641214D01*
X11526285Y-15641214D01*
X11554857Y-15626929D01*
X11569143Y-15598357D01*
X11569143Y-15584071D01*
X11554857Y-15555500D01*
X11526285Y-15541214D01*
X11483428Y-15541214D01*
X11454857Y-15526929D01*
X11440571Y-15498357D01*
X11440571Y-15484071D01*
X11454857Y-15455500D01*
X11483428Y-15441214D01*
X11526285Y-15441214D01*
X11554857Y-15455500D01*
X11740571Y-15641214D02*
X11712000Y-15626929D01*
X11697714Y-15598357D01*
X11697714Y-15341214D01*
X11897714Y-15641214D02*
X11869143Y-15626929D01*
X11854857Y-15612643D01*
X11840571Y-15584071D01*
X11840571Y-15498357D01*
X11854857Y-15469786D01*
X11869143Y-15455500D01*
X11897714Y-15441214D01*
X11940571Y-15441214D01*
X11969143Y-15455500D01*
X11983428Y-15469786D01*
X11997714Y-15498357D01*
X11997714Y-15584071D01*
X11983428Y-15612643D01*
X11969143Y-15626929D01*
X11940571Y-15641214D01*
X11897714Y-15641214D01*
X12083428Y-15441214D02*
X12197714Y-15441214D01*
X12126286Y-15341214D02*
X12126286Y-15598357D01*
X12140571Y-15626929D01*
X12169143Y-15641214D01*
X12197714Y-15641214D01*
X12283428Y-15626929D02*
X12312000Y-15641214D01*
X12369143Y-15641214D01*
X12397714Y-15626929D01*
X12412000Y-15598357D01*
X12412000Y-15584071D01*
X12397714Y-15555500D01*
X12369143Y-15541214D01*
X12326286Y-15541214D01*
X12297714Y-15526929D01*
X12283428Y-15498357D01*
X12283428Y-15484071D01*
X12297714Y-15455500D01*
X12326286Y-15441214D01*
X12369143Y-15441214D01*
X12397714Y-15455500D01*
X12512000Y-15755500D02*
X12526286Y-15741214D01*
X12554857Y-15698357D01*
X12569143Y-15669786D01*
X12583428Y-15626929D01*
X12597714Y-15555500D01*
X12597714Y-15498357D01*
X12583428Y-15426929D01*
X12569143Y-15384071D01*
X12554857Y-15355500D01*
X12526286Y-15312643D01*
X12512000Y-15298357D01*
X13054857Y-15755500D02*
X13040571Y-15741214D01*
X13012000Y-15698357D01*
X12997714Y-15669786D01*
X12983428Y-15626929D01*
X12969143Y-15555500D01*
X12969143Y-15498357D01*
X12983428Y-15426929D01*
X12997714Y-15384071D01*
X13012000Y-15355500D01*
X13040571Y-15312643D01*
X13054857Y-15298357D01*
X13169143Y-15441214D02*
X13169143Y-15641214D01*
X13169143Y-15469786D02*
X13183428Y-15455500D01*
X13212000Y-15441214D01*
X13254857Y-15441214D01*
X13283428Y-15455500D01*
X13297714Y-15484071D01*
X13297714Y-15641214D01*
X13483428Y-15641214D02*
X13454857Y-15626929D01*
X13440571Y-15612643D01*
X13426286Y-15584071D01*
X13426286Y-15498357D01*
X13440571Y-15469786D01*
X13454857Y-15455500D01*
X13483428Y-15441214D01*
X13526286Y-15441214D01*
X13554857Y-15455500D01*
X13569143Y-15469786D01*
X13583428Y-15498357D01*
X13583428Y-15584071D01*
X13569143Y-15612643D01*
X13554857Y-15626929D01*
X13526286Y-15641214D01*
X13483428Y-15641214D01*
X13669143Y-15441214D02*
X13783428Y-15441214D01*
X13712000Y-15341214D02*
X13712000Y-15598357D01*
X13726286Y-15626929D01*
X13754857Y-15641214D01*
X13783428Y-15641214D01*
X14112000Y-15441214D02*
X14112000Y-15741214D01*
X14112000Y-15455500D02*
X14140571Y-15441214D01*
X14197714Y-15441214D01*
X14226286Y-15455500D01*
X14240571Y-15469786D01*
X14254857Y-15498357D01*
X14254857Y-15584071D01*
X14240571Y-15612643D01*
X14226286Y-15626929D01*
X14197714Y-15641214D01*
X14140571Y-15641214D01*
X14112000Y-15626929D01*
X14426286Y-15641214D02*
X14397714Y-15626929D01*
X14383428Y-15598357D01*
X14383428Y-15341214D01*
X14669143Y-15641214D02*
X14669143Y-15484071D01*
X14654857Y-15455500D01*
X14626286Y-15441214D01*
X14569143Y-15441214D01*
X14540571Y-15455500D01*
X14669143Y-15626929D02*
X14640571Y-15641214D01*
X14569143Y-15641214D01*
X14540571Y-15626929D01*
X14526286Y-15598357D01*
X14526286Y-15569786D01*
X14540571Y-15541214D01*
X14569143Y-15526929D01*
X14640571Y-15526929D01*
X14669143Y-15512643D01*
X14769143Y-15441214D02*
X14883428Y-15441214D01*
X14812000Y-15341214D02*
X14812000Y-15598357D01*
X14826286Y-15626929D01*
X14854857Y-15641214D01*
X14883428Y-15641214D01*
X15097714Y-15626929D02*
X15069143Y-15641214D01*
X15012000Y-15641214D01*
X14983429Y-15626929D01*
X14969143Y-15598357D01*
X14969143Y-15484071D01*
X14983429Y-15455500D01*
X15012000Y-15441214D01*
X15069143Y-15441214D01*
X15097714Y-15455500D01*
X15112000Y-15484071D01*
X15112000Y-15512643D01*
X14969143Y-15541214D01*
X15369143Y-15641214D02*
X15369143Y-15341214D01*
X15369143Y-15626929D02*
X15340571Y-15641214D01*
X15283429Y-15641214D01*
X15254857Y-15626929D01*
X15240571Y-15612643D01*
X15226286Y-15584071D01*
X15226286Y-15498357D01*
X15240571Y-15469786D01*
X15254857Y-15455500D01*
X15283429Y-15441214D01*
X15340571Y-15441214D01*
X15369143Y-15455500D01*
X15483429Y-15755500D02*
X15497714Y-15741214D01*
X15526286Y-15698357D01*
X15540571Y-15669786D01*
X15554857Y-15626929D01*
X15569143Y-15555500D01*
X15569143Y-15498357D01*
X15554857Y-15426929D01*
X15540571Y-15384071D01*
X15526286Y-15355500D01*
X15497714Y-15312643D01*
X15483429Y-15298357D01*
X3442000Y-15816500D02*
X3612000Y-15986500D01*
X3612000Y-15816500D02*
X3442000Y-15986500D01*
X3612000Y-15901500D02*
G75*
G03X3612000Y-15901500I-85000J0D01*
G01*
X4040571Y-16037214D02*
X3869143Y-16037214D01*
X3954857Y-16037214D02*
X3954857Y-15737214D01*
X3926286Y-15780071D01*
X3897714Y-15808643D01*
X3869143Y-15822929D01*
X4169143Y-16008643D02*
X4183428Y-16022929D01*
X4169143Y-16037214D01*
X4154857Y-16022929D01*
X4169143Y-16008643D01*
X4169143Y-16037214D01*
X4283428Y-15737214D02*
X4483428Y-15737214D01*
X4354857Y-16037214D01*
X4654857Y-15737214D02*
X4683429Y-15737214D01*
X4712000Y-15751500D01*
X4726286Y-15765786D01*
X4740571Y-15794357D01*
X4754857Y-15851500D01*
X4754857Y-15922929D01*
X4740571Y-15980071D01*
X4726286Y-16008643D01*
X4712000Y-16022929D01*
X4683429Y-16037214D01*
X4654857Y-16037214D01*
X4626286Y-16022929D01*
X4612000Y-16008643D01*
X4597714Y-15980071D01*
X4583429Y-15922929D01*
X4583429Y-15851500D01*
X4597714Y-15794357D01*
X4612000Y-15765786D01*
X4626286Y-15751500D01*
X4654857Y-15737214D01*
X4883429Y-16037214D02*
X4883429Y-15837214D01*
X4883429Y-15865786D02*
X4897714Y-15851500D01*
X4926286Y-15837214D01*
X4969143Y-15837214D01*
X4997714Y-15851500D01*
X5012000Y-15880071D01*
X5012000Y-16037214D01*
X5012000Y-15880071D02*
X5026286Y-15851500D01*
X5054857Y-15837214D01*
X5097714Y-15837214D01*
X5126286Y-15851500D01*
X5140571Y-15880071D01*
X5140571Y-16037214D01*
X5283429Y-16037214D02*
X5283429Y-15837214D01*
X5283429Y-15865786D02*
X5297714Y-15851500D01*
X5326286Y-15837214D01*
X5369143Y-15837214D01*
X5397714Y-15851500D01*
X5412000Y-15880071D01*
X5412000Y-16037214D01*
X5412000Y-15880071D02*
X5426286Y-15851500D01*
X5454857Y-15837214D01*
X5497714Y-15837214D01*
X5526286Y-15851500D01*
X5540571Y-15880071D01*
X5540571Y-16037214D01*
X6126286Y-15722929D02*
X5869143Y-16108643D01*
X6512000Y-15737214D02*
X6540571Y-15737214D01*
X6569143Y-15751500D01*
X6583428Y-15765786D01*
X6597714Y-15794357D01*
X6612000Y-15851500D01*
X6612000Y-15922929D01*
X6597714Y-15980071D01*
X6583428Y-16008643D01*
X6569143Y-16022929D01*
X6540571Y-16037214D01*
X6512000Y-16037214D01*
X6483428Y-16022929D01*
X6469143Y-16008643D01*
X6454857Y-15980071D01*
X6440571Y-15922929D01*
X6440571Y-15851500D01*
X6454857Y-15794357D01*
X6469143Y-15765786D01*
X6483428Y-15751500D01*
X6512000Y-15737214D01*
X6740571Y-16008643D02*
X6754857Y-16022929D01*
X6740571Y-16037214D01*
X6726286Y-16022929D01*
X6740571Y-16008643D01*
X6740571Y-16037214D01*
X6940571Y-15737214D02*
X6969143Y-15737214D01*
X6997714Y-15751500D01*
X7012000Y-15765786D01*
X7026285Y-15794357D01*
X7040571Y-15851500D01*
X7040571Y-15922929D01*
X7026285Y-15980071D01*
X7012000Y-16008643D01*
X6997714Y-16022929D01*
X6969143Y-16037214D01*
X6940571Y-16037214D01*
X6912000Y-16022929D01*
X6897714Y-16008643D01*
X6883428Y-15980071D01*
X6869143Y-15922929D01*
X6869143Y-15851500D01*
X6883428Y-15794357D01*
X6897714Y-15765786D01*
X6912000Y-15751500D01*
X6940571Y-15737214D01*
X7297714Y-15737214D02*
X7240571Y-15737214D01*
X7212000Y-15751500D01*
X7197714Y-15765786D01*
X7169143Y-15808643D01*
X7154857Y-15865786D01*
X7154857Y-15980071D01*
X7169143Y-16008643D01*
X7183428Y-16022929D01*
X7212000Y-16037214D01*
X7269143Y-16037214D01*
X7297714Y-16022929D01*
X7312000Y-16008643D01*
X7326285Y-15980071D01*
X7326285Y-15908643D01*
X7312000Y-15880071D01*
X7297714Y-15865786D01*
X7269143Y-15851500D01*
X7212000Y-15851500D01*
X7183428Y-15865786D01*
X7169143Y-15880071D01*
X7154857Y-15908643D01*
X7426285Y-15737214D02*
X7626285Y-15737214D01*
X7497714Y-16037214D01*
X7726286Y-15737214D02*
X7726286Y-15794357D01*
X7840571Y-15737214D02*
X7840571Y-15794357D01*
X8283428Y-16151500D02*
X8269143Y-16137214D01*
X8240571Y-16094357D01*
X8226285Y-16065786D01*
X8212000Y-16022929D01*
X8197714Y-15951500D01*
X8197714Y-15894357D01*
X8212000Y-15822929D01*
X8226285Y-15780071D01*
X8240571Y-15751500D01*
X8269143Y-15708643D01*
X8283428Y-15694357D01*
X8369143Y-15737214D02*
X8554857Y-15737214D01*
X8454857Y-15851500D01*
X8497714Y-15851500D01*
X8526286Y-15865786D01*
X8540571Y-15880071D01*
X8554857Y-15908643D01*
X8554857Y-15980071D01*
X8540571Y-16008643D01*
X8526286Y-16022929D01*
X8497714Y-16037214D01*
X8412000Y-16037214D01*
X8383428Y-16022929D01*
X8369143Y-16008643D01*
X8812000Y-15837214D02*
X8812000Y-16037214D01*
X8740571Y-15722929D02*
X8669143Y-15937214D01*
X8854857Y-15937214D01*
X9197714Y-16037214D02*
X9197714Y-15737214D01*
X9326286Y-16037214D02*
X9326286Y-15880071D01*
X9312000Y-15851500D01*
X9283428Y-15837214D01*
X9240571Y-15837214D01*
X9212000Y-15851500D01*
X9197714Y-15865786D01*
X9512000Y-16037214D02*
X9483428Y-16022929D01*
X9469143Y-16008643D01*
X9454857Y-15980071D01*
X9454857Y-15894357D01*
X9469143Y-15865786D01*
X9483428Y-15851500D01*
X9512000Y-15837214D01*
X9554857Y-15837214D01*
X9583428Y-15851500D01*
X9597714Y-15865786D01*
X9612000Y-15894357D01*
X9612000Y-15980071D01*
X9597714Y-16008643D01*
X9583428Y-16022929D01*
X9554857Y-16037214D01*
X9512000Y-16037214D01*
X9783428Y-16037214D02*
X9754857Y-16022929D01*
X9740571Y-15994357D01*
X9740571Y-15737214D01*
X10012000Y-16022929D02*
X9983429Y-16037214D01*
X9926286Y-16037214D01*
X9897714Y-16022929D01*
X9883429Y-15994357D01*
X9883429Y-15880071D01*
X9897714Y-15851500D01*
X9926286Y-15837214D01*
X9983429Y-15837214D01*
X10012000Y-15851500D01*
X10026286Y-15880071D01*
X10026286Y-15908643D01*
X9883429Y-15937214D01*
X10140571Y-16022929D02*
X10169143Y-16037214D01*
X10226286Y-16037214D01*
X10254857Y-16022929D01*
X10269143Y-15994357D01*
X10269143Y-15980071D01*
X10254857Y-15951500D01*
X10226286Y-15937214D01*
X10183429Y-15937214D01*
X10154857Y-15922929D01*
X10140571Y-15894357D01*
X10140571Y-15880071D01*
X10154857Y-15851500D01*
X10183429Y-15837214D01*
X10226286Y-15837214D01*
X10254857Y-15851500D01*
X10369143Y-16151500D02*
X10383429Y-16137214D01*
X10412000Y-16094357D01*
X10426286Y-16065786D01*
X10440571Y-16022929D01*
X10454857Y-15951500D01*
X10454857Y-15894357D01*
X10440571Y-15822929D01*
X10426286Y-15780071D01*
X10412000Y-15751500D01*
X10383429Y-15708643D01*
X10369143Y-15694357D01*
X10912000Y-16151500D02*
X10897714Y-16137214D01*
X10869143Y-16094357D01*
X10854857Y-16065786D01*
X10840571Y-16022929D01*
X10826286Y-15951500D01*
X10826286Y-15894357D01*
X10840571Y-15822929D01*
X10854857Y-15780071D01*
X10869143Y-15751500D01*
X10897714Y-15708643D01*
X10912000Y-15694357D01*
X11026286Y-15837214D02*
X11026286Y-16037214D01*
X11026286Y-15865786D02*
X11040571Y-15851500D01*
X11069143Y-15837214D01*
X11112000Y-15837214D01*
X11140571Y-15851500D01*
X11154857Y-15880071D01*
X11154857Y-16037214D01*
X11340571Y-16037214D02*
X11312000Y-16022929D01*
X11297714Y-16008643D01*
X11283428Y-15980071D01*
X11283428Y-15894357D01*
X11297714Y-15865786D01*
X11312000Y-15851500D01*
X11340571Y-15837214D01*
X11383428Y-15837214D01*
X11412000Y-15851500D01*
X11426286Y-15865786D01*
X11440571Y-15894357D01*
X11440571Y-15980071D01*
X11426286Y-16008643D01*
X11412000Y-16022929D01*
X11383428Y-16037214D01*
X11340571Y-16037214D01*
X11526286Y-15837214D02*
X11640571Y-15837214D01*
X11569143Y-15737214D02*
X11569143Y-15994357D01*
X11583428Y-16022929D01*
X11612000Y-16037214D01*
X11640571Y-16037214D01*
X11969143Y-15837214D02*
X11969143Y-16137214D01*
X11969143Y-15851500D02*
X11997714Y-15837214D01*
X12054857Y-15837214D01*
X12083428Y-15851500D01*
X12097714Y-15865786D01*
X12112000Y-15894357D01*
X12112000Y-15980071D01*
X12097714Y-16008643D01*
X12083428Y-16022929D01*
X12054857Y-16037214D01*
X11997714Y-16037214D01*
X11969143Y-16022929D01*
X12283428Y-16037214D02*
X12254857Y-16022929D01*
X12240571Y-15994357D01*
X12240571Y-15737214D01*
X12526286Y-16037214D02*
X12526286Y-15880071D01*
X12512000Y-15851500D01*
X12483429Y-15837214D01*
X12426286Y-15837214D01*
X12397714Y-15851500D01*
X12526286Y-16022929D02*
X12497714Y-16037214D01*
X12426286Y-16037214D01*
X12397714Y-16022929D01*
X12383429Y-15994357D01*
X12383429Y-15965786D01*
X12397714Y-15937214D01*
X12426286Y-15922929D01*
X12497714Y-15922929D01*
X12526286Y-15908643D01*
X12626286Y-15837214D02*
X12740571Y-15837214D01*
X12669143Y-15737214D02*
X12669143Y-15994357D01*
X12683429Y-16022929D01*
X12712000Y-16037214D01*
X12740571Y-16037214D01*
X12954857Y-16022929D02*
X12926286Y-16037214D01*
X12869143Y-16037214D01*
X12840571Y-16022929D01*
X12826286Y-15994357D01*
X12826286Y-15880071D01*
X12840571Y-15851500D01*
X12869143Y-15837214D01*
X12926286Y-15837214D01*
X12954857Y-15851500D01*
X12969143Y-15880071D01*
X12969143Y-15908643D01*
X12826286Y-15937214D01*
X13226286Y-16037214D02*
X13226286Y-15737214D01*
X13226286Y-16022929D02*
X13197714Y-16037214D01*
X13140571Y-16037214D01*
X13112000Y-16022929D01*
X13097714Y-16008643D01*
X13083429Y-15980071D01*
X13083429Y-15894357D01*
X13097714Y-15865786D01*
X13112000Y-15851500D01*
X13140571Y-15837214D01*
X13197714Y-15837214D01*
X13226286Y-15851500D01*
X13340571Y-16151500D02*
X13354857Y-16137214D01*
X13383429Y-16094357D01*
X13397714Y-16065786D01*
X13412000Y-16022929D01*
X13426286Y-15951500D01*
X13426286Y-15894357D01*
X13412000Y-15822929D01*
X13397714Y-15780071D01*
X13383429Y-15751500D01*
X13354857Y-15708643D01*
X13340571Y-15694357D01*
X3360000Y-16171500D02*
X3612000Y-16423500D01*
X3612000Y-16171500D02*
X3360000Y-16423500D01*
X3486000Y-16171500D02*
X3486000Y-16423500D01*
X3360000Y-16297500D02*
X3612000Y-16297500D01*
X3869143Y-16161786D02*
X3883428Y-16147500D01*
X3912000Y-16133214D01*
X3983428Y-16133214D01*
X4012000Y-16147500D01*
X4026286Y-16161786D01*
X4040571Y-16190357D01*
X4040571Y-16218929D01*
X4026286Y-16261786D01*
X3854857Y-16433214D01*
X4040571Y-16433214D01*
X4169143Y-16404643D02*
X4183428Y-16418929D01*
X4169143Y-16433214D01*
X4154857Y-16418929D01*
X4169143Y-16404643D01*
X4169143Y-16433214D01*
X4454857Y-16133214D02*
X4312000Y-16133214D01*
X4297714Y-16276071D01*
X4312000Y-16261786D01*
X4340571Y-16247500D01*
X4412000Y-16247500D01*
X4440571Y-16261786D01*
X4454857Y-16276071D01*
X4469143Y-16304643D01*
X4469143Y-16376071D01*
X4454857Y-16404643D01*
X4440571Y-16418929D01*
X4412000Y-16433214D01*
X4340571Y-16433214D01*
X4312000Y-16418929D01*
X4297714Y-16404643D01*
X4583429Y-16161786D02*
X4597714Y-16147500D01*
X4626286Y-16133214D01*
X4697714Y-16133214D01*
X4726286Y-16147500D01*
X4740571Y-16161786D01*
X4754857Y-16190357D01*
X4754857Y-16218929D01*
X4740571Y-16261786D01*
X4569143Y-16433214D01*
X4754857Y-16433214D01*
X4883429Y-16433214D02*
X4883429Y-16233214D01*
X4883429Y-16261786D02*
X4897714Y-16247500D01*
X4926286Y-16233214D01*
X4969143Y-16233214D01*
X4997714Y-16247500D01*
X5012000Y-16276071D01*
X5012000Y-16433214D01*
X5012000Y-16276071D02*
X5026286Y-16247500D01*
X5054857Y-16233214D01*
X5097714Y-16233214D01*
X5126286Y-16247500D01*
X5140571Y-16276071D01*
X5140571Y-16433214D01*
X5283429Y-16433214D02*
X5283429Y-16233214D01*
X5283429Y-16261786D02*
X5297714Y-16247500D01*
X5326286Y-16233214D01*
X5369143Y-16233214D01*
X5397714Y-16247500D01*
X5412000Y-16276071D01*
X5412000Y-16433214D01*
X5412000Y-16276071D02*
X5426286Y-16247500D01*
X5454857Y-16233214D01*
X5497714Y-16233214D01*
X5526286Y-16247500D01*
X5540571Y-16276071D01*
X5540571Y-16433214D01*
X6126286Y-16118929D02*
X5869143Y-16504643D01*
X6512000Y-16133214D02*
X6540571Y-16133214D01*
X6569143Y-16147500D01*
X6583428Y-16161786D01*
X6597714Y-16190357D01*
X6612000Y-16247500D01*
X6612000Y-16318929D01*
X6597714Y-16376071D01*
X6583428Y-16404643D01*
X6569143Y-16418929D01*
X6540571Y-16433214D01*
X6512000Y-16433214D01*
X6483428Y-16418929D01*
X6469143Y-16404643D01*
X6454857Y-16376071D01*
X6440571Y-16318929D01*
X6440571Y-16247500D01*
X6454857Y-16190357D01*
X6469143Y-16161786D01*
X6483428Y-16147500D01*
X6512000Y-16133214D01*
X6740571Y-16404643D02*
X6754857Y-16418929D01*
X6740571Y-16433214D01*
X6726286Y-16418929D01*
X6740571Y-16404643D01*
X6740571Y-16433214D01*
X6940571Y-16133214D02*
X6969143Y-16133214D01*
X6997714Y-16147500D01*
X7012000Y-16161786D01*
X7026285Y-16190357D01*
X7040571Y-16247500D01*
X7040571Y-16318929D01*
X7026285Y-16376071D01*
X7012000Y-16404643D01*
X6997714Y-16418929D01*
X6969143Y-16433214D01*
X6940571Y-16433214D01*
X6912000Y-16418929D01*
X6897714Y-16404643D01*
X6883428Y-16376071D01*
X6869143Y-16318929D01*
X6869143Y-16247500D01*
X6883428Y-16190357D01*
X6897714Y-16161786D01*
X6912000Y-16147500D01*
X6940571Y-16133214D01*
X7183428Y-16433214D02*
X7240571Y-16433214D01*
X7269143Y-16418929D01*
X7283428Y-16404643D01*
X7312000Y-16361786D01*
X7326285Y-16304643D01*
X7326285Y-16190357D01*
X7312000Y-16161786D01*
X7297714Y-16147500D01*
X7269143Y-16133214D01*
X7212000Y-16133214D01*
X7183428Y-16147500D01*
X7169143Y-16161786D01*
X7154857Y-16190357D01*
X7154857Y-16261786D01*
X7169143Y-16290357D01*
X7183428Y-16304643D01*
X7212000Y-16318929D01*
X7269143Y-16318929D01*
X7297714Y-16304643D01*
X7312000Y-16290357D01*
X7326285Y-16261786D01*
X7469143Y-16433214D02*
X7526285Y-16433214D01*
X7554857Y-16418929D01*
X7569143Y-16404643D01*
X7597714Y-16361786D01*
X7612000Y-16304643D01*
X7612000Y-16190357D01*
X7597714Y-16161786D01*
X7583428Y-16147500D01*
X7554857Y-16133214D01*
X7497714Y-16133214D01*
X7469143Y-16147500D01*
X7454857Y-16161786D01*
X7440571Y-16190357D01*
X7440571Y-16261786D01*
X7454857Y-16290357D01*
X7469143Y-16304643D01*
X7497714Y-16318929D01*
X7554857Y-16318929D01*
X7583428Y-16304643D01*
X7597714Y-16290357D01*
X7612000Y-16261786D01*
X7726286Y-16133214D02*
X7726286Y-16190357D01*
X7840571Y-16133214D02*
X7840571Y-16190357D01*
X8283428Y-16547500D02*
X8269143Y-16533214D01*
X8240571Y-16490357D01*
X8226285Y-16461786D01*
X8212000Y-16418929D01*
X8197714Y-16347500D01*
X8197714Y-16290357D01*
X8212000Y-16218929D01*
X8226285Y-16176071D01*
X8240571Y-16147500D01*
X8269143Y-16104643D01*
X8283428Y-16090357D01*
X8383428Y-16161786D02*
X8397714Y-16147500D01*
X8426286Y-16133214D01*
X8497714Y-16133214D01*
X8526286Y-16147500D01*
X8540571Y-16161786D01*
X8554857Y-16190357D01*
X8554857Y-16218929D01*
X8540571Y-16261786D01*
X8369143Y-16433214D01*
X8554857Y-16433214D01*
X8912000Y-16433214D02*
X8912000Y-16133214D01*
X9040571Y-16433214D02*
X9040571Y-16276071D01*
X9026286Y-16247500D01*
X8997714Y-16233214D01*
X8954857Y-16233214D01*
X8926286Y-16247500D01*
X8912000Y-16261786D01*
X9226286Y-16433214D02*
X9197714Y-16418929D01*
X9183428Y-16404643D01*
X9169143Y-16376071D01*
X9169143Y-16290357D01*
X9183428Y-16261786D01*
X9197714Y-16247500D01*
X9226286Y-16233214D01*
X9269143Y-16233214D01*
X9297714Y-16247500D01*
X9312000Y-16261786D01*
X9326286Y-16290357D01*
X9326286Y-16376071D01*
X9312000Y-16404643D01*
X9297714Y-16418929D01*
X9269143Y-16433214D01*
X9226286Y-16433214D01*
X9497714Y-16433214D02*
X9469143Y-16418929D01*
X9454857Y-16390357D01*
X9454857Y-16133214D01*
X9726286Y-16418929D02*
X9697714Y-16433214D01*
X9640571Y-16433214D01*
X9612000Y-16418929D01*
X9597714Y-16390357D01*
X9597714Y-16276071D01*
X9612000Y-16247500D01*
X9640571Y-16233214D01*
X9697714Y-16233214D01*
X9726286Y-16247500D01*
X9740571Y-16276071D01*
X9740571Y-16304643D01*
X9597714Y-16333214D01*
X9854857Y-16418929D02*
X9883429Y-16433214D01*
X9940571Y-16433214D01*
X9969143Y-16418929D01*
X9983429Y-16390357D01*
X9983429Y-16376071D01*
X9969143Y-16347500D01*
X9940571Y-16333214D01*
X9897714Y-16333214D01*
X9869143Y-16318929D01*
X9854857Y-16290357D01*
X9854857Y-16276071D01*
X9869143Y-16247500D01*
X9897714Y-16233214D01*
X9940571Y-16233214D01*
X9969143Y-16247500D01*
X10083428Y-16547500D02*
X10097714Y-16533214D01*
X10126286Y-16490357D01*
X10140571Y-16461786D01*
X10154857Y-16418929D01*
X10169143Y-16347500D01*
X10169143Y-16290357D01*
X10154857Y-16218929D01*
X10140571Y-16176071D01*
X10126286Y-16147500D01*
X10097714Y-16104643D01*
X10083428Y-16090357D01*
X10626286Y-16547500D02*
X10612000Y-16533214D01*
X10583428Y-16490357D01*
X10569143Y-16461786D01*
X10554857Y-16418929D01*
X10540571Y-16347500D01*
X10540571Y-16290357D01*
X10554857Y-16218929D01*
X10569143Y-16176071D01*
X10583428Y-16147500D01*
X10612000Y-16104643D01*
X10626286Y-16090357D01*
X10740571Y-16233214D02*
X10740571Y-16433214D01*
X10740571Y-16261786D02*
X10754857Y-16247500D01*
X10783428Y-16233214D01*
X10826286Y-16233214D01*
X10854857Y-16247500D01*
X10869143Y-16276071D01*
X10869143Y-16433214D01*
X11054857Y-16433214D02*
X11026286Y-16418929D01*
X11012000Y-16404643D01*
X10997714Y-16376071D01*
X10997714Y-16290357D01*
X11012000Y-16261786D01*
X11026286Y-16247500D01*
X11054857Y-16233214D01*
X11097714Y-16233214D01*
X11126286Y-16247500D01*
X11140571Y-16261786D01*
X11154857Y-16290357D01*
X11154857Y-16376071D01*
X11140571Y-16404643D01*
X11126286Y-16418929D01*
X11097714Y-16433214D01*
X11054857Y-16433214D01*
X11240571Y-16233214D02*
X11354857Y-16233214D01*
X11283428Y-16133214D02*
X11283428Y-16390357D01*
X11297714Y-16418929D01*
X11326286Y-16433214D01*
X11354857Y-16433214D01*
X11683428Y-16233214D02*
X11683428Y-16533214D01*
X11683428Y-16247500D02*
X11712000Y-16233214D01*
X11769143Y-16233214D01*
X11797714Y-16247500D01*
X11812000Y-16261786D01*
X11826286Y-16290357D01*
X11826286Y-16376071D01*
X11812000Y-16404643D01*
X11797714Y-16418929D01*
X11769143Y-16433214D01*
X11712000Y-16433214D01*
X11683428Y-16418929D01*
X11997714Y-16433214D02*
X11969143Y-16418929D01*
X11954857Y-16390357D01*
X11954857Y-16133214D01*
X12240571Y-16433214D02*
X12240571Y-16276071D01*
X12226286Y-16247500D01*
X12197714Y-16233214D01*
X12140571Y-16233214D01*
X12112000Y-16247500D01*
X12240571Y-16418929D02*
X12212000Y-16433214D01*
X12140571Y-16433214D01*
X12112000Y-16418929D01*
X12097714Y-16390357D01*
X12097714Y-16361786D01*
X12112000Y-16333214D01*
X12140571Y-16318929D01*
X12212000Y-16318929D01*
X12240571Y-16304643D01*
X12340571Y-16233214D02*
X12454857Y-16233214D01*
X12383429Y-16133214D02*
X12383429Y-16390357D01*
X12397714Y-16418929D01*
X12426286Y-16433214D01*
X12454857Y-16433214D01*
X12669143Y-16418929D02*
X12640571Y-16433214D01*
X12583429Y-16433214D01*
X12554857Y-16418929D01*
X12540571Y-16390357D01*
X12540571Y-16276071D01*
X12554857Y-16247500D01*
X12583429Y-16233214D01*
X12640571Y-16233214D01*
X12669143Y-16247500D01*
X12683429Y-16276071D01*
X12683429Y-16304643D01*
X12540571Y-16333214D01*
X12940571Y-16433214D02*
X12940571Y-16133214D01*
X12940571Y-16418929D02*
X12912000Y-16433214D01*
X12854857Y-16433214D01*
X12826286Y-16418929D01*
X12812000Y-16404643D01*
X12797714Y-16376071D01*
X12797714Y-16290357D01*
X12812000Y-16261786D01*
X12826286Y-16247500D01*
X12854857Y-16233214D01*
X12912000Y-16233214D01*
X12940571Y-16247500D01*
X13054857Y-16547500D02*
X13069143Y-16533214D01*
X13097714Y-16490357D01*
X13112000Y-16461786D01*
X13126286Y-16418929D01*
X13140571Y-16347500D01*
X13140571Y-16290357D01*
X13126286Y-16218929D01*
X13112000Y-16176071D01*
X13097714Y-16147500D01*
X13069143Y-16104643D01*
X13054857Y-16090357D01*
X3312000Y-16543500D02*
X3612000Y-16843500D01*
X3612000Y-16543500D02*
X3312000Y-16843500D01*
X3568067Y-16799567D02*
X3568067Y-16587433D01*
X3355933Y-16587433D01*
X3355933Y-16799567D01*
X3568067Y-16799567D01*
X3854857Y-16529214D02*
X4040571Y-16529214D01*
X3940571Y-16643500D01*
X3983428Y-16643500D01*
X4012000Y-16657786D01*
X4026286Y-16672071D01*
X4040571Y-16700643D01*
X4040571Y-16772071D01*
X4026286Y-16800643D01*
X4012000Y-16814929D01*
X3983428Y-16829214D01*
X3897714Y-16829214D01*
X3869143Y-16814929D01*
X3854857Y-16800643D01*
X4169143Y-16800643D02*
X4183428Y-16814929D01*
X4169143Y-16829214D01*
X4154857Y-16814929D01*
X4169143Y-16800643D01*
X4169143Y-16829214D01*
X4369143Y-16529214D02*
X4397714Y-16529214D01*
X4426286Y-16543500D01*
X4440571Y-16557786D01*
X4454857Y-16586357D01*
X4469143Y-16643500D01*
X4469143Y-16714929D01*
X4454857Y-16772071D01*
X4440571Y-16800643D01*
X4426286Y-16814929D01*
X4397714Y-16829214D01*
X4369143Y-16829214D01*
X4340571Y-16814929D01*
X4326286Y-16800643D01*
X4312000Y-16772071D01*
X4297714Y-16714929D01*
X4297714Y-16643500D01*
X4312000Y-16586357D01*
X4326286Y-16557786D01*
X4340571Y-16543500D01*
X4369143Y-16529214D01*
X4654857Y-16529214D02*
X4683429Y-16529214D01*
X4712000Y-16543500D01*
X4726286Y-16557786D01*
X4740571Y-16586357D01*
X4754857Y-16643500D01*
X4754857Y-16714929D01*
X4740571Y-16772071D01*
X4726286Y-16800643D01*
X4712000Y-16814929D01*
X4683429Y-16829214D01*
X4654857Y-16829214D01*
X4626286Y-16814929D01*
X4612000Y-16800643D01*
X4597714Y-16772071D01*
X4583429Y-16714929D01*
X4583429Y-16643500D01*
X4597714Y-16586357D01*
X4612000Y-16557786D01*
X4626286Y-16543500D01*
X4654857Y-16529214D01*
X4883429Y-16829214D02*
X4883429Y-16629214D01*
X4883429Y-16657786D02*
X4897714Y-16643500D01*
X4926286Y-16629214D01*
X4969143Y-16629214D01*
X4997714Y-16643500D01*
X5012000Y-16672071D01*
X5012000Y-16829214D01*
X5012000Y-16672071D02*
X5026286Y-16643500D01*
X5054857Y-16629214D01*
X5097714Y-16629214D01*
X5126286Y-16643500D01*
X5140571Y-16672071D01*
X5140571Y-16829214D01*
X5283429Y-16829214D02*
X5283429Y-16629214D01*
X5283429Y-16657786D02*
X5297714Y-16643500D01*
X5326286Y-16629214D01*
X5369143Y-16629214D01*
X5397714Y-16643500D01*
X5412000Y-16672071D01*
X5412000Y-16829214D01*
X5412000Y-16672071D02*
X5426286Y-16643500D01*
X5454857Y-16629214D01*
X5497714Y-16629214D01*
X5526286Y-16643500D01*
X5540571Y-16672071D01*
X5540571Y-16829214D01*
X6126286Y-16514929D02*
X5869143Y-16900643D01*
X6512000Y-16529214D02*
X6540571Y-16529214D01*
X6569143Y-16543500D01*
X6583428Y-16557786D01*
X6597714Y-16586357D01*
X6612000Y-16643500D01*
X6612000Y-16714929D01*
X6597714Y-16772071D01*
X6583428Y-16800643D01*
X6569143Y-16814929D01*
X6540571Y-16829214D01*
X6512000Y-16829214D01*
X6483428Y-16814929D01*
X6469143Y-16800643D01*
X6454857Y-16772071D01*
X6440571Y-16714929D01*
X6440571Y-16643500D01*
X6454857Y-16586357D01*
X6469143Y-16557786D01*
X6483428Y-16543500D01*
X6512000Y-16529214D01*
X6740571Y-16800643D02*
X6754857Y-16814929D01*
X6740571Y-16829214D01*
X6726286Y-16814929D01*
X6740571Y-16800643D01*
X6740571Y-16829214D01*
X7040571Y-16829214D02*
X6869143Y-16829214D01*
X6954857Y-16829214D02*
X6954857Y-16529214D01*
X6926285Y-16572071D01*
X6897714Y-16600643D01*
X6869143Y-16614929D01*
X7326285Y-16829214D02*
X7154857Y-16829214D01*
X7240571Y-16829214D02*
X7240571Y-16529214D01*
X7212000Y-16572071D01*
X7183428Y-16600643D01*
X7154857Y-16614929D01*
X7497714Y-16657786D02*
X7469143Y-16643500D01*
X7454857Y-16629214D01*
X7440571Y-16600643D01*
X7440571Y-16586357D01*
X7454857Y-16557786D01*
X7469143Y-16543500D01*
X7497714Y-16529214D01*
X7554857Y-16529214D01*
X7583428Y-16543500D01*
X7597714Y-16557786D01*
X7612000Y-16586357D01*
X7612000Y-16600643D01*
X7597714Y-16629214D01*
X7583428Y-16643500D01*
X7554857Y-16657786D01*
X7497714Y-16657786D01*
X7469143Y-16672071D01*
X7454857Y-16686357D01*
X7440571Y-16714929D01*
X7440571Y-16772071D01*
X7454857Y-16800643D01*
X7469143Y-16814929D01*
X7497714Y-16829214D01*
X7554857Y-16829214D01*
X7583428Y-16814929D01*
X7597714Y-16800643D01*
X7612000Y-16772071D01*
X7612000Y-16714929D01*
X7597714Y-16686357D01*
X7583428Y-16672071D01*
X7554857Y-16657786D01*
X7726286Y-16529214D02*
X7726286Y-16586357D01*
X7840571Y-16529214D02*
X7840571Y-16586357D01*
X8283428Y-16943500D02*
X8269143Y-16929214D01*
X8240571Y-16886357D01*
X8226285Y-16857786D01*
X8212000Y-16814929D01*
X8197714Y-16743500D01*
X8197714Y-16686357D01*
X8212000Y-16614929D01*
X8226285Y-16572071D01*
X8240571Y-16543500D01*
X8269143Y-16500643D01*
X8283428Y-16486357D01*
X8369143Y-16529214D02*
X8554857Y-16529214D01*
X8454857Y-16643500D01*
X8497714Y-16643500D01*
X8526286Y-16657786D01*
X8540571Y-16672071D01*
X8554857Y-16700643D01*
X8554857Y-16772071D01*
X8540571Y-16800643D01*
X8526286Y-16814929D01*
X8497714Y-16829214D01*
X8412000Y-16829214D01*
X8383428Y-16814929D01*
X8369143Y-16800643D01*
X8812000Y-16629214D02*
X8812000Y-16829214D01*
X8740571Y-16514929D02*
X8669143Y-16729214D01*
X8854857Y-16729214D01*
X9197714Y-16829214D02*
X9197714Y-16529214D01*
X9326286Y-16829214D02*
X9326286Y-16672071D01*
X9312000Y-16643500D01*
X9283428Y-16629214D01*
X9240571Y-16629214D01*
X9212000Y-16643500D01*
X9197714Y-16657786D01*
X9512000Y-16829214D02*
X9483428Y-16814929D01*
X9469143Y-16800643D01*
X9454857Y-16772071D01*
X9454857Y-16686357D01*
X9469143Y-16657786D01*
X9483428Y-16643500D01*
X9512000Y-16629214D01*
X9554857Y-16629214D01*
X9583428Y-16643500D01*
X9597714Y-16657786D01*
X9612000Y-16686357D01*
X9612000Y-16772071D01*
X9597714Y-16800643D01*
X9583428Y-16814929D01*
X9554857Y-16829214D01*
X9512000Y-16829214D01*
X9783428Y-16829214D02*
X9754857Y-16814929D01*
X9740571Y-16786357D01*
X9740571Y-16529214D01*
X10012000Y-16814929D02*
X9983429Y-16829214D01*
X9926286Y-16829214D01*
X9897714Y-16814929D01*
X9883429Y-16786357D01*
X9883429Y-16672071D01*
X9897714Y-16643500D01*
X9926286Y-16629214D01*
X9983429Y-16629214D01*
X10012000Y-16643500D01*
X10026286Y-16672071D01*
X10026286Y-16700643D01*
X9883429Y-16729214D01*
X10140571Y-16814929D02*
X10169143Y-16829214D01*
X10226286Y-16829214D01*
X10254857Y-16814929D01*
X10269143Y-16786357D01*
X10269143Y-16772071D01*
X10254857Y-16743500D01*
X10226286Y-16729214D01*
X10183429Y-16729214D01*
X10154857Y-16714929D01*
X10140571Y-16686357D01*
X10140571Y-16672071D01*
X10154857Y-16643500D01*
X10183429Y-16629214D01*
X10226286Y-16629214D01*
X10254857Y-16643500D01*
X10369143Y-16943500D02*
X10383429Y-16929214D01*
X10412000Y-16886357D01*
X10426286Y-16857786D01*
X10440571Y-16814929D01*
X10454857Y-16743500D01*
X10454857Y-16686357D01*
X10440571Y-16614929D01*
X10426286Y-16572071D01*
X10412000Y-16543500D01*
X10383429Y-16500643D01*
X10369143Y-16486357D01*
X10912000Y-16943500D02*
X10897714Y-16929214D01*
X10869143Y-16886357D01*
X10854857Y-16857786D01*
X10840571Y-16814929D01*
X10826286Y-16743500D01*
X10826286Y-16686357D01*
X10840571Y-16614929D01*
X10854857Y-16572071D01*
X10869143Y-16543500D01*
X10897714Y-16500643D01*
X10912000Y-16486357D01*
X11026286Y-16629214D02*
X11026286Y-16829214D01*
X11026286Y-16657786D02*
X11040571Y-16643500D01*
X11069143Y-16629214D01*
X11112000Y-16629214D01*
X11140571Y-16643500D01*
X11154857Y-16672071D01*
X11154857Y-16829214D01*
X11340571Y-16829214D02*
X11312000Y-16814929D01*
X11297714Y-16800643D01*
X11283428Y-16772071D01*
X11283428Y-16686357D01*
X11297714Y-16657786D01*
X11312000Y-16643500D01*
X11340571Y-16629214D01*
X11383428Y-16629214D01*
X11412000Y-16643500D01*
X11426286Y-16657786D01*
X11440571Y-16686357D01*
X11440571Y-16772071D01*
X11426286Y-16800643D01*
X11412000Y-16814929D01*
X11383428Y-16829214D01*
X11340571Y-16829214D01*
X11526286Y-16629214D02*
X11640571Y-16629214D01*
X11569143Y-16529214D02*
X11569143Y-16786357D01*
X11583428Y-16814929D01*
X11612000Y-16829214D01*
X11640571Y-16829214D01*
X11969143Y-16629214D02*
X11969143Y-16929214D01*
X11969143Y-16643500D02*
X11997714Y-16629214D01*
X12054857Y-16629214D01*
X12083428Y-16643500D01*
X12097714Y-16657786D01*
X12112000Y-16686357D01*
X12112000Y-16772071D01*
X12097714Y-16800643D01*
X12083428Y-16814929D01*
X12054857Y-16829214D01*
X11997714Y-16829214D01*
X11969143Y-16814929D01*
X12283428Y-16829214D02*
X12254857Y-16814929D01*
X12240571Y-16786357D01*
X12240571Y-16529214D01*
X12526286Y-16829214D02*
X12526286Y-16672071D01*
X12512000Y-16643500D01*
X12483429Y-16629214D01*
X12426286Y-16629214D01*
X12397714Y-16643500D01*
X12526286Y-16814929D02*
X12497714Y-16829214D01*
X12426286Y-16829214D01*
X12397714Y-16814929D01*
X12383429Y-16786357D01*
X12383429Y-16757786D01*
X12397714Y-16729214D01*
X12426286Y-16714929D01*
X12497714Y-16714929D01*
X12526286Y-16700643D01*
X12626286Y-16629214D02*
X12740571Y-16629214D01*
X12669143Y-16529214D02*
X12669143Y-16786357D01*
X12683429Y-16814929D01*
X12712000Y-16829214D01*
X12740571Y-16829214D01*
X12954857Y-16814929D02*
X12926286Y-16829214D01*
X12869143Y-16829214D01*
X12840571Y-16814929D01*
X12826286Y-16786357D01*
X12826286Y-16672071D01*
X12840571Y-16643500D01*
X12869143Y-16629214D01*
X12926286Y-16629214D01*
X12954857Y-16643500D01*
X12969143Y-16672071D01*
X12969143Y-16700643D01*
X12826286Y-16729214D01*
X13226286Y-16829214D02*
X13226286Y-16529214D01*
X13226286Y-16814929D02*
X13197714Y-16829214D01*
X13140571Y-16829214D01*
X13112000Y-16814929D01*
X13097714Y-16800643D01*
X13083429Y-16772071D01*
X13083429Y-16686357D01*
X13097714Y-16657786D01*
X13112000Y-16643500D01*
X13140571Y-16629214D01*
X13197714Y-16629214D01*
X13226286Y-16643500D01*
X13340571Y-16943500D02*
X13354857Y-16929214D01*
X13383429Y-16886357D01*
X13397714Y-16857786D01*
X13412000Y-16814929D01*
X13426286Y-16743500D01*
X13426286Y-16686357D01*
X13412000Y-16614929D01*
X13397714Y-16572071D01*
X13383429Y-16543500D01*
X13354857Y-16500643D01*
X13340571Y-16486357D01*
X3307200Y-16971100D02*
X3612000Y-17275900D01*
X3612000Y-16971100D02*
X3307200Y-17275900D01*
X3459600Y-17275900D02*
X3612000Y-17123500D01*
X3459600Y-16971100D01*
X3307200Y-17123500D01*
X3459600Y-17275900D01*
X3854857Y-16959214D02*
X4040571Y-16959214D01*
X3940571Y-17073500D01*
X3983428Y-17073500D01*
X4012000Y-17087786D01*
X4026286Y-17102072D01*
X4040571Y-17130643D01*
X4040571Y-17202072D01*
X4026286Y-17230643D01*
X4012000Y-17244929D01*
X3983428Y-17259214D01*
X3897714Y-17259214D01*
X3869143Y-17244929D01*
X3854857Y-17230643D01*
X4169143Y-17230643D02*
X4183428Y-17244929D01*
X4169143Y-17259214D01*
X4154857Y-17244929D01*
X4169143Y-17230643D01*
X4169143Y-17259214D01*
X4369143Y-16959214D02*
X4397714Y-16959214D01*
X4426286Y-16973500D01*
X4440571Y-16987786D01*
X4454857Y-17016357D01*
X4469143Y-17073500D01*
X4469143Y-17144929D01*
X4454857Y-17202072D01*
X4440571Y-17230643D01*
X4426286Y-17244929D01*
X4397714Y-17259214D01*
X4369143Y-17259214D01*
X4340571Y-17244929D01*
X4326286Y-17230643D01*
X4312000Y-17202072D01*
X4297714Y-17144929D01*
X4297714Y-17073500D01*
X4312000Y-17016357D01*
X4326286Y-16987786D01*
X4340571Y-16973500D01*
X4369143Y-16959214D01*
X4740571Y-16959214D02*
X4597714Y-16959214D01*
X4583429Y-17102072D01*
X4597714Y-17087786D01*
X4626286Y-17073500D01*
X4697714Y-17073500D01*
X4726286Y-17087786D01*
X4740571Y-17102072D01*
X4754857Y-17130643D01*
X4754857Y-17202072D01*
X4740571Y-17230643D01*
X4726286Y-17244929D01*
X4697714Y-17259214D01*
X4626286Y-17259214D01*
X4597714Y-17244929D01*
X4583429Y-17230643D01*
X4883429Y-17259214D02*
X4883429Y-17059214D01*
X4883429Y-17087786D02*
X4897714Y-17073500D01*
X4926286Y-17059214D01*
X4969143Y-17059214D01*
X4997714Y-17073500D01*
X5012000Y-17102072D01*
X5012000Y-17259214D01*
X5012000Y-17102072D02*
X5026286Y-17073500D01*
X5054857Y-17059214D01*
X5097714Y-17059214D01*
X5126286Y-17073500D01*
X5140571Y-17102072D01*
X5140571Y-17259214D01*
X5283429Y-17259214D02*
X5283429Y-17059214D01*
X5283429Y-17087786D02*
X5297714Y-17073500D01*
X5326286Y-17059214D01*
X5369143Y-17059214D01*
X5397714Y-17073500D01*
X5412000Y-17102072D01*
X5412000Y-17259214D01*
X5412000Y-17102072D02*
X5426286Y-17073500D01*
X5454857Y-17059214D01*
X5497714Y-17059214D01*
X5526286Y-17073500D01*
X5540571Y-17102072D01*
X5540571Y-17259214D01*
X6126286Y-16944929D02*
X5869143Y-17330643D01*
X6512000Y-16959214D02*
X6540571Y-16959214D01*
X6569143Y-16973500D01*
X6583428Y-16987786D01*
X6597714Y-17016357D01*
X6612000Y-17073500D01*
X6612000Y-17144929D01*
X6597714Y-17202072D01*
X6583428Y-17230643D01*
X6569143Y-17244929D01*
X6540571Y-17259214D01*
X6512000Y-17259214D01*
X6483428Y-17244929D01*
X6469143Y-17230643D01*
X6454857Y-17202072D01*
X6440571Y-17144929D01*
X6440571Y-17073500D01*
X6454857Y-17016357D01*
X6469143Y-16987786D01*
X6483428Y-16973500D01*
X6512000Y-16959214D01*
X6740571Y-17230643D02*
X6754857Y-17244929D01*
X6740571Y-17259214D01*
X6726286Y-17244929D01*
X6740571Y-17230643D01*
X6740571Y-17259214D01*
X7040571Y-17259214D02*
X6869143Y-17259214D01*
X6954857Y-17259214D02*
X6954857Y-16959214D01*
X6926285Y-17002072D01*
X6897714Y-17030643D01*
X6869143Y-17044929D01*
X7154857Y-16987786D02*
X7169143Y-16973500D01*
X7197714Y-16959214D01*
X7269143Y-16959214D01*
X7297714Y-16973500D01*
X7312000Y-16987786D01*
X7326285Y-17016357D01*
X7326285Y-17044929D01*
X7312000Y-17087786D01*
X7140571Y-17259214D01*
X7326285Y-17259214D01*
X7512000Y-16959214D02*
X7540571Y-16959214D01*
X7569143Y-16973500D01*
X7583428Y-16987786D01*
X7597714Y-17016357D01*
X7612000Y-17073500D01*
X7612000Y-17144929D01*
X7597714Y-17202072D01*
X7583428Y-17230643D01*
X7569143Y-17244929D01*
X7540571Y-17259214D01*
X7512000Y-17259214D01*
X7483428Y-17244929D01*
X7469143Y-17230643D01*
X7454857Y-17202072D01*
X7440571Y-17144929D01*
X7440571Y-17073500D01*
X7454857Y-17016357D01*
X7469143Y-16987786D01*
X7483428Y-16973500D01*
X7512000Y-16959214D01*
X7726286Y-16959214D02*
X7726286Y-17016357D01*
X7840571Y-16959214D02*
X7840571Y-17016357D01*
X8283428Y-17373500D02*
X8269143Y-17359214D01*
X8240571Y-17316357D01*
X8226285Y-17287786D01*
X8212000Y-17244929D01*
X8197714Y-17173500D01*
X8197714Y-17116357D01*
X8212000Y-17044929D01*
X8226285Y-17002072D01*
X8240571Y-16973500D01*
X8269143Y-16930643D01*
X8283428Y-16916357D01*
X8526286Y-16959214D02*
X8469143Y-16959214D01*
X8440571Y-16973500D01*
X8426286Y-16987786D01*
X8397714Y-17030643D01*
X8383428Y-17087786D01*
X8383428Y-17202072D01*
X8397714Y-17230643D01*
X8412000Y-17244929D01*
X8440571Y-17259214D01*
X8497714Y-17259214D01*
X8526286Y-17244929D01*
X8540571Y-17230643D01*
X8554857Y-17202072D01*
X8554857Y-17130643D01*
X8540571Y-17102072D01*
X8526286Y-17087786D01*
X8497714Y-17073500D01*
X8440571Y-17073500D01*
X8412000Y-17087786D01*
X8397714Y-17102072D01*
X8383428Y-17130643D01*
X8912000Y-17259214D02*
X8912000Y-16959214D01*
X9040571Y-17259214D02*
X9040571Y-17102072D01*
X9026286Y-17073500D01*
X8997714Y-17059214D01*
X8954857Y-17059214D01*
X8926286Y-17073500D01*
X8912000Y-17087786D01*
X9226286Y-17259214D02*
X9197714Y-17244929D01*
X9183428Y-17230643D01*
X9169143Y-17202072D01*
X9169143Y-17116357D01*
X9183428Y-17087786D01*
X9197714Y-17073500D01*
X9226286Y-17059214D01*
X9269143Y-17059214D01*
X9297714Y-17073500D01*
X9312000Y-17087786D01*
X9326286Y-17116357D01*
X9326286Y-17202072D01*
X9312000Y-17230643D01*
X9297714Y-17244929D01*
X9269143Y-17259214D01*
X9226286Y-17259214D01*
X9497714Y-17259214D02*
X9469143Y-17244929D01*
X9454857Y-17216357D01*
X9454857Y-16959214D01*
X9726286Y-17244929D02*
X9697714Y-17259214D01*
X9640571Y-17259214D01*
X9612000Y-17244929D01*
X9597714Y-17216357D01*
X9597714Y-17102072D01*
X9612000Y-17073500D01*
X9640571Y-17059214D01*
X9697714Y-17059214D01*
X9726286Y-17073500D01*
X9740571Y-17102072D01*
X9740571Y-17130643D01*
X9597714Y-17159214D01*
X9854857Y-17244929D02*
X9883429Y-17259214D01*
X9940571Y-17259214D01*
X9969143Y-17244929D01*
X9983429Y-17216357D01*
X9983429Y-17202072D01*
X9969143Y-17173500D01*
X9940571Y-17159214D01*
X9897714Y-17159214D01*
X9869143Y-17144929D01*
X9854857Y-17116357D01*
X9854857Y-17102072D01*
X9869143Y-17073500D01*
X9897714Y-17059214D01*
X9940571Y-17059214D01*
X9969143Y-17073500D01*
X10083428Y-17373500D02*
X10097714Y-17359214D01*
X10126286Y-17316357D01*
X10140571Y-17287786D01*
X10154857Y-17244929D01*
X10169143Y-17173500D01*
X10169143Y-17116357D01*
X10154857Y-17044929D01*
X10140571Y-17002072D01*
X10126286Y-16973500D01*
X10097714Y-16930643D01*
X10083428Y-16916357D01*
X10626286Y-17373500D02*
X10612000Y-17359214D01*
X10583428Y-17316357D01*
X10569143Y-17287786D01*
X10554857Y-17244929D01*
X10540571Y-17173500D01*
X10540571Y-17116357D01*
X10554857Y-17044929D01*
X10569143Y-17002072D01*
X10583428Y-16973500D01*
X10612000Y-16930643D01*
X10626286Y-16916357D01*
X10740571Y-17059214D02*
X10740571Y-17259214D01*
X10740571Y-17087786D02*
X10754857Y-17073500D01*
X10783428Y-17059214D01*
X10826286Y-17059214D01*
X10854857Y-17073500D01*
X10869143Y-17102072D01*
X10869143Y-17259214D01*
X11054857Y-17259214D02*
X11026286Y-17244929D01*
X11012000Y-17230643D01*
X10997714Y-17202072D01*
X10997714Y-17116357D01*
X11012000Y-17087786D01*
X11026286Y-17073500D01*
X11054857Y-17059214D01*
X11097714Y-17059214D01*
X11126286Y-17073500D01*
X11140571Y-17087786D01*
X11154857Y-17116357D01*
X11154857Y-17202072D01*
X11140571Y-17230643D01*
X11126286Y-17244929D01*
X11097714Y-17259214D01*
X11054857Y-17259214D01*
X11240571Y-17059214D02*
X11354857Y-17059214D01*
X11283428Y-16959214D02*
X11283428Y-17216357D01*
X11297714Y-17244929D01*
X11326286Y-17259214D01*
X11354857Y-17259214D01*
X11683428Y-17059214D02*
X11683428Y-17359214D01*
X11683428Y-17073500D02*
X11712000Y-17059214D01*
X11769143Y-17059214D01*
X11797714Y-17073500D01*
X11812000Y-17087786D01*
X11826286Y-17116357D01*
X11826286Y-17202072D01*
X11812000Y-17230643D01*
X11797714Y-17244929D01*
X11769143Y-17259214D01*
X11712000Y-17259214D01*
X11683428Y-17244929D01*
X11997714Y-17259214D02*
X11969143Y-17244929D01*
X11954857Y-17216357D01*
X11954857Y-16959214D01*
X12240571Y-17259214D02*
X12240571Y-17102072D01*
X12226286Y-17073500D01*
X12197714Y-17059214D01*
X12140571Y-17059214D01*
X12112000Y-17073500D01*
X12240571Y-17244929D02*
X12212000Y-17259214D01*
X12140571Y-17259214D01*
X12112000Y-17244929D01*
X12097714Y-17216357D01*
X12097714Y-17187786D01*
X12112000Y-17159214D01*
X12140571Y-17144929D01*
X12212000Y-17144929D01*
X12240571Y-17130643D01*
X12340571Y-17059214D02*
X12454857Y-17059214D01*
X12383429Y-16959214D02*
X12383429Y-17216357D01*
X12397714Y-17244929D01*
X12426286Y-17259214D01*
X12454857Y-17259214D01*
X12669143Y-17244929D02*
X12640571Y-17259214D01*
X12583429Y-17259214D01*
X12554857Y-17244929D01*
X12540571Y-17216357D01*
X12540571Y-17102072D01*
X12554857Y-17073500D01*
X12583429Y-17059214D01*
X12640571Y-17059214D01*
X12669143Y-17073500D01*
X12683429Y-17102072D01*
X12683429Y-17130643D01*
X12540571Y-17159214D01*
X12940571Y-17259214D02*
X12940571Y-16959214D01*
X12940571Y-17244929D02*
X12912000Y-17259214D01*
X12854857Y-17259214D01*
X12826286Y-17244929D01*
X12812000Y-17230643D01*
X12797714Y-17202072D01*
X12797714Y-17116357D01*
X12812000Y-17087786D01*
X12826286Y-17073500D01*
X12854857Y-17059214D01*
X12912000Y-17059214D01*
X12940571Y-17073500D01*
X13054857Y-17373500D02*
X13069143Y-17359214D01*
X13097714Y-17316357D01*
X13112000Y-17287786D01*
X13126286Y-17244929D01*
X13140571Y-17173500D01*
X13140571Y-17116357D01*
X13126286Y-17044929D01*
X13112000Y-17002072D01*
X13097714Y-16973500D01*
X13069143Y-16930643D01*
X13054857Y-16916357D01*
X3412610Y-17358910D02*
X3412610Y-17757690D01*
X3213220Y-17558300D02*
X3612000Y-17558300D01*
X3612000Y-17558300D02*
G75*
G03X3612000Y-17558300I-199390J0D01*
G01*
X3854857Y-17394014D02*
X4040571Y-17394014D01*
X3940571Y-17508300D01*
X3983428Y-17508300D01*
X4012000Y-17522586D01*
X4026286Y-17536872D01*
X4040571Y-17565443D01*
X4040571Y-17636872D01*
X4026286Y-17665443D01*
X4012000Y-17679729D01*
X3983428Y-17694014D01*
X3897714Y-17694014D01*
X3869143Y-17679729D01*
X3854857Y-17665443D01*
X4169143Y-17665443D02*
X4183428Y-17679729D01*
X4169143Y-17694014D01*
X4154857Y-17679729D01*
X4169143Y-17665443D01*
X4169143Y-17694014D01*
X4326286Y-17694014D02*
X4383428Y-17694014D01*
X4412000Y-17679729D01*
X4426286Y-17665443D01*
X4454857Y-17622586D01*
X4469143Y-17565443D01*
X4469143Y-17451157D01*
X4454857Y-17422586D01*
X4440571Y-17408300D01*
X4412000Y-17394014D01*
X4354857Y-17394014D01*
X4326286Y-17408300D01*
X4312000Y-17422586D01*
X4297714Y-17451157D01*
X4297714Y-17522586D01*
X4312000Y-17551157D01*
X4326286Y-17565443D01*
X4354857Y-17579729D01*
X4412000Y-17579729D01*
X4440571Y-17565443D01*
X4454857Y-17551157D01*
X4469143Y-17522586D01*
X4612000Y-17694014D02*
X4669143Y-17694014D01*
X4697714Y-17679729D01*
X4712000Y-17665443D01*
X4740571Y-17622586D01*
X4754857Y-17565443D01*
X4754857Y-17451157D01*
X4740571Y-17422586D01*
X4726286Y-17408300D01*
X4697714Y-17394014D01*
X4640571Y-17394014D01*
X4612000Y-17408300D01*
X4597714Y-17422586D01*
X4583429Y-17451157D01*
X4583429Y-17522586D01*
X4597714Y-17551157D01*
X4612000Y-17565443D01*
X4640571Y-17579729D01*
X4697714Y-17579729D01*
X4726286Y-17565443D01*
X4740571Y-17551157D01*
X4754857Y-17522586D01*
X4883429Y-17694014D02*
X4883429Y-17494014D01*
X4883429Y-17522586D02*
X4897714Y-17508300D01*
X4926286Y-17494014D01*
X4969143Y-17494014D01*
X4997714Y-17508300D01*
X5012000Y-17536872D01*
X5012000Y-17694014D01*
X5012000Y-17536872D02*
X5026286Y-17508300D01*
X5054857Y-17494014D01*
X5097714Y-17494014D01*
X5126286Y-17508300D01*
X5140571Y-17536872D01*
X5140571Y-17694014D01*
X5283429Y-17694014D02*
X5283429Y-17494014D01*
X5283429Y-17522586D02*
X5297714Y-17508300D01*
X5326286Y-17494014D01*
X5369143Y-17494014D01*
X5397714Y-17508300D01*
X5412000Y-17536872D01*
X5412000Y-17694014D01*
X5412000Y-17536872D02*
X5426286Y-17508300D01*
X5454857Y-17494014D01*
X5497714Y-17494014D01*
X5526286Y-17508300D01*
X5540571Y-17536872D01*
X5540571Y-17694014D01*
X6126286Y-17379729D02*
X5869143Y-17765443D01*
X6512000Y-17394014D02*
X6540571Y-17394014D01*
X6569143Y-17408300D01*
X6583428Y-17422586D01*
X6597714Y-17451157D01*
X6612000Y-17508300D01*
X6612000Y-17579729D01*
X6597714Y-17636872D01*
X6583428Y-17665443D01*
X6569143Y-17679729D01*
X6540571Y-17694014D01*
X6512000Y-17694014D01*
X6483428Y-17679729D01*
X6469143Y-17665443D01*
X6454857Y-17636872D01*
X6440571Y-17579729D01*
X6440571Y-17508300D01*
X6454857Y-17451157D01*
X6469143Y-17422586D01*
X6483428Y-17408300D01*
X6512000Y-17394014D01*
X6740571Y-17665443D02*
X6754857Y-17679729D01*
X6740571Y-17694014D01*
X6726286Y-17679729D01*
X6740571Y-17665443D01*
X6740571Y-17694014D01*
X7040571Y-17694014D02*
X6869143Y-17694014D01*
X6954857Y-17694014D02*
X6954857Y-17394014D01*
X6926285Y-17436872D01*
X6897714Y-17465443D01*
X6869143Y-17479729D01*
X7312000Y-17394014D02*
X7169143Y-17394014D01*
X7154857Y-17536872D01*
X7169143Y-17522586D01*
X7197714Y-17508300D01*
X7269143Y-17508300D01*
X7297714Y-17522586D01*
X7312000Y-17536872D01*
X7326285Y-17565443D01*
X7326285Y-17636872D01*
X7312000Y-17665443D01*
X7297714Y-17679729D01*
X7269143Y-17694014D01*
X7197714Y-17694014D01*
X7169143Y-17679729D01*
X7154857Y-17665443D01*
X7426285Y-17394014D02*
X7626285Y-17394014D01*
X7497714Y-17694014D01*
X7726286Y-17394014D02*
X7726286Y-17451157D01*
X7840571Y-17394014D02*
X7840571Y-17451157D01*
X8283428Y-17808300D02*
X8269143Y-17794014D01*
X8240571Y-17751157D01*
X8226285Y-17722586D01*
X8212000Y-17679729D01*
X8197714Y-17608300D01*
X8197714Y-17551157D01*
X8212000Y-17479729D01*
X8226285Y-17436872D01*
X8240571Y-17408300D01*
X8269143Y-17365443D01*
X8283428Y-17351157D01*
X8526286Y-17394014D02*
X8469143Y-17394014D01*
X8440571Y-17408300D01*
X8426286Y-17422586D01*
X8397714Y-17465443D01*
X8383428Y-17522586D01*
X8383428Y-17636872D01*
X8397714Y-17665443D01*
X8412000Y-17679729D01*
X8440571Y-17694014D01*
X8497714Y-17694014D01*
X8526286Y-17679729D01*
X8540571Y-17665443D01*
X8554857Y-17636872D01*
X8554857Y-17565443D01*
X8540571Y-17536872D01*
X8526286Y-17522586D01*
X8497714Y-17508300D01*
X8440571Y-17508300D01*
X8412000Y-17522586D01*
X8397714Y-17536872D01*
X8383428Y-17565443D01*
X8912000Y-17694014D02*
X8912000Y-17394014D01*
X9040571Y-17694014D02*
X9040571Y-17536872D01*
X9026286Y-17508300D01*
X8997714Y-17494014D01*
X8954857Y-17494014D01*
X8926286Y-17508300D01*
X8912000Y-17522586D01*
X9226286Y-17694014D02*
X9197714Y-17679729D01*
X9183428Y-17665443D01*
X9169143Y-17636872D01*
X9169143Y-17551157D01*
X9183428Y-17522586D01*
X9197714Y-17508300D01*
X9226286Y-17494014D01*
X9269143Y-17494014D01*
X9297714Y-17508300D01*
X9312000Y-17522586D01*
X9326286Y-17551157D01*
X9326286Y-17636872D01*
X9312000Y-17665443D01*
X9297714Y-17679729D01*
X9269143Y-17694014D01*
X9226286Y-17694014D01*
X9497714Y-17694014D02*
X9469143Y-17679729D01*
X9454857Y-17651157D01*
X9454857Y-17394014D01*
X9726286Y-17679729D02*
X9697714Y-17694014D01*
X9640571Y-17694014D01*
X9612000Y-17679729D01*
X9597714Y-17651157D01*
X9597714Y-17536872D01*
X9612000Y-17508300D01*
X9640571Y-17494014D01*
X9697714Y-17494014D01*
X9726286Y-17508300D01*
X9740571Y-17536872D01*
X9740571Y-17565443D01*
X9597714Y-17594014D01*
X9854857Y-17679729D02*
X9883429Y-17694014D01*
X9940571Y-17694014D01*
X9969143Y-17679729D01*
X9983429Y-17651157D01*
X9983429Y-17636872D01*
X9969143Y-17608300D01*
X9940571Y-17594014D01*
X9897714Y-17594014D01*
X9869143Y-17579729D01*
X9854857Y-17551157D01*
X9854857Y-17536872D01*
X9869143Y-17508300D01*
X9897714Y-17494014D01*
X9940571Y-17494014D01*
X9969143Y-17508300D01*
X10083428Y-17808300D02*
X10097714Y-17794014D01*
X10126286Y-17751157D01*
X10140571Y-17722586D01*
X10154857Y-17679729D01*
X10169143Y-17608300D01*
X10169143Y-17551157D01*
X10154857Y-17479729D01*
X10140571Y-17436872D01*
X10126286Y-17408300D01*
X10097714Y-17365443D01*
X10083428Y-17351157D01*
X10626286Y-17808300D02*
X10612000Y-17794014D01*
X10583428Y-17751157D01*
X10569143Y-17722586D01*
X10554857Y-17679729D01*
X10540571Y-17608300D01*
X10540571Y-17551157D01*
X10554857Y-17479729D01*
X10569143Y-17436872D01*
X10583428Y-17408300D01*
X10612000Y-17365443D01*
X10626286Y-17351157D01*
X10740571Y-17494014D02*
X10740571Y-17694014D01*
X10740571Y-17522586D02*
X10754857Y-17508300D01*
X10783428Y-17494014D01*
X10826286Y-17494014D01*
X10854857Y-17508300D01*
X10869143Y-17536872D01*
X10869143Y-17694014D01*
X11054857Y-17694014D02*
X11026286Y-17679729D01*
X11012000Y-17665443D01*
X10997714Y-17636872D01*
X10997714Y-17551157D01*
X11012000Y-17522586D01*
X11026286Y-17508300D01*
X11054857Y-17494014D01*
X11097714Y-17494014D01*
X11126286Y-17508300D01*
X11140571Y-17522586D01*
X11154857Y-17551157D01*
X11154857Y-17636872D01*
X11140571Y-17665443D01*
X11126286Y-17679729D01*
X11097714Y-17694014D01*
X11054857Y-17694014D01*
X11240571Y-17494014D02*
X11354857Y-17494014D01*
X11283428Y-17394014D02*
X11283428Y-17651157D01*
X11297714Y-17679729D01*
X11326286Y-17694014D01*
X11354857Y-17694014D01*
X11683428Y-17494014D02*
X11683428Y-17794014D01*
X11683428Y-17508300D02*
X11712000Y-17494014D01*
X11769143Y-17494014D01*
X11797714Y-17508300D01*
X11812000Y-17522586D01*
X11826286Y-17551157D01*
X11826286Y-17636872D01*
X11812000Y-17665443D01*
X11797714Y-17679729D01*
X11769143Y-17694014D01*
X11712000Y-17694014D01*
X11683428Y-17679729D01*
X11997714Y-17694014D02*
X11969143Y-17679729D01*
X11954857Y-17651157D01*
X11954857Y-17394014D01*
X12240571Y-17694014D02*
X12240571Y-17536872D01*
X12226286Y-17508300D01*
X12197714Y-17494014D01*
X12140571Y-17494014D01*
X12112000Y-17508300D01*
X12240571Y-17679729D02*
X12212000Y-17694014D01*
X12140571Y-17694014D01*
X12112000Y-17679729D01*
X12097714Y-17651157D01*
X12097714Y-17622586D01*
X12112000Y-17594014D01*
X12140571Y-17579729D01*
X12212000Y-17579729D01*
X12240571Y-17565443D01*
X12340571Y-17494014D02*
X12454857Y-17494014D01*
X12383429Y-17394014D02*
X12383429Y-17651157D01*
X12397714Y-17679729D01*
X12426286Y-17694014D01*
X12454857Y-17694014D01*
X12669143Y-17679729D02*
X12640571Y-17694014D01*
X12583429Y-17694014D01*
X12554857Y-17679729D01*
X12540571Y-17651157D01*
X12540571Y-17536872D01*
X12554857Y-17508300D01*
X12583429Y-17494014D01*
X12640571Y-17494014D01*
X12669143Y-17508300D01*
X12683429Y-17536872D01*
X12683429Y-17565443D01*
X12540571Y-17594014D01*
X12940571Y-17694014D02*
X12940571Y-17394014D01*
X12940571Y-17679729D02*
X12912000Y-17694014D01*
X12854857Y-17694014D01*
X12826286Y-17679729D01*
X12812000Y-17665443D01*
X12797714Y-17636872D01*
X12797714Y-17551157D01*
X12812000Y-17522586D01*
X12826286Y-17508300D01*
X12854857Y-17494014D01*
X12912000Y-17494014D01*
X12940571Y-17508300D01*
X13054857Y-17808300D02*
X13069143Y-17794014D01*
X13097714Y-17751157D01*
X13112000Y-17722586D01*
X13126286Y-17679729D01*
X13140571Y-17608300D01*
X13140571Y-17551157D01*
X13126286Y-17479729D01*
X13112000Y-17436872D01*
X13097714Y-17408300D01*
X13069143Y-17365443D01*
X13054857Y-17351157D01*
X3553423Y-18228503D02*
X3553423Y-17945657D01*
X3270577Y-17945657D01*
X3270577Y-18228503D01*
X3553423Y-18228503D01*
X3612000Y-18087080D02*
G75*
G03X3612000Y-18087080I-200000J0D01*
G01*
X4012000Y-18022794D02*
X4012000Y-18222794D01*
X3940571Y-17908509D02*
X3869143Y-18122794D01*
X4054857Y-18122794D01*
X4169143Y-18194223D02*
X4183428Y-18208509D01*
X4169143Y-18222794D01*
X4154857Y-18208509D01*
X4169143Y-18194223D01*
X4169143Y-18222794D01*
X4369143Y-17922794D02*
X4397714Y-17922794D01*
X4426286Y-17937080D01*
X4440571Y-17951366D01*
X4454857Y-17979937D01*
X4469143Y-18037080D01*
X4469143Y-18108509D01*
X4454857Y-18165652D01*
X4440571Y-18194223D01*
X4426286Y-18208509D01*
X4397714Y-18222794D01*
X4369143Y-18222794D01*
X4340571Y-18208509D01*
X4326286Y-18194223D01*
X4312000Y-18165652D01*
X4297714Y-18108509D01*
X4297714Y-18037080D01*
X4312000Y-17979937D01*
X4326286Y-17951366D01*
X4340571Y-17937080D01*
X4369143Y-17922794D01*
X4654857Y-17922794D02*
X4683429Y-17922794D01*
X4712000Y-17937080D01*
X4726286Y-17951366D01*
X4740571Y-17979937D01*
X4754857Y-18037080D01*
X4754857Y-18108509D01*
X4740571Y-18165652D01*
X4726286Y-18194223D01*
X4712000Y-18208509D01*
X4683429Y-18222794D01*
X4654857Y-18222794D01*
X4626286Y-18208509D01*
X4612000Y-18194223D01*
X4597714Y-18165652D01*
X4583429Y-18108509D01*
X4583429Y-18037080D01*
X4597714Y-17979937D01*
X4612000Y-17951366D01*
X4626286Y-17937080D01*
X4654857Y-17922794D01*
X4883429Y-18222794D02*
X4883429Y-18022794D01*
X4883429Y-18051366D02*
X4897714Y-18037080D01*
X4926286Y-18022794D01*
X4969143Y-18022794D01*
X4997714Y-18037080D01*
X5012000Y-18065652D01*
X5012000Y-18222794D01*
X5012000Y-18065652D02*
X5026286Y-18037080D01*
X5054857Y-18022794D01*
X5097714Y-18022794D01*
X5126286Y-18037080D01*
X5140571Y-18065652D01*
X5140571Y-18222794D01*
X5283429Y-18222794D02*
X5283429Y-18022794D01*
X5283429Y-18051366D02*
X5297714Y-18037080D01*
X5326286Y-18022794D01*
X5369143Y-18022794D01*
X5397714Y-18037080D01*
X5412000Y-18065652D01*
X5412000Y-18222794D01*
X5412000Y-18065652D02*
X5426286Y-18037080D01*
X5454857Y-18022794D01*
X5497714Y-18022794D01*
X5526286Y-18037080D01*
X5540571Y-18065652D01*
X5540571Y-18222794D01*
X6126286Y-17908509D02*
X5869143Y-18294223D01*
X6512000Y-17922794D02*
X6540571Y-17922794D01*
X6569143Y-17937080D01*
X6583428Y-17951366D01*
X6597714Y-17979937D01*
X6612000Y-18037080D01*
X6612000Y-18108509D01*
X6597714Y-18165652D01*
X6583428Y-18194223D01*
X6569143Y-18208509D01*
X6540571Y-18222794D01*
X6512000Y-18222794D01*
X6483428Y-18208509D01*
X6469143Y-18194223D01*
X6454857Y-18165652D01*
X6440571Y-18108509D01*
X6440571Y-18037080D01*
X6454857Y-17979937D01*
X6469143Y-17951366D01*
X6483428Y-17937080D01*
X6512000Y-17922794D01*
X6740571Y-18194223D02*
X6754857Y-18208509D01*
X6740571Y-18222794D01*
X6726286Y-18208509D01*
X6740571Y-18194223D01*
X6740571Y-18222794D01*
X7040571Y-18222794D02*
X6869143Y-18222794D01*
X6954857Y-18222794D02*
X6954857Y-17922794D01*
X6926285Y-17965652D01*
X6897714Y-17994223D01*
X6869143Y-18008509D01*
X7312000Y-17922794D02*
X7169143Y-17922794D01*
X7154857Y-18065652D01*
X7169143Y-18051366D01*
X7197714Y-18037080D01*
X7269143Y-18037080D01*
X7297714Y-18051366D01*
X7312000Y-18065652D01*
X7326285Y-18094223D01*
X7326285Y-18165652D01*
X7312000Y-18194223D01*
X7297714Y-18208509D01*
X7269143Y-18222794D01*
X7197714Y-18222794D01*
X7169143Y-18208509D01*
X7154857Y-18194223D01*
X7426285Y-17922794D02*
X7626285Y-17922794D01*
X7497714Y-18222794D01*
X7726286Y-17922794D02*
X7726286Y-17979937D01*
X7840571Y-17922794D02*
X7840571Y-17979937D01*
X8283428Y-18337080D02*
X8269143Y-18322794D01*
X8240571Y-18279937D01*
X8226285Y-18251366D01*
X8212000Y-18208509D01*
X8197714Y-18137080D01*
X8197714Y-18079937D01*
X8212000Y-18008509D01*
X8226285Y-17965652D01*
X8240571Y-17937080D01*
X8269143Y-17894223D01*
X8283428Y-17879937D01*
X8554857Y-18222794D02*
X8383428Y-18222794D01*
X8469143Y-18222794D02*
X8469143Y-17922794D01*
X8440571Y-17965652D01*
X8412000Y-17994223D01*
X8383428Y-18008509D01*
X8654857Y-17922794D02*
X8854857Y-17922794D01*
X8726286Y-18222794D01*
X9197714Y-18222794D02*
X9197714Y-17922794D01*
X9326286Y-18222794D02*
X9326286Y-18065652D01*
X9312000Y-18037080D01*
X9283428Y-18022794D01*
X9240571Y-18022794D01*
X9212000Y-18037080D01*
X9197714Y-18051366D01*
X9512000Y-18222794D02*
X9483428Y-18208509D01*
X9469143Y-18194223D01*
X9454857Y-18165652D01*
X9454857Y-18079937D01*
X9469143Y-18051366D01*
X9483428Y-18037080D01*
X9512000Y-18022794D01*
X9554857Y-18022794D01*
X9583428Y-18037080D01*
X9597714Y-18051366D01*
X9612000Y-18079937D01*
X9612000Y-18165652D01*
X9597714Y-18194223D01*
X9583428Y-18208509D01*
X9554857Y-18222794D01*
X9512000Y-18222794D01*
X9783428Y-18222794D02*
X9754857Y-18208509D01*
X9740571Y-18179937D01*
X9740571Y-17922794D01*
X10012000Y-18208509D02*
X9983429Y-18222794D01*
X9926286Y-18222794D01*
X9897714Y-18208509D01*
X9883429Y-18179937D01*
X9883429Y-18065652D01*
X9897714Y-18037080D01*
X9926286Y-18022794D01*
X9983429Y-18022794D01*
X10012000Y-18037080D01*
X10026286Y-18065652D01*
X10026286Y-18094223D01*
X9883429Y-18122794D01*
X10140571Y-18208509D02*
X10169143Y-18222794D01*
X10226286Y-18222794D01*
X10254857Y-18208509D01*
X10269143Y-18179937D01*
X10269143Y-18165652D01*
X10254857Y-18137080D01*
X10226286Y-18122794D01*
X10183429Y-18122794D01*
X10154857Y-18108509D01*
X10140571Y-18079937D01*
X10140571Y-18065652D01*
X10154857Y-18037080D01*
X10183429Y-18022794D01*
X10226286Y-18022794D01*
X10254857Y-18037080D01*
X10369143Y-18337080D02*
X10383429Y-18322794D01*
X10412000Y-18279937D01*
X10426286Y-18251366D01*
X10440571Y-18208509D01*
X10454857Y-18137080D01*
X10454857Y-18079937D01*
X10440571Y-18008509D01*
X10426286Y-17965652D01*
X10412000Y-17937080D01*
X10383429Y-17894223D01*
X10369143Y-17879937D01*
X10912000Y-18337080D02*
X10897714Y-18322794D01*
X10869143Y-18279937D01*
X10854857Y-18251366D01*
X10840571Y-18208509D01*
X10826286Y-18137080D01*
X10826286Y-18079937D01*
X10840571Y-18008509D01*
X10854857Y-17965652D01*
X10869143Y-17937080D01*
X10897714Y-17894223D01*
X10912000Y-17879937D01*
X11026286Y-18022794D02*
X11026286Y-18222794D01*
X11026286Y-18051366D02*
X11040571Y-18037080D01*
X11069143Y-18022794D01*
X11112000Y-18022794D01*
X11140571Y-18037080D01*
X11154857Y-18065652D01*
X11154857Y-18222794D01*
X11340571Y-18222794D02*
X11312000Y-18208509D01*
X11297714Y-18194223D01*
X11283428Y-18165652D01*
X11283428Y-18079937D01*
X11297714Y-18051366D01*
X11312000Y-18037080D01*
X11340571Y-18022794D01*
X11383428Y-18022794D01*
X11412000Y-18037080D01*
X11426286Y-18051366D01*
X11440571Y-18079937D01*
X11440571Y-18165652D01*
X11426286Y-18194223D01*
X11412000Y-18208509D01*
X11383428Y-18222794D01*
X11340571Y-18222794D01*
X11526286Y-18022794D02*
X11640571Y-18022794D01*
X11569143Y-17922794D02*
X11569143Y-18179937D01*
X11583428Y-18208509D01*
X11612000Y-18222794D01*
X11640571Y-18222794D01*
X11969143Y-18022794D02*
X11969143Y-18322794D01*
X11969143Y-18037080D02*
X11997714Y-18022794D01*
X12054857Y-18022794D01*
X12083428Y-18037080D01*
X12097714Y-18051366D01*
X12112000Y-18079937D01*
X12112000Y-18165652D01*
X12097714Y-18194223D01*
X12083428Y-18208509D01*
X12054857Y-18222794D01*
X11997714Y-18222794D01*
X11969143Y-18208509D01*
X12283428Y-18222794D02*
X12254857Y-18208509D01*
X12240571Y-18179937D01*
X12240571Y-17922794D01*
X12526286Y-18222794D02*
X12526286Y-18065652D01*
X12512000Y-18037080D01*
X12483429Y-18022794D01*
X12426286Y-18022794D01*
X12397714Y-18037080D01*
X12526286Y-18208509D02*
X12497714Y-18222794D01*
X12426286Y-18222794D01*
X12397714Y-18208509D01*
X12383429Y-18179937D01*
X12383429Y-18151366D01*
X12397714Y-18122794D01*
X12426286Y-18108509D01*
X12497714Y-18108509D01*
X12526286Y-18094223D01*
X12626286Y-18022794D02*
X12740571Y-18022794D01*
X12669143Y-17922794D02*
X12669143Y-18179937D01*
X12683429Y-18208509D01*
X12712000Y-18222794D01*
X12740571Y-18222794D01*
X12954857Y-18208509D02*
X12926286Y-18222794D01*
X12869143Y-18222794D01*
X12840571Y-18208509D01*
X12826286Y-18179937D01*
X12826286Y-18065652D01*
X12840571Y-18037080D01*
X12869143Y-18022794D01*
X12926286Y-18022794D01*
X12954857Y-18037080D01*
X12969143Y-18065652D01*
X12969143Y-18094223D01*
X12826286Y-18122794D01*
X13226286Y-18222794D02*
X13226286Y-17922794D01*
X13226286Y-18208509D02*
X13197714Y-18222794D01*
X13140571Y-18222794D01*
X13112000Y-18208509D01*
X13097714Y-18194223D01*
X13083429Y-18165652D01*
X13083429Y-18079937D01*
X13097714Y-18051366D01*
X13112000Y-18037080D01*
X13140571Y-18022794D01*
X13197714Y-18022794D01*
X13226286Y-18037080D01*
X13340571Y-18337080D02*
X13354857Y-18322794D01*
X13383429Y-18279937D01*
X13397714Y-18251366D01*
X13412000Y-18208509D01*
X13426286Y-18137080D01*
X13426286Y-18079937D01*
X13412000Y-18008509D01*
X13397714Y-17965652D01*
X13383429Y-17937080D01*
X13354857Y-17894223D01*
X13340571Y-17879937D01*
M02*
