G04 #@! TF.FileFunction,Soldermask,Bot*
%FSLAX46Y46*%
G04 Gerber Fmt 4.6, Leading zero omitted, Abs format (unit mm)*
G04 Created by KiCad (PCBNEW 4.0.6) date Saturday, January 06, 2018 'AMt' 08:46:40 AM*
%MOMM*%
%LPD*%
G01*
G04 APERTURE LIST*
%ADD10C,0.150000*%
G04 APERTURE END LIST*
D10*
G36*
X77775000Y-127020000D02*
X75145000Y-127020000D01*
X75145000Y-124440000D01*
X77775000Y-124440000D01*
X77775000Y-127020000D01*
X77775000Y-127020000D01*
G37*
G36*
X49200000Y-127020000D02*
X46570000Y-127020000D01*
X46570000Y-124440000D01*
X49200000Y-124440000D01*
X49200000Y-127020000D01*
X49200000Y-127020000D01*
G37*
G36*
X91225000Y-124480000D02*
X88595000Y-124480000D01*
X88595000Y-121900000D01*
X91225000Y-121900000D01*
X91225000Y-124480000D01*
X91225000Y-124480000D01*
G37*
G36*
X62650000Y-124480000D02*
X60020000Y-124480000D01*
X60020000Y-121900000D01*
X62650000Y-121900000D01*
X62650000Y-124480000D01*
X62650000Y-124480000D01*
G37*
G36*
X40136544Y-117700864D02*
X40386282Y-117752128D01*
X40621302Y-117850922D01*
X40832661Y-117993484D01*
X41012305Y-118174387D01*
X41153389Y-118386734D01*
X41250539Y-118622438D01*
X41299990Y-118872185D01*
X41299990Y-118872194D01*
X41300056Y-118872528D01*
X41295990Y-119163722D01*
X41295913Y-119164060D01*
X41295913Y-119164068D01*
X41239511Y-119412328D01*
X41135815Y-119645232D01*
X40988858Y-119853557D01*
X40804230Y-120029375D01*
X40588979Y-120165977D01*
X40351287Y-120258173D01*
X40100220Y-120302442D01*
X39845332Y-120297103D01*
X39596330Y-120242357D01*
X39362713Y-120140292D01*
X39153367Y-119994792D01*
X38976266Y-119811399D01*
X38838163Y-119597106D01*
X38744312Y-119360065D01*
X38698289Y-119109305D01*
X38701849Y-118854388D01*
X38754853Y-118605019D01*
X38855288Y-118370689D01*
X38999322Y-118160332D01*
X39181474Y-117981955D01*
X39394800Y-117842358D01*
X39631180Y-117746855D01*
X39881604Y-117699084D01*
X40136544Y-117700864D01*
X40136544Y-117700864D01*
G37*
G36*
X78760000Y-118580000D02*
X78080000Y-118580000D01*
X78080000Y-117500000D01*
X78760000Y-117500000D01*
X78760000Y-118580000D01*
X78760000Y-118580000D01*
G37*
G36*
X77810000Y-118580000D02*
X77130000Y-118580000D01*
X77130000Y-117500000D01*
X77810000Y-117500000D01*
X77810000Y-118580000D01*
X77810000Y-118580000D01*
G37*
G36*
X76860000Y-118580000D02*
X76180000Y-118580000D01*
X76180000Y-117500000D01*
X76860000Y-117500000D01*
X76860000Y-118580000D01*
X76860000Y-118580000D01*
G37*
G36*
X107970000Y-118530000D02*
X105390000Y-118530000D01*
X105390000Y-115900000D01*
X107970000Y-115900000D01*
X107970000Y-118530000D01*
X107970000Y-118530000D01*
G37*
G36*
X85890000Y-116710000D02*
X84610000Y-116710000D01*
X84610000Y-115880000D01*
X85890000Y-115880000D01*
X85890000Y-116710000D01*
X85890000Y-116710000D01*
G37*
G36*
X80490000Y-116710000D02*
X79210000Y-116710000D01*
X79210000Y-115880000D01*
X80490000Y-115880000D01*
X80490000Y-116710000D01*
X80490000Y-116710000D01*
G37*
G36*
X57315000Y-116710000D02*
X56035000Y-116710000D01*
X56035000Y-115880000D01*
X57315000Y-115880000D01*
X57315000Y-116710000D01*
X57315000Y-116710000D01*
G37*
G36*
X51915000Y-116710000D02*
X50635000Y-116710000D01*
X50635000Y-115880000D01*
X51915000Y-115880000D01*
X51915000Y-116710000D01*
X51915000Y-116710000D01*
G37*
G36*
X78760000Y-116180000D02*
X78080000Y-116180000D01*
X78080000Y-115100000D01*
X78760000Y-115100000D01*
X78760000Y-116180000D01*
X78760000Y-116180000D01*
G37*
G36*
X76860000Y-116180000D02*
X76180000Y-116180000D01*
X76180000Y-115100000D01*
X76860000Y-115100000D01*
X76860000Y-116180000D01*
X76860000Y-116180000D01*
G37*
G36*
X85890000Y-115260000D02*
X84610000Y-115260000D01*
X84610000Y-114430000D01*
X85890000Y-114430000D01*
X85890000Y-115260000D01*
X85890000Y-115260000D01*
G37*
G36*
X80490000Y-115260000D02*
X79210000Y-115260000D01*
X79210000Y-114430000D01*
X80490000Y-114430000D01*
X80490000Y-115260000D01*
X80490000Y-115260000D01*
G37*
G36*
X57315000Y-115260000D02*
X56035000Y-115260000D01*
X56035000Y-114430000D01*
X57315000Y-114430000D01*
X57315000Y-115260000D01*
X57315000Y-115260000D01*
G37*
G36*
X51915000Y-115260000D02*
X50635000Y-115260000D01*
X50635000Y-114430000D01*
X51915000Y-114430000D01*
X51915000Y-115260000D01*
X51915000Y-115260000D01*
G37*
G36*
X97660000Y-114465000D02*
X96830000Y-114465000D01*
X96830000Y-113185000D01*
X97660000Y-113185000D01*
X97660000Y-114465000D01*
X97660000Y-114465000D01*
G37*
G36*
X96210000Y-114465000D02*
X95380000Y-114465000D01*
X95380000Y-113185000D01*
X96210000Y-113185000D01*
X96210000Y-114465000D01*
X96210000Y-114465000D01*
G37*
G36*
X97660000Y-109065000D02*
X96830000Y-109065000D01*
X96830000Y-107785000D01*
X97660000Y-107785000D01*
X97660000Y-109065000D01*
X97660000Y-109065000D01*
G37*
G36*
X96210000Y-109065000D02*
X95380000Y-109065000D01*
X95380000Y-107785000D01*
X96210000Y-107785000D01*
X96210000Y-109065000D01*
X96210000Y-109065000D01*
G37*
G36*
X77775000Y-107970000D02*
X75145000Y-107970000D01*
X75145000Y-105390000D01*
X77775000Y-105390000D01*
X77775000Y-107970000D01*
X77775000Y-107970000D01*
G37*
G36*
X58725000Y-107970000D02*
X56095000Y-107970000D01*
X56095000Y-105390000D01*
X58725000Y-105390000D01*
X58725000Y-107970000D01*
X58725000Y-107970000D01*
G37*
G36*
X39675000Y-107970000D02*
X37045000Y-107970000D01*
X37045000Y-105390000D01*
X39675000Y-105390000D01*
X39675000Y-107970000D01*
X39675000Y-107970000D01*
G37*
G36*
X72175000Y-105430000D02*
X69545000Y-105430000D01*
X69545000Y-102850000D01*
X72175000Y-102850000D01*
X72175000Y-105430000D01*
X72175000Y-105430000D01*
G37*
G36*
X91225000Y-105430000D02*
X88595000Y-105430000D01*
X88595000Y-102850000D01*
X91225000Y-102850000D01*
X91225000Y-105430000D01*
X91225000Y-105430000D01*
G37*
G36*
X53125000Y-105430000D02*
X50495000Y-105430000D01*
X50495000Y-102850000D01*
X53125000Y-102850000D01*
X53125000Y-105430000D01*
X53125000Y-105430000D01*
G37*
G36*
X105430000Y-105080000D02*
X102850000Y-105080000D01*
X102850000Y-102450000D01*
X105430000Y-102450000D01*
X105430000Y-105080000D01*
X105430000Y-105080000D01*
G37*
G36*
X76860000Y-99530000D02*
X76180000Y-99530000D01*
X76180000Y-98450000D01*
X76860000Y-98450000D01*
X76860000Y-99530000D01*
X76860000Y-99530000D01*
G37*
G36*
X78760000Y-99530000D02*
X78080000Y-99530000D01*
X78080000Y-98450000D01*
X78760000Y-98450000D01*
X78760000Y-99530000D01*
X78760000Y-99530000D01*
G37*
G36*
X77810000Y-99530000D02*
X77130000Y-99530000D01*
X77130000Y-98450000D01*
X77810000Y-98450000D01*
X77810000Y-99530000D01*
X77810000Y-99530000D01*
G37*
G36*
X66840000Y-97660000D02*
X65560000Y-97660000D01*
X65560000Y-96830000D01*
X66840000Y-96830000D01*
X66840000Y-97660000D01*
X66840000Y-97660000D01*
G37*
G36*
X42390000Y-97660000D02*
X41110000Y-97660000D01*
X41110000Y-96830000D01*
X42390000Y-96830000D01*
X42390000Y-97660000D01*
X42390000Y-97660000D01*
G37*
G36*
X47790000Y-97660000D02*
X46510000Y-97660000D01*
X46510000Y-96830000D01*
X47790000Y-96830000D01*
X47790000Y-97660000D01*
X47790000Y-97660000D01*
G37*
G36*
X61440000Y-97660000D02*
X60160000Y-97660000D01*
X60160000Y-96830000D01*
X61440000Y-96830000D01*
X61440000Y-97660000D01*
X61440000Y-97660000D01*
G37*
G36*
X85890000Y-97660000D02*
X84610000Y-97660000D01*
X84610000Y-96830000D01*
X85890000Y-96830000D01*
X85890000Y-97660000D01*
X85890000Y-97660000D01*
G37*
G36*
X80490000Y-97660000D02*
X79210000Y-97660000D01*
X79210000Y-96830000D01*
X80490000Y-96830000D01*
X80490000Y-97660000D01*
X80490000Y-97660000D01*
G37*
G36*
X76860000Y-97130000D02*
X76180000Y-97130000D01*
X76180000Y-96050000D01*
X76860000Y-96050000D01*
X76860000Y-97130000D01*
X76860000Y-97130000D01*
G37*
G36*
X78760000Y-97130000D02*
X78080000Y-97130000D01*
X78080000Y-96050000D01*
X78760000Y-96050000D01*
X78760000Y-97130000D01*
X78760000Y-97130000D01*
G37*
G36*
X42390000Y-96210000D02*
X41110000Y-96210000D01*
X41110000Y-95380000D01*
X42390000Y-95380000D01*
X42390000Y-96210000D01*
X42390000Y-96210000D01*
G37*
G36*
X47790000Y-96210000D02*
X46510000Y-96210000D01*
X46510000Y-95380000D01*
X47790000Y-95380000D01*
X47790000Y-96210000D01*
X47790000Y-96210000D01*
G37*
G36*
X61440000Y-96210000D02*
X60160000Y-96210000D01*
X60160000Y-95380000D01*
X61440000Y-95380000D01*
X61440000Y-96210000D01*
X61440000Y-96210000D01*
G37*
G36*
X66840000Y-96210000D02*
X65560000Y-96210000D01*
X65560000Y-95380000D01*
X66840000Y-95380000D01*
X66840000Y-96210000D01*
X66840000Y-96210000D01*
G37*
G36*
X80490000Y-96210000D02*
X79210000Y-96210000D01*
X79210000Y-95380000D01*
X80490000Y-95380000D01*
X80490000Y-96210000D01*
X80490000Y-96210000D01*
G37*
G36*
X85890000Y-96210000D02*
X84610000Y-96210000D01*
X84610000Y-95380000D01*
X85890000Y-95380000D01*
X85890000Y-96210000D01*
X85890000Y-96210000D01*
G37*
G36*
X77775000Y-88920000D02*
X75145000Y-88920000D01*
X75145000Y-86340000D01*
X77775000Y-86340000D01*
X77775000Y-88920000D01*
X77775000Y-88920000D01*
G37*
G36*
X58725000Y-88920000D02*
X56095000Y-88920000D01*
X56095000Y-86340000D01*
X58725000Y-86340000D01*
X58725000Y-88920000D01*
X58725000Y-88920000D01*
G37*
G36*
X39675000Y-88920000D02*
X37045000Y-88920000D01*
X37045000Y-86340000D01*
X39675000Y-86340000D01*
X39675000Y-88920000D01*
X39675000Y-88920000D01*
G37*
G36*
X72175000Y-86380000D02*
X69545000Y-86380000D01*
X69545000Y-83800000D01*
X72175000Y-83800000D01*
X72175000Y-86380000D01*
X72175000Y-86380000D01*
G37*
G36*
X53125000Y-86380000D02*
X50495000Y-86380000D01*
X50495000Y-83800000D01*
X53125000Y-83800000D01*
X53125000Y-86380000D01*
X53125000Y-86380000D01*
G37*
G36*
X91225000Y-86380000D02*
X88595000Y-86380000D01*
X88595000Y-83800000D01*
X91225000Y-83800000D01*
X91225000Y-86380000D01*
X91225000Y-86380000D01*
G37*
G36*
X78760000Y-80480000D02*
X78080000Y-80480000D01*
X78080000Y-79400000D01*
X78760000Y-79400000D01*
X78760000Y-80480000D01*
X78760000Y-80480000D01*
G37*
G36*
X77810000Y-80480000D02*
X77130000Y-80480000D01*
X77130000Y-79400000D01*
X77810000Y-79400000D01*
X77810000Y-80480000D01*
X77810000Y-80480000D01*
G37*
G36*
X76860000Y-80480000D02*
X76180000Y-80480000D01*
X76180000Y-79400000D01*
X76860000Y-79400000D01*
X76860000Y-80480000D01*
X76860000Y-80480000D01*
G37*
G36*
X107970000Y-80430000D02*
X105390000Y-80430000D01*
X105390000Y-77800000D01*
X107970000Y-77800000D01*
X107970000Y-80430000D01*
X107970000Y-80430000D01*
G37*
G36*
X61440000Y-78610000D02*
X60160000Y-78610000D01*
X60160000Y-77780000D01*
X61440000Y-77780000D01*
X61440000Y-78610000D01*
X61440000Y-78610000D01*
G37*
G36*
X85890000Y-78610000D02*
X84610000Y-78610000D01*
X84610000Y-77780000D01*
X85890000Y-77780000D01*
X85890000Y-78610000D01*
X85890000Y-78610000D01*
G37*
G36*
X80490000Y-78610000D02*
X79210000Y-78610000D01*
X79210000Y-77780000D01*
X80490000Y-77780000D01*
X80490000Y-78610000D01*
X80490000Y-78610000D01*
G37*
G36*
X47790000Y-78610000D02*
X46510000Y-78610000D01*
X46510000Y-77780000D01*
X47790000Y-77780000D01*
X47790000Y-78610000D01*
X47790000Y-78610000D01*
G37*
G36*
X42390000Y-78610000D02*
X41110000Y-78610000D01*
X41110000Y-77780000D01*
X42390000Y-77780000D01*
X42390000Y-78610000D01*
X42390000Y-78610000D01*
G37*
G36*
X66840000Y-78610000D02*
X65560000Y-78610000D01*
X65560000Y-77780000D01*
X66840000Y-77780000D01*
X66840000Y-78610000D01*
X66840000Y-78610000D01*
G37*
G36*
X78760000Y-78080000D02*
X78080000Y-78080000D01*
X78080000Y-77000000D01*
X78760000Y-77000000D01*
X78760000Y-78080000D01*
X78760000Y-78080000D01*
G37*
G36*
X76860000Y-78080000D02*
X76180000Y-78080000D01*
X76180000Y-77000000D01*
X76860000Y-77000000D01*
X76860000Y-78080000D01*
X76860000Y-78080000D01*
G37*
G36*
X57218612Y-76559726D02*
X57223838Y-76560000D01*
X57249395Y-76560000D01*
X57256888Y-76568791D01*
X57266035Y-76575181D01*
X57278287Y-76581806D01*
X57299340Y-76599222D01*
X57316609Y-76620396D01*
X57329436Y-76644521D01*
X57337334Y-76670678D01*
X57340000Y-76697871D01*
X57340000Y-77302129D01*
X57339986Y-77304084D01*
X57336941Y-77331237D01*
X57328679Y-77357281D01*
X57315516Y-77381224D01*
X57297953Y-77402155D01*
X57276659Y-77419276D01*
X57266691Y-77424487D01*
X57255409Y-77432591D01*
X57249591Y-77440000D01*
X57224677Y-77440000D01*
X57220146Y-77440206D01*
X57199026Y-77442128D01*
X57181388Y-77440274D01*
X57176162Y-77440000D01*
X56824677Y-77440000D01*
X56820146Y-77440206D01*
X56799026Y-77442128D01*
X56781388Y-77440274D01*
X56776162Y-77440000D01*
X56424677Y-77440000D01*
X56420146Y-77440206D01*
X56399026Y-77442128D01*
X56381388Y-77440274D01*
X56376162Y-77440000D01*
X56024677Y-77440000D01*
X56020146Y-77440206D01*
X55999026Y-77442128D01*
X55981388Y-77440274D01*
X55976162Y-77440000D01*
X55624677Y-77440000D01*
X55620146Y-77440206D01*
X55599026Y-77442128D01*
X55581388Y-77440274D01*
X55576162Y-77440000D01*
X55224677Y-77440000D01*
X55220146Y-77440206D01*
X55199026Y-77442128D01*
X55181388Y-77440274D01*
X55176162Y-77440000D01*
X54824677Y-77440000D01*
X54820146Y-77440206D01*
X54799026Y-77442128D01*
X54781388Y-77440274D01*
X54776162Y-77440000D01*
X54750605Y-77440000D01*
X54743112Y-77431209D01*
X54733965Y-77424819D01*
X54721713Y-77418194D01*
X54700660Y-77400778D01*
X54683391Y-77379604D01*
X54670564Y-77355479D01*
X54662666Y-77329322D01*
X54660000Y-77302129D01*
X54660000Y-76697871D01*
X54660014Y-76695916D01*
X54663059Y-76668763D01*
X54671321Y-76642719D01*
X54684484Y-76618776D01*
X54702047Y-76597845D01*
X54723341Y-76580724D01*
X54733309Y-76575513D01*
X54744591Y-76567409D01*
X54750409Y-76560000D01*
X54775323Y-76560000D01*
X54779854Y-76559794D01*
X54800974Y-76557872D01*
X54818612Y-76559726D01*
X54823838Y-76560000D01*
X55175323Y-76560000D01*
X55179854Y-76559794D01*
X55200974Y-76557872D01*
X55218612Y-76559726D01*
X55223838Y-76560000D01*
X55575323Y-76560000D01*
X55579854Y-76559794D01*
X55600974Y-76557872D01*
X55618612Y-76559726D01*
X55623838Y-76560000D01*
X55975323Y-76560000D01*
X55979854Y-76559794D01*
X56000974Y-76557872D01*
X56018612Y-76559726D01*
X56023838Y-76560000D01*
X56375323Y-76560000D01*
X56379854Y-76559794D01*
X56400974Y-76557872D01*
X56418612Y-76559726D01*
X56423838Y-76560000D01*
X56775323Y-76560000D01*
X56779854Y-76559794D01*
X56800974Y-76557872D01*
X56818612Y-76559726D01*
X56823838Y-76560000D01*
X57175323Y-76560000D01*
X57179854Y-76559794D01*
X57200974Y-76557872D01*
X57218612Y-76559726D01*
X57218612Y-76559726D01*
G37*
G36*
X66840000Y-77160000D02*
X65560000Y-77160000D01*
X65560000Y-76330000D01*
X66840000Y-76330000D01*
X66840000Y-77160000D01*
X66840000Y-77160000D01*
G37*
G36*
X61440000Y-77160000D02*
X60160000Y-77160000D01*
X60160000Y-76330000D01*
X61440000Y-76330000D01*
X61440000Y-77160000D01*
X61440000Y-77160000D01*
G37*
G36*
X47790000Y-77160000D02*
X46510000Y-77160000D01*
X46510000Y-76330000D01*
X47790000Y-76330000D01*
X47790000Y-77160000D01*
X47790000Y-77160000D01*
G37*
G36*
X42390000Y-77160000D02*
X41110000Y-77160000D01*
X41110000Y-76330000D01*
X42390000Y-76330000D01*
X42390000Y-77160000D01*
X42390000Y-77160000D01*
G37*
G36*
X80490000Y-77160000D02*
X79210000Y-77160000D01*
X79210000Y-76330000D01*
X80490000Y-76330000D01*
X80490000Y-77160000D01*
X80490000Y-77160000D01*
G37*
G36*
X85890000Y-77160000D02*
X84610000Y-77160000D01*
X84610000Y-76330000D01*
X85890000Y-76330000D01*
X85890000Y-77160000D01*
X85890000Y-77160000D01*
G37*
G36*
X50340000Y-76740000D02*
X49660000Y-76740000D01*
X49660000Y-75760000D01*
X50340000Y-75760000D01*
X50340000Y-76740000D01*
X50340000Y-76740000D01*
G37*
G36*
X51840000Y-76740000D02*
X51160000Y-76740000D01*
X51160000Y-75760000D01*
X51840000Y-75760000D01*
X51840000Y-76740000D01*
X51840000Y-76740000D01*
G37*
G36*
X96210000Y-76365000D02*
X95380000Y-76365000D01*
X95380000Y-75085000D01*
X96210000Y-75085000D01*
X96210000Y-76365000D01*
X96210000Y-76365000D01*
G37*
G36*
X97660000Y-76365000D02*
X96830000Y-76365000D01*
X96830000Y-75085000D01*
X97660000Y-75085000D01*
X97660000Y-76365000D01*
X97660000Y-76365000D01*
G37*
G36*
X58304084Y-73660014D02*
X58331237Y-73663059D01*
X58357281Y-73671321D01*
X58381224Y-73684484D01*
X58402155Y-73702047D01*
X58419276Y-73723341D01*
X58424487Y-73733309D01*
X58432591Y-73744591D01*
X58440000Y-73750409D01*
X58440000Y-73775323D01*
X58440206Y-73779854D01*
X58442128Y-73800974D01*
X58440274Y-73818612D01*
X58440000Y-73823838D01*
X58440000Y-74175323D01*
X58440206Y-74179854D01*
X58442128Y-74200974D01*
X58440274Y-74218612D01*
X58440000Y-74223838D01*
X58440000Y-74575323D01*
X58440206Y-74579854D01*
X58442128Y-74600974D01*
X58440274Y-74618612D01*
X58440000Y-74623838D01*
X58440000Y-74975323D01*
X58440206Y-74979854D01*
X58442128Y-75000974D01*
X58440274Y-75018612D01*
X58440000Y-75023838D01*
X58440000Y-75375323D01*
X58440206Y-75379854D01*
X58442128Y-75400974D01*
X58440274Y-75418612D01*
X58440000Y-75423838D01*
X58440000Y-75775323D01*
X58440206Y-75779854D01*
X58442128Y-75800974D01*
X58440274Y-75818612D01*
X58440000Y-75823838D01*
X58440000Y-76175323D01*
X58440206Y-76179854D01*
X58442128Y-76200974D01*
X58440274Y-76218612D01*
X58440000Y-76223838D01*
X58440000Y-76249395D01*
X58431209Y-76256888D01*
X58424819Y-76266035D01*
X58418194Y-76278287D01*
X58400778Y-76299340D01*
X58379604Y-76316609D01*
X58355479Y-76329436D01*
X58329322Y-76337334D01*
X58302129Y-76340000D01*
X57697871Y-76340000D01*
X57695916Y-76339986D01*
X57668763Y-76336941D01*
X57642719Y-76328679D01*
X57618776Y-76315516D01*
X57597845Y-76297953D01*
X57580724Y-76276659D01*
X57575513Y-76266691D01*
X57567409Y-76255409D01*
X57560000Y-76249591D01*
X57560000Y-76224677D01*
X57559794Y-76220146D01*
X57557872Y-76199026D01*
X57559726Y-76181388D01*
X57560000Y-76176162D01*
X57560000Y-75824677D01*
X57559794Y-75820146D01*
X57557872Y-75799026D01*
X57559726Y-75781388D01*
X57560000Y-75776162D01*
X57560000Y-75424677D01*
X57559794Y-75420146D01*
X57557872Y-75399026D01*
X57559726Y-75381388D01*
X57560000Y-75376162D01*
X57560000Y-75024677D01*
X57559794Y-75020146D01*
X57557872Y-74999026D01*
X57559726Y-74981388D01*
X57560000Y-74976162D01*
X57560000Y-74624677D01*
X57559794Y-74620146D01*
X57557872Y-74599026D01*
X57559726Y-74581388D01*
X57560000Y-74576162D01*
X57560000Y-74224677D01*
X57559794Y-74220146D01*
X57557872Y-74199026D01*
X57559726Y-74181388D01*
X57560000Y-74176162D01*
X57560000Y-73824677D01*
X57559794Y-73820146D01*
X57557872Y-73799026D01*
X57559726Y-73781388D01*
X57560000Y-73776162D01*
X57560000Y-73750605D01*
X57568791Y-73743112D01*
X57575181Y-73733965D01*
X57581806Y-73721713D01*
X57599222Y-73700660D01*
X57620396Y-73683391D01*
X57644521Y-73670564D01*
X57670678Y-73662666D01*
X57697871Y-73660000D01*
X58302129Y-73660000D01*
X58304084Y-73660014D01*
X58304084Y-73660014D01*
G37*
G36*
X54304084Y-73660014D02*
X54331237Y-73663059D01*
X54357281Y-73671321D01*
X54381224Y-73684484D01*
X54402155Y-73702047D01*
X54419276Y-73723341D01*
X54424487Y-73733309D01*
X54432591Y-73744591D01*
X54440000Y-73750409D01*
X54440000Y-73775323D01*
X54440206Y-73779854D01*
X54442128Y-73800974D01*
X54440274Y-73818612D01*
X54440000Y-73823838D01*
X54440000Y-74175323D01*
X54440206Y-74179854D01*
X54442128Y-74200974D01*
X54440274Y-74218612D01*
X54440000Y-74223838D01*
X54440000Y-74575323D01*
X54440206Y-74579854D01*
X54442128Y-74600974D01*
X54440274Y-74618612D01*
X54440000Y-74623838D01*
X54440000Y-74975323D01*
X54440206Y-74979854D01*
X54442128Y-75000974D01*
X54440274Y-75018612D01*
X54440000Y-75023838D01*
X54440000Y-75375323D01*
X54440206Y-75379854D01*
X54442128Y-75400974D01*
X54440274Y-75418612D01*
X54440000Y-75423838D01*
X54440000Y-75775323D01*
X54440206Y-75779854D01*
X54442128Y-75800974D01*
X54440274Y-75818612D01*
X54440000Y-75823838D01*
X54440000Y-76175323D01*
X54440206Y-76179854D01*
X54442128Y-76200974D01*
X54440274Y-76218612D01*
X54440000Y-76223838D01*
X54440000Y-76249395D01*
X54431209Y-76256888D01*
X54424819Y-76266035D01*
X54418194Y-76278287D01*
X54400778Y-76299340D01*
X54379604Y-76316609D01*
X54355479Y-76329436D01*
X54329322Y-76337334D01*
X54302129Y-76340000D01*
X53697871Y-76340000D01*
X53695916Y-76339986D01*
X53668763Y-76336941D01*
X53642719Y-76328679D01*
X53618776Y-76315516D01*
X53597845Y-76297953D01*
X53580724Y-76276659D01*
X53575513Y-76266691D01*
X53567409Y-76255409D01*
X53560000Y-76249591D01*
X53560000Y-76224677D01*
X53559794Y-76220146D01*
X53557872Y-76199026D01*
X53559726Y-76181388D01*
X53560000Y-76176162D01*
X53560000Y-75824677D01*
X53559794Y-75820146D01*
X53557872Y-75799026D01*
X53559726Y-75781388D01*
X53560000Y-75776162D01*
X53560000Y-75424677D01*
X53559794Y-75420146D01*
X53557872Y-75399026D01*
X53559726Y-75381388D01*
X53560000Y-75376162D01*
X53560000Y-75024677D01*
X53559794Y-75020146D01*
X53557872Y-74999026D01*
X53559726Y-74981388D01*
X53560000Y-74976162D01*
X53560000Y-74624677D01*
X53559794Y-74620146D01*
X53557872Y-74599026D01*
X53559726Y-74581388D01*
X53560000Y-74576162D01*
X53560000Y-74224677D01*
X53559794Y-74220146D01*
X53557872Y-74199026D01*
X53559726Y-74181388D01*
X53560000Y-74176162D01*
X53560000Y-73824677D01*
X53559794Y-73820146D01*
X53557872Y-73799026D01*
X53559726Y-73781388D01*
X53560000Y-73776162D01*
X53560000Y-73750605D01*
X53568791Y-73743112D01*
X53575181Y-73733965D01*
X53581806Y-73721713D01*
X53599222Y-73700660D01*
X53620396Y-73683391D01*
X53644521Y-73670564D01*
X53670678Y-73662666D01*
X53697871Y-73660000D01*
X54302129Y-73660000D01*
X54304084Y-73660014D01*
X54304084Y-73660014D01*
G37*
G36*
X57190000Y-76190000D02*
X54810000Y-76190000D01*
X54810000Y-73810000D01*
X57190000Y-73810000D01*
X57190000Y-76190000D01*
X57190000Y-76190000D01*
G37*
G36*
X50440000Y-75165000D02*
X49560000Y-75165000D01*
X49560000Y-74335000D01*
X50440000Y-74335000D01*
X50440000Y-75165000D01*
X50440000Y-75165000D01*
G37*
G36*
X51940000Y-75165000D02*
X51060000Y-75165000D01*
X51060000Y-74335000D01*
X51940000Y-74335000D01*
X51940000Y-75165000D01*
X51940000Y-75165000D01*
G37*
G36*
X64740000Y-75040000D02*
X63760000Y-75040000D01*
X63760000Y-74360000D01*
X64740000Y-74360000D01*
X64740000Y-75040000D01*
X64740000Y-75040000D01*
G37*
G36*
X63240000Y-75040000D02*
X62260000Y-75040000D01*
X62260000Y-74360000D01*
X63240000Y-74360000D01*
X63240000Y-75040000D01*
X63240000Y-75040000D01*
G37*
G36*
X60665000Y-74940000D02*
X59835000Y-74940000D01*
X59835000Y-74060000D01*
X60665000Y-74060000D01*
X60665000Y-74940000D01*
X60665000Y-74940000D01*
G37*
G36*
X51940000Y-73665000D02*
X51060000Y-73665000D01*
X51060000Y-72835000D01*
X51940000Y-72835000D01*
X51940000Y-73665000D01*
X51940000Y-73665000D01*
G37*
G36*
X50440000Y-73665000D02*
X49560000Y-73665000D01*
X49560000Y-72835000D01*
X50440000Y-72835000D01*
X50440000Y-73665000D01*
X50440000Y-73665000D01*
G37*
G36*
X63240000Y-73540000D02*
X62260000Y-73540000D01*
X62260000Y-72860000D01*
X63240000Y-72860000D01*
X63240000Y-73540000D01*
X63240000Y-73540000D01*
G37*
G36*
X64740000Y-73540000D02*
X63760000Y-73540000D01*
X63760000Y-72860000D01*
X64740000Y-72860000D01*
X64740000Y-73540000D01*
X64740000Y-73540000D01*
G37*
G36*
X57218612Y-72559726D02*
X57223838Y-72560000D01*
X57249395Y-72560000D01*
X57256888Y-72568791D01*
X57266035Y-72575181D01*
X57278287Y-72581806D01*
X57299340Y-72599222D01*
X57316609Y-72620396D01*
X57329436Y-72644521D01*
X57337334Y-72670678D01*
X57340000Y-72697871D01*
X57340000Y-73302129D01*
X57339986Y-73304084D01*
X57336941Y-73331237D01*
X57328679Y-73357281D01*
X57315516Y-73381224D01*
X57297953Y-73402155D01*
X57276659Y-73419276D01*
X57266691Y-73424487D01*
X57255409Y-73432591D01*
X57249591Y-73440000D01*
X57224677Y-73440000D01*
X57220146Y-73440206D01*
X57199026Y-73442128D01*
X57181388Y-73440274D01*
X57176162Y-73440000D01*
X56824677Y-73440000D01*
X56820146Y-73440206D01*
X56799026Y-73442128D01*
X56781388Y-73440274D01*
X56776162Y-73440000D01*
X56424677Y-73440000D01*
X56420146Y-73440206D01*
X56399026Y-73442128D01*
X56381388Y-73440274D01*
X56376162Y-73440000D01*
X56024677Y-73440000D01*
X56020146Y-73440206D01*
X55999026Y-73442128D01*
X55981388Y-73440274D01*
X55976162Y-73440000D01*
X55624677Y-73440000D01*
X55620146Y-73440206D01*
X55599026Y-73442128D01*
X55581388Y-73440274D01*
X55576162Y-73440000D01*
X55224677Y-73440000D01*
X55220146Y-73440206D01*
X55199026Y-73442128D01*
X55181388Y-73440274D01*
X55176162Y-73440000D01*
X54824677Y-73440000D01*
X54820146Y-73440206D01*
X54799026Y-73442128D01*
X54781388Y-73440274D01*
X54776162Y-73440000D01*
X54750605Y-73440000D01*
X54743112Y-73431209D01*
X54733965Y-73424819D01*
X54721713Y-73418194D01*
X54700660Y-73400778D01*
X54683391Y-73379604D01*
X54670564Y-73355479D01*
X54662666Y-73329322D01*
X54660000Y-73302129D01*
X54660000Y-72697871D01*
X54660014Y-72695916D01*
X54663059Y-72668763D01*
X54671321Y-72642719D01*
X54684484Y-72618776D01*
X54702047Y-72597845D01*
X54723341Y-72580724D01*
X54733309Y-72575513D01*
X54744591Y-72567409D01*
X54750409Y-72560000D01*
X54775323Y-72560000D01*
X54779854Y-72559794D01*
X54800974Y-72557872D01*
X54818612Y-72559726D01*
X54823838Y-72560000D01*
X55175323Y-72560000D01*
X55179854Y-72559794D01*
X55200974Y-72557872D01*
X55218612Y-72559726D01*
X55223838Y-72560000D01*
X55575323Y-72560000D01*
X55579854Y-72559794D01*
X55600974Y-72557872D01*
X55618612Y-72559726D01*
X55623838Y-72560000D01*
X55975323Y-72560000D01*
X55979854Y-72559794D01*
X56000974Y-72557872D01*
X56018612Y-72559726D01*
X56023838Y-72560000D01*
X56375323Y-72560000D01*
X56379854Y-72559794D01*
X56400974Y-72557872D01*
X56418612Y-72559726D01*
X56423838Y-72560000D01*
X56775323Y-72560000D01*
X56779854Y-72559794D01*
X56800974Y-72557872D01*
X56818612Y-72559726D01*
X56823838Y-72560000D01*
X57175323Y-72560000D01*
X57179854Y-72559794D01*
X57200974Y-72557872D01*
X57218612Y-72559726D01*
X57218612Y-72559726D01*
G37*
G36*
X60665000Y-73440000D02*
X59835000Y-73440000D01*
X59835000Y-72560000D01*
X60665000Y-72560000D01*
X60665000Y-73440000D01*
X60665000Y-73440000D01*
G37*
G36*
X51840000Y-72240000D02*
X51160000Y-72240000D01*
X51160000Y-71260000D01*
X51840000Y-71260000D01*
X51840000Y-72240000D01*
X51840000Y-72240000D01*
G37*
G36*
X50340000Y-72240000D02*
X49660000Y-72240000D01*
X49660000Y-71260000D01*
X50340000Y-71260000D01*
X50340000Y-72240000D01*
X50340000Y-72240000D01*
G37*
G36*
X97660000Y-70965000D02*
X96830000Y-70965000D01*
X96830000Y-69685000D01*
X97660000Y-69685000D01*
X97660000Y-70965000D01*
X97660000Y-70965000D01*
G37*
G36*
X96210000Y-70965000D02*
X95380000Y-70965000D01*
X95380000Y-69685000D01*
X96210000Y-69685000D01*
X96210000Y-70965000D01*
X96210000Y-70965000D01*
G37*
G36*
X77775000Y-69870000D02*
X75145000Y-69870000D01*
X75145000Y-67290000D01*
X77775000Y-67290000D01*
X77775000Y-69870000D01*
X77775000Y-69870000D01*
G37*
G36*
X58725000Y-69870000D02*
X56095000Y-69870000D01*
X56095000Y-67290000D01*
X58725000Y-67290000D01*
X58725000Y-69870000D01*
X58725000Y-69870000D01*
G37*
G36*
X39675000Y-69870000D02*
X37045000Y-69870000D01*
X37045000Y-67290000D01*
X39675000Y-67290000D01*
X39675000Y-69870000D01*
X39675000Y-69870000D01*
G37*
G36*
X91225000Y-67330000D02*
X88595000Y-67330000D01*
X88595000Y-64750000D01*
X91225000Y-64750000D01*
X91225000Y-67330000D01*
X91225000Y-67330000D01*
G37*
G36*
X53125000Y-67330000D02*
X50495000Y-67330000D01*
X50495000Y-64750000D01*
X53125000Y-64750000D01*
X53125000Y-67330000D01*
X53125000Y-67330000D01*
G37*
G36*
X72175000Y-67330000D02*
X69545000Y-67330000D01*
X69545000Y-64750000D01*
X72175000Y-64750000D01*
X72175000Y-67330000D01*
X72175000Y-67330000D01*
G37*
G36*
X105430000Y-66980000D02*
X102850000Y-66980000D01*
X102850000Y-64350000D01*
X105430000Y-64350000D01*
X105430000Y-66980000D01*
X105430000Y-66980000D01*
G37*
G36*
X54440000Y-65415000D02*
X53560000Y-65415000D01*
X53560000Y-64585000D01*
X54440000Y-64585000D01*
X54440000Y-65415000D01*
X54440000Y-65415000D01*
G37*
G36*
X55940000Y-65415000D02*
X55060000Y-65415000D01*
X55060000Y-64585000D01*
X55940000Y-64585000D01*
X55940000Y-65415000D01*
X55940000Y-65415000D01*
G37*
G36*
X55940000Y-63915000D02*
X55060000Y-63915000D01*
X55060000Y-63085000D01*
X55940000Y-63085000D01*
X55940000Y-63915000D01*
X55940000Y-63915000D01*
G37*
G36*
X54440000Y-63915000D02*
X53560000Y-63915000D01*
X53560000Y-63085000D01*
X54440000Y-63085000D01*
X54440000Y-63915000D01*
X54440000Y-63915000D01*
G37*
G36*
X102510212Y-61810019D02*
X102514991Y-61810053D01*
X102619723Y-61821800D01*
X102720180Y-61853667D01*
X102812533Y-61904439D01*
X102893266Y-61972182D01*
X102959304Y-62054316D01*
X103008130Y-62147712D01*
X103037886Y-62248814D01*
X103037889Y-62248848D01*
X103037893Y-62248861D01*
X103047441Y-62353768D01*
X103036428Y-62458534D01*
X103036427Y-62458539D01*
X103036422Y-62458582D01*
X103005257Y-62559258D01*
X102955131Y-62651964D01*
X102887953Y-62733168D01*
X102806282Y-62799777D01*
X102713229Y-62849255D01*
X102612338Y-62879716D01*
X102507451Y-62890000D01*
X100492517Y-62890000D01*
X100489788Y-62889981D01*
X100485009Y-62889947D01*
X100380277Y-62878200D01*
X100279820Y-62846333D01*
X100187467Y-62795561D01*
X100106734Y-62727818D01*
X100040696Y-62645684D01*
X99991870Y-62552288D01*
X99962114Y-62451186D01*
X99962111Y-62451152D01*
X99962107Y-62451139D01*
X99952559Y-62346232D01*
X99963572Y-62241466D01*
X99963573Y-62241461D01*
X99963578Y-62241418D01*
X99994743Y-62140742D01*
X100044869Y-62048036D01*
X100112047Y-61966832D01*
X100193718Y-61900223D01*
X100286771Y-61850745D01*
X100387662Y-61820284D01*
X100492549Y-61810000D01*
X102507483Y-61810000D01*
X102510212Y-61810019D01*
X102510212Y-61810019D01*
G37*
G36*
X57288155Y-61061744D02*
X57288168Y-61061748D01*
X57288205Y-61061752D01*
X57323628Y-61072717D01*
X57356247Y-61090354D01*
X57384818Y-61113991D01*
X57408255Y-61142727D01*
X57425664Y-61175468D01*
X57436381Y-61210966D01*
X57440000Y-61247871D01*
X57440000Y-61752174D01*
X57439996Y-61752760D01*
X57439995Y-61752765D01*
X57439981Y-61754782D01*
X57435848Y-61791632D01*
X57424636Y-61826978D01*
X57406772Y-61859473D01*
X57382936Y-61887879D01*
X57354037Y-61911114D01*
X57321175Y-61928294D01*
X57285602Y-61938764D01*
X57285568Y-61938767D01*
X57285555Y-61938771D01*
X57248676Y-61942127D01*
X57211845Y-61938256D01*
X57211832Y-61938252D01*
X57211795Y-61938248D01*
X57176372Y-61927283D01*
X57143753Y-61909646D01*
X57115182Y-61886009D01*
X57091745Y-61857273D01*
X57074336Y-61824532D01*
X57063619Y-61789034D01*
X57060000Y-61752129D01*
X57060000Y-61247826D01*
X57060004Y-61247240D01*
X57060005Y-61247235D01*
X57060019Y-61245218D01*
X57064152Y-61208368D01*
X57075364Y-61173022D01*
X57093228Y-61140527D01*
X57117064Y-61112121D01*
X57145963Y-61088886D01*
X57178825Y-61071706D01*
X57214398Y-61061236D01*
X57214432Y-61061233D01*
X57214445Y-61061229D01*
X57251324Y-61057873D01*
X57288155Y-61061744D01*
X57288155Y-61061744D01*
G37*
G36*
X56788155Y-61061744D02*
X56788168Y-61061748D01*
X56788205Y-61061752D01*
X56823628Y-61072717D01*
X56856247Y-61090354D01*
X56884818Y-61113991D01*
X56908255Y-61142727D01*
X56925664Y-61175468D01*
X56936381Y-61210966D01*
X56940000Y-61247871D01*
X56940000Y-61752174D01*
X56939996Y-61752760D01*
X56939995Y-61752765D01*
X56939981Y-61754782D01*
X56935848Y-61791632D01*
X56924636Y-61826978D01*
X56906772Y-61859473D01*
X56882936Y-61887879D01*
X56854037Y-61911114D01*
X56821175Y-61928294D01*
X56785602Y-61938764D01*
X56785568Y-61938767D01*
X56785555Y-61938771D01*
X56748676Y-61942127D01*
X56711845Y-61938256D01*
X56711832Y-61938252D01*
X56711795Y-61938248D01*
X56676372Y-61927283D01*
X56643753Y-61909646D01*
X56615182Y-61886009D01*
X56591745Y-61857273D01*
X56574336Y-61824532D01*
X56563619Y-61789034D01*
X56560000Y-61752129D01*
X56560000Y-61247826D01*
X56560004Y-61247240D01*
X56560005Y-61247235D01*
X56560019Y-61245218D01*
X56564152Y-61208368D01*
X56575364Y-61173022D01*
X56593228Y-61140527D01*
X56617064Y-61112121D01*
X56645963Y-61088886D01*
X56678825Y-61071706D01*
X56714398Y-61061236D01*
X56714432Y-61061233D01*
X56714445Y-61061229D01*
X56751324Y-61057873D01*
X56788155Y-61061744D01*
X56788155Y-61061744D01*
G37*
G36*
X56288155Y-61061744D02*
X56288168Y-61061748D01*
X56288205Y-61061752D01*
X56323628Y-61072717D01*
X56356247Y-61090354D01*
X56384818Y-61113991D01*
X56408255Y-61142727D01*
X56425664Y-61175468D01*
X56436381Y-61210966D01*
X56440000Y-61247871D01*
X56440000Y-61752174D01*
X56439996Y-61752760D01*
X56439995Y-61752765D01*
X56439981Y-61754782D01*
X56435848Y-61791632D01*
X56424636Y-61826978D01*
X56406772Y-61859473D01*
X56382936Y-61887879D01*
X56354037Y-61911114D01*
X56321175Y-61928294D01*
X56285602Y-61938764D01*
X56285568Y-61938767D01*
X56285555Y-61938771D01*
X56248676Y-61942127D01*
X56211845Y-61938256D01*
X56211832Y-61938252D01*
X56211795Y-61938248D01*
X56176372Y-61927283D01*
X56143753Y-61909646D01*
X56115182Y-61886009D01*
X56091745Y-61857273D01*
X56074336Y-61824532D01*
X56063619Y-61789034D01*
X56060000Y-61752129D01*
X56060000Y-61247826D01*
X56060004Y-61247240D01*
X56060005Y-61247235D01*
X56060019Y-61245218D01*
X56064152Y-61208368D01*
X56075364Y-61173022D01*
X56093228Y-61140527D01*
X56117064Y-61112121D01*
X56145963Y-61088886D01*
X56178825Y-61071706D01*
X56214398Y-61061236D01*
X56214432Y-61061233D01*
X56214445Y-61061229D01*
X56251324Y-61057873D01*
X56288155Y-61061744D01*
X56288155Y-61061744D01*
G37*
G36*
X49788155Y-61061744D02*
X49788168Y-61061748D01*
X49788205Y-61061752D01*
X49823628Y-61072717D01*
X49856247Y-61090354D01*
X49884818Y-61113991D01*
X49908255Y-61142727D01*
X49925664Y-61175468D01*
X49936381Y-61210966D01*
X49940000Y-61247871D01*
X49940000Y-61752174D01*
X49939996Y-61752760D01*
X49939995Y-61752765D01*
X49939981Y-61754782D01*
X49935848Y-61791632D01*
X49924636Y-61826978D01*
X49906772Y-61859473D01*
X49882936Y-61887879D01*
X49854037Y-61911114D01*
X49821175Y-61928294D01*
X49785602Y-61938764D01*
X49785568Y-61938767D01*
X49785555Y-61938771D01*
X49748676Y-61942127D01*
X49711845Y-61938256D01*
X49711832Y-61938252D01*
X49711795Y-61938248D01*
X49676372Y-61927283D01*
X49643753Y-61909646D01*
X49615182Y-61886009D01*
X49591745Y-61857273D01*
X49574336Y-61824532D01*
X49563619Y-61789034D01*
X49560000Y-61752129D01*
X49560000Y-61247826D01*
X49560004Y-61247240D01*
X49560005Y-61247235D01*
X49560019Y-61245218D01*
X49564152Y-61208368D01*
X49575364Y-61173022D01*
X49593228Y-61140527D01*
X49617064Y-61112121D01*
X49645963Y-61088886D01*
X49678825Y-61071706D01*
X49714398Y-61061236D01*
X49714432Y-61061233D01*
X49714445Y-61061229D01*
X49751324Y-61057873D01*
X49788155Y-61061744D01*
X49788155Y-61061744D01*
G37*
G36*
X50288155Y-61061744D02*
X50288168Y-61061748D01*
X50288205Y-61061752D01*
X50323628Y-61072717D01*
X50356247Y-61090354D01*
X50384818Y-61113991D01*
X50408255Y-61142727D01*
X50425664Y-61175468D01*
X50436381Y-61210966D01*
X50440000Y-61247871D01*
X50440000Y-61752174D01*
X50439996Y-61752760D01*
X50439995Y-61752765D01*
X50439981Y-61754782D01*
X50435848Y-61791632D01*
X50424636Y-61826978D01*
X50406772Y-61859473D01*
X50382936Y-61887879D01*
X50354037Y-61911114D01*
X50321175Y-61928294D01*
X50285602Y-61938764D01*
X50285568Y-61938767D01*
X50285555Y-61938771D01*
X50248676Y-61942127D01*
X50211845Y-61938256D01*
X50211832Y-61938252D01*
X50211795Y-61938248D01*
X50176372Y-61927283D01*
X50143753Y-61909646D01*
X50115182Y-61886009D01*
X50091745Y-61857273D01*
X50074336Y-61824532D01*
X50063619Y-61789034D01*
X50060000Y-61752129D01*
X50060000Y-61247826D01*
X50060004Y-61247240D01*
X50060005Y-61247235D01*
X50060019Y-61245218D01*
X50064152Y-61208368D01*
X50075364Y-61173022D01*
X50093228Y-61140527D01*
X50117064Y-61112121D01*
X50145963Y-61088886D01*
X50178825Y-61071706D01*
X50214398Y-61061236D01*
X50214432Y-61061233D01*
X50214445Y-61061229D01*
X50251324Y-61057873D01*
X50288155Y-61061744D01*
X50288155Y-61061744D01*
G37*
G36*
X50788155Y-61061744D02*
X50788168Y-61061748D01*
X50788205Y-61061752D01*
X50823628Y-61072717D01*
X50856247Y-61090354D01*
X50884818Y-61113991D01*
X50908255Y-61142727D01*
X50925664Y-61175468D01*
X50936381Y-61210966D01*
X50940000Y-61247871D01*
X50940000Y-61752174D01*
X50939996Y-61752760D01*
X50939995Y-61752765D01*
X50939981Y-61754782D01*
X50935848Y-61791632D01*
X50924636Y-61826978D01*
X50906772Y-61859473D01*
X50882936Y-61887879D01*
X50854037Y-61911114D01*
X50821175Y-61928294D01*
X50785602Y-61938764D01*
X50785568Y-61938767D01*
X50785555Y-61938771D01*
X50748676Y-61942127D01*
X50711845Y-61938256D01*
X50711832Y-61938252D01*
X50711795Y-61938248D01*
X50676372Y-61927283D01*
X50643753Y-61909646D01*
X50615182Y-61886009D01*
X50591745Y-61857273D01*
X50574336Y-61824532D01*
X50563619Y-61789034D01*
X50560000Y-61752129D01*
X50560000Y-61247826D01*
X50560004Y-61247240D01*
X50560005Y-61247235D01*
X50560019Y-61245218D01*
X50564152Y-61208368D01*
X50575364Y-61173022D01*
X50593228Y-61140527D01*
X50617064Y-61112121D01*
X50645963Y-61088886D01*
X50678825Y-61071706D01*
X50714398Y-61061236D01*
X50714432Y-61061233D01*
X50714445Y-61061229D01*
X50751324Y-61057873D01*
X50788155Y-61061744D01*
X50788155Y-61061744D01*
G37*
G36*
X51288155Y-61061744D02*
X51288168Y-61061748D01*
X51288205Y-61061752D01*
X51323628Y-61072717D01*
X51356247Y-61090354D01*
X51384818Y-61113991D01*
X51408255Y-61142727D01*
X51425664Y-61175468D01*
X51436381Y-61210966D01*
X51440000Y-61247871D01*
X51440000Y-61752174D01*
X51439996Y-61752760D01*
X51439995Y-61752765D01*
X51439981Y-61754782D01*
X51435848Y-61791632D01*
X51424636Y-61826978D01*
X51406772Y-61859473D01*
X51382936Y-61887879D01*
X51354037Y-61911114D01*
X51321175Y-61928294D01*
X51285602Y-61938764D01*
X51285568Y-61938767D01*
X51285555Y-61938771D01*
X51248676Y-61942127D01*
X51211845Y-61938256D01*
X51211832Y-61938252D01*
X51211795Y-61938248D01*
X51176372Y-61927283D01*
X51143753Y-61909646D01*
X51115182Y-61886009D01*
X51091745Y-61857273D01*
X51074336Y-61824532D01*
X51063619Y-61789034D01*
X51060000Y-61752129D01*
X51060000Y-61247826D01*
X51060004Y-61247240D01*
X51060005Y-61247235D01*
X51060019Y-61245218D01*
X51064152Y-61208368D01*
X51075364Y-61173022D01*
X51093228Y-61140527D01*
X51117064Y-61112121D01*
X51145963Y-61088886D01*
X51178825Y-61071706D01*
X51214398Y-61061236D01*
X51214432Y-61061233D01*
X51214445Y-61061229D01*
X51251324Y-61057873D01*
X51288155Y-61061744D01*
X51288155Y-61061744D01*
G37*
G36*
X55788155Y-61061744D02*
X55788168Y-61061748D01*
X55788205Y-61061752D01*
X55823628Y-61072717D01*
X55856247Y-61090354D01*
X55884818Y-61113991D01*
X55908255Y-61142727D01*
X55925664Y-61175468D01*
X55936381Y-61210966D01*
X55940000Y-61247871D01*
X55940000Y-61752174D01*
X55939996Y-61752760D01*
X55939995Y-61752765D01*
X55939981Y-61754782D01*
X55935848Y-61791632D01*
X55924636Y-61826978D01*
X55906772Y-61859473D01*
X55882936Y-61887879D01*
X55854037Y-61911114D01*
X55821175Y-61928294D01*
X55785602Y-61938764D01*
X55785568Y-61938767D01*
X55785555Y-61938771D01*
X55748676Y-61942127D01*
X55711845Y-61938256D01*
X55711832Y-61938252D01*
X55711795Y-61938248D01*
X55676372Y-61927283D01*
X55643753Y-61909646D01*
X55615182Y-61886009D01*
X55591745Y-61857273D01*
X55574336Y-61824532D01*
X55563619Y-61789034D01*
X55560000Y-61752129D01*
X55560000Y-61247826D01*
X55560004Y-61247240D01*
X55560005Y-61247235D01*
X55560019Y-61245218D01*
X55564152Y-61208368D01*
X55575364Y-61173022D01*
X55593228Y-61140527D01*
X55617064Y-61112121D01*
X55645963Y-61088886D01*
X55678825Y-61071706D01*
X55714398Y-61061236D01*
X55714432Y-61061233D01*
X55714445Y-61061229D01*
X55751324Y-61057873D01*
X55788155Y-61061744D01*
X55788155Y-61061744D01*
G37*
G36*
X55288155Y-61061744D02*
X55288168Y-61061748D01*
X55288205Y-61061752D01*
X55323628Y-61072717D01*
X55356247Y-61090354D01*
X55384818Y-61113991D01*
X55408255Y-61142727D01*
X55425664Y-61175468D01*
X55436381Y-61210966D01*
X55440000Y-61247871D01*
X55440000Y-61752174D01*
X55439996Y-61752760D01*
X55439995Y-61752765D01*
X55439981Y-61754782D01*
X55435848Y-61791632D01*
X55424636Y-61826978D01*
X55406772Y-61859473D01*
X55382936Y-61887879D01*
X55354037Y-61911114D01*
X55321175Y-61928294D01*
X55285602Y-61938764D01*
X55285568Y-61938767D01*
X55285555Y-61938771D01*
X55248676Y-61942127D01*
X55211845Y-61938256D01*
X55211832Y-61938252D01*
X55211795Y-61938248D01*
X55176372Y-61927283D01*
X55143753Y-61909646D01*
X55115182Y-61886009D01*
X55091745Y-61857273D01*
X55074336Y-61824532D01*
X55063619Y-61789034D01*
X55060000Y-61752129D01*
X55060000Y-61247826D01*
X55060004Y-61247240D01*
X55060005Y-61247235D01*
X55060019Y-61245218D01*
X55064152Y-61208368D01*
X55075364Y-61173022D01*
X55093228Y-61140527D01*
X55117064Y-61112121D01*
X55145963Y-61088886D01*
X55178825Y-61071706D01*
X55214398Y-61061236D01*
X55214432Y-61061233D01*
X55214445Y-61061229D01*
X55251324Y-61057873D01*
X55288155Y-61061744D01*
X55288155Y-61061744D01*
G37*
G36*
X51788155Y-61061744D02*
X51788168Y-61061748D01*
X51788205Y-61061752D01*
X51823628Y-61072717D01*
X51856247Y-61090354D01*
X51884818Y-61113991D01*
X51908255Y-61142727D01*
X51925664Y-61175468D01*
X51936381Y-61210966D01*
X51940000Y-61247871D01*
X51940000Y-61752174D01*
X51939996Y-61752760D01*
X51939995Y-61752765D01*
X51939981Y-61754782D01*
X51935848Y-61791632D01*
X51924636Y-61826978D01*
X51906772Y-61859473D01*
X51882936Y-61887879D01*
X51854037Y-61911114D01*
X51821175Y-61928294D01*
X51785602Y-61938764D01*
X51785568Y-61938767D01*
X51785555Y-61938771D01*
X51748676Y-61942127D01*
X51711845Y-61938256D01*
X51711832Y-61938252D01*
X51711795Y-61938248D01*
X51676372Y-61927283D01*
X51643753Y-61909646D01*
X51615182Y-61886009D01*
X51591745Y-61857273D01*
X51574336Y-61824532D01*
X51563619Y-61789034D01*
X51560000Y-61752129D01*
X51560000Y-61247826D01*
X51560004Y-61247240D01*
X51560005Y-61247235D01*
X51560019Y-61245218D01*
X51564152Y-61208368D01*
X51575364Y-61173022D01*
X51593228Y-61140527D01*
X51617064Y-61112121D01*
X51645963Y-61088886D01*
X51678825Y-61071706D01*
X51714398Y-61061236D01*
X51714432Y-61061233D01*
X51714445Y-61061229D01*
X51751324Y-61057873D01*
X51788155Y-61061744D01*
X51788155Y-61061744D01*
G37*
G36*
X52288155Y-61061744D02*
X52288168Y-61061748D01*
X52288205Y-61061752D01*
X52323628Y-61072717D01*
X52356247Y-61090354D01*
X52384818Y-61113991D01*
X52408255Y-61142727D01*
X52425664Y-61175468D01*
X52436381Y-61210966D01*
X52440000Y-61247871D01*
X52440000Y-61752174D01*
X52439996Y-61752760D01*
X52439995Y-61752765D01*
X52439981Y-61754782D01*
X52435848Y-61791632D01*
X52424636Y-61826978D01*
X52406772Y-61859473D01*
X52382936Y-61887879D01*
X52354037Y-61911114D01*
X52321175Y-61928294D01*
X52285602Y-61938764D01*
X52285568Y-61938767D01*
X52285555Y-61938771D01*
X52248676Y-61942127D01*
X52211845Y-61938256D01*
X52211832Y-61938252D01*
X52211795Y-61938248D01*
X52176372Y-61927283D01*
X52143753Y-61909646D01*
X52115182Y-61886009D01*
X52091745Y-61857273D01*
X52074336Y-61824532D01*
X52063619Y-61789034D01*
X52060000Y-61752129D01*
X52060000Y-61247826D01*
X52060004Y-61247240D01*
X52060005Y-61247235D01*
X52060019Y-61245218D01*
X52064152Y-61208368D01*
X52075364Y-61173022D01*
X52093228Y-61140527D01*
X52117064Y-61112121D01*
X52145963Y-61088886D01*
X52178825Y-61071706D01*
X52214398Y-61061236D01*
X52214432Y-61061233D01*
X52214445Y-61061229D01*
X52251324Y-61057873D01*
X52288155Y-61061744D01*
X52288155Y-61061744D01*
G37*
G36*
X52788155Y-61061744D02*
X52788168Y-61061748D01*
X52788205Y-61061752D01*
X52823628Y-61072717D01*
X52856247Y-61090354D01*
X52884818Y-61113991D01*
X52908255Y-61142727D01*
X52925664Y-61175468D01*
X52936381Y-61210966D01*
X52940000Y-61247871D01*
X52940000Y-61752174D01*
X52939996Y-61752760D01*
X52939995Y-61752765D01*
X52939981Y-61754782D01*
X52935848Y-61791632D01*
X52924636Y-61826978D01*
X52906772Y-61859473D01*
X52882936Y-61887879D01*
X52854037Y-61911114D01*
X52821175Y-61928294D01*
X52785602Y-61938764D01*
X52785568Y-61938767D01*
X52785555Y-61938771D01*
X52748676Y-61942127D01*
X52711845Y-61938256D01*
X52711832Y-61938252D01*
X52711795Y-61938248D01*
X52676372Y-61927283D01*
X52643753Y-61909646D01*
X52615182Y-61886009D01*
X52591745Y-61857273D01*
X52574336Y-61824532D01*
X52563619Y-61789034D01*
X52560000Y-61752129D01*
X52560000Y-61247826D01*
X52560004Y-61247240D01*
X52560005Y-61247235D01*
X52560019Y-61245218D01*
X52564152Y-61208368D01*
X52575364Y-61173022D01*
X52593228Y-61140527D01*
X52617064Y-61112121D01*
X52645963Y-61088886D01*
X52678825Y-61071706D01*
X52714398Y-61061236D01*
X52714432Y-61061233D01*
X52714445Y-61061229D01*
X52751324Y-61057873D01*
X52788155Y-61061744D01*
X52788155Y-61061744D01*
G37*
G36*
X53288155Y-61061744D02*
X53288168Y-61061748D01*
X53288205Y-61061752D01*
X53323628Y-61072717D01*
X53356247Y-61090354D01*
X53384818Y-61113991D01*
X53408255Y-61142727D01*
X53425664Y-61175468D01*
X53436381Y-61210966D01*
X53440000Y-61247871D01*
X53440000Y-61752174D01*
X53439996Y-61752760D01*
X53439995Y-61752765D01*
X53439981Y-61754782D01*
X53435848Y-61791632D01*
X53424636Y-61826978D01*
X53406772Y-61859473D01*
X53382936Y-61887879D01*
X53354037Y-61911114D01*
X53321175Y-61928294D01*
X53285602Y-61938764D01*
X53285568Y-61938767D01*
X53285555Y-61938771D01*
X53248676Y-61942127D01*
X53211845Y-61938256D01*
X53211832Y-61938252D01*
X53211795Y-61938248D01*
X53176372Y-61927283D01*
X53143753Y-61909646D01*
X53115182Y-61886009D01*
X53091745Y-61857273D01*
X53074336Y-61824532D01*
X53063619Y-61789034D01*
X53060000Y-61752129D01*
X53060000Y-61247826D01*
X53060004Y-61247240D01*
X53060005Y-61247235D01*
X53060019Y-61245218D01*
X53064152Y-61208368D01*
X53075364Y-61173022D01*
X53093228Y-61140527D01*
X53117064Y-61112121D01*
X53145963Y-61088886D01*
X53178825Y-61071706D01*
X53214398Y-61061236D01*
X53214432Y-61061233D01*
X53214445Y-61061229D01*
X53251324Y-61057873D01*
X53288155Y-61061744D01*
X53288155Y-61061744D01*
G37*
G36*
X54788155Y-61061744D02*
X54788168Y-61061748D01*
X54788205Y-61061752D01*
X54823628Y-61072717D01*
X54856247Y-61090354D01*
X54884818Y-61113991D01*
X54908255Y-61142727D01*
X54925664Y-61175468D01*
X54936381Y-61210966D01*
X54940000Y-61247871D01*
X54940000Y-61752174D01*
X54939996Y-61752760D01*
X54939995Y-61752765D01*
X54939981Y-61754782D01*
X54935848Y-61791632D01*
X54924636Y-61826978D01*
X54906772Y-61859473D01*
X54882936Y-61887879D01*
X54854037Y-61911114D01*
X54821175Y-61928294D01*
X54785602Y-61938764D01*
X54785568Y-61938767D01*
X54785555Y-61938771D01*
X54748676Y-61942127D01*
X54711845Y-61938256D01*
X54711832Y-61938252D01*
X54711795Y-61938248D01*
X54676372Y-61927283D01*
X54643753Y-61909646D01*
X54615182Y-61886009D01*
X54591745Y-61857273D01*
X54574336Y-61824532D01*
X54563619Y-61789034D01*
X54560000Y-61752129D01*
X54560000Y-61247826D01*
X54560004Y-61247240D01*
X54560005Y-61247235D01*
X54560019Y-61245218D01*
X54564152Y-61208368D01*
X54575364Y-61173022D01*
X54593228Y-61140527D01*
X54617064Y-61112121D01*
X54645963Y-61088886D01*
X54678825Y-61071706D01*
X54714398Y-61061236D01*
X54714432Y-61061233D01*
X54714445Y-61061229D01*
X54751324Y-61057873D01*
X54788155Y-61061744D01*
X54788155Y-61061744D01*
G37*
G36*
X53788155Y-61061744D02*
X53788168Y-61061748D01*
X53788205Y-61061752D01*
X53823628Y-61072717D01*
X53856247Y-61090354D01*
X53884818Y-61113991D01*
X53908255Y-61142727D01*
X53925664Y-61175468D01*
X53936381Y-61210966D01*
X53940000Y-61247871D01*
X53940000Y-61752174D01*
X53939996Y-61752760D01*
X53939995Y-61752765D01*
X53939981Y-61754782D01*
X53935848Y-61791632D01*
X53924636Y-61826978D01*
X53906772Y-61859473D01*
X53882936Y-61887879D01*
X53854037Y-61911114D01*
X53821175Y-61928294D01*
X53785602Y-61938764D01*
X53785568Y-61938767D01*
X53785555Y-61938771D01*
X53748676Y-61942127D01*
X53711845Y-61938256D01*
X53711832Y-61938252D01*
X53711795Y-61938248D01*
X53676372Y-61927283D01*
X53643753Y-61909646D01*
X53615182Y-61886009D01*
X53591745Y-61857273D01*
X53574336Y-61824532D01*
X53563619Y-61789034D01*
X53560000Y-61752129D01*
X53560000Y-61247826D01*
X53560004Y-61247240D01*
X53560005Y-61247235D01*
X53560019Y-61245218D01*
X53564152Y-61208368D01*
X53575364Y-61173022D01*
X53593228Y-61140527D01*
X53617064Y-61112121D01*
X53645963Y-61088886D01*
X53678825Y-61071706D01*
X53714398Y-61061236D01*
X53714432Y-61061233D01*
X53714445Y-61061229D01*
X53751324Y-61057873D01*
X53788155Y-61061744D01*
X53788155Y-61061744D01*
G37*
G36*
X54288155Y-61061744D02*
X54288168Y-61061748D01*
X54288205Y-61061752D01*
X54323628Y-61072717D01*
X54356247Y-61090354D01*
X54384818Y-61113991D01*
X54408255Y-61142727D01*
X54425664Y-61175468D01*
X54436381Y-61210966D01*
X54440000Y-61247871D01*
X54440000Y-61752174D01*
X54439996Y-61752760D01*
X54439995Y-61752765D01*
X54439981Y-61754782D01*
X54435848Y-61791632D01*
X54424636Y-61826978D01*
X54406772Y-61859473D01*
X54382936Y-61887879D01*
X54354037Y-61911114D01*
X54321175Y-61928294D01*
X54285602Y-61938764D01*
X54285568Y-61938767D01*
X54285555Y-61938771D01*
X54248676Y-61942127D01*
X54211845Y-61938256D01*
X54211832Y-61938252D01*
X54211795Y-61938248D01*
X54176372Y-61927283D01*
X54143753Y-61909646D01*
X54115182Y-61886009D01*
X54091745Y-61857273D01*
X54074336Y-61824532D01*
X54063619Y-61789034D01*
X54060000Y-61752129D01*
X54060000Y-61247826D01*
X54060004Y-61247240D01*
X54060005Y-61247235D01*
X54060019Y-61245218D01*
X54064152Y-61208368D01*
X54075364Y-61173022D01*
X54093228Y-61140527D01*
X54117064Y-61112121D01*
X54145963Y-61088886D01*
X54178825Y-61071706D01*
X54214398Y-61061236D01*
X54214432Y-61061233D01*
X54214445Y-61061229D01*
X54251324Y-61057873D01*
X54288155Y-61061744D01*
X54288155Y-61061744D01*
G37*
G36*
X77810000Y-61430000D02*
X77130000Y-61430000D01*
X77130000Y-60350000D01*
X77810000Y-60350000D01*
X77810000Y-61430000D01*
X77810000Y-61430000D01*
G37*
G36*
X78760000Y-61430000D02*
X78080000Y-61430000D01*
X78080000Y-60350000D01*
X78760000Y-60350000D01*
X78760000Y-61430000D01*
X78760000Y-61430000D01*
G37*
G36*
X76860000Y-61430000D02*
X76180000Y-61430000D01*
X76180000Y-60350000D01*
X76860000Y-60350000D01*
X76860000Y-61430000D01*
X76860000Y-61430000D01*
G37*
G36*
X49252760Y-60560004D02*
X49252765Y-60560005D01*
X49254782Y-60560019D01*
X49291632Y-60564152D01*
X49326978Y-60575364D01*
X49359473Y-60593228D01*
X49387879Y-60617064D01*
X49411114Y-60645963D01*
X49428294Y-60678825D01*
X49438764Y-60714398D01*
X49438767Y-60714432D01*
X49438771Y-60714445D01*
X49442127Y-60751324D01*
X49438256Y-60788155D01*
X49438252Y-60788168D01*
X49438248Y-60788205D01*
X49427283Y-60823628D01*
X49409646Y-60856247D01*
X49386009Y-60884818D01*
X49357273Y-60908255D01*
X49324532Y-60925664D01*
X49289034Y-60936381D01*
X49252129Y-60940000D01*
X48747826Y-60940000D01*
X48747240Y-60939996D01*
X48747235Y-60939995D01*
X48745218Y-60939981D01*
X48708368Y-60935848D01*
X48673022Y-60924636D01*
X48640527Y-60906772D01*
X48612121Y-60882936D01*
X48588886Y-60854037D01*
X48571706Y-60821175D01*
X48561236Y-60785602D01*
X48561233Y-60785568D01*
X48561229Y-60785555D01*
X48557873Y-60748676D01*
X48561744Y-60711845D01*
X48561748Y-60711832D01*
X48561752Y-60711795D01*
X48572717Y-60676372D01*
X48590354Y-60643753D01*
X48613991Y-60615182D01*
X48642727Y-60591745D01*
X48675468Y-60574336D01*
X48710966Y-60563619D01*
X48747871Y-60560000D01*
X49252174Y-60560000D01*
X49252760Y-60560004D01*
X49252760Y-60560004D01*
G37*
G36*
X58252760Y-60560004D02*
X58252765Y-60560005D01*
X58254782Y-60560019D01*
X58291632Y-60564152D01*
X58326978Y-60575364D01*
X58359473Y-60593228D01*
X58387879Y-60617064D01*
X58411114Y-60645963D01*
X58428294Y-60678825D01*
X58438764Y-60714398D01*
X58438767Y-60714432D01*
X58438771Y-60714445D01*
X58442127Y-60751324D01*
X58438256Y-60788155D01*
X58438252Y-60788168D01*
X58438248Y-60788205D01*
X58427283Y-60823628D01*
X58409646Y-60856247D01*
X58386009Y-60884818D01*
X58357273Y-60908255D01*
X58324532Y-60925664D01*
X58289034Y-60936381D01*
X58252129Y-60940000D01*
X57747826Y-60940000D01*
X57747240Y-60939996D01*
X57747235Y-60939995D01*
X57745218Y-60939981D01*
X57708368Y-60935848D01*
X57673022Y-60924636D01*
X57640527Y-60906772D01*
X57612121Y-60882936D01*
X57588886Y-60854037D01*
X57571706Y-60821175D01*
X57561236Y-60785602D01*
X57561233Y-60785568D01*
X57561229Y-60785555D01*
X57557873Y-60748676D01*
X57561744Y-60711845D01*
X57561748Y-60711832D01*
X57561752Y-60711795D01*
X57572717Y-60676372D01*
X57590354Y-60643753D01*
X57613991Y-60615182D01*
X57642727Y-60591745D01*
X57675468Y-60574336D01*
X57710966Y-60563619D01*
X57747871Y-60560000D01*
X58252174Y-60560000D01*
X58252760Y-60560004D01*
X58252760Y-60560004D01*
G37*
G36*
X57290000Y-60790000D02*
X49710000Y-60790000D01*
X49710000Y-53210000D01*
X57290000Y-53210000D01*
X57290000Y-60790000D01*
X57290000Y-60790000D01*
G37*
G36*
X58252760Y-60060004D02*
X58252765Y-60060005D01*
X58254782Y-60060019D01*
X58291632Y-60064152D01*
X58326978Y-60075364D01*
X58359473Y-60093228D01*
X58387879Y-60117064D01*
X58411114Y-60145963D01*
X58428294Y-60178825D01*
X58438764Y-60214398D01*
X58438767Y-60214432D01*
X58438771Y-60214445D01*
X58442127Y-60251324D01*
X58438256Y-60288155D01*
X58438252Y-60288168D01*
X58438248Y-60288205D01*
X58427283Y-60323628D01*
X58409646Y-60356247D01*
X58386009Y-60384818D01*
X58357273Y-60408255D01*
X58324532Y-60425664D01*
X58289034Y-60436381D01*
X58252129Y-60440000D01*
X57747826Y-60440000D01*
X57747240Y-60439996D01*
X57747235Y-60439995D01*
X57745218Y-60439981D01*
X57708368Y-60435848D01*
X57673022Y-60424636D01*
X57640527Y-60406772D01*
X57612121Y-60382936D01*
X57588886Y-60354037D01*
X57571706Y-60321175D01*
X57561236Y-60285602D01*
X57561233Y-60285568D01*
X57561229Y-60285555D01*
X57557873Y-60248676D01*
X57561744Y-60211845D01*
X57561748Y-60211832D01*
X57561752Y-60211795D01*
X57572717Y-60176372D01*
X57590354Y-60143753D01*
X57613991Y-60115182D01*
X57642727Y-60091745D01*
X57675468Y-60074336D01*
X57710966Y-60063619D01*
X57747871Y-60060000D01*
X58252174Y-60060000D01*
X58252760Y-60060004D01*
X58252760Y-60060004D01*
G37*
G36*
X49252760Y-60060004D02*
X49252765Y-60060005D01*
X49254782Y-60060019D01*
X49291632Y-60064152D01*
X49326978Y-60075364D01*
X49359473Y-60093228D01*
X49387879Y-60117064D01*
X49411114Y-60145963D01*
X49428294Y-60178825D01*
X49438764Y-60214398D01*
X49438767Y-60214432D01*
X49438771Y-60214445D01*
X49442127Y-60251324D01*
X49438256Y-60288155D01*
X49438252Y-60288168D01*
X49438248Y-60288205D01*
X49427283Y-60323628D01*
X49409646Y-60356247D01*
X49386009Y-60384818D01*
X49357273Y-60408255D01*
X49324532Y-60425664D01*
X49289034Y-60436381D01*
X49252129Y-60440000D01*
X48747826Y-60440000D01*
X48747240Y-60439996D01*
X48747235Y-60439995D01*
X48745218Y-60439981D01*
X48708368Y-60435848D01*
X48673022Y-60424636D01*
X48640527Y-60406772D01*
X48612121Y-60382936D01*
X48588886Y-60354037D01*
X48571706Y-60321175D01*
X48561236Y-60285602D01*
X48561233Y-60285568D01*
X48561229Y-60285555D01*
X48557873Y-60248676D01*
X48561744Y-60211845D01*
X48561748Y-60211832D01*
X48561752Y-60211795D01*
X48572717Y-60176372D01*
X48590354Y-60143753D01*
X48613991Y-60115182D01*
X48642727Y-60091745D01*
X48675468Y-60074336D01*
X48710966Y-60063619D01*
X48747871Y-60060000D01*
X49252174Y-60060000D01*
X49252760Y-60060004D01*
X49252760Y-60060004D01*
G37*
G36*
X58252760Y-59560004D02*
X58252765Y-59560005D01*
X58254782Y-59560019D01*
X58291632Y-59564152D01*
X58326978Y-59575364D01*
X58359473Y-59593228D01*
X58387879Y-59617064D01*
X58411114Y-59645963D01*
X58428294Y-59678825D01*
X58438764Y-59714398D01*
X58438767Y-59714432D01*
X58438771Y-59714445D01*
X58442127Y-59751324D01*
X58438256Y-59788155D01*
X58438252Y-59788168D01*
X58438248Y-59788205D01*
X58427283Y-59823628D01*
X58409646Y-59856247D01*
X58386009Y-59884818D01*
X58357273Y-59908255D01*
X58324532Y-59925664D01*
X58289034Y-59936381D01*
X58252129Y-59940000D01*
X57747826Y-59940000D01*
X57747240Y-59939996D01*
X57747235Y-59939995D01*
X57745218Y-59939981D01*
X57708368Y-59935848D01*
X57673022Y-59924636D01*
X57640527Y-59906772D01*
X57612121Y-59882936D01*
X57588886Y-59854037D01*
X57571706Y-59821175D01*
X57561236Y-59785602D01*
X57561233Y-59785568D01*
X57561229Y-59785555D01*
X57557873Y-59748676D01*
X57561744Y-59711845D01*
X57561748Y-59711832D01*
X57561752Y-59711795D01*
X57572717Y-59676372D01*
X57590354Y-59643753D01*
X57613991Y-59615182D01*
X57642727Y-59591745D01*
X57675468Y-59574336D01*
X57710966Y-59563619D01*
X57747871Y-59560000D01*
X58252174Y-59560000D01*
X58252760Y-59560004D01*
X58252760Y-59560004D01*
G37*
G36*
X49252760Y-59560004D02*
X49252765Y-59560005D01*
X49254782Y-59560019D01*
X49291632Y-59564152D01*
X49326978Y-59575364D01*
X49359473Y-59593228D01*
X49387879Y-59617064D01*
X49411114Y-59645963D01*
X49428294Y-59678825D01*
X49438764Y-59714398D01*
X49438767Y-59714432D01*
X49438771Y-59714445D01*
X49442127Y-59751324D01*
X49438256Y-59788155D01*
X49438252Y-59788168D01*
X49438248Y-59788205D01*
X49427283Y-59823628D01*
X49409646Y-59856247D01*
X49386009Y-59884818D01*
X49357273Y-59908255D01*
X49324532Y-59925664D01*
X49289034Y-59936381D01*
X49252129Y-59940000D01*
X48747826Y-59940000D01*
X48747240Y-59939996D01*
X48747235Y-59939995D01*
X48745218Y-59939981D01*
X48708368Y-59935848D01*
X48673022Y-59924636D01*
X48640527Y-59906772D01*
X48612121Y-59882936D01*
X48588886Y-59854037D01*
X48571706Y-59821175D01*
X48561236Y-59785602D01*
X48561233Y-59785568D01*
X48561229Y-59785555D01*
X48557873Y-59748676D01*
X48561744Y-59711845D01*
X48561748Y-59711832D01*
X48561752Y-59711795D01*
X48572717Y-59676372D01*
X48590354Y-59643753D01*
X48613991Y-59615182D01*
X48642727Y-59591745D01*
X48675468Y-59574336D01*
X48710966Y-59563619D01*
X48747871Y-59560000D01*
X49252174Y-59560000D01*
X49252760Y-59560004D01*
X49252760Y-59560004D01*
G37*
G36*
X42390000Y-59560000D02*
X41110000Y-59560000D01*
X41110000Y-58730000D01*
X42390000Y-58730000D01*
X42390000Y-59560000D01*
X42390000Y-59560000D01*
G37*
G36*
X47790000Y-59560000D02*
X46510000Y-59560000D01*
X46510000Y-58730000D01*
X47790000Y-58730000D01*
X47790000Y-59560000D01*
X47790000Y-59560000D01*
G37*
G36*
X66840000Y-59560000D02*
X65560000Y-59560000D01*
X65560000Y-58730000D01*
X66840000Y-58730000D01*
X66840000Y-59560000D01*
X66840000Y-59560000D01*
G37*
G36*
X61440000Y-59560000D02*
X60160000Y-59560000D01*
X60160000Y-58730000D01*
X61440000Y-58730000D01*
X61440000Y-59560000D01*
X61440000Y-59560000D01*
G37*
G36*
X80490000Y-59560000D02*
X79210000Y-59560000D01*
X79210000Y-58730000D01*
X80490000Y-58730000D01*
X80490000Y-59560000D01*
X80490000Y-59560000D01*
G37*
G36*
X85890000Y-59560000D02*
X84610000Y-59560000D01*
X84610000Y-58730000D01*
X85890000Y-58730000D01*
X85890000Y-59560000D01*
X85890000Y-59560000D01*
G37*
G36*
X58252760Y-59060004D02*
X58252765Y-59060005D01*
X58254782Y-59060019D01*
X58291632Y-59064152D01*
X58326978Y-59075364D01*
X58359473Y-59093228D01*
X58387879Y-59117064D01*
X58411114Y-59145963D01*
X58428294Y-59178825D01*
X58438764Y-59214398D01*
X58438767Y-59214432D01*
X58438771Y-59214445D01*
X58442127Y-59251324D01*
X58438256Y-59288155D01*
X58438252Y-59288168D01*
X58438248Y-59288205D01*
X58427283Y-59323628D01*
X58409646Y-59356247D01*
X58386009Y-59384818D01*
X58357273Y-59408255D01*
X58324532Y-59425664D01*
X58289034Y-59436381D01*
X58252129Y-59440000D01*
X57747826Y-59440000D01*
X57747240Y-59439996D01*
X57747235Y-59439995D01*
X57745218Y-59439981D01*
X57708368Y-59435848D01*
X57673022Y-59424636D01*
X57640527Y-59406772D01*
X57612121Y-59382936D01*
X57588886Y-59354037D01*
X57571706Y-59321175D01*
X57561236Y-59285602D01*
X57561233Y-59285568D01*
X57561229Y-59285555D01*
X57557873Y-59248676D01*
X57561744Y-59211845D01*
X57561748Y-59211832D01*
X57561752Y-59211795D01*
X57572717Y-59176372D01*
X57590354Y-59143753D01*
X57613991Y-59115182D01*
X57642727Y-59091745D01*
X57675468Y-59074336D01*
X57710966Y-59063619D01*
X57747871Y-59060000D01*
X58252174Y-59060000D01*
X58252760Y-59060004D01*
X58252760Y-59060004D01*
G37*
G36*
X49252760Y-59060004D02*
X49252765Y-59060005D01*
X49254782Y-59060019D01*
X49291632Y-59064152D01*
X49326978Y-59075364D01*
X49359473Y-59093228D01*
X49387879Y-59117064D01*
X49411114Y-59145963D01*
X49428294Y-59178825D01*
X49438764Y-59214398D01*
X49438767Y-59214432D01*
X49438771Y-59214445D01*
X49442127Y-59251324D01*
X49438256Y-59288155D01*
X49438252Y-59288168D01*
X49438248Y-59288205D01*
X49427283Y-59323628D01*
X49409646Y-59356247D01*
X49386009Y-59384818D01*
X49357273Y-59408255D01*
X49324532Y-59425664D01*
X49289034Y-59436381D01*
X49252129Y-59440000D01*
X48747826Y-59440000D01*
X48747240Y-59439996D01*
X48747235Y-59439995D01*
X48745218Y-59439981D01*
X48708368Y-59435848D01*
X48673022Y-59424636D01*
X48640527Y-59406772D01*
X48612121Y-59382936D01*
X48588886Y-59354037D01*
X48571706Y-59321175D01*
X48561236Y-59285602D01*
X48561233Y-59285568D01*
X48561229Y-59285555D01*
X48557873Y-59248676D01*
X48561744Y-59211845D01*
X48561748Y-59211832D01*
X48561752Y-59211795D01*
X48572717Y-59176372D01*
X48590354Y-59143753D01*
X48613991Y-59115182D01*
X48642727Y-59091745D01*
X48675468Y-59074336D01*
X48710966Y-59063619D01*
X48747871Y-59060000D01*
X49252174Y-59060000D01*
X49252760Y-59060004D01*
X49252760Y-59060004D01*
G37*
G36*
X97840000Y-59340000D02*
X96460000Y-59340000D01*
X96460000Y-55860000D01*
X97840000Y-55860000D01*
X97840000Y-59340000D01*
X97840000Y-59340000D01*
G37*
G36*
X106540000Y-59340000D02*
X105160000Y-59340000D01*
X105160000Y-55860000D01*
X106540000Y-55860000D01*
X106540000Y-59340000D01*
X106540000Y-59340000D01*
G37*
G36*
X70240000Y-59090000D02*
X68760000Y-59090000D01*
X68760000Y-58060000D01*
X70240000Y-58060000D01*
X70240000Y-59090000D01*
X70240000Y-59090000D01*
G37*
G36*
X76860000Y-59030000D02*
X76180000Y-59030000D01*
X76180000Y-57950000D01*
X76860000Y-57950000D01*
X76860000Y-59030000D01*
X76860000Y-59030000D01*
G37*
G36*
X78760000Y-59030000D02*
X78080000Y-59030000D01*
X78080000Y-57950000D01*
X78760000Y-57950000D01*
X78760000Y-59030000D01*
X78760000Y-59030000D01*
G37*
G36*
X58252760Y-58560004D02*
X58252765Y-58560005D01*
X58254782Y-58560019D01*
X58291632Y-58564152D01*
X58326978Y-58575364D01*
X58359473Y-58593228D01*
X58387879Y-58617064D01*
X58411114Y-58645963D01*
X58428294Y-58678825D01*
X58438764Y-58714398D01*
X58438767Y-58714432D01*
X58438771Y-58714445D01*
X58442127Y-58751324D01*
X58438256Y-58788155D01*
X58438252Y-58788168D01*
X58438248Y-58788205D01*
X58427283Y-58823628D01*
X58409646Y-58856247D01*
X58386009Y-58884818D01*
X58357273Y-58908255D01*
X58324532Y-58925664D01*
X58289034Y-58936381D01*
X58252129Y-58940000D01*
X57747826Y-58940000D01*
X57747240Y-58939996D01*
X57747235Y-58939995D01*
X57745218Y-58939981D01*
X57708368Y-58935848D01*
X57673022Y-58924636D01*
X57640527Y-58906772D01*
X57612121Y-58882936D01*
X57588886Y-58854037D01*
X57571706Y-58821175D01*
X57561236Y-58785602D01*
X57561233Y-58785568D01*
X57561229Y-58785555D01*
X57557873Y-58748676D01*
X57561744Y-58711845D01*
X57561748Y-58711832D01*
X57561752Y-58711795D01*
X57572717Y-58676372D01*
X57590354Y-58643753D01*
X57613991Y-58615182D01*
X57642727Y-58591745D01*
X57675468Y-58574336D01*
X57710966Y-58563619D01*
X57747871Y-58560000D01*
X58252174Y-58560000D01*
X58252760Y-58560004D01*
X58252760Y-58560004D01*
G37*
G36*
X49252760Y-58560004D02*
X49252765Y-58560005D01*
X49254782Y-58560019D01*
X49291632Y-58564152D01*
X49326978Y-58575364D01*
X49359473Y-58593228D01*
X49387879Y-58617064D01*
X49411114Y-58645963D01*
X49428294Y-58678825D01*
X49438764Y-58714398D01*
X49438767Y-58714432D01*
X49438771Y-58714445D01*
X49442127Y-58751324D01*
X49438256Y-58788155D01*
X49438252Y-58788168D01*
X49438248Y-58788205D01*
X49427283Y-58823628D01*
X49409646Y-58856247D01*
X49386009Y-58884818D01*
X49357273Y-58908255D01*
X49324532Y-58925664D01*
X49289034Y-58936381D01*
X49252129Y-58940000D01*
X48747826Y-58940000D01*
X48747240Y-58939996D01*
X48747235Y-58939995D01*
X48745218Y-58939981D01*
X48708368Y-58935848D01*
X48673022Y-58924636D01*
X48640527Y-58906772D01*
X48612121Y-58882936D01*
X48588886Y-58854037D01*
X48571706Y-58821175D01*
X48561236Y-58785602D01*
X48561233Y-58785568D01*
X48561229Y-58785555D01*
X48557873Y-58748676D01*
X48561744Y-58711845D01*
X48561748Y-58711832D01*
X48561752Y-58711795D01*
X48572717Y-58676372D01*
X48590354Y-58643753D01*
X48613991Y-58615182D01*
X48642727Y-58591745D01*
X48675468Y-58574336D01*
X48710966Y-58563619D01*
X48747871Y-58560000D01*
X49252174Y-58560000D01*
X49252760Y-58560004D01*
X49252760Y-58560004D01*
G37*
G36*
X71440000Y-58690000D02*
X70610000Y-58690000D01*
X70610000Y-57460000D01*
X71440000Y-57460000D01*
X71440000Y-58690000D01*
X71440000Y-58690000D01*
G37*
G36*
X68390000Y-58690000D02*
X67560000Y-58690000D01*
X67560000Y-57460000D01*
X68390000Y-57460000D01*
X68390000Y-58690000D01*
X68390000Y-58690000D01*
G37*
G36*
X58252760Y-58060004D02*
X58252765Y-58060005D01*
X58254782Y-58060019D01*
X58291632Y-58064152D01*
X58326978Y-58075364D01*
X58359473Y-58093228D01*
X58387879Y-58117064D01*
X58411114Y-58145963D01*
X58428294Y-58178825D01*
X58438764Y-58214398D01*
X58438767Y-58214432D01*
X58438771Y-58214445D01*
X58442127Y-58251324D01*
X58438256Y-58288155D01*
X58438252Y-58288168D01*
X58438248Y-58288205D01*
X58427283Y-58323628D01*
X58409646Y-58356247D01*
X58386009Y-58384818D01*
X58357273Y-58408255D01*
X58324532Y-58425664D01*
X58289034Y-58436381D01*
X58252129Y-58440000D01*
X57747826Y-58440000D01*
X57747240Y-58439996D01*
X57747235Y-58439995D01*
X57745218Y-58439981D01*
X57708368Y-58435848D01*
X57673022Y-58424636D01*
X57640527Y-58406772D01*
X57612121Y-58382936D01*
X57588886Y-58354037D01*
X57571706Y-58321175D01*
X57561236Y-58285602D01*
X57561233Y-58285568D01*
X57561229Y-58285555D01*
X57557873Y-58248676D01*
X57561744Y-58211845D01*
X57561748Y-58211832D01*
X57561752Y-58211795D01*
X57572717Y-58176372D01*
X57590354Y-58143753D01*
X57613991Y-58115182D01*
X57642727Y-58091745D01*
X57675468Y-58074336D01*
X57710966Y-58063619D01*
X57747871Y-58060000D01*
X58252174Y-58060000D01*
X58252760Y-58060004D01*
X58252760Y-58060004D01*
G37*
G36*
X49252760Y-58060004D02*
X49252765Y-58060005D01*
X49254782Y-58060019D01*
X49291632Y-58064152D01*
X49326978Y-58075364D01*
X49359473Y-58093228D01*
X49387879Y-58117064D01*
X49411114Y-58145963D01*
X49428294Y-58178825D01*
X49438764Y-58214398D01*
X49438767Y-58214432D01*
X49438771Y-58214445D01*
X49442127Y-58251324D01*
X49438256Y-58288155D01*
X49438252Y-58288168D01*
X49438248Y-58288205D01*
X49427283Y-58323628D01*
X49409646Y-58356247D01*
X49386009Y-58384818D01*
X49357273Y-58408255D01*
X49324532Y-58425664D01*
X49289034Y-58436381D01*
X49252129Y-58440000D01*
X48747826Y-58440000D01*
X48747240Y-58439996D01*
X48747235Y-58439995D01*
X48745218Y-58439981D01*
X48708368Y-58435848D01*
X48673022Y-58424636D01*
X48640527Y-58406772D01*
X48612121Y-58382936D01*
X48588886Y-58354037D01*
X48571706Y-58321175D01*
X48561236Y-58285602D01*
X48561233Y-58285568D01*
X48561229Y-58285555D01*
X48557873Y-58248676D01*
X48561744Y-58211845D01*
X48561748Y-58211832D01*
X48561752Y-58211795D01*
X48572717Y-58176372D01*
X48590354Y-58143753D01*
X48613991Y-58115182D01*
X48642727Y-58091745D01*
X48675468Y-58074336D01*
X48710966Y-58063619D01*
X48747871Y-58060000D01*
X49252174Y-58060000D01*
X49252760Y-58060004D01*
X49252760Y-58060004D01*
G37*
G36*
X42390000Y-58110000D02*
X41110000Y-58110000D01*
X41110000Y-57280000D01*
X42390000Y-57280000D01*
X42390000Y-58110000D01*
X42390000Y-58110000D01*
G37*
G36*
X47790000Y-58110000D02*
X46510000Y-58110000D01*
X46510000Y-57280000D01*
X47790000Y-57280000D01*
X47790000Y-58110000D01*
X47790000Y-58110000D01*
G37*
G36*
X80490000Y-58110000D02*
X79210000Y-58110000D01*
X79210000Y-57280000D01*
X80490000Y-57280000D01*
X80490000Y-58110000D01*
X80490000Y-58110000D01*
G37*
G36*
X66840000Y-58110000D02*
X65560000Y-58110000D01*
X65560000Y-57280000D01*
X66840000Y-57280000D01*
X66840000Y-58110000D01*
X66840000Y-58110000D01*
G37*
G36*
X61440000Y-58110000D02*
X60160000Y-58110000D01*
X60160000Y-57280000D01*
X61440000Y-57280000D01*
X61440000Y-58110000D01*
X61440000Y-58110000D01*
G37*
G36*
X85890000Y-58110000D02*
X84610000Y-58110000D01*
X84610000Y-57280000D01*
X85890000Y-57280000D01*
X85890000Y-58110000D01*
X85890000Y-58110000D01*
G37*
G36*
X58252760Y-57560004D02*
X58252765Y-57560005D01*
X58254782Y-57560019D01*
X58291632Y-57564152D01*
X58326978Y-57575364D01*
X58359473Y-57593228D01*
X58387879Y-57617064D01*
X58411114Y-57645963D01*
X58428294Y-57678825D01*
X58438764Y-57714398D01*
X58438767Y-57714432D01*
X58438771Y-57714445D01*
X58442127Y-57751324D01*
X58438256Y-57788155D01*
X58438252Y-57788168D01*
X58438248Y-57788205D01*
X58427283Y-57823628D01*
X58409646Y-57856247D01*
X58386009Y-57884818D01*
X58357273Y-57908255D01*
X58324532Y-57925664D01*
X58289034Y-57936381D01*
X58252129Y-57940000D01*
X57747826Y-57940000D01*
X57747240Y-57939996D01*
X57747235Y-57939995D01*
X57745218Y-57939981D01*
X57708368Y-57935848D01*
X57673022Y-57924636D01*
X57640527Y-57906772D01*
X57612121Y-57882936D01*
X57588886Y-57854037D01*
X57571706Y-57821175D01*
X57561236Y-57785602D01*
X57561233Y-57785568D01*
X57561229Y-57785555D01*
X57557873Y-57748676D01*
X57561744Y-57711845D01*
X57561748Y-57711832D01*
X57561752Y-57711795D01*
X57572717Y-57676372D01*
X57590354Y-57643753D01*
X57613991Y-57615182D01*
X57642727Y-57591745D01*
X57675468Y-57574336D01*
X57710966Y-57563619D01*
X57747871Y-57560000D01*
X58252174Y-57560000D01*
X58252760Y-57560004D01*
X58252760Y-57560004D01*
G37*
G36*
X49252760Y-57560004D02*
X49252765Y-57560005D01*
X49254782Y-57560019D01*
X49291632Y-57564152D01*
X49326978Y-57575364D01*
X49359473Y-57593228D01*
X49387879Y-57617064D01*
X49411114Y-57645963D01*
X49428294Y-57678825D01*
X49438764Y-57714398D01*
X49438767Y-57714432D01*
X49438771Y-57714445D01*
X49442127Y-57751324D01*
X49438256Y-57788155D01*
X49438252Y-57788168D01*
X49438248Y-57788205D01*
X49427283Y-57823628D01*
X49409646Y-57856247D01*
X49386009Y-57884818D01*
X49357273Y-57908255D01*
X49324532Y-57925664D01*
X49289034Y-57936381D01*
X49252129Y-57940000D01*
X48747826Y-57940000D01*
X48747240Y-57939996D01*
X48747235Y-57939995D01*
X48745218Y-57939981D01*
X48708368Y-57935848D01*
X48673022Y-57924636D01*
X48640527Y-57906772D01*
X48612121Y-57882936D01*
X48588886Y-57854037D01*
X48571706Y-57821175D01*
X48561236Y-57785602D01*
X48561233Y-57785568D01*
X48561229Y-57785555D01*
X48557873Y-57748676D01*
X48561744Y-57711845D01*
X48561748Y-57711832D01*
X48561752Y-57711795D01*
X48572717Y-57676372D01*
X48590354Y-57643753D01*
X48613991Y-57615182D01*
X48642727Y-57591745D01*
X48675468Y-57574336D01*
X48710966Y-57563619D01*
X48747871Y-57560000D01*
X49252174Y-57560000D01*
X49252760Y-57560004D01*
X49252760Y-57560004D01*
G37*
G36*
X49252760Y-57060004D02*
X49252765Y-57060005D01*
X49254782Y-57060019D01*
X49291632Y-57064152D01*
X49326978Y-57075364D01*
X49359473Y-57093228D01*
X49387879Y-57117064D01*
X49411114Y-57145963D01*
X49428294Y-57178825D01*
X49438764Y-57214398D01*
X49438767Y-57214432D01*
X49438771Y-57214445D01*
X49442127Y-57251324D01*
X49438256Y-57288155D01*
X49438252Y-57288168D01*
X49438248Y-57288205D01*
X49427283Y-57323628D01*
X49409646Y-57356247D01*
X49386009Y-57384818D01*
X49357273Y-57408255D01*
X49324532Y-57425664D01*
X49289034Y-57436381D01*
X49252129Y-57440000D01*
X48747826Y-57440000D01*
X48747240Y-57439996D01*
X48747235Y-57439995D01*
X48745218Y-57439981D01*
X48708368Y-57435848D01*
X48673022Y-57424636D01*
X48640527Y-57406772D01*
X48612121Y-57382936D01*
X48588886Y-57354037D01*
X48571706Y-57321175D01*
X48561236Y-57285602D01*
X48561233Y-57285568D01*
X48561229Y-57285555D01*
X48557873Y-57248676D01*
X48561744Y-57211845D01*
X48561748Y-57211832D01*
X48561752Y-57211795D01*
X48572717Y-57176372D01*
X48590354Y-57143753D01*
X48613991Y-57115182D01*
X48642727Y-57091745D01*
X48675468Y-57074336D01*
X48710966Y-57063619D01*
X48747871Y-57060000D01*
X49252174Y-57060000D01*
X49252760Y-57060004D01*
X49252760Y-57060004D01*
G37*
G36*
X58252760Y-57060004D02*
X58252765Y-57060005D01*
X58254782Y-57060019D01*
X58291632Y-57064152D01*
X58326978Y-57075364D01*
X58359473Y-57093228D01*
X58387879Y-57117064D01*
X58411114Y-57145963D01*
X58428294Y-57178825D01*
X58438764Y-57214398D01*
X58438767Y-57214432D01*
X58438771Y-57214445D01*
X58442127Y-57251324D01*
X58438256Y-57288155D01*
X58438252Y-57288168D01*
X58438248Y-57288205D01*
X58427283Y-57323628D01*
X58409646Y-57356247D01*
X58386009Y-57384818D01*
X58357273Y-57408255D01*
X58324532Y-57425664D01*
X58289034Y-57436381D01*
X58252129Y-57440000D01*
X57747826Y-57440000D01*
X57747240Y-57439996D01*
X57747235Y-57439995D01*
X57745218Y-57439981D01*
X57708368Y-57435848D01*
X57673022Y-57424636D01*
X57640527Y-57406772D01*
X57612121Y-57382936D01*
X57588886Y-57354037D01*
X57571706Y-57321175D01*
X57561236Y-57285602D01*
X57561233Y-57285568D01*
X57561229Y-57285555D01*
X57557873Y-57248676D01*
X57561744Y-57211845D01*
X57561748Y-57211832D01*
X57561752Y-57211795D01*
X57572717Y-57176372D01*
X57590354Y-57143753D01*
X57613991Y-57115182D01*
X57642727Y-57091745D01*
X57675468Y-57074336D01*
X57710966Y-57063619D01*
X57747871Y-57060000D01*
X58252174Y-57060000D01*
X58252760Y-57060004D01*
X58252760Y-57060004D01*
G37*
G36*
X68646215Y-56060291D02*
X68730743Y-56077642D01*
X68810287Y-56111080D01*
X68881827Y-56159334D01*
X68942626Y-56220559D01*
X68990381Y-56292435D01*
X69023259Y-56372206D01*
X69039953Y-56456512D01*
X69039953Y-56456522D01*
X69040019Y-56456856D01*
X69038643Y-56555413D01*
X69038567Y-56555747D01*
X69038567Y-56555758D01*
X69019528Y-56639557D01*
X68984431Y-56718387D01*
X68934689Y-56788899D01*
X68872206Y-56848402D01*
X68799344Y-56894641D01*
X68718897Y-56925844D01*
X68633921Y-56940828D01*
X68547651Y-56939021D01*
X68463371Y-56920491D01*
X68384303Y-56885947D01*
X68313447Y-56836701D01*
X68253504Y-56774628D01*
X68206761Y-56702098D01*
X68174997Y-56621870D01*
X68159419Y-56536994D01*
X68160624Y-56450715D01*
X68178564Y-56366315D01*
X68212558Y-56287001D01*
X68261308Y-56215804D01*
X68322960Y-56155429D01*
X68395162Y-56108181D01*
X68475168Y-56075857D01*
X68559926Y-56059688D01*
X68646215Y-56060291D01*
X68646215Y-56060291D01*
G37*
G36*
X70446215Y-56060291D02*
X70530743Y-56077642D01*
X70610287Y-56111080D01*
X70681827Y-56159334D01*
X70742626Y-56220559D01*
X70790381Y-56292435D01*
X70823259Y-56372206D01*
X70839953Y-56456512D01*
X70839953Y-56456522D01*
X70840019Y-56456856D01*
X70838643Y-56555413D01*
X70838567Y-56555747D01*
X70838567Y-56555758D01*
X70819528Y-56639557D01*
X70784431Y-56718387D01*
X70734689Y-56788899D01*
X70672206Y-56848402D01*
X70599344Y-56894641D01*
X70518897Y-56925844D01*
X70433921Y-56940828D01*
X70347651Y-56939021D01*
X70263371Y-56920491D01*
X70184303Y-56885947D01*
X70113447Y-56836701D01*
X70053504Y-56774628D01*
X70006761Y-56702098D01*
X69974997Y-56621870D01*
X69959419Y-56536994D01*
X69960624Y-56450715D01*
X69978564Y-56366315D01*
X70012558Y-56287001D01*
X70061308Y-56215804D01*
X70122960Y-56155429D01*
X70195162Y-56108181D01*
X70275168Y-56075857D01*
X70359926Y-56059688D01*
X70446215Y-56060291D01*
X70446215Y-56060291D01*
G37*
G36*
X49252760Y-56560004D02*
X49252765Y-56560005D01*
X49254782Y-56560019D01*
X49291632Y-56564152D01*
X49326978Y-56575364D01*
X49359473Y-56593228D01*
X49387879Y-56617064D01*
X49411114Y-56645963D01*
X49428294Y-56678825D01*
X49438764Y-56714398D01*
X49438767Y-56714432D01*
X49438771Y-56714445D01*
X49442127Y-56751324D01*
X49438256Y-56788155D01*
X49438252Y-56788168D01*
X49438248Y-56788205D01*
X49427283Y-56823628D01*
X49409646Y-56856247D01*
X49386009Y-56884818D01*
X49357273Y-56908255D01*
X49324532Y-56925664D01*
X49289034Y-56936381D01*
X49252129Y-56940000D01*
X48747826Y-56940000D01*
X48747240Y-56939996D01*
X48747235Y-56939995D01*
X48745218Y-56939981D01*
X48708368Y-56935848D01*
X48673022Y-56924636D01*
X48640527Y-56906772D01*
X48612121Y-56882936D01*
X48588886Y-56854037D01*
X48571706Y-56821175D01*
X48561236Y-56785602D01*
X48561233Y-56785568D01*
X48561229Y-56785555D01*
X48557873Y-56748676D01*
X48561744Y-56711845D01*
X48561748Y-56711832D01*
X48561752Y-56711795D01*
X48572717Y-56676372D01*
X48590354Y-56643753D01*
X48613991Y-56615182D01*
X48642727Y-56591745D01*
X48675468Y-56574336D01*
X48710966Y-56563619D01*
X48747871Y-56560000D01*
X49252174Y-56560000D01*
X49252760Y-56560004D01*
X49252760Y-56560004D01*
G37*
G36*
X58252760Y-56560004D02*
X58252765Y-56560005D01*
X58254782Y-56560019D01*
X58291632Y-56564152D01*
X58326978Y-56575364D01*
X58359473Y-56593228D01*
X58387879Y-56617064D01*
X58411114Y-56645963D01*
X58428294Y-56678825D01*
X58438764Y-56714398D01*
X58438767Y-56714432D01*
X58438771Y-56714445D01*
X58442127Y-56751324D01*
X58438256Y-56788155D01*
X58438252Y-56788168D01*
X58438248Y-56788205D01*
X58427283Y-56823628D01*
X58409646Y-56856247D01*
X58386009Y-56884818D01*
X58357273Y-56908255D01*
X58324532Y-56925664D01*
X58289034Y-56936381D01*
X58252129Y-56940000D01*
X57747826Y-56940000D01*
X57747240Y-56939996D01*
X57747235Y-56939995D01*
X57745218Y-56939981D01*
X57708368Y-56935848D01*
X57673022Y-56924636D01*
X57640527Y-56906772D01*
X57612121Y-56882936D01*
X57588886Y-56854037D01*
X57571706Y-56821175D01*
X57561236Y-56785602D01*
X57561233Y-56785568D01*
X57561229Y-56785555D01*
X57557873Y-56748676D01*
X57561744Y-56711845D01*
X57561748Y-56711832D01*
X57561752Y-56711795D01*
X57572717Y-56676372D01*
X57590354Y-56643753D01*
X57613991Y-56615182D01*
X57642727Y-56591745D01*
X57675468Y-56574336D01*
X57710966Y-56563619D01*
X57747871Y-56560000D01*
X58252174Y-56560000D01*
X58252760Y-56560004D01*
X58252760Y-56560004D01*
G37*
G36*
X58252760Y-56060004D02*
X58252765Y-56060005D01*
X58254782Y-56060019D01*
X58291632Y-56064152D01*
X58326978Y-56075364D01*
X58359473Y-56093228D01*
X58387879Y-56117064D01*
X58411114Y-56145963D01*
X58428294Y-56178825D01*
X58438764Y-56214398D01*
X58438767Y-56214432D01*
X58438771Y-56214445D01*
X58442127Y-56251324D01*
X58438256Y-56288155D01*
X58438252Y-56288168D01*
X58438248Y-56288205D01*
X58427283Y-56323628D01*
X58409646Y-56356247D01*
X58386009Y-56384818D01*
X58357273Y-56408255D01*
X58324532Y-56425664D01*
X58289034Y-56436381D01*
X58252129Y-56440000D01*
X57747826Y-56440000D01*
X57747240Y-56439996D01*
X57747235Y-56439995D01*
X57745218Y-56439981D01*
X57708368Y-56435848D01*
X57673022Y-56424636D01*
X57640527Y-56406772D01*
X57612121Y-56382936D01*
X57588886Y-56354037D01*
X57571706Y-56321175D01*
X57561236Y-56285602D01*
X57561233Y-56285568D01*
X57561229Y-56285555D01*
X57557873Y-56248676D01*
X57561744Y-56211845D01*
X57561748Y-56211832D01*
X57561752Y-56211795D01*
X57572717Y-56176372D01*
X57590354Y-56143753D01*
X57613991Y-56115182D01*
X57642727Y-56091745D01*
X57675468Y-56074336D01*
X57710966Y-56063619D01*
X57747871Y-56060000D01*
X58252174Y-56060000D01*
X58252760Y-56060004D01*
X58252760Y-56060004D01*
G37*
G36*
X49252760Y-56060004D02*
X49252765Y-56060005D01*
X49254782Y-56060019D01*
X49291632Y-56064152D01*
X49326978Y-56075364D01*
X49359473Y-56093228D01*
X49387879Y-56117064D01*
X49411114Y-56145963D01*
X49428294Y-56178825D01*
X49438764Y-56214398D01*
X49438767Y-56214432D01*
X49438771Y-56214445D01*
X49442127Y-56251324D01*
X49438256Y-56288155D01*
X49438252Y-56288168D01*
X49438248Y-56288205D01*
X49427283Y-56323628D01*
X49409646Y-56356247D01*
X49386009Y-56384818D01*
X49357273Y-56408255D01*
X49324532Y-56425664D01*
X49289034Y-56436381D01*
X49252129Y-56440000D01*
X48747826Y-56440000D01*
X48747240Y-56439996D01*
X48747235Y-56439995D01*
X48745218Y-56439981D01*
X48708368Y-56435848D01*
X48673022Y-56424636D01*
X48640527Y-56406772D01*
X48612121Y-56382936D01*
X48588886Y-56354037D01*
X48571706Y-56321175D01*
X48561236Y-56285602D01*
X48561233Y-56285568D01*
X48561229Y-56285555D01*
X48557873Y-56248676D01*
X48561744Y-56211845D01*
X48561748Y-56211832D01*
X48561752Y-56211795D01*
X48572717Y-56176372D01*
X48590354Y-56143753D01*
X48613991Y-56115182D01*
X48642727Y-56091745D01*
X48675468Y-56074336D01*
X48710966Y-56063619D01*
X48747871Y-56060000D01*
X49252174Y-56060000D01*
X49252760Y-56060004D01*
X49252760Y-56060004D01*
G37*
G36*
X49252760Y-55560004D02*
X49252765Y-55560005D01*
X49254782Y-55560019D01*
X49291632Y-55564152D01*
X49326978Y-55575364D01*
X49359473Y-55593228D01*
X49387879Y-55617064D01*
X49411114Y-55645963D01*
X49428294Y-55678825D01*
X49438764Y-55714398D01*
X49438767Y-55714432D01*
X49438771Y-55714445D01*
X49442127Y-55751324D01*
X49438256Y-55788155D01*
X49438252Y-55788168D01*
X49438248Y-55788205D01*
X49427283Y-55823628D01*
X49409646Y-55856247D01*
X49386009Y-55884818D01*
X49357273Y-55908255D01*
X49324532Y-55925664D01*
X49289034Y-55936381D01*
X49252129Y-55940000D01*
X48747826Y-55940000D01*
X48747240Y-55939996D01*
X48747235Y-55939995D01*
X48745218Y-55939981D01*
X48708368Y-55935848D01*
X48673022Y-55924636D01*
X48640527Y-55906772D01*
X48612121Y-55882936D01*
X48588886Y-55854037D01*
X48571706Y-55821175D01*
X48561236Y-55785602D01*
X48561233Y-55785568D01*
X48561229Y-55785555D01*
X48557873Y-55748676D01*
X48561744Y-55711845D01*
X48561748Y-55711832D01*
X48561752Y-55711795D01*
X48572717Y-55676372D01*
X48590354Y-55643753D01*
X48613991Y-55615182D01*
X48642727Y-55591745D01*
X48675468Y-55574336D01*
X48710966Y-55563619D01*
X48747871Y-55560000D01*
X49252174Y-55560000D01*
X49252760Y-55560004D01*
X49252760Y-55560004D01*
G37*
G36*
X58252760Y-55560004D02*
X58252765Y-55560005D01*
X58254782Y-55560019D01*
X58291632Y-55564152D01*
X58326978Y-55575364D01*
X58359473Y-55593228D01*
X58387879Y-55617064D01*
X58411114Y-55645963D01*
X58428294Y-55678825D01*
X58438764Y-55714398D01*
X58438767Y-55714432D01*
X58438771Y-55714445D01*
X58442127Y-55751324D01*
X58438256Y-55788155D01*
X58438252Y-55788168D01*
X58438248Y-55788205D01*
X58427283Y-55823628D01*
X58409646Y-55856247D01*
X58386009Y-55884818D01*
X58357273Y-55908255D01*
X58324532Y-55925664D01*
X58289034Y-55936381D01*
X58252129Y-55940000D01*
X57747826Y-55940000D01*
X57747240Y-55939996D01*
X57747235Y-55939995D01*
X57745218Y-55939981D01*
X57708368Y-55935848D01*
X57673022Y-55924636D01*
X57640527Y-55906772D01*
X57612121Y-55882936D01*
X57588886Y-55854037D01*
X57571706Y-55821175D01*
X57561236Y-55785602D01*
X57561233Y-55785568D01*
X57561229Y-55785555D01*
X57557873Y-55748676D01*
X57561744Y-55711845D01*
X57561748Y-55711832D01*
X57561752Y-55711795D01*
X57572717Y-55676372D01*
X57590354Y-55643753D01*
X57613991Y-55615182D01*
X57642727Y-55591745D01*
X57675468Y-55574336D01*
X57710966Y-55563619D01*
X57747871Y-55560000D01*
X58252174Y-55560000D01*
X58252760Y-55560004D01*
X58252760Y-55560004D01*
G37*
G36*
X46940000Y-55915000D02*
X46060000Y-55915000D01*
X46060000Y-55085000D01*
X46940000Y-55085000D01*
X46940000Y-55915000D01*
X46940000Y-55915000D01*
G37*
G36*
X45440000Y-55915000D02*
X44560000Y-55915000D01*
X44560000Y-55085000D01*
X45440000Y-55085000D01*
X45440000Y-55915000D01*
X45440000Y-55915000D01*
G37*
G36*
X71440000Y-55540000D02*
X70610000Y-55540000D01*
X70610000Y-54310000D01*
X71440000Y-54310000D01*
X71440000Y-55540000D01*
X71440000Y-55540000D01*
G37*
G36*
X68390000Y-55540000D02*
X67560000Y-55540000D01*
X67560000Y-54310000D01*
X68390000Y-54310000D01*
X68390000Y-55540000D01*
X68390000Y-55540000D01*
G37*
G36*
X58252760Y-55060004D02*
X58252765Y-55060005D01*
X58254782Y-55060019D01*
X58291632Y-55064152D01*
X58326978Y-55075364D01*
X58359473Y-55093228D01*
X58387879Y-55117064D01*
X58411114Y-55145963D01*
X58428294Y-55178825D01*
X58438764Y-55214398D01*
X58438767Y-55214432D01*
X58438771Y-55214445D01*
X58442127Y-55251324D01*
X58438256Y-55288155D01*
X58438252Y-55288168D01*
X58438248Y-55288205D01*
X58427283Y-55323628D01*
X58409646Y-55356247D01*
X58386009Y-55384818D01*
X58357273Y-55408255D01*
X58324532Y-55425664D01*
X58289034Y-55436381D01*
X58252129Y-55440000D01*
X57747826Y-55440000D01*
X57747240Y-55439996D01*
X57747235Y-55439995D01*
X57745218Y-55439981D01*
X57708368Y-55435848D01*
X57673022Y-55424636D01*
X57640527Y-55406772D01*
X57612121Y-55382936D01*
X57588886Y-55354037D01*
X57571706Y-55321175D01*
X57561236Y-55285602D01*
X57561233Y-55285568D01*
X57561229Y-55285555D01*
X57557873Y-55248676D01*
X57561744Y-55211845D01*
X57561748Y-55211832D01*
X57561752Y-55211795D01*
X57572717Y-55176372D01*
X57590354Y-55143753D01*
X57613991Y-55115182D01*
X57642727Y-55091745D01*
X57675468Y-55074336D01*
X57710966Y-55063619D01*
X57747871Y-55060000D01*
X58252174Y-55060000D01*
X58252760Y-55060004D01*
X58252760Y-55060004D01*
G37*
G36*
X49252760Y-55060004D02*
X49252765Y-55060005D01*
X49254782Y-55060019D01*
X49291632Y-55064152D01*
X49326978Y-55075364D01*
X49359473Y-55093228D01*
X49387879Y-55117064D01*
X49411114Y-55145963D01*
X49428294Y-55178825D01*
X49438764Y-55214398D01*
X49438767Y-55214432D01*
X49438771Y-55214445D01*
X49442127Y-55251324D01*
X49438256Y-55288155D01*
X49438252Y-55288168D01*
X49438248Y-55288205D01*
X49427283Y-55323628D01*
X49409646Y-55356247D01*
X49386009Y-55384818D01*
X49357273Y-55408255D01*
X49324532Y-55425664D01*
X49289034Y-55436381D01*
X49252129Y-55440000D01*
X48747826Y-55440000D01*
X48747240Y-55439996D01*
X48747235Y-55439995D01*
X48745218Y-55439981D01*
X48708368Y-55435848D01*
X48673022Y-55424636D01*
X48640527Y-55406772D01*
X48612121Y-55382936D01*
X48588886Y-55354037D01*
X48571706Y-55321175D01*
X48561236Y-55285602D01*
X48561233Y-55285568D01*
X48561229Y-55285555D01*
X48557873Y-55248676D01*
X48561744Y-55211845D01*
X48561748Y-55211832D01*
X48561752Y-55211795D01*
X48572717Y-55176372D01*
X48590354Y-55143753D01*
X48613991Y-55115182D01*
X48642727Y-55091745D01*
X48675468Y-55074336D01*
X48710966Y-55063619D01*
X48747871Y-55060000D01*
X49252174Y-55060000D01*
X49252760Y-55060004D01*
X49252760Y-55060004D01*
G37*
G36*
X40136544Y-52700864D02*
X40386282Y-52752128D01*
X40621302Y-52850922D01*
X40832661Y-52993484D01*
X41012305Y-53174387D01*
X41153389Y-53386734D01*
X41250539Y-53622438D01*
X41299990Y-53872185D01*
X41299990Y-53872194D01*
X41300056Y-53872528D01*
X41295990Y-54163722D01*
X41295913Y-54164060D01*
X41295913Y-54164068D01*
X41239511Y-54412328D01*
X41135815Y-54645232D01*
X40988858Y-54853557D01*
X40804230Y-55029375D01*
X40588979Y-55165977D01*
X40351287Y-55258173D01*
X40100220Y-55302442D01*
X39845332Y-55297103D01*
X39596330Y-55242357D01*
X39362713Y-55140292D01*
X39153367Y-54994792D01*
X38976266Y-54811399D01*
X38838163Y-54597106D01*
X38744312Y-54360065D01*
X38698289Y-54109305D01*
X38701849Y-53854388D01*
X38754853Y-53605019D01*
X38855288Y-53370689D01*
X38999322Y-53160332D01*
X39181474Y-52981955D01*
X39394800Y-52842358D01*
X39631180Y-52746855D01*
X39881604Y-52699084D01*
X40136544Y-52700864D01*
X40136544Y-52700864D01*
G37*
G36*
X64590000Y-54990000D02*
X63110000Y-54990000D01*
X63110000Y-53710000D01*
X64590000Y-53710000D01*
X64590000Y-54990000D01*
X64590000Y-54990000D01*
G37*
G36*
X62390000Y-54990000D02*
X60910000Y-54990000D01*
X60910000Y-53710000D01*
X62390000Y-53710000D01*
X62390000Y-54990000D01*
X62390000Y-54990000D01*
G37*
G36*
X49252760Y-54560004D02*
X49252765Y-54560005D01*
X49254782Y-54560019D01*
X49291632Y-54564152D01*
X49326978Y-54575364D01*
X49359473Y-54593228D01*
X49387879Y-54617064D01*
X49411114Y-54645963D01*
X49428294Y-54678825D01*
X49438764Y-54714398D01*
X49438767Y-54714432D01*
X49438771Y-54714445D01*
X49442127Y-54751324D01*
X49438256Y-54788155D01*
X49438252Y-54788168D01*
X49438248Y-54788205D01*
X49427283Y-54823628D01*
X49409646Y-54856247D01*
X49386009Y-54884818D01*
X49357273Y-54908255D01*
X49324532Y-54925664D01*
X49289034Y-54936381D01*
X49252129Y-54940000D01*
X48747826Y-54940000D01*
X48747240Y-54939996D01*
X48747235Y-54939995D01*
X48745218Y-54939981D01*
X48708368Y-54935848D01*
X48673022Y-54924636D01*
X48640527Y-54906772D01*
X48612121Y-54882936D01*
X48588886Y-54854037D01*
X48571706Y-54821175D01*
X48561236Y-54785602D01*
X48561233Y-54785568D01*
X48561229Y-54785555D01*
X48557873Y-54748676D01*
X48561744Y-54711845D01*
X48561748Y-54711832D01*
X48561752Y-54711795D01*
X48572717Y-54676372D01*
X48590354Y-54643753D01*
X48613991Y-54615182D01*
X48642727Y-54591745D01*
X48675468Y-54574336D01*
X48710966Y-54563619D01*
X48747871Y-54560000D01*
X49252174Y-54560000D01*
X49252760Y-54560004D01*
X49252760Y-54560004D01*
G37*
G36*
X70240000Y-54940000D02*
X68760000Y-54940000D01*
X68760000Y-53910000D01*
X70240000Y-53910000D01*
X70240000Y-54940000D01*
X70240000Y-54940000D01*
G37*
G36*
X58252760Y-54560004D02*
X58252765Y-54560005D01*
X58254782Y-54560019D01*
X58291632Y-54564152D01*
X58326978Y-54575364D01*
X58359473Y-54593228D01*
X58387879Y-54617064D01*
X58411114Y-54645963D01*
X58428294Y-54678825D01*
X58438764Y-54714398D01*
X58438767Y-54714432D01*
X58438771Y-54714445D01*
X58442127Y-54751324D01*
X58438256Y-54788155D01*
X58438252Y-54788168D01*
X58438248Y-54788205D01*
X58427283Y-54823628D01*
X58409646Y-54856247D01*
X58386009Y-54884818D01*
X58357273Y-54908255D01*
X58324532Y-54925664D01*
X58289034Y-54936381D01*
X58252129Y-54940000D01*
X57747826Y-54940000D01*
X57747240Y-54939996D01*
X57747235Y-54939995D01*
X57745218Y-54939981D01*
X57708368Y-54935848D01*
X57673022Y-54924636D01*
X57640527Y-54906772D01*
X57612121Y-54882936D01*
X57588886Y-54854037D01*
X57571706Y-54821175D01*
X57561236Y-54785602D01*
X57561233Y-54785568D01*
X57561229Y-54785555D01*
X57557873Y-54748676D01*
X57561744Y-54711845D01*
X57561748Y-54711832D01*
X57561752Y-54711795D01*
X57572717Y-54676372D01*
X57590354Y-54643753D01*
X57613991Y-54615182D01*
X57642727Y-54591745D01*
X57675468Y-54574336D01*
X57710966Y-54563619D01*
X57747871Y-54560000D01*
X58252174Y-54560000D01*
X58252760Y-54560004D01*
X58252760Y-54560004D01*
G37*
G36*
X60165000Y-54690000D02*
X59335000Y-54690000D01*
X59335000Y-53810000D01*
X60165000Y-53810000D01*
X60165000Y-54690000D01*
X60165000Y-54690000D01*
G37*
G36*
X66165000Y-54690000D02*
X65335000Y-54690000D01*
X65335000Y-53810000D01*
X66165000Y-53810000D01*
X66165000Y-54690000D01*
X66165000Y-54690000D01*
G37*
G36*
X49252760Y-54060004D02*
X49252765Y-54060005D01*
X49254782Y-54060019D01*
X49291632Y-54064152D01*
X49326978Y-54075364D01*
X49359473Y-54093228D01*
X49387879Y-54117064D01*
X49411114Y-54145963D01*
X49428294Y-54178825D01*
X49438764Y-54214398D01*
X49438767Y-54214432D01*
X49438771Y-54214445D01*
X49442127Y-54251324D01*
X49438256Y-54288155D01*
X49438252Y-54288168D01*
X49438248Y-54288205D01*
X49427283Y-54323628D01*
X49409646Y-54356247D01*
X49386009Y-54384818D01*
X49357273Y-54408255D01*
X49324532Y-54425664D01*
X49289034Y-54436381D01*
X49252129Y-54440000D01*
X48747826Y-54440000D01*
X48747240Y-54439996D01*
X48747235Y-54439995D01*
X48745218Y-54439981D01*
X48708368Y-54435848D01*
X48673022Y-54424636D01*
X48640527Y-54406772D01*
X48612121Y-54382936D01*
X48588886Y-54354037D01*
X48571706Y-54321175D01*
X48561236Y-54285602D01*
X48561233Y-54285568D01*
X48561229Y-54285555D01*
X48557873Y-54248676D01*
X48561744Y-54211845D01*
X48561748Y-54211832D01*
X48561752Y-54211795D01*
X48572717Y-54176372D01*
X48590354Y-54143753D01*
X48613991Y-54115182D01*
X48642727Y-54091745D01*
X48675468Y-54074336D01*
X48710966Y-54063619D01*
X48747871Y-54060000D01*
X49252174Y-54060000D01*
X49252760Y-54060004D01*
X49252760Y-54060004D01*
G37*
G36*
X58252760Y-54060004D02*
X58252765Y-54060005D01*
X58254782Y-54060019D01*
X58291632Y-54064152D01*
X58326978Y-54075364D01*
X58359473Y-54093228D01*
X58387879Y-54117064D01*
X58411114Y-54145963D01*
X58428294Y-54178825D01*
X58438764Y-54214398D01*
X58438767Y-54214432D01*
X58438771Y-54214445D01*
X58442127Y-54251324D01*
X58438256Y-54288155D01*
X58438252Y-54288168D01*
X58438248Y-54288205D01*
X58427283Y-54323628D01*
X58409646Y-54356247D01*
X58386009Y-54384818D01*
X58357273Y-54408255D01*
X58324532Y-54425664D01*
X58289034Y-54436381D01*
X58252129Y-54440000D01*
X57747826Y-54440000D01*
X57747240Y-54439996D01*
X57747235Y-54439995D01*
X57745218Y-54439981D01*
X57708368Y-54435848D01*
X57673022Y-54424636D01*
X57640527Y-54406772D01*
X57612121Y-54382936D01*
X57588886Y-54354037D01*
X57571706Y-54321175D01*
X57561236Y-54285602D01*
X57561233Y-54285568D01*
X57561229Y-54285555D01*
X57557873Y-54248676D01*
X57561744Y-54211845D01*
X57561748Y-54211832D01*
X57561752Y-54211795D01*
X57572717Y-54176372D01*
X57590354Y-54143753D01*
X57613991Y-54115182D01*
X57642727Y-54091745D01*
X57675468Y-54074336D01*
X57710966Y-54063619D01*
X57747871Y-54060000D01*
X58252174Y-54060000D01*
X58252760Y-54060004D01*
X58252760Y-54060004D01*
G37*
G36*
X46940000Y-54415000D02*
X46060000Y-54415000D01*
X46060000Y-53585000D01*
X46940000Y-53585000D01*
X46940000Y-54415000D01*
X46940000Y-54415000D01*
G37*
G36*
X45440000Y-54415000D02*
X44560000Y-54415000D01*
X44560000Y-53585000D01*
X45440000Y-53585000D01*
X45440000Y-54415000D01*
X45440000Y-54415000D01*
G37*
G36*
X49252760Y-53560004D02*
X49252765Y-53560005D01*
X49254782Y-53560019D01*
X49291632Y-53564152D01*
X49326978Y-53575364D01*
X49359473Y-53593228D01*
X49387879Y-53617064D01*
X49411114Y-53645963D01*
X49428294Y-53678825D01*
X49438764Y-53714398D01*
X49438767Y-53714432D01*
X49438771Y-53714445D01*
X49442127Y-53751324D01*
X49438256Y-53788155D01*
X49438252Y-53788168D01*
X49438248Y-53788205D01*
X49427283Y-53823628D01*
X49409646Y-53856247D01*
X49386009Y-53884818D01*
X49357273Y-53908255D01*
X49324532Y-53925664D01*
X49289034Y-53936381D01*
X49252129Y-53940000D01*
X48747826Y-53940000D01*
X48747240Y-53939996D01*
X48747235Y-53939995D01*
X48745218Y-53939981D01*
X48708368Y-53935848D01*
X48673022Y-53924636D01*
X48640527Y-53906772D01*
X48612121Y-53882936D01*
X48588886Y-53854037D01*
X48571706Y-53821175D01*
X48561236Y-53785602D01*
X48561233Y-53785568D01*
X48561229Y-53785555D01*
X48557873Y-53748676D01*
X48561744Y-53711845D01*
X48561748Y-53711832D01*
X48561752Y-53711795D01*
X48572717Y-53676372D01*
X48590354Y-53643753D01*
X48613991Y-53615182D01*
X48642727Y-53591745D01*
X48675468Y-53574336D01*
X48710966Y-53563619D01*
X48747871Y-53560000D01*
X49252174Y-53560000D01*
X49252760Y-53560004D01*
X49252760Y-53560004D01*
G37*
G36*
X58252760Y-53560004D02*
X58252765Y-53560005D01*
X58254782Y-53560019D01*
X58291632Y-53564152D01*
X58326978Y-53575364D01*
X58359473Y-53593228D01*
X58387879Y-53617064D01*
X58411114Y-53645963D01*
X58428294Y-53678825D01*
X58438764Y-53714398D01*
X58438767Y-53714432D01*
X58438771Y-53714445D01*
X58442127Y-53751324D01*
X58438256Y-53788155D01*
X58438252Y-53788168D01*
X58438248Y-53788205D01*
X58427283Y-53823628D01*
X58409646Y-53856247D01*
X58386009Y-53884818D01*
X58357273Y-53908255D01*
X58324532Y-53925664D01*
X58289034Y-53936381D01*
X58252129Y-53940000D01*
X57747826Y-53940000D01*
X57747240Y-53939996D01*
X57747235Y-53939995D01*
X57745218Y-53939981D01*
X57708368Y-53935848D01*
X57673022Y-53924636D01*
X57640527Y-53906772D01*
X57612121Y-53882936D01*
X57588886Y-53854037D01*
X57571706Y-53821175D01*
X57561236Y-53785602D01*
X57561233Y-53785568D01*
X57561229Y-53785555D01*
X57557873Y-53748676D01*
X57561744Y-53711845D01*
X57561748Y-53711832D01*
X57561752Y-53711795D01*
X57572717Y-53676372D01*
X57590354Y-53643753D01*
X57613991Y-53615182D01*
X57642727Y-53591745D01*
X57675468Y-53574336D01*
X57710966Y-53563619D01*
X57747871Y-53560000D01*
X58252174Y-53560000D01*
X58252760Y-53560004D01*
X58252760Y-53560004D01*
G37*
G36*
X58252760Y-53060004D02*
X58252765Y-53060005D01*
X58254782Y-53060019D01*
X58291632Y-53064152D01*
X58326978Y-53075364D01*
X58359473Y-53093228D01*
X58387879Y-53117064D01*
X58411114Y-53145963D01*
X58428294Y-53178825D01*
X58438764Y-53214398D01*
X58438767Y-53214432D01*
X58438771Y-53214445D01*
X58442127Y-53251324D01*
X58438256Y-53288155D01*
X58438252Y-53288168D01*
X58438248Y-53288205D01*
X58427283Y-53323628D01*
X58409646Y-53356247D01*
X58386009Y-53384818D01*
X58357273Y-53408255D01*
X58324532Y-53425664D01*
X58289034Y-53436381D01*
X58252129Y-53440000D01*
X57747826Y-53440000D01*
X57747240Y-53439996D01*
X57747235Y-53439995D01*
X57745218Y-53439981D01*
X57708368Y-53435848D01*
X57673022Y-53424636D01*
X57640527Y-53406772D01*
X57612121Y-53382936D01*
X57588886Y-53354037D01*
X57571706Y-53321175D01*
X57561236Y-53285602D01*
X57561233Y-53285568D01*
X57561229Y-53285555D01*
X57557873Y-53248676D01*
X57561744Y-53211845D01*
X57561748Y-53211832D01*
X57561752Y-53211795D01*
X57572717Y-53176372D01*
X57590354Y-53143753D01*
X57613991Y-53115182D01*
X57642727Y-53091745D01*
X57675468Y-53074336D01*
X57710966Y-53063619D01*
X57747871Y-53060000D01*
X58252174Y-53060000D01*
X58252760Y-53060004D01*
X58252760Y-53060004D01*
G37*
G36*
X49252760Y-53060004D02*
X49252765Y-53060005D01*
X49254782Y-53060019D01*
X49291632Y-53064152D01*
X49326978Y-53075364D01*
X49359473Y-53093228D01*
X49387879Y-53117064D01*
X49411114Y-53145963D01*
X49428294Y-53178825D01*
X49438764Y-53214398D01*
X49438767Y-53214432D01*
X49438771Y-53214445D01*
X49442127Y-53251324D01*
X49438256Y-53288155D01*
X49438252Y-53288168D01*
X49438248Y-53288205D01*
X49427283Y-53323628D01*
X49409646Y-53356247D01*
X49386009Y-53384818D01*
X49357273Y-53408255D01*
X49324532Y-53425664D01*
X49289034Y-53436381D01*
X49252129Y-53440000D01*
X48747826Y-53440000D01*
X48747240Y-53439996D01*
X48747235Y-53439995D01*
X48745218Y-53439981D01*
X48708368Y-53435848D01*
X48673022Y-53424636D01*
X48640527Y-53406772D01*
X48612121Y-53382936D01*
X48588886Y-53354037D01*
X48571706Y-53321175D01*
X48561236Y-53285602D01*
X48561233Y-53285568D01*
X48561229Y-53285555D01*
X48557873Y-53248676D01*
X48561744Y-53211845D01*
X48561748Y-53211832D01*
X48561752Y-53211795D01*
X48572717Y-53176372D01*
X48590354Y-53143753D01*
X48613991Y-53115182D01*
X48642727Y-53091745D01*
X48675468Y-53074336D01*
X48710966Y-53063619D01*
X48747871Y-53060000D01*
X49252174Y-53060000D01*
X49252760Y-53060004D01*
X49252760Y-53060004D01*
G37*
G36*
X102510212Y-52310019D02*
X102514991Y-52310053D01*
X102619723Y-52321800D01*
X102720180Y-52353667D01*
X102812533Y-52404439D01*
X102893266Y-52472182D01*
X102959304Y-52554316D01*
X103008130Y-52647712D01*
X103037886Y-52748814D01*
X103037889Y-52748848D01*
X103037893Y-52748861D01*
X103047441Y-52853768D01*
X103036428Y-52958534D01*
X103036427Y-52958539D01*
X103036422Y-52958582D01*
X103005257Y-53059258D01*
X102955131Y-53151964D01*
X102887953Y-53233168D01*
X102806282Y-53299777D01*
X102713229Y-53349255D01*
X102612338Y-53379716D01*
X102507451Y-53390000D01*
X100492517Y-53390000D01*
X100489788Y-53389981D01*
X100485009Y-53389947D01*
X100380277Y-53378200D01*
X100279820Y-53346333D01*
X100187467Y-53295561D01*
X100106734Y-53227818D01*
X100040696Y-53145684D01*
X99991870Y-53052288D01*
X99962114Y-52951186D01*
X99962111Y-52951152D01*
X99962107Y-52951139D01*
X99952559Y-52846232D01*
X99963572Y-52741466D01*
X99963573Y-52741461D01*
X99963578Y-52741418D01*
X99994743Y-52640742D01*
X100044869Y-52548036D01*
X100112047Y-52466832D01*
X100193718Y-52400223D01*
X100286771Y-52350745D01*
X100387662Y-52320284D01*
X100492549Y-52310000D01*
X102507483Y-52310000D01*
X102510212Y-52310019D01*
X102510212Y-52310019D01*
G37*
G36*
X62390000Y-53290000D02*
X60910000Y-53290000D01*
X60910000Y-52010000D01*
X62390000Y-52010000D01*
X62390000Y-53290000D01*
X62390000Y-53290000D01*
G37*
G36*
X64590000Y-53290000D02*
X63110000Y-53290000D01*
X63110000Y-52010000D01*
X64590000Y-52010000D01*
X64590000Y-53290000D01*
X64590000Y-53290000D01*
G37*
G36*
X60165000Y-53190000D02*
X59335000Y-53190000D01*
X59335000Y-52310000D01*
X60165000Y-52310000D01*
X60165000Y-53190000D01*
X60165000Y-53190000D01*
G37*
G36*
X66165000Y-53190000D02*
X65335000Y-53190000D01*
X65335000Y-52310000D01*
X66165000Y-52310000D01*
X66165000Y-53190000D01*
X66165000Y-53190000D01*
G37*
G36*
X72090000Y-52990000D02*
X71410000Y-52990000D01*
X71410000Y-52010000D01*
X72090000Y-52010000D01*
X72090000Y-52990000D01*
X72090000Y-52990000D01*
G37*
G36*
X70590000Y-52990000D02*
X69910000Y-52990000D01*
X69910000Y-52010000D01*
X70590000Y-52010000D01*
X70590000Y-52990000D01*
X70590000Y-52990000D01*
G37*
G36*
X49788155Y-52061744D02*
X49788168Y-52061748D01*
X49788205Y-52061752D01*
X49823628Y-52072717D01*
X49856247Y-52090354D01*
X49884818Y-52113991D01*
X49908255Y-52142727D01*
X49925664Y-52175468D01*
X49936381Y-52210966D01*
X49940000Y-52247871D01*
X49940000Y-52752174D01*
X49939996Y-52752760D01*
X49939995Y-52752765D01*
X49939981Y-52754782D01*
X49935848Y-52791632D01*
X49924636Y-52826978D01*
X49906772Y-52859473D01*
X49882936Y-52887879D01*
X49854037Y-52911114D01*
X49821175Y-52928294D01*
X49785602Y-52938764D01*
X49785568Y-52938767D01*
X49785555Y-52938771D01*
X49748676Y-52942127D01*
X49711845Y-52938256D01*
X49711832Y-52938252D01*
X49711795Y-52938248D01*
X49676372Y-52927283D01*
X49643753Y-52909646D01*
X49615182Y-52886009D01*
X49591745Y-52857273D01*
X49574336Y-52824532D01*
X49563619Y-52789034D01*
X49560000Y-52752129D01*
X49560000Y-52247826D01*
X49560004Y-52247240D01*
X49560005Y-52247235D01*
X49560019Y-52245218D01*
X49564152Y-52208368D01*
X49575364Y-52173022D01*
X49593228Y-52140527D01*
X49617064Y-52112121D01*
X49645963Y-52088886D01*
X49678825Y-52071706D01*
X49714398Y-52061236D01*
X49714432Y-52061233D01*
X49714445Y-52061229D01*
X49751324Y-52057873D01*
X49788155Y-52061744D01*
X49788155Y-52061744D01*
G37*
G36*
X50288155Y-52061744D02*
X50288168Y-52061748D01*
X50288205Y-52061752D01*
X50323628Y-52072717D01*
X50356247Y-52090354D01*
X50384818Y-52113991D01*
X50408255Y-52142727D01*
X50425664Y-52175468D01*
X50436381Y-52210966D01*
X50440000Y-52247871D01*
X50440000Y-52752174D01*
X50439996Y-52752760D01*
X50439995Y-52752765D01*
X50439981Y-52754782D01*
X50435848Y-52791632D01*
X50424636Y-52826978D01*
X50406772Y-52859473D01*
X50382936Y-52887879D01*
X50354037Y-52911114D01*
X50321175Y-52928294D01*
X50285602Y-52938764D01*
X50285568Y-52938767D01*
X50285555Y-52938771D01*
X50248676Y-52942127D01*
X50211845Y-52938256D01*
X50211832Y-52938252D01*
X50211795Y-52938248D01*
X50176372Y-52927283D01*
X50143753Y-52909646D01*
X50115182Y-52886009D01*
X50091745Y-52857273D01*
X50074336Y-52824532D01*
X50063619Y-52789034D01*
X50060000Y-52752129D01*
X50060000Y-52247826D01*
X50060004Y-52247240D01*
X50060005Y-52247235D01*
X50060019Y-52245218D01*
X50064152Y-52208368D01*
X50075364Y-52173022D01*
X50093228Y-52140527D01*
X50117064Y-52112121D01*
X50145963Y-52088886D01*
X50178825Y-52071706D01*
X50214398Y-52061236D01*
X50214432Y-52061233D01*
X50214445Y-52061229D01*
X50251324Y-52057873D01*
X50288155Y-52061744D01*
X50288155Y-52061744D01*
G37*
G36*
X50788155Y-52061744D02*
X50788168Y-52061748D01*
X50788205Y-52061752D01*
X50823628Y-52072717D01*
X50856247Y-52090354D01*
X50884818Y-52113991D01*
X50908255Y-52142727D01*
X50925664Y-52175468D01*
X50936381Y-52210966D01*
X50940000Y-52247871D01*
X50940000Y-52752174D01*
X50939996Y-52752760D01*
X50939995Y-52752765D01*
X50939981Y-52754782D01*
X50935848Y-52791632D01*
X50924636Y-52826978D01*
X50906772Y-52859473D01*
X50882936Y-52887879D01*
X50854037Y-52911114D01*
X50821175Y-52928294D01*
X50785602Y-52938764D01*
X50785568Y-52938767D01*
X50785555Y-52938771D01*
X50748676Y-52942127D01*
X50711845Y-52938256D01*
X50711832Y-52938252D01*
X50711795Y-52938248D01*
X50676372Y-52927283D01*
X50643753Y-52909646D01*
X50615182Y-52886009D01*
X50591745Y-52857273D01*
X50574336Y-52824532D01*
X50563619Y-52789034D01*
X50560000Y-52752129D01*
X50560000Y-52247826D01*
X50560004Y-52247240D01*
X50560005Y-52247235D01*
X50560019Y-52245218D01*
X50564152Y-52208368D01*
X50575364Y-52173022D01*
X50593228Y-52140527D01*
X50617064Y-52112121D01*
X50645963Y-52088886D01*
X50678825Y-52071706D01*
X50714398Y-52061236D01*
X50714432Y-52061233D01*
X50714445Y-52061229D01*
X50751324Y-52057873D01*
X50788155Y-52061744D01*
X50788155Y-52061744D01*
G37*
G36*
X51288155Y-52061744D02*
X51288168Y-52061748D01*
X51288205Y-52061752D01*
X51323628Y-52072717D01*
X51356247Y-52090354D01*
X51384818Y-52113991D01*
X51408255Y-52142727D01*
X51425664Y-52175468D01*
X51436381Y-52210966D01*
X51440000Y-52247871D01*
X51440000Y-52752174D01*
X51439996Y-52752760D01*
X51439995Y-52752765D01*
X51439981Y-52754782D01*
X51435848Y-52791632D01*
X51424636Y-52826978D01*
X51406772Y-52859473D01*
X51382936Y-52887879D01*
X51354037Y-52911114D01*
X51321175Y-52928294D01*
X51285602Y-52938764D01*
X51285568Y-52938767D01*
X51285555Y-52938771D01*
X51248676Y-52942127D01*
X51211845Y-52938256D01*
X51211832Y-52938252D01*
X51211795Y-52938248D01*
X51176372Y-52927283D01*
X51143753Y-52909646D01*
X51115182Y-52886009D01*
X51091745Y-52857273D01*
X51074336Y-52824532D01*
X51063619Y-52789034D01*
X51060000Y-52752129D01*
X51060000Y-52247826D01*
X51060004Y-52247240D01*
X51060005Y-52247235D01*
X51060019Y-52245218D01*
X51064152Y-52208368D01*
X51075364Y-52173022D01*
X51093228Y-52140527D01*
X51117064Y-52112121D01*
X51145963Y-52088886D01*
X51178825Y-52071706D01*
X51214398Y-52061236D01*
X51214432Y-52061233D01*
X51214445Y-52061229D01*
X51251324Y-52057873D01*
X51288155Y-52061744D01*
X51288155Y-52061744D01*
G37*
G36*
X51788155Y-52061744D02*
X51788168Y-52061748D01*
X51788205Y-52061752D01*
X51823628Y-52072717D01*
X51856247Y-52090354D01*
X51884818Y-52113991D01*
X51908255Y-52142727D01*
X51925664Y-52175468D01*
X51936381Y-52210966D01*
X51940000Y-52247871D01*
X51940000Y-52752174D01*
X51939996Y-52752760D01*
X51939995Y-52752765D01*
X51939981Y-52754782D01*
X51935848Y-52791632D01*
X51924636Y-52826978D01*
X51906772Y-52859473D01*
X51882936Y-52887879D01*
X51854037Y-52911114D01*
X51821175Y-52928294D01*
X51785602Y-52938764D01*
X51785568Y-52938767D01*
X51785555Y-52938771D01*
X51748676Y-52942127D01*
X51711845Y-52938256D01*
X51711832Y-52938252D01*
X51711795Y-52938248D01*
X51676372Y-52927283D01*
X51643753Y-52909646D01*
X51615182Y-52886009D01*
X51591745Y-52857273D01*
X51574336Y-52824532D01*
X51563619Y-52789034D01*
X51560000Y-52752129D01*
X51560000Y-52247826D01*
X51560004Y-52247240D01*
X51560005Y-52247235D01*
X51560019Y-52245218D01*
X51564152Y-52208368D01*
X51575364Y-52173022D01*
X51593228Y-52140527D01*
X51617064Y-52112121D01*
X51645963Y-52088886D01*
X51678825Y-52071706D01*
X51714398Y-52061236D01*
X51714432Y-52061233D01*
X51714445Y-52061229D01*
X51751324Y-52057873D01*
X51788155Y-52061744D01*
X51788155Y-52061744D01*
G37*
G36*
X52288155Y-52061744D02*
X52288168Y-52061748D01*
X52288205Y-52061752D01*
X52323628Y-52072717D01*
X52356247Y-52090354D01*
X52384818Y-52113991D01*
X52408255Y-52142727D01*
X52425664Y-52175468D01*
X52436381Y-52210966D01*
X52440000Y-52247871D01*
X52440000Y-52752174D01*
X52439996Y-52752760D01*
X52439995Y-52752765D01*
X52439981Y-52754782D01*
X52435848Y-52791632D01*
X52424636Y-52826978D01*
X52406772Y-52859473D01*
X52382936Y-52887879D01*
X52354037Y-52911114D01*
X52321175Y-52928294D01*
X52285602Y-52938764D01*
X52285568Y-52938767D01*
X52285555Y-52938771D01*
X52248676Y-52942127D01*
X52211845Y-52938256D01*
X52211832Y-52938252D01*
X52211795Y-52938248D01*
X52176372Y-52927283D01*
X52143753Y-52909646D01*
X52115182Y-52886009D01*
X52091745Y-52857273D01*
X52074336Y-52824532D01*
X52063619Y-52789034D01*
X52060000Y-52752129D01*
X52060000Y-52247826D01*
X52060004Y-52247240D01*
X52060005Y-52247235D01*
X52060019Y-52245218D01*
X52064152Y-52208368D01*
X52075364Y-52173022D01*
X52093228Y-52140527D01*
X52117064Y-52112121D01*
X52145963Y-52088886D01*
X52178825Y-52071706D01*
X52214398Y-52061236D01*
X52214432Y-52061233D01*
X52214445Y-52061229D01*
X52251324Y-52057873D01*
X52288155Y-52061744D01*
X52288155Y-52061744D01*
G37*
G36*
X52788155Y-52061744D02*
X52788168Y-52061748D01*
X52788205Y-52061752D01*
X52823628Y-52072717D01*
X52856247Y-52090354D01*
X52884818Y-52113991D01*
X52908255Y-52142727D01*
X52925664Y-52175468D01*
X52936381Y-52210966D01*
X52940000Y-52247871D01*
X52940000Y-52752174D01*
X52939996Y-52752760D01*
X52939995Y-52752765D01*
X52939981Y-52754782D01*
X52935848Y-52791632D01*
X52924636Y-52826978D01*
X52906772Y-52859473D01*
X52882936Y-52887879D01*
X52854037Y-52911114D01*
X52821175Y-52928294D01*
X52785602Y-52938764D01*
X52785568Y-52938767D01*
X52785555Y-52938771D01*
X52748676Y-52942127D01*
X52711845Y-52938256D01*
X52711832Y-52938252D01*
X52711795Y-52938248D01*
X52676372Y-52927283D01*
X52643753Y-52909646D01*
X52615182Y-52886009D01*
X52591745Y-52857273D01*
X52574336Y-52824532D01*
X52563619Y-52789034D01*
X52560000Y-52752129D01*
X52560000Y-52247826D01*
X52560004Y-52247240D01*
X52560005Y-52247235D01*
X52560019Y-52245218D01*
X52564152Y-52208368D01*
X52575364Y-52173022D01*
X52593228Y-52140527D01*
X52617064Y-52112121D01*
X52645963Y-52088886D01*
X52678825Y-52071706D01*
X52714398Y-52061236D01*
X52714432Y-52061233D01*
X52714445Y-52061229D01*
X52751324Y-52057873D01*
X52788155Y-52061744D01*
X52788155Y-52061744D01*
G37*
G36*
X53288155Y-52061744D02*
X53288168Y-52061748D01*
X53288205Y-52061752D01*
X53323628Y-52072717D01*
X53356247Y-52090354D01*
X53384818Y-52113991D01*
X53408255Y-52142727D01*
X53425664Y-52175468D01*
X53436381Y-52210966D01*
X53440000Y-52247871D01*
X53440000Y-52752174D01*
X53439996Y-52752760D01*
X53439995Y-52752765D01*
X53439981Y-52754782D01*
X53435848Y-52791632D01*
X53424636Y-52826978D01*
X53406772Y-52859473D01*
X53382936Y-52887879D01*
X53354037Y-52911114D01*
X53321175Y-52928294D01*
X53285602Y-52938764D01*
X53285568Y-52938767D01*
X53285555Y-52938771D01*
X53248676Y-52942127D01*
X53211845Y-52938256D01*
X53211832Y-52938252D01*
X53211795Y-52938248D01*
X53176372Y-52927283D01*
X53143753Y-52909646D01*
X53115182Y-52886009D01*
X53091745Y-52857273D01*
X53074336Y-52824532D01*
X53063619Y-52789034D01*
X53060000Y-52752129D01*
X53060000Y-52247826D01*
X53060004Y-52247240D01*
X53060005Y-52247235D01*
X53060019Y-52245218D01*
X53064152Y-52208368D01*
X53075364Y-52173022D01*
X53093228Y-52140527D01*
X53117064Y-52112121D01*
X53145963Y-52088886D01*
X53178825Y-52071706D01*
X53214398Y-52061236D01*
X53214432Y-52061233D01*
X53214445Y-52061229D01*
X53251324Y-52057873D01*
X53288155Y-52061744D01*
X53288155Y-52061744D01*
G37*
G36*
X53788155Y-52061744D02*
X53788168Y-52061748D01*
X53788205Y-52061752D01*
X53823628Y-52072717D01*
X53856247Y-52090354D01*
X53884818Y-52113991D01*
X53908255Y-52142727D01*
X53925664Y-52175468D01*
X53936381Y-52210966D01*
X53940000Y-52247871D01*
X53940000Y-52752174D01*
X53939996Y-52752760D01*
X53939995Y-52752765D01*
X53939981Y-52754782D01*
X53935848Y-52791632D01*
X53924636Y-52826978D01*
X53906772Y-52859473D01*
X53882936Y-52887879D01*
X53854037Y-52911114D01*
X53821175Y-52928294D01*
X53785602Y-52938764D01*
X53785568Y-52938767D01*
X53785555Y-52938771D01*
X53748676Y-52942127D01*
X53711845Y-52938256D01*
X53711832Y-52938252D01*
X53711795Y-52938248D01*
X53676372Y-52927283D01*
X53643753Y-52909646D01*
X53615182Y-52886009D01*
X53591745Y-52857273D01*
X53574336Y-52824532D01*
X53563619Y-52789034D01*
X53560000Y-52752129D01*
X53560000Y-52247826D01*
X53560004Y-52247240D01*
X53560005Y-52247235D01*
X53560019Y-52245218D01*
X53564152Y-52208368D01*
X53575364Y-52173022D01*
X53593228Y-52140527D01*
X53617064Y-52112121D01*
X53645963Y-52088886D01*
X53678825Y-52071706D01*
X53714398Y-52061236D01*
X53714432Y-52061233D01*
X53714445Y-52061229D01*
X53751324Y-52057873D01*
X53788155Y-52061744D01*
X53788155Y-52061744D01*
G37*
G36*
X54288155Y-52061744D02*
X54288168Y-52061748D01*
X54288205Y-52061752D01*
X54323628Y-52072717D01*
X54356247Y-52090354D01*
X54384818Y-52113991D01*
X54408255Y-52142727D01*
X54425664Y-52175468D01*
X54436381Y-52210966D01*
X54440000Y-52247871D01*
X54440000Y-52752174D01*
X54439996Y-52752760D01*
X54439995Y-52752765D01*
X54439981Y-52754782D01*
X54435848Y-52791632D01*
X54424636Y-52826978D01*
X54406772Y-52859473D01*
X54382936Y-52887879D01*
X54354037Y-52911114D01*
X54321175Y-52928294D01*
X54285602Y-52938764D01*
X54285568Y-52938767D01*
X54285555Y-52938771D01*
X54248676Y-52942127D01*
X54211845Y-52938256D01*
X54211832Y-52938252D01*
X54211795Y-52938248D01*
X54176372Y-52927283D01*
X54143753Y-52909646D01*
X54115182Y-52886009D01*
X54091745Y-52857273D01*
X54074336Y-52824532D01*
X54063619Y-52789034D01*
X54060000Y-52752129D01*
X54060000Y-52247826D01*
X54060004Y-52247240D01*
X54060005Y-52247235D01*
X54060019Y-52245218D01*
X54064152Y-52208368D01*
X54075364Y-52173022D01*
X54093228Y-52140527D01*
X54117064Y-52112121D01*
X54145963Y-52088886D01*
X54178825Y-52071706D01*
X54214398Y-52061236D01*
X54214432Y-52061233D01*
X54214445Y-52061229D01*
X54251324Y-52057873D01*
X54288155Y-52061744D01*
X54288155Y-52061744D01*
G37*
G36*
X54788155Y-52061744D02*
X54788168Y-52061748D01*
X54788205Y-52061752D01*
X54823628Y-52072717D01*
X54856247Y-52090354D01*
X54884818Y-52113991D01*
X54908255Y-52142727D01*
X54925664Y-52175468D01*
X54936381Y-52210966D01*
X54940000Y-52247871D01*
X54940000Y-52752174D01*
X54939996Y-52752760D01*
X54939995Y-52752765D01*
X54939981Y-52754782D01*
X54935848Y-52791632D01*
X54924636Y-52826978D01*
X54906772Y-52859473D01*
X54882936Y-52887879D01*
X54854037Y-52911114D01*
X54821175Y-52928294D01*
X54785602Y-52938764D01*
X54785568Y-52938767D01*
X54785555Y-52938771D01*
X54748676Y-52942127D01*
X54711845Y-52938256D01*
X54711832Y-52938252D01*
X54711795Y-52938248D01*
X54676372Y-52927283D01*
X54643753Y-52909646D01*
X54615182Y-52886009D01*
X54591745Y-52857273D01*
X54574336Y-52824532D01*
X54563619Y-52789034D01*
X54560000Y-52752129D01*
X54560000Y-52247826D01*
X54560004Y-52247240D01*
X54560005Y-52247235D01*
X54560019Y-52245218D01*
X54564152Y-52208368D01*
X54575364Y-52173022D01*
X54593228Y-52140527D01*
X54617064Y-52112121D01*
X54645963Y-52088886D01*
X54678825Y-52071706D01*
X54714398Y-52061236D01*
X54714432Y-52061233D01*
X54714445Y-52061229D01*
X54751324Y-52057873D01*
X54788155Y-52061744D01*
X54788155Y-52061744D01*
G37*
G36*
X55288155Y-52061744D02*
X55288168Y-52061748D01*
X55288205Y-52061752D01*
X55323628Y-52072717D01*
X55356247Y-52090354D01*
X55384818Y-52113991D01*
X55408255Y-52142727D01*
X55425664Y-52175468D01*
X55436381Y-52210966D01*
X55440000Y-52247871D01*
X55440000Y-52752174D01*
X55439996Y-52752760D01*
X55439995Y-52752765D01*
X55439981Y-52754782D01*
X55435848Y-52791632D01*
X55424636Y-52826978D01*
X55406772Y-52859473D01*
X55382936Y-52887879D01*
X55354037Y-52911114D01*
X55321175Y-52928294D01*
X55285602Y-52938764D01*
X55285568Y-52938767D01*
X55285555Y-52938771D01*
X55248676Y-52942127D01*
X55211845Y-52938256D01*
X55211832Y-52938252D01*
X55211795Y-52938248D01*
X55176372Y-52927283D01*
X55143753Y-52909646D01*
X55115182Y-52886009D01*
X55091745Y-52857273D01*
X55074336Y-52824532D01*
X55063619Y-52789034D01*
X55060000Y-52752129D01*
X55060000Y-52247826D01*
X55060004Y-52247240D01*
X55060005Y-52247235D01*
X55060019Y-52245218D01*
X55064152Y-52208368D01*
X55075364Y-52173022D01*
X55093228Y-52140527D01*
X55117064Y-52112121D01*
X55145963Y-52088886D01*
X55178825Y-52071706D01*
X55214398Y-52061236D01*
X55214432Y-52061233D01*
X55214445Y-52061229D01*
X55251324Y-52057873D01*
X55288155Y-52061744D01*
X55288155Y-52061744D01*
G37*
G36*
X55788155Y-52061744D02*
X55788168Y-52061748D01*
X55788205Y-52061752D01*
X55823628Y-52072717D01*
X55856247Y-52090354D01*
X55884818Y-52113991D01*
X55908255Y-52142727D01*
X55925664Y-52175468D01*
X55936381Y-52210966D01*
X55940000Y-52247871D01*
X55940000Y-52752174D01*
X55939996Y-52752760D01*
X55939995Y-52752765D01*
X55939981Y-52754782D01*
X55935848Y-52791632D01*
X55924636Y-52826978D01*
X55906772Y-52859473D01*
X55882936Y-52887879D01*
X55854037Y-52911114D01*
X55821175Y-52928294D01*
X55785602Y-52938764D01*
X55785568Y-52938767D01*
X55785555Y-52938771D01*
X55748676Y-52942127D01*
X55711845Y-52938256D01*
X55711832Y-52938252D01*
X55711795Y-52938248D01*
X55676372Y-52927283D01*
X55643753Y-52909646D01*
X55615182Y-52886009D01*
X55591745Y-52857273D01*
X55574336Y-52824532D01*
X55563619Y-52789034D01*
X55560000Y-52752129D01*
X55560000Y-52247826D01*
X55560004Y-52247240D01*
X55560005Y-52247235D01*
X55560019Y-52245218D01*
X55564152Y-52208368D01*
X55575364Y-52173022D01*
X55593228Y-52140527D01*
X55617064Y-52112121D01*
X55645963Y-52088886D01*
X55678825Y-52071706D01*
X55714398Y-52061236D01*
X55714432Y-52061233D01*
X55714445Y-52061229D01*
X55751324Y-52057873D01*
X55788155Y-52061744D01*
X55788155Y-52061744D01*
G37*
G36*
X56288155Y-52061744D02*
X56288168Y-52061748D01*
X56288205Y-52061752D01*
X56323628Y-52072717D01*
X56356247Y-52090354D01*
X56384818Y-52113991D01*
X56408255Y-52142727D01*
X56425664Y-52175468D01*
X56436381Y-52210966D01*
X56440000Y-52247871D01*
X56440000Y-52752174D01*
X56439996Y-52752760D01*
X56439995Y-52752765D01*
X56439981Y-52754782D01*
X56435848Y-52791632D01*
X56424636Y-52826978D01*
X56406772Y-52859473D01*
X56382936Y-52887879D01*
X56354037Y-52911114D01*
X56321175Y-52928294D01*
X56285602Y-52938764D01*
X56285568Y-52938767D01*
X56285555Y-52938771D01*
X56248676Y-52942127D01*
X56211845Y-52938256D01*
X56211832Y-52938252D01*
X56211795Y-52938248D01*
X56176372Y-52927283D01*
X56143753Y-52909646D01*
X56115182Y-52886009D01*
X56091745Y-52857273D01*
X56074336Y-52824532D01*
X56063619Y-52789034D01*
X56060000Y-52752129D01*
X56060000Y-52247826D01*
X56060004Y-52247240D01*
X56060005Y-52247235D01*
X56060019Y-52245218D01*
X56064152Y-52208368D01*
X56075364Y-52173022D01*
X56093228Y-52140527D01*
X56117064Y-52112121D01*
X56145963Y-52088886D01*
X56178825Y-52071706D01*
X56214398Y-52061236D01*
X56214432Y-52061233D01*
X56214445Y-52061229D01*
X56251324Y-52057873D01*
X56288155Y-52061744D01*
X56288155Y-52061744D01*
G37*
G36*
X56788155Y-52061744D02*
X56788168Y-52061748D01*
X56788205Y-52061752D01*
X56823628Y-52072717D01*
X56856247Y-52090354D01*
X56884818Y-52113991D01*
X56908255Y-52142727D01*
X56925664Y-52175468D01*
X56936381Y-52210966D01*
X56940000Y-52247871D01*
X56940000Y-52752174D01*
X56939996Y-52752760D01*
X56939995Y-52752765D01*
X56939981Y-52754782D01*
X56935848Y-52791632D01*
X56924636Y-52826978D01*
X56906772Y-52859473D01*
X56882936Y-52887879D01*
X56854037Y-52911114D01*
X56821175Y-52928294D01*
X56785602Y-52938764D01*
X56785568Y-52938767D01*
X56785555Y-52938771D01*
X56748676Y-52942127D01*
X56711845Y-52938256D01*
X56711832Y-52938252D01*
X56711795Y-52938248D01*
X56676372Y-52927283D01*
X56643753Y-52909646D01*
X56615182Y-52886009D01*
X56591745Y-52857273D01*
X56574336Y-52824532D01*
X56563619Y-52789034D01*
X56560000Y-52752129D01*
X56560000Y-52247826D01*
X56560004Y-52247240D01*
X56560005Y-52247235D01*
X56560019Y-52245218D01*
X56564152Y-52208368D01*
X56575364Y-52173022D01*
X56593228Y-52140527D01*
X56617064Y-52112121D01*
X56645963Y-52088886D01*
X56678825Y-52071706D01*
X56714398Y-52061236D01*
X56714432Y-52061233D01*
X56714445Y-52061229D01*
X56751324Y-52057873D01*
X56788155Y-52061744D01*
X56788155Y-52061744D01*
G37*
G36*
X57288155Y-52061744D02*
X57288168Y-52061748D01*
X57288205Y-52061752D01*
X57323628Y-52072717D01*
X57356247Y-52090354D01*
X57384818Y-52113991D01*
X57408255Y-52142727D01*
X57425664Y-52175468D01*
X57436381Y-52210966D01*
X57440000Y-52247871D01*
X57440000Y-52752174D01*
X57439996Y-52752760D01*
X57439995Y-52752765D01*
X57439981Y-52754782D01*
X57435848Y-52791632D01*
X57424636Y-52826978D01*
X57406772Y-52859473D01*
X57382936Y-52887879D01*
X57354037Y-52911114D01*
X57321175Y-52928294D01*
X57285602Y-52938764D01*
X57285568Y-52938767D01*
X57285555Y-52938771D01*
X57248676Y-52942127D01*
X57211845Y-52938256D01*
X57211832Y-52938252D01*
X57211795Y-52938248D01*
X57176372Y-52927283D01*
X57143753Y-52909646D01*
X57115182Y-52886009D01*
X57091745Y-52857273D01*
X57074336Y-52824532D01*
X57063619Y-52789034D01*
X57060000Y-52752129D01*
X57060000Y-52247826D01*
X57060004Y-52247240D01*
X57060005Y-52247235D01*
X57060019Y-52245218D01*
X57064152Y-52208368D01*
X57075364Y-52173022D01*
X57093228Y-52140527D01*
X57117064Y-52112121D01*
X57145963Y-52088886D01*
X57178825Y-52071706D01*
X57214398Y-52061236D01*
X57214432Y-52061233D01*
X57214445Y-52061229D01*
X57251324Y-52057873D01*
X57288155Y-52061744D01*
X57288155Y-52061744D01*
G37*
G36*
X46940000Y-52915000D02*
X46060000Y-52915000D01*
X46060000Y-52085000D01*
X46940000Y-52085000D01*
X46940000Y-52915000D01*
X46940000Y-52915000D01*
G37*
G36*
X45440000Y-52915000D02*
X44560000Y-52915000D01*
X44560000Y-52085000D01*
X45440000Y-52085000D01*
X45440000Y-52915000D01*
X45440000Y-52915000D01*
G37*
G36*
X55690000Y-50915000D02*
X54810000Y-50915000D01*
X54810000Y-50085000D01*
X55690000Y-50085000D01*
X55690000Y-50915000D01*
X55690000Y-50915000D01*
G37*
G36*
X54190000Y-50915000D02*
X53310000Y-50915000D01*
X53310000Y-50085000D01*
X54190000Y-50085000D01*
X54190000Y-50915000D01*
X54190000Y-50915000D01*
G37*
G36*
X58725000Y-50820000D02*
X56095000Y-50820000D01*
X56095000Y-48240000D01*
X58725000Y-48240000D01*
X58725000Y-50820000D01*
X58725000Y-50820000D01*
G37*
G36*
X39675000Y-50820000D02*
X37045000Y-50820000D01*
X37045000Y-48240000D01*
X39675000Y-48240000D01*
X39675000Y-50820000D01*
X39675000Y-50820000D01*
G37*
G36*
X77775000Y-50820000D02*
X75145000Y-50820000D01*
X75145000Y-48240000D01*
X77775000Y-48240000D01*
X77775000Y-50820000D01*
X77775000Y-50820000D01*
G37*
G36*
X96825000Y-50820000D02*
X94195000Y-50820000D01*
X94195000Y-48240000D01*
X96825000Y-48240000D01*
X96825000Y-50820000D01*
X96825000Y-50820000D01*
G37*
G36*
X110275000Y-48280000D02*
X107645000Y-48280000D01*
X107645000Y-45700000D01*
X110275000Y-45700000D01*
X110275000Y-48280000D01*
X110275000Y-48280000D01*
G37*
G36*
X53125000Y-48280000D02*
X50495000Y-48280000D01*
X50495000Y-45700000D01*
X53125000Y-45700000D01*
X53125000Y-48280000D01*
X53125000Y-48280000D01*
G37*
G36*
X91225000Y-48280000D02*
X88595000Y-48280000D01*
X88595000Y-45700000D01*
X91225000Y-45700000D01*
X91225000Y-48280000D01*
X91225000Y-48280000D01*
G37*
G36*
X72175000Y-48280000D02*
X69545000Y-48280000D01*
X69545000Y-45700000D01*
X72175000Y-45700000D01*
X72175000Y-48280000D01*
X72175000Y-48280000D01*
G37*
G36*
X54990000Y-47590000D02*
X54010000Y-47590000D01*
X54010000Y-46910000D01*
X54990000Y-46910000D01*
X54990000Y-47590000D01*
X54990000Y-47590000D01*
G37*
G36*
X56490000Y-47590000D02*
X55510000Y-47590000D01*
X55510000Y-46910000D01*
X56490000Y-46910000D01*
X56490000Y-47590000D01*
X56490000Y-47590000D01*
G37*
G36*
X54990000Y-46090000D02*
X54010000Y-46090000D01*
X54010000Y-45410000D01*
X54990000Y-45410000D01*
X54990000Y-46090000D01*
X54990000Y-46090000D01*
G37*
G36*
X56490000Y-46090000D02*
X55510000Y-46090000D01*
X55510000Y-45410000D01*
X56490000Y-45410000D01*
X56490000Y-46090000D01*
X56490000Y-46090000D01*
G37*
G36*
X41440000Y-43340000D02*
X40360000Y-43340000D01*
X40360000Y-41660000D01*
X41440000Y-41660000D01*
X41440000Y-43340000D01*
X41440000Y-43340000D01*
G37*
G36*
X38440000Y-43340000D02*
X37360000Y-43340000D01*
X37360000Y-41660000D01*
X38440000Y-41660000D01*
X38440000Y-43340000D01*
X38440000Y-43340000D01*
G37*
G36*
X78760000Y-42380000D02*
X78080000Y-42380000D01*
X78080000Y-41300000D01*
X78760000Y-41300000D01*
X78760000Y-42380000D01*
X78760000Y-42380000D01*
G37*
G36*
X77810000Y-42380000D02*
X77130000Y-42380000D01*
X77130000Y-41300000D01*
X77810000Y-41300000D01*
X77810000Y-42380000D01*
X77810000Y-42380000D01*
G37*
G36*
X76860000Y-42380000D02*
X76180000Y-42380000D01*
X76180000Y-41300000D01*
X76860000Y-41300000D01*
X76860000Y-42380000D01*
X76860000Y-42380000D01*
G37*
G36*
X40240000Y-41140000D02*
X38560000Y-41140000D01*
X38560000Y-40060000D01*
X40240000Y-40060000D01*
X40240000Y-41140000D01*
X40240000Y-41140000D01*
G37*
G36*
X104940000Y-40510000D02*
X103660000Y-40510000D01*
X103660000Y-39680000D01*
X104940000Y-39680000D01*
X104940000Y-40510000D01*
X104940000Y-40510000D01*
G37*
G36*
X99540000Y-40510000D02*
X98260000Y-40510000D01*
X98260000Y-39680000D01*
X99540000Y-39680000D01*
X99540000Y-40510000D01*
X99540000Y-40510000D01*
G37*
G36*
X85890000Y-40510000D02*
X84610000Y-40510000D01*
X84610000Y-39680000D01*
X85890000Y-39680000D01*
X85890000Y-40510000D01*
X85890000Y-40510000D01*
G37*
G36*
X80490000Y-40510000D02*
X79210000Y-40510000D01*
X79210000Y-39680000D01*
X80490000Y-39680000D01*
X80490000Y-40510000D01*
X80490000Y-40510000D01*
G37*
G36*
X61440000Y-40510000D02*
X60160000Y-40510000D01*
X60160000Y-39680000D01*
X61440000Y-39680000D01*
X61440000Y-40510000D01*
X61440000Y-40510000D01*
G37*
G36*
X42390000Y-40510000D02*
X41110000Y-40510000D01*
X41110000Y-39680000D01*
X42390000Y-39680000D01*
X42390000Y-40510000D01*
X42390000Y-40510000D01*
G37*
G36*
X47790000Y-40510000D02*
X46510000Y-40510000D01*
X46510000Y-39680000D01*
X47790000Y-39680000D01*
X47790000Y-40510000D01*
X47790000Y-40510000D01*
G37*
G36*
X66840000Y-40510000D02*
X65560000Y-40510000D01*
X65560000Y-39680000D01*
X66840000Y-39680000D01*
X66840000Y-40510000D01*
X66840000Y-40510000D01*
G37*
G36*
X76860000Y-39980000D02*
X76180000Y-39980000D01*
X76180000Y-38900000D01*
X76860000Y-38900000D01*
X76860000Y-39980000D01*
X76860000Y-39980000D01*
G37*
G36*
X78760000Y-39980000D02*
X78080000Y-39980000D01*
X78080000Y-38900000D01*
X78760000Y-38900000D01*
X78760000Y-39980000D01*
X78760000Y-39980000D01*
G37*
G36*
X104940000Y-39060000D02*
X103660000Y-39060000D01*
X103660000Y-38230000D01*
X104940000Y-38230000D01*
X104940000Y-39060000D01*
X104940000Y-39060000D01*
G37*
G36*
X42390000Y-39060000D02*
X41110000Y-39060000D01*
X41110000Y-38230000D01*
X42390000Y-38230000D01*
X42390000Y-39060000D01*
X42390000Y-39060000D01*
G37*
G36*
X47790000Y-39060000D02*
X46510000Y-39060000D01*
X46510000Y-38230000D01*
X47790000Y-38230000D01*
X47790000Y-39060000D01*
X47790000Y-39060000D01*
G37*
G36*
X61440000Y-39060000D02*
X60160000Y-39060000D01*
X60160000Y-38230000D01*
X61440000Y-38230000D01*
X61440000Y-39060000D01*
X61440000Y-39060000D01*
G37*
G36*
X66840000Y-39060000D02*
X65560000Y-39060000D01*
X65560000Y-38230000D01*
X66840000Y-38230000D01*
X66840000Y-39060000D01*
X66840000Y-39060000D01*
G37*
G36*
X80490000Y-39060000D02*
X79210000Y-39060000D01*
X79210000Y-38230000D01*
X80490000Y-38230000D01*
X80490000Y-39060000D01*
X80490000Y-39060000D01*
G37*
G36*
X85890000Y-39060000D02*
X84610000Y-39060000D01*
X84610000Y-38230000D01*
X85890000Y-38230000D01*
X85890000Y-39060000D01*
X85890000Y-39060000D01*
G37*
G36*
X99540000Y-39060000D02*
X98260000Y-39060000D01*
X98260000Y-38230000D01*
X99540000Y-38230000D01*
X99540000Y-39060000D01*
X99540000Y-39060000D01*
G37*
G36*
X54265190Y-38294940D02*
X53684810Y-38294940D01*
X53684810Y-35913700D01*
X54265190Y-35913700D01*
X54265190Y-38294940D01*
X54265190Y-38294940D01*
G37*
G36*
X53465090Y-38294940D02*
X52884710Y-38294940D01*
X52884710Y-35913700D01*
X53465090Y-35913700D01*
X53465090Y-38294940D01*
X53465090Y-38294940D01*
G37*
G36*
X52664990Y-38294940D02*
X52084610Y-38294940D01*
X52084610Y-35913700D01*
X52664990Y-35913700D01*
X52664990Y-38294940D01*
X52664990Y-38294940D01*
G37*
G36*
X55065290Y-38294940D02*
X54484910Y-38294940D01*
X54484910Y-35913700D01*
X55065290Y-35913700D01*
X55065290Y-38294940D01*
X55065290Y-38294940D01*
G37*
G36*
X55865390Y-38294940D02*
X55285010Y-38294940D01*
X55285010Y-35913700D01*
X55865390Y-35913700D01*
X55865390Y-38294940D01*
X55865390Y-38294940D01*
G37*
G36*
X59464570Y-38294940D02*
X57385590Y-38294940D01*
X57385590Y-35715580D01*
X59464570Y-35715580D01*
X59464570Y-38294940D01*
X59464570Y-38294940D01*
G37*
G36*
X50564410Y-38294940D02*
X48485430Y-38294940D01*
X48485430Y-35715580D01*
X50564410Y-35715580D01*
X50564410Y-38294940D01*
X50564410Y-38294940D01*
G37*
G36*
X40240000Y-38140000D02*
X38560000Y-38140000D01*
X38560000Y-37060000D01*
X40240000Y-37060000D01*
X40240000Y-38140000D01*
X40240000Y-38140000D01*
G37*
G36*
X51826782Y-34016644D02*
X51920837Y-34035951D01*
X52009340Y-34073154D01*
X52088944Y-34126847D01*
X52156596Y-34194973D01*
X52209726Y-34274942D01*
X52246314Y-34363709D01*
X52264895Y-34457550D01*
X52264895Y-34457560D01*
X52264961Y-34457894D01*
X52263430Y-34567558D01*
X52263354Y-34567892D01*
X52263354Y-34567903D01*
X52242161Y-34661183D01*
X52203108Y-34748897D01*
X52147768Y-34827348D01*
X52078234Y-34893563D01*
X51997169Y-34945009D01*
X51907655Y-34979730D01*
X51813104Y-34996401D01*
X51717113Y-34994391D01*
X51623338Y-34973772D01*
X51535359Y-34935336D01*
X51456514Y-34880537D01*
X51389819Y-34811473D01*
X51337811Y-34730772D01*
X51302467Y-34641502D01*
X51285134Y-34547062D01*
X51286475Y-34451062D01*
X51306436Y-34357151D01*
X51344260Y-34268899D01*
X51398503Y-34189681D01*
X51467103Y-34122502D01*
X51547441Y-34069930D01*
X51636462Y-34033964D01*
X51730770Y-34015973D01*
X51826782Y-34016644D01*
X51826782Y-34016644D01*
G37*
G36*
X56226062Y-34016644D02*
X56320117Y-34035951D01*
X56408620Y-34073154D01*
X56488224Y-34126847D01*
X56555876Y-34194973D01*
X56609006Y-34274942D01*
X56645594Y-34363709D01*
X56664175Y-34457550D01*
X56664175Y-34457560D01*
X56664241Y-34457894D01*
X56662710Y-34567558D01*
X56662634Y-34567892D01*
X56662634Y-34567903D01*
X56641441Y-34661183D01*
X56602388Y-34748897D01*
X56547048Y-34827348D01*
X56477514Y-34893563D01*
X56396449Y-34945009D01*
X56306935Y-34979730D01*
X56212384Y-34996401D01*
X56116393Y-34994391D01*
X56022618Y-34973772D01*
X55934639Y-34935336D01*
X55855794Y-34880537D01*
X55789099Y-34811473D01*
X55737091Y-34730772D01*
X55701747Y-34641502D01*
X55684414Y-34547062D01*
X55685755Y-34451062D01*
X55705716Y-34357151D01*
X55743540Y-34268899D01*
X55797783Y-34189681D01*
X55866383Y-34122502D01*
X55946721Y-34069930D01*
X56035742Y-34033964D01*
X56130050Y-34015973D01*
X56226062Y-34016644D01*
X56226062Y-34016644D01*
G37*
G36*
X59464570Y-32795840D02*
X57385590Y-32795840D01*
X57385590Y-30216480D01*
X59464570Y-30216480D01*
X59464570Y-32795840D01*
X59464570Y-32795840D01*
G37*
G36*
X50564410Y-32795840D02*
X48485430Y-32795840D01*
X48485430Y-30216480D01*
X50564410Y-30216480D01*
X50564410Y-32795840D01*
X50564410Y-32795840D01*
G37*
M02*
