G04 #@! TF.FileFunction,Paste,Bot*
%FSLAX46Y46*%
G04 Gerber Fmt 4.6, Leading zero omitted, Abs format (unit mm)*
G04 Created by KiCad (PCBNEW 4.0.6) date Saturday, January 06, 2018 'AMt' 08:46:40 AM*
%MOMM*%
%LPD*%
G01*
G04 APERTURE LIST*
%ADD10C,0.150000*%
%ADD11C,2.520000*%
%ADD12R,0.600000X1.000000*%
%ADD13R,0.750000X0.800000*%
%ADD14R,0.800000X0.750000*%
%ADD15R,1.000000X1.600000*%
%ADD16R,1.600000X1.000000*%
%ADD17R,0.750000X1.150000*%
%ADD18R,1.400000X0.950000*%
%ADD19O,0.300000X0.800000*%
%ADD20O,0.800000X0.300000*%
%ADD21C,1.000000*%
%ADD22R,0.500380X2.301240*%
%ADD23R,1.998980X2.499360*%
%ADD24O,0.800000X0.200000*%
%ADD25O,0.200000X0.800000*%
%ADD26C,0.600000*%
%ADD27R,1.400000X1.200000*%
%ADD28R,2.550000X2.500000*%
%ADD29R,1.200000X0.750000*%
%ADD30R,2.500000X2.550000*%
%ADD31R,0.750000X1.200000*%
%ADD32R,0.900000X0.600000*%
%ADD33R,0.600000X0.900000*%
%ADD34R,1.300000X3.400000*%
G04 APERTURE END LIST*
D10*
D11*
X40000000Y-119000000D03*
X40000000Y-54000000D03*
D12*
X78420000Y-58490000D03*
X78420000Y-60890000D03*
X77470000Y-60890000D03*
X76520000Y-58490000D03*
X76520000Y-60890000D03*
X78420000Y-39440000D03*
X78420000Y-41840000D03*
X77470000Y-41840000D03*
X76520000Y-39440000D03*
X76520000Y-41840000D03*
X78420000Y-77540000D03*
X78420000Y-79940000D03*
X77470000Y-79940000D03*
X76520000Y-77540000D03*
X76520000Y-79940000D03*
X78420000Y-96590000D03*
X78420000Y-98990000D03*
X77470000Y-98990000D03*
X76520000Y-96590000D03*
X76520000Y-98990000D03*
X78420000Y-115640000D03*
X78420000Y-118040000D03*
X77470000Y-118040000D03*
X76520000Y-115640000D03*
X76520000Y-118040000D03*
D13*
X65750000Y-52750000D03*
X65750000Y-54250000D03*
X59750000Y-52750000D03*
X59750000Y-54250000D03*
D14*
X53750000Y-50500000D03*
X55250000Y-50500000D03*
X46500000Y-55500000D03*
X45000000Y-55500000D03*
D15*
X40900000Y-42500000D03*
X37900000Y-42500000D03*
D14*
X54000000Y-63500000D03*
X55500000Y-63500000D03*
X45000000Y-54000000D03*
X46500000Y-54000000D03*
X55500000Y-65000000D03*
X54000000Y-65000000D03*
X46500000Y-52500000D03*
X45000000Y-52500000D03*
X51500000Y-73250000D03*
X50000000Y-73250000D03*
X50000000Y-74750000D03*
X51500000Y-74750000D03*
D13*
X60250000Y-73000000D03*
X60250000Y-74500000D03*
D16*
X39400000Y-37600000D03*
X39400000Y-40600000D03*
D17*
X67975000Y-54925000D03*
X67975000Y-58075000D03*
X71025000Y-54925000D03*
X71025000Y-58075000D03*
D18*
X69500000Y-58575000D03*
X69500000Y-54425000D03*
D19*
X49750000Y-52500000D03*
X50250000Y-52500000D03*
X50750000Y-52500000D03*
X51250000Y-52500000D03*
X51750000Y-52500000D03*
X52250000Y-52500000D03*
X52750000Y-52500000D03*
X53250000Y-52500000D03*
X53750000Y-52500000D03*
X54250000Y-52500000D03*
X54750000Y-52500000D03*
X55250000Y-52500000D03*
X55750000Y-52500000D03*
X56250000Y-52500000D03*
X56750000Y-52500000D03*
X57250000Y-52500000D03*
D20*
X58000000Y-53250000D03*
X58000000Y-53750000D03*
X58000000Y-54250000D03*
X58000000Y-54750000D03*
X58000000Y-55250000D03*
X58000000Y-55750000D03*
X58000000Y-56250000D03*
X58000000Y-56750000D03*
X58000000Y-57250000D03*
X58000000Y-57750000D03*
X58000000Y-58250000D03*
X58000000Y-58750000D03*
X58000000Y-59250000D03*
X58000000Y-59750000D03*
X58000000Y-60250000D03*
X58000000Y-60750000D03*
D19*
X57250000Y-61500000D03*
X56750000Y-61500000D03*
X56250000Y-61500000D03*
X55750000Y-61500000D03*
X55250000Y-61500000D03*
X54750000Y-61500000D03*
X54250000Y-61500000D03*
X53750000Y-61500000D03*
X53250000Y-61500000D03*
X52750000Y-61500000D03*
X52250000Y-61500000D03*
X51750000Y-61500000D03*
X51250000Y-61500000D03*
X50750000Y-61500000D03*
X50250000Y-61500000D03*
X49750000Y-61500000D03*
D20*
X49000000Y-60750000D03*
X49000000Y-60250000D03*
X49000000Y-59750000D03*
X49000000Y-59250000D03*
X49000000Y-58750000D03*
X49000000Y-58250000D03*
X49000000Y-57750000D03*
X49000000Y-57250000D03*
X49000000Y-56750000D03*
X49000000Y-56250000D03*
X49000000Y-55750000D03*
X49000000Y-55250000D03*
X49000000Y-54750000D03*
X49000000Y-54250000D03*
X49000000Y-53750000D03*
X49000000Y-53250000D03*
D21*
X50500000Y-54000000D03*
X50500000Y-56400000D03*
X50500000Y-55200000D03*
X50500000Y-58800000D03*
X50500000Y-57600000D03*
X50500000Y-60000000D03*
X51700000Y-58800000D03*
X51700000Y-60000000D03*
X51700000Y-57600000D03*
X51700000Y-56400000D03*
X51700000Y-54000000D03*
X51700000Y-55200000D03*
X52900000Y-58800000D03*
X52900000Y-60000000D03*
X52900000Y-57600000D03*
X52900000Y-56400000D03*
X52900000Y-54000000D03*
X52900000Y-55200000D03*
X54100000Y-58800000D03*
X54100000Y-60000000D03*
X54100000Y-57600000D03*
X54100000Y-56400000D03*
X54100000Y-54000000D03*
X54100000Y-55200000D03*
X55300000Y-58800000D03*
X55300000Y-60000000D03*
X55300000Y-57600000D03*
X55300000Y-56400000D03*
X55300000Y-54000000D03*
X55300000Y-55200000D03*
X56500000Y-58800000D03*
X56500000Y-60000000D03*
X56500000Y-57600000D03*
X56500000Y-56400000D03*
X56500000Y-54000000D03*
X56500000Y-55200000D03*
D22*
X52374800Y-37104320D03*
X53174900Y-37104320D03*
X53975000Y-37104320D03*
X54775100Y-37104320D03*
X55575200Y-37104320D03*
D23*
X49524920Y-37005260D03*
X49524920Y-31506160D03*
X58425080Y-37005260D03*
X58425080Y-31506160D03*
D24*
X54000000Y-76200000D03*
X54000000Y-75800000D03*
X54000000Y-75400000D03*
X54000000Y-75000000D03*
X54000000Y-74600000D03*
X54000000Y-74200000D03*
X54000000Y-73800000D03*
D25*
X54800000Y-73000000D03*
X55200000Y-73000000D03*
X55600000Y-73000000D03*
X56000000Y-73000000D03*
X56400000Y-73000000D03*
X56800000Y-73000000D03*
X57200000Y-73000000D03*
D24*
X58000000Y-73800000D03*
X58000000Y-74200000D03*
X58000000Y-74600000D03*
X58000000Y-75000000D03*
X58000000Y-75400000D03*
X58000000Y-75800000D03*
X58000000Y-76200000D03*
D25*
X57200000Y-77000000D03*
X56800000Y-77000000D03*
X56400000Y-77000000D03*
X56000000Y-77000000D03*
X55600000Y-77000000D03*
X55200000Y-77000000D03*
X54800000Y-77000000D03*
D26*
X55300000Y-75700000D03*
X56000000Y-75700000D03*
X56700000Y-75700000D03*
X56700000Y-75000000D03*
X55300000Y-75000000D03*
X56000000Y-75000000D03*
X56700000Y-74300000D03*
X55300000Y-74300000D03*
X56000000Y-74300000D03*
D27*
X63850000Y-54350000D03*
X61650000Y-54350000D03*
X61650000Y-52650000D03*
X63850000Y-52650000D03*
D28*
X51810000Y-66040000D03*
X38360000Y-68580000D03*
D29*
X47150000Y-59145000D03*
X47150000Y-57695000D03*
X41750000Y-57695000D03*
X41750000Y-59145000D03*
D28*
X89910000Y-46990000D03*
X76460000Y-49530000D03*
D29*
X85250000Y-40095000D03*
X85250000Y-38645000D03*
X79850000Y-38645000D03*
X79850000Y-40095000D03*
D28*
X108960000Y-46990000D03*
X95510000Y-49530000D03*
D29*
X104300000Y-40095000D03*
X104300000Y-38645000D03*
X98900000Y-38645000D03*
X98900000Y-40095000D03*
D28*
X89910000Y-123190000D03*
X76460000Y-125730000D03*
D29*
X85250000Y-116295000D03*
X85250000Y-114845000D03*
X79850000Y-114845000D03*
X79850000Y-116295000D03*
D28*
X61335000Y-123190000D03*
X47885000Y-125730000D03*
D29*
X56675000Y-116295000D03*
X56675000Y-114845000D03*
X51275000Y-114845000D03*
X51275000Y-116295000D03*
D30*
X104140000Y-103765000D03*
X106680000Y-117215000D03*
D31*
X97245000Y-108425000D03*
X95795000Y-108425000D03*
X95795000Y-113825000D03*
X97245000Y-113825000D03*
D28*
X89910000Y-104140000D03*
X76460000Y-106680000D03*
D29*
X85250000Y-97245000D03*
X85250000Y-95795000D03*
X79850000Y-95795000D03*
X79850000Y-97245000D03*
D28*
X70860000Y-104140000D03*
X57410000Y-106680000D03*
D29*
X66200000Y-97245000D03*
X66200000Y-95795000D03*
X60800000Y-95795000D03*
X60800000Y-97245000D03*
D28*
X51810000Y-104140000D03*
X38360000Y-106680000D03*
D29*
X47150000Y-97245000D03*
X47150000Y-95795000D03*
X41750000Y-95795000D03*
X41750000Y-97245000D03*
D28*
X89910000Y-85090000D03*
X76460000Y-87630000D03*
D29*
X85250000Y-78195000D03*
X85250000Y-76745000D03*
X79850000Y-76745000D03*
X79850000Y-78195000D03*
D28*
X70860000Y-85090000D03*
X57410000Y-87630000D03*
D29*
X66200000Y-78195000D03*
X66200000Y-76745000D03*
X60800000Y-76745000D03*
X60800000Y-78195000D03*
D28*
X51810000Y-85090000D03*
X38360000Y-87630000D03*
D29*
X47150000Y-78195000D03*
X47150000Y-76745000D03*
X41750000Y-76745000D03*
X41750000Y-78195000D03*
D30*
X104140000Y-65665000D03*
X106680000Y-79115000D03*
D31*
X97245000Y-70325000D03*
X95795000Y-70325000D03*
X95795000Y-75725000D03*
X97245000Y-75725000D03*
D28*
X70860000Y-66040000D03*
X57410000Y-68580000D03*
D29*
X66200000Y-59145000D03*
X66200000Y-57695000D03*
X60800000Y-57695000D03*
X60800000Y-59145000D03*
D28*
X70860000Y-46990000D03*
X57410000Y-49530000D03*
D29*
X66200000Y-40095000D03*
X66200000Y-38645000D03*
X60800000Y-38645000D03*
X60800000Y-40095000D03*
D28*
X51810000Y-46990000D03*
X38360000Y-49530000D03*
D29*
X47150000Y-40095000D03*
X47150000Y-38645000D03*
X41750000Y-38645000D03*
X41750000Y-40095000D03*
D28*
X89910000Y-66040000D03*
X76460000Y-68580000D03*
D29*
X85250000Y-59145000D03*
X85250000Y-57695000D03*
X79850000Y-57695000D03*
X79850000Y-59145000D03*
D32*
X56000000Y-47250000D03*
X56000000Y-45750000D03*
D33*
X71750000Y-52500000D03*
X70250000Y-52500000D03*
D32*
X64250000Y-73200000D03*
X64250000Y-74700000D03*
X62750000Y-73200000D03*
X62750000Y-74700000D03*
X54500000Y-47250000D03*
X54500000Y-45750000D03*
D33*
X50000000Y-76250000D03*
X51500000Y-76250000D03*
X50000000Y-71750000D03*
X51500000Y-71750000D03*
D34*
X97150000Y-57600000D03*
X105850000Y-57600000D03*
M02*
